M48
; DRILL file {KiCad 9.0.2} date 2025-07-09T02:52:22-0400
; FORMAT={-:-/ absolute / metric / decimal}
; #@! TF.CreationDate,2025-07-09T02:52:22-04:00
; #@! TF.GenerationSoftware,Kicad,Pcbnew,9.0.2
; #@! TF.FileFunction,Plated,1,2,PTH
FMAT,2
METRIC
; #@! TA.AperFunction,Plated,PTH,ComponentDrill
T1C0.700
; #@! TA.AperFunction,Plated,PTH,ComponentDrill
T2C0.900
%
G90
G05
T2
X167.02Y-118.1
X169.56Y-118.1
X169.56Y-128.26
X169.56Y-131.18
X172.1Y-118.1
X172.1Y-128.26
X172.1Y-131.18
X174.64Y-118.1
X174.64Y-128.26
X174.64Y-131.18
X177.18Y-118.1
X177.18Y-128.26
X177.18Y-131.18
X179.72Y-118.1
X179.72Y-128.26
X179.72Y-131.18
X182.26Y-118.1
T1
X168.45Y-111.0G85X169.25Y-111.0
G05
X171.45Y-111.0G85X172.25Y-111.0
G05
X175.45Y-111.0G85X176.25Y-111.0
G05
X176.45Y-115.4G85X177.25Y-115.4
G05
M30
