G04 #@! TF.GenerationSoftware,KiCad,Pcbnew,9.0.2*
G04 #@! TF.CreationDate,2025-07-09T02:52:23-04:00*
G04 #@! TF.ProjectId,FBT,4642542e-6b69-4636-9164-5f7063625858,rev?*
G04 #@! TF.SameCoordinates,Original*
G04 #@! TF.FileFunction,Legend,Bot*
G04 #@! TF.FilePolarity,Positive*
%FSLAX46Y46*%
G04 Gerber Fmt 4.6, Leading zero omitted, Abs format (unit mm)*
G04 Created by KiCad (PCBNEW 9.0.2) date 2025-07-09 02:52:23*
%MOMM*%
%LPD*%
G01*
G04 APERTURE LIST*
%ADD10C,0.100000*%
%ADD11C,0.120000*%
G04 APERTURE END LIST*
D10*
X172547468Y-125006115D02*
X171737945Y-125006115D01*
X171737945Y-125006115D02*
X171642707Y-124958496D01*
X171642707Y-124958496D02*
X171595088Y-124910877D01*
X171595088Y-124910877D02*
X171547468Y-124815639D01*
X171547468Y-124815639D02*
X171547468Y-124625163D01*
X171547468Y-124625163D02*
X171595088Y-124529925D01*
X171595088Y-124529925D02*
X171642707Y-124482306D01*
X171642707Y-124482306D02*
X171737945Y-124434687D01*
X171737945Y-124434687D02*
X172547468Y-124434687D01*
X172071278Y-123625163D02*
X172071278Y-123958496D01*
X171547468Y-123958496D02*
X172547468Y-123958496D01*
X172547468Y-123958496D02*
X172547468Y-123482306D01*
X172071278Y-122768020D02*
X172023659Y-122625163D01*
X172023659Y-122625163D02*
X171976040Y-122577544D01*
X171976040Y-122577544D02*
X171880802Y-122529925D01*
X171880802Y-122529925D02*
X171737945Y-122529925D01*
X171737945Y-122529925D02*
X171642707Y-122577544D01*
X171642707Y-122577544D02*
X171595088Y-122625163D01*
X171595088Y-122625163D02*
X171547468Y-122720401D01*
X171547468Y-122720401D02*
X171547468Y-123101353D01*
X171547468Y-123101353D02*
X172547468Y-123101353D01*
X172547468Y-123101353D02*
X172547468Y-122768020D01*
X172547468Y-122768020D02*
X172499849Y-122672782D01*
X172499849Y-122672782D02*
X172452230Y-122625163D01*
X172452230Y-122625163D02*
X172356992Y-122577544D01*
X172356992Y-122577544D02*
X172261754Y-122577544D01*
X172261754Y-122577544D02*
X172166516Y-122625163D01*
X172166516Y-122625163D02*
X172118897Y-122672782D01*
X172118897Y-122672782D02*
X172071278Y-122768020D01*
X172071278Y-122768020D02*
X172071278Y-123101353D01*
X172547468Y-122244210D02*
X172547468Y-121672782D01*
X171547468Y-121958496D02*
X172547468Y-121958496D01*
X171547468Y-121339448D02*
X172547468Y-121339448D01*
X172547468Y-121339448D02*
X171833183Y-121006115D01*
X171833183Y-121006115D02*
X172547468Y-120672782D01*
X172547468Y-120672782D02*
X171547468Y-120672782D01*
X170937524Y-125148972D02*
X170937524Y-124577544D01*
X169937524Y-124863258D02*
X170937524Y-124863258D01*
X170604191Y-124339448D02*
X169937524Y-124101353D01*
X170604191Y-123863258D02*
X169937524Y-124101353D01*
X169937524Y-124101353D02*
X169699429Y-124196591D01*
X169699429Y-124196591D02*
X169651810Y-124244210D01*
X169651810Y-124244210D02*
X169604191Y-124339448D01*
X170604191Y-123482305D02*
X169604191Y-123482305D01*
X170556572Y-123482305D02*
X170604191Y-123387067D01*
X170604191Y-123387067D02*
X170604191Y-123196591D01*
X170604191Y-123196591D02*
X170556572Y-123101353D01*
X170556572Y-123101353D02*
X170508953Y-123053734D01*
X170508953Y-123053734D02*
X170413715Y-123006115D01*
X170413715Y-123006115D02*
X170128001Y-123006115D01*
X170128001Y-123006115D02*
X170032763Y-123053734D01*
X170032763Y-123053734D02*
X169985144Y-123101353D01*
X169985144Y-123101353D02*
X169937524Y-123196591D01*
X169937524Y-123196591D02*
X169937524Y-123387067D01*
X169937524Y-123387067D02*
X169985144Y-123482305D01*
X169985144Y-122196591D02*
X169937524Y-122291829D01*
X169937524Y-122291829D02*
X169937524Y-122482305D01*
X169937524Y-122482305D02*
X169985144Y-122577543D01*
X169985144Y-122577543D02*
X170080382Y-122625162D01*
X170080382Y-122625162D02*
X170461334Y-122625162D01*
X170461334Y-122625162D02*
X170556572Y-122577543D01*
X170556572Y-122577543D02*
X170604191Y-122482305D01*
X170604191Y-122482305D02*
X170604191Y-122291829D01*
X170604191Y-122291829D02*
X170556572Y-122196591D01*
X170556572Y-122196591D02*
X170461334Y-122148972D01*
X170461334Y-122148972D02*
X170366096Y-122148972D01*
X170366096Y-122148972D02*
X170270858Y-122625162D01*
X170461334Y-120625162D02*
X170413715Y-120482305D01*
X170413715Y-120482305D02*
X170366096Y-120434686D01*
X170366096Y-120434686D02*
X170270858Y-120387067D01*
X170270858Y-120387067D02*
X170128001Y-120387067D01*
X170128001Y-120387067D02*
X170032763Y-120434686D01*
X170032763Y-120434686D02*
X169985144Y-120482305D01*
X169985144Y-120482305D02*
X169937524Y-120577543D01*
X169937524Y-120577543D02*
X169937524Y-120958495D01*
X169937524Y-120958495D02*
X170937524Y-120958495D01*
X170937524Y-120958495D02*
X170937524Y-120625162D01*
X170937524Y-120625162D02*
X170889905Y-120529924D01*
X170889905Y-120529924D02*
X170842286Y-120482305D01*
X170842286Y-120482305D02*
X170747048Y-120434686D01*
X170747048Y-120434686D02*
X170651810Y-120434686D01*
X170651810Y-120434686D02*
X170556572Y-120482305D01*
X170556572Y-120482305D02*
X170508953Y-120529924D01*
X170508953Y-120529924D02*
X170461334Y-120625162D01*
X170461334Y-120625162D02*
X170461334Y-120958495D01*
X168327580Y-124434687D02*
X168803771Y-124768020D01*
X168327580Y-125006115D02*
X169327580Y-125006115D01*
X169327580Y-125006115D02*
X169327580Y-124625163D01*
X169327580Y-124625163D02*
X169279961Y-124529925D01*
X169279961Y-124529925D02*
X169232342Y-124482306D01*
X169232342Y-124482306D02*
X169137104Y-124434687D01*
X169137104Y-124434687D02*
X168994247Y-124434687D01*
X168994247Y-124434687D02*
X168899009Y-124482306D01*
X168899009Y-124482306D02*
X168851390Y-124529925D01*
X168851390Y-124529925D02*
X168803771Y-124625163D01*
X168803771Y-124625163D02*
X168803771Y-125006115D01*
X168375200Y-123625163D02*
X168327580Y-123720401D01*
X168327580Y-123720401D02*
X168327580Y-123910877D01*
X168327580Y-123910877D02*
X168375200Y-124006115D01*
X168375200Y-124006115D02*
X168470438Y-124053734D01*
X168470438Y-124053734D02*
X168851390Y-124053734D01*
X168851390Y-124053734D02*
X168946628Y-124006115D01*
X168946628Y-124006115D02*
X168994247Y-123910877D01*
X168994247Y-123910877D02*
X168994247Y-123720401D01*
X168994247Y-123720401D02*
X168946628Y-123625163D01*
X168946628Y-123625163D02*
X168851390Y-123577544D01*
X168851390Y-123577544D02*
X168756152Y-123577544D01*
X168756152Y-123577544D02*
X168660914Y-124053734D01*
X168994247Y-123244210D02*
X168327580Y-123006115D01*
X168327580Y-123006115D02*
X168994247Y-122768020D01*
X168422819Y-122387067D02*
X168375200Y-122339448D01*
X168375200Y-122339448D02*
X168327580Y-122387067D01*
X168327580Y-122387067D02*
X168375200Y-122434686D01*
X168375200Y-122434686D02*
X168422819Y-122387067D01*
X168422819Y-122387067D02*
X168327580Y-122387067D01*
X168327580Y-120625163D02*
X168327580Y-121196591D01*
X168327580Y-120910877D02*
X169327580Y-120910877D01*
X169327580Y-120910877D02*
X169184723Y-121006115D01*
X169184723Y-121006115D02*
X169089485Y-121101353D01*
X169089485Y-121101353D02*
X169041866Y-121196591D01*
X168422819Y-120196591D02*
X168375200Y-120148972D01*
X168375200Y-120148972D02*
X168327580Y-120196591D01*
X168327580Y-120196591D02*
X168375200Y-120244210D01*
X168375200Y-120244210D02*
X168422819Y-120196591D01*
X168422819Y-120196591D02*
X168327580Y-120196591D01*
X169327580Y-119529925D02*
X169327580Y-119434687D01*
X169327580Y-119434687D02*
X169279961Y-119339449D01*
X169279961Y-119339449D02*
X169232342Y-119291830D01*
X169232342Y-119291830D02*
X169137104Y-119244211D01*
X169137104Y-119244211D02*
X168946628Y-119196592D01*
X168946628Y-119196592D02*
X168708533Y-119196592D01*
X168708533Y-119196592D02*
X168518057Y-119244211D01*
X168518057Y-119244211D02*
X168422819Y-119291830D01*
X168422819Y-119291830D02*
X168375200Y-119339449D01*
X168375200Y-119339449D02*
X168327580Y-119434687D01*
X168327580Y-119434687D02*
X168327580Y-119529925D01*
X168327580Y-119529925D02*
X168375200Y-119625163D01*
X168375200Y-119625163D02*
X168422819Y-119672782D01*
X168422819Y-119672782D02*
X168518057Y-119720401D01*
X168518057Y-119720401D02*
X168708533Y-119768020D01*
X168708533Y-119768020D02*
X168946628Y-119768020D01*
X168946628Y-119768020D02*
X169137104Y-119720401D01*
X169137104Y-119720401D02*
X169232342Y-119672782D01*
X169232342Y-119672782D02*
X169279961Y-119625163D01*
X169279961Y-119625163D02*
X169327580Y-119529925D01*
X175262857Y-125765038D02*
X175358095Y-125717419D01*
X175358095Y-125717419D02*
X175500952Y-125717419D01*
X175500952Y-125717419D02*
X175643809Y-125765038D01*
X175643809Y-125765038D02*
X175739047Y-125860276D01*
X175739047Y-125860276D02*
X175786666Y-125955514D01*
X175786666Y-125955514D02*
X175834285Y-126145990D01*
X175834285Y-126145990D02*
X175834285Y-126288847D01*
X175834285Y-126288847D02*
X175786666Y-126479323D01*
X175786666Y-126479323D02*
X175739047Y-126574561D01*
X175739047Y-126574561D02*
X175643809Y-126669800D01*
X175643809Y-126669800D02*
X175500952Y-126717419D01*
X175500952Y-126717419D02*
X175405714Y-126717419D01*
X175405714Y-126717419D02*
X175262857Y-126669800D01*
X175262857Y-126669800D02*
X175215238Y-126622180D01*
X175215238Y-126622180D02*
X175215238Y-126288847D01*
X175215238Y-126288847D02*
X175405714Y-126288847D01*
X174596190Y-126241228D02*
X174596190Y-126717419D01*
X174929523Y-125717419D02*
X174596190Y-126241228D01*
X174596190Y-126241228D02*
X174262857Y-125717419D01*
X173977142Y-125812657D02*
X173929523Y-125765038D01*
X173929523Y-125765038D02*
X173834285Y-125717419D01*
X173834285Y-125717419D02*
X173596190Y-125717419D01*
X173596190Y-125717419D02*
X173500952Y-125765038D01*
X173500952Y-125765038D02*
X173453333Y-125812657D01*
X173453333Y-125812657D02*
X173405714Y-125907895D01*
X173405714Y-125907895D02*
X173405714Y-126003133D01*
X173405714Y-126003133D02*
X173453333Y-126145990D01*
X173453333Y-126145990D02*
X174024761Y-126717419D01*
X174024761Y-126717419D02*
X173405714Y-126717419D01*
D11*
X181244000Y-132704000D02*
X167996000Y-132704000D01*
X167996000Y-117916000D01*
X181244000Y-117916000D01*
X181244000Y-132704000D01*
M02*
