%TF.GenerationSoftware,KiCad,Pcbnew,9.0.2*%
%TF.CreationDate,2025-07-09T02:52:22-04:00*%
%TF.ProjectId,FBT,4642542e-6b69-4636-9164-5f7063625858,rev?*%
%TF.SameCoordinates,Original*%
%TF.FileFunction,Drillmap*%
%TF.FilePolarity,Positive*%
%FSLAX45Y45*%
G04 Gerber Fmt 4.5, Leading zero omitted, Abs format (unit mm)*
G04 Created by KiCad (PCBNEW 9.0.2) date 2025-07-09 02:52:22*
%MOMM*%
%LPD*%
G01*
G04 APERTURE LIST*
%ADD10C,0.200000*%
%ADD11C,0.100000*%
G04 APERTURE END LIST*
D10*
X16539000Y-10973000D02*
X18389000Y-10973000D01*
X18389000Y-13283000D01*
X16539000Y-13283000D01*
X16539000Y-10973000D01*
D11*
X16850000Y-11065000D02*
X16920000Y-11135000D01*
X16920000Y-11065000D02*
X16850000Y-11135000D01*
X16845000Y-11135000D02*
X16925000Y-11135000D01*
X16925000Y-11065000D02*
G75*
G02*
X16925000Y-11135000I0J-35000D01*
G01*
X16925000Y-11065000D02*
X16845000Y-11065000D01*
X16845000Y-11065000D02*
G75*
G03*
X16845000Y-11135000I0J-35000D01*
G01*
X17150000Y-11065000D02*
X17220000Y-11135000D01*
X17220000Y-11065000D02*
X17150000Y-11135000D01*
X17145000Y-11135000D02*
X17225000Y-11135000D01*
X17225000Y-11065000D02*
G75*
G02*
X17225000Y-11135000I0J-35000D01*
G01*
X17225000Y-11065000D02*
X17145000Y-11065000D01*
X17145000Y-11065000D02*
G75*
G03*
X17145000Y-11135000I0J-35000D01*
G01*
X17550000Y-11065000D02*
X17620000Y-11135000D01*
X17620000Y-11065000D02*
X17550000Y-11135000D01*
X17545000Y-11135000D02*
X17625000Y-11135000D01*
X17625000Y-11065000D02*
G75*
G02*
X17625000Y-11135000I0J-35000D01*
G01*
X17625000Y-11065000D02*
X17545000Y-11065000D01*
X17545000Y-11065000D02*
G75*
G03*
X17545000Y-11135000I0J-35000D01*
G01*
X17650000Y-11505000D02*
X17720000Y-11575000D01*
X17720000Y-11505000D02*
X17650000Y-11575000D01*
X17645000Y-11575000D02*
X17725000Y-11575000D01*
X17725000Y-11505000D02*
G75*
G02*
X17725000Y-11575000I0J-35000D01*
G01*
X17725000Y-11505000D02*
X17645000Y-11505000D01*
X17645000Y-11505000D02*
G75*
G03*
X17645000Y-11575000I0J-35000D01*
G01*
X16747000Y-11810000D02*
G75*
G02*
X16657000Y-11810000I-45000J0D01*
G01*
X16657000Y-11810000D02*
G75*
G02*
X16747000Y-11810000I45000J0D01*
G01*
X17001000Y-11810000D02*
G75*
G02*
X16911000Y-11810000I-45000J0D01*
G01*
X16911000Y-11810000D02*
G75*
G02*
X17001000Y-11810000I45000J0D01*
G01*
X17001000Y-12826000D02*
G75*
G02*
X16911000Y-12826000I-45000J0D01*
G01*
X16911000Y-12826000D02*
G75*
G02*
X17001000Y-12826000I45000J0D01*
G01*
X17001000Y-13118000D02*
G75*
G02*
X16911000Y-13118000I-45000J0D01*
G01*
X16911000Y-13118000D02*
G75*
G02*
X17001000Y-13118000I45000J0D01*
G01*
X17255000Y-11810000D02*
G75*
G02*
X17165000Y-11810000I-45000J0D01*
G01*
X17165000Y-11810000D02*
G75*
G02*
X17255000Y-11810000I45000J0D01*
G01*
X17255000Y-12826000D02*
G75*
G02*
X17165000Y-12826000I-45000J0D01*
G01*
X17165000Y-12826000D02*
G75*
G02*
X17255000Y-12826000I45000J0D01*
G01*
X17255000Y-13118000D02*
G75*
G02*
X17165000Y-13118000I-45000J0D01*
G01*
X17165000Y-13118000D02*
G75*
G02*
X17255000Y-13118000I45000J0D01*
G01*
X17509000Y-11810000D02*
G75*
G02*
X17419000Y-11810000I-45000J0D01*
G01*
X17419000Y-11810000D02*
G75*
G02*
X17509000Y-11810000I45000J0D01*
G01*
X17509000Y-12826000D02*
G75*
G02*
X17419000Y-12826000I-45000J0D01*
G01*
X17419000Y-12826000D02*
G75*
G02*
X17509000Y-12826000I45000J0D01*
G01*
X17509000Y-13118000D02*
G75*
G02*
X17419000Y-13118000I-45000J0D01*
G01*
X17419000Y-13118000D02*
G75*
G02*
X17509000Y-13118000I45000J0D01*
G01*
X17763000Y-11810000D02*
G75*
G02*
X17673000Y-11810000I-45000J0D01*
G01*
X17673000Y-11810000D02*
G75*
G02*
X17763000Y-11810000I45000J0D01*
G01*
X17763000Y-12826000D02*
G75*
G02*
X17673000Y-12826000I-45000J0D01*
G01*
X17673000Y-12826000D02*
G75*
G02*
X17763000Y-12826000I45000J0D01*
G01*
X17763000Y-13118000D02*
G75*
G02*
X17673000Y-13118000I-45000J0D01*
G01*
X17673000Y-13118000D02*
G75*
G02*
X17763000Y-13118000I45000J0D01*
G01*
X18017000Y-11810000D02*
G75*
G02*
X17927000Y-11810000I-45000J0D01*
G01*
X17927000Y-11810000D02*
G75*
G02*
X18017000Y-11810000I45000J0D01*
G01*
X18017000Y-12826000D02*
G75*
G02*
X17927000Y-12826000I-45000J0D01*
G01*
X17927000Y-12826000D02*
G75*
G02*
X18017000Y-12826000I45000J0D01*
G01*
X18017000Y-13118000D02*
G75*
G02*
X17927000Y-13118000I-45000J0D01*
G01*
X17927000Y-13118000D02*
G75*
G02*
X18017000Y-13118000I45000J0D01*
G01*
X18271000Y-11810000D02*
G75*
G02*
X18181000Y-11810000I-45000J0D01*
G01*
X18181000Y-11810000D02*
G75*
G02*
X18271000Y-11810000I45000J0D01*
G01*
D10*
X16789777Y-13604484D02*
X16789777Y-13404484D01*
X16789777Y-13404484D02*
X16837396Y-13404484D01*
X16837396Y-13404484D02*
X16865967Y-13414008D01*
X16865967Y-13414008D02*
X16885015Y-13433055D01*
X16885015Y-13433055D02*
X16894539Y-13452103D01*
X16894539Y-13452103D02*
X16904063Y-13490198D01*
X16904063Y-13490198D02*
X16904063Y-13518769D01*
X16904063Y-13518769D02*
X16894539Y-13556865D01*
X16894539Y-13556865D02*
X16885015Y-13575912D01*
X16885015Y-13575912D02*
X16865967Y-13594960D01*
X16865967Y-13594960D02*
X16837396Y-13604484D01*
X16837396Y-13604484D02*
X16789777Y-13604484D01*
X16989777Y-13604484D02*
X16989777Y-13471150D01*
X16989777Y-13509246D02*
X16999301Y-13490198D01*
X16999301Y-13490198D02*
X17008824Y-13480674D01*
X17008824Y-13480674D02*
X17027872Y-13471150D01*
X17027872Y-13471150D02*
X17046920Y-13471150D01*
X17113586Y-13604484D02*
X17113586Y-13471150D01*
X17113586Y-13404484D02*
X17104063Y-13414008D01*
X17104063Y-13414008D02*
X17113586Y-13423531D01*
X17113586Y-13423531D02*
X17123110Y-13414008D01*
X17123110Y-13414008D02*
X17113586Y-13404484D01*
X17113586Y-13404484D02*
X17113586Y-13423531D01*
X17237396Y-13604484D02*
X17218348Y-13594960D01*
X17218348Y-13594960D02*
X17208824Y-13575912D01*
X17208824Y-13575912D02*
X17208824Y-13404484D01*
X17342158Y-13604484D02*
X17323110Y-13594960D01*
X17323110Y-13594960D02*
X17313586Y-13575912D01*
X17313586Y-13575912D02*
X17313586Y-13404484D01*
X17570729Y-13604484D02*
X17570729Y-13404484D01*
X17570729Y-13404484D02*
X17637396Y-13547341D01*
X17637396Y-13547341D02*
X17704063Y-13404484D01*
X17704063Y-13404484D02*
X17704063Y-13604484D01*
X17885015Y-13604484D02*
X17885015Y-13499722D01*
X17885015Y-13499722D02*
X17875491Y-13480674D01*
X17875491Y-13480674D02*
X17856444Y-13471150D01*
X17856444Y-13471150D02*
X17818348Y-13471150D01*
X17818348Y-13471150D02*
X17799301Y-13480674D01*
X17885015Y-13594960D02*
X17865967Y-13604484D01*
X17865967Y-13604484D02*
X17818348Y-13604484D01*
X17818348Y-13604484D02*
X17799301Y-13594960D01*
X17799301Y-13594960D02*
X17789777Y-13575912D01*
X17789777Y-13575912D02*
X17789777Y-13556865D01*
X17789777Y-13556865D02*
X17799301Y-13537817D01*
X17799301Y-13537817D02*
X17818348Y-13528293D01*
X17818348Y-13528293D02*
X17865967Y-13528293D01*
X17865967Y-13528293D02*
X17885015Y-13518769D01*
X17980253Y-13471150D02*
X17980253Y-13671150D01*
X17980253Y-13480674D02*
X17999301Y-13471150D01*
X17999301Y-13471150D02*
X18037396Y-13471150D01*
X18037396Y-13471150D02*
X18056444Y-13480674D01*
X18056444Y-13480674D02*
X18065967Y-13490198D01*
X18065967Y-13490198D02*
X18075491Y-13509246D01*
X18075491Y-13509246D02*
X18075491Y-13566388D01*
X18075491Y-13566388D02*
X18065967Y-13585436D01*
X18065967Y-13585436D02*
X18056444Y-13594960D01*
X18056444Y-13594960D02*
X18037396Y-13604484D01*
X18037396Y-13604484D02*
X17999301Y-13604484D01*
X17999301Y-13604484D02*
X17980253Y-13594960D01*
X18161205Y-13585436D02*
X18170729Y-13594960D01*
X18170729Y-13594960D02*
X18161205Y-13604484D01*
X18161205Y-13604484D02*
X18151682Y-13594960D01*
X18151682Y-13594960D02*
X18161205Y-13585436D01*
X18161205Y-13585436D02*
X18161205Y-13604484D01*
X18161205Y-13480674D02*
X18170729Y-13490198D01*
X18170729Y-13490198D02*
X18161205Y-13499722D01*
X18161205Y-13499722D02*
X18151682Y-13490198D01*
X18151682Y-13490198D02*
X18161205Y-13480674D01*
X18161205Y-13480674D02*
X18161205Y-13499722D01*
D11*
X16459000Y-13898000D02*
X16529000Y-13968000D01*
X16529000Y-13898000D02*
X16459000Y-13968000D01*
D10*
X16827872Y-13824484D02*
X16846920Y-13824484D01*
X16846920Y-13824484D02*
X16865967Y-13834008D01*
X16865967Y-13834008D02*
X16875491Y-13843531D01*
X16875491Y-13843531D02*
X16885015Y-13862579D01*
X16885015Y-13862579D02*
X16894539Y-13900674D01*
X16894539Y-13900674D02*
X16894539Y-13948293D01*
X16894539Y-13948293D02*
X16885015Y-13986388D01*
X16885015Y-13986388D02*
X16875491Y-14005436D01*
X16875491Y-14005436D02*
X16865967Y-14014960D01*
X16865967Y-14014960D02*
X16846920Y-14024484D01*
X16846920Y-14024484D02*
X16827872Y-14024484D01*
X16827872Y-14024484D02*
X16808824Y-14014960D01*
X16808824Y-14014960D02*
X16799301Y-14005436D01*
X16799301Y-14005436D02*
X16789777Y-13986388D01*
X16789777Y-13986388D02*
X16780253Y-13948293D01*
X16780253Y-13948293D02*
X16780253Y-13900674D01*
X16780253Y-13900674D02*
X16789777Y-13862579D01*
X16789777Y-13862579D02*
X16799301Y-13843531D01*
X16799301Y-13843531D02*
X16808824Y-13834008D01*
X16808824Y-13834008D02*
X16827872Y-13824484D01*
X16980253Y-14005436D02*
X16989777Y-14014960D01*
X16989777Y-14014960D02*
X16980253Y-14024484D01*
X16980253Y-14024484D02*
X16970729Y-14014960D01*
X16970729Y-14014960D02*
X16980253Y-14005436D01*
X16980253Y-14005436D02*
X16980253Y-14024484D01*
X17056444Y-13824484D02*
X17189777Y-13824484D01*
X17189777Y-13824484D02*
X17104063Y-14024484D01*
X17304063Y-13824484D02*
X17323110Y-13824484D01*
X17323110Y-13824484D02*
X17342158Y-13834008D01*
X17342158Y-13834008D02*
X17351682Y-13843531D01*
X17351682Y-13843531D02*
X17361205Y-13862579D01*
X17361205Y-13862579D02*
X17370729Y-13900674D01*
X17370729Y-13900674D02*
X17370729Y-13948293D01*
X17370729Y-13948293D02*
X17361205Y-13986388D01*
X17361205Y-13986388D02*
X17351682Y-14005436D01*
X17351682Y-14005436D02*
X17342158Y-14014960D01*
X17342158Y-14014960D02*
X17323110Y-14024484D01*
X17323110Y-14024484D02*
X17304063Y-14024484D01*
X17304063Y-14024484D02*
X17285015Y-14014960D01*
X17285015Y-14014960D02*
X17275491Y-14005436D01*
X17275491Y-14005436D02*
X17265967Y-13986388D01*
X17265967Y-13986388D02*
X17256444Y-13948293D01*
X17256444Y-13948293D02*
X17256444Y-13900674D01*
X17256444Y-13900674D02*
X17265967Y-13862579D01*
X17265967Y-13862579D02*
X17275491Y-13843531D01*
X17275491Y-13843531D02*
X17285015Y-13834008D01*
X17285015Y-13834008D02*
X17304063Y-13824484D01*
X17494539Y-13824484D02*
X17513586Y-13824484D01*
X17513586Y-13824484D02*
X17532634Y-13834008D01*
X17532634Y-13834008D02*
X17542158Y-13843531D01*
X17542158Y-13843531D02*
X17551682Y-13862579D01*
X17551682Y-13862579D02*
X17561205Y-13900674D01*
X17561205Y-13900674D02*
X17561205Y-13948293D01*
X17561205Y-13948293D02*
X17551682Y-13986388D01*
X17551682Y-13986388D02*
X17542158Y-14005436D01*
X17542158Y-14005436D02*
X17532634Y-14014960D01*
X17532634Y-14014960D02*
X17513586Y-14024484D01*
X17513586Y-14024484D02*
X17494539Y-14024484D01*
X17494539Y-14024484D02*
X17475491Y-14014960D01*
X17475491Y-14014960D02*
X17465967Y-14005436D01*
X17465967Y-14005436D02*
X17456444Y-13986388D01*
X17456444Y-13986388D02*
X17446920Y-13948293D01*
X17446920Y-13948293D02*
X17446920Y-13900674D01*
X17446920Y-13900674D02*
X17456444Y-13862579D01*
X17456444Y-13862579D02*
X17465967Y-13843531D01*
X17465967Y-13843531D02*
X17475491Y-13834008D01*
X17475491Y-13834008D02*
X17494539Y-13824484D01*
X17646920Y-14024484D02*
X17646920Y-13891150D01*
X17646920Y-13910198D02*
X17656444Y-13900674D01*
X17656444Y-13900674D02*
X17675491Y-13891150D01*
X17675491Y-13891150D02*
X17704063Y-13891150D01*
X17704063Y-13891150D02*
X17723110Y-13900674D01*
X17723110Y-13900674D02*
X17732634Y-13919722D01*
X17732634Y-13919722D02*
X17732634Y-14024484D01*
X17732634Y-13919722D02*
X17742158Y-13900674D01*
X17742158Y-13900674D02*
X17761205Y-13891150D01*
X17761205Y-13891150D02*
X17789777Y-13891150D01*
X17789777Y-13891150D02*
X17808825Y-13900674D01*
X17808825Y-13900674D02*
X17818348Y-13919722D01*
X17818348Y-13919722D02*
X17818348Y-14024484D01*
X17913586Y-14024484D02*
X17913586Y-13891150D01*
X17913586Y-13910198D02*
X17923110Y-13900674D01*
X17923110Y-13900674D02*
X17942158Y-13891150D01*
X17942158Y-13891150D02*
X17970729Y-13891150D01*
X17970729Y-13891150D02*
X17989777Y-13900674D01*
X17989777Y-13900674D02*
X17999301Y-13919722D01*
X17999301Y-13919722D02*
X17999301Y-14024484D01*
X17999301Y-13919722D02*
X18008825Y-13900674D01*
X18008825Y-13900674D02*
X18027872Y-13891150D01*
X18027872Y-13891150D02*
X18056444Y-13891150D01*
X18056444Y-13891150D02*
X18075491Y-13900674D01*
X18075491Y-13900674D02*
X18085015Y-13919722D01*
X18085015Y-13919722D02*
X18085015Y-14024484D01*
X18475491Y-13814960D02*
X18304063Y-14072103D01*
X18732634Y-13824484D02*
X18751682Y-13824484D01*
X18751682Y-13824484D02*
X18770729Y-13834008D01*
X18770729Y-13834008D02*
X18780253Y-13843531D01*
X18780253Y-13843531D02*
X18789777Y-13862579D01*
X18789777Y-13862579D02*
X18799301Y-13900674D01*
X18799301Y-13900674D02*
X18799301Y-13948293D01*
X18799301Y-13948293D02*
X18789777Y-13986388D01*
X18789777Y-13986388D02*
X18780253Y-14005436D01*
X18780253Y-14005436D02*
X18770729Y-14014960D01*
X18770729Y-14014960D02*
X18751682Y-14024484D01*
X18751682Y-14024484D02*
X18732634Y-14024484D01*
X18732634Y-14024484D02*
X18713587Y-14014960D01*
X18713587Y-14014960D02*
X18704063Y-14005436D01*
X18704063Y-14005436D02*
X18694539Y-13986388D01*
X18694539Y-13986388D02*
X18685015Y-13948293D01*
X18685015Y-13948293D02*
X18685015Y-13900674D01*
X18685015Y-13900674D02*
X18694539Y-13862579D01*
X18694539Y-13862579D02*
X18704063Y-13843531D01*
X18704063Y-13843531D02*
X18713587Y-13834008D01*
X18713587Y-13834008D02*
X18732634Y-13824484D01*
X18885015Y-14005436D02*
X18894539Y-14014960D01*
X18894539Y-14014960D02*
X18885015Y-14024484D01*
X18885015Y-14024484D02*
X18875491Y-14014960D01*
X18875491Y-14014960D02*
X18885015Y-14005436D01*
X18885015Y-14005436D02*
X18885015Y-14024484D01*
X19018348Y-13824484D02*
X19037396Y-13824484D01*
X19037396Y-13824484D02*
X19056444Y-13834008D01*
X19056444Y-13834008D02*
X19065968Y-13843531D01*
X19065968Y-13843531D02*
X19075491Y-13862579D01*
X19075491Y-13862579D02*
X19085015Y-13900674D01*
X19085015Y-13900674D02*
X19085015Y-13948293D01*
X19085015Y-13948293D02*
X19075491Y-13986388D01*
X19075491Y-13986388D02*
X19065968Y-14005436D01*
X19065968Y-14005436D02*
X19056444Y-14014960D01*
X19056444Y-14014960D02*
X19037396Y-14024484D01*
X19037396Y-14024484D02*
X19018348Y-14024484D01*
X19018348Y-14024484D02*
X18999301Y-14014960D01*
X18999301Y-14014960D02*
X18989777Y-14005436D01*
X18989777Y-14005436D02*
X18980253Y-13986388D01*
X18980253Y-13986388D02*
X18970729Y-13948293D01*
X18970729Y-13948293D02*
X18970729Y-13900674D01*
X18970729Y-13900674D02*
X18980253Y-13862579D01*
X18980253Y-13862579D02*
X18989777Y-13843531D01*
X18989777Y-13843531D02*
X18999301Y-13834008D01*
X18999301Y-13834008D02*
X19018348Y-13824484D01*
X19161206Y-13843531D02*
X19170729Y-13834008D01*
X19170729Y-13834008D02*
X19189777Y-13824484D01*
X19189777Y-13824484D02*
X19237396Y-13824484D01*
X19237396Y-13824484D02*
X19256444Y-13834008D01*
X19256444Y-13834008D02*
X19265968Y-13843531D01*
X19265968Y-13843531D02*
X19275491Y-13862579D01*
X19275491Y-13862579D02*
X19275491Y-13881627D01*
X19275491Y-13881627D02*
X19265968Y-13910198D01*
X19265968Y-13910198D02*
X19151682Y-14024484D01*
X19151682Y-14024484D02*
X19275491Y-14024484D01*
X19342158Y-13824484D02*
X19475491Y-13824484D01*
X19475491Y-13824484D02*
X19389777Y-14024484D01*
X19637396Y-13824484D02*
X19599301Y-13824484D01*
X19599301Y-13824484D02*
X19580253Y-13834008D01*
X19580253Y-13834008D02*
X19570729Y-13843531D01*
X19570729Y-13843531D02*
X19551682Y-13872103D01*
X19551682Y-13872103D02*
X19542158Y-13910198D01*
X19542158Y-13910198D02*
X19542158Y-13986388D01*
X19542158Y-13986388D02*
X19551682Y-14005436D01*
X19551682Y-14005436D02*
X19561206Y-14014960D01*
X19561206Y-14014960D02*
X19580253Y-14024484D01*
X19580253Y-14024484D02*
X19618349Y-14024484D01*
X19618349Y-14024484D02*
X19637396Y-14014960D01*
X19637396Y-14014960D02*
X19646920Y-14005436D01*
X19646920Y-14005436D02*
X19656444Y-13986388D01*
X19656444Y-13986388D02*
X19656444Y-13938769D01*
X19656444Y-13938769D02*
X19646920Y-13919722D01*
X19646920Y-13919722D02*
X19637396Y-13910198D01*
X19637396Y-13910198D02*
X19618349Y-13900674D01*
X19618349Y-13900674D02*
X19580253Y-13900674D01*
X19580253Y-13900674D02*
X19561206Y-13910198D01*
X19561206Y-13910198D02*
X19551682Y-13919722D01*
X19551682Y-13919722D02*
X19542158Y-13938769D01*
X19732634Y-13824484D02*
X19732634Y-13862579D01*
X19808825Y-13824484D02*
X19808825Y-13862579D01*
X20104063Y-14100674D02*
X20094539Y-14091150D01*
X20094539Y-14091150D02*
X20075491Y-14062579D01*
X20075491Y-14062579D02*
X20065968Y-14043531D01*
X20065968Y-14043531D02*
X20056444Y-14014960D01*
X20056444Y-14014960D02*
X20046920Y-13967341D01*
X20046920Y-13967341D02*
X20046920Y-13929246D01*
X20046920Y-13929246D02*
X20056444Y-13881627D01*
X20056444Y-13881627D02*
X20065968Y-13853055D01*
X20065968Y-13853055D02*
X20075491Y-13834008D01*
X20075491Y-13834008D02*
X20094539Y-13805436D01*
X20094539Y-13805436D02*
X20104063Y-13795912D01*
X20218349Y-13824484D02*
X20237396Y-13824484D01*
X20237396Y-13824484D02*
X20256444Y-13834008D01*
X20256444Y-13834008D02*
X20265968Y-13843531D01*
X20265968Y-13843531D02*
X20275491Y-13862579D01*
X20275491Y-13862579D02*
X20285015Y-13900674D01*
X20285015Y-13900674D02*
X20285015Y-13948293D01*
X20285015Y-13948293D02*
X20275491Y-13986388D01*
X20275491Y-13986388D02*
X20265968Y-14005436D01*
X20265968Y-14005436D02*
X20256444Y-14014960D01*
X20256444Y-14014960D02*
X20237396Y-14024484D01*
X20237396Y-14024484D02*
X20218349Y-14024484D01*
X20218349Y-14024484D02*
X20199301Y-14014960D01*
X20199301Y-14014960D02*
X20189777Y-14005436D01*
X20189777Y-14005436D02*
X20180253Y-13986388D01*
X20180253Y-13986388D02*
X20170730Y-13948293D01*
X20170730Y-13948293D02*
X20170730Y-13900674D01*
X20170730Y-13900674D02*
X20180253Y-13862579D01*
X20180253Y-13862579D02*
X20189777Y-13843531D01*
X20189777Y-13843531D02*
X20199301Y-13834008D01*
X20199301Y-13834008D02*
X20218349Y-13824484D01*
X20523111Y-14024484D02*
X20523111Y-13824484D01*
X20608825Y-14024484D02*
X20608825Y-13919722D01*
X20608825Y-13919722D02*
X20599301Y-13900674D01*
X20599301Y-13900674D02*
X20580253Y-13891150D01*
X20580253Y-13891150D02*
X20551682Y-13891150D01*
X20551682Y-13891150D02*
X20532634Y-13900674D01*
X20532634Y-13900674D02*
X20523111Y-13910198D01*
X20732634Y-14024484D02*
X20713587Y-14014960D01*
X20713587Y-14014960D02*
X20704063Y-14005436D01*
X20704063Y-14005436D02*
X20694539Y-13986388D01*
X20694539Y-13986388D02*
X20694539Y-13929246D01*
X20694539Y-13929246D02*
X20704063Y-13910198D01*
X20704063Y-13910198D02*
X20713587Y-13900674D01*
X20713587Y-13900674D02*
X20732634Y-13891150D01*
X20732634Y-13891150D02*
X20761206Y-13891150D01*
X20761206Y-13891150D02*
X20780253Y-13900674D01*
X20780253Y-13900674D02*
X20789777Y-13910198D01*
X20789777Y-13910198D02*
X20799301Y-13929246D01*
X20799301Y-13929246D02*
X20799301Y-13986388D01*
X20799301Y-13986388D02*
X20789777Y-14005436D01*
X20789777Y-14005436D02*
X20780253Y-14014960D01*
X20780253Y-14014960D02*
X20761206Y-14024484D01*
X20761206Y-14024484D02*
X20732634Y-14024484D01*
X20913587Y-14024484D02*
X20894539Y-14014960D01*
X20894539Y-14014960D02*
X20885015Y-13995912D01*
X20885015Y-13995912D02*
X20885015Y-13824484D01*
X21065968Y-14014960D02*
X21046920Y-14024484D01*
X21046920Y-14024484D02*
X21008825Y-14024484D01*
X21008825Y-14024484D02*
X20989777Y-14014960D01*
X20989777Y-14014960D02*
X20980253Y-13995912D01*
X20980253Y-13995912D02*
X20980253Y-13919722D01*
X20980253Y-13919722D02*
X20989777Y-13900674D01*
X20989777Y-13900674D02*
X21008825Y-13891150D01*
X21008825Y-13891150D02*
X21046920Y-13891150D01*
X21046920Y-13891150D02*
X21065968Y-13900674D01*
X21065968Y-13900674D02*
X21075492Y-13919722D01*
X21075492Y-13919722D02*
X21075492Y-13938769D01*
X21075492Y-13938769D02*
X20980253Y-13957817D01*
X21151682Y-14014960D02*
X21170730Y-14024484D01*
X21170730Y-14024484D02*
X21208825Y-14024484D01*
X21208825Y-14024484D02*
X21227873Y-14014960D01*
X21227873Y-14014960D02*
X21237396Y-13995912D01*
X21237396Y-13995912D02*
X21237396Y-13986388D01*
X21237396Y-13986388D02*
X21227873Y-13967341D01*
X21227873Y-13967341D02*
X21208825Y-13957817D01*
X21208825Y-13957817D02*
X21180253Y-13957817D01*
X21180253Y-13957817D02*
X21161206Y-13948293D01*
X21161206Y-13948293D02*
X21151682Y-13929246D01*
X21151682Y-13929246D02*
X21151682Y-13919722D01*
X21151682Y-13919722D02*
X21161206Y-13900674D01*
X21161206Y-13900674D02*
X21180253Y-13891150D01*
X21180253Y-13891150D02*
X21208825Y-13891150D01*
X21208825Y-13891150D02*
X21227873Y-13900674D01*
X21475492Y-13948293D02*
X21627873Y-13948293D01*
X21551682Y-14024484D02*
X21551682Y-13872103D01*
X21961206Y-13891150D02*
X21961206Y-14024484D01*
X21913587Y-13814960D02*
X21865968Y-13957817D01*
X21865968Y-13957817D02*
X21989777Y-13957817D01*
X22208825Y-14014960D02*
X22227873Y-14024484D01*
X22227873Y-14024484D02*
X22265968Y-14024484D01*
X22265968Y-14024484D02*
X22285016Y-14014960D01*
X22285016Y-14014960D02*
X22294539Y-13995912D01*
X22294539Y-13995912D02*
X22294539Y-13986388D01*
X22294539Y-13986388D02*
X22285016Y-13967341D01*
X22285016Y-13967341D02*
X22265968Y-13957817D01*
X22265968Y-13957817D02*
X22237396Y-13957817D01*
X22237396Y-13957817D02*
X22218349Y-13948293D01*
X22218349Y-13948293D02*
X22208825Y-13929246D01*
X22208825Y-13929246D02*
X22208825Y-13919722D01*
X22208825Y-13919722D02*
X22218349Y-13900674D01*
X22218349Y-13900674D02*
X22237396Y-13891150D01*
X22237396Y-13891150D02*
X22265968Y-13891150D01*
X22265968Y-13891150D02*
X22285016Y-13900674D01*
X22408825Y-14024484D02*
X22389777Y-14014960D01*
X22389777Y-14014960D02*
X22380254Y-13995912D01*
X22380254Y-13995912D02*
X22380254Y-13824484D01*
X22513587Y-14024484D02*
X22494539Y-14014960D01*
X22494539Y-14014960D02*
X22485015Y-14005436D01*
X22485015Y-14005436D02*
X22475492Y-13986388D01*
X22475492Y-13986388D02*
X22475492Y-13929246D01*
X22475492Y-13929246D02*
X22485015Y-13910198D01*
X22485015Y-13910198D02*
X22494539Y-13900674D01*
X22494539Y-13900674D02*
X22513587Y-13891150D01*
X22513587Y-13891150D02*
X22542158Y-13891150D01*
X22542158Y-13891150D02*
X22561206Y-13900674D01*
X22561206Y-13900674D02*
X22570730Y-13910198D01*
X22570730Y-13910198D02*
X22580254Y-13929246D01*
X22580254Y-13929246D02*
X22580254Y-13986388D01*
X22580254Y-13986388D02*
X22570730Y-14005436D01*
X22570730Y-14005436D02*
X22561206Y-14014960D01*
X22561206Y-14014960D02*
X22542158Y-14024484D01*
X22542158Y-14024484D02*
X22513587Y-14024484D01*
X22637396Y-13891150D02*
X22713587Y-13891150D01*
X22665968Y-13824484D02*
X22665968Y-13995912D01*
X22665968Y-13995912D02*
X22675492Y-14014960D01*
X22675492Y-14014960D02*
X22694539Y-14024484D01*
X22694539Y-14024484D02*
X22713587Y-14024484D01*
X22770730Y-14014960D02*
X22789777Y-14024484D01*
X22789777Y-14024484D02*
X22827873Y-14024484D01*
X22827873Y-14024484D02*
X22846920Y-14014960D01*
X22846920Y-14014960D02*
X22856444Y-13995912D01*
X22856444Y-13995912D02*
X22856444Y-13986388D01*
X22856444Y-13986388D02*
X22846920Y-13967341D01*
X22846920Y-13967341D02*
X22827873Y-13957817D01*
X22827873Y-13957817D02*
X22799301Y-13957817D01*
X22799301Y-13957817D02*
X22780254Y-13948293D01*
X22780254Y-13948293D02*
X22770730Y-13929246D01*
X22770730Y-13929246D02*
X22770730Y-13919722D01*
X22770730Y-13919722D02*
X22780254Y-13900674D01*
X22780254Y-13900674D02*
X22799301Y-13891150D01*
X22799301Y-13891150D02*
X22827873Y-13891150D01*
X22827873Y-13891150D02*
X22846920Y-13900674D01*
X22923111Y-14100674D02*
X22932635Y-14091150D01*
X22932635Y-14091150D02*
X22951682Y-14062579D01*
X22951682Y-14062579D02*
X22961206Y-14043531D01*
X22961206Y-14043531D02*
X22970730Y-14014960D01*
X22970730Y-14014960D02*
X22980254Y-13967341D01*
X22980254Y-13967341D02*
X22980254Y-13929246D01*
X22980254Y-13929246D02*
X22970730Y-13881627D01*
X22970730Y-13881627D02*
X22961206Y-13853055D01*
X22961206Y-13853055D02*
X22951682Y-13834008D01*
X22951682Y-13834008D02*
X22932635Y-13805436D01*
X22932635Y-13805436D02*
X22923111Y-13795912D01*
D11*
X16529000Y-14197000D02*
G75*
G02*
X16439000Y-14197000I-45000J0D01*
G01*
X16439000Y-14197000D02*
G75*
G02*
X16529000Y-14197000I45000J0D01*
G01*
D10*
X16827872Y-14088484D02*
X16846920Y-14088484D01*
X16846920Y-14088484D02*
X16865967Y-14098008D01*
X16865967Y-14098008D02*
X16875491Y-14107531D01*
X16875491Y-14107531D02*
X16885015Y-14126579D01*
X16885015Y-14126579D02*
X16894539Y-14164674D01*
X16894539Y-14164674D02*
X16894539Y-14212293D01*
X16894539Y-14212293D02*
X16885015Y-14250388D01*
X16885015Y-14250388D02*
X16875491Y-14269436D01*
X16875491Y-14269436D02*
X16865967Y-14278960D01*
X16865967Y-14278960D02*
X16846920Y-14288484D01*
X16846920Y-14288484D02*
X16827872Y-14288484D01*
X16827872Y-14288484D02*
X16808824Y-14278960D01*
X16808824Y-14278960D02*
X16799301Y-14269436D01*
X16799301Y-14269436D02*
X16789777Y-14250388D01*
X16789777Y-14250388D02*
X16780253Y-14212293D01*
X16780253Y-14212293D02*
X16780253Y-14164674D01*
X16780253Y-14164674D02*
X16789777Y-14126579D01*
X16789777Y-14126579D02*
X16799301Y-14107531D01*
X16799301Y-14107531D02*
X16808824Y-14098008D01*
X16808824Y-14098008D02*
X16827872Y-14088484D01*
X16980253Y-14269436D02*
X16989777Y-14278960D01*
X16989777Y-14278960D02*
X16980253Y-14288484D01*
X16980253Y-14288484D02*
X16970729Y-14278960D01*
X16970729Y-14278960D02*
X16980253Y-14269436D01*
X16980253Y-14269436D02*
X16980253Y-14288484D01*
X17085015Y-14288484D02*
X17123110Y-14288484D01*
X17123110Y-14288484D02*
X17142158Y-14278960D01*
X17142158Y-14278960D02*
X17151682Y-14269436D01*
X17151682Y-14269436D02*
X17170729Y-14240865D01*
X17170729Y-14240865D02*
X17180253Y-14202769D01*
X17180253Y-14202769D02*
X17180253Y-14126579D01*
X17180253Y-14126579D02*
X17170729Y-14107531D01*
X17170729Y-14107531D02*
X17161205Y-14098008D01*
X17161205Y-14098008D02*
X17142158Y-14088484D01*
X17142158Y-14088484D02*
X17104063Y-14088484D01*
X17104063Y-14088484D02*
X17085015Y-14098008D01*
X17085015Y-14098008D02*
X17075491Y-14107531D01*
X17075491Y-14107531D02*
X17065967Y-14126579D01*
X17065967Y-14126579D02*
X17065967Y-14174198D01*
X17065967Y-14174198D02*
X17075491Y-14193246D01*
X17075491Y-14193246D02*
X17085015Y-14202769D01*
X17085015Y-14202769D02*
X17104063Y-14212293D01*
X17104063Y-14212293D02*
X17142158Y-14212293D01*
X17142158Y-14212293D02*
X17161205Y-14202769D01*
X17161205Y-14202769D02*
X17170729Y-14193246D01*
X17170729Y-14193246D02*
X17180253Y-14174198D01*
X17304063Y-14088484D02*
X17323110Y-14088484D01*
X17323110Y-14088484D02*
X17342158Y-14098008D01*
X17342158Y-14098008D02*
X17351682Y-14107531D01*
X17351682Y-14107531D02*
X17361205Y-14126579D01*
X17361205Y-14126579D02*
X17370729Y-14164674D01*
X17370729Y-14164674D02*
X17370729Y-14212293D01*
X17370729Y-14212293D02*
X17361205Y-14250388D01*
X17361205Y-14250388D02*
X17351682Y-14269436D01*
X17351682Y-14269436D02*
X17342158Y-14278960D01*
X17342158Y-14278960D02*
X17323110Y-14288484D01*
X17323110Y-14288484D02*
X17304063Y-14288484D01*
X17304063Y-14288484D02*
X17285015Y-14278960D01*
X17285015Y-14278960D02*
X17275491Y-14269436D01*
X17275491Y-14269436D02*
X17265967Y-14250388D01*
X17265967Y-14250388D02*
X17256444Y-14212293D01*
X17256444Y-14212293D02*
X17256444Y-14164674D01*
X17256444Y-14164674D02*
X17265967Y-14126579D01*
X17265967Y-14126579D02*
X17275491Y-14107531D01*
X17275491Y-14107531D02*
X17285015Y-14098008D01*
X17285015Y-14098008D02*
X17304063Y-14088484D01*
X17494539Y-14088484D02*
X17513586Y-14088484D01*
X17513586Y-14088484D02*
X17532634Y-14098008D01*
X17532634Y-14098008D02*
X17542158Y-14107531D01*
X17542158Y-14107531D02*
X17551682Y-14126579D01*
X17551682Y-14126579D02*
X17561205Y-14164674D01*
X17561205Y-14164674D02*
X17561205Y-14212293D01*
X17561205Y-14212293D02*
X17551682Y-14250388D01*
X17551682Y-14250388D02*
X17542158Y-14269436D01*
X17542158Y-14269436D02*
X17532634Y-14278960D01*
X17532634Y-14278960D02*
X17513586Y-14288484D01*
X17513586Y-14288484D02*
X17494539Y-14288484D01*
X17494539Y-14288484D02*
X17475491Y-14278960D01*
X17475491Y-14278960D02*
X17465967Y-14269436D01*
X17465967Y-14269436D02*
X17456444Y-14250388D01*
X17456444Y-14250388D02*
X17446920Y-14212293D01*
X17446920Y-14212293D02*
X17446920Y-14164674D01*
X17446920Y-14164674D02*
X17456444Y-14126579D01*
X17456444Y-14126579D02*
X17465967Y-14107531D01*
X17465967Y-14107531D02*
X17475491Y-14098008D01*
X17475491Y-14098008D02*
X17494539Y-14088484D01*
X17646920Y-14288484D02*
X17646920Y-14155150D01*
X17646920Y-14174198D02*
X17656444Y-14164674D01*
X17656444Y-14164674D02*
X17675491Y-14155150D01*
X17675491Y-14155150D02*
X17704063Y-14155150D01*
X17704063Y-14155150D02*
X17723110Y-14164674D01*
X17723110Y-14164674D02*
X17732634Y-14183722D01*
X17732634Y-14183722D02*
X17732634Y-14288484D01*
X17732634Y-14183722D02*
X17742158Y-14164674D01*
X17742158Y-14164674D02*
X17761205Y-14155150D01*
X17761205Y-14155150D02*
X17789777Y-14155150D01*
X17789777Y-14155150D02*
X17808825Y-14164674D01*
X17808825Y-14164674D02*
X17818348Y-14183722D01*
X17818348Y-14183722D02*
X17818348Y-14288484D01*
X17913586Y-14288484D02*
X17913586Y-14155150D01*
X17913586Y-14174198D02*
X17923110Y-14164674D01*
X17923110Y-14164674D02*
X17942158Y-14155150D01*
X17942158Y-14155150D02*
X17970729Y-14155150D01*
X17970729Y-14155150D02*
X17989777Y-14164674D01*
X17989777Y-14164674D02*
X17999301Y-14183722D01*
X17999301Y-14183722D02*
X17999301Y-14288484D01*
X17999301Y-14183722D02*
X18008825Y-14164674D01*
X18008825Y-14164674D02*
X18027872Y-14155150D01*
X18027872Y-14155150D02*
X18056444Y-14155150D01*
X18056444Y-14155150D02*
X18075491Y-14164674D01*
X18075491Y-14164674D02*
X18085015Y-14183722D01*
X18085015Y-14183722D02*
X18085015Y-14288484D01*
X18475491Y-14078960D02*
X18304063Y-14336103D01*
X18732634Y-14088484D02*
X18751682Y-14088484D01*
X18751682Y-14088484D02*
X18770729Y-14098008D01*
X18770729Y-14098008D02*
X18780253Y-14107531D01*
X18780253Y-14107531D02*
X18789777Y-14126579D01*
X18789777Y-14126579D02*
X18799301Y-14164674D01*
X18799301Y-14164674D02*
X18799301Y-14212293D01*
X18799301Y-14212293D02*
X18789777Y-14250388D01*
X18789777Y-14250388D02*
X18780253Y-14269436D01*
X18780253Y-14269436D02*
X18770729Y-14278960D01*
X18770729Y-14278960D02*
X18751682Y-14288484D01*
X18751682Y-14288484D02*
X18732634Y-14288484D01*
X18732634Y-14288484D02*
X18713587Y-14278960D01*
X18713587Y-14278960D02*
X18704063Y-14269436D01*
X18704063Y-14269436D02*
X18694539Y-14250388D01*
X18694539Y-14250388D02*
X18685015Y-14212293D01*
X18685015Y-14212293D02*
X18685015Y-14164674D01*
X18685015Y-14164674D02*
X18694539Y-14126579D01*
X18694539Y-14126579D02*
X18704063Y-14107531D01*
X18704063Y-14107531D02*
X18713587Y-14098008D01*
X18713587Y-14098008D02*
X18732634Y-14088484D01*
X18885015Y-14269436D02*
X18894539Y-14278960D01*
X18894539Y-14278960D02*
X18885015Y-14288484D01*
X18885015Y-14288484D02*
X18875491Y-14278960D01*
X18875491Y-14278960D02*
X18885015Y-14269436D01*
X18885015Y-14269436D02*
X18885015Y-14288484D01*
X19018348Y-14088484D02*
X19037396Y-14088484D01*
X19037396Y-14088484D02*
X19056444Y-14098008D01*
X19056444Y-14098008D02*
X19065968Y-14107531D01*
X19065968Y-14107531D02*
X19075491Y-14126579D01*
X19075491Y-14126579D02*
X19085015Y-14164674D01*
X19085015Y-14164674D02*
X19085015Y-14212293D01*
X19085015Y-14212293D02*
X19075491Y-14250388D01*
X19075491Y-14250388D02*
X19065968Y-14269436D01*
X19065968Y-14269436D02*
X19056444Y-14278960D01*
X19056444Y-14278960D02*
X19037396Y-14288484D01*
X19037396Y-14288484D02*
X19018348Y-14288484D01*
X19018348Y-14288484D02*
X18999301Y-14278960D01*
X18999301Y-14278960D02*
X18989777Y-14269436D01*
X18989777Y-14269436D02*
X18980253Y-14250388D01*
X18980253Y-14250388D02*
X18970729Y-14212293D01*
X18970729Y-14212293D02*
X18970729Y-14164674D01*
X18970729Y-14164674D02*
X18980253Y-14126579D01*
X18980253Y-14126579D02*
X18989777Y-14107531D01*
X18989777Y-14107531D02*
X18999301Y-14098008D01*
X18999301Y-14098008D02*
X19018348Y-14088484D01*
X19151682Y-14088484D02*
X19275491Y-14088484D01*
X19275491Y-14088484D02*
X19208825Y-14164674D01*
X19208825Y-14164674D02*
X19237396Y-14164674D01*
X19237396Y-14164674D02*
X19256444Y-14174198D01*
X19256444Y-14174198D02*
X19265968Y-14183722D01*
X19265968Y-14183722D02*
X19275491Y-14202769D01*
X19275491Y-14202769D02*
X19275491Y-14250388D01*
X19275491Y-14250388D02*
X19265968Y-14269436D01*
X19265968Y-14269436D02*
X19256444Y-14278960D01*
X19256444Y-14278960D02*
X19237396Y-14288484D01*
X19237396Y-14288484D02*
X19180253Y-14288484D01*
X19180253Y-14288484D02*
X19161206Y-14278960D01*
X19161206Y-14278960D02*
X19151682Y-14269436D01*
X19456444Y-14088484D02*
X19361206Y-14088484D01*
X19361206Y-14088484D02*
X19351682Y-14183722D01*
X19351682Y-14183722D02*
X19361206Y-14174198D01*
X19361206Y-14174198D02*
X19380253Y-14164674D01*
X19380253Y-14164674D02*
X19427872Y-14164674D01*
X19427872Y-14164674D02*
X19446920Y-14174198D01*
X19446920Y-14174198D02*
X19456444Y-14183722D01*
X19456444Y-14183722D02*
X19465968Y-14202769D01*
X19465968Y-14202769D02*
X19465968Y-14250388D01*
X19465968Y-14250388D02*
X19456444Y-14269436D01*
X19456444Y-14269436D02*
X19446920Y-14278960D01*
X19446920Y-14278960D02*
X19427872Y-14288484D01*
X19427872Y-14288484D02*
X19380253Y-14288484D01*
X19380253Y-14288484D02*
X19361206Y-14278960D01*
X19361206Y-14278960D02*
X19351682Y-14269436D01*
X19637396Y-14155150D02*
X19637396Y-14288484D01*
X19589777Y-14078960D02*
X19542158Y-14221817D01*
X19542158Y-14221817D02*
X19665968Y-14221817D01*
X19732634Y-14088484D02*
X19732634Y-14126579D01*
X19808825Y-14088484D02*
X19808825Y-14126579D01*
X20104063Y-14364674D02*
X20094539Y-14355150D01*
X20094539Y-14355150D02*
X20075491Y-14326579D01*
X20075491Y-14326579D02*
X20065968Y-14307531D01*
X20065968Y-14307531D02*
X20056444Y-14278960D01*
X20056444Y-14278960D02*
X20046920Y-14231341D01*
X20046920Y-14231341D02*
X20046920Y-14193246D01*
X20046920Y-14193246D02*
X20056444Y-14145627D01*
X20056444Y-14145627D02*
X20065968Y-14117055D01*
X20065968Y-14117055D02*
X20075491Y-14098008D01*
X20075491Y-14098008D02*
X20094539Y-14069436D01*
X20094539Y-14069436D02*
X20104063Y-14059912D01*
X20285015Y-14288484D02*
X20170730Y-14288484D01*
X20227872Y-14288484D02*
X20227872Y-14088484D01*
X20227872Y-14088484D02*
X20208825Y-14117055D01*
X20208825Y-14117055D02*
X20189777Y-14136103D01*
X20189777Y-14136103D02*
X20170730Y-14145627D01*
X20351682Y-14088484D02*
X20485015Y-14088484D01*
X20485015Y-14088484D02*
X20399301Y-14288484D01*
X20713587Y-14288484D02*
X20713587Y-14088484D01*
X20799301Y-14288484D02*
X20799301Y-14183722D01*
X20799301Y-14183722D02*
X20789777Y-14164674D01*
X20789777Y-14164674D02*
X20770730Y-14155150D01*
X20770730Y-14155150D02*
X20742158Y-14155150D01*
X20742158Y-14155150D02*
X20723111Y-14164674D01*
X20723111Y-14164674D02*
X20713587Y-14174198D01*
X20923111Y-14288484D02*
X20904063Y-14278960D01*
X20904063Y-14278960D02*
X20894539Y-14269436D01*
X20894539Y-14269436D02*
X20885015Y-14250388D01*
X20885015Y-14250388D02*
X20885015Y-14193246D01*
X20885015Y-14193246D02*
X20894539Y-14174198D01*
X20894539Y-14174198D02*
X20904063Y-14164674D01*
X20904063Y-14164674D02*
X20923111Y-14155150D01*
X20923111Y-14155150D02*
X20951682Y-14155150D01*
X20951682Y-14155150D02*
X20970730Y-14164674D01*
X20970730Y-14164674D02*
X20980253Y-14174198D01*
X20980253Y-14174198D02*
X20989777Y-14193246D01*
X20989777Y-14193246D02*
X20989777Y-14250388D01*
X20989777Y-14250388D02*
X20980253Y-14269436D01*
X20980253Y-14269436D02*
X20970730Y-14278960D01*
X20970730Y-14278960D02*
X20951682Y-14288484D01*
X20951682Y-14288484D02*
X20923111Y-14288484D01*
X21104063Y-14288484D02*
X21085015Y-14278960D01*
X21085015Y-14278960D02*
X21075492Y-14259912D01*
X21075492Y-14259912D02*
X21075492Y-14088484D01*
X21256444Y-14278960D02*
X21237396Y-14288484D01*
X21237396Y-14288484D02*
X21199301Y-14288484D01*
X21199301Y-14288484D02*
X21180253Y-14278960D01*
X21180253Y-14278960D02*
X21170730Y-14259912D01*
X21170730Y-14259912D02*
X21170730Y-14183722D01*
X21170730Y-14183722D02*
X21180253Y-14164674D01*
X21180253Y-14164674D02*
X21199301Y-14155150D01*
X21199301Y-14155150D02*
X21237396Y-14155150D01*
X21237396Y-14155150D02*
X21256444Y-14164674D01*
X21256444Y-14164674D02*
X21265968Y-14183722D01*
X21265968Y-14183722D02*
X21265968Y-14202769D01*
X21265968Y-14202769D02*
X21170730Y-14221817D01*
X21342158Y-14278960D02*
X21361206Y-14288484D01*
X21361206Y-14288484D02*
X21399301Y-14288484D01*
X21399301Y-14288484D02*
X21418349Y-14278960D01*
X21418349Y-14278960D02*
X21427873Y-14259912D01*
X21427873Y-14259912D02*
X21427873Y-14250388D01*
X21427873Y-14250388D02*
X21418349Y-14231341D01*
X21418349Y-14231341D02*
X21399301Y-14221817D01*
X21399301Y-14221817D02*
X21370730Y-14221817D01*
X21370730Y-14221817D02*
X21351682Y-14212293D01*
X21351682Y-14212293D02*
X21342158Y-14193246D01*
X21342158Y-14193246D02*
X21342158Y-14183722D01*
X21342158Y-14183722D02*
X21351682Y-14164674D01*
X21351682Y-14164674D02*
X21370730Y-14155150D01*
X21370730Y-14155150D02*
X21399301Y-14155150D01*
X21399301Y-14155150D02*
X21418349Y-14164674D01*
X21494539Y-14364674D02*
X21504063Y-14355150D01*
X21504063Y-14355150D02*
X21523111Y-14326579D01*
X21523111Y-14326579D02*
X21532634Y-14307531D01*
X21532634Y-14307531D02*
X21542158Y-14278960D01*
X21542158Y-14278960D02*
X21551682Y-14231341D01*
X21551682Y-14231341D02*
X21551682Y-14193246D01*
X21551682Y-14193246D02*
X21542158Y-14145627D01*
X21542158Y-14145627D02*
X21532634Y-14117055D01*
X21532634Y-14117055D02*
X21523111Y-14098008D01*
X21523111Y-14098008D02*
X21504063Y-14069436D01*
X21504063Y-14069436D02*
X21494539Y-14059912D01*
M02*
