G04 #@! TF.GenerationSoftware,KiCad,Pcbnew,9.0.2*
G04 #@! TF.CreationDate,2025-07-09T02:52:23-04:00*
G04 #@! TF.ProjectId,FBT,4642542e-6b69-4636-9164-5f7063625858,rev?*
G04 #@! TF.SameCoordinates,Original*
G04 #@! TF.FileFunction,Copper,L1,Top*
G04 #@! TF.FilePolarity,Positive*
%FSLAX46Y46*%
G04 Gerber Fmt 4.6, Leading zero omitted, Abs format (unit mm)*
G04 Created by KiCad (PCBNEW 9.0.2) date 2025-07-09 02:52:23*
%MOMM*%
%LPD*%
G01*
G04 APERTURE LIST*
G04 #@! TA.AperFunction,ComponentPad*
%ADD10O,2.000000X1.600000*%
G04 #@! TD*
G04 #@! TA.AperFunction,ComponentPad*
%ADD11C,1.524000*%
G04 #@! TD*
G04 #@! TA.AperFunction,Conductor*
%ADD12C,0.400000*%
G04 #@! TD*
G04 APERTURE END LIST*
D10*
X175850000Y-111000000D03*
X171850000Y-111000000D03*
X168850000Y-111000000D03*
X176850000Y-115400000D03*
D11*
X182260000Y-118100000D03*
X179720000Y-118100000D03*
X177180000Y-118100000D03*
X174640000Y-118100000D03*
X172100000Y-118100000D03*
X169560000Y-118100000D03*
X167020000Y-118100000D03*
X169560000Y-128260000D03*
X172100000Y-128260000D03*
X174640000Y-128260000D03*
X177180000Y-128260000D03*
X179720000Y-128260000D03*
X179720000Y-131180000D03*
X177180000Y-131180000D03*
X174640000Y-131180000D03*
X172100000Y-131180000D03*
X169560000Y-131180000D03*
D12*
X176600000Y-111650000D02*
X176600000Y-113500000D01*
X175300000Y-115900000D02*
X175920000Y-116520000D01*
X175920000Y-116520000D02*
X175920000Y-119260000D01*
X173760000Y-119760000D02*
X172100000Y-118100000D01*
X175880000Y-110930000D02*
X176600000Y-111650000D01*
X175920000Y-119260000D02*
X175420000Y-119760000D01*
X175420000Y-119760000D02*
X173760000Y-119760000D01*
X175300000Y-114800000D02*
X175300000Y-115900000D01*
X176600000Y-113500000D02*
X175300000Y-114800000D01*
X179720000Y-118100000D02*
X179720000Y-125960000D01*
X178330000Y-115330000D02*
X176880000Y-115330000D01*
X179720000Y-118100000D02*
X179720000Y-116720000D01*
X179720000Y-116720000D02*
X178330000Y-115330000D01*
X179720000Y-125960000D02*
X181220000Y-127460000D01*
X181220000Y-127460000D02*
X181220000Y-129680000D01*
X181220000Y-129680000D02*
X179720000Y-131180000D01*
X171850000Y-115310000D02*
X174640000Y-118100000D01*
X171850000Y-111000000D02*
X171850000Y-115310000D01*
X172100000Y-130800000D02*
X169560000Y-128260000D01*
X172100000Y-131180000D02*
X172100000Y-130800000D01*
X174640000Y-130800000D02*
X172100000Y-128260000D01*
X174640000Y-131180000D02*
X174640000Y-130800000D01*
M02*
