%TF.GenerationSoftware,KiCad,Pcbnew,9.0.2*%
%TF.CreationDate,2025-07-09T03:39:21-04:00*%
%TF.ProjectId,FBT,4642542e-6b69-4636-9164-5f7063625858,rev?*%
%TF.SameCoordinates,Original*%
%TF.FileFunction,Drillmap*%
%TF.FilePolarity,Positive*%
%FSLAX45Y45*%
G04 Gerber Fmt 4.5, Leading zero omitted, Abs format (unit mm)*
G04 Created by KiCad (PCBNEW 9.0.2) date 2025-07-09 03:39:21*
%MOMM*%
%LPD*%
G01*
G04 APERTURE LIST*
%ADD10C,0.050000*%
%ADD11C,0.200000*%
%ADD12C,0.100000*%
%ADD13C,0.110000*%
%ADD14C,0.125000*%
G04 APERTURE END LIST*
D10*
X9150000Y-4710000D02*
X11150000Y-4710000D01*
X11150000Y-11210000D01*
X9150000Y-11210000D01*
X9150000Y-4710000D01*
D11*
D12*
X9235000Y-8165000D02*
X9265000Y-8195000D01*
X9265000Y-8165000D02*
X9235000Y-8195000D01*
X9495000Y-8405000D02*
X9525000Y-8435000D01*
X9525000Y-8405000D02*
X9495000Y-8435000D01*
X9885000Y-10045000D02*
X9915000Y-10075000D01*
X9915000Y-10045000D02*
X9885000Y-10075000D01*
X10535000Y-10025000D02*
X10565000Y-10055000D01*
X10565000Y-10025000D02*
X10535000Y-10055000D01*
X10625000Y-7015000D02*
X10655000Y-7045000D01*
X10655000Y-7015000D02*
X10625000Y-7045000D01*
X10715000Y-10075000D02*
X10745000Y-10105000D01*
X10745000Y-10075000D02*
X10715000Y-10105000D01*
X10975000Y-8325000D02*
X11005000Y-8355000D01*
X11005000Y-8325000D02*
X10975000Y-8355000D01*
X10625000Y-10185500D02*
G75*
G02*
X10555000Y-10185500I-35000J0D01*
G01*
X10555000Y-10185500D02*
G75*
G02*
X10625000Y-10185500I35000J0D01*
G01*
X10625000Y-10225500D02*
X10625000Y-10145500D01*
X10555000Y-10145500D02*
G75*
G02*
X10625000Y-10145500I35000J0D01*
G01*
X10555000Y-10145500D02*
X10555000Y-10225500D01*
X10555000Y-10225500D02*
G75*
G03*
X10625000Y-10225500I35000J0D01*
G01*
X10625000Y-10585500D02*
G75*
G02*
X10555000Y-10585500I-35000J0D01*
G01*
X10555000Y-10585500D02*
G75*
G02*
X10625000Y-10585500I35000J0D01*
G01*
X10625000Y-10625500D02*
X10625000Y-10545500D01*
X10555000Y-10545500D02*
G75*
G02*
X10625000Y-10545500I35000J0D01*
G01*
X10555000Y-10545500D02*
X10555000Y-10625500D01*
X10555000Y-10625500D02*
G75*
G03*
X10625000Y-10625500I35000J0D01*
G01*
X10625000Y-10885500D02*
G75*
G02*
X10555000Y-10885500I-35000J0D01*
G01*
X10555000Y-10885500D02*
G75*
G02*
X10625000Y-10885500I35000J0D01*
G01*
X10625000Y-10925500D02*
X10625000Y-10845500D01*
X10555000Y-10845500D02*
G75*
G02*
X10625000Y-10845500I35000J0D01*
G01*
X10555000Y-10845500D02*
X10555000Y-10925500D01*
X10555000Y-10925500D02*
G75*
G03*
X10625000Y-10925500I35000J0D01*
G01*
X11065000Y-10085500D02*
G75*
G02*
X10995000Y-10085500I-35000J0D01*
G01*
X10995000Y-10085500D02*
G75*
G02*
X11065000Y-10085500I35000J0D01*
G01*
X11065000Y-10125500D02*
X11065000Y-10045500D01*
X10995000Y-10045500D02*
G75*
G02*
X11065000Y-10045500I35000J0D01*
G01*
X10995000Y-10045500D02*
X10995000Y-10125500D01*
X10995000Y-10125500D02*
G75*
G03*
X11065000Y-10125500I35000J0D01*
G01*
X9598000Y-10570000D02*
X9598000Y-10650000D01*
X9558000Y-10610000D02*
X9638000Y-10610000D01*
X9720000Y-10940000D02*
X9720000Y-11020000D01*
X9680000Y-10980000D02*
X9760000Y-10980000D01*
X9920000Y-10940000D02*
X9920000Y-11020000D01*
X9880000Y-10980000D02*
X9960000Y-10980000D01*
X10120000Y-10940000D02*
X10120000Y-11020000D01*
X10080000Y-10980000D02*
X10160000Y-10980000D01*
X10360000Y-10570000D02*
X10360000Y-10650000D01*
X10320000Y-10610000D02*
X10400000Y-10610000D01*
X10990000Y-8909000D02*
X10990000Y-8989000D01*
X10950000Y-8949000D02*
X11030000Y-8949000D01*
X10990000Y-9671000D02*
X10990000Y-9751000D01*
X10950000Y-9711000D02*
X11030000Y-9711000D01*
X9519820Y-6660820D02*
X9519820Y-6597180D01*
X9456180Y-6597180D01*
X9456180Y-6660820D01*
X9519820Y-6660820D01*
X9519820Y-7193820D02*
X9519820Y-7130180D01*
X9456180Y-7130180D01*
X9456180Y-7193820D01*
X9519820Y-7193820D01*
X9523820Y-4882820D02*
X9523820Y-4819180D01*
X9460180Y-4819180D01*
X9460180Y-4882820D01*
X9523820Y-4882820D01*
X9523820Y-5136820D02*
X9523820Y-5073180D01*
X9460180Y-5073180D01*
X9460180Y-5136820D01*
X9523820Y-5136820D01*
X9523820Y-5390820D02*
X9523820Y-5327180D01*
X9460180Y-5327180D01*
X9460180Y-5390820D01*
X9523820Y-5390820D01*
X9523820Y-5644820D02*
X9523820Y-5581180D01*
X9460180Y-5581180D01*
X9460180Y-5644820D01*
X9523820Y-5644820D01*
X9523820Y-5898820D02*
X9523820Y-5835180D01*
X9460180Y-5835180D01*
X9460180Y-5898820D01*
X9523820Y-5898820D01*
X9523820Y-6152820D02*
X9523820Y-6089180D01*
X9460180Y-6089180D01*
X9460180Y-6152820D01*
X9523820Y-6152820D01*
X9523820Y-6406820D02*
X9523820Y-6343180D01*
X9460180Y-6343180D01*
X9460180Y-6406820D01*
X9523820Y-6406820D01*
X9773820Y-7193820D02*
X9773820Y-7130180D01*
X9710180Y-7130180D01*
X9710180Y-7193820D01*
X9773820Y-7193820D01*
X9773820Y-8209820D02*
X9773820Y-8146180D01*
X9710180Y-8146180D01*
X9710180Y-8209820D01*
X9773820Y-8209820D01*
X9773820Y-8461820D02*
X9773820Y-8398180D01*
X9710180Y-8398180D01*
X9710180Y-8461820D01*
X9773820Y-8461820D01*
X9851820Y-8721820D02*
X9851820Y-8658180D01*
X9788180Y-8658180D01*
X9788180Y-8721820D01*
X9851820Y-8721820D01*
X9851820Y-9761820D02*
X9851820Y-9698180D01*
X9788180Y-9698180D01*
X9788180Y-9761820D01*
X9851820Y-9761820D01*
X10027820Y-7193820D02*
X10027820Y-7130180D01*
X9964180Y-7130180D01*
X9964180Y-7193820D01*
X10027820Y-7193820D01*
X10027820Y-8209820D02*
X10027820Y-8146180D01*
X9964180Y-8146180D01*
X9964180Y-8209820D01*
X10027820Y-8209820D01*
X10027820Y-8461820D02*
X10027820Y-8398180D01*
X9964180Y-8398180D01*
X9964180Y-8461820D01*
X10027820Y-8461820D01*
X10281820Y-7193820D02*
X10281820Y-7130180D01*
X10218180Y-7130180D01*
X10218180Y-7193820D01*
X10281820Y-7193820D01*
X10281820Y-8209820D02*
X10281820Y-8146180D01*
X10218180Y-8146180D01*
X10218180Y-8209820D01*
X10281820Y-8209820D01*
X10281820Y-8461820D02*
X10281820Y-8398180D01*
X10218180Y-8398180D01*
X10218180Y-8461820D01*
X10281820Y-8461820D01*
X10535820Y-7193820D02*
X10535820Y-7130180D01*
X10472180Y-7130180D01*
X10472180Y-7193820D01*
X10535820Y-7193820D01*
X10535820Y-8209820D02*
X10535820Y-8146180D01*
X10472180Y-8146180D01*
X10472180Y-8209820D01*
X10535820Y-8209820D01*
X10535820Y-8461820D02*
X10535820Y-8398180D01*
X10472180Y-8398180D01*
X10472180Y-8461820D01*
X10535820Y-8461820D01*
X10771820Y-8731820D02*
X10771820Y-8668180D01*
X10708180Y-8668180D01*
X10708180Y-8731820D01*
X10771820Y-8731820D01*
X10771820Y-8981820D02*
X10771820Y-8918180D01*
X10708180Y-8918180D01*
X10708180Y-8981820D01*
X10771820Y-8981820D01*
X10771820Y-9501820D02*
X10771820Y-9438180D01*
X10708180Y-9438180D01*
X10708180Y-9501820D01*
X10771820Y-9501820D01*
X10771820Y-9751820D02*
X10771820Y-9688180D01*
X10708180Y-9688180D01*
X10708180Y-9751820D01*
X10771820Y-9751820D01*
X10789820Y-7193820D02*
X10789820Y-7130180D01*
X10726180Y-7130180D01*
X10726180Y-7193820D01*
X10789820Y-7193820D01*
X10789820Y-8209820D02*
X10789820Y-8146180D01*
X10726180Y-8146180D01*
X10726180Y-8209820D01*
X10789820Y-8209820D01*
X10789820Y-8461820D02*
X10789820Y-8398180D01*
X10726180Y-8398180D01*
X10726180Y-8461820D01*
X10789820Y-8461820D01*
X11043820Y-4882820D02*
X11043820Y-4819180D01*
X10980180Y-4819180D01*
X10980180Y-4882820D01*
X11043820Y-4882820D01*
X11043820Y-5136820D02*
X11043820Y-5073180D01*
X10980180Y-5073180D01*
X10980180Y-5136820D01*
X11043820Y-5136820D01*
X11043820Y-5390820D02*
X11043820Y-5327180D01*
X10980180Y-5327180D01*
X10980180Y-5390820D01*
X11043820Y-5390820D01*
X11043820Y-5644820D02*
X11043820Y-5581180D01*
X10980180Y-5581180D01*
X10980180Y-5644820D01*
X11043820Y-5644820D01*
X11043820Y-5898820D02*
X11043820Y-5835180D01*
X10980180Y-5835180D01*
X10980180Y-5898820D01*
X11043820Y-5898820D01*
X11043820Y-6152820D02*
X11043820Y-6089180D01*
X10980180Y-6089180D01*
X10980180Y-6152820D01*
X11043820Y-6152820D01*
X11043820Y-6406820D02*
X11043820Y-6343180D01*
X10980180Y-6343180D01*
X10980180Y-6406820D01*
X11043820Y-6406820D01*
X11043820Y-6660820D02*
X11043820Y-6597180D01*
X10980180Y-6597180D01*
X10980180Y-6660820D01*
X11043820Y-6660820D01*
X11043820Y-7193820D02*
X11043820Y-7130180D01*
X10980180Y-7130180D01*
X10980180Y-7193820D01*
X11043820Y-7193820D01*
X9260000Y-4900000D02*
X9310000Y-4850000D01*
X9260000Y-4800000D01*
X9210000Y-4850000D01*
X9260000Y-4900000D01*
X9280000Y-10433500D02*
X9330000Y-10383500D01*
X9280000Y-10333500D01*
X9230000Y-10383500D01*
X9280000Y-10433500D01*
X9280000Y-10687500D02*
X9330000Y-10637500D01*
X9280000Y-10587500D01*
X9230000Y-10637500D01*
X9280000Y-10687500D01*
D13*
X9513000Y-9925000D02*
X9623000Y-10035000D01*
X9623000Y-9925000D02*
X9513000Y-10035000D01*
X9623000Y-9980000D02*
G75*
G02*
X9513000Y-9980000I-55000J0D01*
G01*
X9513000Y-9980000D02*
G75*
G02*
X9623000Y-9980000I55000J0D01*
G01*
X9513000Y-10245000D02*
X9623000Y-10355000D01*
X9623000Y-10245000D02*
X9513000Y-10355000D01*
X9623000Y-10300000D02*
G75*
G02*
X9513000Y-10300000I-55000J0D01*
G01*
X9513000Y-10300000D02*
G75*
G02*
X9623000Y-10300000I55000J0D01*
G01*
X10275000Y-9925000D02*
X10385000Y-10035000D01*
X10385000Y-9925000D02*
X10275000Y-10035000D01*
X10385000Y-9980000D02*
G75*
G02*
X10275000Y-9980000I-55000J0D01*
G01*
X10275000Y-9980000D02*
G75*
G02*
X10385000Y-9980000I55000J0D01*
G01*
X10275000Y-10245000D02*
X10385000Y-10355000D01*
X10385000Y-10245000D02*
X10275000Y-10355000D01*
X10385000Y-10300000D02*
G75*
G02*
X10275000Y-10300000I-55000J0D01*
G01*
X10275000Y-10300000D02*
G75*
G02*
X10385000Y-10300000I55000J0D01*
G01*
D14*
X9447500Y-10917500D02*
X9572500Y-11042500D01*
X9572500Y-10917500D02*
X9447500Y-11042500D01*
X9510000Y-10917500D02*
X9510000Y-11042500D01*
X9447500Y-10980000D02*
X9572500Y-10980000D01*
X10267500Y-10917500D02*
X10392500Y-11042500D01*
X10392500Y-10917500D02*
X10267500Y-11042500D01*
X10330000Y-10917500D02*
X10330000Y-11042500D01*
X10267500Y-10980000D02*
X10392500Y-10980000D01*
D11*
X9408277Y-11523984D02*
X9408277Y-11323984D01*
X9408277Y-11323984D02*
X9455896Y-11323984D01*
X9455896Y-11323984D02*
X9484467Y-11333508D01*
X9484467Y-11333508D02*
X9503515Y-11352555D01*
X9503515Y-11352555D02*
X9513039Y-11371603D01*
X9513039Y-11371603D02*
X9522563Y-11409698D01*
X9522563Y-11409698D02*
X9522563Y-11438269D01*
X9522563Y-11438269D02*
X9513039Y-11476365D01*
X9513039Y-11476365D02*
X9503515Y-11495412D01*
X9503515Y-11495412D02*
X9484467Y-11514460D01*
X9484467Y-11514460D02*
X9455896Y-11523984D01*
X9455896Y-11523984D02*
X9408277Y-11523984D01*
X9608277Y-11523984D02*
X9608277Y-11390650D01*
X9608277Y-11428746D02*
X9617801Y-11409698D01*
X9617801Y-11409698D02*
X9627324Y-11400174D01*
X9627324Y-11400174D02*
X9646372Y-11390650D01*
X9646372Y-11390650D02*
X9665420Y-11390650D01*
X9732086Y-11523984D02*
X9732086Y-11390650D01*
X9732086Y-11323984D02*
X9722563Y-11333508D01*
X9722563Y-11333508D02*
X9732086Y-11343031D01*
X9732086Y-11343031D02*
X9741610Y-11333508D01*
X9741610Y-11333508D02*
X9732086Y-11323984D01*
X9732086Y-11323984D02*
X9732086Y-11343031D01*
X9855896Y-11523984D02*
X9836848Y-11514460D01*
X9836848Y-11514460D02*
X9827324Y-11495412D01*
X9827324Y-11495412D02*
X9827324Y-11323984D01*
X9960658Y-11523984D02*
X9941610Y-11514460D01*
X9941610Y-11514460D02*
X9932086Y-11495412D01*
X9932086Y-11495412D02*
X9932086Y-11323984D01*
X10189229Y-11523984D02*
X10189229Y-11323984D01*
X10189229Y-11323984D02*
X10255896Y-11466841D01*
X10255896Y-11466841D02*
X10322563Y-11323984D01*
X10322563Y-11323984D02*
X10322563Y-11523984D01*
X10503515Y-11523984D02*
X10503515Y-11419222D01*
X10503515Y-11419222D02*
X10493991Y-11400174D01*
X10493991Y-11400174D02*
X10474944Y-11390650D01*
X10474944Y-11390650D02*
X10436848Y-11390650D01*
X10436848Y-11390650D02*
X10417801Y-11400174D01*
X10503515Y-11514460D02*
X10484467Y-11523984D01*
X10484467Y-11523984D02*
X10436848Y-11523984D01*
X10436848Y-11523984D02*
X10417801Y-11514460D01*
X10417801Y-11514460D02*
X10408277Y-11495412D01*
X10408277Y-11495412D02*
X10408277Y-11476365D01*
X10408277Y-11476365D02*
X10417801Y-11457317D01*
X10417801Y-11457317D02*
X10436848Y-11447793D01*
X10436848Y-11447793D02*
X10484467Y-11447793D01*
X10484467Y-11447793D02*
X10503515Y-11438269D01*
X10598753Y-11390650D02*
X10598753Y-11590650D01*
X10598753Y-11400174D02*
X10617801Y-11390650D01*
X10617801Y-11390650D02*
X10655896Y-11390650D01*
X10655896Y-11390650D02*
X10674944Y-11400174D01*
X10674944Y-11400174D02*
X10684467Y-11409698D01*
X10684467Y-11409698D02*
X10693991Y-11428746D01*
X10693991Y-11428746D02*
X10693991Y-11485888D01*
X10693991Y-11485888D02*
X10684467Y-11504936D01*
X10684467Y-11504936D02*
X10674944Y-11514460D01*
X10674944Y-11514460D02*
X10655896Y-11523984D01*
X10655896Y-11523984D02*
X10617801Y-11523984D01*
X10617801Y-11523984D02*
X10598753Y-11514460D01*
X10779705Y-11504936D02*
X10789229Y-11514460D01*
X10789229Y-11514460D02*
X10779705Y-11523984D01*
X10779705Y-11523984D02*
X10770182Y-11514460D01*
X10770182Y-11514460D02*
X10779705Y-11504936D01*
X10779705Y-11504936D02*
X10779705Y-11523984D01*
X10779705Y-11400174D02*
X10789229Y-11409698D01*
X10789229Y-11409698D02*
X10779705Y-11419222D01*
X10779705Y-11419222D02*
X10770182Y-11409698D01*
X10770182Y-11409698D02*
X10779705Y-11400174D01*
X10779705Y-11400174D02*
X10779705Y-11419222D01*
D12*
X9117500Y-11837500D02*
X9147500Y-11867500D01*
X9147500Y-11837500D02*
X9117500Y-11867500D01*
D11*
X9446372Y-11743984D02*
X9465420Y-11743984D01*
X9465420Y-11743984D02*
X9484467Y-11753508D01*
X9484467Y-11753508D02*
X9493991Y-11763031D01*
X9493991Y-11763031D02*
X9503515Y-11782079D01*
X9503515Y-11782079D02*
X9513039Y-11820174D01*
X9513039Y-11820174D02*
X9513039Y-11867793D01*
X9513039Y-11867793D02*
X9503515Y-11905888D01*
X9503515Y-11905888D02*
X9493991Y-11924936D01*
X9493991Y-11924936D02*
X9484467Y-11934460D01*
X9484467Y-11934460D02*
X9465420Y-11943984D01*
X9465420Y-11943984D02*
X9446372Y-11943984D01*
X9446372Y-11943984D02*
X9427324Y-11934460D01*
X9427324Y-11934460D02*
X9417801Y-11924936D01*
X9417801Y-11924936D02*
X9408277Y-11905888D01*
X9408277Y-11905888D02*
X9398753Y-11867793D01*
X9398753Y-11867793D02*
X9398753Y-11820174D01*
X9398753Y-11820174D02*
X9408277Y-11782079D01*
X9408277Y-11782079D02*
X9417801Y-11763031D01*
X9417801Y-11763031D02*
X9427324Y-11753508D01*
X9427324Y-11753508D02*
X9446372Y-11743984D01*
X9598753Y-11924936D02*
X9608277Y-11934460D01*
X9608277Y-11934460D02*
X9598753Y-11943984D01*
X9598753Y-11943984D02*
X9589229Y-11934460D01*
X9589229Y-11934460D02*
X9598753Y-11924936D01*
X9598753Y-11924936D02*
X9598753Y-11943984D01*
X9674944Y-11743984D02*
X9798753Y-11743984D01*
X9798753Y-11743984D02*
X9732086Y-11820174D01*
X9732086Y-11820174D02*
X9760658Y-11820174D01*
X9760658Y-11820174D02*
X9779705Y-11829698D01*
X9779705Y-11829698D02*
X9789229Y-11839222D01*
X9789229Y-11839222D02*
X9798753Y-11858269D01*
X9798753Y-11858269D02*
X9798753Y-11905888D01*
X9798753Y-11905888D02*
X9789229Y-11924936D01*
X9789229Y-11924936D02*
X9779705Y-11934460D01*
X9779705Y-11934460D02*
X9760658Y-11943984D01*
X9760658Y-11943984D02*
X9703515Y-11943984D01*
X9703515Y-11943984D02*
X9684467Y-11934460D01*
X9684467Y-11934460D02*
X9674944Y-11924936D01*
X9922563Y-11743984D02*
X9941610Y-11743984D01*
X9941610Y-11743984D02*
X9960658Y-11753508D01*
X9960658Y-11753508D02*
X9970182Y-11763031D01*
X9970182Y-11763031D02*
X9979705Y-11782079D01*
X9979705Y-11782079D02*
X9989229Y-11820174D01*
X9989229Y-11820174D02*
X9989229Y-11867793D01*
X9989229Y-11867793D02*
X9979705Y-11905888D01*
X9979705Y-11905888D02*
X9970182Y-11924936D01*
X9970182Y-11924936D02*
X9960658Y-11934460D01*
X9960658Y-11934460D02*
X9941610Y-11943984D01*
X9941610Y-11943984D02*
X9922563Y-11943984D01*
X9922563Y-11943984D02*
X9903515Y-11934460D01*
X9903515Y-11934460D02*
X9893991Y-11924936D01*
X9893991Y-11924936D02*
X9884467Y-11905888D01*
X9884467Y-11905888D02*
X9874944Y-11867793D01*
X9874944Y-11867793D02*
X9874944Y-11820174D01*
X9874944Y-11820174D02*
X9884467Y-11782079D01*
X9884467Y-11782079D02*
X9893991Y-11763031D01*
X9893991Y-11763031D02*
X9903515Y-11753508D01*
X9903515Y-11753508D02*
X9922563Y-11743984D01*
X10113039Y-11743984D02*
X10132086Y-11743984D01*
X10132086Y-11743984D02*
X10151134Y-11753508D01*
X10151134Y-11753508D02*
X10160658Y-11763031D01*
X10160658Y-11763031D02*
X10170182Y-11782079D01*
X10170182Y-11782079D02*
X10179705Y-11820174D01*
X10179705Y-11820174D02*
X10179705Y-11867793D01*
X10179705Y-11867793D02*
X10170182Y-11905888D01*
X10170182Y-11905888D02*
X10160658Y-11924936D01*
X10160658Y-11924936D02*
X10151134Y-11934460D01*
X10151134Y-11934460D02*
X10132086Y-11943984D01*
X10132086Y-11943984D02*
X10113039Y-11943984D01*
X10113039Y-11943984D02*
X10093991Y-11934460D01*
X10093991Y-11934460D02*
X10084467Y-11924936D01*
X10084467Y-11924936D02*
X10074944Y-11905888D01*
X10074944Y-11905888D02*
X10065420Y-11867793D01*
X10065420Y-11867793D02*
X10065420Y-11820174D01*
X10065420Y-11820174D02*
X10074944Y-11782079D01*
X10074944Y-11782079D02*
X10084467Y-11763031D01*
X10084467Y-11763031D02*
X10093991Y-11753508D01*
X10093991Y-11753508D02*
X10113039Y-11743984D01*
X10265420Y-11943984D02*
X10265420Y-11810650D01*
X10265420Y-11829698D02*
X10274944Y-11820174D01*
X10274944Y-11820174D02*
X10293991Y-11810650D01*
X10293991Y-11810650D02*
X10322563Y-11810650D01*
X10322563Y-11810650D02*
X10341610Y-11820174D01*
X10341610Y-11820174D02*
X10351134Y-11839222D01*
X10351134Y-11839222D02*
X10351134Y-11943984D01*
X10351134Y-11839222D02*
X10360658Y-11820174D01*
X10360658Y-11820174D02*
X10379705Y-11810650D01*
X10379705Y-11810650D02*
X10408277Y-11810650D01*
X10408277Y-11810650D02*
X10427325Y-11820174D01*
X10427325Y-11820174D02*
X10436848Y-11839222D01*
X10436848Y-11839222D02*
X10436848Y-11943984D01*
X10532086Y-11943984D02*
X10532086Y-11810650D01*
X10532086Y-11829698D02*
X10541610Y-11820174D01*
X10541610Y-11820174D02*
X10560658Y-11810650D01*
X10560658Y-11810650D02*
X10589229Y-11810650D01*
X10589229Y-11810650D02*
X10608277Y-11820174D01*
X10608277Y-11820174D02*
X10617801Y-11839222D01*
X10617801Y-11839222D02*
X10617801Y-11943984D01*
X10617801Y-11839222D02*
X10627325Y-11820174D01*
X10627325Y-11820174D02*
X10646372Y-11810650D01*
X10646372Y-11810650D02*
X10674944Y-11810650D01*
X10674944Y-11810650D02*
X10693991Y-11820174D01*
X10693991Y-11820174D02*
X10703515Y-11839222D01*
X10703515Y-11839222D02*
X10703515Y-11943984D01*
X11093991Y-11734460D02*
X10922563Y-11991603D01*
X11351134Y-11743984D02*
X11370182Y-11743984D01*
X11370182Y-11743984D02*
X11389229Y-11753508D01*
X11389229Y-11753508D02*
X11398753Y-11763031D01*
X11398753Y-11763031D02*
X11408277Y-11782079D01*
X11408277Y-11782079D02*
X11417801Y-11820174D01*
X11417801Y-11820174D02*
X11417801Y-11867793D01*
X11417801Y-11867793D02*
X11408277Y-11905888D01*
X11408277Y-11905888D02*
X11398753Y-11924936D01*
X11398753Y-11924936D02*
X11389229Y-11934460D01*
X11389229Y-11934460D02*
X11370182Y-11943984D01*
X11370182Y-11943984D02*
X11351134Y-11943984D01*
X11351134Y-11943984D02*
X11332086Y-11934460D01*
X11332086Y-11934460D02*
X11322563Y-11924936D01*
X11322563Y-11924936D02*
X11313039Y-11905888D01*
X11313039Y-11905888D02*
X11303515Y-11867793D01*
X11303515Y-11867793D02*
X11303515Y-11820174D01*
X11303515Y-11820174D02*
X11313039Y-11782079D01*
X11313039Y-11782079D02*
X11322563Y-11763031D01*
X11322563Y-11763031D02*
X11332086Y-11753508D01*
X11332086Y-11753508D02*
X11351134Y-11743984D01*
X11503515Y-11924936D02*
X11513039Y-11934460D01*
X11513039Y-11934460D02*
X11503515Y-11943984D01*
X11503515Y-11943984D02*
X11493991Y-11934460D01*
X11493991Y-11934460D02*
X11503515Y-11924936D01*
X11503515Y-11924936D02*
X11503515Y-11943984D01*
X11636848Y-11743984D02*
X11655896Y-11743984D01*
X11655896Y-11743984D02*
X11674944Y-11753508D01*
X11674944Y-11753508D02*
X11684467Y-11763031D01*
X11684467Y-11763031D02*
X11693991Y-11782079D01*
X11693991Y-11782079D02*
X11703515Y-11820174D01*
X11703515Y-11820174D02*
X11703515Y-11867793D01*
X11703515Y-11867793D02*
X11693991Y-11905888D01*
X11693991Y-11905888D02*
X11684467Y-11924936D01*
X11684467Y-11924936D02*
X11674944Y-11934460D01*
X11674944Y-11934460D02*
X11655896Y-11943984D01*
X11655896Y-11943984D02*
X11636848Y-11943984D01*
X11636848Y-11943984D02*
X11617801Y-11934460D01*
X11617801Y-11934460D02*
X11608277Y-11924936D01*
X11608277Y-11924936D02*
X11598753Y-11905888D01*
X11598753Y-11905888D02*
X11589229Y-11867793D01*
X11589229Y-11867793D02*
X11589229Y-11820174D01*
X11589229Y-11820174D02*
X11598753Y-11782079D01*
X11598753Y-11782079D02*
X11608277Y-11763031D01*
X11608277Y-11763031D02*
X11617801Y-11753508D01*
X11617801Y-11753508D02*
X11636848Y-11743984D01*
X11893991Y-11943984D02*
X11779706Y-11943984D01*
X11836848Y-11943984D02*
X11836848Y-11743984D01*
X11836848Y-11743984D02*
X11817801Y-11772555D01*
X11817801Y-11772555D02*
X11798753Y-11791603D01*
X11798753Y-11791603D02*
X11779706Y-11801127D01*
X12084467Y-11943984D02*
X11970182Y-11943984D01*
X12027325Y-11943984D02*
X12027325Y-11743984D01*
X12027325Y-11743984D02*
X12008277Y-11772555D01*
X12008277Y-11772555D02*
X11989229Y-11791603D01*
X11989229Y-11791603D02*
X11970182Y-11801127D01*
X12198753Y-11829698D02*
X12179706Y-11820174D01*
X12179706Y-11820174D02*
X12170182Y-11810650D01*
X12170182Y-11810650D02*
X12160658Y-11791603D01*
X12160658Y-11791603D02*
X12160658Y-11782079D01*
X12160658Y-11782079D02*
X12170182Y-11763031D01*
X12170182Y-11763031D02*
X12179706Y-11753508D01*
X12179706Y-11753508D02*
X12198753Y-11743984D01*
X12198753Y-11743984D02*
X12236848Y-11743984D01*
X12236848Y-11743984D02*
X12255896Y-11753508D01*
X12255896Y-11753508D02*
X12265420Y-11763031D01*
X12265420Y-11763031D02*
X12274944Y-11782079D01*
X12274944Y-11782079D02*
X12274944Y-11791603D01*
X12274944Y-11791603D02*
X12265420Y-11810650D01*
X12265420Y-11810650D02*
X12255896Y-11820174D01*
X12255896Y-11820174D02*
X12236848Y-11829698D01*
X12236848Y-11829698D02*
X12198753Y-11829698D01*
X12198753Y-11829698D02*
X12179706Y-11839222D01*
X12179706Y-11839222D02*
X12170182Y-11848746D01*
X12170182Y-11848746D02*
X12160658Y-11867793D01*
X12160658Y-11867793D02*
X12160658Y-11905888D01*
X12160658Y-11905888D02*
X12170182Y-11924936D01*
X12170182Y-11924936D02*
X12179706Y-11934460D01*
X12179706Y-11934460D02*
X12198753Y-11943984D01*
X12198753Y-11943984D02*
X12236848Y-11943984D01*
X12236848Y-11943984D02*
X12255896Y-11934460D01*
X12255896Y-11934460D02*
X12265420Y-11924936D01*
X12265420Y-11924936D02*
X12274944Y-11905888D01*
X12274944Y-11905888D02*
X12274944Y-11867793D01*
X12274944Y-11867793D02*
X12265420Y-11848746D01*
X12265420Y-11848746D02*
X12255896Y-11839222D01*
X12255896Y-11839222D02*
X12236848Y-11829698D01*
X12351134Y-11743984D02*
X12351134Y-11782079D01*
X12427325Y-11743984D02*
X12427325Y-11782079D01*
X12722563Y-12020174D02*
X12713039Y-12010650D01*
X12713039Y-12010650D02*
X12693991Y-11982079D01*
X12693991Y-11982079D02*
X12684468Y-11963031D01*
X12684468Y-11963031D02*
X12674944Y-11934460D01*
X12674944Y-11934460D02*
X12665420Y-11886841D01*
X12665420Y-11886841D02*
X12665420Y-11848746D01*
X12665420Y-11848746D02*
X12674944Y-11801127D01*
X12674944Y-11801127D02*
X12684468Y-11772555D01*
X12684468Y-11772555D02*
X12693991Y-11753508D01*
X12693991Y-11753508D02*
X12713039Y-11724936D01*
X12713039Y-11724936D02*
X12722563Y-11715412D01*
X12779706Y-11743984D02*
X12913039Y-11743984D01*
X12913039Y-11743984D02*
X12827325Y-11943984D01*
X13141610Y-11943984D02*
X13141610Y-11743984D01*
X13227325Y-11943984D02*
X13227325Y-11839222D01*
X13227325Y-11839222D02*
X13217801Y-11820174D01*
X13217801Y-11820174D02*
X13198753Y-11810650D01*
X13198753Y-11810650D02*
X13170182Y-11810650D01*
X13170182Y-11810650D02*
X13151134Y-11820174D01*
X13151134Y-11820174D02*
X13141610Y-11829698D01*
X13351134Y-11943984D02*
X13332087Y-11934460D01*
X13332087Y-11934460D02*
X13322563Y-11924936D01*
X13322563Y-11924936D02*
X13313039Y-11905888D01*
X13313039Y-11905888D02*
X13313039Y-11848746D01*
X13313039Y-11848746D02*
X13322563Y-11829698D01*
X13322563Y-11829698D02*
X13332087Y-11820174D01*
X13332087Y-11820174D02*
X13351134Y-11810650D01*
X13351134Y-11810650D02*
X13379706Y-11810650D01*
X13379706Y-11810650D02*
X13398753Y-11820174D01*
X13398753Y-11820174D02*
X13408277Y-11829698D01*
X13408277Y-11829698D02*
X13417801Y-11848746D01*
X13417801Y-11848746D02*
X13417801Y-11905888D01*
X13417801Y-11905888D02*
X13408277Y-11924936D01*
X13408277Y-11924936D02*
X13398753Y-11934460D01*
X13398753Y-11934460D02*
X13379706Y-11943984D01*
X13379706Y-11943984D02*
X13351134Y-11943984D01*
X13532087Y-11943984D02*
X13513039Y-11934460D01*
X13513039Y-11934460D02*
X13503515Y-11915412D01*
X13503515Y-11915412D02*
X13503515Y-11743984D01*
X13684468Y-11934460D02*
X13665420Y-11943984D01*
X13665420Y-11943984D02*
X13627325Y-11943984D01*
X13627325Y-11943984D02*
X13608277Y-11934460D01*
X13608277Y-11934460D02*
X13598753Y-11915412D01*
X13598753Y-11915412D02*
X13598753Y-11839222D01*
X13598753Y-11839222D02*
X13608277Y-11820174D01*
X13608277Y-11820174D02*
X13627325Y-11810650D01*
X13627325Y-11810650D02*
X13665420Y-11810650D01*
X13665420Y-11810650D02*
X13684468Y-11820174D01*
X13684468Y-11820174D02*
X13693991Y-11839222D01*
X13693991Y-11839222D02*
X13693991Y-11858269D01*
X13693991Y-11858269D02*
X13598753Y-11877317D01*
X13770182Y-11934460D02*
X13789230Y-11943984D01*
X13789230Y-11943984D02*
X13827325Y-11943984D01*
X13827325Y-11943984D02*
X13846372Y-11934460D01*
X13846372Y-11934460D02*
X13855896Y-11915412D01*
X13855896Y-11915412D02*
X13855896Y-11905888D01*
X13855896Y-11905888D02*
X13846372Y-11886841D01*
X13846372Y-11886841D02*
X13827325Y-11877317D01*
X13827325Y-11877317D02*
X13798753Y-11877317D01*
X13798753Y-11877317D02*
X13779706Y-11867793D01*
X13779706Y-11867793D02*
X13770182Y-11848746D01*
X13770182Y-11848746D02*
X13770182Y-11839222D01*
X13770182Y-11839222D02*
X13779706Y-11820174D01*
X13779706Y-11820174D02*
X13798753Y-11810650D01*
X13798753Y-11810650D02*
X13827325Y-11810650D01*
X13827325Y-11810650D02*
X13846372Y-11820174D01*
X13922563Y-12020174D02*
X13932087Y-12010650D01*
X13932087Y-12010650D02*
X13951134Y-11982079D01*
X13951134Y-11982079D02*
X13960658Y-11963031D01*
X13960658Y-11963031D02*
X13970182Y-11934460D01*
X13970182Y-11934460D02*
X13979706Y-11886841D01*
X13979706Y-11886841D02*
X13979706Y-11848746D01*
X13979706Y-11848746D02*
X13970182Y-11801127D01*
X13970182Y-11801127D02*
X13960658Y-11772555D01*
X13960658Y-11772555D02*
X13951134Y-11753508D01*
X13951134Y-11753508D02*
X13932087Y-11724936D01*
X13932087Y-11724936D02*
X13922563Y-11715412D01*
D12*
X9147500Y-12116500D02*
G75*
G02*
X9077500Y-12116500I-35000J0D01*
G01*
X9077500Y-12116500D02*
G75*
G02*
X9147500Y-12116500I35000J0D01*
G01*
D11*
X9446372Y-12007984D02*
X9465420Y-12007984D01*
X9465420Y-12007984D02*
X9484467Y-12017508D01*
X9484467Y-12017508D02*
X9493991Y-12027031D01*
X9493991Y-12027031D02*
X9503515Y-12046079D01*
X9503515Y-12046079D02*
X9513039Y-12084174D01*
X9513039Y-12084174D02*
X9513039Y-12131793D01*
X9513039Y-12131793D02*
X9503515Y-12169888D01*
X9503515Y-12169888D02*
X9493991Y-12188936D01*
X9493991Y-12188936D02*
X9484467Y-12198460D01*
X9484467Y-12198460D02*
X9465420Y-12207984D01*
X9465420Y-12207984D02*
X9446372Y-12207984D01*
X9446372Y-12207984D02*
X9427324Y-12198460D01*
X9427324Y-12198460D02*
X9417801Y-12188936D01*
X9417801Y-12188936D02*
X9408277Y-12169888D01*
X9408277Y-12169888D02*
X9398753Y-12131793D01*
X9398753Y-12131793D02*
X9398753Y-12084174D01*
X9398753Y-12084174D02*
X9408277Y-12046079D01*
X9408277Y-12046079D02*
X9417801Y-12027031D01*
X9417801Y-12027031D02*
X9427324Y-12017508D01*
X9427324Y-12017508D02*
X9446372Y-12007984D01*
X9598753Y-12188936D02*
X9608277Y-12198460D01*
X9608277Y-12198460D02*
X9598753Y-12207984D01*
X9598753Y-12207984D02*
X9589229Y-12198460D01*
X9589229Y-12198460D02*
X9598753Y-12188936D01*
X9598753Y-12188936D02*
X9598753Y-12207984D01*
X9674944Y-12007984D02*
X9808277Y-12007984D01*
X9808277Y-12007984D02*
X9722563Y-12207984D01*
X9922563Y-12007984D02*
X9941610Y-12007984D01*
X9941610Y-12007984D02*
X9960658Y-12017508D01*
X9960658Y-12017508D02*
X9970182Y-12027031D01*
X9970182Y-12027031D02*
X9979705Y-12046079D01*
X9979705Y-12046079D02*
X9989229Y-12084174D01*
X9989229Y-12084174D02*
X9989229Y-12131793D01*
X9989229Y-12131793D02*
X9979705Y-12169888D01*
X9979705Y-12169888D02*
X9970182Y-12188936D01*
X9970182Y-12188936D02*
X9960658Y-12198460D01*
X9960658Y-12198460D02*
X9941610Y-12207984D01*
X9941610Y-12207984D02*
X9922563Y-12207984D01*
X9922563Y-12207984D02*
X9903515Y-12198460D01*
X9903515Y-12198460D02*
X9893991Y-12188936D01*
X9893991Y-12188936D02*
X9884467Y-12169888D01*
X9884467Y-12169888D02*
X9874944Y-12131793D01*
X9874944Y-12131793D02*
X9874944Y-12084174D01*
X9874944Y-12084174D02*
X9884467Y-12046079D01*
X9884467Y-12046079D02*
X9893991Y-12027031D01*
X9893991Y-12027031D02*
X9903515Y-12017508D01*
X9903515Y-12017508D02*
X9922563Y-12007984D01*
X10113039Y-12007984D02*
X10132086Y-12007984D01*
X10132086Y-12007984D02*
X10151134Y-12017508D01*
X10151134Y-12017508D02*
X10160658Y-12027031D01*
X10160658Y-12027031D02*
X10170182Y-12046079D01*
X10170182Y-12046079D02*
X10179705Y-12084174D01*
X10179705Y-12084174D02*
X10179705Y-12131793D01*
X10179705Y-12131793D02*
X10170182Y-12169888D01*
X10170182Y-12169888D02*
X10160658Y-12188936D01*
X10160658Y-12188936D02*
X10151134Y-12198460D01*
X10151134Y-12198460D02*
X10132086Y-12207984D01*
X10132086Y-12207984D02*
X10113039Y-12207984D01*
X10113039Y-12207984D02*
X10093991Y-12198460D01*
X10093991Y-12198460D02*
X10084467Y-12188936D01*
X10084467Y-12188936D02*
X10074944Y-12169888D01*
X10074944Y-12169888D02*
X10065420Y-12131793D01*
X10065420Y-12131793D02*
X10065420Y-12084174D01*
X10065420Y-12084174D02*
X10074944Y-12046079D01*
X10074944Y-12046079D02*
X10084467Y-12027031D01*
X10084467Y-12027031D02*
X10093991Y-12017508D01*
X10093991Y-12017508D02*
X10113039Y-12007984D01*
X10265420Y-12207984D02*
X10265420Y-12074650D01*
X10265420Y-12093698D02*
X10274944Y-12084174D01*
X10274944Y-12084174D02*
X10293991Y-12074650D01*
X10293991Y-12074650D02*
X10322563Y-12074650D01*
X10322563Y-12074650D02*
X10341610Y-12084174D01*
X10341610Y-12084174D02*
X10351134Y-12103222D01*
X10351134Y-12103222D02*
X10351134Y-12207984D01*
X10351134Y-12103222D02*
X10360658Y-12084174D01*
X10360658Y-12084174D02*
X10379705Y-12074650D01*
X10379705Y-12074650D02*
X10408277Y-12074650D01*
X10408277Y-12074650D02*
X10427325Y-12084174D01*
X10427325Y-12084174D02*
X10436848Y-12103222D01*
X10436848Y-12103222D02*
X10436848Y-12207984D01*
X10532086Y-12207984D02*
X10532086Y-12074650D01*
X10532086Y-12093698D02*
X10541610Y-12084174D01*
X10541610Y-12084174D02*
X10560658Y-12074650D01*
X10560658Y-12074650D02*
X10589229Y-12074650D01*
X10589229Y-12074650D02*
X10608277Y-12084174D01*
X10608277Y-12084174D02*
X10617801Y-12103222D01*
X10617801Y-12103222D02*
X10617801Y-12207984D01*
X10617801Y-12103222D02*
X10627325Y-12084174D01*
X10627325Y-12084174D02*
X10646372Y-12074650D01*
X10646372Y-12074650D02*
X10674944Y-12074650D01*
X10674944Y-12074650D02*
X10693991Y-12084174D01*
X10693991Y-12084174D02*
X10703515Y-12103222D01*
X10703515Y-12103222D02*
X10703515Y-12207984D01*
X11093991Y-11998460D02*
X10922563Y-12255603D01*
X11351134Y-12007984D02*
X11370182Y-12007984D01*
X11370182Y-12007984D02*
X11389229Y-12017508D01*
X11389229Y-12017508D02*
X11398753Y-12027031D01*
X11398753Y-12027031D02*
X11408277Y-12046079D01*
X11408277Y-12046079D02*
X11417801Y-12084174D01*
X11417801Y-12084174D02*
X11417801Y-12131793D01*
X11417801Y-12131793D02*
X11408277Y-12169888D01*
X11408277Y-12169888D02*
X11398753Y-12188936D01*
X11398753Y-12188936D02*
X11389229Y-12198460D01*
X11389229Y-12198460D02*
X11370182Y-12207984D01*
X11370182Y-12207984D02*
X11351134Y-12207984D01*
X11351134Y-12207984D02*
X11332086Y-12198460D01*
X11332086Y-12198460D02*
X11322563Y-12188936D01*
X11322563Y-12188936D02*
X11313039Y-12169888D01*
X11313039Y-12169888D02*
X11303515Y-12131793D01*
X11303515Y-12131793D02*
X11303515Y-12084174D01*
X11303515Y-12084174D02*
X11313039Y-12046079D01*
X11313039Y-12046079D02*
X11322563Y-12027031D01*
X11322563Y-12027031D02*
X11332086Y-12017508D01*
X11332086Y-12017508D02*
X11351134Y-12007984D01*
X11503515Y-12188936D02*
X11513039Y-12198460D01*
X11513039Y-12198460D02*
X11503515Y-12207984D01*
X11503515Y-12207984D02*
X11493991Y-12198460D01*
X11493991Y-12198460D02*
X11503515Y-12188936D01*
X11503515Y-12188936D02*
X11503515Y-12207984D01*
X11636848Y-12007984D02*
X11655896Y-12007984D01*
X11655896Y-12007984D02*
X11674944Y-12017508D01*
X11674944Y-12017508D02*
X11684467Y-12027031D01*
X11684467Y-12027031D02*
X11693991Y-12046079D01*
X11693991Y-12046079D02*
X11703515Y-12084174D01*
X11703515Y-12084174D02*
X11703515Y-12131793D01*
X11703515Y-12131793D02*
X11693991Y-12169888D01*
X11693991Y-12169888D02*
X11684467Y-12188936D01*
X11684467Y-12188936D02*
X11674944Y-12198460D01*
X11674944Y-12198460D02*
X11655896Y-12207984D01*
X11655896Y-12207984D02*
X11636848Y-12207984D01*
X11636848Y-12207984D02*
X11617801Y-12198460D01*
X11617801Y-12198460D02*
X11608277Y-12188936D01*
X11608277Y-12188936D02*
X11598753Y-12169888D01*
X11598753Y-12169888D02*
X11589229Y-12131793D01*
X11589229Y-12131793D02*
X11589229Y-12084174D01*
X11589229Y-12084174D02*
X11598753Y-12046079D01*
X11598753Y-12046079D02*
X11608277Y-12027031D01*
X11608277Y-12027031D02*
X11617801Y-12017508D01*
X11617801Y-12017508D02*
X11636848Y-12007984D01*
X11779706Y-12027031D02*
X11789229Y-12017508D01*
X11789229Y-12017508D02*
X11808277Y-12007984D01*
X11808277Y-12007984D02*
X11855896Y-12007984D01*
X11855896Y-12007984D02*
X11874944Y-12017508D01*
X11874944Y-12017508D02*
X11884467Y-12027031D01*
X11884467Y-12027031D02*
X11893991Y-12046079D01*
X11893991Y-12046079D02*
X11893991Y-12065127D01*
X11893991Y-12065127D02*
X11884467Y-12093698D01*
X11884467Y-12093698D02*
X11770182Y-12207984D01*
X11770182Y-12207984D02*
X11893991Y-12207984D01*
X11960658Y-12007984D02*
X12093991Y-12007984D01*
X12093991Y-12007984D02*
X12008277Y-12207984D01*
X12255896Y-12007984D02*
X12217801Y-12007984D01*
X12217801Y-12007984D02*
X12198753Y-12017508D01*
X12198753Y-12017508D02*
X12189229Y-12027031D01*
X12189229Y-12027031D02*
X12170182Y-12055603D01*
X12170182Y-12055603D02*
X12160658Y-12093698D01*
X12160658Y-12093698D02*
X12160658Y-12169888D01*
X12160658Y-12169888D02*
X12170182Y-12188936D01*
X12170182Y-12188936D02*
X12179706Y-12198460D01*
X12179706Y-12198460D02*
X12198753Y-12207984D01*
X12198753Y-12207984D02*
X12236848Y-12207984D01*
X12236848Y-12207984D02*
X12255896Y-12198460D01*
X12255896Y-12198460D02*
X12265420Y-12188936D01*
X12265420Y-12188936D02*
X12274944Y-12169888D01*
X12274944Y-12169888D02*
X12274944Y-12122269D01*
X12274944Y-12122269D02*
X12265420Y-12103222D01*
X12265420Y-12103222D02*
X12255896Y-12093698D01*
X12255896Y-12093698D02*
X12236848Y-12084174D01*
X12236848Y-12084174D02*
X12198753Y-12084174D01*
X12198753Y-12084174D02*
X12179706Y-12093698D01*
X12179706Y-12093698D02*
X12170182Y-12103222D01*
X12170182Y-12103222D02*
X12160658Y-12122269D01*
X12351134Y-12007984D02*
X12351134Y-12046079D01*
X12427325Y-12007984D02*
X12427325Y-12046079D01*
X12722563Y-12284174D02*
X12713039Y-12274650D01*
X12713039Y-12274650D02*
X12693991Y-12246079D01*
X12693991Y-12246079D02*
X12684468Y-12227031D01*
X12684468Y-12227031D02*
X12674944Y-12198460D01*
X12674944Y-12198460D02*
X12665420Y-12150841D01*
X12665420Y-12150841D02*
X12665420Y-12112746D01*
X12665420Y-12112746D02*
X12674944Y-12065127D01*
X12674944Y-12065127D02*
X12684468Y-12036555D01*
X12684468Y-12036555D02*
X12693991Y-12017508D01*
X12693991Y-12017508D02*
X12713039Y-11988936D01*
X12713039Y-11988936D02*
X12722563Y-11979412D01*
X12836848Y-12007984D02*
X12855896Y-12007984D01*
X12855896Y-12007984D02*
X12874944Y-12017508D01*
X12874944Y-12017508D02*
X12884468Y-12027031D01*
X12884468Y-12027031D02*
X12893991Y-12046079D01*
X12893991Y-12046079D02*
X12903515Y-12084174D01*
X12903515Y-12084174D02*
X12903515Y-12131793D01*
X12903515Y-12131793D02*
X12893991Y-12169888D01*
X12893991Y-12169888D02*
X12884468Y-12188936D01*
X12884468Y-12188936D02*
X12874944Y-12198460D01*
X12874944Y-12198460D02*
X12855896Y-12207984D01*
X12855896Y-12207984D02*
X12836848Y-12207984D01*
X12836848Y-12207984D02*
X12817801Y-12198460D01*
X12817801Y-12198460D02*
X12808277Y-12188936D01*
X12808277Y-12188936D02*
X12798753Y-12169888D01*
X12798753Y-12169888D02*
X12789229Y-12131793D01*
X12789229Y-12131793D02*
X12789229Y-12084174D01*
X12789229Y-12084174D02*
X12798753Y-12046079D01*
X12798753Y-12046079D02*
X12808277Y-12027031D01*
X12808277Y-12027031D02*
X12817801Y-12017508D01*
X12817801Y-12017508D02*
X12836848Y-12007984D01*
X13141610Y-12207984D02*
X13141610Y-12007984D01*
X13227325Y-12207984D02*
X13227325Y-12103222D01*
X13227325Y-12103222D02*
X13217801Y-12084174D01*
X13217801Y-12084174D02*
X13198753Y-12074650D01*
X13198753Y-12074650D02*
X13170182Y-12074650D01*
X13170182Y-12074650D02*
X13151134Y-12084174D01*
X13151134Y-12084174D02*
X13141610Y-12093698D01*
X13351134Y-12207984D02*
X13332087Y-12198460D01*
X13332087Y-12198460D02*
X13322563Y-12188936D01*
X13322563Y-12188936D02*
X13313039Y-12169888D01*
X13313039Y-12169888D02*
X13313039Y-12112746D01*
X13313039Y-12112746D02*
X13322563Y-12093698D01*
X13322563Y-12093698D02*
X13332087Y-12084174D01*
X13332087Y-12084174D02*
X13351134Y-12074650D01*
X13351134Y-12074650D02*
X13379706Y-12074650D01*
X13379706Y-12074650D02*
X13398753Y-12084174D01*
X13398753Y-12084174D02*
X13408277Y-12093698D01*
X13408277Y-12093698D02*
X13417801Y-12112746D01*
X13417801Y-12112746D02*
X13417801Y-12169888D01*
X13417801Y-12169888D02*
X13408277Y-12188936D01*
X13408277Y-12188936D02*
X13398753Y-12198460D01*
X13398753Y-12198460D02*
X13379706Y-12207984D01*
X13379706Y-12207984D02*
X13351134Y-12207984D01*
X13532087Y-12207984D02*
X13513039Y-12198460D01*
X13513039Y-12198460D02*
X13503515Y-12179412D01*
X13503515Y-12179412D02*
X13503515Y-12007984D01*
X13684468Y-12198460D02*
X13665420Y-12207984D01*
X13665420Y-12207984D02*
X13627325Y-12207984D01*
X13627325Y-12207984D02*
X13608277Y-12198460D01*
X13608277Y-12198460D02*
X13598753Y-12179412D01*
X13598753Y-12179412D02*
X13598753Y-12103222D01*
X13598753Y-12103222D02*
X13608277Y-12084174D01*
X13608277Y-12084174D02*
X13627325Y-12074650D01*
X13627325Y-12074650D02*
X13665420Y-12074650D01*
X13665420Y-12074650D02*
X13684468Y-12084174D01*
X13684468Y-12084174D02*
X13693991Y-12103222D01*
X13693991Y-12103222D02*
X13693991Y-12122269D01*
X13693991Y-12122269D02*
X13598753Y-12141317D01*
X13770182Y-12198460D02*
X13789230Y-12207984D01*
X13789230Y-12207984D02*
X13827325Y-12207984D01*
X13827325Y-12207984D02*
X13846372Y-12198460D01*
X13846372Y-12198460D02*
X13855896Y-12179412D01*
X13855896Y-12179412D02*
X13855896Y-12169888D01*
X13855896Y-12169888D02*
X13846372Y-12150841D01*
X13846372Y-12150841D02*
X13827325Y-12141317D01*
X13827325Y-12141317D02*
X13798753Y-12141317D01*
X13798753Y-12141317D02*
X13779706Y-12131793D01*
X13779706Y-12131793D02*
X13770182Y-12112746D01*
X13770182Y-12112746D02*
X13770182Y-12103222D01*
X13770182Y-12103222D02*
X13779706Y-12084174D01*
X13779706Y-12084174D02*
X13798753Y-12074650D01*
X13798753Y-12074650D02*
X13827325Y-12074650D01*
X13827325Y-12074650D02*
X13846372Y-12084174D01*
X14093992Y-12131793D02*
X14246373Y-12131793D01*
X14170182Y-12207984D02*
X14170182Y-12055603D01*
X14579706Y-12074650D02*
X14579706Y-12207984D01*
X14532087Y-11998460D02*
X14484468Y-12141317D01*
X14484468Y-12141317D02*
X14608277Y-12141317D01*
X14827325Y-12198460D02*
X14846373Y-12207984D01*
X14846373Y-12207984D02*
X14884468Y-12207984D01*
X14884468Y-12207984D02*
X14903515Y-12198460D01*
X14903515Y-12198460D02*
X14913039Y-12179412D01*
X14913039Y-12179412D02*
X14913039Y-12169888D01*
X14913039Y-12169888D02*
X14903515Y-12150841D01*
X14903515Y-12150841D02*
X14884468Y-12141317D01*
X14884468Y-12141317D02*
X14855896Y-12141317D01*
X14855896Y-12141317D02*
X14836849Y-12131793D01*
X14836849Y-12131793D02*
X14827325Y-12112746D01*
X14827325Y-12112746D02*
X14827325Y-12103222D01*
X14827325Y-12103222D02*
X14836849Y-12084174D01*
X14836849Y-12084174D02*
X14855896Y-12074650D01*
X14855896Y-12074650D02*
X14884468Y-12074650D01*
X14884468Y-12074650D02*
X14903515Y-12084174D01*
X15027325Y-12207984D02*
X15008277Y-12198460D01*
X15008277Y-12198460D02*
X14998754Y-12179412D01*
X14998754Y-12179412D02*
X14998754Y-12007984D01*
X15132087Y-12207984D02*
X15113039Y-12198460D01*
X15113039Y-12198460D02*
X15103515Y-12188936D01*
X15103515Y-12188936D02*
X15093992Y-12169888D01*
X15093992Y-12169888D02*
X15093992Y-12112746D01*
X15093992Y-12112746D02*
X15103515Y-12093698D01*
X15103515Y-12093698D02*
X15113039Y-12084174D01*
X15113039Y-12084174D02*
X15132087Y-12074650D01*
X15132087Y-12074650D02*
X15160658Y-12074650D01*
X15160658Y-12074650D02*
X15179706Y-12084174D01*
X15179706Y-12084174D02*
X15189230Y-12093698D01*
X15189230Y-12093698D02*
X15198754Y-12112746D01*
X15198754Y-12112746D02*
X15198754Y-12169888D01*
X15198754Y-12169888D02*
X15189230Y-12188936D01*
X15189230Y-12188936D02*
X15179706Y-12198460D01*
X15179706Y-12198460D02*
X15160658Y-12207984D01*
X15160658Y-12207984D02*
X15132087Y-12207984D01*
X15255896Y-12074650D02*
X15332087Y-12074650D01*
X15284468Y-12007984D02*
X15284468Y-12179412D01*
X15284468Y-12179412D02*
X15293992Y-12198460D01*
X15293992Y-12198460D02*
X15313039Y-12207984D01*
X15313039Y-12207984D02*
X15332087Y-12207984D01*
X15389230Y-12198460D02*
X15408277Y-12207984D01*
X15408277Y-12207984D02*
X15446373Y-12207984D01*
X15446373Y-12207984D02*
X15465420Y-12198460D01*
X15465420Y-12198460D02*
X15474944Y-12179412D01*
X15474944Y-12179412D02*
X15474944Y-12169888D01*
X15474944Y-12169888D02*
X15465420Y-12150841D01*
X15465420Y-12150841D02*
X15446373Y-12141317D01*
X15446373Y-12141317D02*
X15417801Y-12141317D01*
X15417801Y-12141317D02*
X15398754Y-12131793D01*
X15398754Y-12131793D02*
X15389230Y-12112746D01*
X15389230Y-12112746D02*
X15389230Y-12103222D01*
X15389230Y-12103222D02*
X15398754Y-12084174D01*
X15398754Y-12084174D02*
X15417801Y-12074650D01*
X15417801Y-12074650D02*
X15446373Y-12074650D01*
X15446373Y-12074650D02*
X15465420Y-12084174D01*
X15541611Y-12284174D02*
X15551135Y-12274650D01*
X15551135Y-12274650D02*
X15570182Y-12246079D01*
X15570182Y-12246079D02*
X15579706Y-12227031D01*
X15579706Y-12227031D02*
X15589230Y-12198460D01*
X15589230Y-12198460D02*
X15598754Y-12150841D01*
X15598754Y-12150841D02*
X15598754Y-12112746D01*
X15598754Y-12112746D02*
X15589230Y-12065127D01*
X15589230Y-12065127D02*
X15579706Y-12036555D01*
X15579706Y-12036555D02*
X15570182Y-12017508D01*
X15570182Y-12017508D02*
X15551135Y-11988936D01*
X15551135Y-11988936D02*
X15541611Y-11979412D01*
D12*
X9107500Y-12340500D02*
X9107500Y-12420500D01*
X9067500Y-12380500D02*
X9147500Y-12380500D01*
D11*
X9446372Y-12271984D02*
X9465420Y-12271984D01*
X9465420Y-12271984D02*
X9484467Y-12281508D01*
X9484467Y-12281508D02*
X9493991Y-12291031D01*
X9493991Y-12291031D02*
X9503515Y-12310079D01*
X9503515Y-12310079D02*
X9513039Y-12348174D01*
X9513039Y-12348174D02*
X9513039Y-12395793D01*
X9513039Y-12395793D02*
X9503515Y-12433888D01*
X9503515Y-12433888D02*
X9493991Y-12452936D01*
X9493991Y-12452936D02*
X9484467Y-12462460D01*
X9484467Y-12462460D02*
X9465420Y-12471984D01*
X9465420Y-12471984D02*
X9446372Y-12471984D01*
X9446372Y-12471984D02*
X9427324Y-12462460D01*
X9427324Y-12462460D02*
X9417801Y-12452936D01*
X9417801Y-12452936D02*
X9408277Y-12433888D01*
X9408277Y-12433888D02*
X9398753Y-12395793D01*
X9398753Y-12395793D02*
X9398753Y-12348174D01*
X9398753Y-12348174D02*
X9408277Y-12310079D01*
X9408277Y-12310079D02*
X9417801Y-12291031D01*
X9417801Y-12291031D02*
X9427324Y-12281508D01*
X9427324Y-12281508D02*
X9446372Y-12271984D01*
X9598753Y-12452936D02*
X9608277Y-12462460D01*
X9608277Y-12462460D02*
X9598753Y-12471984D01*
X9598753Y-12471984D02*
X9589229Y-12462460D01*
X9589229Y-12462460D02*
X9598753Y-12452936D01*
X9598753Y-12452936D02*
X9598753Y-12471984D01*
X9722563Y-12357698D02*
X9703515Y-12348174D01*
X9703515Y-12348174D02*
X9693991Y-12338650D01*
X9693991Y-12338650D02*
X9684467Y-12319603D01*
X9684467Y-12319603D02*
X9684467Y-12310079D01*
X9684467Y-12310079D02*
X9693991Y-12291031D01*
X9693991Y-12291031D02*
X9703515Y-12281508D01*
X9703515Y-12281508D02*
X9722563Y-12271984D01*
X9722563Y-12271984D02*
X9760658Y-12271984D01*
X9760658Y-12271984D02*
X9779705Y-12281508D01*
X9779705Y-12281508D02*
X9789229Y-12291031D01*
X9789229Y-12291031D02*
X9798753Y-12310079D01*
X9798753Y-12310079D02*
X9798753Y-12319603D01*
X9798753Y-12319603D02*
X9789229Y-12338650D01*
X9789229Y-12338650D02*
X9779705Y-12348174D01*
X9779705Y-12348174D02*
X9760658Y-12357698D01*
X9760658Y-12357698D02*
X9722563Y-12357698D01*
X9722563Y-12357698D02*
X9703515Y-12367222D01*
X9703515Y-12367222D02*
X9693991Y-12376746D01*
X9693991Y-12376746D02*
X9684467Y-12395793D01*
X9684467Y-12395793D02*
X9684467Y-12433888D01*
X9684467Y-12433888D02*
X9693991Y-12452936D01*
X9693991Y-12452936D02*
X9703515Y-12462460D01*
X9703515Y-12462460D02*
X9722563Y-12471984D01*
X9722563Y-12471984D02*
X9760658Y-12471984D01*
X9760658Y-12471984D02*
X9779705Y-12462460D01*
X9779705Y-12462460D02*
X9789229Y-12452936D01*
X9789229Y-12452936D02*
X9798753Y-12433888D01*
X9798753Y-12433888D02*
X9798753Y-12395793D01*
X9798753Y-12395793D02*
X9789229Y-12376746D01*
X9789229Y-12376746D02*
X9779705Y-12367222D01*
X9779705Y-12367222D02*
X9760658Y-12357698D01*
X9922563Y-12271984D02*
X9941610Y-12271984D01*
X9941610Y-12271984D02*
X9960658Y-12281508D01*
X9960658Y-12281508D02*
X9970182Y-12291031D01*
X9970182Y-12291031D02*
X9979705Y-12310079D01*
X9979705Y-12310079D02*
X9989229Y-12348174D01*
X9989229Y-12348174D02*
X9989229Y-12395793D01*
X9989229Y-12395793D02*
X9979705Y-12433888D01*
X9979705Y-12433888D02*
X9970182Y-12452936D01*
X9970182Y-12452936D02*
X9960658Y-12462460D01*
X9960658Y-12462460D02*
X9941610Y-12471984D01*
X9941610Y-12471984D02*
X9922563Y-12471984D01*
X9922563Y-12471984D02*
X9903515Y-12462460D01*
X9903515Y-12462460D02*
X9893991Y-12452936D01*
X9893991Y-12452936D02*
X9884467Y-12433888D01*
X9884467Y-12433888D02*
X9874944Y-12395793D01*
X9874944Y-12395793D02*
X9874944Y-12348174D01*
X9874944Y-12348174D02*
X9884467Y-12310079D01*
X9884467Y-12310079D02*
X9893991Y-12291031D01*
X9893991Y-12291031D02*
X9903515Y-12281508D01*
X9903515Y-12281508D02*
X9922563Y-12271984D01*
X10113039Y-12271984D02*
X10132086Y-12271984D01*
X10132086Y-12271984D02*
X10151134Y-12281508D01*
X10151134Y-12281508D02*
X10160658Y-12291031D01*
X10160658Y-12291031D02*
X10170182Y-12310079D01*
X10170182Y-12310079D02*
X10179705Y-12348174D01*
X10179705Y-12348174D02*
X10179705Y-12395793D01*
X10179705Y-12395793D02*
X10170182Y-12433888D01*
X10170182Y-12433888D02*
X10160658Y-12452936D01*
X10160658Y-12452936D02*
X10151134Y-12462460D01*
X10151134Y-12462460D02*
X10132086Y-12471984D01*
X10132086Y-12471984D02*
X10113039Y-12471984D01*
X10113039Y-12471984D02*
X10093991Y-12462460D01*
X10093991Y-12462460D02*
X10084467Y-12452936D01*
X10084467Y-12452936D02*
X10074944Y-12433888D01*
X10074944Y-12433888D02*
X10065420Y-12395793D01*
X10065420Y-12395793D02*
X10065420Y-12348174D01*
X10065420Y-12348174D02*
X10074944Y-12310079D01*
X10074944Y-12310079D02*
X10084467Y-12291031D01*
X10084467Y-12291031D02*
X10093991Y-12281508D01*
X10093991Y-12281508D02*
X10113039Y-12271984D01*
X10265420Y-12471984D02*
X10265420Y-12338650D01*
X10265420Y-12357698D02*
X10274944Y-12348174D01*
X10274944Y-12348174D02*
X10293991Y-12338650D01*
X10293991Y-12338650D02*
X10322563Y-12338650D01*
X10322563Y-12338650D02*
X10341610Y-12348174D01*
X10341610Y-12348174D02*
X10351134Y-12367222D01*
X10351134Y-12367222D02*
X10351134Y-12471984D01*
X10351134Y-12367222D02*
X10360658Y-12348174D01*
X10360658Y-12348174D02*
X10379705Y-12338650D01*
X10379705Y-12338650D02*
X10408277Y-12338650D01*
X10408277Y-12338650D02*
X10427325Y-12348174D01*
X10427325Y-12348174D02*
X10436848Y-12367222D01*
X10436848Y-12367222D02*
X10436848Y-12471984D01*
X10532086Y-12471984D02*
X10532086Y-12338650D01*
X10532086Y-12357698D02*
X10541610Y-12348174D01*
X10541610Y-12348174D02*
X10560658Y-12338650D01*
X10560658Y-12338650D02*
X10589229Y-12338650D01*
X10589229Y-12338650D02*
X10608277Y-12348174D01*
X10608277Y-12348174D02*
X10617801Y-12367222D01*
X10617801Y-12367222D02*
X10617801Y-12471984D01*
X10617801Y-12367222D02*
X10627325Y-12348174D01*
X10627325Y-12348174D02*
X10646372Y-12338650D01*
X10646372Y-12338650D02*
X10674944Y-12338650D01*
X10674944Y-12338650D02*
X10693991Y-12348174D01*
X10693991Y-12348174D02*
X10703515Y-12367222D01*
X10703515Y-12367222D02*
X10703515Y-12471984D01*
X11093991Y-12262460D02*
X10922563Y-12519603D01*
X11351134Y-12271984D02*
X11370182Y-12271984D01*
X11370182Y-12271984D02*
X11389229Y-12281508D01*
X11389229Y-12281508D02*
X11398753Y-12291031D01*
X11398753Y-12291031D02*
X11408277Y-12310079D01*
X11408277Y-12310079D02*
X11417801Y-12348174D01*
X11417801Y-12348174D02*
X11417801Y-12395793D01*
X11417801Y-12395793D02*
X11408277Y-12433888D01*
X11408277Y-12433888D02*
X11398753Y-12452936D01*
X11398753Y-12452936D02*
X11389229Y-12462460D01*
X11389229Y-12462460D02*
X11370182Y-12471984D01*
X11370182Y-12471984D02*
X11351134Y-12471984D01*
X11351134Y-12471984D02*
X11332086Y-12462460D01*
X11332086Y-12462460D02*
X11322563Y-12452936D01*
X11322563Y-12452936D02*
X11313039Y-12433888D01*
X11313039Y-12433888D02*
X11303515Y-12395793D01*
X11303515Y-12395793D02*
X11303515Y-12348174D01*
X11303515Y-12348174D02*
X11313039Y-12310079D01*
X11313039Y-12310079D02*
X11322563Y-12291031D01*
X11322563Y-12291031D02*
X11332086Y-12281508D01*
X11332086Y-12281508D02*
X11351134Y-12271984D01*
X11503515Y-12452936D02*
X11513039Y-12462460D01*
X11513039Y-12462460D02*
X11503515Y-12471984D01*
X11503515Y-12471984D02*
X11493991Y-12462460D01*
X11493991Y-12462460D02*
X11503515Y-12452936D01*
X11503515Y-12452936D02*
X11503515Y-12471984D01*
X11636848Y-12271984D02*
X11655896Y-12271984D01*
X11655896Y-12271984D02*
X11674944Y-12281508D01*
X11674944Y-12281508D02*
X11684467Y-12291031D01*
X11684467Y-12291031D02*
X11693991Y-12310079D01*
X11693991Y-12310079D02*
X11703515Y-12348174D01*
X11703515Y-12348174D02*
X11703515Y-12395793D01*
X11703515Y-12395793D02*
X11693991Y-12433888D01*
X11693991Y-12433888D02*
X11684467Y-12452936D01*
X11684467Y-12452936D02*
X11674944Y-12462460D01*
X11674944Y-12462460D02*
X11655896Y-12471984D01*
X11655896Y-12471984D02*
X11636848Y-12471984D01*
X11636848Y-12471984D02*
X11617801Y-12462460D01*
X11617801Y-12462460D02*
X11608277Y-12452936D01*
X11608277Y-12452936D02*
X11598753Y-12433888D01*
X11598753Y-12433888D02*
X11589229Y-12395793D01*
X11589229Y-12395793D02*
X11589229Y-12348174D01*
X11589229Y-12348174D02*
X11598753Y-12310079D01*
X11598753Y-12310079D02*
X11608277Y-12291031D01*
X11608277Y-12291031D02*
X11617801Y-12281508D01*
X11617801Y-12281508D02*
X11636848Y-12271984D01*
X11770182Y-12271984D02*
X11893991Y-12271984D01*
X11893991Y-12271984D02*
X11827325Y-12348174D01*
X11827325Y-12348174D02*
X11855896Y-12348174D01*
X11855896Y-12348174D02*
X11874944Y-12357698D01*
X11874944Y-12357698D02*
X11884467Y-12367222D01*
X11884467Y-12367222D02*
X11893991Y-12386269D01*
X11893991Y-12386269D02*
X11893991Y-12433888D01*
X11893991Y-12433888D02*
X11884467Y-12452936D01*
X11884467Y-12452936D02*
X11874944Y-12462460D01*
X11874944Y-12462460D02*
X11855896Y-12471984D01*
X11855896Y-12471984D02*
X11798753Y-12471984D01*
X11798753Y-12471984D02*
X11779706Y-12462460D01*
X11779706Y-12462460D02*
X11770182Y-12452936D01*
X12084467Y-12471984D02*
X11970182Y-12471984D01*
X12027325Y-12471984D02*
X12027325Y-12271984D01*
X12027325Y-12271984D02*
X12008277Y-12300555D01*
X12008277Y-12300555D02*
X11989229Y-12319603D01*
X11989229Y-12319603D02*
X11970182Y-12329127D01*
X12265420Y-12271984D02*
X12170182Y-12271984D01*
X12170182Y-12271984D02*
X12160658Y-12367222D01*
X12160658Y-12367222D02*
X12170182Y-12357698D01*
X12170182Y-12357698D02*
X12189229Y-12348174D01*
X12189229Y-12348174D02*
X12236848Y-12348174D01*
X12236848Y-12348174D02*
X12255896Y-12357698D01*
X12255896Y-12357698D02*
X12265420Y-12367222D01*
X12265420Y-12367222D02*
X12274944Y-12386269D01*
X12274944Y-12386269D02*
X12274944Y-12433888D01*
X12274944Y-12433888D02*
X12265420Y-12452936D01*
X12265420Y-12452936D02*
X12255896Y-12462460D01*
X12255896Y-12462460D02*
X12236848Y-12471984D01*
X12236848Y-12471984D02*
X12189229Y-12471984D01*
X12189229Y-12471984D02*
X12170182Y-12462460D01*
X12170182Y-12462460D02*
X12160658Y-12452936D01*
X12351134Y-12271984D02*
X12351134Y-12310079D01*
X12427325Y-12271984D02*
X12427325Y-12310079D01*
X12722563Y-12548174D02*
X12713039Y-12538650D01*
X12713039Y-12538650D02*
X12693991Y-12510079D01*
X12693991Y-12510079D02*
X12684468Y-12491031D01*
X12684468Y-12491031D02*
X12674944Y-12462460D01*
X12674944Y-12462460D02*
X12665420Y-12414841D01*
X12665420Y-12414841D02*
X12665420Y-12376746D01*
X12665420Y-12376746D02*
X12674944Y-12329127D01*
X12674944Y-12329127D02*
X12684468Y-12300555D01*
X12684468Y-12300555D02*
X12693991Y-12281508D01*
X12693991Y-12281508D02*
X12713039Y-12252936D01*
X12713039Y-12252936D02*
X12722563Y-12243412D01*
X12779706Y-12271984D02*
X12913039Y-12271984D01*
X12913039Y-12271984D02*
X12827325Y-12471984D01*
X13141610Y-12471984D02*
X13141610Y-12271984D01*
X13227325Y-12471984D02*
X13227325Y-12367222D01*
X13227325Y-12367222D02*
X13217801Y-12348174D01*
X13217801Y-12348174D02*
X13198753Y-12338650D01*
X13198753Y-12338650D02*
X13170182Y-12338650D01*
X13170182Y-12338650D02*
X13151134Y-12348174D01*
X13151134Y-12348174D02*
X13141610Y-12357698D01*
X13351134Y-12471984D02*
X13332087Y-12462460D01*
X13332087Y-12462460D02*
X13322563Y-12452936D01*
X13322563Y-12452936D02*
X13313039Y-12433888D01*
X13313039Y-12433888D02*
X13313039Y-12376746D01*
X13313039Y-12376746D02*
X13322563Y-12357698D01*
X13322563Y-12357698D02*
X13332087Y-12348174D01*
X13332087Y-12348174D02*
X13351134Y-12338650D01*
X13351134Y-12338650D02*
X13379706Y-12338650D01*
X13379706Y-12338650D02*
X13398753Y-12348174D01*
X13398753Y-12348174D02*
X13408277Y-12357698D01*
X13408277Y-12357698D02*
X13417801Y-12376746D01*
X13417801Y-12376746D02*
X13417801Y-12433888D01*
X13417801Y-12433888D02*
X13408277Y-12452936D01*
X13408277Y-12452936D02*
X13398753Y-12462460D01*
X13398753Y-12462460D02*
X13379706Y-12471984D01*
X13379706Y-12471984D02*
X13351134Y-12471984D01*
X13532087Y-12471984D02*
X13513039Y-12462460D01*
X13513039Y-12462460D02*
X13503515Y-12443412D01*
X13503515Y-12443412D02*
X13503515Y-12271984D01*
X13684468Y-12462460D02*
X13665420Y-12471984D01*
X13665420Y-12471984D02*
X13627325Y-12471984D01*
X13627325Y-12471984D02*
X13608277Y-12462460D01*
X13608277Y-12462460D02*
X13598753Y-12443412D01*
X13598753Y-12443412D02*
X13598753Y-12367222D01*
X13598753Y-12367222D02*
X13608277Y-12348174D01*
X13608277Y-12348174D02*
X13627325Y-12338650D01*
X13627325Y-12338650D02*
X13665420Y-12338650D01*
X13665420Y-12338650D02*
X13684468Y-12348174D01*
X13684468Y-12348174D02*
X13693991Y-12367222D01*
X13693991Y-12367222D02*
X13693991Y-12386269D01*
X13693991Y-12386269D02*
X13598753Y-12405317D01*
X13770182Y-12462460D02*
X13789230Y-12471984D01*
X13789230Y-12471984D02*
X13827325Y-12471984D01*
X13827325Y-12471984D02*
X13846372Y-12462460D01*
X13846372Y-12462460D02*
X13855896Y-12443412D01*
X13855896Y-12443412D02*
X13855896Y-12433888D01*
X13855896Y-12433888D02*
X13846372Y-12414841D01*
X13846372Y-12414841D02*
X13827325Y-12405317D01*
X13827325Y-12405317D02*
X13798753Y-12405317D01*
X13798753Y-12405317D02*
X13779706Y-12395793D01*
X13779706Y-12395793D02*
X13770182Y-12376746D01*
X13770182Y-12376746D02*
X13770182Y-12367222D01*
X13770182Y-12367222D02*
X13779706Y-12348174D01*
X13779706Y-12348174D02*
X13798753Y-12338650D01*
X13798753Y-12338650D02*
X13827325Y-12338650D01*
X13827325Y-12338650D02*
X13846372Y-12348174D01*
X13922563Y-12548174D02*
X13932087Y-12538650D01*
X13932087Y-12538650D02*
X13951134Y-12510079D01*
X13951134Y-12510079D02*
X13960658Y-12491031D01*
X13960658Y-12491031D02*
X13970182Y-12462460D01*
X13970182Y-12462460D02*
X13979706Y-12414841D01*
X13979706Y-12414841D02*
X13979706Y-12376746D01*
X13979706Y-12376746D02*
X13970182Y-12329127D01*
X13970182Y-12329127D02*
X13960658Y-12300555D01*
X13960658Y-12300555D02*
X13951134Y-12281508D01*
X13951134Y-12281508D02*
X13932087Y-12252936D01*
X13932087Y-12252936D02*
X13922563Y-12243412D01*
D12*
X9134320Y-12676320D02*
X9134320Y-12612680D01*
X9070680Y-12612680D01*
X9070680Y-12676320D01*
X9134320Y-12676320D01*
D11*
X9446372Y-12535984D02*
X9465420Y-12535984D01*
X9465420Y-12535984D02*
X9484467Y-12545508D01*
X9484467Y-12545508D02*
X9493991Y-12555031D01*
X9493991Y-12555031D02*
X9503515Y-12574079D01*
X9503515Y-12574079D02*
X9513039Y-12612174D01*
X9513039Y-12612174D02*
X9513039Y-12659793D01*
X9513039Y-12659793D02*
X9503515Y-12697888D01*
X9503515Y-12697888D02*
X9493991Y-12716936D01*
X9493991Y-12716936D02*
X9484467Y-12726460D01*
X9484467Y-12726460D02*
X9465420Y-12735984D01*
X9465420Y-12735984D02*
X9446372Y-12735984D01*
X9446372Y-12735984D02*
X9427324Y-12726460D01*
X9427324Y-12726460D02*
X9417801Y-12716936D01*
X9417801Y-12716936D02*
X9408277Y-12697888D01*
X9408277Y-12697888D02*
X9398753Y-12659793D01*
X9398753Y-12659793D02*
X9398753Y-12612174D01*
X9398753Y-12612174D02*
X9408277Y-12574079D01*
X9408277Y-12574079D02*
X9417801Y-12555031D01*
X9417801Y-12555031D02*
X9427324Y-12545508D01*
X9427324Y-12545508D02*
X9446372Y-12535984D01*
X9598753Y-12716936D02*
X9608277Y-12726460D01*
X9608277Y-12726460D02*
X9598753Y-12735984D01*
X9598753Y-12735984D02*
X9589229Y-12726460D01*
X9589229Y-12726460D02*
X9598753Y-12716936D01*
X9598753Y-12716936D02*
X9598753Y-12735984D01*
X9703515Y-12735984D02*
X9741610Y-12735984D01*
X9741610Y-12735984D02*
X9760658Y-12726460D01*
X9760658Y-12726460D02*
X9770182Y-12716936D01*
X9770182Y-12716936D02*
X9789229Y-12688365D01*
X9789229Y-12688365D02*
X9798753Y-12650269D01*
X9798753Y-12650269D02*
X9798753Y-12574079D01*
X9798753Y-12574079D02*
X9789229Y-12555031D01*
X9789229Y-12555031D02*
X9779705Y-12545508D01*
X9779705Y-12545508D02*
X9760658Y-12535984D01*
X9760658Y-12535984D02*
X9722563Y-12535984D01*
X9722563Y-12535984D02*
X9703515Y-12545508D01*
X9703515Y-12545508D02*
X9693991Y-12555031D01*
X9693991Y-12555031D02*
X9684467Y-12574079D01*
X9684467Y-12574079D02*
X9684467Y-12621698D01*
X9684467Y-12621698D02*
X9693991Y-12640746D01*
X9693991Y-12640746D02*
X9703515Y-12650269D01*
X9703515Y-12650269D02*
X9722563Y-12659793D01*
X9722563Y-12659793D02*
X9760658Y-12659793D01*
X9760658Y-12659793D02*
X9779705Y-12650269D01*
X9779705Y-12650269D02*
X9789229Y-12640746D01*
X9789229Y-12640746D02*
X9798753Y-12621698D01*
X9922563Y-12535984D02*
X9941610Y-12535984D01*
X9941610Y-12535984D02*
X9960658Y-12545508D01*
X9960658Y-12545508D02*
X9970182Y-12555031D01*
X9970182Y-12555031D02*
X9979705Y-12574079D01*
X9979705Y-12574079D02*
X9989229Y-12612174D01*
X9989229Y-12612174D02*
X9989229Y-12659793D01*
X9989229Y-12659793D02*
X9979705Y-12697888D01*
X9979705Y-12697888D02*
X9970182Y-12716936D01*
X9970182Y-12716936D02*
X9960658Y-12726460D01*
X9960658Y-12726460D02*
X9941610Y-12735984D01*
X9941610Y-12735984D02*
X9922563Y-12735984D01*
X9922563Y-12735984D02*
X9903515Y-12726460D01*
X9903515Y-12726460D02*
X9893991Y-12716936D01*
X9893991Y-12716936D02*
X9884467Y-12697888D01*
X9884467Y-12697888D02*
X9874944Y-12659793D01*
X9874944Y-12659793D02*
X9874944Y-12612174D01*
X9874944Y-12612174D02*
X9884467Y-12574079D01*
X9884467Y-12574079D02*
X9893991Y-12555031D01*
X9893991Y-12555031D02*
X9903515Y-12545508D01*
X9903515Y-12545508D02*
X9922563Y-12535984D01*
X10113039Y-12535984D02*
X10132086Y-12535984D01*
X10132086Y-12535984D02*
X10151134Y-12545508D01*
X10151134Y-12545508D02*
X10160658Y-12555031D01*
X10160658Y-12555031D02*
X10170182Y-12574079D01*
X10170182Y-12574079D02*
X10179705Y-12612174D01*
X10179705Y-12612174D02*
X10179705Y-12659793D01*
X10179705Y-12659793D02*
X10170182Y-12697888D01*
X10170182Y-12697888D02*
X10160658Y-12716936D01*
X10160658Y-12716936D02*
X10151134Y-12726460D01*
X10151134Y-12726460D02*
X10132086Y-12735984D01*
X10132086Y-12735984D02*
X10113039Y-12735984D01*
X10113039Y-12735984D02*
X10093991Y-12726460D01*
X10093991Y-12726460D02*
X10084467Y-12716936D01*
X10084467Y-12716936D02*
X10074944Y-12697888D01*
X10074944Y-12697888D02*
X10065420Y-12659793D01*
X10065420Y-12659793D02*
X10065420Y-12612174D01*
X10065420Y-12612174D02*
X10074944Y-12574079D01*
X10074944Y-12574079D02*
X10084467Y-12555031D01*
X10084467Y-12555031D02*
X10093991Y-12545508D01*
X10093991Y-12545508D02*
X10113039Y-12535984D01*
X10265420Y-12735984D02*
X10265420Y-12602650D01*
X10265420Y-12621698D02*
X10274944Y-12612174D01*
X10274944Y-12612174D02*
X10293991Y-12602650D01*
X10293991Y-12602650D02*
X10322563Y-12602650D01*
X10322563Y-12602650D02*
X10341610Y-12612174D01*
X10341610Y-12612174D02*
X10351134Y-12631222D01*
X10351134Y-12631222D02*
X10351134Y-12735984D01*
X10351134Y-12631222D02*
X10360658Y-12612174D01*
X10360658Y-12612174D02*
X10379705Y-12602650D01*
X10379705Y-12602650D02*
X10408277Y-12602650D01*
X10408277Y-12602650D02*
X10427325Y-12612174D01*
X10427325Y-12612174D02*
X10436848Y-12631222D01*
X10436848Y-12631222D02*
X10436848Y-12735984D01*
X10532086Y-12735984D02*
X10532086Y-12602650D01*
X10532086Y-12621698D02*
X10541610Y-12612174D01*
X10541610Y-12612174D02*
X10560658Y-12602650D01*
X10560658Y-12602650D02*
X10589229Y-12602650D01*
X10589229Y-12602650D02*
X10608277Y-12612174D01*
X10608277Y-12612174D02*
X10617801Y-12631222D01*
X10617801Y-12631222D02*
X10617801Y-12735984D01*
X10617801Y-12631222D02*
X10627325Y-12612174D01*
X10627325Y-12612174D02*
X10646372Y-12602650D01*
X10646372Y-12602650D02*
X10674944Y-12602650D01*
X10674944Y-12602650D02*
X10693991Y-12612174D01*
X10693991Y-12612174D02*
X10703515Y-12631222D01*
X10703515Y-12631222D02*
X10703515Y-12735984D01*
X11093991Y-12526460D02*
X10922563Y-12783603D01*
X11351134Y-12535984D02*
X11370182Y-12535984D01*
X11370182Y-12535984D02*
X11389229Y-12545508D01*
X11389229Y-12545508D02*
X11398753Y-12555031D01*
X11398753Y-12555031D02*
X11408277Y-12574079D01*
X11408277Y-12574079D02*
X11417801Y-12612174D01*
X11417801Y-12612174D02*
X11417801Y-12659793D01*
X11417801Y-12659793D02*
X11408277Y-12697888D01*
X11408277Y-12697888D02*
X11398753Y-12716936D01*
X11398753Y-12716936D02*
X11389229Y-12726460D01*
X11389229Y-12726460D02*
X11370182Y-12735984D01*
X11370182Y-12735984D02*
X11351134Y-12735984D01*
X11351134Y-12735984D02*
X11332086Y-12726460D01*
X11332086Y-12726460D02*
X11322563Y-12716936D01*
X11322563Y-12716936D02*
X11313039Y-12697888D01*
X11313039Y-12697888D02*
X11303515Y-12659793D01*
X11303515Y-12659793D02*
X11303515Y-12612174D01*
X11303515Y-12612174D02*
X11313039Y-12574079D01*
X11313039Y-12574079D02*
X11322563Y-12555031D01*
X11322563Y-12555031D02*
X11332086Y-12545508D01*
X11332086Y-12545508D02*
X11351134Y-12535984D01*
X11503515Y-12716936D02*
X11513039Y-12726460D01*
X11513039Y-12726460D02*
X11503515Y-12735984D01*
X11503515Y-12735984D02*
X11493991Y-12726460D01*
X11493991Y-12726460D02*
X11503515Y-12716936D01*
X11503515Y-12716936D02*
X11503515Y-12735984D01*
X11636848Y-12535984D02*
X11655896Y-12535984D01*
X11655896Y-12535984D02*
X11674944Y-12545508D01*
X11674944Y-12545508D02*
X11684467Y-12555031D01*
X11684467Y-12555031D02*
X11693991Y-12574079D01*
X11693991Y-12574079D02*
X11703515Y-12612174D01*
X11703515Y-12612174D02*
X11703515Y-12659793D01*
X11703515Y-12659793D02*
X11693991Y-12697888D01*
X11693991Y-12697888D02*
X11684467Y-12716936D01*
X11684467Y-12716936D02*
X11674944Y-12726460D01*
X11674944Y-12726460D02*
X11655896Y-12735984D01*
X11655896Y-12735984D02*
X11636848Y-12735984D01*
X11636848Y-12735984D02*
X11617801Y-12726460D01*
X11617801Y-12726460D02*
X11608277Y-12716936D01*
X11608277Y-12716936D02*
X11598753Y-12697888D01*
X11598753Y-12697888D02*
X11589229Y-12659793D01*
X11589229Y-12659793D02*
X11589229Y-12612174D01*
X11589229Y-12612174D02*
X11598753Y-12574079D01*
X11598753Y-12574079D02*
X11608277Y-12555031D01*
X11608277Y-12555031D02*
X11617801Y-12545508D01*
X11617801Y-12545508D02*
X11636848Y-12535984D01*
X11770182Y-12535984D02*
X11893991Y-12535984D01*
X11893991Y-12535984D02*
X11827325Y-12612174D01*
X11827325Y-12612174D02*
X11855896Y-12612174D01*
X11855896Y-12612174D02*
X11874944Y-12621698D01*
X11874944Y-12621698D02*
X11884467Y-12631222D01*
X11884467Y-12631222D02*
X11893991Y-12650269D01*
X11893991Y-12650269D02*
X11893991Y-12697888D01*
X11893991Y-12697888D02*
X11884467Y-12716936D01*
X11884467Y-12716936D02*
X11874944Y-12726460D01*
X11874944Y-12726460D02*
X11855896Y-12735984D01*
X11855896Y-12735984D02*
X11798753Y-12735984D01*
X11798753Y-12735984D02*
X11779706Y-12726460D01*
X11779706Y-12726460D02*
X11770182Y-12716936D01*
X12074944Y-12535984D02*
X11979706Y-12535984D01*
X11979706Y-12535984D02*
X11970182Y-12631222D01*
X11970182Y-12631222D02*
X11979706Y-12621698D01*
X11979706Y-12621698D02*
X11998753Y-12612174D01*
X11998753Y-12612174D02*
X12046372Y-12612174D01*
X12046372Y-12612174D02*
X12065420Y-12621698D01*
X12065420Y-12621698D02*
X12074944Y-12631222D01*
X12074944Y-12631222D02*
X12084467Y-12650269D01*
X12084467Y-12650269D02*
X12084467Y-12697888D01*
X12084467Y-12697888D02*
X12074944Y-12716936D01*
X12074944Y-12716936D02*
X12065420Y-12726460D01*
X12065420Y-12726460D02*
X12046372Y-12735984D01*
X12046372Y-12735984D02*
X11998753Y-12735984D01*
X11998753Y-12735984D02*
X11979706Y-12726460D01*
X11979706Y-12726460D02*
X11970182Y-12716936D01*
X12255896Y-12602650D02*
X12255896Y-12735984D01*
X12208277Y-12526460D02*
X12160658Y-12669317D01*
X12160658Y-12669317D02*
X12284467Y-12669317D01*
X12351134Y-12535984D02*
X12351134Y-12574079D01*
X12427325Y-12535984D02*
X12427325Y-12574079D01*
X12722563Y-12812174D02*
X12713039Y-12802650D01*
X12713039Y-12802650D02*
X12693991Y-12774079D01*
X12693991Y-12774079D02*
X12684468Y-12755031D01*
X12684468Y-12755031D02*
X12674944Y-12726460D01*
X12674944Y-12726460D02*
X12665420Y-12678841D01*
X12665420Y-12678841D02*
X12665420Y-12640746D01*
X12665420Y-12640746D02*
X12674944Y-12593127D01*
X12674944Y-12593127D02*
X12684468Y-12564555D01*
X12684468Y-12564555D02*
X12693991Y-12545508D01*
X12693991Y-12545508D02*
X12713039Y-12516936D01*
X12713039Y-12516936D02*
X12722563Y-12507412D01*
X12779706Y-12535984D02*
X12903515Y-12535984D01*
X12903515Y-12535984D02*
X12836848Y-12612174D01*
X12836848Y-12612174D02*
X12865420Y-12612174D01*
X12865420Y-12612174D02*
X12884468Y-12621698D01*
X12884468Y-12621698D02*
X12893991Y-12631222D01*
X12893991Y-12631222D02*
X12903515Y-12650269D01*
X12903515Y-12650269D02*
X12903515Y-12697888D01*
X12903515Y-12697888D02*
X12893991Y-12716936D01*
X12893991Y-12716936D02*
X12884468Y-12726460D01*
X12884468Y-12726460D02*
X12865420Y-12735984D01*
X12865420Y-12735984D02*
X12808277Y-12735984D01*
X12808277Y-12735984D02*
X12789229Y-12726460D01*
X12789229Y-12726460D02*
X12779706Y-12716936D01*
X12998753Y-12735984D02*
X13036848Y-12735984D01*
X13036848Y-12735984D02*
X13055896Y-12726460D01*
X13055896Y-12726460D02*
X13065420Y-12716936D01*
X13065420Y-12716936D02*
X13084468Y-12688365D01*
X13084468Y-12688365D02*
X13093991Y-12650269D01*
X13093991Y-12650269D02*
X13093991Y-12574079D01*
X13093991Y-12574079D02*
X13084468Y-12555031D01*
X13084468Y-12555031D02*
X13074944Y-12545508D01*
X13074944Y-12545508D02*
X13055896Y-12535984D01*
X13055896Y-12535984D02*
X13017801Y-12535984D01*
X13017801Y-12535984D02*
X12998753Y-12545508D01*
X12998753Y-12545508D02*
X12989229Y-12555031D01*
X12989229Y-12555031D02*
X12979706Y-12574079D01*
X12979706Y-12574079D02*
X12979706Y-12621698D01*
X12979706Y-12621698D02*
X12989229Y-12640746D01*
X12989229Y-12640746D02*
X12998753Y-12650269D01*
X12998753Y-12650269D02*
X13017801Y-12659793D01*
X13017801Y-12659793D02*
X13055896Y-12659793D01*
X13055896Y-12659793D02*
X13074944Y-12650269D01*
X13074944Y-12650269D02*
X13084468Y-12640746D01*
X13084468Y-12640746D02*
X13093991Y-12621698D01*
X13332087Y-12735984D02*
X13332087Y-12535984D01*
X13417801Y-12735984D02*
X13417801Y-12631222D01*
X13417801Y-12631222D02*
X13408277Y-12612174D01*
X13408277Y-12612174D02*
X13389230Y-12602650D01*
X13389230Y-12602650D02*
X13360658Y-12602650D01*
X13360658Y-12602650D02*
X13341610Y-12612174D01*
X13341610Y-12612174D02*
X13332087Y-12621698D01*
X13541610Y-12735984D02*
X13522563Y-12726460D01*
X13522563Y-12726460D02*
X13513039Y-12716936D01*
X13513039Y-12716936D02*
X13503515Y-12697888D01*
X13503515Y-12697888D02*
X13503515Y-12640746D01*
X13503515Y-12640746D02*
X13513039Y-12621698D01*
X13513039Y-12621698D02*
X13522563Y-12612174D01*
X13522563Y-12612174D02*
X13541610Y-12602650D01*
X13541610Y-12602650D02*
X13570182Y-12602650D01*
X13570182Y-12602650D02*
X13589230Y-12612174D01*
X13589230Y-12612174D02*
X13598753Y-12621698D01*
X13598753Y-12621698D02*
X13608277Y-12640746D01*
X13608277Y-12640746D02*
X13608277Y-12697888D01*
X13608277Y-12697888D02*
X13598753Y-12716936D01*
X13598753Y-12716936D02*
X13589230Y-12726460D01*
X13589230Y-12726460D02*
X13570182Y-12735984D01*
X13570182Y-12735984D02*
X13541610Y-12735984D01*
X13722563Y-12735984D02*
X13703515Y-12726460D01*
X13703515Y-12726460D02*
X13693991Y-12707412D01*
X13693991Y-12707412D02*
X13693991Y-12535984D01*
X13874944Y-12726460D02*
X13855896Y-12735984D01*
X13855896Y-12735984D02*
X13817801Y-12735984D01*
X13817801Y-12735984D02*
X13798753Y-12726460D01*
X13798753Y-12726460D02*
X13789230Y-12707412D01*
X13789230Y-12707412D02*
X13789230Y-12631222D01*
X13789230Y-12631222D02*
X13798753Y-12612174D01*
X13798753Y-12612174D02*
X13817801Y-12602650D01*
X13817801Y-12602650D02*
X13855896Y-12602650D01*
X13855896Y-12602650D02*
X13874944Y-12612174D01*
X13874944Y-12612174D02*
X13884468Y-12631222D01*
X13884468Y-12631222D02*
X13884468Y-12650269D01*
X13884468Y-12650269D02*
X13789230Y-12669317D01*
X13960658Y-12726460D02*
X13979706Y-12735984D01*
X13979706Y-12735984D02*
X14017801Y-12735984D01*
X14017801Y-12735984D02*
X14036849Y-12726460D01*
X14036849Y-12726460D02*
X14046372Y-12707412D01*
X14046372Y-12707412D02*
X14046372Y-12697888D01*
X14046372Y-12697888D02*
X14036849Y-12678841D01*
X14036849Y-12678841D02*
X14017801Y-12669317D01*
X14017801Y-12669317D02*
X13989230Y-12669317D01*
X13989230Y-12669317D02*
X13970182Y-12659793D01*
X13970182Y-12659793D02*
X13960658Y-12640746D01*
X13960658Y-12640746D02*
X13960658Y-12631222D01*
X13960658Y-12631222D02*
X13970182Y-12612174D01*
X13970182Y-12612174D02*
X13989230Y-12602650D01*
X13989230Y-12602650D02*
X14017801Y-12602650D01*
X14017801Y-12602650D02*
X14036849Y-12612174D01*
X14113039Y-12812174D02*
X14122563Y-12802650D01*
X14122563Y-12802650D02*
X14141611Y-12774079D01*
X14141611Y-12774079D02*
X14151134Y-12755031D01*
X14151134Y-12755031D02*
X14160658Y-12726460D01*
X14160658Y-12726460D02*
X14170182Y-12678841D01*
X14170182Y-12678841D02*
X14170182Y-12640746D01*
X14170182Y-12640746D02*
X14160658Y-12593127D01*
X14160658Y-12593127D02*
X14151134Y-12564555D01*
X14151134Y-12564555D02*
X14141611Y-12545508D01*
X14141611Y-12545508D02*
X14122563Y-12516936D01*
X14122563Y-12516936D02*
X14113039Y-12507412D01*
D12*
X9097500Y-12958500D02*
X9147500Y-12908500D01*
X9097500Y-12858500D01*
X9047500Y-12908500D01*
X9097500Y-12958500D01*
D11*
X9513039Y-12999984D02*
X9398753Y-12999984D01*
X9455896Y-12999984D02*
X9455896Y-12799984D01*
X9455896Y-12799984D02*
X9436848Y-12828555D01*
X9436848Y-12828555D02*
X9417801Y-12847603D01*
X9417801Y-12847603D02*
X9398753Y-12857127D01*
X9598753Y-12980936D02*
X9608277Y-12990460D01*
X9608277Y-12990460D02*
X9598753Y-12999984D01*
X9598753Y-12999984D02*
X9589229Y-12990460D01*
X9589229Y-12990460D02*
X9598753Y-12980936D01*
X9598753Y-12980936D02*
X9598753Y-12999984D01*
X9732086Y-12799984D02*
X9751134Y-12799984D01*
X9751134Y-12799984D02*
X9770182Y-12809508D01*
X9770182Y-12809508D02*
X9779705Y-12819031D01*
X9779705Y-12819031D02*
X9789229Y-12838079D01*
X9789229Y-12838079D02*
X9798753Y-12876174D01*
X9798753Y-12876174D02*
X9798753Y-12923793D01*
X9798753Y-12923793D02*
X9789229Y-12961888D01*
X9789229Y-12961888D02*
X9779705Y-12980936D01*
X9779705Y-12980936D02*
X9770182Y-12990460D01*
X9770182Y-12990460D02*
X9751134Y-12999984D01*
X9751134Y-12999984D02*
X9732086Y-12999984D01*
X9732086Y-12999984D02*
X9713039Y-12990460D01*
X9713039Y-12990460D02*
X9703515Y-12980936D01*
X9703515Y-12980936D02*
X9693991Y-12961888D01*
X9693991Y-12961888D02*
X9684467Y-12923793D01*
X9684467Y-12923793D02*
X9684467Y-12876174D01*
X9684467Y-12876174D02*
X9693991Y-12838079D01*
X9693991Y-12838079D02*
X9703515Y-12819031D01*
X9703515Y-12819031D02*
X9713039Y-12809508D01*
X9713039Y-12809508D02*
X9732086Y-12799984D01*
X9922563Y-12799984D02*
X9941610Y-12799984D01*
X9941610Y-12799984D02*
X9960658Y-12809508D01*
X9960658Y-12809508D02*
X9970182Y-12819031D01*
X9970182Y-12819031D02*
X9979705Y-12838079D01*
X9979705Y-12838079D02*
X9989229Y-12876174D01*
X9989229Y-12876174D02*
X9989229Y-12923793D01*
X9989229Y-12923793D02*
X9979705Y-12961888D01*
X9979705Y-12961888D02*
X9970182Y-12980936D01*
X9970182Y-12980936D02*
X9960658Y-12990460D01*
X9960658Y-12990460D02*
X9941610Y-12999984D01*
X9941610Y-12999984D02*
X9922563Y-12999984D01*
X9922563Y-12999984D02*
X9903515Y-12990460D01*
X9903515Y-12990460D02*
X9893991Y-12980936D01*
X9893991Y-12980936D02*
X9884467Y-12961888D01*
X9884467Y-12961888D02*
X9874944Y-12923793D01*
X9874944Y-12923793D02*
X9874944Y-12876174D01*
X9874944Y-12876174D02*
X9884467Y-12838079D01*
X9884467Y-12838079D02*
X9893991Y-12819031D01*
X9893991Y-12819031D02*
X9903515Y-12809508D01*
X9903515Y-12809508D02*
X9922563Y-12799984D01*
X10113039Y-12799984D02*
X10132086Y-12799984D01*
X10132086Y-12799984D02*
X10151134Y-12809508D01*
X10151134Y-12809508D02*
X10160658Y-12819031D01*
X10160658Y-12819031D02*
X10170182Y-12838079D01*
X10170182Y-12838079D02*
X10179705Y-12876174D01*
X10179705Y-12876174D02*
X10179705Y-12923793D01*
X10179705Y-12923793D02*
X10170182Y-12961888D01*
X10170182Y-12961888D02*
X10160658Y-12980936D01*
X10160658Y-12980936D02*
X10151134Y-12990460D01*
X10151134Y-12990460D02*
X10132086Y-12999984D01*
X10132086Y-12999984D02*
X10113039Y-12999984D01*
X10113039Y-12999984D02*
X10093991Y-12990460D01*
X10093991Y-12990460D02*
X10084467Y-12980936D01*
X10084467Y-12980936D02*
X10074944Y-12961888D01*
X10074944Y-12961888D02*
X10065420Y-12923793D01*
X10065420Y-12923793D02*
X10065420Y-12876174D01*
X10065420Y-12876174D02*
X10074944Y-12838079D01*
X10074944Y-12838079D02*
X10084467Y-12819031D01*
X10084467Y-12819031D02*
X10093991Y-12809508D01*
X10093991Y-12809508D02*
X10113039Y-12799984D01*
X10265420Y-12999984D02*
X10265420Y-12866650D01*
X10265420Y-12885698D02*
X10274944Y-12876174D01*
X10274944Y-12876174D02*
X10293991Y-12866650D01*
X10293991Y-12866650D02*
X10322563Y-12866650D01*
X10322563Y-12866650D02*
X10341610Y-12876174D01*
X10341610Y-12876174D02*
X10351134Y-12895222D01*
X10351134Y-12895222D02*
X10351134Y-12999984D01*
X10351134Y-12895222D02*
X10360658Y-12876174D01*
X10360658Y-12876174D02*
X10379705Y-12866650D01*
X10379705Y-12866650D02*
X10408277Y-12866650D01*
X10408277Y-12866650D02*
X10427325Y-12876174D01*
X10427325Y-12876174D02*
X10436848Y-12895222D01*
X10436848Y-12895222D02*
X10436848Y-12999984D01*
X10532086Y-12999984D02*
X10532086Y-12866650D01*
X10532086Y-12885698D02*
X10541610Y-12876174D01*
X10541610Y-12876174D02*
X10560658Y-12866650D01*
X10560658Y-12866650D02*
X10589229Y-12866650D01*
X10589229Y-12866650D02*
X10608277Y-12876174D01*
X10608277Y-12876174D02*
X10617801Y-12895222D01*
X10617801Y-12895222D02*
X10617801Y-12999984D01*
X10617801Y-12895222D02*
X10627325Y-12876174D01*
X10627325Y-12876174D02*
X10646372Y-12866650D01*
X10646372Y-12866650D02*
X10674944Y-12866650D01*
X10674944Y-12866650D02*
X10693991Y-12876174D01*
X10693991Y-12876174D02*
X10703515Y-12895222D01*
X10703515Y-12895222D02*
X10703515Y-12999984D01*
X11093991Y-12790460D02*
X10922563Y-13047603D01*
X11351134Y-12799984D02*
X11370182Y-12799984D01*
X11370182Y-12799984D02*
X11389229Y-12809508D01*
X11389229Y-12809508D02*
X11398753Y-12819031D01*
X11398753Y-12819031D02*
X11408277Y-12838079D01*
X11408277Y-12838079D02*
X11417801Y-12876174D01*
X11417801Y-12876174D02*
X11417801Y-12923793D01*
X11417801Y-12923793D02*
X11408277Y-12961888D01*
X11408277Y-12961888D02*
X11398753Y-12980936D01*
X11398753Y-12980936D02*
X11389229Y-12990460D01*
X11389229Y-12990460D02*
X11370182Y-12999984D01*
X11370182Y-12999984D02*
X11351134Y-12999984D01*
X11351134Y-12999984D02*
X11332086Y-12990460D01*
X11332086Y-12990460D02*
X11322563Y-12980936D01*
X11322563Y-12980936D02*
X11313039Y-12961888D01*
X11313039Y-12961888D02*
X11303515Y-12923793D01*
X11303515Y-12923793D02*
X11303515Y-12876174D01*
X11303515Y-12876174D02*
X11313039Y-12838079D01*
X11313039Y-12838079D02*
X11322563Y-12819031D01*
X11322563Y-12819031D02*
X11332086Y-12809508D01*
X11332086Y-12809508D02*
X11351134Y-12799984D01*
X11503515Y-12980936D02*
X11513039Y-12990460D01*
X11513039Y-12990460D02*
X11503515Y-12999984D01*
X11503515Y-12999984D02*
X11493991Y-12990460D01*
X11493991Y-12990460D02*
X11503515Y-12980936D01*
X11503515Y-12980936D02*
X11503515Y-12999984D01*
X11636848Y-12799984D02*
X11655896Y-12799984D01*
X11655896Y-12799984D02*
X11674944Y-12809508D01*
X11674944Y-12809508D02*
X11684467Y-12819031D01*
X11684467Y-12819031D02*
X11693991Y-12838079D01*
X11693991Y-12838079D02*
X11703515Y-12876174D01*
X11703515Y-12876174D02*
X11703515Y-12923793D01*
X11703515Y-12923793D02*
X11693991Y-12961888D01*
X11693991Y-12961888D02*
X11684467Y-12980936D01*
X11684467Y-12980936D02*
X11674944Y-12990460D01*
X11674944Y-12990460D02*
X11655896Y-12999984D01*
X11655896Y-12999984D02*
X11636848Y-12999984D01*
X11636848Y-12999984D02*
X11617801Y-12990460D01*
X11617801Y-12990460D02*
X11608277Y-12980936D01*
X11608277Y-12980936D02*
X11598753Y-12961888D01*
X11598753Y-12961888D02*
X11589229Y-12923793D01*
X11589229Y-12923793D02*
X11589229Y-12876174D01*
X11589229Y-12876174D02*
X11598753Y-12838079D01*
X11598753Y-12838079D02*
X11608277Y-12819031D01*
X11608277Y-12819031D02*
X11617801Y-12809508D01*
X11617801Y-12809508D02*
X11636848Y-12799984D01*
X11770182Y-12799984D02*
X11893991Y-12799984D01*
X11893991Y-12799984D02*
X11827325Y-12876174D01*
X11827325Y-12876174D02*
X11855896Y-12876174D01*
X11855896Y-12876174D02*
X11874944Y-12885698D01*
X11874944Y-12885698D02*
X11884467Y-12895222D01*
X11884467Y-12895222D02*
X11893991Y-12914269D01*
X11893991Y-12914269D02*
X11893991Y-12961888D01*
X11893991Y-12961888D02*
X11884467Y-12980936D01*
X11884467Y-12980936D02*
X11874944Y-12990460D01*
X11874944Y-12990460D02*
X11855896Y-12999984D01*
X11855896Y-12999984D02*
X11798753Y-12999984D01*
X11798753Y-12999984D02*
X11779706Y-12990460D01*
X11779706Y-12990460D02*
X11770182Y-12980936D01*
X11989229Y-12999984D02*
X12027325Y-12999984D01*
X12027325Y-12999984D02*
X12046372Y-12990460D01*
X12046372Y-12990460D02*
X12055896Y-12980936D01*
X12055896Y-12980936D02*
X12074944Y-12952365D01*
X12074944Y-12952365D02*
X12084467Y-12914269D01*
X12084467Y-12914269D02*
X12084467Y-12838079D01*
X12084467Y-12838079D02*
X12074944Y-12819031D01*
X12074944Y-12819031D02*
X12065420Y-12809508D01*
X12065420Y-12809508D02*
X12046372Y-12799984D01*
X12046372Y-12799984D02*
X12008277Y-12799984D01*
X12008277Y-12799984D02*
X11989229Y-12809508D01*
X11989229Y-12809508D02*
X11979706Y-12819031D01*
X11979706Y-12819031D02*
X11970182Y-12838079D01*
X11970182Y-12838079D02*
X11970182Y-12885698D01*
X11970182Y-12885698D02*
X11979706Y-12904746D01*
X11979706Y-12904746D02*
X11989229Y-12914269D01*
X11989229Y-12914269D02*
X12008277Y-12923793D01*
X12008277Y-12923793D02*
X12046372Y-12923793D01*
X12046372Y-12923793D02*
X12065420Y-12914269D01*
X12065420Y-12914269D02*
X12074944Y-12904746D01*
X12074944Y-12904746D02*
X12084467Y-12885698D01*
X12255896Y-12866650D02*
X12255896Y-12999984D01*
X12208277Y-12790460D02*
X12160658Y-12933317D01*
X12160658Y-12933317D02*
X12284467Y-12933317D01*
X12351134Y-12799984D02*
X12351134Y-12838079D01*
X12427325Y-12799984D02*
X12427325Y-12838079D01*
X12722563Y-13076174D02*
X12713039Y-13066650D01*
X12713039Y-13066650D02*
X12693991Y-13038079D01*
X12693991Y-13038079D02*
X12684468Y-13019031D01*
X12684468Y-13019031D02*
X12674944Y-12990460D01*
X12674944Y-12990460D02*
X12665420Y-12942841D01*
X12665420Y-12942841D02*
X12665420Y-12904746D01*
X12665420Y-12904746D02*
X12674944Y-12857127D01*
X12674944Y-12857127D02*
X12684468Y-12828555D01*
X12684468Y-12828555D02*
X12693991Y-12809508D01*
X12693991Y-12809508D02*
X12713039Y-12780936D01*
X12713039Y-12780936D02*
X12722563Y-12771412D01*
X12779706Y-12799984D02*
X12903515Y-12799984D01*
X12903515Y-12799984D02*
X12836848Y-12876174D01*
X12836848Y-12876174D02*
X12865420Y-12876174D01*
X12865420Y-12876174D02*
X12884468Y-12885698D01*
X12884468Y-12885698D02*
X12893991Y-12895222D01*
X12893991Y-12895222D02*
X12903515Y-12914269D01*
X12903515Y-12914269D02*
X12903515Y-12961888D01*
X12903515Y-12961888D02*
X12893991Y-12980936D01*
X12893991Y-12980936D02*
X12884468Y-12990460D01*
X12884468Y-12990460D02*
X12865420Y-12999984D01*
X12865420Y-12999984D02*
X12808277Y-12999984D01*
X12808277Y-12999984D02*
X12789229Y-12990460D01*
X12789229Y-12990460D02*
X12779706Y-12980936D01*
X13141610Y-12999984D02*
X13141610Y-12799984D01*
X13227325Y-12999984D02*
X13227325Y-12895222D01*
X13227325Y-12895222D02*
X13217801Y-12876174D01*
X13217801Y-12876174D02*
X13198753Y-12866650D01*
X13198753Y-12866650D02*
X13170182Y-12866650D01*
X13170182Y-12866650D02*
X13151134Y-12876174D01*
X13151134Y-12876174D02*
X13141610Y-12885698D01*
X13351134Y-12999984D02*
X13332087Y-12990460D01*
X13332087Y-12990460D02*
X13322563Y-12980936D01*
X13322563Y-12980936D02*
X13313039Y-12961888D01*
X13313039Y-12961888D02*
X13313039Y-12904746D01*
X13313039Y-12904746D02*
X13322563Y-12885698D01*
X13322563Y-12885698D02*
X13332087Y-12876174D01*
X13332087Y-12876174D02*
X13351134Y-12866650D01*
X13351134Y-12866650D02*
X13379706Y-12866650D01*
X13379706Y-12866650D02*
X13398753Y-12876174D01*
X13398753Y-12876174D02*
X13408277Y-12885698D01*
X13408277Y-12885698D02*
X13417801Y-12904746D01*
X13417801Y-12904746D02*
X13417801Y-12961888D01*
X13417801Y-12961888D02*
X13408277Y-12980936D01*
X13408277Y-12980936D02*
X13398753Y-12990460D01*
X13398753Y-12990460D02*
X13379706Y-12999984D01*
X13379706Y-12999984D02*
X13351134Y-12999984D01*
X13532087Y-12999984D02*
X13513039Y-12990460D01*
X13513039Y-12990460D02*
X13503515Y-12971412D01*
X13503515Y-12971412D02*
X13503515Y-12799984D01*
X13684468Y-12990460D02*
X13665420Y-12999984D01*
X13665420Y-12999984D02*
X13627325Y-12999984D01*
X13627325Y-12999984D02*
X13608277Y-12990460D01*
X13608277Y-12990460D02*
X13598753Y-12971412D01*
X13598753Y-12971412D02*
X13598753Y-12895222D01*
X13598753Y-12895222D02*
X13608277Y-12876174D01*
X13608277Y-12876174D02*
X13627325Y-12866650D01*
X13627325Y-12866650D02*
X13665420Y-12866650D01*
X13665420Y-12866650D02*
X13684468Y-12876174D01*
X13684468Y-12876174D02*
X13693991Y-12895222D01*
X13693991Y-12895222D02*
X13693991Y-12914269D01*
X13693991Y-12914269D02*
X13598753Y-12933317D01*
X13770182Y-12990460D02*
X13789230Y-12999984D01*
X13789230Y-12999984D02*
X13827325Y-12999984D01*
X13827325Y-12999984D02*
X13846372Y-12990460D01*
X13846372Y-12990460D02*
X13855896Y-12971412D01*
X13855896Y-12971412D02*
X13855896Y-12961888D01*
X13855896Y-12961888D02*
X13846372Y-12942841D01*
X13846372Y-12942841D02*
X13827325Y-12933317D01*
X13827325Y-12933317D02*
X13798753Y-12933317D01*
X13798753Y-12933317D02*
X13779706Y-12923793D01*
X13779706Y-12923793D02*
X13770182Y-12904746D01*
X13770182Y-12904746D02*
X13770182Y-12895222D01*
X13770182Y-12895222D02*
X13779706Y-12876174D01*
X13779706Y-12876174D02*
X13798753Y-12866650D01*
X13798753Y-12866650D02*
X13827325Y-12866650D01*
X13827325Y-12866650D02*
X13846372Y-12876174D01*
X13922563Y-13076174D02*
X13932087Y-13066650D01*
X13932087Y-13066650D02*
X13951134Y-13038079D01*
X13951134Y-13038079D02*
X13960658Y-13019031D01*
X13960658Y-13019031D02*
X13970182Y-12990460D01*
X13970182Y-12990460D02*
X13979706Y-12942841D01*
X13979706Y-12942841D02*
X13979706Y-12904746D01*
X13979706Y-12904746D02*
X13970182Y-12857127D01*
X13970182Y-12857127D02*
X13960658Y-12828555D01*
X13960658Y-12828555D02*
X13951134Y-12809508D01*
X13951134Y-12809508D02*
X13932087Y-12780936D01*
X13932087Y-12780936D02*
X13922563Y-12771412D01*
D13*
X9037500Y-13117500D02*
X9147500Y-13227500D01*
X9147500Y-13117500D02*
X9037500Y-13227500D01*
X9147500Y-13172500D02*
G75*
G02*
X9037500Y-13172500I-55000J0D01*
G01*
X9037500Y-13172500D02*
G75*
G02*
X9147500Y-13172500I55000J0D01*
G01*
D11*
X9513039Y-13263984D02*
X9398753Y-13263984D01*
X9455896Y-13263984D02*
X9455896Y-13063984D01*
X9455896Y-13063984D02*
X9436848Y-13092555D01*
X9436848Y-13092555D02*
X9417801Y-13111603D01*
X9417801Y-13111603D02*
X9398753Y-13121127D01*
X9598753Y-13244936D02*
X9608277Y-13254460D01*
X9608277Y-13254460D02*
X9598753Y-13263984D01*
X9598753Y-13263984D02*
X9589229Y-13254460D01*
X9589229Y-13254460D02*
X9598753Y-13244936D01*
X9598753Y-13244936D02*
X9598753Y-13263984D01*
X9798753Y-13263984D02*
X9684467Y-13263984D01*
X9741610Y-13263984D02*
X9741610Y-13063984D01*
X9741610Y-13063984D02*
X9722563Y-13092555D01*
X9722563Y-13092555D02*
X9703515Y-13111603D01*
X9703515Y-13111603D02*
X9684467Y-13121127D01*
X9922563Y-13063984D02*
X9941610Y-13063984D01*
X9941610Y-13063984D02*
X9960658Y-13073508D01*
X9960658Y-13073508D02*
X9970182Y-13083031D01*
X9970182Y-13083031D02*
X9979705Y-13102079D01*
X9979705Y-13102079D02*
X9989229Y-13140174D01*
X9989229Y-13140174D02*
X9989229Y-13187793D01*
X9989229Y-13187793D02*
X9979705Y-13225888D01*
X9979705Y-13225888D02*
X9970182Y-13244936D01*
X9970182Y-13244936D02*
X9960658Y-13254460D01*
X9960658Y-13254460D02*
X9941610Y-13263984D01*
X9941610Y-13263984D02*
X9922563Y-13263984D01*
X9922563Y-13263984D02*
X9903515Y-13254460D01*
X9903515Y-13254460D02*
X9893991Y-13244936D01*
X9893991Y-13244936D02*
X9884467Y-13225888D01*
X9884467Y-13225888D02*
X9874944Y-13187793D01*
X9874944Y-13187793D02*
X9874944Y-13140174D01*
X9874944Y-13140174D02*
X9884467Y-13102079D01*
X9884467Y-13102079D02*
X9893991Y-13083031D01*
X9893991Y-13083031D02*
X9903515Y-13073508D01*
X9903515Y-13073508D02*
X9922563Y-13063984D01*
X10113039Y-13063984D02*
X10132086Y-13063984D01*
X10132086Y-13063984D02*
X10151134Y-13073508D01*
X10151134Y-13073508D02*
X10160658Y-13083031D01*
X10160658Y-13083031D02*
X10170182Y-13102079D01*
X10170182Y-13102079D02*
X10179705Y-13140174D01*
X10179705Y-13140174D02*
X10179705Y-13187793D01*
X10179705Y-13187793D02*
X10170182Y-13225888D01*
X10170182Y-13225888D02*
X10160658Y-13244936D01*
X10160658Y-13244936D02*
X10151134Y-13254460D01*
X10151134Y-13254460D02*
X10132086Y-13263984D01*
X10132086Y-13263984D02*
X10113039Y-13263984D01*
X10113039Y-13263984D02*
X10093991Y-13254460D01*
X10093991Y-13254460D02*
X10084467Y-13244936D01*
X10084467Y-13244936D02*
X10074944Y-13225888D01*
X10074944Y-13225888D02*
X10065420Y-13187793D01*
X10065420Y-13187793D02*
X10065420Y-13140174D01*
X10065420Y-13140174D02*
X10074944Y-13102079D01*
X10074944Y-13102079D02*
X10084467Y-13083031D01*
X10084467Y-13083031D02*
X10093991Y-13073508D01*
X10093991Y-13073508D02*
X10113039Y-13063984D01*
X10265420Y-13263984D02*
X10265420Y-13130650D01*
X10265420Y-13149698D02*
X10274944Y-13140174D01*
X10274944Y-13140174D02*
X10293991Y-13130650D01*
X10293991Y-13130650D02*
X10322563Y-13130650D01*
X10322563Y-13130650D02*
X10341610Y-13140174D01*
X10341610Y-13140174D02*
X10351134Y-13159222D01*
X10351134Y-13159222D02*
X10351134Y-13263984D01*
X10351134Y-13159222D02*
X10360658Y-13140174D01*
X10360658Y-13140174D02*
X10379705Y-13130650D01*
X10379705Y-13130650D02*
X10408277Y-13130650D01*
X10408277Y-13130650D02*
X10427325Y-13140174D01*
X10427325Y-13140174D02*
X10436848Y-13159222D01*
X10436848Y-13159222D02*
X10436848Y-13263984D01*
X10532086Y-13263984D02*
X10532086Y-13130650D01*
X10532086Y-13149698D02*
X10541610Y-13140174D01*
X10541610Y-13140174D02*
X10560658Y-13130650D01*
X10560658Y-13130650D02*
X10589229Y-13130650D01*
X10589229Y-13130650D02*
X10608277Y-13140174D01*
X10608277Y-13140174D02*
X10617801Y-13159222D01*
X10617801Y-13159222D02*
X10617801Y-13263984D01*
X10617801Y-13159222D02*
X10627325Y-13140174D01*
X10627325Y-13140174D02*
X10646372Y-13130650D01*
X10646372Y-13130650D02*
X10674944Y-13130650D01*
X10674944Y-13130650D02*
X10693991Y-13140174D01*
X10693991Y-13140174D02*
X10703515Y-13159222D01*
X10703515Y-13159222D02*
X10703515Y-13263984D01*
X11093991Y-13054460D02*
X10922563Y-13311603D01*
X11351134Y-13063984D02*
X11370182Y-13063984D01*
X11370182Y-13063984D02*
X11389229Y-13073508D01*
X11389229Y-13073508D02*
X11398753Y-13083031D01*
X11398753Y-13083031D02*
X11408277Y-13102079D01*
X11408277Y-13102079D02*
X11417801Y-13140174D01*
X11417801Y-13140174D02*
X11417801Y-13187793D01*
X11417801Y-13187793D02*
X11408277Y-13225888D01*
X11408277Y-13225888D02*
X11398753Y-13244936D01*
X11398753Y-13244936D02*
X11389229Y-13254460D01*
X11389229Y-13254460D02*
X11370182Y-13263984D01*
X11370182Y-13263984D02*
X11351134Y-13263984D01*
X11351134Y-13263984D02*
X11332086Y-13254460D01*
X11332086Y-13254460D02*
X11322563Y-13244936D01*
X11322563Y-13244936D02*
X11313039Y-13225888D01*
X11313039Y-13225888D02*
X11303515Y-13187793D01*
X11303515Y-13187793D02*
X11303515Y-13140174D01*
X11303515Y-13140174D02*
X11313039Y-13102079D01*
X11313039Y-13102079D02*
X11322563Y-13083031D01*
X11322563Y-13083031D02*
X11332086Y-13073508D01*
X11332086Y-13073508D02*
X11351134Y-13063984D01*
X11503515Y-13244936D02*
X11513039Y-13254460D01*
X11513039Y-13254460D02*
X11503515Y-13263984D01*
X11503515Y-13263984D02*
X11493991Y-13254460D01*
X11493991Y-13254460D02*
X11503515Y-13244936D01*
X11503515Y-13244936D02*
X11503515Y-13263984D01*
X11636848Y-13063984D02*
X11655896Y-13063984D01*
X11655896Y-13063984D02*
X11674944Y-13073508D01*
X11674944Y-13073508D02*
X11684467Y-13083031D01*
X11684467Y-13083031D02*
X11693991Y-13102079D01*
X11693991Y-13102079D02*
X11703515Y-13140174D01*
X11703515Y-13140174D02*
X11703515Y-13187793D01*
X11703515Y-13187793D02*
X11693991Y-13225888D01*
X11693991Y-13225888D02*
X11684467Y-13244936D01*
X11684467Y-13244936D02*
X11674944Y-13254460D01*
X11674944Y-13254460D02*
X11655896Y-13263984D01*
X11655896Y-13263984D02*
X11636848Y-13263984D01*
X11636848Y-13263984D02*
X11617801Y-13254460D01*
X11617801Y-13254460D02*
X11608277Y-13244936D01*
X11608277Y-13244936D02*
X11598753Y-13225888D01*
X11598753Y-13225888D02*
X11589229Y-13187793D01*
X11589229Y-13187793D02*
X11589229Y-13140174D01*
X11589229Y-13140174D02*
X11598753Y-13102079D01*
X11598753Y-13102079D02*
X11608277Y-13083031D01*
X11608277Y-13083031D02*
X11617801Y-13073508D01*
X11617801Y-13073508D02*
X11636848Y-13063984D01*
X11874944Y-13130650D02*
X11874944Y-13263984D01*
X11827325Y-13054460D02*
X11779706Y-13197317D01*
X11779706Y-13197317D02*
X11903515Y-13197317D01*
X11960658Y-13063984D02*
X12084467Y-13063984D01*
X12084467Y-13063984D02*
X12017801Y-13140174D01*
X12017801Y-13140174D02*
X12046372Y-13140174D01*
X12046372Y-13140174D02*
X12065420Y-13149698D01*
X12065420Y-13149698D02*
X12074944Y-13159222D01*
X12074944Y-13159222D02*
X12084467Y-13178269D01*
X12084467Y-13178269D02*
X12084467Y-13225888D01*
X12084467Y-13225888D02*
X12074944Y-13244936D01*
X12074944Y-13244936D02*
X12065420Y-13254460D01*
X12065420Y-13254460D02*
X12046372Y-13263984D01*
X12046372Y-13263984D02*
X11989229Y-13263984D01*
X11989229Y-13263984D02*
X11970182Y-13254460D01*
X11970182Y-13254460D02*
X11960658Y-13244936D01*
X12151134Y-13063984D02*
X12274944Y-13063984D01*
X12274944Y-13063984D02*
X12208277Y-13140174D01*
X12208277Y-13140174D02*
X12236848Y-13140174D01*
X12236848Y-13140174D02*
X12255896Y-13149698D01*
X12255896Y-13149698D02*
X12265420Y-13159222D01*
X12265420Y-13159222D02*
X12274944Y-13178269D01*
X12274944Y-13178269D02*
X12274944Y-13225888D01*
X12274944Y-13225888D02*
X12265420Y-13244936D01*
X12265420Y-13244936D02*
X12255896Y-13254460D01*
X12255896Y-13254460D02*
X12236848Y-13263984D01*
X12236848Y-13263984D02*
X12179706Y-13263984D01*
X12179706Y-13263984D02*
X12160658Y-13254460D01*
X12160658Y-13254460D02*
X12151134Y-13244936D01*
X12351134Y-13063984D02*
X12351134Y-13102079D01*
X12427325Y-13063984D02*
X12427325Y-13102079D01*
X12722563Y-13340174D02*
X12713039Y-13330650D01*
X12713039Y-13330650D02*
X12693991Y-13302079D01*
X12693991Y-13302079D02*
X12684468Y-13283031D01*
X12684468Y-13283031D02*
X12674944Y-13254460D01*
X12674944Y-13254460D02*
X12665420Y-13206841D01*
X12665420Y-13206841D02*
X12665420Y-13168746D01*
X12665420Y-13168746D02*
X12674944Y-13121127D01*
X12674944Y-13121127D02*
X12684468Y-13092555D01*
X12684468Y-13092555D02*
X12693991Y-13073508D01*
X12693991Y-13073508D02*
X12713039Y-13044936D01*
X12713039Y-13044936D02*
X12722563Y-13035412D01*
X12884468Y-13130650D02*
X12884468Y-13263984D01*
X12836848Y-13054460D02*
X12789229Y-13197317D01*
X12789229Y-13197317D02*
X12913039Y-13197317D01*
X13141610Y-13263984D02*
X13141610Y-13063984D01*
X13227325Y-13263984D02*
X13227325Y-13159222D01*
X13227325Y-13159222D02*
X13217801Y-13140174D01*
X13217801Y-13140174D02*
X13198753Y-13130650D01*
X13198753Y-13130650D02*
X13170182Y-13130650D01*
X13170182Y-13130650D02*
X13151134Y-13140174D01*
X13151134Y-13140174D02*
X13141610Y-13149698D01*
X13351134Y-13263984D02*
X13332087Y-13254460D01*
X13332087Y-13254460D02*
X13322563Y-13244936D01*
X13322563Y-13244936D02*
X13313039Y-13225888D01*
X13313039Y-13225888D02*
X13313039Y-13168746D01*
X13313039Y-13168746D02*
X13322563Y-13149698D01*
X13322563Y-13149698D02*
X13332087Y-13140174D01*
X13332087Y-13140174D02*
X13351134Y-13130650D01*
X13351134Y-13130650D02*
X13379706Y-13130650D01*
X13379706Y-13130650D02*
X13398753Y-13140174D01*
X13398753Y-13140174D02*
X13408277Y-13149698D01*
X13408277Y-13149698D02*
X13417801Y-13168746D01*
X13417801Y-13168746D02*
X13417801Y-13225888D01*
X13417801Y-13225888D02*
X13408277Y-13244936D01*
X13408277Y-13244936D02*
X13398753Y-13254460D01*
X13398753Y-13254460D02*
X13379706Y-13263984D01*
X13379706Y-13263984D02*
X13351134Y-13263984D01*
X13532087Y-13263984D02*
X13513039Y-13254460D01*
X13513039Y-13254460D02*
X13503515Y-13235412D01*
X13503515Y-13235412D02*
X13503515Y-13063984D01*
X13684468Y-13254460D02*
X13665420Y-13263984D01*
X13665420Y-13263984D02*
X13627325Y-13263984D01*
X13627325Y-13263984D02*
X13608277Y-13254460D01*
X13608277Y-13254460D02*
X13598753Y-13235412D01*
X13598753Y-13235412D02*
X13598753Y-13159222D01*
X13598753Y-13159222D02*
X13608277Y-13140174D01*
X13608277Y-13140174D02*
X13627325Y-13130650D01*
X13627325Y-13130650D02*
X13665420Y-13130650D01*
X13665420Y-13130650D02*
X13684468Y-13140174D01*
X13684468Y-13140174D02*
X13693991Y-13159222D01*
X13693991Y-13159222D02*
X13693991Y-13178269D01*
X13693991Y-13178269D02*
X13598753Y-13197317D01*
X13770182Y-13254460D02*
X13789230Y-13263984D01*
X13789230Y-13263984D02*
X13827325Y-13263984D01*
X13827325Y-13263984D02*
X13846372Y-13254460D01*
X13846372Y-13254460D02*
X13855896Y-13235412D01*
X13855896Y-13235412D02*
X13855896Y-13225888D01*
X13855896Y-13225888D02*
X13846372Y-13206841D01*
X13846372Y-13206841D02*
X13827325Y-13197317D01*
X13827325Y-13197317D02*
X13798753Y-13197317D01*
X13798753Y-13197317D02*
X13779706Y-13187793D01*
X13779706Y-13187793D02*
X13770182Y-13168746D01*
X13770182Y-13168746D02*
X13770182Y-13159222D01*
X13770182Y-13159222D02*
X13779706Y-13140174D01*
X13779706Y-13140174D02*
X13798753Y-13130650D01*
X13798753Y-13130650D02*
X13827325Y-13130650D01*
X13827325Y-13130650D02*
X13846372Y-13140174D01*
X13922563Y-13340174D02*
X13932087Y-13330650D01*
X13932087Y-13330650D02*
X13951134Y-13302079D01*
X13951134Y-13302079D02*
X13960658Y-13283031D01*
X13960658Y-13283031D02*
X13970182Y-13254460D01*
X13970182Y-13254460D02*
X13979706Y-13206841D01*
X13979706Y-13206841D02*
X13979706Y-13168746D01*
X13979706Y-13168746D02*
X13970182Y-13121127D01*
X13970182Y-13121127D02*
X13960658Y-13092555D01*
X13960658Y-13092555D02*
X13951134Y-13073508D01*
X13951134Y-13073508D02*
X13932087Y-13044936D01*
X13932087Y-13044936D02*
X13922563Y-13035412D01*
D14*
X9022500Y-13374000D02*
X9147500Y-13499000D01*
X9147500Y-13374000D02*
X9022500Y-13499000D01*
X9085000Y-13374000D02*
X9085000Y-13499000D01*
X9022500Y-13436500D02*
X9147500Y-13436500D01*
D11*
X9513039Y-13527984D02*
X9398753Y-13527984D01*
X9455896Y-13527984D02*
X9455896Y-13327984D01*
X9455896Y-13327984D02*
X9436848Y-13356555D01*
X9436848Y-13356555D02*
X9417801Y-13375603D01*
X9417801Y-13375603D02*
X9398753Y-13385127D01*
X9598753Y-13508936D02*
X9608277Y-13518460D01*
X9608277Y-13518460D02*
X9598753Y-13527984D01*
X9598753Y-13527984D02*
X9589229Y-13518460D01*
X9589229Y-13518460D02*
X9598753Y-13508936D01*
X9598753Y-13508936D02*
X9598753Y-13527984D01*
X9684467Y-13347031D02*
X9693991Y-13337508D01*
X9693991Y-13337508D02*
X9713039Y-13327984D01*
X9713039Y-13327984D02*
X9760658Y-13327984D01*
X9760658Y-13327984D02*
X9779705Y-13337508D01*
X9779705Y-13337508D02*
X9789229Y-13347031D01*
X9789229Y-13347031D02*
X9798753Y-13366079D01*
X9798753Y-13366079D02*
X9798753Y-13385127D01*
X9798753Y-13385127D02*
X9789229Y-13413698D01*
X9789229Y-13413698D02*
X9674944Y-13527984D01*
X9674944Y-13527984D02*
X9798753Y-13527984D01*
X9979705Y-13327984D02*
X9884467Y-13327984D01*
X9884467Y-13327984D02*
X9874944Y-13423222D01*
X9874944Y-13423222D02*
X9884467Y-13413698D01*
X9884467Y-13413698D02*
X9903515Y-13404174D01*
X9903515Y-13404174D02*
X9951134Y-13404174D01*
X9951134Y-13404174D02*
X9970182Y-13413698D01*
X9970182Y-13413698D02*
X9979705Y-13423222D01*
X9979705Y-13423222D02*
X9989229Y-13442269D01*
X9989229Y-13442269D02*
X9989229Y-13489888D01*
X9989229Y-13489888D02*
X9979705Y-13508936D01*
X9979705Y-13508936D02*
X9970182Y-13518460D01*
X9970182Y-13518460D02*
X9951134Y-13527984D01*
X9951134Y-13527984D02*
X9903515Y-13527984D01*
X9903515Y-13527984D02*
X9884467Y-13518460D01*
X9884467Y-13518460D02*
X9874944Y-13508936D01*
X10113039Y-13327984D02*
X10132086Y-13327984D01*
X10132086Y-13327984D02*
X10151134Y-13337508D01*
X10151134Y-13337508D02*
X10160658Y-13347031D01*
X10160658Y-13347031D02*
X10170182Y-13366079D01*
X10170182Y-13366079D02*
X10179705Y-13404174D01*
X10179705Y-13404174D02*
X10179705Y-13451793D01*
X10179705Y-13451793D02*
X10170182Y-13489888D01*
X10170182Y-13489888D02*
X10160658Y-13508936D01*
X10160658Y-13508936D02*
X10151134Y-13518460D01*
X10151134Y-13518460D02*
X10132086Y-13527984D01*
X10132086Y-13527984D02*
X10113039Y-13527984D01*
X10113039Y-13527984D02*
X10093991Y-13518460D01*
X10093991Y-13518460D02*
X10084467Y-13508936D01*
X10084467Y-13508936D02*
X10074944Y-13489888D01*
X10074944Y-13489888D02*
X10065420Y-13451793D01*
X10065420Y-13451793D02*
X10065420Y-13404174D01*
X10065420Y-13404174D02*
X10074944Y-13366079D01*
X10074944Y-13366079D02*
X10084467Y-13347031D01*
X10084467Y-13347031D02*
X10093991Y-13337508D01*
X10093991Y-13337508D02*
X10113039Y-13327984D01*
X10265420Y-13527984D02*
X10265420Y-13394650D01*
X10265420Y-13413698D02*
X10274944Y-13404174D01*
X10274944Y-13404174D02*
X10293991Y-13394650D01*
X10293991Y-13394650D02*
X10322563Y-13394650D01*
X10322563Y-13394650D02*
X10341610Y-13404174D01*
X10341610Y-13404174D02*
X10351134Y-13423222D01*
X10351134Y-13423222D02*
X10351134Y-13527984D01*
X10351134Y-13423222D02*
X10360658Y-13404174D01*
X10360658Y-13404174D02*
X10379705Y-13394650D01*
X10379705Y-13394650D02*
X10408277Y-13394650D01*
X10408277Y-13394650D02*
X10427325Y-13404174D01*
X10427325Y-13404174D02*
X10436848Y-13423222D01*
X10436848Y-13423222D02*
X10436848Y-13527984D01*
X10532086Y-13527984D02*
X10532086Y-13394650D01*
X10532086Y-13413698D02*
X10541610Y-13404174D01*
X10541610Y-13404174D02*
X10560658Y-13394650D01*
X10560658Y-13394650D02*
X10589229Y-13394650D01*
X10589229Y-13394650D02*
X10608277Y-13404174D01*
X10608277Y-13404174D02*
X10617801Y-13423222D01*
X10617801Y-13423222D02*
X10617801Y-13527984D01*
X10617801Y-13423222D02*
X10627325Y-13404174D01*
X10627325Y-13404174D02*
X10646372Y-13394650D01*
X10646372Y-13394650D02*
X10674944Y-13394650D01*
X10674944Y-13394650D02*
X10693991Y-13404174D01*
X10693991Y-13404174D02*
X10703515Y-13423222D01*
X10703515Y-13423222D02*
X10703515Y-13527984D01*
X11093991Y-13318460D02*
X10922563Y-13575603D01*
X11351134Y-13327984D02*
X11370182Y-13327984D01*
X11370182Y-13327984D02*
X11389229Y-13337508D01*
X11389229Y-13337508D02*
X11398753Y-13347031D01*
X11398753Y-13347031D02*
X11408277Y-13366079D01*
X11408277Y-13366079D02*
X11417801Y-13404174D01*
X11417801Y-13404174D02*
X11417801Y-13451793D01*
X11417801Y-13451793D02*
X11408277Y-13489888D01*
X11408277Y-13489888D02*
X11398753Y-13508936D01*
X11398753Y-13508936D02*
X11389229Y-13518460D01*
X11389229Y-13518460D02*
X11370182Y-13527984D01*
X11370182Y-13527984D02*
X11351134Y-13527984D01*
X11351134Y-13527984D02*
X11332086Y-13518460D01*
X11332086Y-13518460D02*
X11322563Y-13508936D01*
X11322563Y-13508936D02*
X11313039Y-13489888D01*
X11313039Y-13489888D02*
X11303515Y-13451793D01*
X11303515Y-13451793D02*
X11303515Y-13404174D01*
X11303515Y-13404174D02*
X11313039Y-13366079D01*
X11313039Y-13366079D02*
X11322563Y-13347031D01*
X11322563Y-13347031D02*
X11332086Y-13337508D01*
X11332086Y-13337508D02*
X11351134Y-13327984D01*
X11503515Y-13508936D02*
X11513039Y-13518460D01*
X11513039Y-13518460D02*
X11503515Y-13527984D01*
X11503515Y-13527984D02*
X11493991Y-13518460D01*
X11493991Y-13518460D02*
X11503515Y-13508936D01*
X11503515Y-13508936D02*
X11503515Y-13527984D01*
X11636848Y-13327984D02*
X11655896Y-13327984D01*
X11655896Y-13327984D02*
X11674944Y-13337508D01*
X11674944Y-13337508D02*
X11684467Y-13347031D01*
X11684467Y-13347031D02*
X11693991Y-13366079D01*
X11693991Y-13366079D02*
X11703515Y-13404174D01*
X11703515Y-13404174D02*
X11703515Y-13451793D01*
X11703515Y-13451793D02*
X11693991Y-13489888D01*
X11693991Y-13489888D02*
X11684467Y-13508936D01*
X11684467Y-13508936D02*
X11674944Y-13518460D01*
X11674944Y-13518460D02*
X11655896Y-13527984D01*
X11655896Y-13527984D02*
X11636848Y-13527984D01*
X11636848Y-13527984D02*
X11617801Y-13518460D01*
X11617801Y-13518460D02*
X11608277Y-13508936D01*
X11608277Y-13508936D02*
X11598753Y-13489888D01*
X11598753Y-13489888D02*
X11589229Y-13451793D01*
X11589229Y-13451793D02*
X11589229Y-13404174D01*
X11589229Y-13404174D02*
X11598753Y-13366079D01*
X11598753Y-13366079D02*
X11608277Y-13347031D01*
X11608277Y-13347031D02*
X11617801Y-13337508D01*
X11617801Y-13337508D02*
X11636848Y-13327984D01*
X11874944Y-13394650D02*
X11874944Y-13527984D01*
X11827325Y-13318460D02*
X11779706Y-13461317D01*
X11779706Y-13461317D02*
X11903515Y-13461317D01*
X11989229Y-13527984D02*
X12027325Y-13527984D01*
X12027325Y-13527984D02*
X12046372Y-13518460D01*
X12046372Y-13518460D02*
X12055896Y-13508936D01*
X12055896Y-13508936D02*
X12074944Y-13480365D01*
X12074944Y-13480365D02*
X12084467Y-13442269D01*
X12084467Y-13442269D02*
X12084467Y-13366079D01*
X12084467Y-13366079D02*
X12074944Y-13347031D01*
X12074944Y-13347031D02*
X12065420Y-13337508D01*
X12065420Y-13337508D02*
X12046372Y-13327984D01*
X12046372Y-13327984D02*
X12008277Y-13327984D01*
X12008277Y-13327984D02*
X11989229Y-13337508D01*
X11989229Y-13337508D02*
X11979706Y-13347031D01*
X11979706Y-13347031D02*
X11970182Y-13366079D01*
X11970182Y-13366079D02*
X11970182Y-13413698D01*
X11970182Y-13413698D02*
X11979706Y-13432746D01*
X11979706Y-13432746D02*
X11989229Y-13442269D01*
X11989229Y-13442269D02*
X12008277Y-13451793D01*
X12008277Y-13451793D02*
X12046372Y-13451793D01*
X12046372Y-13451793D02*
X12065420Y-13442269D01*
X12065420Y-13442269D02*
X12074944Y-13432746D01*
X12074944Y-13432746D02*
X12084467Y-13413698D01*
X12160658Y-13347031D02*
X12170182Y-13337508D01*
X12170182Y-13337508D02*
X12189229Y-13327984D01*
X12189229Y-13327984D02*
X12236848Y-13327984D01*
X12236848Y-13327984D02*
X12255896Y-13337508D01*
X12255896Y-13337508D02*
X12265420Y-13347031D01*
X12265420Y-13347031D02*
X12274944Y-13366079D01*
X12274944Y-13366079D02*
X12274944Y-13385127D01*
X12274944Y-13385127D02*
X12265420Y-13413698D01*
X12265420Y-13413698D02*
X12151134Y-13527984D01*
X12151134Y-13527984D02*
X12274944Y-13527984D01*
X12351134Y-13327984D02*
X12351134Y-13366079D01*
X12427325Y-13327984D02*
X12427325Y-13366079D01*
X12722563Y-13604174D02*
X12713039Y-13594650D01*
X12713039Y-13594650D02*
X12693991Y-13566079D01*
X12693991Y-13566079D02*
X12684468Y-13547031D01*
X12684468Y-13547031D02*
X12674944Y-13518460D01*
X12674944Y-13518460D02*
X12665420Y-13470841D01*
X12665420Y-13470841D02*
X12665420Y-13432746D01*
X12665420Y-13432746D02*
X12674944Y-13385127D01*
X12674944Y-13385127D02*
X12684468Y-13356555D01*
X12684468Y-13356555D02*
X12693991Y-13337508D01*
X12693991Y-13337508D02*
X12713039Y-13308936D01*
X12713039Y-13308936D02*
X12722563Y-13299412D01*
X12789229Y-13347031D02*
X12798753Y-13337508D01*
X12798753Y-13337508D02*
X12817801Y-13327984D01*
X12817801Y-13327984D02*
X12865420Y-13327984D01*
X12865420Y-13327984D02*
X12884468Y-13337508D01*
X12884468Y-13337508D02*
X12893991Y-13347031D01*
X12893991Y-13347031D02*
X12903515Y-13366079D01*
X12903515Y-13366079D02*
X12903515Y-13385127D01*
X12903515Y-13385127D02*
X12893991Y-13413698D01*
X12893991Y-13413698D02*
X12779706Y-13527984D01*
X12779706Y-13527984D02*
X12903515Y-13527984D01*
X13141610Y-13527984D02*
X13141610Y-13327984D01*
X13227325Y-13527984D02*
X13227325Y-13423222D01*
X13227325Y-13423222D02*
X13217801Y-13404174D01*
X13217801Y-13404174D02*
X13198753Y-13394650D01*
X13198753Y-13394650D02*
X13170182Y-13394650D01*
X13170182Y-13394650D02*
X13151134Y-13404174D01*
X13151134Y-13404174D02*
X13141610Y-13413698D01*
X13351134Y-13527984D02*
X13332087Y-13518460D01*
X13332087Y-13518460D02*
X13322563Y-13508936D01*
X13322563Y-13508936D02*
X13313039Y-13489888D01*
X13313039Y-13489888D02*
X13313039Y-13432746D01*
X13313039Y-13432746D02*
X13322563Y-13413698D01*
X13322563Y-13413698D02*
X13332087Y-13404174D01*
X13332087Y-13404174D02*
X13351134Y-13394650D01*
X13351134Y-13394650D02*
X13379706Y-13394650D01*
X13379706Y-13394650D02*
X13398753Y-13404174D01*
X13398753Y-13404174D02*
X13408277Y-13413698D01*
X13408277Y-13413698D02*
X13417801Y-13432746D01*
X13417801Y-13432746D02*
X13417801Y-13489888D01*
X13417801Y-13489888D02*
X13408277Y-13508936D01*
X13408277Y-13508936D02*
X13398753Y-13518460D01*
X13398753Y-13518460D02*
X13379706Y-13527984D01*
X13379706Y-13527984D02*
X13351134Y-13527984D01*
X13532087Y-13527984D02*
X13513039Y-13518460D01*
X13513039Y-13518460D02*
X13503515Y-13499412D01*
X13503515Y-13499412D02*
X13503515Y-13327984D01*
X13684468Y-13518460D02*
X13665420Y-13527984D01*
X13665420Y-13527984D02*
X13627325Y-13527984D01*
X13627325Y-13527984D02*
X13608277Y-13518460D01*
X13608277Y-13518460D02*
X13598753Y-13499412D01*
X13598753Y-13499412D02*
X13598753Y-13423222D01*
X13598753Y-13423222D02*
X13608277Y-13404174D01*
X13608277Y-13404174D02*
X13627325Y-13394650D01*
X13627325Y-13394650D02*
X13665420Y-13394650D01*
X13665420Y-13394650D02*
X13684468Y-13404174D01*
X13684468Y-13404174D02*
X13693991Y-13423222D01*
X13693991Y-13423222D02*
X13693991Y-13442269D01*
X13693991Y-13442269D02*
X13598753Y-13461317D01*
X13770182Y-13518460D02*
X13789230Y-13527984D01*
X13789230Y-13527984D02*
X13827325Y-13527984D01*
X13827325Y-13527984D02*
X13846372Y-13518460D01*
X13846372Y-13518460D02*
X13855896Y-13499412D01*
X13855896Y-13499412D02*
X13855896Y-13489888D01*
X13855896Y-13489888D02*
X13846372Y-13470841D01*
X13846372Y-13470841D02*
X13827325Y-13461317D01*
X13827325Y-13461317D02*
X13798753Y-13461317D01*
X13798753Y-13461317D02*
X13779706Y-13451793D01*
X13779706Y-13451793D02*
X13770182Y-13432746D01*
X13770182Y-13432746D02*
X13770182Y-13423222D01*
X13770182Y-13423222D02*
X13779706Y-13404174D01*
X13779706Y-13404174D02*
X13798753Y-13394650D01*
X13798753Y-13394650D02*
X13827325Y-13394650D01*
X13827325Y-13394650D02*
X13846372Y-13404174D01*
X13922563Y-13604174D02*
X13932087Y-13594650D01*
X13932087Y-13594650D02*
X13951134Y-13566079D01*
X13951134Y-13566079D02*
X13960658Y-13547031D01*
X13960658Y-13547031D02*
X13970182Y-13518460D01*
X13970182Y-13518460D02*
X13979706Y-13470841D01*
X13979706Y-13470841D02*
X13979706Y-13432746D01*
X13979706Y-13432746D02*
X13970182Y-13385127D01*
X13970182Y-13385127D02*
X13960658Y-13356555D01*
X13960658Y-13356555D02*
X13951134Y-13337508D01*
X13951134Y-13337508D02*
X13932087Y-13308936D01*
X13932087Y-13308936D02*
X13922563Y-13299412D01*
M02*
