G04 #@! TF.GenerationSoftware,KiCad,Pcbnew,9.0.2*
G04 #@! TF.CreationDate,2025-07-09T03:39:24-04:00*
G04 #@! TF.ProjectId,FBT,4642542e-6b69-4636-9164-5f7063625858,rev?*
G04 #@! TF.SameCoordinates,Original*
G04 #@! TF.FileFunction,Soldermask,Bot*
G04 #@! TF.FilePolarity,Negative*
%FSLAX46Y46*%
G04 Gerber Fmt 4.6, Leading zero omitted, Abs format (unit mm)*
G04 Created by KiCad (PCBNEW 9.0.2) date 2025-07-09 03:39:24*
%MOMM*%
%LPD*%
G01*
G04 APERTURE LIST*
G04 Aperture macros list*
%AMRoundRect*
0 Rectangle with rounded corners*
0 $1 Rounding radius*
0 $2 $3 $4 $5 $6 $7 $8 $9 X,Y pos of 4 corners*
0 Add a 4 corners polygon primitive as box body*
4,1,4,$2,$3,$4,$5,$6,$7,$8,$9,$2,$3,0*
0 Add four circle primitives for the rounded corners*
1,1,$1+$1,$2,$3*
1,1,$1+$1,$4,$5*
1,1,$1+$1,$6,$7*
1,1,$1+$1,$8,$9*
0 Add four rect primitives between the rounded corners*
20,1,$1+$1,$2,$3,$4,$5,0*
20,1,$1+$1,$4,$5,$6,$7,0*
20,1,$1+$1,$6,$7,$8,$9,0*
20,1,$1+$1,$8,$9,$2,$3,0*%
%AMFreePoly0*
4,1,23,0.500000,-0.750000,0.000000,-0.750000,0.000000,-0.745722,-0.065263,-0.745722,-0.191342,-0.711940,-0.304381,-0.646677,-0.396677,-0.554381,-0.461940,-0.441342,-0.495722,-0.315263,-0.495722,-0.250000,-0.500000,-0.250000,-0.500000,0.250000,-0.495722,0.250000,-0.495722,0.315263,-0.461940,0.441342,-0.396677,0.554381,-0.304381,0.646677,-0.191342,0.711940,-0.065263,0.745722,0.000000,0.745722,
0.000000,0.750000,0.500000,0.750000,0.500000,-0.750000,0.500000,-0.750000,$1*%
%AMFreePoly1*
4,1,23,0.000000,0.745722,0.065263,0.745722,0.191342,0.711940,0.304381,0.646677,0.396677,0.554381,0.461940,0.441342,0.495722,0.315263,0.495722,0.250000,0.500000,0.250000,0.500000,-0.250000,0.495722,-0.250000,0.495722,-0.315263,0.461940,-0.441342,0.396677,-0.554381,0.304381,-0.646677,0.191342,-0.711940,0.065263,-0.745722,0.000000,-0.745722,0.000000,-0.750000,-0.500000,-0.750000,
-0.500000,0.750000,0.000000,0.750000,0.000000,0.745722,0.000000,0.745722,$1*%
G04 Aperture macros list end*
%ADD10R,1.700000X1.700000*%
%ADD11C,2.000000*%
%ADD12C,1.300000*%
%ADD13C,1.524000*%
%ADD14C,1.600000*%
%ADD15RoundRect,0.249999X-0.850001X-0.850001X0.850001X-0.850001X0.850001X0.850001X-0.850001X0.850001X0*%
%ADD16C,2.200000*%
%ADD17C,1.700000*%
%ADD18FreePoly0,270.000000*%
%ADD19FreePoly1,270.000000*%
%ADD20FreePoly0,180.000000*%
%ADD21FreePoly1,180.000000*%
G04 APERTURE END LIST*
G36*
X104350000Y-65300000D02*
G01*
X105850000Y-65300000D01*
X105850000Y-65600000D01*
X104350000Y-65600000D01*
X104350000Y-65300000D01*
G37*
G36*
X103750000Y-77750000D02*
G01*
X103450000Y-77750000D01*
X103450000Y-79250000D01*
X103750000Y-79250000D01*
X103750000Y-77750000D01*
G37*
D10*
X92600000Y-48500000D03*
D11*
X95100000Y-109800000D03*
X103300000Y-109800000D03*
D12*
X97200000Y-109800000D03*
X99200000Y-109800000D03*
X101200000Y-109800000D03*
D13*
X110120000Y-71620000D03*
X107580000Y-71620000D03*
X105040000Y-71620000D03*
X102500000Y-71620000D03*
X99960000Y-71620000D03*
X97420000Y-71620000D03*
X94880000Y-71620000D03*
X97420000Y-81780000D03*
X99960000Y-81780000D03*
X102500000Y-81780000D03*
X105040000Y-81780000D03*
X107580000Y-81780000D03*
D14*
X105900000Y-101855000D03*
X105900000Y-105855000D03*
X105900000Y-108855000D03*
X110300000Y-100855000D03*
D15*
X95680000Y-103000000D03*
D16*
X103300000Y-103000000D03*
D14*
X103600000Y-106100000D03*
X95980000Y-106100000D03*
D13*
X98200000Y-86900000D03*
X98200000Y-97300000D03*
X107400000Y-97200000D03*
X107400000Y-94700000D03*
X107400000Y-89500000D03*
X107400000Y-87000000D03*
D10*
X92800000Y-106375000D03*
D17*
X92800000Y-103835000D03*
D15*
X95680000Y-99800000D03*
D16*
X103300000Y-99800000D03*
D14*
X109900000Y-97110000D03*
X109900000Y-89490000D03*
D13*
X94920000Y-48510000D03*
X94920000Y-51050000D03*
X94920000Y-53590000D03*
X94920000Y-56130000D03*
X94920000Y-58670000D03*
X94920000Y-61210000D03*
X94920000Y-63750000D03*
X94880000Y-66290000D03*
X110120000Y-66290000D03*
X110120000Y-63750000D03*
X110120000Y-61210000D03*
X110120000Y-58670000D03*
X110120000Y-56130000D03*
X110120000Y-53590000D03*
X110120000Y-51050000D03*
X110120000Y-48510000D03*
X107580000Y-84300000D03*
X105040000Y-84300000D03*
X102500000Y-84300000D03*
X99960000Y-84300000D03*
X97420000Y-84300000D03*
D18*
X105100000Y-64800000D03*
D19*
X105100000Y-66100000D03*
D20*
X104250000Y-78500000D03*
D21*
X102950000Y-78500000D03*
M02*
