%TF.GenerationSoftware,KiCad,Pcbnew,9.0.2*%
%TF.CreationDate,2025-07-09T03:35:44-04:00*%
%TF.ProjectId,FBT,4642542e-6b69-4636-9164-5f7063625858,rev?*%
%TF.SameCoordinates,Original*%
%TF.FileFunction,Drillmap*%
%TF.FilePolarity,Positive*%
%FSLAX45Y45*%
G04 Gerber Fmt 4.5, Leading zero omitted, Abs format (unit mm)*
G04 Created by KiCad (PCBNEW 9.0.2) date 2025-07-09 03:35:44*
%MOMM*%
%LPD*%
G01*
G04 APERTURE LIST*
%ADD10C,0.050000*%
%ADD11C,0.200000*%
%ADD12C,0.150000*%
G04 APERTURE END LIST*
D10*
X16150000Y-6070000D02*
X17950000Y-6070000D01*
X17950000Y-12570000D01*
X16150000Y-12570000D01*
X16150000Y-6070000D01*
D11*
X11517010Y-12381941D02*
X13367010Y-12381941D01*
X13367010Y-14691941D01*
X11517010Y-14691941D01*
X11517010Y-12381941D01*
D10*
X9150000Y-4710000D02*
X11150000Y-4710000D01*
X11150000Y-11210000D01*
X9150000Y-11210000D01*
X9150000Y-4710000D01*
D11*
D12*
X10735000Y-10255500D02*
X10885000Y-10405500D01*
X10885000Y-10255500D02*
X10735000Y-10405500D01*
X10735000Y-10955500D02*
X10885000Y-11105500D01*
X10885000Y-10955500D02*
X10735000Y-11105500D01*
X11644510Y-12649941D02*
X11794510Y-12799941D01*
X11794510Y-12649941D02*
X11644510Y-12799941D01*
X12344510Y-12649941D02*
X12494510Y-12799941D01*
X12494510Y-12649941D02*
X12344510Y-12799941D01*
D11*
X9408277Y-15013425D02*
X9408277Y-14813425D01*
X9408277Y-14813425D02*
X9455896Y-14813425D01*
X9455896Y-14813425D02*
X9484467Y-14822949D01*
X9484467Y-14822949D02*
X9503515Y-14841996D01*
X9503515Y-14841996D02*
X9513039Y-14861044D01*
X9513039Y-14861044D02*
X9522563Y-14899139D01*
X9522563Y-14899139D02*
X9522563Y-14927711D01*
X9522563Y-14927711D02*
X9513039Y-14965806D01*
X9513039Y-14965806D02*
X9503515Y-14984853D01*
X9503515Y-14984853D02*
X9484467Y-15003901D01*
X9484467Y-15003901D02*
X9455896Y-15013425D01*
X9455896Y-15013425D02*
X9408277Y-15013425D01*
X9608277Y-15013425D02*
X9608277Y-14880092D01*
X9608277Y-14918187D02*
X9617801Y-14899139D01*
X9617801Y-14899139D02*
X9627324Y-14889615D01*
X9627324Y-14889615D02*
X9646372Y-14880092D01*
X9646372Y-14880092D02*
X9665420Y-14880092D01*
X9732086Y-15013425D02*
X9732086Y-14880092D01*
X9732086Y-14813425D02*
X9722563Y-14822949D01*
X9722563Y-14822949D02*
X9732086Y-14832473D01*
X9732086Y-14832473D02*
X9741610Y-14822949D01*
X9741610Y-14822949D02*
X9732086Y-14813425D01*
X9732086Y-14813425D02*
X9732086Y-14832473D01*
X9855896Y-15013425D02*
X9836848Y-15003901D01*
X9836848Y-15003901D02*
X9827324Y-14984853D01*
X9827324Y-14984853D02*
X9827324Y-14813425D01*
X9960658Y-15013425D02*
X9941610Y-15003901D01*
X9941610Y-15003901D02*
X9932086Y-14984853D01*
X9932086Y-14984853D02*
X9932086Y-14813425D01*
X10189229Y-15013425D02*
X10189229Y-14813425D01*
X10189229Y-14813425D02*
X10255896Y-14956282D01*
X10255896Y-14956282D02*
X10322563Y-14813425D01*
X10322563Y-14813425D02*
X10322563Y-15013425D01*
X10503515Y-15013425D02*
X10503515Y-14908663D01*
X10503515Y-14908663D02*
X10493991Y-14889615D01*
X10493991Y-14889615D02*
X10474944Y-14880092D01*
X10474944Y-14880092D02*
X10436848Y-14880092D01*
X10436848Y-14880092D02*
X10417801Y-14889615D01*
X10503515Y-15003901D02*
X10484467Y-15013425D01*
X10484467Y-15013425D02*
X10436848Y-15013425D01*
X10436848Y-15013425D02*
X10417801Y-15003901D01*
X10417801Y-15003901D02*
X10408277Y-14984853D01*
X10408277Y-14984853D02*
X10408277Y-14965806D01*
X10408277Y-14965806D02*
X10417801Y-14946758D01*
X10417801Y-14946758D02*
X10436848Y-14937234D01*
X10436848Y-14937234D02*
X10484467Y-14937234D01*
X10484467Y-14937234D02*
X10503515Y-14927711D01*
X10598753Y-14880092D02*
X10598753Y-15080092D01*
X10598753Y-14889615D02*
X10617801Y-14880092D01*
X10617801Y-14880092D02*
X10655896Y-14880092D01*
X10655896Y-14880092D02*
X10674944Y-14889615D01*
X10674944Y-14889615D02*
X10684467Y-14899139D01*
X10684467Y-14899139D02*
X10693991Y-14918187D01*
X10693991Y-14918187D02*
X10693991Y-14975330D01*
X10693991Y-14975330D02*
X10684467Y-14994377D01*
X10684467Y-14994377D02*
X10674944Y-15003901D01*
X10674944Y-15003901D02*
X10655896Y-15013425D01*
X10655896Y-15013425D02*
X10617801Y-15013425D01*
X10617801Y-15013425D02*
X10598753Y-15003901D01*
X10779705Y-14994377D02*
X10789229Y-15003901D01*
X10789229Y-15003901D02*
X10779705Y-15013425D01*
X10779705Y-15013425D02*
X10770182Y-15003901D01*
X10770182Y-15003901D02*
X10779705Y-14994377D01*
X10779705Y-14994377D02*
X10779705Y-15013425D01*
X10779705Y-14889615D02*
X10789229Y-14899139D01*
X10789229Y-14899139D02*
X10779705Y-14908663D01*
X10779705Y-14908663D02*
X10770182Y-14899139D01*
X10770182Y-14899139D02*
X10779705Y-14889615D01*
X10779705Y-14889615D02*
X10779705Y-14908663D01*
D12*
X8997500Y-15266941D02*
X9147500Y-15416941D01*
X9147500Y-15266941D02*
X8997500Y-15416941D01*
D11*
X9513039Y-15433425D02*
X9398753Y-15433425D01*
X9455896Y-15433425D02*
X9455896Y-15233425D01*
X9455896Y-15233425D02*
X9436848Y-15261996D01*
X9436848Y-15261996D02*
X9417801Y-15281044D01*
X9417801Y-15281044D02*
X9398753Y-15290568D01*
X9598753Y-15414377D02*
X9608277Y-15423901D01*
X9608277Y-15423901D02*
X9598753Y-15433425D01*
X9598753Y-15433425D02*
X9589229Y-15423901D01*
X9589229Y-15423901D02*
X9598753Y-15414377D01*
X9598753Y-15414377D02*
X9598753Y-15433425D01*
X9789229Y-15233425D02*
X9693991Y-15233425D01*
X9693991Y-15233425D02*
X9684467Y-15328663D01*
X9684467Y-15328663D02*
X9693991Y-15319139D01*
X9693991Y-15319139D02*
X9713039Y-15309615D01*
X9713039Y-15309615D02*
X9760658Y-15309615D01*
X9760658Y-15309615D02*
X9779705Y-15319139D01*
X9779705Y-15319139D02*
X9789229Y-15328663D01*
X9789229Y-15328663D02*
X9798753Y-15347711D01*
X9798753Y-15347711D02*
X9798753Y-15395330D01*
X9798753Y-15395330D02*
X9789229Y-15414377D01*
X9789229Y-15414377D02*
X9779705Y-15423901D01*
X9779705Y-15423901D02*
X9760658Y-15433425D01*
X9760658Y-15433425D02*
X9713039Y-15433425D01*
X9713039Y-15433425D02*
X9693991Y-15423901D01*
X9693991Y-15423901D02*
X9684467Y-15414377D01*
X9922563Y-15233425D02*
X9941610Y-15233425D01*
X9941610Y-15233425D02*
X9960658Y-15242949D01*
X9960658Y-15242949D02*
X9970182Y-15252473D01*
X9970182Y-15252473D02*
X9979705Y-15271520D01*
X9979705Y-15271520D02*
X9989229Y-15309615D01*
X9989229Y-15309615D02*
X9989229Y-15357234D01*
X9989229Y-15357234D02*
X9979705Y-15395330D01*
X9979705Y-15395330D02*
X9970182Y-15414377D01*
X9970182Y-15414377D02*
X9960658Y-15423901D01*
X9960658Y-15423901D02*
X9941610Y-15433425D01*
X9941610Y-15433425D02*
X9922563Y-15433425D01*
X9922563Y-15433425D02*
X9903515Y-15423901D01*
X9903515Y-15423901D02*
X9893991Y-15414377D01*
X9893991Y-15414377D02*
X9884467Y-15395330D01*
X9884467Y-15395330D02*
X9874944Y-15357234D01*
X9874944Y-15357234D02*
X9874944Y-15309615D01*
X9874944Y-15309615D02*
X9884467Y-15271520D01*
X9884467Y-15271520D02*
X9893991Y-15252473D01*
X9893991Y-15252473D02*
X9903515Y-15242949D01*
X9903515Y-15242949D02*
X9922563Y-15233425D01*
X10113039Y-15233425D02*
X10132086Y-15233425D01*
X10132086Y-15233425D02*
X10151134Y-15242949D01*
X10151134Y-15242949D02*
X10160658Y-15252473D01*
X10160658Y-15252473D02*
X10170182Y-15271520D01*
X10170182Y-15271520D02*
X10179705Y-15309615D01*
X10179705Y-15309615D02*
X10179705Y-15357234D01*
X10179705Y-15357234D02*
X10170182Y-15395330D01*
X10170182Y-15395330D02*
X10160658Y-15414377D01*
X10160658Y-15414377D02*
X10151134Y-15423901D01*
X10151134Y-15423901D02*
X10132086Y-15433425D01*
X10132086Y-15433425D02*
X10113039Y-15433425D01*
X10113039Y-15433425D02*
X10093991Y-15423901D01*
X10093991Y-15423901D02*
X10084467Y-15414377D01*
X10084467Y-15414377D02*
X10074944Y-15395330D01*
X10074944Y-15395330D02*
X10065420Y-15357234D01*
X10065420Y-15357234D02*
X10065420Y-15309615D01*
X10065420Y-15309615D02*
X10074944Y-15271520D01*
X10074944Y-15271520D02*
X10084467Y-15252473D01*
X10084467Y-15252473D02*
X10093991Y-15242949D01*
X10093991Y-15242949D02*
X10113039Y-15233425D01*
X10265420Y-15433425D02*
X10265420Y-15300092D01*
X10265420Y-15319139D02*
X10274944Y-15309615D01*
X10274944Y-15309615D02*
X10293991Y-15300092D01*
X10293991Y-15300092D02*
X10322563Y-15300092D01*
X10322563Y-15300092D02*
X10341610Y-15309615D01*
X10341610Y-15309615D02*
X10351134Y-15328663D01*
X10351134Y-15328663D02*
X10351134Y-15433425D01*
X10351134Y-15328663D02*
X10360658Y-15309615D01*
X10360658Y-15309615D02*
X10379705Y-15300092D01*
X10379705Y-15300092D02*
X10408277Y-15300092D01*
X10408277Y-15300092D02*
X10427325Y-15309615D01*
X10427325Y-15309615D02*
X10436848Y-15328663D01*
X10436848Y-15328663D02*
X10436848Y-15433425D01*
X10532086Y-15433425D02*
X10532086Y-15300092D01*
X10532086Y-15319139D02*
X10541610Y-15309615D01*
X10541610Y-15309615D02*
X10560658Y-15300092D01*
X10560658Y-15300092D02*
X10589229Y-15300092D01*
X10589229Y-15300092D02*
X10608277Y-15309615D01*
X10608277Y-15309615D02*
X10617801Y-15328663D01*
X10617801Y-15328663D02*
X10617801Y-15433425D01*
X10617801Y-15328663D02*
X10627325Y-15309615D01*
X10627325Y-15309615D02*
X10646372Y-15300092D01*
X10646372Y-15300092D02*
X10674944Y-15300092D01*
X10674944Y-15300092D02*
X10693991Y-15309615D01*
X10693991Y-15309615D02*
X10703515Y-15328663D01*
X10703515Y-15328663D02*
X10703515Y-15433425D01*
X11093991Y-15223901D02*
X10922563Y-15481044D01*
X11351134Y-15233425D02*
X11370182Y-15233425D01*
X11370182Y-15233425D02*
X11389229Y-15242949D01*
X11389229Y-15242949D02*
X11398753Y-15252473D01*
X11398753Y-15252473D02*
X11408277Y-15271520D01*
X11408277Y-15271520D02*
X11417801Y-15309615D01*
X11417801Y-15309615D02*
X11417801Y-15357234D01*
X11417801Y-15357234D02*
X11408277Y-15395330D01*
X11408277Y-15395330D02*
X11398753Y-15414377D01*
X11398753Y-15414377D02*
X11389229Y-15423901D01*
X11389229Y-15423901D02*
X11370182Y-15433425D01*
X11370182Y-15433425D02*
X11351134Y-15433425D01*
X11351134Y-15433425D02*
X11332086Y-15423901D01*
X11332086Y-15423901D02*
X11322563Y-15414377D01*
X11322563Y-15414377D02*
X11313039Y-15395330D01*
X11313039Y-15395330D02*
X11303515Y-15357234D01*
X11303515Y-15357234D02*
X11303515Y-15309615D01*
X11303515Y-15309615D02*
X11313039Y-15271520D01*
X11313039Y-15271520D02*
X11322563Y-15252473D01*
X11322563Y-15252473D02*
X11332086Y-15242949D01*
X11332086Y-15242949D02*
X11351134Y-15233425D01*
X11503515Y-15414377D02*
X11513039Y-15423901D01*
X11513039Y-15423901D02*
X11503515Y-15433425D01*
X11503515Y-15433425D02*
X11493991Y-15423901D01*
X11493991Y-15423901D02*
X11503515Y-15414377D01*
X11503515Y-15414377D02*
X11503515Y-15433425D01*
X11636848Y-15233425D02*
X11655896Y-15233425D01*
X11655896Y-15233425D02*
X11674944Y-15242949D01*
X11674944Y-15242949D02*
X11684467Y-15252473D01*
X11684467Y-15252473D02*
X11693991Y-15271520D01*
X11693991Y-15271520D02*
X11703515Y-15309615D01*
X11703515Y-15309615D02*
X11703515Y-15357234D01*
X11703515Y-15357234D02*
X11693991Y-15395330D01*
X11693991Y-15395330D02*
X11684467Y-15414377D01*
X11684467Y-15414377D02*
X11674944Y-15423901D01*
X11674944Y-15423901D02*
X11655896Y-15433425D01*
X11655896Y-15433425D02*
X11636848Y-15433425D01*
X11636848Y-15433425D02*
X11617801Y-15423901D01*
X11617801Y-15423901D02*
X11608277Y-15414377D01*
X11608277Y-15414377D02*
X11598753Y-15395330D01*
X11598753Y-15395330D02*
X11589229Y-15357234D01*
X11589229Y-15357234D02*
X11589229Y-15309615D01*
X11589229Y-15309615D02*
X11598753Y-15271520D01*
X11598753Y-15271520D02*
X11608277Y-15252473D01*
X11608277Y-15252473D02*
X11617801Y-15242949D01*
X11617801Y-15242949D02*
X11636848Y-15233425D01*
X11884467Y-15233425D02*
X11789229Y-15233425D01*
X11789229Y-15233425D02*
X11779706Y-15328663D01*
X11779706Y-15328663D02*
X11789229Y-15319139D01*
X11789229Y-15319139D02*
X11808277Y-15309615D01*
X11808277Y-15309615D02*
X11855896Y-15309615D01*
X11855896Y-15309615D02*
X11874944Y-15319139D01*
X11874944Y-15319139D02*
X11884467Y-15328663D01*
X11884467Y-15328663D02*
X11893991Y-15347711D01*
X11893991Y-15347711D02*
X11893991Y-15395330D01*
X11893991Y-15395330D02*
X11884467Y-15414377D01*
X11884467Y-15414377D02*
X11874944Y-15423901D01*
X11874944Y-15423901D02*
X11855896Y-15433425D01*
X11855896Y-15433425D02*
X11808277Y-15433425D01*
X11808277Y-15433425D02*
X11789229Y-15423901D01*
X11789229Y-15423901D02*
X11779706Y-15414377D01*
X11989229Y-15433425D02*
X12027325Y-15433425D01*
X12027325Y-15433425D02*
X12046372Y-15423901D01*
X12046372Y-15423901D02*
X12055896Y-15414377D01*
X12055896Y-15414377D02*
X12074944Y-15385806D01*
X12074944Y-15385806D02*
X12084467Y-15347711D01*
X12084467Y-15347711D02*
X12084467Y-15271520D01*
X12084467Y-15271520D02*
X12074944Y-15252473D01*
X12074944Y-15252473D02*
X12065420Y-15242949D01*
X12065420Y-15242949D02*
X12046372Y-15233425D01*
X12046372Y-15233425D02*
X12008277Y-15233425D01*
X12008277Y-15233425D02*
X11989229Y-15242949D01*
X11989229Y-15242949D02*
X11979706Y-15252473D01*
X11979706Y-15252473D02*
X11970182Y-15271520D01*
X11970182Y-15271520D02*
X11970182Y-15319139D01*
X11970182Y-15319139D02*
X11979706Y-15338187D01*
X11979706Y-15338187D02*
X11989229Y-15347711D01*
X11989229Y-15347711D02*
X12008277Y-15357234D01*
X12008277Y-15357234D02*
X12046372Y-15357234D01*
X12046372Y-15357234D02*
X12065420Y-15347711D01*
X12065420Y-15347711D02*
X12074944Y-15338187D01*
X12074944Y-15338187D02*
X12084467Y-15319139D01*
X12274944Y-15433425D02*
X12160658Y-15433425D01*
X12217801Y-15433425D02*
X12217801Y-15233425D01*
X12217801Y-15233425D02*
X12198753Y-15261996D01*
X12198753Y-15261996D02*
X12179706Y-15281044D01*
X12179706Y-15281044D02*
X12160658Y-15290568D01*
X12351134Y-15233425D02*
X12351134Y-15271520D01*
X12427325Y-15233425D02*
X12427325Y-15271520D01*
X12722563Y-15509615D02*
X12713039Y-15500092D01*
X12713039Y-15500092D02*
X12693991Y-15471520D01*
X12693991Y-15471520D02*
X12684468Y-15452473D01*
X12684468Y-15452473D02*
X12674944Y-15423901D01*
X12674944Y-15423901D02*
X12665420Y-15376282D01*
X12665420Y-15376282D02*
X12665420Y-15338187D01*
X12665420Y-15338187D02*
X12674944Y-15290568D01*
X12674944Y-15290568D02*
X12684468Y-15261996D01*
X12684468Y-15261996D02*
X12693991Y-15242949D01*
X12693991Y-15242949D02*
X12713039Y-15214377D01*
X12713039Y-15214377D02*
X12722563Y-15204853D01*
X12884468Y-15300092D02*
X12884468Y-15433425D01*
X12836848Y-15223901D02*
X12789229Y-15366758D01*
X12789229Y-15366758D02*
X12913039Y-15366758D01*
X13141610Y-15433425D02*
X13141610Y-15233425D01*
X13227325Y-15433425D02*
X13227325Y-15328663D01*
X13227325Y-15328663D02*
X13217801Y-15309615D01*
X13217801Y-15309615D02*
X13198753Y-15300092D01*
X13198753Y-15300092D02*
X13170182Y-15300092D01*
X13170182Y-15300092D02*
X13151134Y-15309615D01*
X13151134Y-15309615D02*
X13141610Y-15319139D01*
X13351134Y-15433425D02*
X13332087Y-15423901D01*
X13332087Y-15423901D02*
X13322563Y-15414377D01*
X13322563Y-15414377D02*
X13313039Y-15395330D01*
X13313039Y-15395330D02*
X13313039Y-15338187D01*
X13313039Y-15338187D02*
X13322563Y-15319139D01*
X13322563Y-15319139D02*
X13332087Y-15309615D01*
X13332087Y-15309615D02*
X13351134Y-15300092D01*
X13351134Y-15300092D02*
X13379706Y-15300092D01*
X13379706Y-15300092D02*
X13398753Y-15309615D01*
X13398753Y-15309615D02*
X13408277Y-15319139D01*
X13408277Y-15319139D02*
X13417801Y-15338187D01*
X13417801Y-15338187D02*
X13417801Y-15395330D01*
X13417801Y-15395330D02*
X13408277Y-15414377D01*
X13408277Y-15414377D02*
X13398753Y-15423901D01*
X13398753Y-15423901D02*
X13379706Y-15433425D01*
X13379706Y-15433425D02*
X13351134Y-15433425D01*
X13532087Y-15433425D02*
X13513039Y-15423901D01*
X13513039Y-15423901D02*
X13503515Y-15404853D01*
X13503515Y-15404853D02*
X13503515Y-15233425D01*
X13684468Y-15423901D02*
X13665420Y-15433425D01*
X13665420Y-15433425D02*
X13627325Y-15433425D01*
X13627325Y-15433425D02*
X13608277Y-15423901D01*
X13608277Y-15423901D02*
X13598753Y-15404853D01*
X13598753Y-15404853D02*
X13598753Y-15328663D01*
X13598753Y-15328663D02*
X13608277Y-15309615D01*
X13608277Y-15309615D02*
X13627325Y-15300092D01*
X13627325Y-15300092D02*
X13665420Y-15300092D01*
X13665420Y-15300092D02*
X13684468Y-15309615D01*
X13684468Y-15309615D02*
X13693991Y-15328663D01*
X13693991Y-15328663D02*
X13693991Y-15347711D01*
X13693991Y-15347711D02*
X13598753Y-15366758D01*
X13770182Y-15423901D02*
X13789230Y-15433425D01*
X13789230Y-15433425D02*
X13827325Y-15433425D01*
X13827325Y-15433425D02*
X13846372Y-15423901D01*
X13846372Y-15423901D02*
X13855896Y-15404853D01*
X13855896Y-15404853D02*
X13855896Y-15395330D01*
X13855896Y-15395330D02*
X13846372Y-15376282D01*
X13846372Y-15376282D02*
X13827325Y-15366758D01*
X13827325Y-15366758D02*
X13798753Y-15366758D01*
X13798753Y-15366758D02*
X13779706Y-15357234D01*
X13779706Y-15357234D02*
X13770182Y-15338187D01*
X13770182Y-15338187D02*
X13770182Y-15328663D01*
X13770182Y-15328663D02*
X13779706Y-15309615D01*
X13779706Y-15309615D02*
X13798753Y-15300092D01*
X13798753Y-15300092D02*
X13827325Y-15300092D01*
X13827325Y-15300092D02*
X13846372Y-15309615D01*
X13922563Y-15509615D02*
X13932087Y-15500092D01*
X13932087Y-15500092D02*
X13951134Y-15471520D01*
X13951134Y-15471520D02*
X13960658Y-15452473D01*
X13960658Y-15452473D02*
X13970182Y-15423901D01*
X13970182Y-15423901D02*
X13979706Y-15376282D01*
X13979706Y-15376282D02*
X13979706Y-15338187D01*
X13979706Y-15338187D02*
X13970182Y-15290568D01*
X13970182Y-15290568D02*
X13960658Y-15261996D01*
X13960658Y-15261996D02*
X13951134Y-15242949D01*
X13951134Y-15242949D02*
X13932087Y-15214377D01*
X13932087Y-15214377D02*
X13922563Y-15204853D01*
X14284468Y-15509615D02*
X14274944Y-15500092D01*
X14274944Y-15500092D02*
X14255896Y-15471520D01*
X14255896Y-15471520D02*
X14246372Y-15452473D01*
X14246372Y-15452473D02*
X14236849Y-15423901D01*
X14236849Y-15423901D02*
X14227325Y-15376282D01*
X14227325Y-15376282D02*
X14227325Y-15338187D01*
X14227325Y-15338187D02*
X14236849Y-15290568D01*
X14236849Y-15290568D02*
X14246372Y-15261996D01*
X14246372Y-15261996D02*
X14255896Y-15242949D01*
X14255896Y-15242949D02*
X14274944Y-15214377D01*
X14274944Y-15214377D02*
X14284468Y-15204853D01*
X14360658Y-15300092D02*
X14360658Y-15433425D01*
X14360658Y-15319139D02*
X14370182Y-15309615D01*
X14370182Y-15309615D02*
X14389230Y-15300092D01*
X14389230Y-15300092D02*
X14417801Y-15300092D01*
X14417801Y-15300092D02*
X14436849Y-15309615D01*
X14436849Y-15309615D02*
X14446372Y-15328663D01*
X14446372Y-15328663D02*
X14446372Y-15433425D01*
X14570182Y-15433425D02*
X14551134Y-15423901D01*
X14551134Y-15423901D02*
X14541611Y-15414377D01*
X14541611Y-15414377D02*
X14532087Y-15395330D01*
X14532087Y-15395330D02*
X14532087Y-15338187D01*
X14532087Y-15338187D02*
X14541611Y-15319139D01*
X14541611Y-15319139D02*
X14551134Y-15309615D01*
X14551134Y-15309615D02*
X14570182Y-15300092D01*
X14570182Y-15300092D02*
X14598753Y-15300092D01*
X14598753Y-15300092D02*
X14617801Y-15309615D01*
X14617801Y-15309615D02*
X14627325Y-15319139D01*
X14627325Y-15319139D02*
X14636849Y-15338187D01*
X14636849Y-15338187D02*
X14636849Y-15395330D01*
X14636849Y-15395330D02*
X14627325Y-15414377D01*
X14627325Y-15414377D02*
X14617801Y-15423901D01*
X14617801Y-15423901D02*
X14598753Y-15433425D01*
X14598753Y-15433425D02*
X14570182Y-15433425D01*
X14693992Y-15300092D02*
X14770182Y-15300092D01*
X14722563Y-15233425D02*
X14722563Y-15404853D01*
X14722563Y-15404853D02*
X14732087Y-15423901D01*
X14732087Y-15423901D02*
X14751134Y-15433425D01*
X14751134Y-15433425D02*
X14770182Y-15433425D01*
X14989230Y-15300092D02*
X14989230Y-15500092D01*
X14989230Y-15309615D02*
X15008277Y-15300092D01*
X15008277Y-15300092D02*
X15046373Y-15300092D01*
X15046373Y-15300092D02*
X15065420Y-15309615D01*
X15065420Y-15309615D02*
X15074944Y-15319139D01*
X15074944Y-15319139D02*
X15084468Y-15338187D01*
X15084468Y-15338187D02*
X15084468Y-15395330D01*
X15084468Y-15395330D02*
X15074944Y-15414377D01*
X15074944Y-15414377D02*
X15065420Y-15423901D01*
X15065420Y-15423901D02*
X15046373Y-15433425D01*
X15046373Y-15433425D02*
X15008277Y-15433425D01*
X15008277Y-15433425D02*
X14989230Y-15423901D01*
X15198753Y-15433425D02*
X15179706Y-15423901D01*
X15179706Y-15423901D02*
X15170182Y-15404853D01*
X15170182Y-15404853D02*
X15170182Y-15233425D01*
X15360658Y-15433425D02*
X15360658Y-15328663D01*
X15360658Y-15328663D02*
X15351134Y-15309615D01*
X15351134Y-15309615D02*
X15332087Y-15300092D01*
X15332087Y-15300092D02*
X15293992Y-15300092D01*
X15293992Y-15300092D02*
X15274944Y-15309615D01*
X15360658Y-15423901D02*
X15341611Y-15433425D01*
X15341611Y-15433425D02*
X15293992Y-15433425D01*
X15293992Y-15433425D02*
X15274944Y-15423901D01*
X15274944Y-15423901D02*
X15265420Y-15404853D01*
X15265420Y-15404853D02*
X15265420Y-15385806D01*
X15265420Y-15385806D02*
X15274944Y-15366758D01*
X15274944Y-15366758D02*
X15293992Y-15357234D01*
X15293992Y-15357234D02*
X15341611Y-15357234D01*
X15341611Y-15357234D02*
X15360658Y-15347711D01*
X15427325Y-15300092D02*
X15503515Y-15300092D01*
X15455896Y-15233425D02*
X15455896Y-15404853D01*
X15455896Y-15404853D02*
X15465420Y-15423901D01*
X15465420Y-15423901D02*
X15484468Y-15433425D01*
X15484468Y-15433425D02*
X15503515Y-15433425D01*
X15646373Y-15423901D02*
X15627325Y-15433425D01*
X15627325Y-15433425D02*
X15589230Y-15433425D01*
X15589230Y-15433425D02*
X15570182Y-15423901D01*
X15570182Y-15423901D02*
X15560658Y-15404853D01*
X15560658Y-15404853D02*
X15560658Y-15328663D01*
X15560658Y-15328663D02*
X15570182Y-15309615D01*
X15570182Y-15309615D02*
X15589230Y-15300092D01*
X15589230Y-15300092D02*
X15627325Y-15300092D01*
X15627325Y-15300092D02*
X15646373Y-15309615D01*
X15646373Y-15309615D02*
X15655896Y-15328663D01*
X15655896Y-15328663D02*
X15655896Y-15347711D01*
X15655896Y-15347711D02*
X15560658Y-15366758D01*
X15827325Y-15433425D02*
X15827325Y-15233425D01*
X15827325Y-15423901D02*
X15808277Y-15433425D01*
X15808277Y-15433425D02*
X15770182Y-15433425D01*
X15770182Y-15433425D02*
X15751134Y-15423901D01*
X15751134Y-15423901D02*
X15741611Y-15414377D01*
X15741611Y-15414377D02*
X15732087Y-15395330D01*
X15732087Y-15395330D02*
X15732087Y-15338187D01*
X15732087Y-15338187D02*
X15741611Y-15319139D01*
X15741611Y-15319139D02*
X15751134Y-15309615D01*
X15751134Y-15309615D02*
X15770182Y-15300092D01*
X15770182Y-15300092D02*
X15808277Y-15300092D01*
X15808277Y-15300092D02*
X15827325Y-15309615D01*
X15903515Y-15509615D02*
X15913039Y-15500092D01*
X15913039Y-15500092D02*
X15932087Y-15471520D01*
X15932087Y-15471520D02*
X15941611Y-15452473D01*
X15941611Y-15452473D02*
X15951134Y-15423901D01*
X15951134Y-15423901D02*
X15960658Y-15376282D01*
X15960658Y-15376282D02*
X15960658Y-15338187D01*
X15960658Y-15338187D02*
X15951134Y-15290568D01*
X15951134Y-15290568D02*
X15941611Y-15261996D01*
X15941611Y-15261996D02*
X15932087Y-15242949D01*
X15932087Y-15242949D02*
X15913039Y-15214377D01*
X15913039Y-15214377D02*
X15903515Y-15204853D01*
M02*
