G04 #@! TF.GenerationSoftware,KiCad,Pcbnew,9.0.2*
G04 #@! TF.CreationDate,2025-07-09T03:35:45-04:00*
G04 #@! TF.ProjectId,FBT,4642542e-6b69-4636-9164-5f7063625858,rev?*
G04 #@! TF.SameCoordinates,Original*
G04 #@! TF.FileFunction,Legend,Bot*
G04 #@! TF.FilePolarity,Positive*
%FSLAX46Y46*%
G04 Gerber Fmt 4.6, Leading zero omitted, Abs format (unit mm)*
G04 Created by KiCad (PCBNEW 9.0.2) date 2025-07-09 03:35:45*
%MOMM*%
%LPD*%
G01*
G04 APERTURE LIST*
%ADD10C,0.100000*%
%ADD11C,0.334821*%
%ADD12C,0.417912*%
%ADD13C,0.000000*%
%ADD14C,0.114152*%
%ADD15C,0.325133*%
%ADD16C,0.150000*%
%ADD17C,0.120000*%
G04 APERTURE END LIST*
D10*
X109672419Y-73189598D02*
X110386704Y-73189598D01*
X110386704Y-73189598D02*
X110529561Y-73141979D01*
X110529561Y-73141979D02*
X110624800Y-73046741D01*
X110624800Y-73046741D02*
X110672419Y-72903884D01*
X110672419Y-72903884D02*
X110672419Y-72808646D01*
X110672419Y-74141979D02*
X110672419Y-73665789D01*
X110672419Y-73665789D02*
X109672419Y-73665789D01*
X110577180Y-75046741D02*
X110624800Y-74999122D01*
X110624800Y-74999122D02*
X110672419Y-74856265D01*
X110672419Y-74856265D02*
X110672419Y-74761027D01*
X110672419Y-74761027D02*
X110624800Y-74618170D01*
X110624800Y-74618170D02*
X110529561Y-74522932D01*
X110529561Y-74522932D02*
X110434323Y-74475313D01*
X110434323Y-74475313D02*
X110243847Y-74427694D01*
X110243847Y-74427694D02*
X110100990Y-74427694D01*
X110100990Y-74427694D02*
X109910514Y-74475313D01*
X109910514Y-74475313D02*
X109815276Y-74522932D01*
X109815276Y-74522932D02*
X109720038Y-74618170D01*
X109720038Y-74618170D02*
X109672419Y-74761027D01*
X109672419Y-74761027D02*
X109672419Y-74856265D01*
X109672419Y-74856265D02*
X109720038Y-74999122D01*
X109720038Y-74999122D02*
X109767657Y-75046741D01*
X109672419Y-75761027D02*
X110386704Y-75761027D01*
X110386704Y-75761027D02*
X110529561Y-75713408D01*
X110529561Y-75713408D02*
X110624800Y-75618170D01*
X110624800Y-75618170D02*
X110672419Y-75475313D01*
X110672419Y-75475313D02*
X110672419Y-75380075D01*
X110672419Y-76713408D02*
X110672419Y-76237218D01*
X110672419Y-76237218D02*
X109672419Y-76237218D01*
X110577180Y-77618170D02*
X110624800Y-77570551D01*
X110624800Y-77570551D02*
X110672419Y-77427694D01*
X110672419Y-77427694D02*
X110672419Y-77332456D01*
X110672419Y-77332456D02*
X110624800Y-77189599D01*
X110624800Y-77189599D02*
X110529561Y-77094361D01*
X110529561Y-77094361D02*
X110434323Y-77046742D01*
X110434323Y-77046742D02*
X110243847Y-76999123D01*
X110243847Y-76999123D02*
X110100990Y-76999123D01*
X110100990Y-76999123D02*
X109910514Y-77046742D01*
X109910514Y-77046742D02*
X109815276Y-77094361D01*
X109815276Y-77094361D02*
X109720038Y-77189599D01*
X109720038Y-77189599D02*
X109672419Y-77332456D01*
X109672419Y-77332456D02*
X109672419Y-77427694D01*
X109672419Y-77427694D02*
X109720038Y-77570551D01*
X109720038Y-77570551D02*
X109767657Y-77618170D01*
X109672419Y-78332456D02*
X110386704Y-78332456D01*
X110386704Y-78332456D02*
X110529561Y-78284837D01*
X110529561Y-78284837D02*
X110624800Y-78189599D01*
X110624800Y-78189599D02*
X110672419Y-78046742D01*
X110672419Y-78046742D02*
X110672419Y-77951504D01*
X110672419Y-79284837D02*
X110672419Y-78808647D01*
X110672419Y-78808647D02*
X109672419Y-78808647D01*
X110577180Y-80189599D02*
X110624800Y-80141980D01*
X110624800Y-80141980D02*
X110672419Y-79999123D01*
X110672419Y-79999123D02*
X110672419Y-79903885D01*
X110672419Y-79903885D02*
X110624800Y-79761028D01*
X110624800Y-79761028D02*
X110529561Y-79665790D01*
X110529561Y-79665790D02*
X110434323Y-79618171D01*
X110434323Y-79618171D02*
X110243847Y-79570552D01*
X110243847Y-79570552D02*
X110100990Y-79570552D01*
X110100990Y-79570552D02*
X109910514Y-79618171D01*
X109910514Y-79618171D02*
X109815276Y-79665790D01*
X109815276Y-79665790D02*
X109720038Y-79761028D01*
X109720038Y-79761028D02*
X109672419Y-79903885D01*
X109672419Y-79903885D02*
X109672419Y-79999123D01*
X109672419Y-79999123D02*
X109720038Y-80141980D01*
X109720038Y-80141980D02*
X109767657Y-80189599D01*
X109672419Y-80903885D02*
X110386704Y-80903885D01*
X110386704Y-80903885D02*
X110529561Y-80856266D01*
X110529561Y-80856266D02*
X110624800Y-80761028D01*
X110624800Y-80761028D02*
X110672419Y-80618171D01*
X110672419Y-80618171D02*
X110672419Y-80522933D01*
X110672419Y-81856266D02*
X110672419Y-81380076D01*
X110672419Y-81380076D02*
X109672419Y-81380076D01*
X110577180Y-82761028D02*
X110624800Y-82713409D01*
X110624800Y-82713409D02*
X110672419Y-82570552D01*
X110672419Y-82570552D02*
X110672419Y-82475314D01*
X110672419Y-82475314D02*
X110624800Y-82332457D01*
X110624800Y-82332457D02*
X110529561Y-82237219D01*
X110529561Y-82237219D02*
X110434323Y-82189600D01*
X110434323Y-82189600D02*
X110243847Y-82141981D01*
X110243847Y-82141981D02*
X110100990Y-82141981D01*
X110100990Y-82141981D02*
X109910514Y-82189600D01*
X109910514Y-82189600D02*
X109815276Y-82237219D01*
X109815276Y-82237219D02*
X109720038Y-82332457D01*
X109720038Y-82332457D02*
X109672419Y-82475314D01*
X109672419Y-82475314D02*
X109672419Y-82570552D01*
X109672419Y-82570552D02*
X109720038Y-82713409D01*
X109720038Y-82713409D02*
X109767657Y-82761028D01*
D11*
X103283592Y-58703453D02*
X104217749Y-57818462D01*
D12*
X105692733Y-56786046D02*
X105683170Y-56786220D01*
X105669630Y-56786387D01*
X105649523Y-56786557D01*
X105622852Y-56786735D01*
X105597354Y-56786901D01*
X105569012Y-56787112D01*
X105537929Y-56787390D01*
X105521390Y-56787563D01*
X105504204Y-56787762D01*
X105486383Y-56787990D01*
X105467939Y-56788251D01*
X105448886Y-56788548D01*
X105429235Y-56788884D01*
X105409001Y-56789261D01*
X105388194Y-56789683D01*
X105366828Y-56790153D01*
X105344916Y-56790674D01*
X105322470Y-56791250D01*
X105299502Y-56791883D01*
X105276026Y-56792576D01*
X105252054Y-56793333D01*
X105227599Y-56794156D01*
X105202673Y-56795049D01*
X105177289Y-56796015D01*
X105151460Y-56797057D01*
X105125198Y-56798177D01*
X105098516Y-56799380D01*
X105071427Y-56800668D01*
X105043942Y-56802044D01*
X105016076Y-56803512D01*
X104987840Y-56805074D01*
X104959247Y-56806733D01*
X104944820Y-56807601D01*
X104930310Y-56808494D01*
X104915716Y-56809412D01*
X104901041Y-56810358D01*
X104886286Y-56811329D01*
X104871453Y-56812328D01*
X104856544Y-56813355D01*
X104841559Y-56814409D01*
X104826501Y-56815492D01*
X104811371Y-56816603D01*
X104796171Y-56817743D01*
X104780903Y-56818913D01*
X104765567Y-56820112D01*
X104750166Y-56821342D01*
X104734700Y-56822602D01*
X104719173Y-56823893D01*
X104703584Y-56825216D01*
X104687937Y-56826570D01*
X104672232Y-56827956D01*
X104656470Y-56829375D01*
X104640655Y-56830827D01*
X104624786Y-56832312D01*
X104608866Y-56833831D01*
X104592897Y-56835384D01*
X104576879Y-56836971D01*
X104560815Y-56838593D01*
X104544705Y-56840251D01*
X104528553Y-56841944D01*
X104512358Y-56843673D01*
X104496124Y-56845438D01*
X104479850Y-56847240D01*
X104463540Y-56849079D01*
X104447194Y-56850956D01*
X104430814Y-56852871D01*
X104414402Y-56854824D01*
X104397959Y-56856816D01*
X104381487Y-56858846D01*
X104364988Y-56860917D01*
X104348462Y-56863027D01*
X104331912Y-56865177D01*
X104315339Y-56867368D01*
X104298745Y-56869600D01*
X104282131Y-56871874D01*
X104265499Y-56874189D01*
X104248850Y-56876547D01*
X104232187Y-56878947D01*
X104215510Y-56881390D01*
X104198821Y-56883876D01*
X104182122Y-56886406D01*
X104165415Y-56888981D01*
X104148700Y-56891599D01*
X104131980Y-56894263D01*
X104115257Y-56896972D01*
X104098530Y-56899726D01*
X104081803Y-56902527D01*
X104065077Y-56905374D01*
X104048354Y-56908268D01*
X104031634Y-56911209D01*
X104014920Y-56914198D01*
X103998213Y-56917235D01*
X103981515Y-56920320D01*
X103964827Y-56923453D01*
X103948152Y-56926636D01*
X103931489Y-56929869D01*
X103914842Y-56933151D01*
X103898211Y-56936484D01*
X103881599Y-56939868D01*
X103865006Y-56943302D01*
X103848435Y-56946788D01*
X103831887Y-56950326D01*
X103815363Y-56953916D01*
X103798866Y-56957559D01*
X103782396Y-56961255D01*
X103765956Y-56965004D01*
X103749546Y-56968807D01*
X103733169Y-56972664D01*
X103716826Y-56976576D01*
X103700518Y-56980542D01*
X103684248Y-56984564D01*
X103668016Y-56988642D01*
X103651825Y-56992776D01*
X103635676Y-56996966D01*
X103619570Y-57001214D01*
X103603510Y-57005518D01*
X103587496Y-57009880D01*
X103571530Y-57014301D01*
X103555614Y-57018779D01*
X103539750Y-57023317D01*
X103523939Y-57027914D01*
X103508182Y-57032570D01*
X103492481Y-57037286D01*
X103476838Y-57042063D01*
X103461255Y-57046900D01*
X103445732Y-57051799D01*
X103430272Y-57056759D01*
X103414876Y-57061781D01*
X103407202Y-57064315D01*
X103399545Y-57066865D01*
X103391905Y-57069431D01*
X103384282Y-57072012D01*
X103376676Y-57074609D01*
X103369087Y-57077222D01*
X103361517Y-57079851D01*
X103353963Y-57082496D01*
X103346428Y-57085157D01*
X103338911Y-57087833D01*
X103331413Y-57090526D01*
X103323933Y-57093235D01*
X103316472Y-57095960D01*
X103309029Y-57098701D01*
X103301606Y-57101459D01*
X103294203Y-57104232D01*
X103286818Y-57107023D01*
X103279454Y-57109829D01*
X103272110Y-57112652D01*
X103264785Y-57115492D01*
X103257482Y-57118348D01*
X103250198Y-57121220D01*
X103242936Y-57124109D01*
X103235694Y-57127015D01*
X103228474Y-57129938D01*
X103221275Y-57132878D01*
X103214097Y-57135834D01*
X103206941Y-57138807D01*
X103199808Y-57141797D01*
X103192696Y-57144804D01*
X103185606Y-57147828D01*
X103178540Y-57150870D01*
X103171496Y-57153928D01*
X103164474Y-57157003D01*
X103157476Y-57160096D01*
X103150502Y-57163206D01*
X103143550Y-57166333D01*
X103136623Y-57169478D01*
X103129719Y-57172640D01*
X103122840Y-57175820D01*
X103115985Y-57179017D01*
X103109154Y-57182231D01*
X103102348Y-57185464D01*
X103095567Y-57188713D01*
X103088811Y-57191981D01*
X103082081Y-57195266D01*
X103075376Y-57198570D01*
X103068696Y-57201891D01*
X103062043Y-57205229D01*
X103055415Y-57208586D01*
X103048814Y-57211961D01*
X103042239Y-57215354D01*
X103035691Y-57218765D01*
X103029170Y-57222194D01*
X103022676Y-57225641D01*
X103016209Y-57229107D01*
X103009770Y-57232591D01*
X103003359Y-57236093D01*
X102996975Y-57239613D01*
X102990619Y-57243152D01*
X102984292Y-57246710D01*
X102977993Y-57250286D01*
X102971722Y-57253880D01*
X102965481Y-57257493D01*
X102959269Y-57261125D01*
X102953085Y-57264776D01*
X102946932Y-57268445D01*
X102940808Y-57272133D01*
X102934713Y-57275840D01*
X102928649Y-57279566D01*
X102922615Y-57283311D01*
X102916612Y-57287075D01*
X102910639Y-57290858D01*
X102904697Y-57294660D01*
X102898786Y-57298481D01*
X102892906Y-57302321D01*
X102887058Y-57306181D01*
X102881241Y-57310060D01*
X102875456Y-57313958D01*
X102869703Y-57317876D01*
X102863983Y-57321813D01*
X102858294Y-57325770D01*
X102852639Y-57329746D01*
X102847016Y-57333742D01*
X102841426Y-57337757D01*
X102835869Y-57341792D01*
X102830346Y-57345847D01*
X102824856Y-57349922D01*
X102819401Y-57354016D01*
X102813979Y-57358130D01*
X102808591Y-57362265D01*
X102803238Y-57366419D01*
X102797919Y-57370593D01*
X102792635Y-57374788D01*
X102787386Y-57379002D01*
X102782172Y-57383237D01*
X102776994Y-57387491D01*
X102771851Y-57391767D01*
X102766744Y-57396062D01*
X102761673Y-57400378D01*
X102756638Y-57404714D01*
X102751639Y-57409071D01*
X102746677Y-57413448D01*
X102741752Y-57417846D01*
X102736864Y-57422264D01*
X102732013Y-57426703D01*
X102727199Y-57431163D01*
X102722423Y-57435643D01*
X102717684Y-57440144D01*
X102712983Y-57444667D01*
X102708321Y-57449210D01*
X102703697Y-57453773D01*
X102699111Y-57458358D01*
X102694565Y-57462964D01*
X102690057Y-57467591D01*
X102685588Y-57472240D01*
X102681158Y-57476909D01*
X102676768Y-57481600D01*
X102672418Y-57486312D01*
X102668108Y-57491045D01*
X102663838Y-57495799D01*
X102659608Y-57500576D01*
X102655419Y-57505373D01*
X102651270Y-57510192D01*
X102647162Y-57515033D01*
X102643096Y-57519895D01*
X102639070Y-57524779D01*
X102635086Y-57529685D01*
X102631144Y-57534612D01*
X102627244Y-57539561D01*
X102623386Y-57544532D01*
X102619570Y-57549525D01*
X102615797Y-57554540D01*
X102612066Y-57559577D01*
X102608378Y-57564636D01*
X102604733Y-57569717D01*
X102601132Y-57574821D01*
X102597574Y-57579946D01*
X102594059Y-57585094D01*
X102590589Y-57590264D01*
X102587162Y-57595456D01*
X102583780Y-57600671D01*
X102580443Y-57605908D01*
X102577150Y-57611168D01*
X102573901Y-57616450D01*
X102570698Y-57621755D01*
X102567540Y-57627082D01*
X102564428Y-57632433D01*
X102561361Y-57637806D01*
X102558340Y-57643201D01*
X102555365Y-57648620D01*
X102552437Y-57654061D01*
X102549555Y-57659525D01*
X102546719Y-57665013D01*
X102543930Y-57670523D01*
X102541188Y-57676056D01*
X102538494Y-57681613D01*
X102535847Y-57687193D01*
X102533247Y-57692796D01*
X102530696Y-57698422D01*
X102528192Y-57704071D01*
X102525737Y-57709744D01*
X102523330Y-57715440D01*
X102520971Y-57721160D01*
X102518662Y-57726903D01*
X102516401Y-57732670D01*
X102514190Y-57738460D01*
X102512028Y-57744274D01*
X102509915Y-57750112D01*
X102507853Y-57755974D01*
X102505840Y-57761859D01*
X102503878Y-57767768D01*
X102501966Y-57773701D01*
X102500104Y-57779658D01*
X102498294Y-57785639D01*
X102496534Y-57791644D01*
X102494826Y-57797673D01*
X102493168Y-57803726D01*
X102491563Y-57809804D01*
X102490009Y-57815905D01*
X102488507Y-57822031D01*
X102487058Y-57828182D01*
X102485660Y-57834356D01*
X102484315Y-57840555D01*
X102483023Y-57846779D01*
X102481784Y-57853027D01*
X102480599Y-57859300D01*
X102479466Y-57865597D01*
X102478387Y-57871919D01*
X102477362Y-57878265D01*
X102476390Y-57884637D01*
X102475473Y-57891033D01*
X102474610Y-57897454D01*
X102473802Y-57903900D01*
X102473049Y-57910371D01*
X102472350Y-57916867D01*
D13*
G36*
X99257320Y-57837123D02*
G01*
X99259025Y-57837166D01*
X99260725Y-57837293D01*
X99262417Y-57837501D01*
X99264100Y-57837789D01*
X99265770Y-57838155D01*
X99267425Y-57838596D01*
X99269062Y-57839111D01*
X99270678Y-57839697D01*
X99273840Y-57841075D01*
X99276888Y-57842713D01*
X99279802Y-57844594D01*
X99282562Y-57846702D01*
X99285146Y-57849019D01*
X99287534Y-57851530D01*
X99289704Y-57854217D01*
X99290701Y-57855621D01*
X99291636Y-57857063D01*
X99292507Y-57858540D01*
X99293310Y-57860052D01*
X99294043Y-57861594D01*
X99294703Y-57863166D01*
X99295289Y-57864765D01*
X99295796Y-57866389D01*
X99296223Y-57868037D01*
X99296568Y-57869705D01*
X99429969Y-58586368D01*
X99430318Y-58588056D01*
X99430744Y-58589748D01*
X99431821Y-58593130D01*
X99433181Y-58596495D01*
X99434803Y-58599820D01*
X99436668Y-58603085D01*
X99438756Y-58606268D01*
X99441049Y-58609347D01*
X99443526Y-58612303D01*
X99446169Y-58615112D01*
X99448956Y-58617755D01*
X99451870Y-58620210D01*
X99454890Y-58622454D01*
X99457997Y-58624468D01*
X99461172Y-58626230D01*
X99464394Y-58627719D01*
X99467644Y-58628913D01*
X100026714Y-58852645D01*
X100029892Y-58854019D01*
X100033258Y-58855165D01*
X100036782Y-58856085D01*
X100040434Y-58856782D01*
X100044187Y-58857256D01*
X100048011Y-58857511D01*
X100051878Y-58857548D01*
X100055757Y-58857371D01*
X100059620Y-58856979D01*
X100063439Y-58856377D01*
X100067184Y-58855566D01*
X100070827Y-58854547D01*
X100074337Y-58853324D01*
X100077687Y-58851899D01*
X100080847Y-58850272D01*
X100083789Y-58848447D01*
X100677088Y-58441353D01*
X100678522Y-58440420D01*
X100679998Y-58439560D01*
X100681513Y-58438772D01*
X100683064Y-58438056D01*
X100684648Y-58437412D01*
X100686262Y-58436840D01*
X100689564Y-58435907D01*
X100692945Y-58435257D01*
X100696379Y-58434887D01*
X100699841Y-58434794D01*
X100703304Y-58434976D01*
X100706742Y-58435432D01*
X100710130Y-58436158D01*
X100713441Y-58437152D01*
X100716650Y-58438412D01*
X100719731Y-58439935D01*
X100721216Y-58440795D01*
X100722658Y-58441720D01*
X100724056Y-58442710D01*
X100725405Y-58443764D01*
X100726703Y-58444882D01*
X100727947Y-58446064D01*
X101262747Y-58980872D01*
X101263916Y-58982101D01*
X101265022Y-58983387D01*
X101266065Y-58984724D01*
X101267045Y-58986111D01*
X101267960Y-58987543D01*
X101268811Y-58989017D01*
X101269598Y-58990531D01*
X101270320Y-58992081D01*
X101270977Y-58993664D01*
X101271569Y-58995276D01*
X101272555Y-58998575D01*
X101273276Y-59001953D01*
X101273730Y-59005383D01*
X101273914Y-59008840D01*
X101273827Y-59012297D01*
X101273465Y-59015728D01*
X101272827Y-59019106D01*
X101272404Y-59020768D01*
X101271911Y-59022407D01*
X101271347Y-59024020D01*
X101270713Y-59025604D01*
X101270008Y-59027155D01*
X101269232Y-59028670D01*
X101268385Y-59030146D01*
X101267466Y-59031579D01*
X100867415Y-59614321D01*
X100865590Y-59617244D01*
X100863989Y-59620378D01*
X100862614Y-59623693D01*
X100861466Y-59627160D01*
X100860545Y-59630751D01*
X100859851Y-59634437D01*
X100859384Y-59638189D01*
X100859147Y-59641979D01*
X100859138Y-59645778D01*
X100859359Y-59649556D01*
X100859810Y-59653286D01*
X100860492Y-59656938D01*
X100861405Y-59660484D01*
X100862549Y-59663895D01*
X100863926Y-59667143D01*
X100865536Y-59670198D01*
X101002756Y-59927187D01*
X101003484Y-59928725D01*
X101004125Y-59930276D01*
X101004678Y-59931837D01*
X101005147Y-59933405D01*
X101005530Y-59934978D01*
X101005829Y-59936552D01*
X101006046Y-59938126D01*
X101006180Y-59939697D01*
X101006233Y-59941262D01*
X101006206Y-59942818D01*
X101006101Y-59944362D01*
X101005916Y-59945893D01*
X101005655Y-59947407D01*
X101005317Y-59948901D01*
X101004904Y-59950373D01*
X101004416Y-59951821D01*
X101003855Y-59953241D01*
X101003221Y-59954631D01*
X101002515Y-59955988D01*
X101001739Y-59957310D01*
X101000893Y-59958593D01*
X100999978Y-59959836D01*
X100998995Y-59961035D01*
X100997945Y-59962189D01*
X100996829Y-59963293D01*
X100995649Y-59964346D01*
X100994404Y-59965344D01*
X100993095Y-59966286D01*
X100991725Y-59967169D01*
X100990293Y-59967989D01*
X100988801Y-59968744D01*
X100987249Y-59969432D01*
X99706503Y-60499288D01*
X99704910Y-60499901D01*
X99703292Y-60500433D01*
X99701654Y-60500884D01*
X99699997Y-60501257D01*
X99698326Y-60501551D01*
X99696642Y-60501768D01*
X99693252Y-60501976D01*
X99689850Y-60501887D01*
X99686460Y-60501511D01*
X99683109Y-60500855D01*
X99679819Y-60499927D01*
X99676614Y-60498737D01*
X99673521Y-60497290D01*
X99670562Y-60495597D01*
X99667762Y-60493665D01*
X99665146Y-60491502D01*
X99663914Y-60490337D01*
X99662737Y-60489117D01*
X99661618Y-60487843D01*
X99660561Y-60486517D01*
X99659567Y-60485139D01*
X99658641Y-60483710D01*
X99619243Y-60419370D01*
X99616284Y-60414744D01*
X99612908Y-60409803D01*
X99609191Y-60404642D01*
X99605206Y-60399352D01*
X99601029Y-60394027D01*
X99596733Y-60388760D01*
X99592393Y-60383645D01*
X99588085Y-60378773D01*
X99558935Y-60336198D01*
X99527287Y-60295565D01*
X99493250Y-60256986D01*
X99456935Y-60220570D01*
X99418451Y-60186430D01*
X99377908Y-60154676D01*
X99335418Y-60125419D01*
X99291089Y-60098770D01*
X99245031Y-60074841D01*
X99221389Y-60063931D01*
X99197356Y-60053742D01*
X99172945Y-60044288D01*
X99148172Y-60035584D01*
X99123049Y-60027643D01*
X99097590Y-60020479D01*
X99071809Y-60014106D01*
X99045720Y-60008537D01*
X99019336Y-60003787D01*
X98992672Y-59999870D01*
X98965740Y-59996799D01*
X98938555Y-59994588D01*
X98911131Y-59993251D01*
X98883481Y-59992803D01*
X98840434Y-59993891D01*
X98797952Y-59997120D01*
X98756088Y-60002439D01*
X98714894Y-60009794D01*
X98674423Y-60019132D01*
X98634728Y-60030402D01*
X98595860Y-60043550D01*
X98557873Y-60058524D01*
X98520819Y-60075272D01*
X98484750Y-60093741D01*
X98449720Y-60113878D01*
X98415780Y-60135631D01*
X98382984Y-60158948D01*
X98351383Y-60183775D01*
X98321031Y-60210060D01*
X98291980Y-60237751D01*
X98264282Y-60266795D01*
X98237991Y-60297139D01*
X98213158Y-60328732D01*
X98189836Y-60361520D01*
X98168078Y-60395450D01*
X98147936Y-60430471D01*
X98129463Y-60466530D01*
X98112711Y-60503574D01*
X98097734Y-60541550D01*
X98084583Y-60580407D01*
X98073310Y-60620091D01*
X98063970Y-60660550D01*
X98056614Y-60701731D01*
X98051294Y-60743582D01*
X98048064Y-60786051D01*
X98046975Y-60829084D01*
X98048064Y-60872117D01*
X98051294Y-60914586D01*
X98056614Y-60956437D01*
X98063970Y-60997618D01*
X98073310Y-61038077D01*
X98084583Y-61077761D01*
X98097734Y-61116618D01*
X98112711Y-61154594D01*
X98129463Y-61191638D01*
X98147936Y-61227696D01*
X98168078Y-61262717D01*
X98189836Y-61296648D01*
X98213158Y-61329436D01*
X98237991Y-61361028D01*
X98264282Y-61391373D01*
X98291980Y-61420417D01*
X98321031Y-61448107D01*
X98351383Y-61474393D01*
X98382984Y-61499220D01*
X98415780Y-61522536D01*
X98449720Y-61544289D01*
X98484750Y-61564426D01*
X98520819Y-61582895D01*
X98557873Y-61599643D01*
X98595860Y-61614617D01*
X98634728Y-61627766D01*
X98674423Y-61639035D01*
X98714894Y-61648374D01*
X98756088Y-61655729D01*
X98797952Y-61661047D01*
X98840434Y-61664277D01*
X98883481Y-61665365D01*
X98938555Y-61663580D01*
X98992672Y-61658298D01*
X99045720Y-61649630D01*
X99097590Y-61637689D01*
X99148172Y-61622583D01*
X99197356Y-61604426D01*
X99245031Y-61583327D01*
X99291089Y-61559397D01*
X99335418Y-61532748D01*
X99377908Y-61503491D01*
X99418451Y-61471737D01*
X99456935Y-61437597D01*
X99493250Y-61401182D01*
X99527287Y-61362602D01*
X99558935Y-61321969D01*
X99588085Y-61279395D01*
X99592416Y-61274501D01*
X99596766Y-61269374D01*
X99601064Y-61264103D01*
X99605237Y-61258778D01*
X99609214Y-61253488D01*
X99612922Y-61248322D01*
X99616288Y-61243371D01*
X99619243Y-61238723D01*
X99658641Y-61174382D01*
X99659567Y-61172947D01*
X99660561Y-61171563D01*
X99661619Y-61170232D01*
X99662738Y-61168954D01*
X99663915Y-61167731D01*
X99665147Y-61166563D01*
X99666431Y-61165451D01*
X99667764Y-61164396D01*
X99669142Y-61163400D01*
X99670564Y-61162462D01*
X99672025Y-61161586D01*
X99673523Y-61160770D01*
X99675054Y-61160016D01*
X99676616Y-61159326D01*
X99678206Y-61158699D01*
X99679820Y-61158138D01*
X99681456Y-61157643D01*
X99683110Y-61157215D01*
X99684780Y-61156854D01*
X99686462Y-61156563D01*
X99688153Y-61156342D01*
X99689851Y-61156191D01*
X99691552Y-61156113D01*
X99693253Y-61156107D01*
X99694951Y-61156176D01*
X99696643Y-61156319D01*
X99698326Y-61156538D01*
X99699998Y-61156834D01*
X99701654Y-61157207D01*
X99703292Y-61157659D01*
X99704909Y-61158191D01*
X99706502Y-61158804D01*
X100987177Y-61688735D01*
X100988728Y-61689423D01*
X100990221Y-61690179D01*
X100991654Y-61691001D01*
X100993027Y-61691885D01*
X100994337Y-61692828D01*
X100995586Y-61693829D01*
X100996770Y-61694884D01*
X100997890Y-61695991D01*
X100998944Y-61697146D01*
X100999932Y-61698348D01*
X101000851Y-61699593D01*
X101001702Y-61700879D01*
X101002483Y-61702203D01*
X101003193Y-61703562D01*
X101003831Y-61704954D01*
X101004396Y-61706376D01*
X101004888Y-61707825D01*
X101005304Y-61709299D01*
X101005644Y-61710794D01*
X101005908Y-61712309D01*
X101006093Y-61713839D01*
X101006199Y-61715384D01*
X101006225Y-61716939D01*
X101006170Y-61718502D01*
X101006032Y-61720071D01*
X101005812Y-61721643D01*
X101005507Y-61723215D01*
X101005117Y-61724784D01*
X101004641Y-61726348D01*
X101004077Y-61727904D01*
X101003425Y-61729449D01*
X101002683Y-61730980D01*
X100865466Y-61987969D01*
X100863869Y-61991011D01*
X100862503Y-61994247D01*
X100861368Y-61997649D01*
X100860463Y-62001187D01*
X100859788Y-62004833D01*
X100859343Y-62008559D01*
X100859127Y-62012335D01*
X100859140Y-62016132D01*
X100859381Y-62019923D01*
X100859850Y-62023678D01*
X100860547Y-62027368D01*
X100861471Y-62030965D01*
X100862621Y-62034440D01*
X100863998Y-62037764D01*
X100865601Y-62040909D01*
X100867429Y-62043846D01*
X101267474Y-62626584D01*
X101268400Y-62628018D01*
X101269254Y-62629494D01*
X101270036Y-62631009D01*
X101270746Y-62632560D01*
X101271385Y-62634144D01*
X101271954Y-62635757D01*
X101272879Y-62639059D01*
X101273523Y-62642439D01*
X101273889Y-62645871D01*
X101273980Y-62649331D01*
X101273797Y-62652790D01*
X101273342Y-62656224D01*
X101272619Y-62659607D01*
X101271628Y-62662913D01*
X101270374Y-62666114D01*
X101268857Y-62669187D01*
X101268000Y-62670666D01*
X101267080Y-62672104D01*
X101266094Y-62673496D01*
X101265045Y-62674839D01*
X101263932Y-62676131D01*
X101262755Y-62677367D01*
X100727947Y-63212168D01*
X100726703Y-63213344D01*
X100725405Y-63214457D01*
X100724056Y-63215506D01*
X100722658Y-63216490D01*
X100721216Y-63217411D01*
X100719731Y-63218267D01*
X100718209Y-63219058D01*
X100716650Y-63219783D01*
X100715060Y-63220443D01*
X100713441Y-63221038D01*
X100710130Y-63222028D01*
X100706742Y-63222752D01*
X100703304Y-63223207D01*
X100699841Y-63223390D01*
X100696379Y-63223300D01*
X100692945Y-63222934D01*
X100691246Y-63222647D01*
X100689564Y-63222290D01*
X100687901Y-63221863D01*
X100686261Y-63221366D01*
X100684648Y-63220798D01*
X100683064Y-63220159D01*
X100681513Y-63219448D01*
X100679998Y-63218666D01*
X100678521Y-63217813D01*
X100677088Y-63216887D01*
X100083714Y-62809794D01*
X100080785Y-62807955D01*
X100077633Y-62806317D01*
X100074289Y-62804882D01*
X100070782Y-62803651D01*
X100067142Y-62802627D01*
X100063396Y-62801811D01*
X100059576Y-62801207D01*
X100055710Y-62800815D01*
X100051826Y-62800638D01*
X100047956Y-62800679D01*
X100044128Y-62800938D01*
X100040370Y-62801419D01*
X100036714Y-62802123D01*
X100033187Y-62803053D01*
X100029819Y-62804210D01*
X100026639Y-62805596D01*
X99467570Y-63029332D01*
X99465942Y-63029884D01*
X99464318Y-63030515D01*
X99462701Y-63031220D01*
X99461094Y-63031997D01*
X99457916Y-63033756D01*
X99454805Y-63035771D01*
X99451780Y-63038019D01*
X99448862Y-63040478D01*
X99446069Y-63043127D01*
X99443423Y-63045943D01*
X99440943Y-63048905D01*
X99438648Y-63051991D01*
X99436560Y-63055179D01*
X99434696Y-63058446D01*
X99433078Y-63061772D01*
X99431725Y-63065133D01*
X99431155Y-63066821D01*
X99430658Y-63068509D01*
X99430237Y-63070195D01*
X99429895Y-63071877D01*
X99296494Y-63788539D01*
X99296143Y-63790207D01*
X99295711Y-63791855D01*
X99295199Y-63793479D01*
X99294611Y-63795079D01*
X99293948Y-63796651D01*
X99293214Y-63798193D01*
X99292411Y-63799704D01*
X99291541Y-63801182D01*
X99290607Y-63802624D01*
X99289611Y-63804028D01*
X99288557Y-63805393D01*
X99287446Y-63806715D01*
X99286281Y-63807993D01*
X99285064Y-63809225D01*
X99283799Y-63810409D01*
X99282487Y-63811543D01*
X99281131Y-63812624D01*
X99279734Y-63813651D01*
X99278298Y-63814621D01*
X99276826Y-63815532D01*
X99275320Y-63816382D01*
X99273783Y-63817170D01*
X99272217Y-63817892D01*
X99270625Y-63818548D01*
X99269009Y-63819134D01*
X99267371Y-63819648D01*
X99265716Y-63820090D01*
X99264044Y-63820455D01*
X99262358Y-63820744D01*
X99260662Y-63820952D01*
X99258956Y-63821078D01*
X99257245Y-63821121D01*
X98500885Y-63821121D01*
X98499180Y-63821079D01*
X98497482Y-63820953D01*
X98495791Y-63820745D01*
X98494111Y-63820458D01*
X98492444Y-63820094D01*
X98490793Y-63819655D01*
X98489160Y-63819142D01*
X98487548Y-63818558D01*
X98485959Y-63817905D01*
X98484395Y-63817185D01*
X98481356Y-63815552D01*
X98478451Y-63813675D01*
X98475699Y-63811571D01*
X98473121Y-63809257D01*
X98470737Y-63806748D01*
X98468567Y-63804061D01*
X98467568Y-63802657D01*
X98466631Y-63801214D01*
X98465758Y-63799734D01*
X98464950Y-63798221D01*
X98464212Y-63796676D01*
X98463544Y-63795100D01*
X98462950Y-63793497D01*
X98462433Y-63791867D01*
X98461994Y-63790214D01*
X98461637Y-63788539D01*
X98324940Y-63053825D01*
X98324153Y-63050440D01*
X98323071Y-63047043D01*
X98321712Y-63043654D01*
X98320097Y-63040296D01*
X98318244Y-63036990D01*
X98316172Y-63033759D01*
X98313899Y-63030625D01*
X98311445Y-63027609D01*
X98308829Y-63024734D01*
X98306070Y-63022021D01*
X98303186Y-63019492D01*
X98300197Y-63017170D01*
X98297121Y-63015076D01*
X98293977Y-63013232D01*
X98290785Y-63011660D01*
X98287564Y-63010382D01*
X97762051Y-62785151D01*
X97758900Y-62783696D01*
X97755562Y-62782473D01*
X97752066Y-62781482D01*
X97748439Y-62780720D01*
X97744711Y-62780185D01*
X97740910Y-62779874D01*
X97737065Y-62779786D01*
X97733204Y-62779919D01*
X97729357Y-62780271D01*
X97725552Y-62780839D01*
X97721817Y-62781621D01*
X97718181Y-62782616D01*
X97714673Y-62783821D01*
X97711321Y-62785235D01*
X97708155Y-62786854D01*
X97705201Y-62788678D01*
X97081117Y-63216811D01*
X97079690Y-63217744D01*
X97078220Y-63218603D01*
X97076711Y-63219390D01*
X97075165Y-63220105D01*
X97073587Y-63220747D01*
X97071978Y-63221318D01*
X97068684Y-63222246D01*
X97065310Y-63222892D01*
X97061882Y-63223257D01*
X97058426Y-63223346D01*
X97054967Y-63223159D01*
X97051532Y-63222700D01*
X97048146Y-63221972D01*
X97044836Y-63220977D01*
X97041628Y-63219718D01*
X97038548Y-63218197D01*
X97037064Y-63217340D01*
X97035621Y-63216418D01*
X97034224Y-63215432D01*
X97032875Y-63214382D01*
X97031577Y-63213269D01*
X97030333Y-63212092D01*
X96495533Y-62677367D01*
X96494357Y-62676131D01*
X96493244Y-62674839D01*
X96492195Y-62673496D01*
X96491210Y-62672104D01*
X96490290Y-62670667D01*
X96489434Y-62669187D01*
X96488643Y-62667669D01*
X96487917Y-62666115D01*
X96487257Y-62664528D01*
X96486663Y-62662913D01*
X96485672Y-62659608D01*
X96484949Y-62656225D01*
X96484494Y-62652790D01*
X96484311Y-62649331D01*
X96484401Y-62645872D01*
X96484767Y-62642439D01*
X96485054Y-62640741D01*
X96485411Y-62639059D01*
X96485838Y-62637397D01*
X96486335Y-62635757D01*
X96486903Y-62634144D01*
X96487542Y-62632560D01*
X96488253Y-62631009D01*
X96489035Y-62629494D01*
X96489888Y-62628018D01*
X96490814Y-62626584D01*
X96926594Y-61991714D01*
X96928432Y-61988784D01*
X96930067Y-61985633D01*
X96931499Y-61982290D01*
X96932725Y-61978783D01*
X96933744Y-61975142D01*
X96934553Y-61971397D01*
X96935151Y-61967576D01*
X96935536Y-61963710D01*
X96935706Y-61959827D01*
X96935658Y-61955957D01*
X96935392Y-61952128D01*
X96934906Y-61948371D01*
X96934197Y-61944714D01*
X96933264Y-61941187D01*
X96932104Y-61937819D01*
X96930717Y-61934639D01*
X96722189Y-61425229D01*
X96721616Y-61423609D01*
X96720965Y-61421994D01*
X96720240Y-61420386D01*
X96719442Y-61418788D01*
X96717643Y-61415630D01*
X96715589Y-61412540D01*
X96713302Y-61409538D01*
X96710806Y-61406641D01*
X96708121Y-61403869D01*
X96705272Y-61401242D01*
X96702279Y-61398778D01*
X96699166Y-61396496D01*
X96695953Y-61394416D01*
X96692665Y-61392556D01*
X96689323Y-61390936D01*
X96685949Y-61389574D01*
X96682565Y-61388491D01*
X96680877Y-61388059D01*
X96679195Y-61387704D01*
X95919012Y-61246289D01*
X95917343Y-61245938D01*
X95915696Y-61245506D01*
X95914071Y-61244994D01*
X95912472Y-61244406D01*
X95910900Y-61243744D01*
X95909358Y-61243010D01*
X95907846Y-61242207D01*
X95906369Y-61241337D01*
X95904927Y-61240404D01*
X95903523Y-61239409D01*
X95902158Y-61238355D01*
X95900836Y-61237245D01*
X95899557Y-61236081D01*
X95898325Y-61234866D01*
X95897141Y-61233602D01*
X95896008Y-61232292D01*
X95894926Y-61230938D01*
X95893900Y-61229543D01*
X95892930Y-61228110D01*
X95892019Y-61226640D01*
X95891168Y-61225137D01*
X95890381Y-61223603D01*
X95889658Y-61222040D01*
X95889003Y-61220452D01*
X95888417Y-61218840D01*
X95887902Y-61217207D01*
X95887461Y-61215556D01*
X95887095Y-61213889D01*
X95886807Y-61212209D01*
X95886599Y-61210519D01*
X95886472Y-61208820D01*
X95886430Y-61207116D01*
X95886430Y-60450904D01*
X95886472Y-60449200D01*
X95886599Y-60447501D01*
X95886807Y-60445810D01*
X95887095Y-60444130D01*
X95887461Y-60442464D01*
X95887903Y-60440813D01*
X95888418Y-60439180D01*
X95889004Y-60437568D01*
X95889660Y-60435979D01*
X95890383Y-60434417D01*
X95892023Y-60431380D01*
X95893906Y-60428476D01*
X95896017Y-60425728D01*
X95898339Y-60423153D01*
X95900854Y-60420774D01*
X95903547Y-60418610D01*
X95904955Y-60417616D01*
X95906400Y-60416682D01*
X95907882Y-60415813D01*
X95909398Y-60415010D01*
X95910945Y-60414276D01*
X95912522Y-60413614D01*
X95914127Y-60413025D01*
X95915758Y-60412514D01*
X95917411Y-60412081D01*
X95919087Y-60411731D01*
X96679193Y-60270241D01*
X96682563Y-60269456D01*
X96685946Y-60268373D01*
X96689320Y-60267013D01*
X96692662Y-60265393D01*
X96695950Y-60263533D01*
X96699162Y-60261453D01*
X96702275Y-60259171D01*
X96705268Y-60256706D01*
X96708117Y-60254078D01*
X96710801Y-60251306D01*
X96713298Y-60248409D01*
X96715584Y-60245406D01*
X96717639Y-60242316D01*
X96719439Y-60239158D01*
X96720962Y-60235951D01*
X96722186Y-60232716D01*
X96930713Y-59723381D01*
X96932114Y-59720215D01*
X96933283Y-59716858D01*
X96934223Y-59713341D01*
X96934936Y-59709692D01*
X96935424Y-59705940D01*
X96935690Y-59702116D01*
X96935736Y-59698248D01*
X96935563Y-59694366D01*
X96935174Y-59690498D01*
X96934572Y-59686675D01*
X96933758Y-59682926D01*
X96932734Y-59679279D01*
X96931504Y-59675765D01*
X96930068Y-59672411D01*
X96928429Y-59669249D01*
X96926590Y-59666306D01*
X96490814Y-59031436D01*
X96489881Y-59030009D01*
X96489021Y-59028539D01*
X96488233Y-59027030D01*
X96487517Y-59025484D01*
X96486873Y-59023906D01*
X96486301Y-59022297D01*
X96485368Y-59019004D01*
X96484718Y-59015631D01*
X96484348Y-59012205D01*
X96484255Y-59008750D01*
X96484438Y-59005295D01*
X96484893Y-59001864D01*
X96485619Y-58998483D01*
X96486614Y-58995180D01*
X96487875Y-58991979D01*
X96489399Y-58988907D01*
X96490260Y-58987428D01*
X96491185Y-58985991D01*
X96492175Y-58984599D01*
X96493230Y-58983255D01*
X96494349Y-58981964D01*
X96495532Y-58980728D01*
X97030333Y-58446001D01*
X97031576Y-58444826D01*
X97032874Y-58443714D01*
X97034223Y-58442666D01*
X97035621Y-58441682D01*
X97037063Y-58440763D01*
X97038548Y-58439909D01*
X97040070Y-58439120D01*
X97041628Y-58438397D01*
X97043218Y-58437739D01*
X97044836Y-58437147D01*
X97048146Y-58436162D01*
X97051531Y-58435443D01*
X97054966Y-58434992D01*
X97058425Y-58434812D01*
X97061882Y-58434905D01*
X97065310Y-58435271D01*
X97068684Y-58435914D01*
X97070343Y-58436340D01*
X97071978Y-58436836D01*
X97073586Y-58437402D01*
X97075165Y-58438038D01*
X97076711Y-58438745D01*
X97078220Y-58439522D01*
X97079690Y-58440371D01*
X97081117Y-58441291D01*
X97705275Y-58869349D01*
X97708228Y-58871198D01*
X97711395Y-58872837D01*
X97714747Y-58874266D01*
X97718256Y-58875483D01*
X97721892Y-58876486D01*
X97725627Y-58877274D01*
X97729432Y-58877845D01*
X97733279Y-58878197D01*
X97737140Y-58878329D01*
X97740984Y-58878239D01*
X97744785Y-58877925D01*
X97748513Y-58877386D01*
X97752140Y-58876619D01*
X97755637Y-58875625D01*
X97758974Y-58874400D01*
X97762125Y-58872943D01*
X98287638Y-58647711D01*
X98289251Y-58647103D01*
X98290860Y-58646418D01*
X98294055Y-58644831D01*
X98297202Y-58642973D01*
X98300282Y-58640865D01*
X98303276Y-58638531D01*
X98306165Y-58635992D01*
X98308930Y-58633270D01*
X98311550Y-58630387D01*
X98314007Y-58627366D01*
X98316282Y-58624228D01*
X98318354Y-58620996D01*
X98320206Y-58617691D01*
X98321817Y-58614336D01*
X98323168Y-58610954D01*
X98323740Y-58609259D01*
X98324240Y-58607565D01*
X98324666Y-58605876D01*
X98325014Y-58604193D01*
X98461710Y-57869479D01*
X98461636Y-57869556D01*
X98461994Y-57867887D01*
X98462433Y-57866240D01*
X98462950Y-57864615D01*
X98463543Y-57863016D01*
X98464209Y-57861444D01*
X98464947Y-57859901D01*
X98465753Y-57858391D01*
X98466625Y-57856913D01*
X98467560Y-57855472D01*
X98468557Y-57854068D01*
X98469612Y-57852704D01*
X98470724Y-57851383D01*
X98471889Y-57850106D01*
X98473106Y-57848875D01*
X98474371Y-57847692D01*
X98475683Y-57846560D01*
X98477038Y-57845481D01*
X98478435Y-57844456D01*
X98479871Y-57843489D01*
X98481343Y-57842580D01*
X98482850Y-57841733D01*
X98484388Y-57840948D01*
X98485955Y-57840229D01*
X98487548Y-57839578D01*
X98489166Y-57838996D01*
X98490805Y-57838486D01*
X98492464Y-57838049D01*
X98494140Y-57837689D01*
X98495829Y-57837406D01*
X98497531Y-57837204D01*
X98499242Y-57837083D01*
X98500959Y-57837048D01*
X99257320Y-57837123D01*
G37*
D11*
X104242331Y-62980982D02*
X103283592Y-62071408D01*
D10*
X91600000Y-102400000D02*
X94000000Y-102400000D01*
X94000000Y-109000000D01*
X91600000Y-109000000D01*
X91600000Y-102400000D01*
D14*
X100297886Y-48437304D02*
X100308356Y-48469230D01*
X100308355Y-48469230D01*
X100311509Y-48515166D01*
X100305534Y-48570826D01*
X100290934Y-48635852D01*
X100268210Y-48709886D01*
X100200406Y-48883546D01*
X100106145Y-49088940D01*
X99854343Y-49583473D01*
X99544988Y-50170569D01*
X99210263Y-50827311D01*
X99043445Y-51174638D01*
X98882353Y-51530782D01*
X98731011Y-51892879D01*
X98593441Y-52258065D01*
X98473667Y-52623475D01*
X98421710Y-52805369D01*
X98375711Y-52986244D01*
X98107401Y-54036378D01*
X97922284Y-54704120D01*
X97715983Y-55401746D01*
X97498092Y-56080331D01*
X97278203Y-56690950D01*
X97170507Y-56955482D01*
X97065910Y-57184676D01*
X96965610Y-57372416D01*
X96870806Y-57512586D01*
X96850910Y-57530144D01*
X96834416Y-57529528D01*
X96821138Y-57511870D01*
X96810885Y-57478303D01*
X96798704Y-57367970D01*
X96796365Y-57207589D01*
X96815180Y-56772927D01*
X96855266Y-56246799D01*
X96950985Y-55210069D01*
X96982488Y-54844432D01*
X96988872Y-54731506D01*
X96987000Y-54677256D01*
X96940359Y-54529009D01*
X96894911Y-54401722D01*
X96850081Y-54292591D01*
X96805295Y-54198812D01*
X96759977Y-54117583D01*
X96713555Y-54046099D01*
X96665452Y-53981558D01*
X96615094Y-53921156D01*
X96379624Y-53664867D01*
X96309374Y-53583107D01*
X96233422Y-53488667D01*
X96151193Y-53378741D01*
X96062112Y-53250526D01*
X96016462Y-53168974D01*
X95983550Y-53080549D01*
X95962789Y-52985904D01*
X95953591Y-52885694D01*
X95955368Y-52780570D01*
X95967534Y-52671188D01*
X95989500Y-52558200D01*
X96020679Y-52442259D01*
X96060483Y-52324020D01*
X96108326Y-52204135D01*
X96163618Y-52083258D01*
X96225773Y-51962041D01*
X96368320Y-51721206D01*
X96531267Y-51486857D01*
X96709913Y-51264221D01*
X96899557Y-51058524D01*
X97095499Y-50874994D01*
X97293038Y-50718859D01*
X97390937Y-50652698D01*
X97487474Y-50595346D01*
X97582059Y-50547455D01*
X97674105Y-50509681D01*
X97763026Y-50482675D01*
X97848232Y-50467092D01*
X97929138Y-50463584D01*
X98005154Y-50472806D01*
X98121198Y-50489441D01*
X98235523Y-50489751D01*
X98348018Y-50474857D01*
X98458569Y-50445882D01*
X98567065Y-50403946D01*
X98673392Y-50350170D01*
X98777439Y-50285675D01*
X98879093Y-50211583D01*
X98978241Y-50129014D01*
X99074771Y-50039091D01*
X99168571Y-49942933D01*
X99259527Y-49841663D01*
X99432460Y-49628270D01*
X99592671Y-49407880D01*
X99739260Y-49189464D01*
X99871326Y-48981990D01*
X100088291Y-48635747D01*
X100171390Y-48514917D01*
X100236368Y-48440908D01*
X100261779Y-48424264D01*
X100282323Y-48422689D01*
X100297886Y-48437304D01*
G36*
X100297886Y-48437304D02*
G01*
X100308356Y-48469230D01*
X100308355Y-48469230D01*
X100311509Y-48515166D01*
X100305534Y-48570826D01*
X100290934Y-48635852D01*
X100268210Y-48709886D01*
X100200406Y-48883546D01*
X100106145Y-49088940D01*
X99854343Y-49583473D01*
X99544988Y-50170569D01*
X99210263Y-50827311D01*
X99043445Y-51174638D01*
X98882353Y-51530782D01*
X98731011Y-51892879D01*
X98593441Y-52258065D01*
X98473667Y-52623475D01*
X98421710Y-52805369D01*
X98375711Y-52986244D01*
X98107401Y-54036378D01*
X97922284Y-54704120D01*
X97715983Y-55401746D01*
X97498092Y-56080331D01*
X97278203Y-56690950D01*
X97170507Y-56955482D01*
X97065910Y-57184676D01*
X96965610Y-57372416D01*
X96870806Y-57512586D01*
X96850910Y-57530144D01*
X96834416Y-57529528D01*
X96821138Y-57511870D01*
X96810885Y-57478303D01*
X96798704Y-57367970D01*
X96796365Y-57207589D01*
X96815180Y-56772927D01*
X96855266Y-56246799D01*
X96950985Y-55210069D01*
X96982488Y-54844432D01*
X96988872Y-54731506D01*
X96987000Y-54677256D01*
X96940359Y-54529009D01*
X96894911Y-54401722D01*
X96850081Y-54292591D01*
X96805295Y-54198812D01*
X96759977Y-54117583D01*
X96713555Y-54046099D01*
X96665452Y-53981558D01*
X96615094Y-53921156D01*
X96379624Y-53664867D01*
X96309374Y-53583107D01*
X96233422Y-53488667D01*
X96151193Y-53378741D01*
X96062112Y-53250526D01*
X96016462Y-53168974D01*
X95983550Y-53080549D01*
X95962789Y-52985904D01*
X95953591Y-52885694D01*
X95955368Y-52780570D01*
X95967534Y-52671188D01*
X95989500Y-52558200D01*
X96020679Y-52442259D01*
X96060483Y-52324020D01*
X96108326Y-52204135D01*
X96163618Y-52083258D01*
X96225773Y-51962041D01*
X96368320Y-51721206D01*
X96531267Y-51486857D01*
X96709913Y-51264221D01*
X96899557Y-51058524D01*
X97095499Y-50874994D01*
X97293038Y-50718859D01*
X97390937Y-50652698D01*
X97487474Y-50595346D01*
X97582059Y-50547455D01*
X97674105Y-50509681D01*
X97763026Y-50482675D01*
X97848232Y-50467092D01*
X97929138Y-50463584D01*
X98005154Y-50472806D01*
X98121198Y-50489441D01*
X98235523Y-50489751D01*
X98348018Y-50474857D01*
X98458569Y-50445882D01*
X98567065Y-50403946D01*
X98673392Y-50350170D01*
X98777439Y-50285675D01*
X98879093Y-50211583D01*
X98978241Y-50129014D01*
X99074771Y-50039091D01*
X99168571Y-49942933D01*
X99259527Y-49841663D01*
X99432460Y-49628270D01*
X99592671Y-49407880D01*
X99739260Y-49189464D01*
X99871326Y-48981990D01*
X100088291Y-48635747D01*
X100171390Y-48514917D01*
X100236368Y-48440908D01*
X100261779Y-48424264D01*
X100282323Y-48422689D01*
X100297886Y-48437304D01*
G37*
D15*
X107095502Y-50762279D02*
X107146270Y-50766140D01*
X107196299Y-50772497D01*
X107245528Y-50781288D01*
X107293892Y-50792451D01*
X107341330Y-50805922D01*
X107387779Y-50821638D01*
X107433176Y-50839538D01*
X107477457Y-50859557D01*
X107520561Y-50881633D01*
X107562424Y-50905704D01*
X107602984Y-50931706D01*
X107642177Y-50959577D01*
X107679942Y-50989254D01*
X107716214Y-51020674D01*
X107750932Y-51053775D01*
X107784032Y-51088493D01*
X107815453Y-51124765D01*
X107845130Y-51162530D01*
X107873001Y-51201723D01*
X107899003Y-51242283D01*
X107923074Y-51284146D01*
X107945150Y-51327249D01*
X107965170Y-51371531D01*
X107983069Y-51416927D01*
X107998785Y-51463376D01*
X108012256Y-51510814D01*
X108023419Y-51559179D01*
X108032210Y-51608407D01*
X108038567Y-51658437D01*
X108042428Y-51709204D01*
X108043729Y-51760647D01*
X108043729Y-54000000D01*
X108042428Y-54051443D01*
X108038567Y-54102210D01*
X108032210Y-54152239D01*
X108023419Y-54201468D01*
X108012256Y-54249832D01*
X107998785Y-54297270D01*
X107983069Y-54343719D01*
X107965170Y-54389116D01*
X107945150Y-54433397D01*
X107923074Y-54476501D01*
X107899003Y-54518364D01*
X107873001Y-54558923D01*
X107845130Y-54598117D01*
X107815453Y-54635881D01*
X107784032Y-54672154D01*
X107750932Y-54706871D01*
X107716214Y-54739972D01*
X107679942Y-54771392D01*
X107642177Y-54801069D01*
X107602984Y-54828940D01*
X107562424Y-54854942D01*
X107520561Y-54879013D01*
X107477457Y-54901089D01*
X107433176Y-54921108D01*
X107387779Y-54939008D01*
X107341330Y-54954724D01*
X107293892Y-54968195D01*
X107245528Y-54979357D01*
X107196299Y-54988149D01*
X107146270Y-54994506D01*
X107095502Y-54998366D01*
X107044060Y-54999667D01*
X98499668Y-54999667D01*
X98448226Y-54998366D01*
X98397458Y-54994506D01*
X98347429Y-54988149D01*
X98298200Y-54979357D01*
X98249836Y-54968195D01*
X98202398Y-54954724D01*
X98155949Y-54939008D01*
X98110552Y-54921108D01*
X98066271Y-54901089D01*
X98023167Y-54879013D01*
X97981304Y-54854942D01*
X97940744Y-54828940D01*
X97901551Y-54801069D01*
X97863787Y-54771392D01*
X97827514Y-54739972D01*
X97792796Y-54706871D01*
X97759696Y-54672154D01*
X97728276Y-54635881D01*
X97698599Y-54598117D01*
X97670728Y-54558923D01*
X97644725Y-54518364D01*
X97620655Y-54476501D01*
X97598578Y-54433397D01*
X97578559Y-54389116D01*
X97560660Y-54343719D01*
X97544943Y-54297270D01*
X97531472Y-54249832D01*
X97520310Y-54201468D01*
X97511518Y-54152239D01*
X97505161Y-54102210D01*
X97501301Y-54051443D01*
X97500000Y-54000000D01*
X97500000Y-51760647D01*
X97501301Y-51709204D01*
X97505161Y-51658437D01*
X97511518Y-51608407D01*
X97520310Y-51559179D01*
X97531472Y-51510814D01*
X97544943Y-51463376D01*
X97560660Y-51416927D01*
X97578559Y-51371531D01*
X97598578Y-51327249D01*
X97620655Y-51284146D01*
X97644725Y-51242283D01*
X97670728Y-51201723D01*
X97698599Y-51162530D01*
X97728276Y-51124765D01*
X97759696Y-51088493D01*
X97792796Y-51053775D01*
X97827514Y-51020674D01*
X97863787Y-50989254D01*
X97901551Y-50959577D01*
X97940744Y-50931706D01*
X97981304Y-50905704D01*
X98023167Y-50881633D01*
X98066271Y-50859557D01*
X98110552Y-50839538D01*
X98155949Y-50821638D01*
X98202398Y-50805922D01*
X98249836Y-50792451D01*
X98298200Y-50781288D01*
X98347429Y-50772497D01*
X98397458Y-50766140D01*
X98448226Y-50762279D01*
X98499668Y-50760979D01*
X107044060Y-50760979D01*
X107095502Y-50762279D01*
D14*
X100672608Y-51253680D02*
X100680888Y-51258777D01*
X100696797Y-51271167D01*
X100756000Y-51321172D01*
X100859202Y-51410388D01*
X100859202Y-51410389D01*
X100883108Y-51433807D01*
X100905760Y-51461382D01*
X100927179Y-51492864D01*
X100947389Y-51528006D01*
X100984263Y-51608277D01*
X101016557Y-51700212D01*
X101044444Y-51801826D01*
X101068097Y-51911135D01*
X101087691Y-52026154D01*
X101103398Y-52144900D01*
X101115394Y-52265388D01*
X101123851Y-52385634D01*
X101128943Y-52503654D01*
X101130844Y-52617464D01*
X101129727Y-52725079D01*
X101125768Y-52824516D01*
X101119138Y-52913790D01*
X101110012Y-52990917D01*
X101092637Y-53112012D01*
X101064663Y-53278279D01*
X101045008Y-53374800D01*
X101020673Y-53478353D01*
X100990980Y-53587516D01*
X100955252Y-53700870D01*
X100912811Y-53816992D01*
X100862982Y-53934464D01*
X100805086Y-54051863D01*
X100772902Y-54110092D01*
X100738447Y-54167771D01*
X100701637Y-54224721D01*
X100662387Y-54280765D01*
X100620614Y-54335726D01*
X100576231Y-54389425D01*
X100529154Y-54441687D01*
X100479299Y-54492332D01*
X100426582Y-54541183D01*
X100370917Y-54588063D01*
X100330226Y-54620213D01*
X100294646Y-54647333D01*
X100263946Y-54669636D01*
X100237897Y-54687334D01*
X100216269Y-54700637D01*
X100198833Y-54709758D01*
X100191615Y-54712816D01*
X100185359Y-54714908D01*
X100180036Y-54716060D01*
X100175617Y-54716299D01*
X100172074Y-54715651D01*
X100169379Y-54714142D01*
X100167502Y-54711800D01*
X100166414Y-54708650D01*
X100166088Y-54704719D01*
X100166493Y-54700034D01*
X100167603Y-54694620D01*
X100169387Y-54688505D01*
X100174866Y-54674276D01*
X100182700Y-54657558D01*
X100192659Y-54638562D01*
X100204515Y-54617500D01*
X100241748Y-54548315D01*
X100272466Y-54481382D01*
X100297160Y-54416599D01*
X100316323Y-54353865D01*
X100330447Y-54293074D01*
X100340024Y-54234126D01*
X100345546Y-54176917D01*
X100347504Y-54121345D01*
X100346390Y-54067306D01*
X100342697Y-54014698D01*
X100329541Y-53913365D01*
X100293921Y-53723347D01*
X100279329Y-53633019D01*
X100274559Y-53588666D01*
X100272129Y-53544716D01*
X100272531Y-53501067D01*
X100276257Y-53457615D01*
X100283799Y-53414259D01*
X100295649Y-53370894D01*
X100312299Y-53327420D01*
X100334241Y-53283732D01*
X100361966Y-53239728D01*
X100395968Y-53195306D01*
X100436736Y-53150362D01*
X100484765Y-53104794D01*
X100540545Y-53058498D01*
X100604569Y-53011373D01*
X100621311Y-52999325D01*
X100635583Y-52988218D01*
X100647498Y-52977968D01*
X100657168Y-52968492D01*
X100664705Y-52959707D01*
X100670221Y-52951532D01*
X100673830Y-52943881D01*
X100675643Y-52936673D01*
X100675772Y-52929824D01*
X100674330Y-52923251D01*
X100671429Y-52916872D01*
X100667182Y-52910604D01*
X100661700Y-52904362D01*
X100655096Y-52898065D01*
X100638972Y-52884972D01*
X100598202Y-52854465D01*
X100575353Y-52835723D01*
X100563705Y-52825189D01*
X100552059Y-52813770D01*
X100540526Y-52801382D01*
X100529218Y-52787942D01*
X100518249Y-52773367D01*
X100507730Y-52757575D01*
X100497773Y-52740482D01*
X100488492Y-52722004D01*
X100479997Y-52702061D01*
X100472402Y-52680567D01*
X100460229Y-52636742D01*
X100451878Y-52594086D01*
X100447104Y-52552511D01*
X100445663Y-52511928D01*
X100447307Y-52472250D01*
X100451794Y-52433387D01*
X100458876Y-52395252D01*
X100468309Y-52357756D01*
X100479848Y-52320810D01*
X100493247Y-52284326D01*
X100524646Y-52212392D01*
X100560544Y-52141246D01*
X100598978Y-52070181D01*
X100637987Y-51998490D01*
X100675609Y-51925466D01*
X100709881Y-51850402D01*
X100725148Y-51811884D01*
X100738843Y-51772591D01*
X100750719Y-51732435D01*
X100760531Y-51691326D01*
X100768035Y-51649178D01*
X100772984Y-51605900D01*
X100775135Y-51561406D01*
X100774241Y-51515606D01*
X100770057Y-51468413D01*
X100762338Y-51419737D01*
X100759739Y-51409017D01*
X100756099Y-51397924D01*
X100751559Y-51386563D01*
X100746258Y-51375037D01*
X100733936Y-51351913D01*
X100720258Y-51329388D01*
X100674447Y-51262016D01*
X100670836Y-51255038D01*
X100670979Y-51253604D01*
X100672608Y-51253680D01*
G36*
X100672608Y-51253680D02*
G01*
X100680888Y-51258777D01*
X100696797Y-51271167D01*
X100756000Y-51321172D01*
X100859202Y-51410388D01*
X100859202Y-51410389D01*
X100883108Y-51433807D01*
X100905760Y-51461382D01*
X100927179Y-51492864D01*
X100947389Y-51528006D01*
X100984263Y-51608277D01*
X101016557Y-51700212D01*
X101044444Y-51801826D01*
X101068097Y-51911135D01*
X101087691Y-52026154D01*
X101103398Y-52144900D01*
X101115394Y-52265388D01*
X101123851Y-52385634D01*
X101128943Y-52503654D01*
X101130844Y-52617464D01*
X101129727Y-52725079D01*
X101125768Y-52824516D01*
X101119138Y-52913790D01*
X101110012Y-52990917D01*
X101092637Y-53112012D01*
X101064663Y-53278279D01*
X101045008Y-53374800D01*
X101020673Y-53478353D01*
X100990980Y-53587516D01*
X100955252Y-53700870D01*
X100912811Y-53816992D01*
X100862982Y-53934464D01*
X100805086Y-54051863D01*
X100772902Y-54110092D01*
X100738447Y-54167771D01*
X100701637Y-54224721D01*
X100662387Y-54280765D01*
X100620614Y-54335726D01*
X100576231Y-54389425D01*
X100529154Y-54441687D01*
X100479299Y-54492332D01*
X100426582Y-54541183D01*
X100370917Y-54588063D01*
X100330226Y-54620213D01*
X100294646Y-54647333D01*
X100263946Y-54669636D01*
X100237897Y-54687334D01*
X100216269Y-54700637D01*
X100198833Y-54709758D01*
X100191615Y-54712816D01*
X100185359Y-54714908D01*
X100180036Y-54716060D01*
X100175617Y-54716299D01*
X100172074Y-54715651D01*
X100169379Y-54714142D01*
X100167502Y-54711800D01*
X100166414Y-54708650D01*
X100166088Y-54704719D01*
X100166493Y-54700034D01*
X100167603Y-54694620D01*
X100169387Y-54688505D01*
X100174866Y-54674276D01*
X100182700Y-54657558D01*
X100192659Y-54638562D01*
X100204515Y-54617500D01*
X100241748Y-54548315D01*
X100272466Y-54481382D01*
X100297160Y-54416599D01*
X100316323Y-54353865D01*
X100330447Y-54293074D01*
X100340024Y-54234126D01*
X100345546Y-54176917D01*
X100347504Y-54121345D01*
X100346390Y-54067306D01*
X100342697Y-54014698D01*
X100329541Y-53913365D01*
X100293921Y-53723347D01*
X100279329Y-53633019D01*
X100274559Y-53588666D01*
X100272129Y-53544716D01*
X100272531Y-53501067D01*
X100276257Y-53457615D01*
X100283799Y-53414259D01*
X100295649Y-53370894D01*
X100312299Y-53327420D01*
X100334241Y-53283732D01*
X100361966Y-53239728D01*
X100395968Y-53195306D01*
X100436736Y-53150362D01*
X100484765Y-53104794D01*
X100540545Y-53058498D01*
X100604569Y-53011373D01*
X100621311Y-52999325D01*
X100635583Y-52988218D01*
X100647498Y-52977968D01*
X100657168Y-52968492D01*
X100664705Y-52959707D01*
X100670221Y-52951532D01*
X100673830Y-52943881D01*
X100675643Y-52936673D01*
X100675772Y-52929824D01*
X100674330Y-52923251D01*
X100671429Y-52916872D01*
X100667182Y-52910604D01*
X100661700Y-52904362D01*
X100655096Y-52898065D01*
X100638972Y-52884972D01*
X100598202Y-52854465D01*
X100575353Y-52835723D01*
X100563705Y-52825189D01*
X100552059Y-52813770D01*
X100540526Y-52801382D01*
X100529218Y-52787942D01*
X100518249Y-52773367D01*
X100507730Y-52757575D01*
X100497773Y-52740482D01*
X100488492Y-52722004D01*
X100479997Y-52702061D01*
X100472402Y-52680567D01*
X100460229Y-52636742D01*
X100451878Y-52594086D01*
X100447104Y-52552511D01*
X100445663Y-52511928D01*
X100447307Y-52472250D01*
X100451794Y-52433387D01*
X100458876Y-52395252D01*
X100468309Y-52357756D01*
X100479848Y-52320810D01*
X100493247Y-52284326D01*
X100524646Y-52212392D01*
X100560544Y-52141246D01*
X100598978Y-52070181D01*
X100637987Y-51998490D01*
X100675609Y-51925466D01*
X100709881Y-51850402D01*
X100725148Y-51811884D01*
X100738843Y-51772591D01*
X100750719Y-51732435D01*
X100760531Y-51691326D01*
X100768035Y-51649178D01*
X100772984Y-51605900D01*
X100775135Y-51561406D01*
X100774241Y-51515606D01*
X100770057Y-51468413D01*
X100762338Y-51419737D01*
X100759739Y-51409017D01*
X100756099Y-51397924D01*
X100751559Y-51386563D01*
X100746258Y-51375037D01*
X100733936Y-51351913D01*
X100720258Y-51329388D01*
X100674447Y-51262016D01*
X100670836Y-51255038D01*
X100670979Y-51253604D01*
X100672608Y-51253680D01*
G37*
D11*
X104144000Y-59637610D02*
X103283592Y-58703453D01*
D12*
X105889397Y-57277709D02*
X105891396Y-57271192D01*
X105893360Y-57264717D01*
X105895259Y-57258388D01*
X105897124Y-57252100D01*
X105898928Y-57245951D01*
X105900699Y-57239842D01*
X105902410Y-57233865D01*
X105904089Y-57227928D01*
X105905711Y-57222117D01*
X105907302Y-57216344D01*
X105908838Y-57210693D01*
X105910344Y-57205078D01*
X105911798Y-57199580D01*
X105913221Y-57194118D01*
X105914594Y-57188767D01*
X105915938Y-57183451D01*
X105917234Y-57178242D01*
X105918500Y-57173068D01*
X105919721Y-57167996D01*
X105920913Y-57162957D01*
X105922060Y-57158018D01*
X105923180Y-57153111D01*
X105924257Y-57148299D01*
X105925307Y-57143519D01*
X105926316Y-57138831D01*
X105927297Y-57134173D01*
X105928239Y-57129605D01*
X105929155Y-57125066D01*
X105930033Y-57120613D01*
X105930884Y-57116189D01*
X105931699Y-57111848D01*
X105932489Y-57107535D01*
X105933243Y-57103302D01*
X105933972Y-57099097D01*
X105934667Y-57094969D01*
X105935337Y-57090869D01*
X105935975Y-57086843D01*
X105936587Y-57082844D01*
X105937169Y-57078917D01*
X105937726Y-57075016D01*
X105938254Y-57071184D01*
X105938757Y-57067379D01*
X105939231Y-57063641D01*
X105939682Y-57059927D01*
X105940104Y-57056280D01*
X105940504Y-57052656D01*
X105940876Y-57049096D01*
X105941225Y-57045560D01*
X105941549Y-57042086D01*
X105941849Y-57038634D01*
X105942125Y-57035243D01*
X105942379Y-57031874D01*
X105942608Y-57028563D01*
X105942815Y-57025274D01*
X105942999Y-57022041D01*
X105943161Y-57018830D01*
X105943301Y-57015674D01*
X105943419Y-57012538D01*
X105943515Y-57009456D01*
X105943591Y-57006395D01*
X105943645Y-57003384D01*
X105943679Y-57000394D01*
X105943692Y-56997454D01*
X105943685Y-56994534D01*
X105943658Y-56991662D01*
X105943612Y-56988810D01*
X105943545Y-56986004D01*
X105943460Y-56983218D01*
X105943355Y-56980477D01*
X105943231Y-56977756D01*
X105943089Y-56975078D01*
X105942928Y-56972418D01*
X105942750Y-56969802D01*
X105942552Y-56967203D01*
X105942338Y-56964646D01*
X105942105Y-56962107D01*
X105941855Y-56959608D01*
X105941587Y-56957127D01*
X105941303Y-56954684D01*
X105941001Y-56952259D01*
X105940684Y-56949872D01*
X105940348Y-56947502D01*
X105939997Y-56945168D01*
X105939629Y-56942851D01*
X105939246Y-56940569D01*
X105938845Y-56938304D01*
X105938430Y-56936073D01*
X105937997Y-56933859D01*
X105937551Y-56931677D01*
X105937087Y-56929512D01*
X105936610Y-56927379D01*
X105936116Y-56925262D01*
X105935609Y-56923175D01*
X105935084Y-56921105D01*
X105934547Y-56919064D01*
X105933993Y-56917039D01*
X105933426Y-56915044D01*
X105932842Y-56913063D01*
X105932246Y-56911110D01*
X105931634Y-56909173D01*
X105931009Y-56907263D01*
X105930368Y-56905367D01*
X105929714Y-56903498D01*
X105929045Y-56901644D01*
X105928363Y-56899815D01*
X105927666Y-56898001D01*
X105926956Y-56896211D01*
X105926231Y-56894435D01*
X105925493Y-56892684D01*
X105924740Y-56890946D01*
X105923975Y-56889232D01*
X105923195Y-56887531D01*
X105922402Y-56885853D01*
X105921594Y-56884189D01*
X105920774Y-56882546D01*
X105919938Y-56880917D01*
X105919091Y-56879309D01*
X105918228Y-56877714D01*
X105917353Y-56876139D01*
X105916463Y-56874578D01*
X105915561Y-56873037D01*
X105914643Y-56871508D01*
X105913713Y-56869999D01*
X105912768Y-56868502D01*
X105911811Y-56867024D01*
X105910838Y-56865559D01*
X105909853Y-56864111D01*
X105908853Y-56862677D01*
X105907840Y-56861260D01*
X105906812Y-56859855D01*
X105905770Y-56858467D01*
X105904714Y-56857092D01*
X105903644Y-56855733D01*
X105902560Y-56854386D01*
X105901461Y-56853055D01*
X105900348Y-56851737D01*
X105899221Y-56850434D01*
X105898078Y-56849143D01*
X105896921Y-56847867D01*
X105895749Y-56846604D01*
X105894563Y-56845354D01*
X105893361Y-56844118D01*
X105892145Y-56842894D01*
X105890913Y-56841684D01*
X105889665Y-56840487D01*
X105888402Y-56839302D01*
X105885830Y-56836972D01*
X105883193Y-56834692D01*
X105880492Y-56832462D01*
X105877725Y-56830281D01*
X105874891Y-56828150D01*
X105871988Y-56826067D01*
X105869015Y-56824032D01*
X105865970Y-56822046D01*
X105862852Y-56820107D01*
X105859659Y-56818216D01*
X105856390Y-56816374D01*
X105853042Y-56814579D01*
X105849614Y-56812832D01*
X105846104Y-56811134D01*
X105842511Y-56809484D01*
X105838831Y-56807882D01*
X105835063Y-56806330D01*
X105831205Y-56804828D01*
X105827255Y-56803376D01*
X105823210Y-56801975D01*
X105819068Y-56800625D01*
X105814827Y-56799327D01*
X105810484Y-56798081D01*
X105806037Y-56796890D01*
X105801483Y-56795753D01*
X105796820Y-56794672D01*
X105792045Y-56793647D01*
X105787155Y-56792679D01*
X105782148Y-56791770D01*
X105777020Y-56790921D01*
X105771769Y-56790133D01*
X105766392Y-56789407D01*
X105760886Y-56788745D01*
X105755247Y-56788148D01*
X105749472Y-56787617D01*
X105743559Y-56787154D01*
X105737504Y-56786760D01*
X105731303Y-56786438D01*
X105724952Y-56786188D01*
X105718450Y-56786013D01*
X105711791Y-56785913D01*
X105704972Y-56785892D01*
X105697989Y-56785951D01*
X105692733Y-56786046D01*
D11*
X103283592Y-62071408D02*
X104168582Y-61112667D01*
D12*
X105766482Y-63374311D02*
X105764310Y-63365012D01*
X105761679Y-63353510D01*
X105758090Y-63337548D01*
X105755955Y-63327919D01*
X105753601Y-63317206D01*
X105751036Y-63305417D01*
X105748266Y-63292565D01*
X105745299Y-63278658D01*
X105742141Y-63263706D01*
X105738800Y-63247721D01*
X105735282Y-63230711D01*
X105731593Y-63212687D01*
X105727743Y-63193659D01*
X105723736Y-63173638D01*
X105719580Y-63152633D01*
X105715282Y-63130655D01*
X105710848Y-63107713D01*
X105706287Y-63083818D01*
X105701604Y-63058980D01*
X105696807Y-63033208D01*
X105691902Y-63006514D01*
X105686897Y-62978907D01*
X105681799Y-62950397D01*
X105676613Y-62920995D01*
X105671348Y-62890710D01*
X105666010Y-62859553D01*
X105663316Y-62843650D01*
X105660607Y-62827533D01*
X105657882Y-62811204D01*
X105655144Y-62794662D01*
X105652393Y-62777910D01*
X105649629Y-62760948D01*
X105646855Y-62743779D01*
X105644070Y-62726403D01*
X105641275Y-62708821D01*
X105638472Y-62691036D01*
X105635661Y-62673047D01*
X105632843Y-62654857D01*
X105630019Y-62636466D01*
X105627190Y-62617877D01*
X105624356Y-62599089D01*
X105621519Y-62580105D01*
X105618679Y-62560925D01*
X105615838Y-62541552D01*
X105612996Y-62521985D01*
X105610153Y-62502227D01*
X105607312Y-62482279D01*
X105604472Y-62462142D01*
X105601635Y-62441817D01*
X105598802Y-62421306D01*
X105595972Y-62400609D01*
X105593148Y-62379729D01*
X105590330Y-62358665D01*
X105587519Y-62337421D01*
X105584716Y-62315996D01*
X105581921Y-62294392D01*
X105579136Y-62272611D01*
X105576361Y-62250653D01*
X105573598Y-62228520D01*
X105570846Y-62206214D01*
X105568108Y-62183735D01*
X105565384Y-62161084D01*
X105562674Y-62138264D01*
X105559980Y-62115275D01*
X105557302Y-62092118D01*
X105554642Y-62068795D01*
X105551999Y-62045307D01*
X105549376Y-62021655D01*
X105546773Y-61997841D01*
X105544191Y-61973865D01*
X105541630Y-61949730D01*
X105539092Y-61925436D01*
X105536577Y-61900985D01*
X105534086Y-61876377D01*
X105531621Y-61851615D01*
X105529181Y-61826699D01*
X105526768Y-61801631D01*
X105524384Y-61776412D01*
X105522027Y-61751043D01*
X105519700Y-61725525D01*
X105517404Y-61699860D01*
X105515138Y-61674049D01*
X105512905Y-61648093D01*
X105510705Y-61621994D01*
X105508538Y-61595753D01*
X105506406Y-61569371D01*
X105504310Y-61542848D01*
X105502250Y-61516188D01*
X105500227Y-61489390D01*
X105498242Y-61462457D01*
X105496296Y-61435389D01*
X105494391Y-61408187D01*
X105492525Y-61380854D01*
X105490702Y-61353389D01*
X105488921Y-61325795D01*
X105487183Y-61298073D01*
X105485489Y-61270223D01*
X105483841Y-61242248D01*
X105482238Y-61214149D01*
X105480682Y-61185926D01*
X105479174Y-61157581D01*
X105477714Y-61129115D01*
X105476304Y-61100530D01*
X105474944Y-61071827D01*
X105473635Y-61043007D01*
X105472378Y-61014071D01*
X105471174Y-60985021D01*
X105470023Y-60955857D01*
X105468927Y-60926582D01*
X105467887Y-60897196D01*
X105466903Y-60867701D01*
X105465976Y-60838098D01*
X105465107Y-60808387D01*
X105464297Y-60778572D01*
X105463547Y-60748652D01*
X105462857Y-60718629D01*
X105462229Y-60688504D01*
X105461664Y-60658279D01*
X105461161Y-60627955D01*
X105460723Y-60597532D01*
X105460350Y-60567013D01*
X105460042Y-60536399D01*
X105459801Y-60505690D01*
X105459628Y-60474888D01*
X105459523Y-60443995D01*
X105459488Y-60413012D01*
X105459523Y-60381939D01*
X105459628Y-60350778D01*
X105459806Y-60319531D01*
X105460056Y-60288199D01*
X105460381Y-60256782D01*
X105460779Y-60225283D01*
X105461253Y-60193702D01*
X105461803Y-60162041D01*
X105462431Y-60130301D01*
X105463136Y-60098483D01*
X105463920Y-60066589D01*
X105464784Y-60034620D01*
X105465728Y-60002576D01*
X105466754Y-59970460D01*
X105467298Y-59954376D01*
X105467862Y-59938273D01*
X105468447Y-59922153D01*
X105469053Y-59906015D01*
X105469680Y-59889861D01*
X105470329Y-59873689D01*
X105470998Y-59857500D01*
X105471689Y-59841295D01*
X105472401Y-59825073D01*
X105473135Y-59808834D01*
X105473890Y-59792580D01*
X105474667Y-59776309D01*
X105475466Y-59760022D01*
X105476287Y-59743720D01*
X105477131Y-59727401D01*
X105477996Y-59711068D01*
X105478884Y-59694719D01*
X105479794Y-59678355D01*
X105480726Y-59661975D01*
X105481681Y-59645581D01*
X105482659Y-59629173D01*
X105483660Y-59612749D01*
X105484684Y-59596312D01*
X105485731Y-59579860D01*
X105486801Y-59563394D01*
X105487894Y-59546914D01*
X105489011Y-59530421D01*
X105490151Y-59513914D01*
X105491315Y-59497393D01*
X105492502Y-59480859D01*
X105493714Y-59464312D01*
X105494949Y-59447752D01*
X105496208Y-59431180D01*
X105497492Y-59414595D01*
X105498799Y-59397997D01*
X105500131Y-59381387D01*
X105501488Y-59364764D01*
X105502869Y-59348130D01*
X105504275Y-59331484D01*
X105505706Y-59314826D01*
X105507161Y-59298157D01*
X105508642Y-59281476D01*
X105510147Y-59264784D01*
X105511678Y-59248081D01*
X105513235Y-59231367D01*
X105514816Y-59214643D01*
X105516424Y-59197908D01*
X105518056Y-59181162D01*
X105519715Y-59164406D01*
X105521400Y-59147640D01*
X105523110Y-59130864D01*
X105524847Y-59114079D01*
X105526610Y-59097283D01*
X105528399Y-59080478D01*
X105530215Y-59063664D01*
X105532057Y-59046841D01*
X105533926Y-59030009D01*
X105535821Y-59013168D01*
X105537743Y-58996318D01*
X105539693Y-58979459D01*
X105541669Y-58962593D01*
X105543673Y-58945718D01*
X105545704Y-58928835D01*
X105547762Y-58911944D01*
X105549848Y-58895045D01*
X105551961Y-58878139D01*
X105554102Y-58861226D01*
X105556271Y-58844305D01*
X105558468Y-58827377D01*
X105560693Y-58810442D01*
X105562946Y-58793500D01*
X105565228Y-58776552D01*
X105567538Y-58759597D01*
X105569876Y-58742636D01*
X105572243Y-58725669D01*
X105574638Y-58708695D01*
X105577063Y-58691716D01*
X105579516Y-58674732D01*
X105581998Y-58657741D01*
X105584509Y-58640746D01*
X105587050Y-58623745D01*
X105589620Y-58606739D01*
X105592219Y-58589728D01*
X105594849Y-58572712D01*
X105597507Y-58555692D01*
X105600196Y-58538668D01*
X105602914Y-58521639D01*
X105605662Y-58504606D01*
X105608441Y-58487569D01*
X105611249Y-58470529D01*
X105614088Y-58453484D01*
X105616958Y-58436437D01*
X105619858Y-58419386D01*
X105622788Y-58402331D01*
X105625750Y-58385274D01*
X105628742Y-58368214D01*
X105631765Y-58351152D01*
X105634820Y-58334086D01*
X105637905Y-58317019D01*
X105641022Y-58299949D01*
X105644170Y-58282877D01*
X105647350Y-58265804D01*
X105650561Y-58248728D01*
X105653804Y-58231651D01*
X105657079Y-58214573D01*
X105660386Y-58197493D01*
X105663725Y-58180412D01*
X105667096Y-58163331D01*
X105670499Y-58146248D01*
X105673935Y-58129165D01*
X105677403Y-58112081D01*
X105680904Y-58094998D01*
X105684437Y-58077914D01*
X105688003Y-58060830D01*
X105691603Y-58043746D01*
X105695235Y-58026662D01*
X105698900Y-58009579D01*
X105702599Y-57992497D01*
X105706331Y-57975415D01*
X105710096Y-57958335D01*
X105713895Y-57941255D01*
X105717728Y-57924177D01*
X105721594Y-57907100D01*
X105725495Y-57890025D01*
X105729429Y-57872951D01*
X105733398Y-57855880D01*
X105737400Y-57838810D01*
X105741437Y-57821743D01*
X105745509Y-57804678D01*
X105749615Y-57787616D01*
X105753756Y-57770556D01*
X105757931Y-57753499D01*
X105762141Y-57736445D01*
X105766387Y-57719395D01*
X105770667Y-57702347D01*
X105774983Y-57685304D01*
X105779334Y-57668263D01*
X105783720Y-57651227D01*
X105788142Y-57634195D01*
X105792599Y-57617166D01*
X105797092Y-57600142D01*
X105801621Y-57583123D01*
X105806186Y-57566108D01*
X105810787Y-57549098D01*
X105815425Y-57532092D01*
X105820098Y-57515092D01*
X105824808Y-57498097D01*
X105829554Y-57481107D01*
X105834337Y-57464123D01*
X105839157Y-57447145D01*
X105844014Y-57430172D01*
X105848907Y-57413206D01*
X105853838Y-57396245D01*
X105858805Y-57379291D01*
X105863810Y-57362344D01*
X105868852Y-57345403D01*
X105873932Y-57328469D01*
X105879049Y-57311542D01*
X105884204Y-57294622D01*
X105889397Y-57277709D01*
D10*
X93605752Y-74732455D02*
X94415276Y-74732455D01*
X94415276Y-74732455D02*
X94510514Y-74684836D01*
X94510514Y-74684836D02*
X94558133Y-74637217D01*
X94558133Y-74637217D02*
X94605752Y-74541979D01*
X94605752Y-74541979D02*
X94605752Y-74399122D01*
X94605752Y-74399122D02*
X94558133Y-74303884D01*
X94224800Y-74732455D02*
X94272419Y-74637217D01*
X94272419Y-74637217D02*
X94272419Y-74446741D01*
X94272419Y-74446741D02*
X94224800Y-74351503D01*
X94224800Y-74351503D02*
X94177180Y-74303884D01*
X94177180Y-74303884D02*
X94081942Y-74256265D01*
X94081942Y-74256265D02*
X93796228Y-74256265D01*
X93796228Y-74256265D02*
X93700990Y-74303884D01*
X93700990Y-74303884D02*
X93653371Y-74351503D01*
X93653371Y-74351503D02*
X93605752Y-74446741D01*
X93605752Y-74446741D02*
X93605752Y-74637217D01*
X93605752Y-74637217D02*
X93653371Y-74732455D01*
X94272419Y-75208646D02*
X93605752Y-75208646D01*
X93272419Y-75208646D02*
X93320038Y-75161027D01*
X93320038Y-75161027D02*
X93367657Y-75208646D01*
X93367657Y-75208646D02*
X93320038Y-75256265D01*
X93320038Y-75256265D02*
X93272419Y-75208646D01*
X93272419Y-75208646D02*
X93367657Y-75208646D01*
X93605752Y-75541979D02*
X93605752Y-75922931D01*
X93272419Y-75684836D02*
X94129561Y-75684836D01*
X94129561Y-75684836D02*
X94224800Y-75732455D01*
X94224800Y-75732455D02*
X94272419Y-75827693D01*
X94272419Y-75827693D02*
X94272419Y-75922931D01*
X94272419Y-76256265D02*
X93272419Y-76256265D01*
X94272419Y-76684836D02*
X93748609Y-76684836D01*
X93748609Y-76684836D02*
X93653371Y-76637217D01*
X93653371Y-76637217D02*
X93605752Y-76541979D01*
X93605752Y-76541979D02*
X93605752Y-76399122D01*
X93605752Y-76399122D02*
X93653371Y-76303884D01*
X93653371Y-76303884D02*
X93700990Y-76256265D01*
X93605752Y-77589598D02*
X94272419Y-77589598D01*
X93605752Y-77161027D02*
X94129561Y-77161027D01*
X94129561Y-77161027D02*
X94224800Y-77208646D01*
X94224800Y-77208646D02*
X94272419Y-77303884D01*
X94272419Y-77303884D02*
X94272419Y-77446741D01*
X94272419Y-77446741D02*
X94224800Y-77541979D01*
X94224800Y-77541979D02*
X94177180Y-77589598D01*
X94272419Y-78065789D02*
X93272419Y-78065789D01*
X93653371Y-78065789D02*
X93605752Y-78161027D01*
X93605752Y-78161027D02*
X93605752Y-78351503D01*
X93605752Y-78351503D02*
X93653371Y-78446741D01*
X93653371Y-78446741D02*
X93700990Y-78494360D01*
X93700990Y-78494360D02*
X93796228Y-78541979D01*
X93796228Y-78541979D02*
X94081942Y-78541979D01*
X94081942Y-78541979D02*
X94177180Y-78494360D01*
X94177180Y-78494360D02*
X94224800Y-78446741D01*
X94224800Y-78446741D02*
X94272419Y-78351503D01*
X94272419Y-78351503D02*
X94272419Y-78161027D01*
X94272419Y-78161027D02*
X94224800Y-78065789D01*
X94177180Y-78970551D02*
X94224800Y-79018170D01*
X94224800Y-79018170D02*
X94272419Y-78970551D01*
X94272419Y-78970551D02*
X94224800Y-78922932D01*
X94224800Y-78922932D02*
X94177180Y-78970551D01*
X94177180Y-78970551D02*
X94272419Y-78970551D01*
X94224800Y-79875312D02*
X94272419Y-79780074D01*
X94272419Y-79780074D02*
X94272419Y-79589598D01*
X94272419Y-79589598D02*
X94224800Y-79494360D01*
X94224800Y-79494360D02*
X94177180Y-79446741D01*
X94177180Y-79446741D02*
X94081942Y-79399122D01*
X94081942Y-79399122D02*
X93796228Y-79399122D01*
X93796228Y-79399122D02*
X93700990Y-79446741D01*
X93700990Y-79446741D02*
X93653371Y-79494360D01*
X93653371Y-79494360D02*
X93605752Y-79589598D01*
X93605752Y-79589598D02*
X93605752Y-79780074D01*
X93605752Y-79780074D02*
X93653371Y-79875312D01*
X94272419Y-80446741D02*
X94224800Y-80351503D01*
X94224800Y-80351503D02*
X94177180Y-80303884D01*
X94177180Y-80303884D02*
X94081942Y-80256265D01*
X94081942Y-80256265D02*
X93796228Y-80256265D01*
X93796228Y-80256265D02*
X93700990Y-80303884D01*
X93700990Y-80303884D02*
X93653371Y-80351503D01*
X93653371Y-80351503D02*
X93605752Y-80446741D01*
X93605752Y-80446741D02*
X93605752Y-80589598D01*
X93605752Y-80589598D02*
X93653371Y-80684836D01*
X93653371Y-80684836D02*
X93700990Y-80732455D01*
X93700990Y-80732455D02*
X93796228Y-80780074D01*
X93796228Y-80780074D02*
X94081942Y-80780074D01*
X94081942Y-80780074D02*
X94177180Y-80732455D01*
X94177180Y-80732455D02*
X94224800Y-80684836D01*
X94224800Y-80684836D02*
X94272419Y-80589598D01*
X94272419Y-80589598D02*
X94272419Y-80446741D01*
X94272419Y-81208646D02*
X93605752Y-81208646D01*
X93700990Y-81208646D02*
X93653371Y-81256265D01*
X93653371Y-81256265D02*
X93605752Y-81351503D01*
X93605752Y-81351503D02*
X93605752Y-81494360D01*
X93605752Y-81494360D02*
X93653371Y-81589598D01*
X93653371Y-81589598D02*
X93748609Y-81637217D01*
X93748609Y-81637217D02*
X94272419Y-81637217D01*
X93748609Y-81637217D02*
X93653371Y-81684836D01*
X93653371Y-81684836D02*
X93605752Y-81780074D01*
X93605752Y-81780074D02*
X93605752Y-81922931D01*
X93605752Y-81922931D02*
X93653371Y-82018170D01*
X93653371Y-82018170D02*
X93748609Y-82065789D01*
X93748609Y-82065789D02*
X94272419Y-82065789D01*
X93224800Y-83256264D02*
X94510514Y-82399122D01*
X94272419Y-83589598D02*
X93272419Y-83589598D01*
X93272419Y-83589598D02*
X93272419Y-83827693D01*
X93272419Y-83827693D02*
X93320038Y-83970550D01*
X93320038Y-83970550D02*
X93415276Y-84065788D01*
X93415276Y-84065788D02*
X93510514Y-84113407D01*
X93510514Y-84113407D02*
X93700990Y-84161026D01*
X93700990Y-84161026D02*
X93843847Y-84161026D01*
X93843847Y-84161026D02*
X94034323Y-84113407D01*
X94034323Y-84113407D02*
X94129561Y-84065788D01*
X94129561Y-84065788D02*
X94224800Y-83970550D01*
X94224800Y-83970550D02*
X94272419Y-83827693D01*
X94272419Y-83827693D02*
X94272419Y-83589598D01*
X94272419Y-84589598D02*
X93605752Y-84589598D01*
X93796228Y-84589598D02*
X93700990Y-84637217D01*
X93700990Y-84637217D02*
X93653371Y-84684836D01*
X93653371Y-84684836D02*
X93605752Y-84780074D01*
X93605752Y-84780074D02*
X93605752Y-84875312D01*
X93320038Y-85732455D02*
X93272419Y-85637217D01*
X93272419Y-85637217D02*
X93272419Y-85494360D01*
X93272419Y-85494360D02*
X93320038Y-85351503D01*
X93320038Y-85351503D02*
X93415276Y-85256265D01*
X93415276Y-85256265D02*
X93510514Y-85208646D01*
X93510514Y-85208646D02*
X93700990Y-85161027D01*
X93700990Y-85161027D02*
X93843847Y-85161027D01*
X93843847Y-85161027D02*
X94034323Y-85208646D01*
X94034323Y-85208646D02*
X94129561Y-85256265D01*
X94129561Y-85256265D02*
X94224800Y-85351503D01*
X94224800Y-85351503D02*
X94272419Y-85494360D01*
X94272419Y-85494360D02*
X94272419Y-85589598D01*
X94272419Y-85589598D02*
X94224800Y-85732455D01*
X94224800Y-85732455D02*
X94177180Y-85780074D01*
X94177180Y-85780074D02*
X93843847Y-85780074D01*
X93843847Y-85780074D02*
X93843847Y-85589598D01*
X94272419Y-86351503D02*
X94224800Y-86256265D01*
X94224800Y-86256265D02*
X94129561Y-86208646D01*
X94129561Y-86208646D02*
X93272419Y-86208646D01*
X94272419Y-87161027D02*
X93748609Y-87161027D01*
X93748609Y-87161027D02*
X93653371Y-87113408D01*
X93653371Y-87113408D02*
X93605752Y-87018170D01*
X93605752Y-87018170D02*
X93605752Y-86827694D01*
X93605752Y-86827694D02*
X93653371Y-86732456D01*
X94224800Y-87161027D02*
X94272419Y-87065789D01*
X94272419Y-87065789D02*
X94272419Y-86827694D01*
X94272419Y-86827694D02*
X94224800Y-86732456D01*
X94224800Y-86732456D02*
X94129561Y-86684837D01*
X94129561Y-86684837D02*
X94034323Y-86684837D01*
X94034323Y-86684837D02*
X93939085Y-86732456D01*
X93939085Y-86732456D02*
X93891466Y-86827694D01*
X93891466Y-86827694D02*
X93891466Y-87065789D01*
X93891466Y-87065789D02*
X93843847Y-87161027D01*
X93605752Y-88065789D02*
X94272419Y-88065789D01*
X93605752Y-87637218D02*
X94129561Y-87637218D01*
X94129561Y-87637218D02*
X94224800Y-87684837D01*
X94224800Y-87684837D02*
X94272419Y-87780075D01*
X94272419Y-87780075D02*
X94272419Y-87922932D01*
X94272419Y-87922932D02*
X94224800Y-88018170D01*
X94224800Y-88018170D02*
X94177180Y-88065789D01*
X94224800Y-88970551D02*
X94272419Y-88875313D01*
X94272419Y-88875313D02*
X94272419Y-88684837D01*
X94272419Y-88684837D02*
X94224800Y-88589599D01*
X94224800Y-88589599D02*
X94177180Y-88541980D01*
X94177180Y-88541980D02*
X94081942Y-88494361D01*
X94081942Y-88494361D02*
X93796228Y-88494361D01*
X93796228Y-88494361D02*
X93700990Y-88541980D01*
X93700990Y-88541980D02*
X93653371Y-88589599D01*
X93653371Y-88589599D02*
X93605752Y-88684837D01*
X93605752Y-88684837D02*
X93605752Y-88875313D01*
X93605752Y-88875313D02*
X93653371Y-88970551D01*
X94272419Y-89541980D02*
X94224800Y-89446742D01*
X94224800Y-89446742D02*
X94177180Y-89399123D01*
X94177180Y-89399123D02*
X94081942Y-89351504D01*
X94081942Y-89351504D02*
X93796228Y-89351504D01*
X93796228Y-89351504D02*
X93700990Y-89399123D01*
X93700990Y-89399123D02*
X93653371Y-89446742D01*
X93653371Y-89446742D02*
X93605752Y-89541980D01*
X93605752Y-89541980D02*
X93605752Y-89684837D01*
X93605752Y-89684837D02*
X93653371Y-89780075D01*
X93653371Y-89780075D02*
X93700990Y-89827694D01*
X93700990Y-89827694D02*
X93796228Y-89875313D01*
X93796228Y-89875313D02*
X94081942Y-89875313D01*
X94081942Y-89875313D02*
X94177180Y-89827694D01*
X94177180Y-89827694D02*
X94224800Y-89780075D01*
X94224800Y-89780075D02*
X94272419Y-89684837D01*
X94272419Y-89684837D02*
X94272419Y-89541980D01*
X93605752Y-90732456D02*
X94272419Y-90732456D01*
X93605752Y-90303885D02*
X94129561Y-90303885D01*
X94129561Y-90303885D02*
X94224800Y-90351504D01*
X94224800Y-90351504D02*
X94272419Y-90446742D01*
X94272419Y-90446742D02*
X94272419Y-90589599D01*
X94272419Y-90589599D02*
X94224800Y-90684837D01*
X94224800Y-90684837D02*
X94177180Y-90732456D01*
X94224800Y-91161028D02*
X94272419Y-91256266D01*
X94272419Y-91256266D02*
X94272419Y-91446742D01*
X94272419Y-91446742D02*
X94224800Y-91541980D01*
X94224800Y-91541980D02*
X94129561Y-91589599D01*
X94129561Y-91589599D02*
X94081942Y-91589599D01*
X94081942Y-91589599D02*
X93986704Y-91541980D01*
X93986704Y-91541980D02*
X93939085Y-91446742D01*
X93939085Y-91446742D02*
X93939085Y-91303885D01*
X93939085Y-91303885D02*
X93891466Y-91208647D01*
X93891466Y-91208647D02*
X93796228Y-91161028D01*
X93796228Y-91161028D02*
X93748609Y-91161028D01*
X93748609Y-91161028D02*
X93653371Y-91208647D01*
X93653371Y-91208647D02*
X93605752Y-91303885D01*
X93605752Y-91303885D02*
X93605752Y-91446742D01*
X93605752Y-91446742D02*
X93653371Y-91541980D01*
X93224800Y-92732456D02*
X94510514Y-91875314D01*
X93272419Y-93065790D02*
X94081942Y-93065790D01*
X94081942Y-93065790D02*
X94177180Y-93113409D01*
X94177180Y-93113409D02*
X94224800Y-93161028D01*
X94224800Y-93161028D02*
X94272419Y-93256266D01*
X94272419Y-93256266D02*
X94272419Y-93446742D01*
X94272419Y-93446742D02*
X94224800Y-93541980D01*
X94224800Y-93541980D02*
X94177180Y-93589599D01*
X94177180Y-93589599D02*
X94081942Y-93637218D01*
X94081942Y-93637218D02*
X93272419Y-93637218D01*
X93748609Y-94446742D02*
X93748609Y-94113409D01*
X94272419Y-94113409D02*
X93272419Y-94113409D01*
X93272419Y-94113409D02*
X93272419Y-94589599D01*
X93748609Y-95303885D02*
X93796228Y-95446742D01*
X93796228Y-95446742D02*
X93843847Y-95494361D01*
X93843847Y-95494361D02*
X93939085Y-95541980D01*
X93939085Y-95541980D02*
X94081942Y-95541980D01*
X94081942Y-95541980D02*
X94177180Y-95494361D01*
X94177180Y-95494361D02*
X94224800Y-95446742D01*
X94224800Y-95446742D02*
X94272419Y-95351504D01*
X94272419Y-95351504D02*
X94272419Y-94970552D01*
X94272419Y-94970552D02*
X93272419Y-94970552D01*
X93272419Y-94970552D02*
X93272419Y-95303885D01*
X93272419Y-95303885D02*
X93320038Y-95399123D01*
X93320038Y-95399123D02*
X93367657Y-95446742D01*
X93367657Y-95446742D02*
X93462895Y-95494361D01*
X93462895Y-95494361D02*
X93558133Y-95494361D01*
X93558133Y-95494361D02*
X93653371Y-95446742D01*
X93653371Y-95446742D02*
X93700990Y-95399123D01*
X93700990Y-95399123D02*
X93748609Y-95303885D01*
X93748609Y-95303885D02*
X93748609Y-94970552D01*
X93272419Y-95827695D02*
X93272419Y-96399123D01*
X94272419Y-96113409D02*
X93272419Y-96113409D01*
X94272419Y-96732457D02*
X93272419Y-96732457D01*
X93272419Y-96732457D02*
X93986704Y-97065790D01*
X93986704Y-97065790D02*
X93272419Y-97399123D01*
X93272419Y-97399123D02*
X94272419Y-97399123D01*
X120917625Y-139828384D02*
X120917625Y-139256956D01*
X119917625Y-139542670D02*
X120917625Y-139542670D01*
X120584292Y-139018860D02*
X119917625Y-138780765D01*
X120584292Y-138542670D02*
X119917625Y-138780765D01*
X119917625Y-138780765D02*
X119679530Y-138876003D01*
X119679530Y-138876003D02*
X119631911Y-138923622D01*
X119631911Y-138923622D02*
X119584292Y-139018860D01*
X120584292Y-138161717D02*
X119584292Y-138161717D01*
X120536673Y-138161717D02*
X120584292Y-138066479D01*
X120584292Y-138066479D02*
X120584292Y-137876003D01*
X120584292Y-137876003D02*
X120536673Y-137780765D01*
X120536673Y-137780765D02*
X120489054Y-137733146D01*
X120489054Y-137733146D02*
X120393816Y-137685527D01*
X120393816Y-137685527D02*
X120108102Y-137685527D01*
X120108102Y-137685527D02*
X120012864Y-137733146D01*
X120012864Y-137733146D02*
X119965245Y-137780765D01*
X119965245Y-137780765D02*
X119917625Y-137876003D01*
X119917625Y-137876003D02*
X119917625Y-138066479D01*
X119917625Y-138066479D02*
X119965245Y-138161717D01*
X119965245Y-136876003D02*
X119917625Y-136971241D01*
X119917625Y-136971241D02*
X119917625Y-137161717D01*
X119917625Y-137161717D02*
X119965245Y-137256955D01*
X119965245Y-137256955D02*
X120060483Y-137304574D01*
X120060483Y-137304574D02*
X120441435Y-137304574D01*
X120441435Y-137304574D02*
X120536673Y-137256955D01*
X120536673Y-137256955D02*
X120584292Y-137161717D01*
X120584292Y-137161717D02*
X120584292Y-136971241D01*
X120584292Y-136971241D02*
X120536673Y-136876003D01*
X120536673Y-136876003D02*
X120441435Y-136828384D01*
X120441435Y-136828384D02*
X120346197Y-136828384D01*
X120346197Y-136828384D02*
X120250959Y-137304574D01*
X120441435Y-135304574D02*
X120393816Y-135161717D01*
X120393816Y-135161717D02*
X120346197Y-135114098D01*
X120346197Y-135114098D02*
X120250959Y-135066479D01*
X120250959Y-135066479D02*
X120108102Y-135066479D01*
X120108102Y-135066479D02*
X120012864Y-135114098D01*
X120012864Y-135114098D02*
X119965245Y-135161717D01*
X119965245Y-135161717D02*
X119917625Y-135256955D01*
X119917625Y-135256955D02*
X119917625Y-135637907D01*
X119917625Y-135637907D02*
X120917625Y-135637907D01*
X120917625Y-135637907D02*
X120917625Y-135304574D01*
X120917625Y-135304574D02*
X120870006Y-135209336D01*
X120870006Y-135209336D02*
X120822387Y-135161717D01*
X120822387Y-135161717D02*
X120727149Y-135114098D01*
X120727149Y-135114098D02*
X120631911Y-135114098D01*
X120631911Y-135114098D02*
X120536673Y-135161717D01*
X120536673Y-135161717D02*
X120489054Y-135209336D01*
X120489054Y-135209336D02*
X120441435Y-135304574D01*
X120441435Y-135304574D02*
X120441435Y-135637907D01*
X118307681Y-139114099D02*
X118783872Y-139447432D01*
X118307681Y-139685527D02*
X119307681Y-139685527D01*
X119307681Y-139685527D02*
X119307681Y-139304575D01*
X119307681Y-139304575D02*
X119260062Y-139209337D01*
X119260062Y-139209337D02*
X119212443Y-139161718D01*
X119212443Y-139161718D02*
X119117205Y-139114099D01*
X119117205Y-139114099D02*
X118974348Y-139114099D01*
X118974348Y-139114099D02*
X118879110Y-139161718D01*
X118879110Y-139161718D02*
X118831491Y-139209337D01*
X118831491Y-139209337D02*
X118783872Y-139304575D01*
X118783872Y-139304575D02*
X118783872Y-139685527D01*
X118355301Y-138304575D02*
X118307681Y-138399813D01*
X118307681Y-138399813D02*
X118307681Y-138590289D01*
X118307681Y-138590289D02*
X118355301Y-138685527D01*
X118355301Y-138685527D02*
X118450539Y-138733146D01*
X118450539Y-138733146D02*
X118831491Y-138733146D01*
X118831491Y-138733146D02*
X118926729Y-138685527D01*
X118926729Y-138685527D02*
X118974348Y-138590289D01*
X118974348Y-138590289D02*
X118974348Y-138399813D01*
X118974348Y-138399813D02*
X118926729Y-138304575D01*
X118926729Y-138304575D02*
X118831491Y-138256956D01*
X118831491Y-138256956D02*
X118736253Y-138256956D01*
X118736253Y-138256956D02*
X118641015Y-138733146D01*
X118974348Y-137923622D02*
X118307681Y-137685527D01*
X118307681Y-137685527D02*
X118974348Y-137447432D01*
X118402920Y-137066479D02*
X118355301Y-137018860D01*
X118355301Y-137018860D02*
X118307681Y-137066479D01*
X118307681Y-137066479D02*
X118355301Y-137114098D01*
X118355301Y-137114098D02*
X118402920Y-137066479D01*
X118402920Y-137066479D02*
X118307681Y-137066479D01*
X118307681Y-135304575D02*
X118307681Y-135876003D01*
X118307681Y-135590289D02*
X119307681Y-135590289D01*
X119307681Y-135590289D02*
X119164824Y-135685527D01*
X119164824Y-135685527D02*
X119069586Y-135780765D01*
X119069586Y-135780765D02*
X119021967Y-135876003D01*
X118402920Y-134876003D02*
X118355301Y-134828384D01*
X118355301Y-134828384D02*
X118307681Y-134876003D01*
X118307681Y-134876003D02*
X118355301Y-134923622D01*
X118355301Y-134923622D02*
X118402920Y-134876003D01*
X118402920Y-134876003D02*
X118307681Y-134876003D01*
X119307681Y-134209337D02*
X119307681Y-134114099D01*
X119307681Y-134114099D02*
X119260062Y-134018861D01*
X119260062Y-134018861D02*
X119212443Y-133971242D01*
X119212443Y-133971242D02*
X119117205Y-133923623D01*
X119117205Y-133923623D02*
X118926729Y-133876004D01*
X118926729Y-133876004D02*
X118688634Y-133876004D01*
X118688634Y-133876004D02*
X118498158Y-133923623D01*
X118498158Y-133923623D02*
X118402920Y-133971242D01*
X118402920Y-133971242D02*
X118355301Y-134018861D01*
X118355301Y-134018861D02*
X118307681Y-134114099D01*
X118307681Y-134114099D02*
X118307681Y-134209337D01*
X118307681Y-134209337D02*
X118355301Y-134304575D01*
X118355301Y-134304575D02*
X118402920Y-134352194D01*
X118402920Y-134352194D02*
X118498158Y-134399813D01*
X118498158Y-134399813D02*
X118688634Y-134447432D01*
X118688634Y-134447432D02*
X118926729Y-134447432D01*
X118926729Y-134447432D02*
X119117205Y-134399813D01*
X119117205Y-134399813D02*
X119212443Y-134352194D01*
X119212443Y-134352194D02*
X119260062Y-134304575D01*
X119260062Y-134304575D02*
X119307681Y-134209337D01*
X96962475Y-73861027D02*
X96962475Y-74432455D01*
X97962475Y-74146741D02*
X96962475Y-74146741D01*
X97295808Y-74670551D02*
X97962475Y-74908646D01*
X97295808Y-75146741D02*
X97962475Y-74908646D01*
X97962475Y-74908646D02*
X98200570Y-74813408D01*
X98200570Y-74813408D02*
X98248189Y-74765789D01*
X98248189Y-74765789D02*
X98295808Y-74670551D01*
X97295808Y-75527694D02*
X98295808Y-75527694D01*
X97343427Y-75527694D02*
X97295808Y-75622932D01*
X97295808Y-75622932D02*
X97295808Y-75813408D01*
X97295808Y-75813408D02*
X97343427Y-75908646D01*
X97343427Y-75908646D02*
X97391046Y-75956265D01*
X97391046Y-75956265D02*
X97486284Y-76003884D01*
X97486284Y-76003884D02*
X97771998Y-76003884D01*
X97771998Y-76003884D02*
X97867236Y-75956265D01*
X97867236Y-75956265D02*
X97914856Y-75908646D01*
X97914856Y-75908646D02*
X97962475Y-75813408D01*
X97962475Y-75813408D02*
X97962475Y-75622932D01*
X97962475Y-75622932D02*
X97914856Y-75527694D01*
X97914856Y-76813408D02*
X97962475Y-76718170D01*
X97962475Y-76718170D02*
X97962475Y-76527694D01*
X97962475Y-76527694D02*
X97914856Y-76432456D01*
X97914856Y-76432456D02*
X97819617Y-76384837D01*
X97819617Y-76384837D02*
X97438665Y-76384837D01*
X97438665Y-76384837D02*
X97343427Y-76432456D01*
X97343427Y-76432456D02*
X97295808Y-76527694D01*
X97295808Y-76527694D02*
X97295808Y-76718170D01*
X97295808Y-76718170D02*
X97343427Y-76813408D01*
X97343427Y-76813408D02*
X97438665Y-76861027D01*
X97438665Y-76861027D02*
X97533903Y-76861027D01*
X97533903Y-76861027D02*
X97629141Y-76384837D01*
X97867236Y-78622932D02*
X97914856Y-78575313D01*
X97914856Y-78575313D02*
X97962475Y-78432456D01*
X97962475Y-78432456D02*
X97962475Y-78337218D01*
X97962475Y-78337218D02*
X97914856Y-78194361D01*
X97914856Y-78194361D02*
X97819617Y-78099123D01*
X97819617Y-78099123D02*
X97724379Y-78051504D01*
X97724379Y-78051504D02*
X97533903Y-78003885D01*
X97533903Y-78003885D02*
X97391046Y-78003885D01*
X97391046Y-78003885D02*
X97200570Y-78051504D01*
X97200570Y-78051504D02*
X97105332Y-78099123D01*
X97105332Y-78099123D02*
X97010094Y-78194361D01*
X97010094Y-78194361D02*
X96962475Y-78337218D01*
X96962475Y-78337218D02*
X96962475Y-78432456D01*
X96962475Y-78432456D02*
X97010094Y-78575313D01*
X97010094Y-78575313D02*
X97057713Y-78622932D01*
X99572419Y-74575312D02*
X99096228Y-74241979D01*
X99572419Y-74003884D02*
X98572419Y-74003884D01*
X98572419Y-74003884D02*
X98572419Y-74384836D01*
X98572419Y-74384836D02*
X98620038Y-74480074D01*
X98620038Y-74480074D02*
X98667657Y-74527693D01*
X98667657Y-74527693D02*
X98762895Y-74575312D01*
X98762895Y-74575312D02*
X98905752Y-74575312D01*
X98905752Y-74575312D02*
X99000990Y-74527693D01*
X99000990Y-74527693D02*
X99048609Y-74480074D01*
X99048609Y-74480074D02*
X99096228Y-74384836D01*
X99096228Y-74384836D02*
X99096228Y-74003884D01*
X99524800Y-75384836D02*
X99572419Y-75289598D01*
X99572419Y-75289598D02*
X99572419Y-75099122D01*
X99572419Y-75099122D02*
X99524800Y-75003884D01*
X99524800Y-75003884D02*
X99429561Y-74956265D01*
X99429561Y-74956265D02*
X99048609Y-74956265D01*
X99048609Y-74956265D02*
X98953371Y-75003884D01*
X98953371Y-75003884D02*
X98905752Y-75099122D01*
X98905752Y-75099122D02*
X98905752Y-75289598D01*
X98905752Y-75289598D02*
X98953371Y-75384836D01*
X98953371Y-75384836D02*
X99048609Y-75432455D01*
X99048609Y-75432455D02*
X99143847Y-75432455D01*
X99143847Y-75432455D02*
X99239085Y-74956265D01*
X98905752Y-75765789D02*
X99572419Y-76003884D01*
X99572419Y-76003884D02*
X98905752Y-76241979D01*
X99477180Y-76622932D02*
X99524800Y-76670551D01*
X99524800Y-76670551D02*
X99572419Y-76622932D01*
X99572419Y-76622932D02*
X99524800Y-76575313D01*
X99524800Y-76575313D02*
X99477180Y-76622932D01*
X99477180Y-76622932D02*
X99572419Y-76622932D01*
X99572419Y-78384836D02*
X99572419Y-77813408D01*
X99572419Y-78099122D02*
X98572419Y-78099122D01*
X98572419Y-78099122D02*
X98715276Y-78003884D01*
X98715276Y-78003884D02*
X98810514Y-77908646D01*
X98810514Y-77908646D02*
X98858133Y-77813408D01*
X99477180Y-78813408D02*
X99524800Y-78861027D01*
X99524800Y-78861027D02*
X99572419Y-78813408D01*
X99572419Y-78813408D02*
X99524800Y-78765789D01*
X99524800Y-78765789D02*
X99477180Y-78813408D01*
X99477180Y-78813408D02*
X99572419Y-78813408D01*
X98572419Y-79480074D02*
X98572419Y-79575312D01*
X98572419Y-79575312D02*
X98620038Y-79670550D01*
X98620038Y-79670550D02*
X98667657Y-79718169D01*
X98667657Y-79718169D02*
X98762895Y-79765788D01*
X98762895Y-79765788D02*
X98953371Y-79813407D01*
X98953371Y-79813407D02*
X99191466Y-79813407D01*
X99191466Y-79813407D02*
X99381942Y-79765788D01*
X99381942Y-79765788D02*
X99477180Y-79718169D01*
X99477180Y-79718169D02*
X99524800Y-79670550D01*
X99524800Y-79670550D02*
X99572419Y-79575312D01*
X99572419Y-79575312D02*
X99572419Y-79480074D01*
X99572419Y-79480074D02*
X99524800Y-79384836D01*
X99524800Y-79384836D02*
X99477180Y-79337217D01*
X99477180Y-79337217D02*
X99381942Y-79289598D01*
X99381942Y-79289598D02*
X99191466Y-79241979D01*
X99191466Y-79241979D02*
X98953371Y-79241979D01*
X98953371Y-79241979D02*
X98762895Y-79289598D01*
X98762895Y-79289598D02*
X98667657Y-79337217D01*
X98667657Y-79337217D02*
X98620038Y-79384836D01*
X98620038Y-79384836D02*
X98572419Y-79480074D01*
G36*
X93353420Y-108829724D02*
G01*
X92276906Y-108829724D01*
X92276906Y-108272332D01*
X92388017Y-108272332D01*
X92388017Y-108310600D01*
X92415077Y-108337660D01*
X92434211Y-108341466D01*
X92765163Y-108341466D01*
X92765163Y-108672419D01*
X92768969Y-108691553D01*
X92796029Y-108718613D01*
X92834297Y-108718613D01*
X92861357Y-108691553D01*
X92865163Y-108672419D01*
X92865163Y-108341466D01*
X93196115Y-108341466D01*
X93215249Y-108337660D01*
X93242309Y-108310600D01*
X93242309Y-108272332D01*
X93215249Y-108245272D01*
X93196115Y-108241466D01*
X92865163Y-108241466D01*
X92865163Y-107910514D01*
X92861357Y-107891380D01*
X92834297Y-107864320D01*
X92796029Y-107864320D01*
X92768969Y-107891380D01*
X92765163Y-107910514D01*
X92765163Y-108241466D01*
X92434211Y-108241466D01*
X92415077Y-108245272D01*
X92388017Y-108272332D01*
X92276906Y-108272332D01*
X92276906Y-107753209D01*
X93353420Y-107753209D01*
X93353420Y-108829724D01*
G37*
X106805038Y-78357142D02*
X106757419Y-78261904D01*
X106757419Y-78261904D02*
X106757419Y-78119047D01*
X106757419Y-78119047D02*
X106805038Y-77976190D01*
X106805038Y-77976190D02*
X106900276Y-77880952D01*
X106900276Y-77880952D02*
X106995514Y-77833333D01*
X106995514Y-77833333D02*
X107185990Y-77785714D01*
X107185990Y-77785714D02*
X107328847Y-77785714D01*
X107328847Y-77785714D02*
X107519323Y-77833333D01*
X107519323Y-77833333D02*
X107614561Y-77880952D01*
X107614561Y-77880952D02*
X107709800Y-77976190D01*
X107709800Y-77976190D02*
X107757419Y-78119047D01*
X107757419Y-78119047D02*
X107757419Y-78214285D01*
X107757419Y-78214285D02*
X107709800Y-78357142D01*
X107709800Y-78357142D02*
X107662180Y-78404761D01*
X107662180Y-78404761D02*
X107328847Y-78404761D01*
X107328847Y-78404761D02*
X107328847Y-78214285D01*
X107281228Y-79023809D02*
X107757419Y-79023809D01*
X106757419Y-78690476D02*
X107281228Y-79023809D01*
X107281228Y-79023809D02*
X106757419Y-79357142D01*
X107757419Y-80214285D02*
X107757419Y-79642857D01*
X107757419Y-79928571D02*
X106757419Y-79928571D01*
X106757419Y-79928571D02*
X106900276Y-79833333D01*
X106900276Y-79833333D02*
X106995514Y-79738095D01*
X106995514Y-79738095D02*
X107043133Y-79642857D01*
D16*
X102754819Y-64616666D02*
X103469104Y-64616666D01*
X103469104Y-64616666D02*
X103611961Y-64569047D01*
X103611961Y-64569047D02*
X103707200Y-64473809D01*
X103707200Y-64473809D02*
X103754819Y-64330952D01*
X103754819Y-64330952D02*
X103754819Y-64235714D01*
X103754819Y-65092857D02*
X102754819Y-65092857D01*
X102754819Y-65092857D02*
X102754819Y-65473809D01*
X102754819Y-65473809D02*
X102802438Y-65569047D01*
X102802438Y-65569047D02*
X102850057Y-65616666D01*
X102850057Y-65616666D02*
X102945295Y-65664285D01*
X102945295Y-65664285D02*
X103088152Y-65664285D01*
X103088152Y-65664285D02*
X103183390Y-65616666D01*
X103183390Y-65616666D02*
X103231009Y-65569047D01*
X103231009Y-65569047D02*
X103278628Y-65473809D01*
X103278628Y-65473809D02*
X103278628Y-65092857D01*
X102850057Y-66045238D02*
X102802438Y-66092857D01*
X102802438Y-66092857D02*
X102754819Y-66188095D01*
X102754819Y-66188095D02*
X102754819Y-66426190D01*
X102754819Y-66426190D02*
X102802438Y-66521428D01*
X102802438Y-66521428D02*
X102850057Y-66569047D01*
X102850057Y-66569047D02*
X102945295Y-66616666D01*
X102945295Y-66616666D02*
X103040533Y-66616666D01*
X103040533Y-66616666D02*
X103183390Y-66569047D01*
X103183390Y-66569047D02*
X103754819Y-65997619D01*
X103754819Y-65997619D02*
X103754819Y-66616666D01*
D10*
X125042857Y-138105038D02*
X125138095Y-138057419D01*
X125138095Y-138057419D02*
X125280952Y-138057419D01*
X125280952Y-138057419D02*
X125423809Y-138105038D01*
X125423809Y-138105038D02*
X125519047Y-138200276D01*
X125519047Y-138200276D02*
X125566666Y-138295514D01*
X125566666Y-138295514D02*
X125614285Y-138485990D01*
X125614285Y-138485990D02*
X125614285Y-138628847D01*
X125614285Y-138628847D02*
X125566666Y-138819323D01*
X125566666Y-138819323D02*
X125519047Y-138914561D01*
X125519047Y-138914561D02*
X125423809Y-139009800D01*
X125423809Y-139009800D02*
X125280952Y-139057419D01*
X125280952Y-139057419D02*
X125185714Y-139057419D01*
X125185714Y-139057419D02*
X125042857Y-139009800D01*
X125042857Y-139009800D02*
X124995238Y-138962180D01*
X124995238Y-138962180D02*
X124995238Y-138628847D01*
X124995238Y-138628847D02*
X125185714Y-138628847D01*
X124376190Y-138581228D02*
X124376190Y-139057419D01*
X124709523Y-138057419D02*
X124376190Y-138581228D01*
X124376190Y-138581228D02*
X124042857Y-138057419D01*
X123757142Y-138152657D02*
X123709523Y-138105038D01*
X123709523Y-138105038D02*
X123614285Y-138057419D01*
X123614285Y-138057419D02*
X123376190Y-138057419D01*
X123376190Y-138057419D02*
X123280952Y-138105038D01*
X123280952Y-138105038D02*
X123233333Y-138152657D01*
X123233333Y-138152657D02*
X123185714Y-138247895D01*
X123185714Y-138247895D02*
X123185714Y-138343133D01*
X123185714Y-138343133D02*
X123233333Y-138485990D01*
X123233333Y-138485990D02*
X123804761Y-139057419D01*
X123804761Y-139057419D02*
X123185714Y-139057419D01*
D16*
X104433333Y-76154819D02*
X104433333Y-76869104D01*
X104433333Y-76869104D02*
X104480952Y-77011961D01*
X104480952Y-77011961D02*
X104576190Y-77107200D01*
X104576190Y-77107200D02*
X104719047Y-77154819D01*
X104719047Y-77154819D02*
X104814285Y-77154819D01*
X103957142Y-77154819D02*
X103957142Y-76154819D01*
X103957142Y-76154819D02*
X103576190Y-76154819D01*
X103576190Y-76154819D02*
X103480952Y-76202438D01*
X103480952Y-76202438D02*
X103433333Y-76250057D01*
X103433333Y-76250057D02*
X103385714Y-76345295D01*
X103385714Y-76345295D02*
X103385714Y-76488152D01*
X103385714Y-76488152D02*
X103433333Y-76583390D01*
X103433333Y-76583390D02*
X103480952Y-76631009D01*
X103480952Y-76631009D02*
X103576190Y-76678628D01*
X103576190Y-76678628D02*
X103957142Y-76678628D01*
X102433333Y-77154819D02*
X103004761Y-77154819D01*
X102719047Y-77154819D02*
X102719047Y-76154819D01*
X102719047Y-76154819D02*
X102814285Y-76297676D01*
X102814285Y-76297676D02*
X102909523Y-76392914D01*
X102909523Y-76392914D02*
X103004761Y-76440533D01*
D17*
X109104000Y-85824000D02*
X95856000Y-85824000D01*
X95856000Y-71036000D01*
X109104000Y-71036000D01*
X109104000Y-85824000D01*
X104100000Y-64750000D02*
X104100000Y-66150000D01*
X104800000Y-66850000D02*
X105400000Y-66850000D01*
X105400000Y-64050000D02*
X104800000Y-64050000D01*
X106100000Y-66150000D02*
X106100000Y-64750000D01*
X104100000Y-64750000D02*
G75*
G02*
X104800000Y-64050000I699999J1D01*
G01*
X104800000Y-66850000D02*
G75*
G02*
X104100000Y-66150000I0J700000D01*
G01*
X105400000Y-64050000D02*
G75*
G02*
X106100000Y-64750000I1J-699999D01*
G01*
X106100000Y-66150000D02*
G75*
G02*
X105400000Y-66850000I-700000J0D01*
G01*
X131024000Y-146794000D02*
X117776000Y-146794000D01*
X117776000Y-132006000D01*
X131024000Y-132006000D01*
X131024000Y-146794000D01*
X102200000Y-78200000D02*
X102200000Y-78800000D01*
X102900000Y-79500000D02*
X104300000Y-79500000D01*
X104300000Y-77500000D02*
X102900000Y-77500000D01*
X105000000Y-78800000D02*
X105000000Y-78200000D01*
X102200000Y-78200000D02*
G75*
G02*
X102900000Y-77500000I700000J0D01*
G01*
X102900000Y-79500000D02*
G75*
G02*
X102200000Y-78800000I0J700000D01*
G01*
X104300000Y-77500000D02*
G75*
G02*
X105000000Y-78200000I1J-699999D01*
G01*
X105000000Y-78800000D02*
G75*
G02*
X104300000Y-79500000I-699999J-1D01*
G01*
M02*
