%TF.GenerationSoftware,KiCad,Pcbnew,9.0.2*%
%TF.CreationDate,2025-07-09T03:35:44-04:00*%
%TF.ProjectId,FBT,4642542e-6b69-4636-9164-5f7063625858,rev?*%
%TF.SameCoordinates,Original*%
%TF.FileFunction,Drillmap*%
%TF.FilePolarity,Positive*%
%FSLAX45Y45*%
G04 Gerber Fmt 4.5, Leading zero omitted, Abs format (unit mm)*
G04 Created by KiCad (PCBNEW 9.0.2) date 2025-07-09 03:35:44*
%MOMM*%
%LPD*%
G01*
G04 APERTURE LIST*
%ADD10C,0.050000*%
%ADD11C,0.200000*%
%ADD12C,0.100000*%
%ADD13C,0.110000*%
%ADD14C,0.125000*%
G04 APERTURE END LIST*
D10*
X16150000Y-6070000D02*
X17950000Y-6070000D01*
X17950000Y-12570000D01*
X16150000Y-12570000D01*
X16150000Y-6070000D01*
D11*
X11517010Y-12381941D02*
X13367010Y-12381941D01*
X13367010Y-14691941D01*
X11517010Y-14691941D01*
X11517010Y-12381941D01*
D10*
X9150000Y-4710000D02*
X11150000Y-4710000D01*
X11150000Y-11210000D01*
X9150000Y-11210000D01*
X9150000Y-4710000D01*
D11*
D12*
X9235000Y-8165000D02*
X9265000Y-8195000D01*
X9265000Y-8165000D02*
X9235000Y-8195000D01*
X9495000Y-8405000D02*
X9525000Y-8435000D01*
X9525000Y-8405000D02*
X9495000Y-8435000D01*
X9885000Y-10045000D02*
X9915000Y-10075000D01*
X9915000Y-10045000D02*
X9885000Y-10075000D01*
X10535000Y-10025000D02*
X10565000Y-10055000D01*
X10565000Y-10025000D02*
X10535000Y-10055000D01*
X10625000Y-7015000D02*
X10655000Y-7045000D01*
X10655000Y-7015000D02*
X10625000Y-7045000D01*
X10715000Y-10075000D02*
X10745000Y-10105000D01*
X10745000Y-10075000D02*
X10715000Y-10105000D01*
X10975000Y-8325000D02*
X11005000Y-8355000D01*
X11005000Y-8325000D02*
X10975000Y-8355000D01*
X10625000Y-10185500D02*
G75*
G02*
X10555000Y-10185500I-35000J0D01*
G01*
X10555000Y-10185500D02*
G75*
G02*
X10625000Y-10185500I35000J0D01*
G01*
X10625000Y-10225500D02*
X10625000Y-10145500D01*
X10555000Y-10145500D02*
G75*
G02*
X10625000Y-10145500I35000J0D01*
G01*
X10555000Y-10145500D02*
X10555000Y-10225500D01*
X10555000Y-10225500D02*
G75*
G03*
X10625000Y-10225500I35000J0D01*
G01*
X10625000Y-10585500D02*
G75*
G02*
X10555000Y-10585500I-35000J0D01*
G01*
X10555000Y-10585500D02*
G75*
G02*
X10625000Y-10585500I35000J0D01*
G01*
X10625000Y-10625500D02*
X10625000Y-10545500D01*
X10555000Y-10545500D02*
G75*
G02*
X10625000Y-10545500I35000J0D01*
G01*
X10555000Y-10545500D02*
X10555000Y-10625500D01*
X10555000Y-10625500D02*
G75*
G03*
X10625000Y-10625500I35000J0D01*
G01*
X10625000Y-10885500D02*
G75*
G02*
X10555000Y-10885500I-35000J0D01*
G01*
X10555000Y-10885500D02*
G75*
G02*
X10625000Y-10885500I35000J0D01*
G01*
X10625000Y-10925500D02*
X10625000Y-10845500D01*
X10555000Y-10845500D02*
G75*
G02*
X10625000Y-10845500I35000J0D01*
G01*
X10555000Y-10845500D02*
X10555000Y-10925500D01*
X10555000Y-10925500D02*
G75*
G03*
X10625000Y-10925500I35000J0D01*
G01*
X11065000Y-10085500D02*
G75*
G02*
X10995000Y-10085500I-35000J0D01*
G01*
X10995000Y-10085500D02*
G75*
G02*
X11065000Y-10085500I35000J0D01*
G01*
X11065000Y-10125500D02*
X11065000Y-10045500D01*
X10995000Y-10045500D02*
G75*
G02*
X11065000Y-10045500I35000J0D01*
G01*
X10995000Y-10045500D02*
X10995000Y-10125500D01*
X10995000Y-10125500D02*
G75*
G03*
X11065000Y-10125500I35000J0D01*
G01*
X11899510Y-12504941D02*
G75*
G02*
X11829510Y-12504941I-35000J0D01*
G01*
X11829510Y-12504941D02*
G75*
G02*
X11899510Y-12504941I35000J0D01*
G01*
X11824510Y-12539941D02*
X11904510Y-12539941D01*
X11904510Y-12469941D02*
G75*
G02*
X11904510Y-12539941I0J-35000D01*
G01*
X11904510Y-12469941D02*
X11824510Y-12469941D01*
X11824510Y-12469941D02*
G75*
G03*
X11824510Y-12539941I0J-35000D01*
G01*
X12199510Y-12504941D02*
G75*
G02*
X12129510Y-12504941I-35000J0D01*
G01*
X12129510Y-12504941D02*
G75*
G02*
X12199510Y-12504941I35000J0D01*
G01*
X12124510Y-12539941D02*
X12204510Y-12539941D01*
X12204510Y-12469941D02*
G75*
G02*
X12204510Y-12539941I0J-35000D01*
G01*
X12204510Y-12469941D02*
X12124510Y-12469941D01*
X12124510Y-12469941D02*
G75*
G03*
X12124510Y-12539941I0J-35000D01*
G01*
X12599510Y-12504941D02*
G75*
G02*
X12529510Y-12504941I-35000J0D01*
G01*
X12529510Y-12504941D02*
G75*
G02*
X12599510Y-12504941I35000J0D01*
G01*
X12524510Y-12539941D02*
X12604510Y-12539941D01*
X12604510Y-12469941D02*
G75*
G02*
X12604510Y-12539941I0J-35000D01*
G01*
X12604510Y-12469941D02*
X12524510Y-12469941D01*
X12524510Y-12469941D02*
G75*
G03*
X12524510Y-12539941I0J-35000D01*
G01*
X12699510Y-12944941D02*
G75*
G02*
X12629510Y-12944941I-35000J0D01*
G01*
X12629510Y-12944941D02*
G75*
G02*
X12699510Y-12944941I35000J0D01*
G01*
X12624510Y-12979941D02*
X12704510Y-12979941D01*
X12704510Y-12909941D02*
G75*
G02*
X12704510Y-12979941I0J-35000D01*
G01*
X12704510Y-12909941D02*
X12624510Y-12909941D01*
X12624510Y-12909941D02*
G75*
G03*
X12624510Y-12979941I0J-35000D01*
G01*
X9598000Y-10570000D02*
X9598000Y-10650000D01*
X9558000Y-10610000D02*
X9638000Y-10610000D01*
X9720000Y-10940000D02*
X9720000Y-11020000D01*
X9680000Y-10980000D02*
X9760000Y-10980000D01*
X9920000Y-10940000D02*
X9920000Y-11020000D01*
X9880000Y-10980000D02*
X9960000Y-10980000D01*
X10120000Y-10940000D02*
X10120000Y-11020000D01*
X10080000Y-10980000D02*
X10160000Y-10980000D01*
X10360000Y-10570000D02*
X10360000Y-10650000D01*
X10320000Y-10610000D02*
X10400000Y-10610000D01*
X10990000Y-8909000D02*
X10990000Y-8989000D01*
X10950000Y-8949000D02*
X11030000Y-8949000D01*
X10990000Y-9671000D02*
X10990000Y-9751000D01*
X10950000Y-9711000D02*
X11030000Y-9711000D01*
X9519820Y-6660820D02*
X9519820Y-6597180D01*
X9456180Y-6597180D01*
X9456180Y-6660820D01*
X9519820Y-6660820D01*
X9519820Y-7193820D02*
X9519820Y-7130180D01*
X9456180Y-7130180D01*
X9456180Y-7193820D01*
X9519820Y-7193820D01*
X9523820Y-4882820D02*
X9523820Y-4819180D01*
X9460180Y-4819180D01*
X9460180Y-4882820D01*
X9523820Y-4882820D01*
X9523820Y-5136820D02*
X9523820Y-5073180D01*
X9460180Y-5073180D01*
X9460180Y-5136820D01*
X9523820Y-5136820D01*
X9523820Y-5390820D02*
X9523820Y-5327180D01*
X9460180Y-5327180D01*
X9460180Y-5390820D01*
X9523820Y-5390820D01*
X9523820Y-5644820D02*
X9523820Y-5581180D01*
X9460180Y-5581180D01*
X9460180Y-5644820D01*
X9523820Y-5644820D01*
X9523820Y-5898820D02*
X9523820Y-5835180D01*
X9460180Y-5835180D01*
X9460180Y-5898820D01*
X9523820Y-5898820D01*
X9523820Y-6152820D02*
X9523820Y-6089180D01*
X9460180Y-6089180D01*
X9460180Y-6152820D01*
X9523820Y-6152820D01*
X9523820Y-6406820D02*
X9523820Y-6343180D01*
X9460180Y-6343180D01*
X9460180Y-6406820D01*
X9523820Y-6406820D01*
X9773820Y-7193820D02*
X9773820Y-7130180D01*
X9710180Y-7130180D01*
X9710180Y-7193820D01*
X9773820Y-7193820D01*
X9773820Y-8209820D02*
X9773820Y-8146180D01*
X9710180Y-8146180D01*
X9710180Y-8209820D01*
X9773820Y-8209820D01*
X9773820Y-8461820D02*
X9773820Y-8398180D01*
X9710180Y-8398180D01*
X9710180Y-8461820D01*
X9773820Y-8461820D01*
X9851820Y-8721820D02*
X9851820Y-8658180D01*
X9788180Y-8658180D01*
X9788180Y-8721820D01*
X9851820Y-8721820D01*
X9851820Y-9761820D02*
X9851820Y-9698180D01*
X9788180Y-9698180D01*
X9788180Y-9761820D01*
X9851820Y-9761820D01*
X10027820Y-7193820D02*
X10027820Y-7130180D01*
X9964180Y-7130180D01*
X9964180Y-7193820D01*
X10027820Y-7193820D01*
X10027820Y-8209820D02*
X10027820Y-8146180D01*
X9964180Y-8146180D01*
X9964180Y-8209820D01*
X10027820Y-8209820D01*
X10027820Y-8461820D02*
X10027820Y-8398180D01*
X9964180Y-8398180D01*
X9964180Y-8461820D01*
X10027820Y-8461820D01*
X10045820Y-14568820D02*
X10045820Y-14505180D01*
X9982180Y-14505180D01*
X9982180Y-14568820D01*
X10045820Y-14568820D01*
X10281820Y-7193820D02*
X10281820Y-7130180D01*
X10218180Y-7130180D01*
X10218180Y-7193820D01*
X10281820Y-7193820D01*
X10281820Y-8209820D02*
X10281820Y-8146180D01*
X10218180Y-8146180D01*
X10218180Y-8209820D01*
X10281820Y-8209820D01*
X10281820Y-8461820D02*
X10281820Y-8398180D01*
X10218180Y-8398180D01*
X10218180Y-8461820D01*
X10281820Y-8461820D01*
X10299820Y-14568820D02*
X10299820Y-14505180D01*
X10236180Y-14505180D01*
X10236180Y-14568820D01*
X10299820Y-14568820D01*
X10535820Y-7193820D02*
X10535820Y-7130180D01*
X10472180Y-7130180D01*
X10472180Y-7193820D01*
X10535820Y-7193820D01*
X10535820Y-8209820D02*
X10535820Y-8146180D01*
X10472180Y-8146180D01*
X10472180Y-8209820D01*
X10535820Y-8209820D01*
X10535820Y-8461820D02*
X10535820Y-8398180D01*
X10472180Y-8398180D01*
X10472180Y-8461820D01*
X10535820Y-8461820D01*
X10553820Y-14568820D02*
X10553820Y-14505180D01*
X10490180Y-14505180D01*
X10490180Y-14568820D01*
X10553820Y-14568820D01*
X10771820Y-8731820D02*
X10771820Y-8668180D01*
X10708180Y-8668180D01*
X10708180Y-8731820D01*
X10771820Y-8731820D01*
X10771820Y-8981820D02*
X10771820Y-8918180D01*
X10708180Y-8918180D01*
X10708180Y-8981820D01*
X10771820Y-8981820D01*
X10771820Y-9501820D02*
X10771820Y-9438180D01*
X10708180Y-9438180D01*
X10708180Y-9501820D01*
X10771820Y-9501820D01*
X10771820Y-9751820D02*
X10771820Y-9688180D01*
X10708180Y-9688180D01*
X10708180Y-9751820D01*
X10771820Y-9751820D01*
X10789820Y-7193820D02*
X10789820Y-7130180D01*
X10726180Y-7130180D01*
X10726180Y-7193820D01*
X10789820Y-7193820D01*
X10789820Y-8209820D02*
X10789820Y-8146180D01*
X10726180Y-8146180D01*
X10726180Y-8209820D01*
X10789820Y-8209820D01*
X10789820Y-8461820D02*
X10789820Y-8398180D01*
X10726180Y-8398180D01*
X10726180Y-8461820D01*
X10789820Y-8461820D01*
X10807820Y-14568820D02*
X10807820Y-14505180D01*
X10744180Y-14505180D01*
X10744180Y-14568820D01*
X10807820Y-14568820D01*
X11043820Y-4882820D02*
X11043820Y-4819180D01*
X10980180Y-4819180D01*
X10980180Y-4882820D01*
X11043820Y-4882820D01*
X11043820Y-5136820D02*
X11043820Y-5073180D01*
X10980180Y-5073180D01*
X10980180Y-5136820D01*
X11043820Y-5136820D01*
X11043820Y-5390820D02*
X11043820Y-5327180D01*
X10980180Y-5327180D01*
X10980180Y-5390820D01*
X11043820Y-5390820D01*
X11043820Y-5644820D02*
X11043820Y-5581180D01*
X10980180Y-5581180D01*
X10980180Y-5644820D01*
X11043820Y-5644820D01*
X11043820Y-5898820D02*
X11043820Y-5835180D01*
X10980180Y-5835180D01*
X10980180Y-5898820D01*
X11043820Y-5898820D01*
X11043820Y-6152820D02*
X11043820Y-6089180D01*
X10980180Y-6089180D01*
X10980180Y-6152820D01*
X11043820Y-6152820D01*
X11043820Y-6406820D02*
X11043820Y-6343180D01*
X10980180Y-6343180D01*
X10980180Y-6406820D01*
X11043820Y-6406820D01*
X11043820Y-6660820D02*
X11043820Y-6597180D01*
X10980180Y-6597180D01*
X10980180Y-6660820D01*
X11043820Y-6660820D01*
X11043820Y-7193820D02*
X11043820Y-7130180D01*
X10980180Y-7130180D01*
X10980180Y-7193820D01*
X11043820Y-7193820D01*
X11061820Y-14568820D02*
X11061820Y-14505180D01*
X10998180Y-14505180D01*
X10998180Y-14568820D01*
X11061820Y-14568820D01*
X11711921Y-13250871D02*
X11711921Y-13187231D01*
X11648281Y-13187231D01*
X11648281Y-13250871D01*
X11711921Y-13250871D01*
X11965820Y-14558820D02*
X11965820Y-14495180D01*
X11902180Y-14495180D01*
X11902180Y-14558820D01*
X11965820Y-14558820D01*
X11965921Y-13250871D02*
X11965921Y-13187231D01*
X11902281Y-13187231D01*
X11902281Y-13250871D01*
X11965921Y-13250871D01*
X11965921Y-14266871D02*
X11965921Y-14203231D01*
X11902281Y-14203231D01*
X11902281Y-14266871D01*
X11965921Y-14266871D01*
X12219820Y-14558820D02*
X12219820Y-14495180D01*
X12156180Y-14495180D01*
X12156180Y-14558820D01*
X12219820Y-14558820D01*
X12219921Y-13250871D02*
X12219921Y-13187231D01*
X12156281Y-13187231D01*
X12156281Y-13250871D01*
X12219921Y-13250871D01*
X12219921Y-14266871D02*
X12219921Y-14203231D01*
X12156281Y-14203231D01*
X12156281Y-14266871D01*
X12219921Y-14266871D01*
X12473820Y-14558820D02*
X12473820Y-14495180D01*
X12410180Y-14495180D01*
X12410180Y-14558820D01*
X12473820Y-14558820D01*
X12473921Y-13250871D02*
X12473921Y-13187231D01*
X12410281Y-13187231D01*
X12410281Y-13250871D01*
X12473921Y-13250871D01*
X12473921Y-14266871D02*
X12473921Y-14203231D01*
X12410281Y-14203231D01*
X12410281Y-14266871D01*
X12473921Y-14266871D01*
X12727820Y-14558820D02*
X12727820Y-14495180D01*
X12664180Y-14495180D01*
X12664180Y-14558820D01*
X12727820Y-14558820D01*
X12727921Y-13250871D02*
X12727921Y-13187231D01*
X12664281Y-13187231D01*
X12664281Y-13250871D01*
X12727921Y-13250871D01*
X12727921Y-14266871D02*
X12727921Y-14203231D01*
X12664281Y-14203231D01*
X12664281Y-14266871D01*
X12727921Y-14266871D01*
X12981820Y-14558820D02*
X12981820Y-14495180D01*
X12918180Y-14495180D01*
X12918180Y-14558820D01*
X12981820Y-14558820D01*
X12981921Y-13250871D02*
X12981921Y-13187231D01*
X12918281Y-13187231D01*
X12918281Y-13250871D01*
X12981921Y-13250871D01*
X12981921Y-14266871D02*
X12981921Y-14203231D01*
X12918281Y-14203231D01*
X12918281Y-14266871D01*
X12981921Y-14266871D01*
X13235921Y-13250871D02*
X13235921Y-13187231D01*
X13172281Y-13187231D01*
X13172281Y-13250871D01*
X13235921Y-13250871D01*
X9260000Y-4900000D02*
X9310000Y-4850000D01*
X9260000Y-4800000D01*
X9210000Y-4850000D01*
X9260000Y-4900000D01*
X9280000Y-10433500D02*
X9330000Y-10383500D01*
X9280000Y-10333500D01*
X9230000Y-10383500D01*
X9280000Y-10433500D01*
X9280000Y-10687500D02*
X9330000Y-10637500D01*
X9280000Y-10587500D01*
X9230000Y-10637500D01*
X9280000Y-10687500D01*
D13*
X9513000Y-9925000D02*
X9623000Y-10035000D01*
X9623000Y-9925000D02*
X9513000Y-10035000D01*
X9623000Y-9980000D02*
G75*
G02*
X9513000Y-9980000I-55000J0D01*
G01*
X9513000Y-9980000D02*
G75*
G02*
X9623000Y-9980000I55000J0D01*
G01*
X9513000Y-10245000D02*
X9623000Y-10355000D01*
X9623000Y-10245000D02*
X9513000Y-10355000D01*
X9623000Y-10300000D02*
G75*
G02*
X9513000Y-10300000I-55000J0D01*
G01*
X9513000Y-10300000D02*
G75*
G02*
X9623000Y-10300000I55000J0D01*
G01*
X10275000Y-9925000D02*
X10385000Y-10035000D01*
X10385000Y-9925000D02*
X10275000Y-10035000D01*
X10385000Y-9980000D02*
G75*
G02*
X10275000Y-9980000I-55000J0D01*
G01*
X10275000Y-9980000D02*
G75*
G02*
X10385000Y-9980000I55000J0D01*
G01*
X10275000Y-10245000D02*
X10385000Y-10355000D01*
X10385000Y-10245000D02*
X10275000Y-10355000D01*
X10385000Y-10300000D02*
G75*
G02*
X10275000Y-10300000I-55000J0D01*
G01*
X10275000Y-10300000D02*
G75*
G02*
X10385000Y-10300000I55000J0D01*
G01*
D14*
X9447500Y-10917500D02*
X9572500Y-11042500D01*
X9572500Y-10917500D02*
X9447500Y-11042500D01*
X9510000Y-10917500D02*
X9510000Y-11042500D01*
X9447500Y-10980000D02*
X9572500Y-10980000D01*
X10267500Y-10917500D02*
X10392500Y-11042500D01*
X10392500Y-10917500D02*
X10267500Y-11042500D01*
X10330000Y-10917500D02*
X10330000Y-11042500D01*
X10267500Y-10980000D02*
X10392500Y-10980000D01*
D11*
X9408277Y-15013425D02*
X9408277Y-14813425D01*
X9408277Y-14813425D02*
X9455896Y-14813425D01*
X9455896Y-14813425D02*
X9484467Y-14822949D01*
X9484467Y-14822949D02*
X9503515Y-14841996D01*
X9503515Y-14841996D02*
X9513039Y-14861044D01*
X9513039Y-14861044D02*
X9522563Y-14899139D01*
X9522563Y-14899139D02*
X9522563Y-14927711D01*
X9522563Y-14927711D02*
X9513039Y-14965806D01*
X9513039Y-14965806D02*
X9503515Y-14984853D01*
X9503515Y-14984853D02*
X9484467Y-15003901D01*
X9484467Y-15003901D02*
X9455896Y-15013425D01*
X9455896Y-15013425D02*
X9408277Y-15013425D01*
X9608277Y-15013425D02*
X9608277Y-14880092D01*
X9608277Y-14918187D02*
X9617801Y-14899139D01*
X9617801Y-14899139D02*
X9627324Y-14889615D01*
X9627324Y-14889615D02*
X9646372Y-14880092D01*
X9646372Y-14880092D02*
X9665420Y-14880092D01*
X9732086Y-15013425D02*
X9732086Y-14880092D01*
X9732086Y-14813425D02*
X9722563Y-14822949D01*
X9722563Y-14822949D02*
X9732086Y-14832473D01*
X9732086Y-14832473D02*
X9741610Y-14822949D01*
X9741610Y-14822949D02*
X9732086Y-14813425D01*
X9732086Y-14813425D02*
X9732086Y-14832473D01*
X9855896Y-15013425D02*
X9836848Y-15003901D01*
X9836848Y-15003901D02*
X9827324Y-14984853D01*
X9827324Y-14984853D02*
X9827324Y-14813425D01*
X9960658Y-15013425D02*
X9941610Y-15003901D01*
X9941610Y-15003901D02*
X9932086Y-14984853D01*
X9932086Y-14984853D02*
X9932086Y-14813425D01*
X10189229Y-15013425D02*
X10189229Y-14813425D01*
X10189229Y-14813425D02*
X10255896Y-14956282D01*
X10255896Y-14956282D02*
X10322563Y-14813425D01*
X10322563Y-14813425D02*
X10322563Y-15013425D01*
X10503515Y-15013425D02*
X10503515Y-14908663D01*
X10503515Y-14908663D02*
X10493991Y-14889615D01*
X10493991Y-14889615D02*
X10474944Y-14880092D01*
X10474944Y-14880092D02*
X10436848Y-14880092D01*
X10436848Y-14880092D02*
X10417801Y-14889615D01*
X10503515Y-15003901D02*
X10484467Y-15013425D01*
X10484467Y-15013425D02*
X10436848Y-15013425D01*
X10436848Y-15013425D02*
X10417801Y-15003901D01*
X10417801Y-15003901D02*
X10408277Y-14984853D01*
X10408277Y-14984853D02*
X10408277Y-14965806D01*
X10408277Y-14965806D02*
X10417801Y-14946758D01*
X10417801Y-14946758D02*
X10436848Y-14937234D01*
X10436848Y-14937234D02*
X10484467Y-14937234D01*
X10484467Y-14937234D02*
X10503515Y-14927711D01*
X10598753Y-14880092D02*
X10598753Y-15080092D01*
X10598753Y-14889615D02*
X10617801Y-14880092D01*
X10617801Y-14880092D02*
X10655896Y-14880092D01*
X10655896Y-14880092D02*
X10674944Y-14889615D01*
X10674944Y-14889615D02*
X10684467Y-14899139D01*
X10684467Y-14899139D02*
X10693991Y-14918187D01*
X10693991Y-14918187D02*
X10693991Y-14975330D01*
X10693991Y-14975330D02*
X10684467Y-14994377D01*
X10684467Y-14994377D02*
X10674944Y-15003901D01*
X10674944Y-15003901D02*
X10655896Y-15013425D01*
X10655896Y-15013425D02*
X10617801Y-15013425D01*
X10617801Y-15013425D02*
X10598753Y-15003901D01*
X10779705Y-14994377D02*
X10789229Y-15003901D01*
X10789229Y-15003901D02*
X10779705Y-15013425D01*
X10779705Y-15013425D02*
X10770182Y-15003901D01*
X10770182Y-15003901D02*
X10779705Y-14994377D01*
X10779705Y-14994377D02*
X10779705Y-15013425D01*
X10779705Y-14889615D02*
X10789229Y-14899139D01*
X10789229Y-14899139D02*
X10779705Y-14908663D01*
X10779705Y-14908663D02*
X10770182Y-14899139D01*
X10770182Y-14899139D02*
X10779705Y-14889615D01*
X10779705Y-14889615D02*
X10779705Y-14908663D01*
D12*
X9117500Y-15326941D02*
X9147500Y-15356941D01*
X9147500Y-15326941D02*
X9117500Y-15356941D01*
D11*
X9446372Y-15233425D02*
X9465420Y-15233425D01*
X9465420Y-15233425D02*
X9484467Y-15242949D01*
X9484467Y-15242949D02*
X9493991Y-15252473D01*
X9493991Y-15252473D02*
X9503515Y-15271520D01*
X9503515Y-15271520D02*
X9513039Y-15309615D01*
X9513039Y-15309615D02*
X9513039Y-15357234D01*
X9513039Y-15357234D02*
X9503515Y-15395330D01*
X9503515Y-15395330D02*
X9493991Y-15414377D01*
X9493991Y-15414377D02*
X9484467Y-15423901D01*
X9484467Y-15423901D02*
X9465420Y-15433425D01*
X9465420Y-15433425D02*
X9446372Y-15433425D01*
X9446372Y-15433425D02*
X9427324Y-15423901D01*
X9427324Y-15423901D02*
X9417801Y-15414377D01*
X9417801Y-15414377D02*
X9408277Y-15395330D01*
X9408277Y-15395330D02*
X9398753Y-15357234D01*
X9398753Y-15357234D02*
X9398753Y-15309615D01*
X9398753Y-15309615D02*
X9408277Y-15271520D01*
X9408277Y-15271520D02*
X9417801Y-15252473D01*
X9417801Y-15252473D02*
X9427324Y-15242949D01*
X9427324Y-15242949D02*
X9446372Y-15233425D01*
X9598753Y-15414377D02*
X9608277Y-15423901D01*
X9608277Y-15423901D02*
X9598753Y-15433425D01*
X9598753Y-15433425D02*
X9589229Y-15423901D01*
X9589229Y-15423901D02*
X9598753Y-15414377D01*
X9598753Y-15414377D02*
X9598753Y-15433425D01*
X9674944Y-15233425D02*
X9798753Y-15233425D01*
X9798753Y-15233425D02*
X9732086Y-15309615D01*
X9732086Y-15309615D02*
X9760658Y-15309615D01*
X9760658Y-15309615D02*
X9779705Y-15319139D01*
X9779705Y-15319139D02*
X9789229Y-15328663D01*
X9789229Y-15328663D02*
X9798753Y-15347711D01*
X9798753Y-15347711D02*
X9798753Y-15395330D01*
X9798753Y-15395330D02*
X9789229Y-15414377D01*
X9789229Y-15414377D02*
X9779705Y-15423901D01*
X9779705Y-15423901D02*
X9760658Y-15433425D01*
X9760658Y-15433425D02*
X9703515Y-15433425D01*
X9703515Y-15433425D02*
X9684467Y-15423901D01*
X9684467Y-15423901D02*
X9674944Y-15414377D01*
X9922563Y-15233425D02*
X9941610Y-15233425D01*
X9941610Y-15233425D02*
X9960658Y-15242949D01*
X9960658Y-15242949D02*
X9970182Y-15252473D01*
X9970182Y-15252473D02*
X9979705Y-15271520D01*
X9979705Y-15271520D02*
X9989229Y-15309615D01*
X9989229Y-15309615D02*
X9989229Y-15357234D01*
X9989229Y-15357234D02*
X9979705Y-15395330D01*
X9979705Y-15395330D02*
X9970182Y-15414377D01*
X9970182Y-15414377D02*
X9960658Y-15423901D01*
X9960658Y-15423901D02*
X9941610Y-15433425D01*
X9941610Y-15433425D02*
X9922563Y-15433425D01*
X9922563Y-15433425D02*
X9903515Y-15423901D01*
X9903515Y-15423901D02*
X9893991Y-15414377D01*
X9893991Y-15414377D02*
X9884467Y-15395330D01*
X9884467Y-15395330D02*
X9874944Y-15357234D01*
X9874944Y-15357234D02*
X9874944Y-15309615D01*
X9874944Y-15309615D02*
X9884467Y-15271520D01*
X9884467Y-15271520D02*
X9893991Y-15252473D01*
X9893991Y-15252473D02*
X9903515Y-15242949D01*
X9903515Y-15242949D02*
X9922563Y-15233425D01*
X10113039Y-15233425D02*
X10132086Y-15233425D01*
X10132086Y-15233425D02*
X10151134Y-15242949D01*
X10151134Y-15242949D02*
X10160658Y-15252473D01*
X10160658Y-15252473D02*
X10170182Y-15271520D01*
X10170182Y-15271520D02*
X10179705Y-15309615D01*
X10179705Y-15309615D02*
X10179705Y-15357234D01*
X10179705Y-15357234D02*
X10170182Y-15395330D01*
X10170182Y-15395330D02*
X10160658Y-15414377D01*
X10160658Y-15414377D02*
X10151134Y-15423901D01*
X10151134Y-15423901D02*
X10132086Y-15433425D01*
X10132086Y-15433425D02*
X10113039Y-15433425D01*
X10113039Y-15433425D02*
X10093991Y-15423901D01*
X10093991Y-15423901D02*
X10084467Y-15414377D01*
X10084467Y-15414377D02*
X10074944Y-15395330D01*
X10074944Y-15395330D02*
X10065420Y-15357234D01*
X10065420Y-15357234D02*
X10065420Y-15309615D01*
X10065420Y-15309615D02*
X10074944Y-15271520D01*
X10074944Y-15271520D02*
X10084467Y-15252473D01*
X10084467Y-15252473D02*
X10093991Y-15242949D01*
X10093991Y-15242949D02*
X10113039Y-15233425D01*
X10265420Y-15433425D02*
X10265420Y-15300092D01*
X10265420Y-15319139D02*
X10274944Y-15309615D01*
X10274944Y-15309615D02*
X10293991Y-15300092D01*
X10293991Y-15300092D02*
X10322563Y-15300092D01*
X10322563Y-15300092D02*
X10341610Y-15309615D01*
X10341610Y-15309615D02*
X10351134Y-15328663D01*
X10351134Y-15328663D02*
X10351134Y-15433425D01*
X10351134Y-15328663D02*
X10360658Y-15309615D01*
X10360658Y-15309615D02*
X10379705Y-15300092D01*
X10379705Y-15300092D02*
X10408277Y-15300092D01*
X10408277Y-15300092D02*
X10427325Y-15309615D01*
X10427325Y-15309615D02*
X10436848Y-15328663D01*
X10436848Y-15328663D02*
X10436848Y-15433425D01*
X10532086Y-15433425D02*
X10532086Y-15300092D01*
X10532086Y-15319139D02*
X10541610Y-15309615D01*
X10541610Y-15309615D02*
X10560658Y-15300092D01*
X10560658Y-15300092D02*
X10589229Y-15300092D01*
X10589229Y-15300092D02*
X10608277Y-15309615D01*
X10608277Y-15309615D02*
X10617801Y-15328663D01*
X10617801Y-15328663D02*
X10617801Y-15433425D01*
X10617801Y-15328663D02*
X10627325Y-15309615D01*
X10627325Y-15309615D02*
X10646372Y-15300092D01*
X10646372Y-15300092D02*
X10674944Y-15300092D01*
X10674944Y-15300092D02*
X10693991Y-15309615D01*
X10693991Y-15309615D02*
X10703515Y-15328663D01*
X10703515Y-15328663D02*
X10703515Y-15433425D01*
X11093991Y-15223901D02*
X10922563Y-15481044D01*
X11351134Y-15233425D02*
X11370182Y-15233425D01*
X11370182Y-15233425D02*
X11389229Y-15242949D01*
X11389229Y-15242949D02*
X11398753Y-15252473D01*
X11398753Y-15252473D02*
X11408277Y-15271520D01*
X11408277Y-15271520D02*
X11417801Y-15309615D01*
X11417801Y-15309615D02*
X11417801Y-15357234D01*
X11417801Y-15357234D02*
X11408277Y-15395330D01*
X11408277Y-15395330D02*
X11398753Y-15414377D01*
X11398753Y-15414377D02*
X11389229Y-15423901D01*
X11389229Y-15423901D02*
X11370182Y-15433425D01*
X11370182Y-15433425D02*
X11351134Y-15433425D01*
X11351134Y-15433425D02*
X11332086Y-15423901D01*
X11332086Y-15423901D02*
X11322563Y-15414377D01*
X11322563Y-15414377D02*
X11313039Y-15395330D01*
X11313039Y-15395330D02*
X11303515Y-15357234D01*
X11303515Y-15357234D02*
X11303515Y-15309615D01*
X11303515Y-15309615D02*
X11313039Y-15271520D01*
X11313039Y-15271520D02*
X11322563Y-15252473D01*
X11322563Y-15252473D02*
X11332086Y-15242949D01*
X11332086Y-15242949D02*
X11351134Y-15233425D01*
X11503515Y-15414377D02*
X11513039Y-15423901D01*
X11513039Y-15423901D02*
X11503515Y-15433425D01*
X11503515Y-15433425D02*
X11493991Y-15423901D01*
X11493991Y-15423901D02*
X11503515Y-15414377D01*
X11503515Y-15414377D02*
X11503515Y-15433425D01*
X11636848Y-15233425D02*
X11655896Y-15233425D01*
X11655896Y-15233425D02*
X11674944Y-15242949D01*
X11674944Y-15242949D02*
X11684467Y-15252473D01*
X11684467Y-15252473D02*
X11693991Y-15271520D01*
X11693991Y-15271520D02*
X11703515Y-15309615D01*
X11703515Y-15309615D02*
X11703515Y-15357234D01*
X11703515Y-15357234D02*
X11693991Y-15395330D01*
X11693991Y-15395330D02*
X11684467Y-15414377D01*
X11684467Y-15414377D02*
X11674944Y-15423901D01*
X11674944Y-15423901D02*
X11655896Y-15433425D01*
X11655896Y-15433425D02*
X11636848Y-15433425D01*
X11636848Y-15433425D02*
X11617801Y-15423901D01*
X11617801Y-15423901D02*
X11608277Y-15414377D01*
X11608277Y-15414377D02*
X11598753Y-15395330D01*
X11598753Y-15395330D02*
X11589229Y-15357234D01*
X11589229Y-15357234D02*
X11589229Y-15309615D01*
X11589229Y-15309615D02*
X11598753Y-15271520D01*
X11598753Y-15271520D02*
X11608277Y-15252473D01*
X11608277Y-15252473D02*
X11617801Y-15242949D01*
X11617801Y-15242949D02*
X11636848Y-15233425D01*
X11893991Y-15433425D02*
X11779706Y-15433425D01*
X11836848Y-15433425D02*
X11836848Y-15233425D01*
X11836848Y-15233425D02*
X11817801Y-15261996D01*
X11817801Y-15261996D02*
X11798753Y-15281044D01*
X11798753Y-15281044D02*
X11779706Y-15290568D01*
X12084467Y-15433425D02*
X11970182Y-15433425D01*
X12027325Y-15433425D02*
X12027325Y-15233425D01*
X12027325Y-15233425D02*
X12008277Y-15261996D01*
X12008277Y-15261996D02*
X11989229Y-15281044D01*
X11989229Y-15281044D02*
X11970182Y-15290568D01*
X12198753Y-15319139D02*
X12179706Y-15309615D01*
X12179706Y-15309615D02*
X12170182Y-15300092D01*
X12170182Y-15300092D02*
X12160658Y-15281044D01*
X12160658Y-15281044D02*
X12160658Y-15271520D01*
X12160658Y-15271520D02*
X12170182Y-15252473D01*
X12170182Y-15252473D02*
X12179706Y-15242949D01*
X12179706Y-15242949D02*
X12198753Y-15233425D01*
X12198753Y-15233425D02*
X12236848Y-15233425D01*
X12236848Y-15233425D02*
X12255896Y-15242949D01*
X12255896Y-15242949D02*
X12265420Y-15252473D01*
X12265420Y-15252473D02*
X12274944Y-15271520D01*
X12274944Y-15271520D02*
X12274944Y-15281044D01*
X12274944Y-15281044D02*
X12265420Y-15300092D01*
X12265420Y-15300092D02*
X12255896Y-15309615D01*
X12255896Y-15309615D02*
X12236848Y-15319139D01*
X12236848Y-15319139D02*
X12198753Y-15319139D01*
X12198753Y-15319139D02*
X12179706Y-15328663D01*
X12179706Y-15328663D02*
X12170182Y-15338187D01*
X12170182Y-15338187D02*
X12160658Y-15357234D01*
X12160658Y-15357234D02*
X12160658Y-15395330D01*
X12160658Y-15395330D02*
X12170182Y-15414377D01*
X12170182Y-15414377D02*
X12179706Y-15423901D01*
X12179706Y-15423901D02*
X12198753Y-15433425D01*
X12198753Y-15433425D02*
X12236848Y-15433425D01*
X12236848Y-15433425D02*
X12255896Y-15423901D01*
X12255896Y-15423901D02*
X12265420Y-15414377D01*
X12265420Y-15414377D02*
X12274944Y-15395330D01*
X12274944Y-15395330D02*
X12274944Y-15357234D01*
X12274944Y-15357234D02*
X12265420Y-15338187D01*
X12265420Y-15338187D02*
X12255896Y-15328663D01*
X12255896Y-15328663D02*
X12236848Y-15319139D01*
X12351134Y-15233425D02*
X12351134Y-15271520D01*
X12427325Y-15233425D02*
X12427325Y-15271520D01*
X12722563Y-15509615D02*
X12713039Y-15500092D01*
X12713039Y-15500092D02*
X12693991Y-15471520D01*
X12693991Y-15471520D02*
X12684468Y-15452473D01*
X12684468Y-15452473D02*
X12674944Y-15423901D01*
X12674944Y-15423901D02*
X12665420Y-15376282D01*
X12665420Y-15376282D02*
X12665420Y-15338187D01*
X12665420Y-15338187D02*
X12674944Y-15290568D01*
X12674944Y-15290568D02*
X12684468Y-15261996D01*
X12684468Y-15261996D02*
X12693991Y-15242949D01*
X12693991Y-15242949D02*
X12713039Y-15214377D01*
X12713039Y-15214377D02*
X12722563Y-15204853D01*
X12779706Y-15233425D02*
X12913039Y-15233425D01*
X12913039Y-15233425D02*
X12827325Y-15433425D01*
X13141610Y-15433425D02*
X13141610Y-15233425D01*
X13227325Y-15433425D02*
X13227325Y-15328663D01*
X13227325Y-15328663D02*
X13217801Y-15309615D01*
X13217801Y-15309615D02*
X13198753Y-15300092D01*
X13198753Y-15300092D02*
X13170182Y-15300092D01*
X13170182Y-15300092D02*
X13151134Y-15309615D01*
X13151134Y-15309615D02*
X13141610Y-15319139D01*
X13351134Y-15433425D02*
X13332087Y-15423901D01*
X13332087Y-15423901D02*
X13322563Y-15414377D01*
X13322563Y-15414377D02*
X13313039Y-15395330D01*
X13313039Y-15395330D02*
X13313039Y-15338187D01*
X13313039Y-15338187D02*
X13322563Y-15319139D01*
X13322563Y-15319139D02*
X13332087Y-15309615D01*
X13332087Y-15309615D02*
X13351134Y-15300092D01*
X13351134Y-15300092D02*
X13379706Y-15300092D01*
X13379706Y-15300092D02*
X13398753Y-15309615D01*
X13398753Y-15309615D02*
X13408277Y-15319139D01*
X13408277Y-15319139D02*
X13417801Y-15338187D01*
X13417801Y-15338187D02*
X13417801Y-15395330D01*
X13417801Y-15395330D02*
X13408277Y-15414377D01*
X13408277Y-15414377D02*
X13398753Y-15423901D01*
X13398753Y-15423901D02*
X13379706Y-15433425D01*
X13379706Y-15433425D02*
X13351134Y-15433425D01*
X13532087Y-15433425D02*
X13513039Y-15423901D01*
X13513039Y-15423901D02*
X13503515Y-15404853D01*
X13503515Y-15404853D02*
X13503515Y-15233425D01*
X13684468Y-15423901D02*
X13665420Y-15433425D01*
X13665420Y-15433425D02*
X13627325Y-15433425D01*
X13627325Y-15433425D02*
X13608277Y-15423901D01*
X13608277Y-15423901D02*
X13598753Y-15404853D01*
X13598753Y-15404853D02*
X13598753Y-15328663D01*
X13598753Y-15328663D02*
X13608277Y-15309615D01*
X13608277Y-15309615D02*
X13627325Y-15300092D01*
X13627325Y-15300092D02*
X13665420Y-15300092D01*
X13665420Y-15300092D02*
X13684468Y-15309615D01*
X13684468Y-15309615D02*
X13693991Y-15328663D01*
X13693991Y-15328663D02*
X13693991Y-15347711D01*
X13693991Y-15347711D02*
X13598753Y-15366758D01*
X13770182Y-15423901D02*
X13789230Y-15433425D01*
X13789230Y-15433425D02*
X13827325Y-15433425D01*
X13827325Y-15433425D02*
X13846372Y-15423901D01*
X13846372Y-15423901D02*
X13855896Y-15404853D01*
X13855896Y-15404853D02*
X13855896Y-15395330D01*
X13855896Y-15395330D02*
X13846372Y-15376282D01*
X13846372Y-15376282D02*
X13827325Y-15366758D01*
X13827325Y-15366758D02*
X13798753Y-15366758D01*
X13798753Y-15366758D02*
X13779706Y-15357234D01*
X13779706Y-15357234D02*
X13770182Y-15338187D01*
X13770182Y-15338187D02*
X13770182Y-15328663D01*
X13770182Y-15328663D02*
X13779706Y-15309615D01*
X13779706Y-15309615D02*
X13798753Y-15300092D01*
X13798753Y-15300092D02*
X13827325Y-15300092D01*
X13827325Y-15300092D02*
X13846372Y-15309615D01*
X13922563Y-15509615D02*
X13932087Y-15500092D01*
X13932087Y-15500092D02*
X13951134Y-15471520D01*
X13951134Y-15471520D02*
X13960658Y-15452473D01*
X13960658Y-15452473D02*
X13970182Y-15423901D01*
X13970182Y-15423901D02*
X13979706Y-15376282D01*
X13979706Y-15376282D02*
X13979706Y-15338187D01*
X13979706Y-15338187D02*
X13970182Y-15290568D01*
X13970182Y-15290568D02*
X13960658Y-15261996D01*
X13960658Y-15261996D02*
X13951134Y-15242949D01*
X13951134Y-15242949D02*
X13932087Y-15214377D01*
X13932087Y-15214377D02*
X13922563Y-15204853D01*
D12*
X9147500Y-15605941D02*
G75*
G02*
X9077500Y-15605941I-35000J0D01*
G01*
X9077500Y-15605941D02*
G75*
G02*
X9147500Y-15605941I35000J0D01*
G01*
D11*
X9446372Y-15497425D02*
X9465420Y-15497425D01*
X9465420Y-15497425D02*
X9484467Y-15506949D01*
X9484467Y-15506949D02*
X9493991Y-15516473D01*
X9493991Y-15516473D02*
X9503515Y-15535520D01*
X9503515Y-15535520D02*
X9513039Y-15573615D01*
X9513039Y-15573615D02*
X9513039Y-15621234D01*
X9513039Y-15621234D02*
X9503515Y-15659330D01*
X9503515Y-15659330D02*
X9493991Y-15678377D01*
X9493991Y-15678377D02*
X9484467Y-15687901D01*
X9484467Y-15687901D02*
X9465420Y-15697425D01*
X9465420Y-15697425D02*
X9446372Y-15697425D01*
X9446372Y-15697425D02*
X9427324Y-15687901D01*
X9427324Y-15687901D02*
X9417801Y-15678377D01*
X9417801Y-15678377D02*
X9408277Y-15659330D01*
X9408277Y-15659330D02*
X9398753Y-15621234D01*
X9398753Y-15621234D02*
X9398753Y-15573615D01*
X9398753Y-15573615D02*
X9408277Y-15535520D01*
X9408277Y-15535520D02*
X9417801Y-15516473D01*
X9417801Y-15516473D02*
X9427324Y-15506949D01*
X9427324Y-15506949D02*
X9446372Y-15497425D01*
X9598753Y-15678377D02*
X9608277Y-15687901D01*
X9608277Y-15687901D02*
X9598753Y-15697425D01*
X9598753Y-15697425D02*
X9589229Y-15687901D01*
X9589229Y-15687901D02*
X9598753Y-15678377D01*
X9598753Y-15678377D02*
X9598753Y-15697425D01*
X9674944Y-15497425D02*
X9808277Y-15497425D01*
X9808277Y-15497425D02*
X9722563Y-15697425D01*
X9922563Y-15497425D02*
X9941610Y-15497425D01*
X9941610Y-15497425D02*
X9960658Y-15506949D01*
X9960658Y-15506949D02*
X9970182Y-15516473D01*
X9970182Y-15516473D02*
X9979705Y-15535520D01*
X9979705Y-15535520D02*
X9989229Y-15573615D01*
X9989229Y-15573615D02*
X9989229Y-15621234D01*
X9989229Y-15621234D02*
X9979705Y-15659330D01*
X9979705Y-15659330D02*
X9970182Y-15678377D01*
X9970182Y-15678377D02*
X9960658Y-15687901D01*
X9960658Y-15687901D02*
X9941610Y-15697425D01*
X9941610Y-15697425D02*
X9922563Y-15697425D01*
X9922563Y-15697425D02*
X9903515Y-15687901D01*
X9903515Y-15687901D02*
X9893991Y-15678377D01*
X9893991Y-15678377D02*
X9884467Y-15659330D01*
X9884467Y-15659330D02*
X9874944Y-15621234D01*
X9874944Y-15621234D02*
X9874944Y-15573615D01*
X9874944Y-15573615D02*
X9884467Y-15535520D01*
X9884467Y-15535520D02*
X9893991Y-15516473D01*
X9893991Y-15516473D02*
X9903515Y-15506949D01*
X9903515Y-15506949D02*
X9922563Y-15497425D01*
X10113039Y-15497425D02*
X10132086Y-15497425D01*
X10132086Y-15497425D02*
X10151134Y-15506949D01*
X10151134Y-15506949D02*
X10160658Y-15516473D01*
X10160658Y-15516473D02*
X10170182Y-15535520D01*
X10170182Y-15535520D02*
X10179705Y-15573615D01*
X10179705Y-15573615D02*
X10179705Y-15621234D01*
X10179705Y-15621234D02*
X10170182Y-15659330D01*
X10170182Y-15659330D02*
X10160658Y-15678377D01*
X10160658Y-15678377D02*
X10151134Y-15687901D01*
X10151134Y-15687901D02*
X10132086Y-15697425D01*
X10132086Y-15697425D02*
X10113039Y-15697425D01*
X10113039Y-15697425D02*
X10093991Y-15687901D01*
X10093991Y-15687901D02*
X10084467Y-15678377D01*
X10084467Y-15678377D02*
X10074944Y-15659330D01*
X10074944Y-15659330D02*
X10065420Y-15621234D01*
X10065420Y-15621234D02*
X10065420Y-15573615D01*
X10065420Y-15573615D02*
X10074944Y-15535520D01*
X10074944Y-15535520D02*
X10084467Y-15516473D01*
X10084467Y-15516473D02*
X10093991Y-15506949D01*
X10093991Y-15506949D02*
X10113039Y-15497425D01*
X10265420Y-15697425D02*
X10265420Y-15564092D01*
X10265420Y-15583139D02*
X10274944Y-15573615D01*
X10274944Y-15573615D02*
X10293991Y-15564092D01*
X10293991Y-15564092D02*
X10322563Y-15564092D01*
X10322563Y-15564092D02*
X10341610Y-15573615D01*
X10341610Y-15573615D02*
X10351134Y-15592663D01*
X10351134Y-15592663D02*
X10351134Y-15697425D01*
X10351134Y-15592663D02*
X10360658Y-15573615D01*
X10360658Y-15573615D02*
X10379705Y-15564092D01*
X10379705Y-15564092D02*
X10408277Y-15564092D01*
X10408277Y-15564092D02*
X10427325Y-15573615D01*
X10427325Y-15573615D02*
X10436848Y-15592663D01*
X10436848Y-15592663D02*
X10436848Y-15697425D01*
X10532086Y-15697425D02*
X10532086Y-15564092D01*
X10532086Y-15583139D02*
X10541610Y-15573615D01*
X10541610Y-15573615D02*
X10560658Y-15564092D01*
X10560658Y-15564092D02*
X10589229Y-15564092D01*
X10589229Y-15564092D02*
X10608277Y-15573615D01*
X10608277Y-15573615D02*
X10617801Y-15592663D01*
X10617801Y-15592663D02*
X10617801Y-15697425D01*
X10617801Y-15592663D02*
X10627325Y-15573615D01*
X10627325Y-15573615D02*
X10646372Y-15564092D01*
X10646372Y-15564092D02*
X10674944Y-15564092D01*
X10674944Y-15564092D02*
X10693991Y-15573615D01*
X10693991Y-15573615D02*
X10703515Y-15592663D01*
X10703515Y-15592663D02*
X10703515Y-15697425D01*
X11093991Y-15487901D02*
X10922563Y-15745044D01*
X11351134Y-15497425D02*
X11370182Y-15497425D01*
X11370182Y-15497425D02*
X11389229Y-15506949D01*
X11389229Y-15506949D02*
X11398753Y-15516473D01*
X11398753Y-15516473D02*
X11408277Y-15535520D01*
X11408277Y-15535520D02*
X11417801Y-15573615D01*
X11417801Y-15573615D02*
X11417801Y-15621234D01*
X11417801Y-15621234D02*
X11408277Y-15659330D01*
X11408277Y-15659330D02*
X11398753Y-15678377D01*
X11398753Y-15678377D02*
X11389229Y-15687901D01*
X11389229Y-15687901D02*
X11370182Y-15697425D01*
X11370182Y-15697425D02*
X11351134Y-15697425D01*
X11351134Y-15697425D02*
X11332086Y-15687901D01*
X11332086Y-15687901D02*
X11322563Y-15678377D01*
X11322563Y-15678377D02*
X11313039Y-15659330D01*
X11313039Y-15659330D02*
X11303515Y-15621234D01*
X11303515Y-15621234D02*
X11303515Y-15573615D01*
X11303515Y-15573615D02*
X11313039Y-15535520D01*
X11313039Y-15535520D02*
X11322563Y-15516473D01*
X11322563Y-15516473D02*
X11332086Y-15506949D01*
X11332086Y-15506949D02*
X11351134Y-15497425D01*
X11503515Y-15678377D02*
X11513039Y-15687901D01*
X11513039Y-15687901D02*
X11503515Y-15697425D01*
X11503515Y-15697425D02*
X11493991Y-15687901D01*
X11493991Y-15687901D02*
X11503515Y-15678377D01*
X11503515Y-15678377D02*
X11503515Y-15697425D01*
X11636848Y-15497425D02*
X11655896Y-15497425D01*
X11655896Y-15497425D02*
X11674944Y-15506949D01*
X11674944Y-15506949D02*
X11684467Y-15516473D01*
X11684467Y-15516473D02*
X11693991Y-15535520D01*
X11693991Y-15535520D02*
X11703515Y-15573615D01*
X11703515Y-15573615D02*
X11703515Y-15621234D01*
X11703515Y-15621234D02*
X11693991Y-15659330D01*
X11693991Y-15659330D02*
X11684467Y-15678377D01*
X11684467Y-15678377D02*
X11674944Y-15687901D01*
X11674944Y-15687901D02*
X11655896Y-15697425D01*
X11655896Y-15697425D02*
X11636848Y-15697425D01*
X11636848Y-15697425D02*
X11617801Y-15687901D01*
X11617801Y-15687901D02*
X11608277Y-15678377D01*
X11608277Y-15678377D02*
X11598753Y-15659330D01*
X11598753Y-15659330D02*
X11589229Y-15621234D01*
X11589229Y-15621234D02*
X11589229Y-15573615D01*
X11589229Y-15573615D02*
X11598753Y-15535520D01*
X11598753Y-15535520D02*
X11608277Y-15516473D01*
X11608277Y-15516473D02*
X11617801Y-15506949D01*
X11617801Y-15506949D02*
X11636848Y-15497425D01*
X11779706Y-15516473D02*
X11789229Y-15506949D01*
X11789229Y-15506949D02*
X11808277Y-15497425D01*
X11808277Y-15497425D02*
X11855896Y-15497425D01*
X11855896Y-15497425D02*
X11874944Y-15506949D01*
X11874944Y-15506949D02*
X11884467Y-15516473D01*
X11884467Y-15516473D02*
X11893991Y-15535520D01*
X11893991Y-15535520D02*
X11893991Y-15554568D01*
X11893991Y-15554568D02*
X11884467Y-15583139D01*
X11884467Y-15583139D02*
X11770182Y-15697425D01*
X11770182Y-15697425D02*
X11893991Y-15697425D01*
X11960658Y-15497425D02*
X12093991Y-15497425D01*
X12093991Y-15497425D02*
X12008277Y-15697425D01*
X12255896Y-15497425D02*
X12217801Y-15497425D01*
X12217801Y-15497425D02*
X12198753Y-15506949D01*
X12198753Y-15506949D02*
X12189229Y-15516473D01*
X12189229Y-15516473D02*
X12170182Y-15545044D01*
X12170182Y-15545044D02*
X12160658Y-15583139D01*
X12160658Y-15583139D02*
X12160658Y-15659330D01*
X12160658Y-15659330D02*
X12170182Y-15678377D01*
X12170182Y-15678377D02*
X12179706Y-15687901D01*
X12179706Y-15687901D02*
X12198753Y-15697425D01*
X12198753Y-15697425D02*
X12236848Y-15697425D01*
X12236848Y-15697425D02*
X12255896Y-15687901D01*
X12255896Y-15687901D02*
X12265420Y-15678377D01*
X12265420Y-15678377D02*
X12274944Y-15659330D01*
X12274944Y-15659330D02*
X12274944Y-15611711D01*
X12274944Y-15611711D02*
X12265420Y-15592663D01*
X12265420Y-15592663D02*
X12255896Y-15583139D01*
X12255896Y-15583139D02*
X12236848Y-15573615D01*
X12236848Y-15573615D02*
X12198753Y-15573615D01*
X12198753Y-15573615D02*
X12179706Y-15583139D01*
X12179706Y-15583139D02*
X12170182Y-15592663D01*
X12170182Y-15592663D02*
X12160658Y-15611711D01*
X12351134Y-15497425D02*
X12351134Y-15535520D01*
X12427325Y-15497425D02*
X12427325Y-15535520D01*
X12722563Y-15773615D02*
X12713039Y-15764092D01*
X12713039Y-15764092D02*
X12693991Y-15735520D01*
X12693991Y-15735520D02*
X12684468Y-15716473D01*
X12684468Y-15716473D02*
X12674944Y-15687901D01*
X12674944Y-15687901D02*
X12665420Y-15640282D01*
X12665420Y-15640282D02*
X12665420Y-15602187D01*
X12665420Y-15602187D02*
X12674944Y-15554568D01*
X12674944Y-15554568D02*
X12684468Y-15525996D01*
X12684468Y-15525996D02*
X12693991Y-15506949D01*
X12693991Y-15506949D02*
X12713039Y-15478377D01*
X12713039Y-15478377D02*
X12722563Y-15468853D01*
X12836848Y-15497425D02*
X12855896Y-15497425D01*
X12855896Y-15497425D02*
X12874944Y-15506949D01*
X12874944Y-15506949D02*
X12884468Y-15516473D01*
X12884468Y-15516473D02*
X12893991Y-15535520D01*
X12893991Y-15535520D02*
X12903515Y-15573615D01*
X12903515Y-15573615D02*
X12903515Y-15621234D01*
X12903515Y-15621234D02*
X12893991Y-15659330D01*
X12893991Y-15659330D02*
X12884468Y-15678377D01*
X12884468Y-15678377D02*
X12874944Y-15687901D01*
X12874944Y-15687901D02*
X12855896Y-15697425D01*
X12855896Y-15697425D02*
X12836848Y-15697425D01*
X12836848Y-15697425D02*
X12817801Y-15687901D01*
X12817801Y-15687901D02*
X12808277Y-15678377D01*
X12808277Y-15678377D02*
X12798753Y-15659330D01*
X12798753Y-15659330D02*
X12789229Y-15621234D01*
X12789229Y-15621234D02*
X12789229Y-15573615D01*
X12789229Y-15573615D02*
X12798753Y-15535520D01*
X12798753Y-15535520D02*
X12808277Y-15516473D01*
X12808277Y-15516473D02*
X12817801Y-15506949D01*
X12817801Y-15506949D02*
X12836848Y-15497425D01*
X13141610Y-15697425D02*
X13141610Y-15497425D01*
X13227325Y-15697425D02*
X13227325Y-15592663D01*
X13227325Y-15592663D02*
X13217801Y-15573615D01*
X13217801Y-15573615D02*
X13198753Y-15564092D01*
X13198753Y-15564092D02*
X13170182Y-15564092D01*
X13170182Y-15564092D02*
X13151134Y-15573615D01*
X13151134Y-15573615D02*
X13141610Y-15583139D01*
X13351134Y-15697425D02*
X13332087Y-15687901D01*
X13332087Y-15687901D02*
X13322563Y-15678377D01*
X13322563Y-15678377D02*
X13313039Y-15659330D01*
X13313039Y-15659330D02*
X13313039Y-15602187D01*
X13313039Y-15602187D02*
X13322563Y-15583139D01*
X13322563Y-15583139D02*
X13332087Y-15573615D01*
X13332087Y-15573615D02*
X13351134Y-15564092D01*
X13351134Y-15564092D02*
X13379706Y-15564092D01*
X13379706Y-15564092D02*
X13398753Y-15573615D01*
X13398753Y-15573615D02*
X13408277Y-15583139D01*
X13408277Y-15583139D02*
X13417801Y-15602187D01*
X13417801Y-15602187D02*
X13417801Y-15659330D01*
X13417801Y-15659330D02*
X13408277Y-15678377D01*
X13408277Y-15678377D02*
X13398753Y-15687901D01*
X13398753Y-15687901D02*
X13379706Y-15697425D01*
X13379706Y-15697425D02*
X13351134Y-15697425D01*
X13532087Y-15697425D02*
X13513039Y-15687901D01*
X13513039Y-15687901D02*
X13503515Y-15668853D01*
X13503515Y-15668853D02*
X13503515Y-15497425D01*
X13684468Y-15687901D02*
X13665420Y-15697425D01*
X13665420Y-15697425D02*
X13627325Y-15697425D01*
X13627325Y-15697425D02*
X13608277Y-15687901D01*
X13608277Y-15687901D02*
X13598753Y-15668853D01*
X13598753Y-15668853D02*
X13598753Y-15592663D01*
X13598753Y-15592663D02*
X13608277Y-15573615D01*
X13608277Y-15573615D02*
X13627325Y-15564092D01*
X13627325Y-15564092D02*
X13665420Y-15564092D01*
X13665420Y-15564092D02*
X13684468Y-15573615D01*
X13684468Y-15573615D02*
X13693991Y-15592663D01*
X13693991Y-15592663D02*
X13693991Y-15611711D01*
X13693991Y-15611711D02*
X13598753Y-15630758D01*
X13770182Y-15687901D02*
X13789230Y-15697425D01*
X13789230Y-15697425D02*
X13827325Y-15697425D01*
X13827325Y-15697425D02*
X13846372Y-15687901D01*
X13846372Y-15687901D02*
X13855896Y-15668853D01*
X13855896Y-15668853D02*
X13855896Y-15659330D01*
X13855896Y-15659330D02*
X13846372Y-15640282D01*
X13846372Y-15640282D02*
X13827325Y-15630758D01*
X13827325Y-15630758D02*
X13798753Y-15630758D01*
X13798753Y-15630758D02*
X13779706Y-15621234D01*
X13779706Y-15621234D02*
X13770182Y-15602187D01*
X13770182Y-15602187D02*
X13770182Y-15592663D01*
X13770182Y-15592663D02*
X13779706Y-15573615D01*
X13779706Y-15573615D02*
X13798753Y-15564092D01*
X13798753Y-15564092D02*
X13827325Y-15564092D01*
X13827325Y-15564092D02*
X13846372Y-15573615D01*
X14093992Y-15621234D02*
X14246373Y-15621234D01*
X14170182Y-15697425D02*
X14170182Y-15545044D01*
X14522563Y-15583139D02*
X14503515Y-15573615D01*
X14503515Y-15573615D02*
X14493992Y-15564092D01*
X14493992Y-15564092D02*
X14484468Y-15545044D01*
X14484468Y-15545044D02*
X14484468Y-15535520D01*
X14484468Y-15535520D02*
X14493992Y-15516473D01*
X14493992Y-15516473D02*
X14503515Y-15506949D01*
X14503515Y-15506949D02*
X14522563Y-15497425D01*
X14522563Y-15497425D02*
X14560658Y-15497425D01*
X14560658Y-15497425D02*
X14579706Y-15506949D01*
X14579706Y-15506949D02*
X14589230Y-15516473D01*
X14589230Y-15516473D02*
X14598753Y-15535520D01*
X14598753Y-15535520D02*
X14598753Y-15545044D01*
X14598753Y-15545044D02*
X14589230Y-15564092D01*
X14589230Y-15564092D02*
X14579706Y-15573615D01*
X14579706Y-15573615D02*
X14560658Y-15583139D01*
X14560658Y-15583139D02*
X14522563Y-15583139D01*
X14522563Y-15583139D02*
X14503515Y-15592663D01*
X14503515Y-15592663D02*
X14493992Y-15602187D01*
X14493992Y-15602187D02*
X14484468Y-15621234D01*
X14484468Y-15621234D02*
X14484468Y-15659330D01*
X14484468Y-15659330D02*
X14493992Y-15678377D01*
X14493992Y-15678377D02*
X14503515Y-15687901D01*
X14503515Y-15687901D02*
X14522563Y-15697425D01*
X14522563Y-15697425D02*
X14560658Y-15697425D01*
X14560658Y-15697425D02*
X14579706Y-15687901D01*
X14579706Y-15687901D02*
X14589230Y-15678377D01*
X14589230Y-15678377D02*
X14598753Y-15659330D01*
X14598753Y-15659330D02*
X14598753Y-15621234D01*
X14598753Y-15621234D02*
X14589230Y-15602187D01*
X14589230Y-15602187D02*
X14579706Y-15592663D01*
X14579706Y-15592663D02*
X14560658Y-15583139D01*
X14827325Y-15687901D02*
X14846373Y-15697425D01*
X14846373Y-15697425D02*
X14884468Y-15697425D01*
X14884468Y-15697425D02*
X14903515Y-15687901D01*
X14903515Y-15687901D02*
X14913039Y-15668853D01*
X14913039Y-15668853D02*
X14913039Y-15659330D01*
X14913039Y-15659330D02*
X14903515Y-15640282D01*
X14903515Y-15640282D02*
X14884468Y-15630758D01*
X14884468Y-15630758D02*
X14855896Y-15630758D01*
X14855896Y-15630758D02*
X14836849Y-15621234D01*
X14836849Y-15621234D02*
X14827325Y-15602187D01*
X14827325Y-15602187D02*
X14827325Y-15592663D01*
X14827325Y-15592663D02*
X14836849Y-15573615D01*
X14836849Y-15573615D02*
X14855896Y-15564092D01*
X14855896Y-15564092D02*
X14884468Y-15564092D01*
X14884468Y-15564092D02*
X14903515Y-15573615D01*
X15027325Y-15697425D02*
X15008277Y-15687901D01*
X15008277Y-15687901D02*
X14998754Y-15668853D01*
X14998754Y-15668853D02*
X14998754Y-15497425D01*
X15132087Y-15697425D02*
X15113039Y-15687901D01*
X15113039Y-15687901D02*
X15103515Y-15678377D01*
X15103515Y-15678377D02*
X15093992Y-15659330D01*
X15093992Y-15659330D02*
X15093992Y-15602187D01*
X15093992Y-15602187D02*
X15103515Y-15583139D01*
X15103515Y-15583139D02*
X15113039Y-15573615D01*
X15113039Y-15573615D02*
X15132087Y-15564092D01*
X15132087Y-15564092D02*
X15160658Y-15564092D01*
X15160658Y-15564092D02*
X15179706Y-15573615D01*
X15179706Y-15573615D02*
X15189230Y-15583139D01*
X15189230Y-15583139D02*
X15198754Y-15602187D01*
X15198754Y-15602187D02*
X15198754Y-15659330D01*
X15198754Y-15659330D02*
X15189230Y-15678377D01*
X15189230Y-15678377D02*
X15179706Y-15687901D01*
X15179706Y-15687901D02*
X15160658Y-15697425D01*
X15160658Y-15697425D02*
X15132087Y-15697425D01*
X15255896Y-15564092D02*
X15332087Y-15564092D01*
X15284468Y-15497425D02*
X15284468Y-15668853D01*
X15284468Y-15668853D02*
X15293992Y-15687901D01*
X15293992Y-15687901D02*
X15313039Y-15697425D01*
X15313039Y-15697425D02*
X15332087Y-15697425D01*
X15389230Y-15687901D02*
X15408277Y-15697425D01*
X15408277Y-15697425D02*
X15446373Y-15697425D01*
X15446373Y-15697425D02*
X15465420Y-15687901D01*
X15465420Y-15687901D02*
X15474944Y-15668853D01*
X15474944Y-15668853D02*
X15474944Y-15659330D01*
X15474944Y-15659330D02*
X15465420Y-15640282D01*
X15465420Y-15640282D02*
X15446373Y-15630758D01*
X15446373Y-15630758D02*
X15417801Y-15630758D01*
X15417801Y-15630758D02*
X15398754Y-15621234D01*
X15398754Y-15621234D02*
X15389230Y-15602187D01*
X15389230Y-15602187D02*
X15389230Y-15592663D01*
X15389230Y-15592663D02*
X15398754Y-15573615D01*
X15398754Y-15573615D02*
X15417801Y-15564092D01*
X15417801Y-15564092D02*
X15446373Y-15564092D01*
X15446373Y-15564092D02*
X15465420Y-15573615D01*
X15541611Y-15773615D02*
X15551135Y-15764092D01*
X15551135Y-15764092D02*
X15570182Y-15735520D01*
X15570182Y-15735520D02*
X15579706Y-15716473D01*
X15579706Y-15716473D02*
X15589230Y-15687901D01*
X15589230Y-15687901D02*
X15598754Y-15640282D01*
X15598754Y-15640282D02*
X15598754Y-15602187D01*
X15598754Y-15602187D02*
X15589230Y-15554568D01*
X15589230Y-15554568D02*
X15579706Y-15525996D01*
X15579706Y-15525996D02*
X15570182Y-15506949D01*
X15570182Y-15506949D02*
X15551135Y-15478377D01*
X15551135Y-15478377D02*
X15541611Y-15468853D01*
D12*
X9107500Y-15829941D02*
X9107500Y-15909941D01*
X9067500Y-15869941D02*
X9147500Y-15869941D01*
D11*
X9446372Y-15761425D02*
X9465420Y-15761425D01*
X9465420Y-15761425D02*
X9484467Y-15770949D01*
X9484467Y-15770949D02*
X9493991Y-15780473D01*
X9493991Y-15780473D02*
X9503515Y-15799520D01*
X9503515Y-15799520D02*
X9513039Y-15837615D01*
X9513039Y-15837615D02*
X9513039Y-15885234D01*
X9513039Y-15885234D02*
X9503515Y-15923330D01*
X9503515Y-15923330D02*
X9493991Y-15942377D01*
X9493991Y-15942377D02*
X9484467Y-15951901D01*
X9484467Y-15951901D02*
X9465420Y-15961425D01*
X9465420Y-15961425D02*
X9446372Y-15961425D01*
X9446372Y-15961425D02*
X9427324Y-15951901D01*
X9427324Y-15951901D02*
X9417801Y-15942377D01*
X9417801Y-15942377D02*
X9408277Y-15923330D01*
X9408277Y-15923330D02*
X9398753Y-15885234D01*
X9398753Y-15885234D02*
X9398753Y-15837615D01*
X9398753Y-15837615D02*
X9408277Y-15799520D01*
X9408277Y-15799520D02*
X9417801Y-15780473D01*
X9417801Y-15780473D02*
X9427324Y-15770949D01*
X9427324Y-15770949D02*
X9446372Y-15761425D01*
X9598753Y-15942377D02*
X9608277Y-15951901D01*
X9608277Y-15951901D02*
X9598753Y-15961425D01*
X9598753Y-15961425D02*
X9589229Y-15951901D01*
X9589229Y-15951901D02*
X9598753Y-15942377D01*
X9598753Y-15942377D02*
X9598753Y-15961425D01*
X9722563Y-15847139D02*
X9703515Y-15837615D01*
X9703515Y-15837615D02*
X9693991Y-15828092D01*
X9693991Y-15828092D02*
X9684467Y-15809044D01*
X9684467Y-15809044D02*
X9684467Y-15799520D01*
X9684467Y-15799520D02*
X9693991Y-15780473D01*
X9693991Y-15780473D02*
X9703515Y-15770949D01*
X9703515Y-15770949D02*
X9722563Y-15761425D01*
X9722563Y-15761425D02*
X9760658Y-15761425D01*
X9760658Y-15761425D02*
X9779705Y-15770949D01*
X9779705Y-15770949D02*
X9789229Y-15780473D01*
X9789229Y-15780473D02*
X9798753Y-15799520D01*
X9798753Y-15799520D02*
X9798753Y-15809044D01*
X9798753Y-15809044D02*
X9789229Y-15828092D01*
X9789229Y-15828092D02*
X9779705Y-15837615D01*
X9779705Y-15837615D02*
X9760658Y-15847139D01*
X9760658Y-15847139D02*
X9722563Y-15847139D01*
X9722563Y-15847139D02*
X9703515Y-15856663D01*
X9703515Y-15856663D02*
X9693991Y-15866187D01*
X9693991Y-15866187D02*
X9684467Y-15885234D01*
X9684467Y-15885234D02*
X9684467Y-15923330D01*
X9684467Y-15923330D02*
X9693991Y-15942377D01*
X9693991Y-15942377D02*
X9703515Y-15951901D01*
X9703515Y-15951901D02*
X9722563Y-15961425D01*
X9722563Y-15961425D02*
X9760658Y-15961425D01*
X9760658Y-15961425D02*
X9779705Y-15951901D01*
X9779705Y-15951901D02*
X9789229Y-15942377D01*
X9789229Y-15942377D02*
X9798753Y-15923330D01*
X9798753Y-15923330D02*
X9798753Y-15885234D01*
X9798753Y-15885234D02*
X9789229Y-15866187D01*
X9789229Y-15866187D02*
X9779705Y-15856663D01*
X9779705Y-15856663D02*
X9760658Y-15847139D01*
X9922563Y-15761425D02*
X9941610Y-15761425D01*
X9941610Y-15761425D02*
X9960658Y-15770949D01*
X9960658Y-15770949D02*
X9970182Y-15780473D01*
X9970182Y-15780473D02*
X9979705Y-15799520D01*
X9979705Y-15799520D02*
X9989229Y-15837615D01*
X9989229Y-15837615D02*
X9989229Y-15885234D01*
X9989229Y-15885234D02*
X9979705Y-15923330D01*
X9979705Y-15923330D02*
X9970182Y-15942377D01*
X9970182Y-15942377D02*
X9960658Y-15951901D01*
X9960658Y-15951901D02*
X9941610Y-15961425D01*
X9941610Y-15961425D02*
X9922563Y-15961425D01*
X9922563Y-15961425D02*
X9903515Y-15951901D01*
X9903515Y-15951901D02*
X9893991Y-15942377D01*
X9893991Y-15942377D02*
X9884467Y-15923330D01*
X9884467Y-15923330D02*
X9874944Y-15885234D01*
X9874944Y-15885234D02*
X9874944Y-15837615D01*
X9874944Y-15837615D02*
X9884467Y-15799520D01*
X9884467Y-15799520D02*
X9893991Y-15780473D01*
X9893991Y-15780473D02*
X9903515Y-15770949D01*
X9903515Y-15770949D02*
X9922563Y-15761425D01*
X10113039Y-15761425D02*
X10132086Y-15761425D01*
X10132086Y-15761425D02*
X10151134Y-15770949D01*
X10151134Y-15770949D02*
X10160658Y-15780473D01*
X10160658Y-15780473D02*
X10170182Y-15799520D01*
X10170182Y-15799520D02*
X10179705Y-15837615D01*
X10179705Y-15837615D02*
X10179705Y-15885234D01*
X10179705Y-15885234D02*
X10170182Y-15923330D01*
X10170182Y-15923330D02*
X10160658Y-15942377D01*
X10160658Y-15942377D02*
X10151134Y-15951901D01*
X10151134Y-15951901D02*
X10132086Y-15961425D01*
X10132086Y-15961425D02*
X10113039Y-15961425D01*
X10113039Y-15961425D02*
X10093991Y-15951901D01*
X10093991Y-15951901D02*
X10084467Y-15942377D01*
X10084467Y-15942377D02*
X10074944Y-15923330D01*
X10074944Y-15923330D02*
X10065420Y-15885234D01*
X10065420Y-15885234D02*
X10065420Y-15837615D01*
X10065420Y-15837615D02*
X10074944Y-15799520D01*
X10074944Y-15799520D02*
X10084467Y-15780473D01*
X10084467Y-15780473D02*
X10093991Y-15770949D01*
X10093991Y-15770949D02*
X10113039Y-15761425D01*
X10265420Y-15961425D02*
X10265420Y-15828092D01*
X10265420Y-15847139D02*
X10274944Y-15837615D01*
X10274944Y-15837615D02*
X10293991Y-15828092D01*
X10293991Y-15828092D02*
X10322563Y-15828092D01*
X10322563Y-15828092D02*
X10341610Y-15837615D01*
X10341610Y-15837615D02*
X10351134Y-15856663D01*
X10351134Y-15856663D02*
X10351134Y-15961425D01*
X10351134Y-15856663D02*
X10360658Y-15837615D01*
X10360658Y-15837615D02*
X10379705Y-15828092D01*
X10379705Y-15828092D02*
X10408277Y-15828092D01*
X10408277Y-15828092D02*
X10427325Y-15837615D01*
X10427325Y-15837615D02*
X10436848Y-15856663D01*
X10436848Y-15856663D02*
X10436848Y-15961425D01*
X10532086Y-15961425D02*
X10532086Y-15828092D01*
X10532086Y-15847139D02*
X10541610Y-15837615D01*
X10541610Y-15837615D02*
X10560658Y-15828092D01*
X10560658Y-15828092D02*
X10589229Y-15828092D01*
X10589229Y-15828092D02*
X10608277Y-15837615D01*
X10608277Y-15837615D02*
X10617801Y-15856663D01*
X10617801Y-15856663D02*
X10617801Y-15961425D01*
X10617801Y-15856663D02*
X10627325Y-15837615D01*
X10627325Y-15837615D02*
X10646372Y-15828092D01*
X10646372Y-15828092D02*
X10674944Y-15828092D01*
X10674944Y-15828092D02*
X10693991Y-15837615D01*
X10693991Y-15837615D02*
X10703515Y-15856663D01*
X10703515Y-15856663D02*
X10703515Y-15961425D01*
X11093991Y-15751901D02*
X10922563Y-16009044D01*
X11351134Y-15761425D02*
X11370182Y-15761425D01*
X11370182Y-15761425D02*
X11389229Y-15770949D01*
X11389229Y-15770949D02*
X11398753Y-15780473D01*
X11398753Y-15780473D02*
X11408277Y-15799520D01*
X11408277Y-15799520D02*
X11417801Y-15837615D01*
X11417801Y-15837615D02*
X11417801Y-15885234D01*
X11417801Y-15885234D02*
X11408277Y-15923330D01*
X11408277Y-15923330D02*
X11398753Y-15942377D01*
X11398753Y-15942377D02*
X11389229Y-15951901D01*
X11389229Y-15951901D02*
X11370182Y-15961425D01*
X11370182Y-15961425D02*
X11351134Y-15961425D01*
X11351134Y-15961425D02*
X11332086Y-15951901D01*
X11332086Y-15951901D02*
X11322563Y-15942377D01*
X11322563Y-15942377D02*
X11313039Y-15923330D01*
X11313039Y-15923330D02*
X11303515Y-15885234D01*
X11303515Y-15885234D02*
X11303515Y-15837615D01*
X11303515Y-15837615D02*
X11313039Y-15799520D01*
X11313039Y-15799520D02*
X11322563Y-15780473D01*
X11322563Y-15780473D02*
X11332086Y-15770949D01*
X11332086Y-15770949D02*
X11351134Y-15761425D01*
X11503515Y-15942377D02*
X11513039Y-15951901D01*
X11513039Y-15951901D02*
X11503515Y-15961425D01*
X11503515Y-15961425D02*
X11493991Y-15951901D01*
X11493991Y-15951901D02*
X11503515Y-15942377D01*
X11503515Y-15942377D02*
X11503515Y-15961425D01*
X11636848Y-15761425D02*
X11655896Y-15761425D01*
X11655896Y-15761425D02*
X11674944Y-15770949D01*
X11674944Y-15770949D02*
X11684467Y-15780473D01*
X11684467Y-15780473D02*
X11693991Y-15799520D01*
X11693991Y-15799520D02*
X11703515Y-15837615D01*
X11703515Y-15837615D02*
X11703515Y-15885234D01*
X11703515Y-15885234D02*
X11693991Y-15923330D01*
X11693991Y-15923330D02*
X11684467Y-15942377D01*
X11684467Y-15942377D02*
X11674944Y-15951901D01*
X11674944Y-15951901D02*
X11655896Y-15961425D01*
X11655896Y-15961425D02*
X11636848Y-15961425D01*
X11636848Y-15961425D02*
X11617801Y-15951901D01*
X11617801Y-15951901D02*
X11608277Y-15942377D01*
X11608277Y-15942377D02*
X11598753Y-15923330D01*
X11598753Y-15923330D02*
X11589229Y-15885234D01*
X11589229Y-15885234D02*
X11589229Y-15837615D01*
X11589229Y-15837615D02*
X11598753Y-15799520D01*
X11598753Y-15799520D02*
X11608277Y-15780473D01*
X11608277Y-15780473D02*
X11617801Y-15770949D01*
X11617801Y-15770949D02*
X11636848Y-15761425D01*
X11770182Y-15761425D02*
X11893991Y-15761425D01*
X11893991Y-15761425D02*
X11827325Y-15837615D01*
X11827325Y-15837615D02*
X11855896Y-15837615D01*
X11855896Y-15837615D02*
X11874944Y-15847139D01*
X11874944Y-15847139D02*
X11884467Y-15856663D01*
X11884467Y-15856663D02*
X11893991Y-15875711D01*
X11893991Y-15875711D02*
X11893991Y-15923330D01*
X11893991Y-15923330D02*
X11884467Y-15942377D01*
X11884467Y-15942377D02*
X11874944Y-15951901D01*
X11874944Y-15951901D02*
X11855896Y-15961425D01*
X11855896Y-15961425D02*
X11798753Y-15961425D01*
X11798753Y-15961425D02*
X11779706Y-15951901D01*
X11779706Y-15951901D02*
X11770182Y-15942377D01*
X12084467Y-15961425D02*
X11970182Y-15961425D01*
X12027325Y-15961425D02*
X12027325Y-15761425D01*
X12027325Y-15761425D02*
X12008277Y-15789996D01*
X12008277Y-15789996D02*
X11989229Y-15809044D01*
X11989229Y-15809044D02*
X11970182Y-15818568D01*
X12265420Y-15761425D02*
X12170182Y-15761425D01*
X12170182Y-15761425D02*
X12160658Y-15856663D01*
X12160658Y-15856663D02*
X12170182Y-15847139D01*
X12170182Y-15847139D02*
X12189229Y-15837615D01*
X12189229Y-15837615D02*
X12236848Y-15837615D01*
X12236848Y-15837615D02*
X12255896Y-15847139D01*
X12255896Y-15847139D02*
X12265420Y-15856663D01*
X12265420Y-15856663D02*
X12274944Y-15875711D01*
X12274944Y-15875711D02*
X12274944Y-15923330D01*
X12274944Y-15923330D02*
X12265420Y-15942377D01*
X12265420Y-15942377D02*
X12255896Y-15951901D01*
X12255896Y-15951901D02*
X12236848Y-15961425D01*
X12236848Y-15961425D02*
X12189229Y-15961425D01*
X12189229Y-15961425D02*
X12170182Y-15951901D01*
X12170182Y-15951901D02*
X12160658Y-15942377D01*
X12351134Y-15761425D02*
X12351134Y-15799520D01*
X12427325Y-15761425D02*
X12427325Y-15799520D01*
X12722563Y-16037615D02*
X12713039Y-16028092D01*
X12713039Y-16028092D02*
X12693991Y-15999520D01*
X12693991Y-15999520D02*
X12684468Y-15980473D01*
X12684468Y-15980473D02*
X12674944Y-15951901D01*
X12674944Y-15951901D02*
X12665420Y-15904282D01*
X12665420Y-15904282D02*
X12665420Y-15866187D01*
X12665420Y-15866187D02*
X12674944Y-15818568D01*
X12674944Y-15818568D02*
X12684468Y-15789996D01*
X12684468Y-15789996D02*
X12693991Y-15770949D01*
X12693991Y-15770949D02*
X12713039Y-15742377D01*
X12713039Y-15742377D02*
X12722563Y-15732853D01*
X12779706Y-15761425D02*
X12913039Y-15761425D01*
X12913039Y-15761425D02*
X12827325Y-15961425D01*
X13141610Y-15961425D02*
X13141610Y-15761425D01*
X13227325Y-15961425D02*
X13227325Y-15856663D01*
X13227325Y-15856663D02*
X13217801Y-15837615D01*
X13217801Y-15837615D02*
X13198753Y-15828092D01*
X13198753Y-15828092D02*
X13170182Y-15828092D01*
X13170182Y-15828092D02*
X13151134Y-15837615D01*
X13151134Y-15837615D02*
X13141610Y-15847139D01*
X13351134Y-15961425D02*
X13332087Y-15951901D01*
X13332087Y-15951901D02*
X13322563Y-15942377D01*
X13322563Y-15942377D02*
X13313039Y-15923330D01*
X13313039Y-15923330D02*
X13313039Y-15866187D01*
X13313039Y-15866187D02*
X13322563Y-15847139D01*
X13322563Y-15847139D02*
X13332087Y-15837615D01*
X13332087Y-15837615D02*
X13351134Y-15828092D01*
X13351134Y-15828092D02*
X13379706Y-15828092D01*
X13379706Y-15828092D02*
X13398753Y-15837615D01*
X13398753Y-15837615D02*
X13408277Y-15847139D01*
X13408277Y-15847139D02*
X13417801Y-15866187D01*
X13417801Y-15866187D02*
X13417801Y-15923330D01*
X13417801Y-15923330D02*
X13408277Y-15942377D01*
X13408277Y-15942377D02*
X13398753Y-15951901D01*
X13398753Y-15951901D02*
X13379706Y-15961425D01*
X13379706Y-15961425D02*
X13351134Y-15961425D01*
X13532087Y-15961425D02*
X13513039Y-15951901D01*
X13513039Y-15951901D02*
X13503515Y-15932853D01*
X13503515Y-15932853D02*
X13503515Y-15761425D01*
X13684468Y-15951901D02*
X13665420Y-15961425D01*
X13665420Y-15961425D02*
X13627325Y-15961425D01*
X13627325Y-15961425D02*
X13608277Y-15951901D01*
X13608277Y-15951901D02*
X13598753Y-15932853D01*
X13598753Y-15932853D02*
X13598753Y-15856663D01*
X13598753Y-15856663D02*
X13608277Y-15837615D01*
X13608277Y-15837615D02*
X13627325Y-15828092D01*
X13627325Y-15828092D02*
X13665420Y-15828092D01*
X13665420Y-15828092D02*
X13684468Y-15837615D01*
X13684468Y-15837615D02*
X13693991Y-15856663D01*
X13693991Y-15856663D02*
X13693991Y-15875711D01*
X13693991Y-15875711D02*
X13598753Y-15894758D01*
X13770182Y-15951901D02*
X13789230Y-15961425D01*
X13789230Y-15961425D02*
X13827325Y-15961425D01*
X13827325Y-15961425D02*
X13846372Y-15951901D01*
X13846372Y-15951901D02*
X13855896Y-15932853D01*
X13855896Y-15932853D02*
X13855896Y-15923330D01*
X13855896Y-15923330D02*
X13846372Y-15904282D01*
X13846372Y-15904282D02*
X13827325Y-15894758D01*
X13827325Y-15894758D02*
X13798753Y-15894758D01*
X13798753Y-15894758D02*
X13779706Y-15885234D01*
X13779706Y-15885234D02*
X13770182Y-15866187D01*
X13770182Y-15866187D02*
X13770182Y-15856663D01*
X13770182Y-15856663D02*
X13779706Y-15837615D01*
X13779706Y-15837615D02*
X13798753Y-15828092D01*
X13798753Y-15828092D02*
X13827325Y-15828092D01*
X13827325Y-15828092D02*
X13846372Y-15837615D01*
X13922563Y-16037615D02*
X13932087Y-16028092D01*
X13932087Y-16028092D02*
X13951134Y-15999520D01*
X13951134Y-15999520D02*
X13960658Y-15980473D01*
X13960658Y-15980473D02*
X13970182Y-15951901D01*
X13970182Y-15951901D02*
X13979706Y-15904282D01*
X13979706Y-15904282D02*
X13979706Y-15866187D01*
X13979706Y-15866187D02*
X13970182Y-15818568D01*
X13970182Y-15818568D02*
X13960658Y-15789996D01*
X13960658Y-15789996D02*
X13951134Y-15770949D01*
X13951134Y-15770949D02*
X13932087Y-15742377D01*
X13932087Y-15742377D02*
X13922563Y-15732853D01*
D12*
X9134320Y-16165761D02*
X9134320Y-16102121D01*
X9070680Y-16102121D01*
X9070680Y-16165761D01*
X9134320Y-16165761D01*
D11*
X9446372Y-16025425D02*
X9465420Y-16025425D01*
X9465420Y-16025425D02*
X9484467Y-16034949D01*
X9484467Y-16034949D02*
X9493991Y-16044473D01*
X9493991Y-16044473D02*
X9503515Y-16063520D01*
X9503515Y-16063520D02*
X9513039Y-16101615D01*
X9513039Y-16101615D02*
X9513039Y-16149234D01*
X9513039Y-16149234D02*
X9503515Y-16187330D01*
X9503515Y-16187330D02*
X9493991Y-16206377D01*
X9493991Y-16206377D02*
X9484467Y-16215901D01*
X9484467Y-16215901D02*
X9465420Y-16225425D01*
X9465420Y-16225425D02*
X9446372Y-16225425D01*
X9446372Y-16225425D02*
X9427324Y-16215901D01*
X9427324Y-16215901D02*
X9417801Y-16206377D01*
X9417801Y-16206377D02*
X9408277Y-16187330D01*
X9408277Y-16187330D02*
X9398753Y-16149234D01*
X9398753Y-16149234D02*
X9398753Y-16101615D01*
X9398753Y-16101615D02*
X9408277Y-16063520D01*
X9408277Y-16063520D02*
X9417801Y-16044473D01*
X9417801Y-16044473D02*
X9427324Y-16034949D01*
X9427324Y-16034949D02*
X9446372Y-16025425D01*
X9598753Y-16206377D02*
X9608277Y-16215901D01*
X9608277Y-16215901D02*
X9598753Y-16225425D01*
X9598753Y-16225425D02*
X9589229Y-16215901D01*
X9589229Y-16215901D02*
X9598753Y-16206377D01*
X9598753Y-16206377D02*
X9598753Y-16225425D01*
X9703515Y-16225425D02*
X9741610Y-16225425D01*
X9741610Y-16225425D02*
X9760658Y-16215901D01*
X9760658Y-16215901D02*
X9770182Y-16206377D01*
X9770182Y-16206377D02*
X9789229Y-16177806D01*
X9789229Y-16177806D02*
X9798753Y-16139711D01*
X9798753Y-16139711D02*
X9798753Y-16063520D01*
X9798753Y-16063520D02*
X9789229Y-16044473D01*
X9789229Y-16044473D02*
X9779705Y-16034949D01*
X9779705Y-16034949D02*
X9760658Y-16025425D01*
X9760658Y-16025425D02*
X9722563Y-16025425D01*
X9722563Y-16025425D02*
X9703515Y-16034949D01*
X9703515Y-16034949D02*
X9693991Y-16044473D01*
X9693991Y-16044473D02*
X9684467Y-16063520D01*
X9684467Y-16063520D02*
X9684467Y-16111139D01*
X9684467Y-16111139D02*
X9693991Y-16130187D01*
X9693991Y-16130187D02*
X9703515Y-16139711D01*
X9703515Y-16139711D02*
X9722563Y-16149234D01*
X9722563Y-16149234D02*
X9760658Y-16149234D01*
X9760658Y-16149234D02*
X9779705Y-16139711D01*
X9779705Y-16139711D02*
X9789229Y-16130187D01*
X9789229Y-16130187D02*
X9798753Y-16111139D01*
X9922563Y-16025425D02*
X9941610Y-16025425D01*
X9941610Y-16025425D02*
X9960658Y-16034949D01*
X9960658Y-16034949D02*
X9970182Y-16044473D01*
X9970182Y-16044473D02*
X9979705Y-16063520D01*
X9979705Y-16063520D02*
X9989229Y-16101615D01*
X9989229Y-16101615D02*
X9989229Y-16149234D01*
X9989229Y-16149234D02*
X9979705Y-16187330D01*
X9979705Y-16187330D02*
X9970182Y-16206377D01*
X9970182Y-16206377D02*
X9960658Y-16215901D01*
X9960658Y-16215901D02*
X9941610Y-16225425D01*
X9941610Y-16225425D02*
X9922563Y-16225425D01*
X9922563Y-16225425D02*
X9903515Y-16215901D01*
X9903515Y-16215901D02*
X9893991Y-16206377D01*
X9893991Y-16206377D02*
X9884467Y-16187330D01*
X9884467Y-16187330D02*
X9874944Y-16149234D01*
X9874944Y-16149234D02*
X9874944Y-16101615D01*
X9874944Y-16101615D02*
X9884467Y-16063520D01*
X9884467Y-16063520D02*
X9893991Y-16044473D01*
X9893991Y-16044473D02*
X9903515Y-16034949D01*
X9903515Y-16034949D02*
X9922563Y-16025425D01*
X10113039Y-16025425D02*
X10132086Y-16025425D01*
X10132086Y-16025425D02*
X10151134Y-16034949D01*
X10151134Y-16034949D02*
X10160658Y-16044473D01*
X10160658Y-16044473D02*
X10170182Y-16063520D01*
X10170182Y-16063520D02*
X10179705Y-16101615D01*
X10179705Y-16101615D02*
X10179705Y-16149234D01*
X10179705Y-16149234D02*
X10170182Y-16187330D01*
X10170182Y-16187330D02*
X10160658Y-16206377D01*
X10160658Y-16206377D02*
X10151134Y-16215901D01*
X10151134Y-16215901D02*
X10132086Y-16225425D01*
X10132086Y-16225425D02*
X10113039Y-16225425D01*
X10113039Y-16225425D02*
X10093991Y-16215901D01*
X10093991Y-16215901D02*
X10084467Y-16206377D01*
X10084467Y-16206377D02*
X10074944Y-16187330D01*
X10074944Y-16187330D02*
X10065420Y-16149234D01*
X10065420Y-16149234D02*
X10065420Y-16101615D01*
X10065420Y-16101615D02*
X10074944Y-16063520D01*
X10074944Y-16063520D02*
X10084467Y-16044473D01*
X10084467Y-16044473D02*
X10093991Y-16034949D01*
X10093991Y-16034949D02*
X10113039Y-16025425D01*
X10265420Y-16225425D02*
X10265420Y-16092092D01*
X10265420Y-16111139D02*
X10274944Y-16101615D01*
X10274944Y-16101615D02*
X10293991Y-16092092D01*
X10293991Y-16092092D02*
X10322563Y-16092092D01*
X10322563Y-16092092D02*
X10341610Y-16101615D01*
X10341610Y-16101615D02*
X10351134Y-16120663D01*
X10351134Y-16120663D02*
X10351134Y-16225425D01*
X10351134Y-16120663D02*
X10360658Y-16101615D01*
X10360658Y-16101615D02*
X10379705Y-16092092D01*
X10379705Y-16092092D02*
X10408277Y-16092092D01*
X10408277Y-16092092D02*
X10427325Y-16101615D01*
X10427325Y-16101615D02*
X10436848Y-16120663D01*
X10436848Y-16120663D02*
X10436848Y-16225425D01*
X10532086Y-16225425D02*
X10532086Y-16092092D01*
X10532086Y-16111139D02*
X10541610Y-16101615D01*
X10541610Y-16101615D02*
X10560658Y-16092092D01*
X10560658Y-16092092D02*
X10589229Y-16092092D01*
X10589229Y-16092092D02*
X10608277Y-16101615D01*
X10608277Y-16101615D02*
X10617801Y-16120663D01*
X10617801Y-16120663D02*
X10617801Y-16225425D01*
X10617801Y-16120663D02*
X10627325Y-16101615D01*
X10627325Y-16101615D02*
X10646372Y-16092092D01*
X10646372Y-16092092D02*
X10674944Y-16092092D01*
X10674944Y-16092092D02*
X10693991Y-16101615D01*
X10693991Y-16101615D02*
X10703515Y-16120663D01*
X10703515Y-16120663D02*
X10703515Y-16225425D01*
X11093991Y-16015901D02*
X10922563Y-16273044D01*
X11351134Y-16025425D02*
X11370182Y-16025425D01*
X11370182Y-16025425D02*
X11389229Y-16034949D01*
X11389229Y-16034949D02*
X11398753Y-16044473D01*
X11398753Y-16044473D02*
X11408277Y-16063520D01*
X11408277Y-16063520D02*
X11417801Y-16101615D01*
X11417801Y-16101615D02*
X11417801Y-16149234D01*
X11417801Y-16149234D02*
X11408277Y-16187330D01*
X11408277Y-16187330D02*
X11398753Y-16206377D01*
X11398753Y-16206377D02*
X11389229Y-16215901D01*
X11389229Y-16215901D02*
X11370182Y-16225425D01*
X11370182Y-16225425D02*
X11351134Y-16225425D01*
X11351134Y-16225425D02*
X11332086Y-16215901D01*
X11332086Y-16215901D02*
X11322563Y-16206377D01*
X11322563Y-16206377D02*
X11313039Y-16187330D01*
X11313039Y-16187330D02*
X11303515Y-16149234D01*
X11303515Y-16149234D02*
X11303515Y-16101615D01*
X11303515Y-16101615D02*
X11313039Y-16063520D01*
X11313039Y-16063520D02*
X11322563Y-16044473D01*
X11322563Y-16044473D02*
X11332086Y-16034949D01*
X11332086Y-16034949D02*
X11351134Y-16025425D01*
X11503515Y-16206377D02*
X11513039Y-16215901D01*
X11513039Y-16215901D02*
X11503515Y-16225425D01*
X11503515Y-16225425D02*
X11493991Y-16215901D01*
X11493991Y-16215901D02*
X11503515Y-16206377D01*
X11503515Y-16206377D02*
X11503515Y-16225425D01*
X11636848Y-16025425D02*
X11655896Y-16025425D01*
X11655896Y-16025425D02*
X11674944Y-16034949D01*
X11674944Y-16034949D02*
X11684467Y-16044473D01*
X11684467Y-16044473D02*
X11693991Y-16063520D01*
X11693991Y-16063520D02*
X11703515Y-16101615D01*
X11703515Y-16101615D02*
X11703515Y-16149234D01*
X11703515Y-16149234D02*
X11693991Y-16187330D01*
X11693991Y-16187330D02*
X11684467Y-16206377D01*
X11684467Y-16206377D02*
X11674944Y-16215901D01*
X11674944Y-16215901D02*
X11655896Y-16225425D01*
X11655896Y-16225425D02*
X11636848Y-16225425D01*
X11636848Y-16225425D02*
X11617801Y-16215901D01*
X11617801Y-16215901D02*
X11608277Y-16206377D01*
X11608277Y-16206377D02*
X11598753Y-16187330D01*
X11598753Y-16187330D02*
X11589229Y-16149234D01*
X11589229Y-16149234D02*
X11589229Y-16101615D01*
X11589229Y-16101615D02*
X11598753Y-16063520D01*
X11598753Y-16063520D02*
X11608277Y-16044473D01*
X11608277Y-16044473D02*
X11617801Y-16034949D01*
X11617801Y-16034949D02*
X11636848Y-16025425D01*
X11770182Y-16025425D02*
X11893991Y-16025425D01*
X11893991Y-16025425D02*
X11827325Y-16101615D01*
X11827325Y-16101615D02*
X11855896Y-16101615D01*
X11855896Y-16101615D02*
X11874944Y-16111139D01*
X11874944Y-16111139D02*
X11884467Y-16120663D01*
X11884467Y-16120663D02*
X11893991Y-16139711D01*
X11893991Y-16139711D02*
X11893991Y-16187330D01*
X11893991Y-16187330D02*
X11884467Y-16206377D01*
X11884467Y-16206377D02*
X11874944Y-16215901D01*
X11874944Y-16215901D02*
X11855896Y-16225425D01*
X11855896Y-16225425D02*
X11798753Y-16225425D01*
X11798753Y-16225425D02*
X11779706Y-16215901D01*
X11779706Y-16215901D02*
X11770182Y-16206377D01*
X12074944Y-16025425D02*
X11979706Y-16025425D01*
X11979706Y-16025425D02*
X11970182Y-16120663D01*
X11970182Y-16120663D02*
X11979706Y-16111139D01*
X11979706Y-16111139D02*
X11998753Y-16101615D01*
X11998753Y-16101615D02*
X12046372Y-16101615D01*
X12046372Y-16101615D02*
X12065420Y-16111139D01*
X12065420Y-16111139D02*
X12074944Y-16120663D01*
X12074944Y-16120663D02*
X12084467Y-16139711D01*
X12084467Y-16139711D02*
X12084467Y-16187330D01*
X12084467Y-16187330D02*
X12074944Y-16206377D01*
X12074944Y-16206377D02*
X12065420Y-16215901D01*
X12065420Y-16215901D02*
X12046372Y-16225425D01*
X12046372Y-16225425D02*
X11998753Y-16225425D01*
X11998753Y-16225425D02*
X11979706Y-16215901D01*
X11979706Y-16215901D02*
X11970182Y-16206377D01*
X12255896Y-16092092D02*
X12255896Y-16225425D01*
X12208277Y-16015901D02*
X12160658Y-16158758D01*
X12160658Y-16158758D02*
X12284467Y-16158758D01*
X12351134Y-16025425D02*
X12351134Y-16063520D01*
X12427325Y-16025425D02*
X12427325Y-16063520D01*
X12722563Y-16301615D02*
X12713039Y-16292092D01*
X12713039Y-16292092D02*
X12693991Y-16263520D01*
X12693991Y-16263520D02*
X12684468Y-16244473D01*
X12684468Y-16244473D02*
X12674944Y-16215901D01*
X12674944Y-16215901D02*
X12665420Y-16168282D01*
X12665420Y-16168282D02*
X12665420Y-16130187D01*
X12665420Y-16130187D02*
X12674944Y-16082568D01*
X12674944Y-16082568D02*
X12684468Y-16053996D01*
X12684468Y-16053996D02*
X12693991Y-16034949D01*
X12693991Y-16034949D02*
X12713039Y-16006377D01*
X12713039Y-16006377D02*
X12722563Y-15996853D01*
X12884468Y-16025425D02*
X12846372Y-16025425D01*
X12846372Y-16025425D02*
X12827325Y-16034949D01*
X12827325Y-16034949D02*
X12817801Y-16044473D01*
X12817801Y-16044473D02*
X12798753Y-16073044D01*
X12798753Y-16073044D02*
X12789229Y-16111139D01*
X12789229Y-16111139D02*
X12789229Y-16187330D01*
X12789229Y-16187330D02*
X12798753Y-16206377D01*
X12798753Y-16206377D02*
X12808277Y-16215901D01*
X12808277Y-16215901D02*
X12827325Y-16225425D01*
X12827325Y-16225425D02*
X12865420Y-16225425D01*
X12865420Y-16225425D02*
X12884468Y-16215901D01*
X12884468Y-16215901D02*
X12893991Y-16206377D01*
X12893991Y-16206377D02*
X12903515Y-16187330D01*
X12903515Y-16187330D02*
X12903515Y-16139711D01*
X12903515Y-16139711D02*
X12893991Y-16120663D01*
X12893991Y-16120663D02*
X12884468Y-16111139D01*
X12884468Y-16111139D02*
X12865420Y-16101615D01*
X12865420Y-16101615D02*
X12827325Y-16101615D01*
X12827325Y-16101615D02*
X12808277Y-16111139D01*
X12808277Y-16111139D02*
X12798753Y-16120663D01*
X12798753Y-16120663D02*
X12789229Y-16139711D01*
X13093991Y-16225425D02*
X12979706Y-16225425D01*
X13036848Y-16225425D02*
X13036848Y-16025425D01*
X13036848Y-16025425D02*
X13017801Y-16053996D01*
X13017801Y-16053996D02*
X12998753Y-16073044D01*
X12998753Y-16073044D02*
X12979706Y-16082568D01*
X13332087Y-16225425D02*
X13332087Y-16025425D01*
X13417801Y-16225425D02*
X13417801Y-16120663D01*
X13417801Y-16120663D02*
X13408277Y-16101615D01*
X13408277Y-16101615D02*
X13389230Y-16092092D01*
X13389230Y-16092092D02*
X13360658Y-16092092D01*
X13360658Y-16092092D02*
X13341610Y-16101615D01*
X13341610Y-16101615D02*
X13332087Y-16111139D01*
X13541610Y-16225425D02*
X13522563Y-16215901D01*
X13522563Y-16215901D02*
X13513039Y-16206377D01*
X13513039Y-16206377D02*
X13503515Y-16187330D01*
X13503515Y-16187330D02*
X13503515Y-16130187D01*
X13503515Y-16130187D02*
X13513039Y-16111139D01*
X13513039Y-16111139D02*
X13522563Y-16101615D01*
X13522563Y-16101615D02*
X13541610Y-16092092D01*
X13541610Y-16092092D02*
X13570182Y-16092092D01*
X13570182Y-16092092D02*
X13589230Y-16101615D01*
X13589230Y-16101615D02*
X13598753Y-16111139D01*
X13598753Y-16111139D02*
X13608277Y-16130187D01*
X13608277Y-16130187D02*
X13608277Y-16187330D01*
X13608277Y-16187330D02*
X13598753Y-16206377D01*
X13598753Y-16206377D02*
X13589230Y-16215901D01*
X13589230Y-16215901D02*
X13570182Y-16225425D01*
X13570182Y-16225425D02*
X13541610Y-16225425D01*
X13722563Y-16225425D02*
X13703515Y-16215901D01*
X13703515Y-16215901D02*
X13693991Y-16196853D01*
X13693991Y-16196853D02*
X13693991Y-16025425D01*
X13874944Y-16215901D02*
X13855896Y-16225425D01*
X13855896Y-16225425D02*
X13817801Y-16225425D01*
X13817801Y-16225425D02*
X13798753Y-16215901D01*
X13798753Y-16215901D02*
X13789230Y-16196853D01*
X13789230Y-16196853D02*
X13789230Y-16120663D01*
X13789230Y-16120663D02*
X13798753Y-16101615D01*
X13798753Y-16101615D02*
X13817801Y-16092092D01*
X13817801Y-16092092D02*
X13855896Y-16092092D01*
X13855896Y-16092092D02*
X13874944Y-16101615D01*
X13874944Y-16101615D02*
X13884468Y-16120663D01*
X13884468Y-16120663D02*
X13884468Y-16139711D01*
X13884468Y-16139711D02*
X13789230Y-16158758D01*
X13960658Y-16215901D02*
X13979706Y-16225425D01*
X13979706Y-16225425D02*
X14017801Y-16225425D01*
X14017801Y-16225425D02*
X14036849Y-16215901D01*
X14036849Y-16215901D02*
X14046372Y-16196853D01*
X14046372Y-16196853D02*
X14046372Y-16187330D01*
X14046372Y-16187330D02*
X14036849Y-16168282D01*
X14036849Y-16168282D02*
X14017801Y-16158758D01*
X14017801Y-16158758D02*
X13989230Y-16158758D01*
X13989230Y-16158758D02*
X13970182Y-16149234D01*
X13970182Y-16149234D02*
X13960658Y-16130187D01*
X13960658Y-16130187D02*
X13960658Y-16120663D01*
X13960658Y-16120663D02*
X13970182Y-16101615D01*
X13970182Y-16101615D02*
X13989230Y-16092092D01*
X13989230Y-16092092D02*
X14017801Y-16092092D01*
X14017801Y-16092092D02*
X14036849Y-16101615D01*
X14113039Y-16301615D02*
X14122563Y-16292092D01*
X14122563Y-16292092D02*
X14141611Y-16263520D01*
X14141611Y-16263520D02*
X14151134Y-16244473D01*
X14151134Y-16244473D02*
X14160658Y-16215901D01*
X14160658Y-16215901D02*
X14170182Y-16168282D01*
X14170182Y-16168282D02*
X14170182Y-16130187D01*
X14170182Y-16130187D02*
X14160658Y-16082568D01*
X14160658Y-16082568D02*
X14151134Y-16053996D01*
X14151134Y-16053996D02*
X14141611Y-16034949D01*
X14141611Y-16034949D02*
X14122563Y-16006377D01*
X14122563Y-16006377D02*
X14113039Y-15996853D01*
D12*
X9097500Y-16447941D02*
X9147500Y-16397941D01*
X9097500Y-16347941D01*
X9047500Y-16397941D01*
X9097500Y-16447941D01*
D11*
X9513039Y-16489425D02*
X9398753Y-16489425D01*
X9455896Y-16489425D02*
X9455896Y-16289425D01*
X9455896Y-16289425D02*
X9436848Y-16317996D01*
X9436848Y-16317996D02*
X9417801Y-16337044D01*
X9417801Y-16337044D02*
X9398753Y-16346568D01*
X9598753Y-16470377D02*
X9608277Y-16479901D01*
X9608277Y-16479901D02*
X9598753Y-16489425D01*
X9598753Y-16489425D02*
X9589229Y-16479901D01*
X9589229Y-16479901D02*
X9598753Y-16470377D01*
X9598753Y-16470377D02*
X9598753Y-16489425D01*
X9732086Y-16289425D02*
X9751134Y-16289425D01*
X9751134Y-16289425D02*
X9770182Y-16298949D01*
X9770182Y-16298949D02*
X9779705Y-16308473D01*
X9779705Y-16308473D02*
X9789229Y-16327520D01*
X9789229Y-16327520D02*
X9798753Y-16365615D01*
X9798753Y-16365615D02*
X9798753Y-16413234D01*
X9798753Y-16413234D02*
X9789229Y-16451330D01*
X9789229Y-16451330D02*
X9779705Y-16470377D01*
X9779705Y-16470377D02*
X9770182Y-16479901D01*
X9770182Y-16479901D02*
X9751134Y-16489425D01*
X9751134Y-16489425D02*
X9732086Y-16489425D01*
X9732086Y-16489425D02*
X9713039Y-16479901D01*
X9713039Y-16479901D02*
X9703515Y-16470377D01*
X9703515Y-16470377D02*
X9693991Y-16451330D01*
X9693991Y-16451330D02*
X9684467Y-16413234D01*
X9684467Y-16413234D02*
X9684467Y-16365615D01*
X9684467Y-16365615D02*
X9693991Y-16327520D01*
X9693991Y-16327520D02*
X9703515Y-16308473D01*
X9703515Y-16308473D02*
X9713039Y-16298949D01*
X9713039Y-16298949D02*
X9732086Y-16289425D01*
X9922563Y-16289425D02*
X9941610Y-16289425D01*
X9941610Y-16289425D02*
X9960658Y-16298949D01*
X9960658Y-16298949D02*
X9970182Y-16308473D01*
X9970182Y-16308473D02*
X9979705Y-16327520D01*
X9979705Y-16327520D02*
X9989229Y-16365615D01*
X9989229Y-16365615D02*
X9989229Y-16413234D01*
X9989229Y-16413234D02*
X9979705Y-16451330D01*
X9979705Y-16451330D02*
X9970182Y-16470377D01*
X9970182Y-16470377D02*
X9960658Y-16479901D01*
X9960658Y-16479901D02*
X9941610Y-16489425D01*
X9941610Y-16489425D02*
X9922563Y-16489425D01*
X9922563Y-16489425D02*
X9903515Y-16479901D01*
X9903515Y-16479901D02*
X9893991Y-16470377D01*
X9893991Y-16470377D02*
X9884467Y-16451330D01*
X9884467Y-16451330D02*
X9874944Y-16413234D01*
X9874944Y-16413234D02*
X9874944Y-16365615D01*
X9874944Y-16365615D02*
X9884467Y-16327520D01*
X9884467Y-16327520D02*
X9893991Y-16308473D01*
X9893991Y-16308473D02*
X9903515Y-16298949D01*
X9903515Y-16298949D02*
X9922563Y-16289425D01*
X10113039Y-16289425D02*
X10132086Y-16289425D01*
X10132086Y-16289425D02*
X10151134Y-16298949D01*
X10151134Y-16298949D02*
X10160658Y-16308473D01*
X10160658Y-16308473D02*
X10170182Y-16327520D01*
X10170182Y-16327520D02*
X10179705Y-16365615D01*
X10179705Y-16365615D02*
X10179705Y-16413234D01*
X10179705Y-16413234D02*
X10170182Y-16451330D01*
X10170182Y-16451330D02*
X10160658Y-16470377D01*
X10160658Y-16470377D02*
X10151134Y-16479901D01*
X10151134Y-16479901D02*
X10132086Y-16489425D01*
X10132086Y-16489425D02*
X10113039Y-16489425D01*
X10113039Y-16489425D02*
X10093991Y-16479901D01*
X10093991Y-16479901D02*
X10084467Y-16470377D01*
X10084467Y-16470377D02*
X10074944Y-16451330D01*
X10074944Y-16451330D02*
X10065420Y-16413234D01*
X10065420Y-16413234D02*
X10065420Y-16365615D01*
X10065420Y-16365615D02*
X10074944Y-16327520D01*
X10074944Y-16327520D02*
X10084467Y-16308473D01*
X10084467Y-16308473D02*
X10093991Y-16298949D01*
X10093991Y-16298949D02*
X10113039Y-16289425D01*
X10265420Y-16489425D02*
X10265420Y-16356092D01*
X10265420Y-16375139D02*
X10274944Y-16365615D01*
X10274944Y-16365615D02*
X10293991Y-16356092D01*
X10293991Y-16356092D02*
X10322563Y-16356092D01*
X10322563Y-16356092D02*
X10341610Y-16365615D01*
X10341610Y-16365615D02*
X10351134Y-16384663D01*
X10351134Y-16384663D02*
X10351134Y-16489425D01*
X10351134Y-16384663D02*
X10360658Y-16365615D01*
X10360658Y-16365615D02*
X10379705Y-16356092D01*
X10379705Y-16356092D02*
X10408277Y-16356092D01*
X10408277Y-16356092D02*
X10427325Y-16365615D01*
X10427325Y-16365615D02*
X10436848Y-16384663D01*
X10436848Y-16384663D02*
X10436848Y-16489425D01*
X10532086Y-16489425D02*
X10532086Y-16356092D01*
X10532086Y-16375139D02*
X10541610Y-16365615D01*
X10541610Y-16365615D02*
X10560658Y-16356092D01*
X10560658Y-16356092D02*
X10589229Y-16356092D01*
X10589229Y-16356092D02*
X10608277Y-16365615D01*
X10608277Y-16365615D02*
X10617801Y-16384663D01*
X10617801Y-16384663D02*
X10617801Y-16489425D01*
X10617801Y-16384663D02*
X10627325Y-16365615D01*
X10627325Y-16365615D02*
X10646372Y-16356092D01*
X10646372Y-16356092D02*
X10674944Y-16356092D01*
X10674944Y-16356092D02*
X10693991Y-16365615D01*
X10693991Y-16365615D02*
X10703515Y-16384663D01*
X10703515Y-16384663D02*
X10703515Y-16489425D01*
X11093991Y-16279901D02*
X10922563Y-16537044D01*
X11351134Y-16289425D02*
X11370182Y-16289425D01*
X11370182Y-16289425D02*
X11389229Y-16298949D01*
X11389229Y-16298949D02*
X11398753Y-16308473D01*
X11398753Y-16308473D02*
X11408277Y-16327520D01*
X11408277Y-16327520D02*
X11417801Y-16365615D01*
X11417801Y-16365615D02*
X11417801Y-16413234D01*
X11417801Y-16413234D02*
X11408277Y-16451330D01*
X11408277Y-16451330D02*
X11398753Y-16470377D01*
X11398753Y-16470377D02*
X11389229Y-16479901D01*
X11389229Y-16479901D02*
X11370182Y-16489425D01*
X11370182Y-16489425D02*
X11351134Y-16489425D01*
X11351134Y-16489425D02*
X11332086Y-16479901D01*
X11332086Y-16479901D02*
X11322563Y-16470377D01*
X11322563Y-16470377D02*
X11313039Y-16451330D01*
X11313039Y-16451330D02*
X11303515Y-16413234D01*
X11303515Y-16413234D02*
X11303515Y-16365615D01*
X11303515Y-16365615D02*
X11313039Y-16327520D01*
X11313039Y-16327520D02*
X11322563Y-16308473D01*
X11322563Y-16308473D02*
X11332086Y-16298949D01*
X11332086Y-16298949D02*
X11351134Y-16289425D01*
X11503515Y-16470377D02*
X11513039Y-16479901D01*
X11513039Y-16479901D02*
X11503515Y-16489425D01*
X11503515Y-16489425D02*
X11493991Y-16479901D01*
X11493991Y-16479901D02*
X11503515Y-16470377D01*
X11503515Y-16470377D02*
X11503515Y-16489425D01*
X11636848Y-16289425D02*
X11655896Y-16289425D01*
X11655896Y-16289425D02*
X11674944Y-16298949D01*
X11674944Y-16298949D02*
X11684467Y-16308473D01*
X11684467Y-16308473D02*
X11693991Y-16327520D01*
X11693991Y-16327520D02*
X11703515Y-16365615D01*
X11703515Y-16365615D02*
X11703515Y-16413234D01*
X11703515Y-16413234D02*
X11693991Y-16451330D01*
X11693991Y-16451330D02*
X11684467Y-16470377D01*
X11684467Y-16470377D02*
X11674944Y-16479901D01*
X11674944Y-16479901D02*
X11655896Y-16489425D01*
X11655896Y-16489425D02*
X11636848Y-16489425D01*
X11636848Y-16489425D02*
X11617801Y-16479901D01*
X11617801Y-16479901D02*
X11608277Y-16470377D01*
X11608277Y-16470377D02*
X11598753Y-16451330D01*
X11598753Y-16451330D02*
X11589229Y-16413234D01*
X11589229Y-16413234D02*
X11589229Y-16365615D01*
X11589229Y-16365615D02*
X11598753Y-16327520D01*
X11598753Y-16327520D02*
X11608277Y-16308473D01*
X11608277Y-16308473D02*
X11617801Y-16298949D01*
X11617801Y-16298949D02*
X11636848Y-16289425D01*
X11770182Y-16289425D02*
X11893991Y-16289425D01*
X11893991Y-16289425D02*
X11827325Y-16365615D01*
X11827325Y-16365615D02*
X11855896Y-16365615D01*
X11855896Y-16365615D02*
X11874944Y-16375139D01*
X11874944Y-16375139D02*
X11884467Y-16384663D01*
X11884467Y-16384663D02*
X11893991Y-16403711D01*
X11893991Y-16403711D02*
X11893991Y-16451330D01*
X11893991Y-16451330D02*
X11884467Y-16470377D01*
X11884467Y-16470377D02*
X11874944Y-16479901D01*
X11874944Y-16479901D02*
X11855896Y-16489425D01*
X11855896Y-16489425D02*
X11798753Y-16489425D01*
X11798753Y-16489425D02*
X11779706Y-16479901D01*
X11779706Y-16479901D02*
X11770182Y-16470377D01*
X11989229Y-16489425D02*
X12027325Y-16489425D01*
X12027325Y-16489425D02*
X12046372Y-16479901D01*
X12046372Y-16479901D02*
X12055896Y-16470377D01*
X12055896Y-16470377D02*
X12074944Y-16441806D01*
X12074944Y-16441806D02*
X12084467Y-16403711D01*
X12084467Y-16403711D02*
X12084467Y-16327520D01*
X12084467Y-16327520D02*
X12074944Y-16308473D01*
X12074944Y-16308473D02*
X12065420Y-16298949D01*
X12065420Y-16298949D02*
X12046372Y-16289425D01*
X12046372Y-16289425D02*
X12008277Y-16289425D01*
X12008277Y-16289425D02*
X11989229Y-16298949D01*
X11989229Y-16298949D02*
X11979706Y-16308473D01*
X11979706Y-16308473D02*
X11970182Y-16327520D01*
X11970182Y-16327520D02*
X11970182Y-16375139D01*
X11970182Y-16375139D02*
X11979706Y-16394187D01*
X11979706Y-16394187D02*
X11989229Y-16403711D01*
X11989229Y-16403711D02*
X12008277Y-16413234D01*
X12008277Y-16413234D02*
X12046372Y-16413234D01*
X12046372Y-16413234D02*
X12065420Y-16403711D01*
X12065420Y-16403711D02*
X12074944Y-16394187D01*
X12074944Y-16394187D02*
X12084467Y-16375139D01*
X12255896Y-16356092D02*
X12255896Y-16489425D01*
X12208277Y-16279901D02*
X12160658Y-16422758D01*
X12160658Y-16422758D02*
X12284467Y-16422758D01*
X12351134Y-16289425D02*
X12351134Y-16327520D01*
X12427325Y-16289425D02*
X12427325Y-16327520D01*
X12722563Y-16565615D02*
X12713039Y-16556092D01*
X12713039Y-16556092D02*
X12693991Y-16527520D01*
X12693991Y-16527520D02*
X12684468Y-16508473D01*
X12684468Y-16508473D02*
X12674944Y-16479901D01*
X12674944Y-16479901D02*
X12665420Y-16432282D01*
X12665420Y-16432282D02*
X12665420Y-16394187D01*
X12665420Y-16394187D02*
X12674944Y-16346568D01*
X12674944Y-16346568D02*
X12684468Y-16317996D01*
X12684468Y-16317996D02*
X12693991Y-16298949D01*
X12693991Y-16298949D02*
X12713039Y-16270377D01*
X12713039Y-16270377D02*
X12722563Y-16260853D01*
X12779706Y-16289425D02*
X12903515Y-16289425D01*
X12903515Y-16289425D02*
X12836848Y-16365615D01*
X12836848Y-16365615D02*
X12865420Y-16365615D01*
X12865420Y-16365615D02*
X12884468Y-16375139D01*
X12884468Y-16375139D02*
X12893991Y-16384663D01*
X12893991Y-16384663D02*
X12903515Y-16403711D01*
X12903515Y-16403711D02*
X12903515Y-16451330D01*
X12903515Y-16451330D02*
X12893991Y-16470377D01*
X12893991Y-16470377D02*
X12884468Y-16479901D01*
X12884468Y-16479901D02*
X12865420Y-16489425D01*
X12865420Y-16489425D02*
X12808277Y-16489425D01*
X12808277Y-16489425D02*
X12789229Y-16479901D01*
X12789229Y-16479901D02*
X12779706Y-16470377D01*
X13141610Y-16489425D02*
X13141610Y-16289425D01*
X13227325Y-16489425D02*
X13227325Y-16384663D01*
X13227325Y-16384663D02*
X13217801Y-16365615D01*
X13217801Y-16365615D02*
X13198753Y-16356092D01*
X13198753Y-16356092D02*
X13170182Y-16356092D01*
X13170182Y-16356092D02*
X13151134Y-16365615D01*
X13151134Y-16365615D02*
X13141610Y-16375139D01*
X13351134Y-16489425D02*
X13332087Y-16479901D01*
X13332087Y-16479901D02*
X13322563Y-16470377D01*
X13322563Y-16470377D02*
X13313039Y-16451330D01*
X13313039Y-16451330D02*
X13313039Y-16394187D01*
X13313039Y-16394187D02*
X13322563Y-16375139D01*
X13322563Y-16375139D02*
X13332087Y-16365615D01*
X13332087Y-16365615D02*
X13351134Y-16356092D01*
X13351134Y-16356092D02*
X13379706Y-16356092D01*
X13379706Y-16356092D02*
X13398753Y-16365615D01*
X13398753Y-16365615D02*
X13408277Y-16375139D01*
X13408277Y-16375139D02*
X13417801Y-16394187D01*
X13417801Y-16394187D02*
X13417801Y-16451330D01*
X13417801Y-16451330D02*
X13408277Y-16470377D01*
X13408277Y-16470377D02*
X13398753Y-16479901D01*
X13398753Y-16479901D02*
X13379706Y-16489425D01*
X13379706Y-16489425D02*
X13351134Y-16489425D01*
X13532087Y-16489425D02*
X13513039Y-16479901D01*
X13513039Y-16479901D02*
X13503515Y-16460853D01*
X13503515Y-16460853D02*
X13503515Y-16289425D01*
X13684468Y-16479901D02*
X13665420Y-16489425D01*
X13665420Y-16489425D02*
X13627325Y-16489425D01*
X13627325Y-16489425D02*
X13608277Y-16479901D01*
X13608277Y-16479901D02*
X13598753Y-16460853D01*
X13598753Y-16460853D02*
X13598753Y-16384663D01*
X13598753Y-16384663D02*
X13608277Y-16365615D01*
X13608277Y-16365615D02*
X13627325Y-16356092D01*
X13627325Y-16356092D02*
X13665420Y-16356092D01*
X13665420Y-16356092D02*
X13684468Y-16365615D01*
X13684468Y-16365615D02*
X13693991Y-16384663D01*
X13693991Y-16384663D02*
X13693991Y-16403711D01*
X13693991Y-16403711D02*
X13598753Y-16422758D01*
X13770182Y-16479901D02*
X13789230Y-16489425D01*
X13789230Y-16489425D02*
X13827325Y-16489425D01*
X13827325Y-16489425D02*
X13846372Y-16479901D01*
X13846372Y-16479901D02*
X13855896Y-16460853D01*
X13855896Y-16460853D02*
X13855896Y-16451330D01*
X13855896Y-16451330D02*
X13846372Y-16432282D01*
X13846372Y-16432282D02*
X13827325Y-16422758D01*
X13827325Y-16422758D02*
X13798753Y-16422758D01*
X13798753Y-16422758D02*
X13779706Y-16413234D01*
X13779706Y-16413234D02*
X13770182Y-16394187D01*
X13770182Y-16394187D02*
X13770182Y-16384663D01*
X13770182Y-16384663D02*
X13779706Y-16365615D01*
X13779706Y-16365615D02*
X13798753Y-16356092D01*
X13798753Y-16356092D02*
X13827325Y-16356092D01*
X13827325Y-16356092D02*
X13846372Y-16365615D01*
X13922563Y-16565615D02*
X13932087Y-16556092D01*
X13932087Y-16556092D02*
X13951134Y-16527520D01*
X13951134Y-16527520D02*
X13960658Y-16508473D01*
X13960658Y-16508473D02*
X13970182Y-16479901D01*
X13970182Y-16479901D02*
X13979706Y-16432282D01*
X13979706Y-16432282D02*
X13979706Y-16394187D01*
X13979706Y-16394187D02*
X13970182Y-16346568D01*
X13970182Y-16346568D02*
X13960658Y-16317996D01*
X13960658Y-16317996D02*
X13951134Y-16298949D01*
X13951134Y-16298949D02*
X13932087Y-16270377D01*
X13932087Y-16270377D02*
X13922563Y-16260853D01*
D13*
X9037500Y-16606941D02*
X9147500Y-16716941D01*
X9147500Y-16606941D02*
X9037500Y-16716941D01*
X9147500Y-16661941D02*
G75*
G02*
X9037500Y-16661941I-55000J0D01*
G01*
X9037500Y-16661941D02*
G75*
G02*
X9147500Y-16661941I55000J0D01*
G01*
D11*
X9513039Y-16753425D02*
X9398753Y-16753425D01*
X9455896Y-16753425D02*
X9455896Y-16553425D01*
X9455896Y-16553425D02*
X9436848Y-16581996D01*
X9436848Y-16581996D02*
X9417801Y-16601044D01*
X9417801Y-16601044D02*
X9398753Y-16610568D01*
X9598753Y-16734377D02*
X9608277Y-16743901D01*
X9608277Y-16743901D02*
X9598753Y-16753425D01*
X9598753Y-16753425D02*
X9589229Y-16743901D01*
X9589229Y-16743901D02*
X9598753Y-16734377D01*
X9598753Y-16734377D02*
X9598753Y-16753425D01*
X9798753Y-16753425D02*
X9684467Y-16753425D01*
X9741610Y-16753425D02*
X9741610Y-16553425D01*
X9741610Y-16553425D02*
X9722563Y-16581996D01*
X9722563Y-16581996D02*
X9703515Y-16601044D01*
X9703515Y-16601044D02*
X9684467Y-16610568D01*
X9922563Y-16553425D02*
X9941610Y-16553425D01*
X9941610Y-16553425D02*
X9960658Y-16562949D01*
X9960658Y-16562949D02*
X9970182Y-16572473D01*
X9970182Y-16572473D02*
X9979705Y-16591520D01*
X9979705Y-16591520D02*
X9989229Y-16629615D01*
X9989229Y-16629615D02*
X9989229Y-16677234D01*
X9989229Y-16677234D02*
X9979705Y-16715330D01*
X9979705Y-16715330D02*
X9970182Y-16734377D01*
X9970182Y-16734377D02*
X9960658Y-16743901D01*
X9960658Y-16743901D02*
X9941610Y-16753425D01*
X9941610Y-16753425D02*
X9922563Y-16753425D01*
X9922563Y-16753425D02*
X9903515Y-16743901D01*
X9903515Y-16743901D02*
X9893991Y-16734377D01*
X9893991Y-16734377D02*
X9884467Y-16715330D01*
X9884467Y-16715330D02*
X9874944Y-16677234D01*
X9874944Y-16677234D02*
X9874944Y-16629615D01*
X9874944Y-16629615D02*
X9884467Y-16591520D01*
X9884467Y-16591520D02*
X9893991Y-16572473D01*
X9893991Y-16572473D02*
X9903515Y-16562949D01*
X9903515Y-16562949D02*
X9922563Y-16553425D01*
X10113039Y-16553425D02*
X10132086Y-16553425D01*
X10132086Y-16553425D02*
X10151134Y-16562949D01*
X10151134Y-16562949D02*
X10160658Y-16572473D01*
X10160658Y-16572473D02*
X10170182Y-16591520D01*
X10170182Y-16591520D02*
X10179705Y-16629615D01*
X10179705Y-16629615D02*
X10179705Y-16677234D01*
X10179705Y-16677234D02*
X10170182Y-16715330D01*
X10170182Y-16715330D02*
X10160658Y-16734377D01*
X10160658Y-16734377D02*
X10151134Y-16743901D01*
X10151134Y-16743901D02*
X10132086Y-16753425D01*
X10132086Y-16753425D02*
X10113039Y-16753425D01*
X10113039Y-16753425D02*
X10093991Y-16743901D01*
X10093991Y-16743901D02*
X10084467Y-16734377D01*
X10084467Y-16734377D02*
X10074944Y-16715330D01*
X10074944Y-16715330D02*
X10065420Y-16677234D01*
X10065420Y-16677234D02*
X10065420Y-16629615D01*
X10065420Y-16629615D02*
X10074944Y-16591520D01*
X10074944Y-16591520D02*
X10084467Y-16572473D01*
X10084467Y-16572473D02*
X10093991Y-16562949D01*
X10093991Y-16562949D02*
X10113039Y-16553425D01*
X10265420Y-16753425D02*
X10265420Y-16620092D01*
X10265420Y-16639139D02*
X10274944Y-16629615D01*
X10274944Y-16629615D02*
X10293991Y-16620092D01*
X10293991Y-16620092D02*
X10322563Y-16620092D01*
X10322563Y-16620092D02*
X10341610Y-16629615D01*
X10341610Y-16629615D02*
X10351134Y-16648663D01*
X10351134Y-16648663D02*
X10351134Y-16753425D01*
X10351134Y-16648663D02*
X10360658Y-16629615D01*
X10360658Y-16629615D02*
X10379705Y-16620092D01*
X10379705Y-16620092D02*
X10408277Y-16620092D01*
X10408277Y-16620092D02*
X10427325Y-16629615D01*
X10427325Y-16629615D02*
X10436848Y-16648663D01*
X10436848Y-16648663D02*
X10436848Y-16753425D01*
X10532086Y-16753425D02*
X10532086Y-16620092D01*
X10532086Y-16639139D02*
X10541610Y-16629615D01*
X10541610Y-16629615D02*
X10560658Y-16620092D01*
X10560658Y-16620092D02*
X10589229Y-16620092D01*
X10589229Y-16620092D02*
X10608277Y-16629615D01*
X10608277Y-16629615D02*
X10617801Y-16648663D01*
X10617801Y-16648663D02*
X10617801Y-16753425D01*
X10617801Y-16648663D02*
X10627325Y-16629615D01*
X10627325Y-16629615D02*
X10646372Y-16620092D01*
X10646372Y-16620092D02*
X10674944Y-16620092D01*
X10674944Y-16620092D02*
X10693991Y-16629615D01*
X10693991Y-16629615D02*
X10703515Y-16648663D01*
X10703515Y-16648663D02*
X10703515Y-16753425D01*
X11093991Y-16543901D02*
X10922563Y-16801044D01*
X11351134Y-16553425D02*
X11370182Y-16553425D01*
X11370182Y-16553425D02*
X11389229Y-16562949D01*
X11389229Y-16562949D02*
X11398753Y-16572473D01*
X11398753Y-16572473D02*
X11408277Y-16591520D01*
X11408277Y-16591520D02*
X11417801Y-16629615D01*
X11417801Y-16629615D02*
X11417801Y-16677234D01*
X11417801Y-16677234D02*
X11408277Y-16715330D01*
X11408277Y-16715330D02*
X11398753Y-16734377D01*
X11398753Y-16734377D02*
X11389229Y-16743901D01*
X11389229Y-16743901D02*
X11370182Y-16753425D01*
X11370182Y-16753425D02*
X11351134Y-16753425D01*
X11351134Y-16753425D02*
X11332086Y-16743901D01*
X11332086Y-16743901D02*
X11322563Y-16734377D01*
X11322563Y-16734377D02*
X11313039Y-16715330D01*
X11313039Y-16715330D02*
X11303515Y-16677234D01*
X11303515Y-16677234D02*
X11303515Y-16629615D01*
X11303515Y-16629615D02*
X11313039Y-16591520D01*
X11313039Y-16591520D02*
X11322563Y-16572473D01*
X11322563Y-16572473D02*
X11332086Y-16562949D01*
X11332086Y-16562949D02*
X11351134Y-16553425D01*
X11503515Y-16734377D02*
X11513039Y-16743901D01*
X11513039Y-16743901D02*
X11503515Y-16753425D01*
X11503515Y-16753425D02*
X11493991Y-16743901D01*
X11493991Y-16743901D02*
X11503515Y-16734377D01*
X11503515Y-16734377D02*
X11503515Y-16753425D01*
X11636848Y-16553425D02*
X11655896Y-16553425D01*
X11655896Y-16553425D02*
X11674944Y-16562949D01*
X11674944Y-16562949D02*
X11684467Y-16572473D01*
X11684467Y-16572473D02*
X11693991Y-16591520D01*
X11693991Y-16591520D02*
X11703515Y-16629615D01*
X11703515Y-16629615D02*
X11703515Y-16677234D01*
X11703515Y-16677234D02*
X11693991Y-16715330D01*
X11693991Y-16715330D02*
X11684467Y-16734377D01*
X11684467Y-16734377D02*
X11674944Y-16743901D01*
X11674944Y-16743901D02*
X11655896Y-16753425D01*
X11655896Y-16753425D02*
X11636848Y-16753425D01*
X11636848Y-16753425D02*
X11617801Y-16743901D01*
X11617801Y-16743901D02*
X11608277Y-16734377D01*
X11608277Y-16734377D02*
X11598753Y-16715330D01*
X11598753Y-16715330D02*
X11589229Y-16677234D01*
X11589229Y-16677234D02*
X11589229Y-16629615D01*
X11589229Y-16629615D02*
X11598753Y-16591520D01*
X11598753Y-16591520D02*
X11608277Y-16572473D01*
X11608277Y-16572473D02*
X11617801Y-16562949D01*
X11617801Y-16562949D02*
X11636848Y-16553425D01*
X11874944Y-16620092D02*
X11874944Y-16753425D01*
X11827325Y-16543901D02*
X11779706Y-16686758D01*
X11779706Y-16686758D02*
X11903515Y-16686758D01*
X11960658Y-16553425D02*
X12084467Y-16553425D01*
X12084467Y-16553425D02*
X12017801Y-16629615D01*
X12017801Y-16629615D02*
X12046372Y-16629615D01*
X12046372Y-16629615D02*
X12065420Y-16639139D01*
X12065420Y-16639139D02*
X12074944Y-16648663D01*
X12074944Y-16648663D02*
X12084467Y-16667711D01*
X12084467Y-16667711D02*
X12084467Y-16715330D01*
X12084467Y-16715330D02*
X12074944Y-16734377D01*
X12074944Y-16734377D02*
X12065420Y-16743901D01*
X12065420Y-16743901D02*
X12046372Y-16753425D01*
X12046372Y-16753425D02*
X11989229Y-16753425D01*
X11989229Y-16753425D02*
X11970182Y-16743901D01*
X11970182Y-16743901D02*
X11960658Y-16734377D01*
X12151134Y-16553425D02*
X12274944Y-16553425D01*
X12274944Y-16553425D02*
X12208277Y-16629615D01*
X12208277Y-16629615D02*
X12236848Y-16629615D01*
X12236848Y-16629615D02*
X12255896Y-16639139D01*
X12255896Y-16639139D02*
X12265420Y-16648663D01*
X12265420Y-16648663D02*
X12274944Y-16667711D01*
X12274944Y-16667711D02*
X12274944Y-16715330D01*
X12274944Y-16715330D02*
X12265420Y-16734377D01*
X12265420Y-16734377D02*
X12255896Y-16743901D01*
X12255896Y-16743901D02*
X12236848Y-16753425D01*
X12236848Y-16753425D02*
X12179706Y-16753425D01*
X12179706Y-16753425D02*
X12160658Y-16743901D01*
X12160658Y-16743901D02*
X12151134Y-16734377D01*
X12351134Y-16553425D02*
X12351134Y-16591520D01*
X12427325Y-16553425D02*
X12427325Y-16591520D01*
X12722563Y-16829615D02*
X12713039Y-16820092D01*
X12713039Y-16820092D02*
X12693991Y-16791520D01*
X12693991Y-16791520D02*
X12684468Y-16772473D01*
X12684468Y-16772473D02*
X12674944Y-16743901D01*
X12674944Y-16743901D02*
X12665420Y-16696282D01*
X12665420Y-16696282D02*
X12665420Y-16658187D01*
X12665420Y-16658187D02*
X12674944Y-16610568D01*
X12674944Y-16610568D02*
X12684468Y-16581996D01*
X12684468Y-16581996D02*
X12693991Y-16562949D01*
X12693991Y-16562949D02*
X12713039Y-16534377D01*
X12713039Y-16534377D02*
X12722563Y-16524853D01*
X12884468Y-16620092D02*
X12884468Y-16753425D01*
X12836848Y-16543901D02*
X12789229Y-16686758D01*
X12789229Y-16686758D02*
X12913039Y-16686758D01*
X13141610Y-16753425D02*
X13141610Y-16553425D01*
X13227325Y-16753425D02*
X13227325Y-16648663D01*
X13227325Y-16648663D02*
X13217801Y-16629615D01*
X13217801Y-16629615D02*
X13198753Y-16620092D01*
X13198753Y-16620092D02*
X13170182Y-16620092D01*
X13170182Y-16620092D02*
X13151134Y-16629615D01*
X13151134Y-16629615D02*
X13141610Y-16639139D01*
X13351134Y-16753425D02*
X13332087Y-16743901D01*
X13332087Y-16743901D02*
X13322563Y-16734377D01*
X13322563Y-16734377D02*
X13313039Y-16715330D01*
X13313039Y-16715330D02*
X13313039Y-16658187D01*
X13313039Y-16658187D02*
X13322563Y-16639139D01*
X13322563Y-16639139D02*
X13332087Y-16629615D01*
X13332087Y-16629615D02*
X13351134Y-16620092D01*
X13351134Y-16620092D02*
X13379706Y-16620092D01*
X13379706Y-16620092D02*
X13398753Y-16629615D01*
X13398753Y-16629615D02*
X13408277Y-16639139D01*
X13408277Y-16639139D02*
X13417801Y-16658187D01*
X13417801Y-16658187D02*
X13417801Y-16715330D01*
X13417801Y-16715330D02*
X13408277Y-16734377D01*
X13408277Y-16734377D02*
X13398753Y-16743901D01*
X13398753Y-16743901D02*
X13379706Y-16753425D01*
X13379706Y-16753425D02*
X13351134Y-16753425D01*
X13532087Y-16753425D02*
X13513039Y-16743901D01*
X13513039Y-16743901D02*
X13503515Y-16724853D01*
X13503515Y-16724853D02*
X13503515Y-16553425D01*
X13684468Y-16743901D02*
X13665420Y-16753425D01*
X13665420Y-16753425D02*
X13627325Y-16753425D01*
X13627325Y-16753425D02*
X13608277Y-16743901D01*
X13608277Y-16743901D02*
X13598753Y-16724853D01*
X13598753Y-16724853D02*
X13598753Y-16648663D01*
X13598753Y-16648663D02*
X13608277Y-16629615D01*
X13608277Y-16629615D02*
X13627325Y-16620092D01*
X13627325Y-16620092D02*
X13665420Y-16620092D01*
X13665420Y-16620092D02*
X13684468Y-16629615D01*
X13684468Y-16629615D02*
X13693991Y-16648663D01*
X13693991Y-16648663D02*
X13693991Y-16667711D01*
X13693991Y-16667711D02*
X13598753Y-16686758D01*
X13770182Y-16743901D02*
X13789230Y-16753425D01*
X13789230Y-16753425D02*
X13827325Y-16753425D01*
X13827325Y-16753425D02*
X13846372Y-16743901D01*
X13846372Y-16743901D02*
X13855896Y-16724853D01*
X13855896Y-16724853D02*
X13855896Y-16715330D01*
X13855896Y-16715330D02*
X13846372Y-16696282D01*
X13846372Y-16696282D02*
X13827325Y-16686758D01*
X13827325Y-16686758D02*
X13798753Y-16686758D01*
X13798753Y-16686758D02*
X13779706Y-16677234D01*
X13779706Y-16677234D02*
X13770182Y-16658187D01*
X13770182Y-16658187D02*
X13770182Y-16648663D01*
X13770182Y-16648663D02*
X13779706Y-16629615D01*
X13779706Y-16629615D02*
X13798753Y-16620092D01*
X13798753Y-16620092D02*
X13827325Y-16620092D01*
X13827325Y-16620092D02*
X13846372Y-16629615D01*
X13922563Y-16829615D02*
X13932087Y-16820092D01*
X13932087Y-16820092D02*
X13951134Y-16791520D01*
X13951134Y-16791520D02*
X13960658Y-16772473D01*
X13960658Y-16772473D02*
X13970182Y-16743901D01*
X13970182Y-16743901D02*
X13979706Y-16696282D01*
X13979706Y-16696282D02*
X13979706Y-16658187D01*
X13979706Y-16658187D02*
X13970182Y-16610568D01*
X13970182Y-16610568D02*
X13960658Y-16581996D01*
X13960658Y-16581996D02*
X13951134Y-16562949D01*
X13951134Y-16562949D02*
X13932087Y-16534377D01*
X13932087Y-16534377D02*
X13922563Y-16524853D01*
D14*
X9022500Y-16863441D02*
X9147500Y-16988441D01*
X9147500Y-16863441D02*
X9022500Y-16988441D01*
X9085000Y-16863441D02*
X9085000Y-16988441D01*
X9022500Y-16925941D02*
X9147500Y-16925941D01*
D11*
X9513039Y-17017425D02*
X9398753Y-17017425D01*
X9455896Y-17017425D02*
X9455896Y-16817425D01*
X9455896Y-16817425D02*
X9436848Y-16845996D01*
X9436848Y-16845996D02*
X9417801Y-16865044D01*
X9417801Y-16865044D02*
X9398753Y-16874568D01*
X9598753Y-16998377D02*
X9608277Y-17007901D01*
X9608277Y-17007901D02*
X9598753Y-17017425D01*
X9598753Y-17017425D02*
X9589229Y-17007901D01*
X9589229Y-17007901D02*
X9598753Y-16998377D01*
X9598753Y-16998377D02*
X9598753Y-17017425D01*
X9684467Y-16836473D02*
X9693991Y-16826949D01*
X9693991Y-16826949D02*
X9713039Y-16817425D01*
X9713039Y-16817425D02*
X9760658Y-16817425D01*
X9760658Y-16817425D02*
X9779705Y-16826949D01*
X9779705Y-16826949D02*
X9789229Y-16836473D01*
X9789229Y-16836473D02*
X9798753Y-16855520D01*
X9798753Y-16855520D02*
X9798753Y-16874568D01*
X9798753Y-16874568D02*
X9789229Y-16903139D01*
X9789229Y-16903139D02*
X9674944Y-17017425D01*
X9674944Y-17017425D02*
X9798753Y-17017425D01*
X9979705Y-16817425D02*
X9884467Y-16817425D01*
X9884467Y-16817425D02*
X9874944Y-16912663D01*
X9874944Y-16912663D02*
X9884467Y-16903139D01*
X9884467Y-16903139D02*
X9903515Y-16893615D01*
X9903515Y-16893615D02*
X9951134Y-16893615D01*
X9951134Y-16893615D02*
X9970182Y-16903139D01*
X9970182Y-16903139D02*
X9979705Y-16912663D01*
X9979705Y-16912663D02*
X9989229Y-16931711D01*
X9989229Y-16931711D02*
X9989229Y-16979330D01*
X9989229Y-16979330D02*
X9979705Y-16998377D01*
X9979705Y-16998377D02*
X9970182Y-17007901D01*
X9970182Y-17007901D02*
X9951134Y-17017425D01*
X9951134Y-17017425D02*
X9903515Y-17017425D01*
X9903515Y-17017425D02*
X9884467Y-17007901D01*
X9884467Y-17007901D02*
X9874944Y-16998377D01*
X10113039Y-16817425D02*
X10132086Y-16817425D01*
X10132086Y-16817425D02*
X10151134Y-16826949D01*
X10151134Y-16826949D02*
X10160658Y-16836473D01*
X10160658Y-16836473D02*
X10170182Y-16855520D01*
X10170182Y-16855520D02*
X10179705Y-16893615D01*
X10179705Y-16893615D02*
X10179705Y-16941235D01*
X10179705Y-16941235D02*
X10170182Y-16979330D01*
X10170182Y-16979330D02*
X10160658Y-16998377D01*
X10160658Y-16998377D02*
X10151134Y-17007901D01*
X10151134Y-17007901D02*
X10132086Y-17017425D01*
X10132086Y-17017425D02*
X10113039Y-17017425D01*
X10113039Y-17017425D02*
X10093991Y-17007901D01*
X10093991Y-17007901D02*
X10084467Y-16998377D01*
X10084467Y-16998377D02*
X10074944Y-16979330D01*
X10074944Y-16979330D02*
X10065420Y-16941235D01*
X10065420Y-16941235D02*
X10065420Y-16893615D01*
X10065420Y-16893615D02*
X10074944Y-16855520D01*
X10074944Y-16855520D02*
X10084467Y-16836473D01*
X10084467Y-16836473D02*
X10093991Y-16826949D01*
X10093991Y-16826949D02*
X10113039Y-16817425D01*
X10265420Y-17017425D02*
X10265420Y-16884092D01*
X10265420Y-16903139D02*
X10274944Y-16893615D01*
X10274944Y-16893615D02*
X10293991Y-16884092D01*
X10293991Y-16884092D02*
X10322563Y-16884092D01*
X10322563Y-16884092D02*
X10341610Y-16893615D01*
X10341610Y-16893615D02*
X10351134Y-16912663D01*
X10351134Y-16912663D02*
X10351134Y-17017425D01*
X10351134Y-16912663D02*
X10360658Y-16893615D01*
X10360658Y-16893615D02*
X10379705Y-16884092D01*
X10379705Y-16884092D02*
X10408277Y-16884092D01*
X10408277Y-16884092D02*
X10427325Y-16893615D01*
X10427325Y-16893615D02*
X10436848Y-16912663D01*
X10436848Y-16912663D02*
X10436848Y-17017425D01*
X10532086Y-17017425D02*
X10532086Y-16884092D01*
X10532086Y-16903139D02*
X10541610Y-16893615D01*
X10541610Y-16893615D02*
X10560658Y-16884092D01*
X10560658Y-16884092D02*
X10589229Y-16884092D01*
X10589229Y-16884092D02*
X10608277Y-16893615D01*
X10608277Y-16893615D02*
X10617801Y-16912663D01*
X10617801Y-16912663D02*
X10617801Y-17017425D01*
X10617801Y-16912663D02*
X10627325Y-16893615D01*
X10627325Y-16893615D02*
X10646372Y-16884092D01*
X10646372Y-16884092D02*
X10674944Y-16884092D01*
X10674944Y-16884092D02*
X10693991Y-16893615D01*
X10693991Y-16893615D02*
X10703515Y-16912663D01*
X10703515Y-16912663D02*
X10703515Y-17017425D01*
X11093991Y-16807901D02*
X10922563Y-17065044D01*
X11351134Y-16817425D02*
X11370182Y-16817425D01*
X11370182Y-16817425D02*
X11389229Y-16826949D01*
X11389229Y-16826949D02*
X11398753Y-16836473D01*
X11398753Y-16836473D02*
X11408277Y-16855520D01*
X11408277Y-16855520D02*
X11417801Y-16893615D01*
X11417801Y-16893615D02*
X11417801Y-16941235D01*
X11417801Y-16941235D02*
X11408277Y-16979330D01*
X11408277Y-16979330D02*
X11398753Y-16998377D01*
X11398753Y-16998377D02*
X11389229Y-17007901D01*
X11389229Y-17007901D02*
X11370182Y-17017425D01*
X11370182Y-17017425D02*
X11351134Y-17017425D01*
X11351134Y-17017425D02*
X11332086Y-17007901D01*
X11332086Y-17007901D02*
X11322563Y-16998377D01*
X11322563Y-16998377D02*
X11313039Y-16979330D01*
X11313039Y-16979330D02*
X11303515Y-16941235D01*
X11303515Y-16941235D02*
X11303515Y-16893615D01*
X11303515Y-16893615D02*
X11313039Y-16855520D01*
X11313039Y-16855520D02*
X11322563Y-16836473D01*
X11322563Y-16836473D02*
X11332086Y-16826949D01*
X11332086Y-16826949D02*
X11351134Y-16817425D01*
X11503515Y-16998377D02*
X11513039Y-17007901D01*
X11513039Y-17007901D02*
X11503515Y-17017425D01*
X11503515Y-17017425D02*
X11493991Y-17007901D01*
X11493991Y-17007901D02*
X11503515Y-16998377D01*
X11503515Y-16998377D02*
X11503515Y-17017425D01*
X11636848Y-16817425D02*
X11655896Y-16817425D01*
X11655896Y-16817425D02*
X11674944Y-16826949D01*
X11674944Y-16826949D02*
X11684467Y-16836473D01*
X11684467Y-16836473D02*
X11693991Y-16855520D01*
X11693991Y-16855520D02*
X11703515Y-16893615D01*
X11703515Y-16893615D02*
X11703515Y-16941235D01*
X11703515Y-16941235D02*
X11693991Y-16979330D01*
X11693991Y-16979330D02*
X11684467Y-16998377D01*
X11684467Y-16998377D02*
X11674944Y-17007901D01*
X11674944Y-17007901D02*
X11655896Y-17017425D01*
X11655896Y-17017425D02*
X11636848Y-17017425D01*
X11636848Y-17017425D02*
X11617801Y-17007901D01*
X11617801Y-17007901D02*
X11608277Y-16998377D01*
X11608277Y-16998377D02*
X11598753Y-16979330D01*
X11598753Y-16979330D02*
X11589229Y-16941235D01*
X11589229Y-16941235D02*
X11589229Y-16893615D01*
X11589229Y-16893615D02*
X11598753Y-16855520D01*
X11598753Y-16855520D02*
X11608277Y-16836473D01*
X11608277Y-16836473D02*
X11617801Y-16826949D01*
X11617801Y-16826949D02*
X11636848Y-16817425D01*
X11874944Y-16884092D02*
X11874944Y-17017425D01*
X11827325Y-16807901D02*
X11779706Y-16950758D01*
X11779706Y-16950758D02*
X11903515Y-16950758D01*
X11989229Y-17017425D02*
X12027325Y-17017425D01*
X12027325Y-17017425D02*
X12046372Y-17007901D01*
X12046372Y-17007901D02*
X12055896Y-16998377D01*
X12055896Y-16998377D02*
X12074944Y-16969806D01*
X12074944Y-16969806D02*
X12084467Y-16931711D01*
X12084467Y-16931711D02*
X12084467Y-16855520D01*
X12084467Y-16855520D02*
X12074944Y-16836473D01*
X12074944Y-16836473D02*
X12065420Y-16826949D01*
X12065420Y-16826949D02*
X12046372Y-16817425D01*
X12046372Y-16817425D02*
X12008277Y-16817425D01*
X12008277Y-16817425D02*
X11989229Y-16826949D01*
X11989229Y-16826949D02*
X11979706Y-16836473D01*
X11979706Y-16836473D02*
X11970182Y-16855520D01*
X11970182Y-16855520D02*
X11970182Y-16903139D01*
X11970182Y-16903139D02*
X11979706Y-16922187D01*
X11979706Y-16922187D02*
X11989229Y-16931711D01*
X11989229Y-16931711D02*
X12008277Y-16941235D01*
X12008277Y-16941235D02*
X12046372Y-16941235D01*
X12046372Y-16941235D02*
X12065420Y-16931711D01*
X12065420Y-16931711D02*
X12074944Y-16922187D01*
X12074944Y-16922187D02*
X12084467Y-16903139D01*
X12160658Y-16836473D02*
X12170182Y-16826949D01*
X12170182Y-16826949D02*
X12189229Y-16817425D01*
X12189229Y-16817425D02*
X12236848Y-16817425D01*
X12236848Y-16817425D02*
X12255896Y-16826949D01*
X12255896Y-16826949D02*
X12265420Y-16836473D01*
X12265420Y-16836473D02*
X12274944Y-16855520D01*
X12274944Y-16855520D02*
X12274944Y-16874568D01*
X12274944Y-16874568D02*
X12265420Y-16903139D01*
X12265420Y-16903139D02*
X12151134Y-17017425D01*
X12151134Y-17017425D02*
X12274944Y-17017425D01*
X12351134Y-16817425D02*
X12351134Y-16855520D01*
X12427325Y-16817425D02*
X12427325Y-16855520D01*
X12722563Y-17093615D02*
X12713039Y-17084092D01*
X12713039Y-17084092D02*
X12693991Y-17055520D01*
X12693991Y-17055520D02*
X12684468Y-17036473D01*
X12684468Y-17036473D02*
X12674944Y-17007901D01*
X12674944Y-17007901D02*
X12665420Y-16960282D01*
X12665420Y-16960282D02*
X12665420Y-16922187D01*
X12665420Y-16922187D02*
X12674944Y-16874568D01*
X12674944Y-16874568D02*
X12684468Y-16845996D01*
X12684468Y-16845996D02*
X12693991Y-16826949D01*
X12693991Y-16826949D02*
X12713039Y-16798377D01*
X12713039Y-16798377D02*
X12722563Y-16788854D01*
X12789229Y-16836473D02*
X12798753Y-16826949D01*
X12798753Y-16826949D02*
X12817801Y-16817425D01*
X12817801Y-16817425D02*
X12865420Y-16817425D01*
X12865420Y-16817425D02*
X12884468Y-16826949D01*
X12884468Y-16826949D02*
X12893991Y-16836473D01*
X12893991Y-16836473D02*
X12903515Y-16855520D01*
X12903515Y-16855520D02*
X12903515Y-16874568D01*
X12903515Y-16874568D02*
X12893991Y-16903139D01*
X12893991Y-16903139D02*
X12779706Y-17017425D01*
X12779706Y-17017425D02*
X12903515Y-17017425D01*
X13141610Y-17017425D02*
X13141610Y-16817425D01*
X13227325Y-17017425D02*
X13227325Y-16912663D01*
X13227325Y-16912663D02*
X13217801Y-16893615D01*
X13217801Y-16893615D02*
X13198753Y-16884092D01*
X13198753Y-16884092D02*
X13170182Y-16884092D01*
X13170182Y-16884092D02*
X13151134Y-16893615D01*
X13151134Y-16893615D02*
X13141610Y-16903139D01*
X13351134Y-17017425D02*
X13332087Y-17007901D01*
X13332087Y-17007901D02*
X13322563Y-16998377D01*
X13322563Y-16998377D02*
X13313039Y-16979330D01*
X13313039Y-16979330D02*
X13313039Y-16922187D01*
X13313039Y-16922187D02*
X13322563Y-16903139D01*
X13322563Y-16903139D02*
X13332087Y-16893615D01*
X13332087Y-16893615D02*
X13351134Y-16884092D01*
X13351134Y-16884092D02*
X13379706Y-16884092D01*
X13379706Y-16884092D02*
X13398753Y-16893615D01*
X13398753Y-16893615D02*
X13408277Y-16903139D01*
X13408277Y-16903139D02*
X13417801Y-16922187D01*
X13417801Y-16922187D02*
X13417801Y-16979330D01*
X13417801Y-16979330D02*
X13408277Y-16998377D01*
X13408277Y-16998377D02*
X13398753Y-17007901D01*
X13398753Y-17007901D02*
X13379706Y-17017425D01*
X13379706Y-17017425D02*
X13351134Y-17017425D01*
X13532087Y-17017425D02*
X13513039Y-17007901D01*
X13513039Y-17007901D02*
X13503515Y-16988854D01*
X13503515Y-16988854D02*
X13503515Y-16817425D01*
X13684468Y-17007901D02*
X13665420Y-17017425D01*
X13665420Y-17017425D02*
X13627325Y-17017425D01*
X13627325Y-17017425D02*
X13608277Y-17007901D01*
X13608277Y-17007901D02*
X13598753Y-16988854D01*
X13598753Y-16988854D02*
X13598753Y-16912663D01*
X13598753Y-16912663D02*
X13608277Y-16893615D01*
X13608277Y-16893615D02*
X13627325Y-16884092D01*
X13627325Y-16884092D02*
X13665420Y-16884092D01*
X13665420Y-16884092D02*
X13684468Y-16893615D01*
X13684468Y-16893615D02*
X13693991Y-16912663D01*
X13693991Y-16912663D02*
X13693991Y-16931711D01*
X13693991Y-16931711D02*
X13598753Y-16950758D01*
X13770182Y-17007901D02*
X13789230Y-17017425D01*
X13789230Y-17017425D02*
X13827325Y-17017425D01*
X13827325Y-17017425D02*
X13846372Y-17007901D01*
X13846372Y-17007901D02*
X13855896Y-16988854D01*
X13855896Y-16988854D02*
X13855896Y-16979330D01*
X13855896Y-16979330D02*
X13846372Y-16960282D01*
X13846372Y-16960282D02*
X13827325Y-16950758D01*
X13827325Y-16950758D02*
X13798753Y-16950758D01*
X13798753Y-16950758D02*
X13779706Y-16941235D01*
X13779706Y-16941235D02*
X13770182Y-16922187D01*
X13770182Y-16922187D02*
X13770182Y-16912663D01*
X13770182Y-16912663D02*
X13779706Y-16893615D01*
X13779706Y-16893615D02*
X13798753Y-16884092D01*
X13798753Y-16884092D02*
X13827325Y-16884092D01*
X13827325Y-16884092D02*
X13846372Y-16893615D01*
X13922563Y-17093615D02*
X13932087Y-17084092D01*
X13932087Y-17084092D02*
X13951134Y-17055520D01*
X13951134Y-17055520D02*
X13960658Y-17036473D01*
X13960658Y-17036473D02*
X13970182Y-17007901D01*
X13970182Y-17007901D02*
X13979706Y-16960282D01*
X13979706Y-16960282D02*
X13979706Y-16922187D01*
X13979706Y-16922187D02*
X13970182Y-16874568D01*
X13970182Y-16874568D02*
X13960658Y-16845996D01*
X13960658Y-16845996D02*
X13951134Y-16826949D01*
X13951134Y-16826949D02*
X13932087Y-16798377D01*
X13932087Y-16798377D02*
X13922563Y-16788854D01*
M02*
