G04 #@! TF.GenerationSoftware,KiCad,Pcbnew,9.0.2*
G04 #@! TF.CreationDate,2025-07-09T03:35:45-04:00*
G04 #@! TF.ProjectId,FBT,4642542e-6b69-4636-9164-5f7063625858,rev?*
G04 #@! TF.SameCoordinates,Original*
G04 #@! TF.FileFunction,Copper,L2,Bot*
G04 #@! TF.FilePolarity,Positive*
%FSLAX46Y46*%
G04 Gerber Fmt 4.6, Leading zero omitted, Abs format (unit mm)*
G04 Created by KiCad (PCBNEW 9.0.2) date 2025-07-09 03:35:45*
%MOMM*%
%LPD*%
G01*
G04 APERTURE LIST*
G04 Aperture macros list*
%AMRoundRect*
0 Rectangle with rounded corners*
0 $1 Rounding radius*
0 $2 $3 $4 $5 $6 $7 $8 $9 X,Y pos of 4 corners*
0 Add a 4 corners polygon primitive as box body*
4,1,4,$2,$3,$4,$5,$6,$7,$8,$9,$2,$3,0*
0 Add four circle primitives for the rounded corners*
1,1,$1+$1,$2,$3*
1,1,$1+$1,$4,$5*
1,1,$1+$1,$6,$7*
1,1,$1+$1,$8,$9*
0 Add four rect primitives between the rounded corners*
20,1,$1+$1,$2,$3,$4,$5,0*
20,1,$1+$1,$4,$5,$6,$7,0*
20,1,$1+$1,$6,$7,$8,$9,0*
20,1,$1+$1,$8,$9,$2,$3,0*%
%AMFreePoly0*
4,1,23,0.500000,-0.750000,0.000000,-0.750000,0.000000,-0.745722,-0.065263,-0.745722,-0.191342,-0.711940,-0.304381,-0.646677,-0.396677,-0.554381,-0.461940,-0.441342,-0.495722,-0.315263,-0.495722,-0.250000,-0.500000,-0.250000,-0.500000,0.250000,-0.495722,0.250000,-0.495722,0.315263,-0.461940,0.441342,-0.396677,0.554381,-0.304381,0.646677,-0.191342,0.711940,-0.065263,0.745722,0.000000,0.745722,
0.000000,0.750000,0.500000,0.750000,0.500000,-0.750000,0.500000,-0.750000,$1*%
%AMFreePoly1*
4,1,23,0.000000,0.745722,0.065263,0.745722,0.191342,0.711940,0.304381,0.646677,0.396677,0.554381,0.461940,0.441342,0.495722,0.315263,0.495722,0.250000,0.500000,0.250000,0.500000,-0.250000,0.495722,-0.250000,0.495722,-0.315263,0.461940,-0.441342,0.396677,-0.554381,0.304381,-0.646677,0.191342,-0.711940,0.065263,-0.745722,0.000000,-0.745722,0.000000,-0.750000,-0.500000,-0.750000,
-0.500000,0.750000,0.000000,0.750000,0.000000,0.745722,0.000000,0.745722,$1*%
G04 Aperture macros list end*
G04 #@! TA.AperFunction,EtchedComponent*
%ADD10C,0.000000*%
G04 #@! TD*
G04 #@! TA.AperFunction,ComponentPad*
%ADD11R,1.700000X1.700000*%
G04 #@! TD*
G04 #@! TA.AperFunction,ComponentPad*
%ADD12C,2.000000*%
G04 #@! TD*
G04 #@! TA.AperFunction,ComponentPad*
%ADD13C,1.300000*%
G04 #@! TD*
G04 #@! TA.AperFunction,ComponentPad*
%ADD14C,1.524000*%
G04 #@! TD*
G04 #@! TA.AperFunction,ComponentPad*
%ADD15C,1.600000*%
G04 #@! TD*
G04 #@! TA.AperFunction,ComponentPad*
%ADD16RoundRect,0.249999X-0.850001X-0.850001X0.850001X-0.850001X0.850001X0.850001X-0.850001X0.850001X0*%
G04 #@! TD*
G04 #@! TA.AperFunction,ComponentPad*
%ADD17C,2.200000*%
G04 #@! TD*
G04 #@! TA.AperFunction,ComponentPad*
%ADD18C,1.700000*%
G04 #@! TD*
G04 #@! TA.AperFunction,SMDPad,CuDef*
%ADD19FreePoly0,270.000000*%
G04 #@! TD*
G04 #@! TA.AperFunction,SMDPad,CuDef*
%ADD20FreePoly1,270.000000*%
G04 #@! TD*
G04 #@! TA.AperFunction,SMDPad,CuDef*
%ADD21FreePoly0,180.000000*%
G04 #@! TD*
G04 #@! TA.AperFunction,SMDPad,CuDef*
%ADD22FreePoly1,180.000000*%
G04 #@! TD*
G04 #@! TA.AperFunction,ViaPad*
%ADD23C,0.600000*%
G04 #@! TD*
G04 #@! TA.AperFunction,Conductor*
%ADD24C,0.400000*%
G04 #@! TD*
G04 APERTURE END LIST*
D10*
G04 #@! TA.AperFunction,EtchedComponent*
G36*
X105400000Y-65700000D02*
G01*
X104800000Y-65700000D01*
X104800000Y-65200000D01*
X105400000Y-65200000D01*
X105400000Y-65700000D01*
G37*
G04 #@! TD.AperFunction*
D11*
X92600000Y-48500000D03*
D12*
X95100000Y-109800000D03*
X103300000Y-109800000D03*
D13*
X97200000Y-109800000D03*
X99200000Y-109800000D03*
X101200000Y-109800000D03*
D14*
X110120000Y-71620000D03*
X107580000Y-71620000D03*
X105040000Y-71620000D03*
X102500000Y-71620000D03*
X99960000Y-71620000D03*
X97420000Y-71620000D03*
X94880000Y-71620000D03*
X97420000Y-81780000D03*
X99960000Y-81780000D03*
X102500000Y-81780000D03*
X105040000Y-81780000D03*
X107580000Y-81780000D03*
D15*
X105900000Y-101855000D03*
X105900000Y-105855000D03*
X105900000Y-108855000D03*
X110300000Y-100855000D03*
D16*
X95680000Y-103000000D03*
D17*
X103300000Y-103000000D03*
D15*
X103600000Y-106100000D03*
X95980000Y-106100000D03*
D14*
X132041012Y-132190514D03*
X129501012Y-132190514D03*
X126961012Y-132190514D03*
X124421012Y-132190514D03*
X121881012Y-132190514D03*
X119341012Y-132190514D03*
X116801012Y-132190514D03*
X119341012Y-142350514D03*
X121881012Y-142350514D03*
X124421012Y-142350514D03*
X126961012Y-142350514D03*
X129501012Y-142350514D03*
X98200000Y-86900000D03*
X98200000Y-97300000D03*
X107400000Y-97200000D03*
X107400000Y-94700000D03*
X107400000Y-89500000D03*
X107400000Y-87000000D03*
D11*
X92800000Y-106375000D03*
D18*
X92800000Y-103835000D03*
D16*
X95680000Y-99800000D03*
D17*
X103300000Y-99800000D03*
D15*
X125645101Y-125049412D03*
X121645101Y-125049412D03*
X118645101Y-125049412D03*
X126645101Y-129449412D03*
X109900000Y-97110000D03*
X109900000Y-89490000D03*
D14*
X110300000Y-145370000D03*
X107760000Y-145370000D03*
X105220000Y-145370000D03*
X102680000Y-145370000D03*
X100140000Y-145370000D03*
X94920000Y-48510000D03*
X94920000Y-51050000D03*
X94920000Y-53590000D03*
X94920000Y-56130000D03*
X94920000Y-58670000D03*
X94920000Y-61210000D03*
X94920000Y-63750000D03*
X94880000Y-66290000D03*
X110120000Y-66290000D03*
X110120000Y-63750000D03*
X110120000Y-61210000D03*
X110120000Y-58670000D03*
X110120000Y-56130000D03*
X110120000Y-53590000D03*
X110120000Y-51050000D03*
X110120000Y-48510000D03*
X107580000Y-84300000D03*
X105040000Y-84300000D03*
X102500000Y-84300000D03*
X99960000Y-84300000D03*
X97420000Y-84300000D03*
D19*
X105100000Y-64800000D03*
D20*
X105100000Y-66100000D03*
D14*
X129500000Y-145270000D03*
X126960000Y-145270000D03*
X124420000Y-145270000D03*
X121880000Y-145270000D03*
X119340000Y-145270000D03*
D21*
X104250000Y-78500000D03*
D22*
X102950000Y-78500000D03*
D23*
X107300000Y-100900000D03*
X95100000Y-84200000D03*
X105500000Y-100400000D03*
X99000000Y-100600000D03*
X92500000Y-81800000D03*
X106400000Y-70300000D03*
X109900000Y-83400000D03*
D24*
X108957000Y-87743000D02*
X108563000Y-88137000D01*
X104800000Y-98400000D02*
X107300000Y-100900000D01*
X108563000Y-90537000D02*
X104800000Y-94300000D01*
X105100000Y-64800000D02*
X105955000Y-64800000D01*
X108957000Y-71138269D02*
X108957000Y-87743000D01*
X104800000Y-94300000D02*
X104800000Y-98400000D01*
X109410000Y-53590000D02*
X105100000Y-57900000D01*
X109400000Y-68245000D02*
X109400000Y-70695269D01*
X105100000Y-57900000D02*
X105100000Y-64800000D01*
X110120000Y-53590000D02*
X109410000Y-53590000D01*
X109400000Y-70695269D02*
X108957000Y-71138269D01*
X105955000Y-64800000D02*
X109400000Y-68245000D01*
X108563000Y-88137000D02*
X108563000Y-90537000D01*
X95100000Y-79020000D02*
X102500000Y-71620000D01*
X95100000Y-84200000D02*
X95100000Y-79020000D01*
X120380101Y-129089412D02*
X120380101Y-126839412D01*
X92500000Y-69240000D02*
X92500000Y-48600000D01*
X105040000Y-71620000D02*
X103877000Y-70457000D01*
X94258000Y-101400000D02*
X96707580Y-101400000D01*
X104500000Y-101400000D02*
X105500000Y-100400000D01*
X125360101Y-130589412D02*
X121880101Y-130589412D01*
X94880000Y-71620000D02*
X92500000Y-69240000D01*
X98200000Y-99907580D02*
X98200000Y-101091364D01*
X92800000Y-103800000D02*
X94100000Y-102500000D01*
X96043000Y-70457000D02*
X94880000Y-71620000D01*
X98508636Y-101400000D02*
X104500000Y-101400000D01*
X109900000Y-97110000D02*
X109810000Y-97110000D01*
X105900000Y-108855000D02*
X109700000Y-105055000D01*
X98200000Y-99907580D02*
X98200000Y-97300000D01*
X109700000Y-102529375D02*
X108900000Y-101729375D01*
X94100000Y-102500000D02*
X94100000Y-101558000D01*
X92500000Y-48600000D02*
X92600000Y-48500000D01*
X108743000Y-49673000D02*
X110120000Y-51050000D01*
X98200000Y-101091364D02*
X98508636Y-101400000D01*
X94100000Y-101558000D02*
X94258000Y-101400000D01*
X103877000Y-70457000D02*
X96043000Y-70457000D01*
X93773000Y-49673000D02*
X108743000Y-49673000D01*
X92800000Y-103900000D02*
X92800000Y-103800000D01*
X96707580Y-101400000D02*
X98200000Y-99907580D01*
X126960101Y-132189412D02*
X125360101Y-130589412D01*
X109700000Y-105055000D02*
X109700000Y-102529375D01*
X120380101Y-126839412D02*
X118630101Y-125089412D01*
X121880101Y-130589412D02*
X120380101Y-129089412D01*
X108900000Y-98110000D02*
X109900000Y-97110000D01*
X108900000Y-101729375D02*
X108900000Y-98110000D01*
X92600000Y-48500000D02*
X93773000Y-49673000D01*
X109810000Y-97110000D02*
X107400000Y-94700000D01*
X107400000Y-90600000D02*
X107400000Y-89500000D01*
X99000000Y-99000000D02*
X107400000Y-90600000D01*
X99000000Y-100600000D02*
X99000000Y-99000000D01*
X102950000Y-78500000D02*
X102950000Y-80585269D01*
X92500000Y-81800000D02*
X92500000Y-96620000D01*
X92500000Y-96620000D02*
X95680000Y-99800000D01*
X102950000Y-80585269D02*
X103800000Y-81435269D01*
X103800000Y-84800000D02*
X103000000Y-85600000D01*
X92500000Y-82591364D02*
X92500000Y-81800000D01*
X103000000Y-85600000D02*
X95508636Y-85600000D01*
X103800000Y-81435269D02*
X103800000Y-84800000D01*
X95508636Y-85600000D02*
X92500000Y-82591364D01*
X108100000Y-69100000D02*
X105100000Y-66100000D01*
X107580000Y-78020000D02*
X107580000Y-71620000D01*
X108200000Y-70360000D02*
X108200000Y-69100000D01*
X106417000Y-79183000D02*
X107580000Y-78020000D01*
X107580000Y-84300000D02*
X106417000Y-83137000D01*
X107580000Y-70980000D02*
X108200000Y-70360000D01*
X107580000Y-71620000D02*
X107580000Y-70980000D01*
X108200000Y-69100000D02*
X108100000Y-69100000D01*
X106417000Y-83137000D02*
X106417000Y-79183000D01*
X99960000Y-81780000D02*
X99980000Y-81780000D01*
X99980000Y-81780000D02*
X102500000Y-84300000D01*
X97420000Y-81780000D02*
X97440000Y-81780000D01*
X97440000Y-81780000D02*
X99960000Y-84300000D01*
X106400000Y-76350000D02*
X106400000Y-70300000D01*
X104250000Y-78500000D02*
X106400000Y-76350000D01*
X108100000Y-99100000D02*
X107800000Y-98800000D01*
X107000000Y-98800000D02*
X105600000Y-97400000D01*
X105600000Y-97400000D02*
X105600000Y-94600000D01*
X109900000Y-83400000D02*
X109900000Y-89490000D01*
X105600000Y-94600000D02*
X109900000Y-90300000D01*
X107800000Y-98800000D02*
X107000000Y-98800000D01*
X109900000Y-90300000D02*
X109900000Y-89490000D01*
X103600000Y-106100000D02*
X108100000Y-101600000D01*
X108100000Y-101600000D02*
X108100000Y-99100000D01*
G04 #@! TA.AperFunction,Conductor*
G36*
X117422465Y-124339597D02*
G01*
X117468220Y-124392401D01*
X117478164Y-124461559D01*
X117465911Y-124500207D01*
X117440345Y-124550380D01*
X117377110Y-124744994D01*
X117345101Y-124947094D01*
X117345101Y-125151729D01*
X117377110Y-125353829D01*
X117440345Y-125548443D01*
X117533242Y-125730762D01*
X117533248Y-125730771D01*
X117565624Y-125775333D01*
X117565625Y-125775334D01*
X118020836Y-125320122D01*
X118030196Y-125329482D01*
X118110006Y-125375560D01*
X118199023Y-125399412D01*
X119091179Y-125399412D01*
X119180196Y-125375560D01*
X119260006Y-125329482D01*
X119269365Y-125320123D01*
X119724575Y-125775333D01*
X119756960Y-125730761D01*
X119849856Y-125548443D01*
X119913091Y-125353829D01*
X119945101Y-125151729D01*
X119945101Y-124947094D01*
X119913091Y-124744994D01*
X119849856Y-124550380D01*
X119824291Y-124500207D01*
X119811395Y-124431538D01*
X119837671Y-124366797D01*
X119894777Y-124326540D01*
X119934776Y-124319912D01*
X120697258Y-124319912D01*
X120764297Y-124339597D01*
X120810052Y-124392401D01*
X120819996Y-124461559D01*
X120800360Y-124512803D01*
X120758472Y-124575491D01*
X120758465Y-124575504D01*
X120683051Y-124757572D01*
X120683048Y-124757582D01*
X120644601Y-124950868D01*
X120644601Y-124950871D01*
X120644601Y-125147953D01*
X120644601Y-125147955D01*
X120644600Y-125147955D01*
X120683048Y-125341241D01*
X120683051Y-125341251D01*
X120758465Y-125523319D01*
X120758472Y-125523332D01*
X120867961Y-125687193D01*
X120867964Y-125687197D01*
X121007315Y-125826548D01*
X121007319Y-125826551D01*
X121171180Y-125936040D01*
X121171193Y-125936047D01*
X121353261Y-126011461D01*
X121353266Y-126011463D01*
X121353270Y-126011463D01*
X121353271Y-126011464D01*
X121546557Y-126049912D01*
X121546560Y-126049912D01*
X121743644Y-126049912D01*
X121873683Y-126024044D01*
X121936936Y-126011463D01*
X122119015Y-125936044D01*
X122282883Y-125826551D01*
X122422240Y-125687194D01*
X122531733Y-125523326D01*
X122607152Y-125341247D01*
X122645601Y-125147953D01*
X122645601Y-124950871D01*
X122645601Y-124950868D01*
X122607153Y-124757582D01*
X122607152Y-124757581D01*
X122607152Y-124757577D01*
X122592939Y-124723264D01*
X122531736Y-124575504D01*
X122531729Y-124575491D01*
X122489842Y-124512803D01*
X122468964Y-124446126D01*
X122487448Y-124378745D01*
X122539427Y-124332055D01*
X122592944Y-124319912D01*
X124697258Y-124319912D01*
X124764297Y-124339597D01*
X124810052Y-124392401D01*
X124819996Y-124461559D01*
X124800360Y-124512803D01*
X124758472Y-124575491D01*
X124758465Y-124575504D01*
X124683051Y-124757572D01*
X124683048Y-124757582D01*
X124644601Y-124950868D01*
X124644601Y-124950871D01*
X124644601Y-125147953D01*
X124644601Y-125147955D01*
X124644600Y-125147955D01*
X124683048Y-125341241D01*
X124683051Y-125341251D01*
X124758465Y-125523319D01*
X124758472Y-125523332D01*
X124867961Y-125687193D01*
X124867964Y-125687197D01*
X125007315Y-125826548D01*
X125007319Y-125826551D01*
X125171180Y-125936040D01*
X125171193Y-125936047D01*
X125353261Y-126011461D01*
X125353266Y-126011463D01*
X125353270Y-126011463D01*
X125353271Y-126011464D01*
X125546557Y-126049912D01*
X125546560Y-126049912D01*
X125743644Y-126049912D01*
X125873683Y-126024044D01*
X125936936Y-126011463D01*
X126119015Y-125936044D01*
X126282883Y-125826551D01*
X126422240Y-125687194D01*
X126531733Y-125523326D01*
X126607152Y-125341247D01*
X126645601Y-125147953D01*
X126645601Y-124950871D01*
X126645601Y-124950868D01*
X126607153Y-124757582D01*
X126607152Y-124757581D01*
X126607152Y-124757577D01*
X126592939Y-124723264D01*
X126531736Y-124575504D01*
X126531729Y-124575491D01*
X126489842Y-124512803D01*
X126468964Y-124446126D01*
X126487448Y-124378745D01*
X126539427Y-124332055D01*
X126592944Y-124319912D01*
X133045601Y-124319912D01*
X133112640Y-124339597D01*
X133158395Y-124392401D01*
X133169601Y-124443912D01*
X133169601Y-131776644D01*
X133149916Y-131843683D01*
X133097112Y-131889438D01*
X133027954Y-131899382D01*
X132964398Y-131870357D01*
X132931040Y-131824097D01*
X132893969Y-131734601D01*
X132788634Y-131576955D01*
X132654570Y-131442891D01*
X132496924Y-131337556D01*
X132321763Y-131265002D01*
X132321755Y-131265000D01*
X132135814Y-131228014D01*
X132135810Y-131228014D01*
X131946214Y-131228014D01*
X131946209Y-131228014D01*
X131760268Y-131265000D01*
X131760260Y-131265002D01*
X131585099Y-131337556D01*
X131427453Y-131442891D01*
X131293389Y-131576955D01*
X131188054Y-131734601D01*
X131115500Y-131909762D01*
X131115498Y-131909770D01*
X131078512Y-132095711D01*
X131078512Y-132285316D01*
X131115498Y-132471257D01*
X131115500Y-132471265D01*
X131188054Y-132646426D01*
X131293389Y-132804072D01*
X131427453Y-132938136D01*
X131532312Y-133008200D01*
X131585097Y-133043470D01*
X131760261Y-133116026D01*
X131946209Y-133153013D01*
X131946213Y-133153014D01*
X131946214Y-133153014D01*
X132135811Y-133153014D01*
X132135812Y-133153013D01*
X132321763Y-133116026D01*
X132496927Y-133043470D01*
X132654570Y-132938136D01*
X132788634Y-132804072D01*
X132893968Y-132646429D01*
X132931040Y-132556929D01*
X132974881Y-132502527D01*
X133041175Y-132480462D01*
X133108875Y-132497741D01*
X133156485Y-132548879D01*
X133169601Y-132604383D01*
X133169601Y-146294912D01*
X133149916Y-146361951D01*
X133097112Y-146407706D01*
X133045601Y-146418912D01*
X129864805Y-146418912D01*
X129797766Y-146399227D01*
X129752011Y-146346423D01*
X129742067Y-146277265D01*
X129771092Y-146213709D01*
X129817351Y-146180351D01*
X129955915Y-146122956D01*
X130113558Y-146017622D01*
X130247622Y-145883558D01*
X130352956Y-145725915D01*
X130425512Y-145550751D01*
X130462500Y-145364798D01*
X130462500Y-145175202D01*
X130462499Y-145175199D01*
X130462499Y-145175197D01*
X130425513Y-144989256D01*
X130425512Y-144989249D01*
X130352956Y-144814085D01*
X130317686Y-144761300D01*
X130247622Y-144656441D01*
X130113558Y-144522377D01*
X129955912Y-144417042D01*
X129780751Y-144344488D01*
X129780743Y-144344486D01*
X129594802Y-144307500D01*
X129594798Y-144307500D01*
X129405202Y-144307500D01*
X129405197Y-144307500D01*
X129219256Y-144344486D01*
X129219248Y-144344488D01*
X129044087Y-144417042D01*
X128886441Y-144522377D01*
X128752377Y-144656441D01*
X128647042Y-144814087D01*
X128574488Y-144989248D01*
X128574486Y-144989256D01*
X128537500Y-145175197D01*
X128537500Y-145364802D01*
X128574486Y-145550743D01*
X128574488Y-145550751D01*
X128647042Y-145725912D01*
X128752377Y-145883558D01*
X128886441Y-146017622D01*
X128991300Y-146087686D01*
X129044085Y-146122956D01*
X129182648Y-146180351D01*
X129237051Y-146224192D01*
X129259116Y-146290486D01*
X129241837Y-146358186D01*
X129190699Y-146405796D01*
X129135195Y-146418912D01*
X127785252Y-146418912D01*
X127718213Y-146399227D01*
X127672458Y-146346423D01*
X127670222Y-146333775D01*
X127048585Y-145712137D01*
X127133694Y-145689333D01*
X127236306Y-145630090D01*
X127320090Y-145546306D01*
X127379333Y-145443694D01*
X127402138Y-145358585D01*
X128012268Y-145968715D01*
X128039362Y-145931425D01*
X128129542Y-145754437D01*
X128190924Y-145565523D01*
X128190924Y-145565520D01*
X128222000Y-145369321D01*
X128222000Y-145170678D01*
X128190924Y-144974479D01*
X128190924Y-144974476D01*
X128129542Y-144785562D01*
X128039358Y-144608567D01*
X128012268Y-144571283D01*
X127402137Y-145181414D01*
X127379333Y-145096306D01*
X127320090Y-144993694D01*
X127236306Y-144909910D01*
X127133694Y-144850667D01*
X127048585Y-144827861D01*
X127658716Y-144217731D01*
X127658715Y-144217730D01*
X127621432Y-144190641D01*
X127444437Y-144100457D01*
X127255522Y-144039075D01*
X127059321Y-144008000D01*
X126860679Y-144008000D01*
X126664479Y-144039075D01*
X126664476Y-144039075D01*
X126475562Y-144100457D01*
X126298564Y-144190643D01*
X126261283Y-144217729D01*
X126261282Y-144217730D01*
X126871415Y-144827861D01*
X126786306Y-144850667D01*
X126683694Y-144909910D01*
X126599910Y-144993694D01*
X126540667Y-145096306D01*
X126517861Y-145181414D01*
X125907730Y-144571282D01*
X125907729Y-144571283D01*
X125880643Y-144608564D01*
X125790457Y-144785562D01*
X125729075Y-144974476D01*
X125729075Y-144974479D01*
X125698000Y-145170678D01*
X125698000Y-145369321D01*
X125729075Y-145565520D01*
X125729075Y-145565523D01*
X125790457Y-145754437D01*
X125880641Y-145931432D01*
X125907730Y-145968715D01*
X125907731Y-145968716D01*
X126517861Y-145358585D01*
X126540667Y-145443694D01*
X126599910Y-145546306D01*
X126683694Y-145630090D01*
X126786306Y-145689333D01*
X126871414Y-145712137D01*
X126247726Y-146335825D01*
X126244000Y-146353562D01*
X126194947Y-146403318D01*
X126134747Y-146418912D01*
X124784805Y-146418912D01*
X124717766Y-146399227D01*
X124672011Y-146346423D01*
X124662067Y-146277265D01*
X124691092Y-146213709D01*
X124737351Y-146180351D01*
X124875915Y-146122956D01*
X125033558Y-146017622D01*
X125167622Y-145883558D01*
X125272956Y-145725915D01*
X125345512Y-145550751D01*
X125382500Y-145364798D01*
X125382500Y-145175202D01*
X125382500Y-145175201D01*
X125382500Y-145175199D01*
X125345513Y-144989256D01*
X125345512Y-144989249D01*
X125272956Y-144814085D01*
X125237686Y-144761300D01*
X125167622Y-144656441D01*
X125033558Y-144522377D01*
X124875912Y-144417042D01*
X124785400Y-144379551D01*
X124700751Y-144344488D01*
X124700743Y-144344486D01*
X124514802Y-144307500D01*
X124514798Y-144307500D01*
X124325202Y-144307500D01*
X124325197Y-144307500D01*
X124139256Y-144344486D01*
X124139248Y-144344488D01*
X123964087Y-144417042D01*
X123806441Y-144522377D01*
X123672377Y-144656441D01*
X123567042Y-144814087D01*
X123494488Y-144989248D01*
X123494486Y-144989256D01*
X123457500Y-145175197D01*
X123457500Y-145364802D01*
X123494486Y-145550743D01*
X123494488Y-145550751D01*
X123567042Y-145725912D01*
X123672377Y-145883558D01*
X123806441Y-146017622D01*
X123911300Y-146087686D01*
X123964085Y-146122956D01*
X124102648Y-146180351D01*
X124157051Y-146224192D01*
X124179116Y-146290486D01*
X124161837Y-146358186D01*
X124110699Y-146405796D01*
X124055195Y-146418912D01*
X122244805Y-146418912D01*
X122177766Y-146399227D01*
X122132011Y-146346423D01*
X122122067Y-146277265D01*
X122151092Y-146213709D01*
X122197351Y-146180351D01*
X122335915Y-146122956D01*
X122493558Y-146017622D01*
X122627622Y-145883558D01*
X122732956Y-145725915D01*
X122805512Y-145550751D01*
X122842500Y-145364798D01*
X122842500Y-145175202D01*
X122842499Y-145175199D01*
X122842499Y-145175197D01*
X122805513Y-144989256D01*
X122805512Y-144989249D01*
X122732956Y-144814085D01*
X122697686Y-144761300D01*
X122627622Y-144656441D01*
X122493558Y-144522377D01*
X122335912Y-144417042D01*
X122160751Y-144344488D01*
X122160743Y-144344486D01*
X121974802Y-144307500D01*
X121974798Y-144307500D01*
X121785202Y-144307500D01*
X121785197Y-144307500D01*
X121599256Y-144344486D01*
X121599248Y-144344488D01*
X121424087Y-144417042D01*
X121266441Y-144522377D01*
X121132377Y-144656441D01*
X121027042Y-144814087D01*
X120954488Y-144989248D01*
X120954486Y-144989256D01*
X120917500Y-145175197D01*
X120917500Y-145364802D01*
X120954486Y-145550743D01*
X120954488Y-145550751D01*
X121027042Y-145725912D01*
X121132377Y-145883558D01*
X121266441Y-146017622D01*
X121371300Y-146087686D01*
X121424085Y-146122956D01*
X121562648Y-146180351D01*
X121617051Y-146224192D01*
X121639116Y-146290486D01*
X121621837Y-146358186D01*
X121570699Y-146405796D01*
X121515195Y-146418912D01*
X119704805Y-146418912D01*
X119637766Y-146399227D01*
X119592011Y-146346423D01*
X119582067Y-146277265D01*
X119611092Y-146213709D01*
X119657351Y-146180351D01*
X119795915Y-146122956D01*
X119953558Y-146017622D01*
X120087622Y-145883558D01*
X120192956Y-145725915D01*
X120265512Y-145550751D01*
X120302500Y-145364798D01*
X120302500Y-145175202D01*
X120302499Y-145175199D01*
X120302499Y-145175197D01*
X120265513Y-144989256D01*
X120265512Y-144989249D01*
X120192956Y-144814085D01*
X120157686Y-144761300D01*
X120087622Y-144656441D01*
X119953558Y-144522377D01*
X119795912Y-144417042D01*
X119620751Y-144344488D01*
X119620743Y-144344486D01*
X119434802Y-144307500D01*
X119434798Y-144307500D01*
X119245202Y-144307500D01*
X119245197Y-144307500D01*
X119059256Y-144344486D01*
X119059248Y-144344488D01*
X118884087Y-144417042D01*
X118726441Y-144522377D01*
X118592377Y-144656441D01*
X118487042Y-144814087D01*
X118414488Y-144989248D01*
X118414486Y-144989256D01*
X118377500Y-145175197D01*
X118377500Y-145364802D01*
X118414486Y-145550743D01*
X118414488Y-145550751D01*
X118487042Y-145725912D01*
X118592377Y-145883558D01*
X118726441Y-146017622D01*
X118831300Y-146087686D01*
X118884085Y-146122956D01*
X119022648Y-146180351D01*
X119077051Y-146224192D01*
X119099116Y-146290486D01*
X119081837Y-146358186D01*
X119030699Y-146405796D01*
X118975195Y-146418912D01*
X115794601Y-146418912D01*
X115727562Y-146399227D01*
X115681807Y-146346423D01*
X115670601Y-146294912D01*
X115670601Y-142255711D01*
X118378512Y-142255711D01*
X118378512Y-142445316D01*
X118415498Y-142631257D01*
X118415500Y-142631265D01*
X118488054Y-142806426D01*
X118593389Y-142964072D01*
X118727453Y-143098136D01*
X118832312Y-143168200D01*
X118885097Y-143203470D01*
X119060261Y-143276026D01*
X119246209Y-143313013D01*
X119246213Y-143313014D01*
X119246214Y-143313014D01*
X119435811Y-143313014D01*
X119435812Y-143313013D01*
X119621763Y-143276026D01*
X119796927Y-143203470D01*
X119954570Y-143098136D01*
X120088634Y-142964072D01*
X120193968Y-142806429D01*
X120266524Y-142631265D01*
X120303512Y-142445312D01*
X120303512Y-142255716D01*
X120303511Y-142255711D01*
X120918512Y-142255711D01*
X120918512Y-142445316D01*
X120955498Y-142631257D01*
X120955500Y-142631265D01*
X121028054Y-142806426D01*
X121133389Y-142964072D01*
X121267453Y-143098136D01*
X121372312Y-143168200D01*
X121425097Y-143203470D01*
X121600261Y-143276026D01*
X121786209Y-143313013D01*
X121786213Y-143313014D01*
X121786214Y-143313014D01*
X121975811Y-143313014D01*
X121975812Y-143313013D01*
X122161763Y-143276026D01*
X122336927Y-143203470D01*
X122494570Y-143098136D01*
X122628634Y-142964072D01*
X122733968Y-142806429D01*
X122806524Y-142631265D01*
X122843512Y-142445312D01*
X122843512Y-142255716D01*
X122843511Y-142255711D01*
X123458512Y-142255711D01*
X123458512Y-142445316D01*
X123495498Y-142631257D01*
X123495500Y-142631265D01*
X123568054Y-142806426D01*
X123673389Y-142964072D01*
X123807453Y-143098136D01*
X123912312Y-143168200D01*
X123965097Y-143203470D01*
X124140261Y-143276026D01*
X124326209Y-143313013D01*
X124326213Y-143313014D01*
X124326214Y-143313014D01*
X124515811Y-143313014D01*
X124515812Y-143313013D01*
X124701763Y-143276026D01*
X124876927Y-143203470D01*
X125034570Y-143098136D01*
X125168634Y-142964072D01*
X125273968Y-142806429D01*
X125346524Y-142631265D01*
X125383512Y-142445312D01*
X125383512Y-142255716D01*
X125383511Y-142255711D01*
X125998512Y-142255711D01*
X125998512Y-142445316D01*
X126035498Y-142631257D01*
X126035500Y-142631265D01*
X126108054Y-142806426D01*
X126213389Y-142964072D01*
X126347453Y-143098136D01*
X126452312Y-143168200D01*
X126505097Y-143203470D01*
X126680261Y-143276026D01*
X126866209Y-143313013D01*
X126866213Y-143313014D01*
X126866214Y-143313014D01*
X127055811Y-143313014D01*
X127055812Y-143313013D01*
X127241763Y-143276026D01*
X127416927Y-143203470D01*
X127574570Y-143098136D01*
X127708634Y-142964072D01*
X127813968Y-142806429D01*
X127886524Y-142631265D01*
X127923512Y-142445312D01*
X127923512Y-142255716D01*
X127923511Y-142255711D01*
X128538512Y-142255711D01*
X128538512Y-142445316D01*
X128575498Y-142631257D01*
X128575500Y-142631265D01*
X128648054Y-142806426D01*
X128753389Y-142964072D01*
X128887453Y-143098136D01*
X128992312Y-143168200D01*
X129045097Y-143203470D01*
X129220261Y-143276026D01*
X129406209Y-143313013D01*
X129406213Y-143313014D01*
X129406214Y-143313014D01*
X129595811Y-143313014D01*
X129595812Y-143313013D01*
X129781763Y-143276026D01*
X129956927Y-143203470D01*
X130114570Y-143098136D01*
X130248634Y-142964072D01*
X130353968Y-142806429D01*
X130426524Y-142631265D01*
X130463512Y-142445312D01*
X130463512Y-142255716D01*
X130426524Y-142069763D01*
X130353968Y-141894599D01*
X130318698Y-141841814D01*
X130248634Y-141736955D01*
X130114570Y-141602891D01*
X129956924Y-141497556D01*
X129781763Y-141425002D01*
X129781755Y-141425000D01*
X129595814Y-141388014D01*
X129595810Y-141388014D01*
X129406214Y-141388014D01*
X129406209Y-141388014D01*
X129220268Y-141425000D01*
X129220260Y-141425002D01*
X129045099Y-141497556D01*
X128887453Y-141602891D01*
X128753389Y-141736955D01*
X128648054Y-141894601D01*
X128575500Y-142069762D01*
X128575498Y-142069770D01*
X128538512Y-142255711D01*
X127923511Y-142255711D01*
X127886524Y-142069763D01*
X127813968Y-141894599D01*
X127778698Y-141841814D01*
X127708634Y-141736955D01*
X127574570Y-141602891D01*
X127416924Y-141497556D01*
X127241763Y-141425002D01*
X127241755Y-141425000D01*
X127055814Y-141388014D01*
X127055810Y-141388014D01*
X126866214Y-141388014D01*
X126866209Y-141388014D01*
X126680268Y-141425000D01*
X126680260Y-141425002D01*
X126505099Y-141497556D01*
X126347453Y-141602891D01*
X126213389Y-141736955D01*
X126108054Y-141894601D01*
X126035500Y-142069762D01*
X126035498Y-142069770D01*
X125998512Y-142255711D01*
X125383511Y-142255711D01*
X125346524Y-142069763D01*
X125273968Y-141894599D01*
X125238698Y-141841814D01*
X125168634Y-141736955D01*
X125034570Y-141602891D01*
X124876924Y-141497556D01*
X124701763Y-141425002D01*
X124701755Y-141425000D01*
X124515814Y-141388014D01*
X124515810Y-141388014D01*
X124326214Y-141388014D01*
X124326209Y-141388014D01*
X124140268Y-141425000D01*
X124140260Y-141425002D01*
X123965099Y-141497556D01*
X123807453Y-141602891D01*
X123673389Y-141736955D01*
X123568054Y-141894601D01*
X123495500Y-142069762D01*
X123495498Y-142069770D01*
X123458512Y-142255711D01*
X122843511Y-142255711D01*
X122806524Y-142069763D01*
X122733968Y-141894599D01*
X122698698Y-141841814D01*
X122628634Y-141736955D01*
X122494570Y-141602891D01*
X122336924Y-141497556D01*
X122161763Y-141425002D01*
X122161755Y-141425000D01*
X121975814Y-141388014D01*
X121975810Y-141388014D01*
X121786214Y-141388014D01*
X121786209Y-141388014D01*
X121600268Y-141425000D01*
X121600260Y-141425002D01*
X121425099Y-141497556D01*
X121267453Y-141602891D01*
X121133389Y-141736955D01*
X121028054Y-141894601D01*
X120955500Y-142069762D01*
X120955498Y-142069770D01*
X120918512Y-142255711D01*
X120303511Y-142255711D01*
X120266524Y-142069763D01*
X120193968Y-141894599D01*
X120158698Y-141841814D01*
X120088634Y-141736955D01*
X119954570Y-141602891D01*
X119796924Y-141497556D01*
X119621763Y-141425002D01*
X119621755Y-141425000D01*
X119435814Y-141388014D01*
X119435810Y-141388014D01*
X119246214Y-141388014D01*
X119246209Y-141388014D01*
X119060268Y-141425000D01*
X119060260Y-141425002D01*
X118885099Y-141497556D01*
X118727453Y-141602891D01*
X118593389Y-141736955D01*
X118488054Y-141894601D01*
X118415500Y-142069762D01*
X118415498Y-142069770D01*
X118378512Y-142255711D01*
X115670601Y-142255711D01*
X115670601Y-132599984D01*
X115690286Y-132532945D01*
X115743090Y-132487190D01*
X115812248Y-132477246D01*
X115875804Y-132506271D01*
X115909162Y-132552531D01*
X115948054Y-132646427D01*
X116053389Y-132804072D01*
X116187453Y-132938136D01*
X116292312Y-133008200D01*
X116345097Y-133043470D01*
X116520261Y-133116026D01*
X116706209Y-133153013D01*
X116706213Y-133153014D01*
X116706214Y-133153014D01*
X116895811Y-133153014D01*
X116895812Y-133153013D01*
X117081763Y-133116026D01*
X117256927Y-133043470D01*
X117414570Y-132938136D01*
X117548634Y-132804072D01*
X117653968Y-132646429D01*
X117726524Y-132471265D01*
X117763512Y-132285312D01*
X117763512Y-132095716D01*
X117763511Y-132095713D01*
X117763511Y-132095711D01*
X118378512Y-132095711D01*
X118378512Y-132285316D01*
X118415498Y-132471257D01*
X118415500Y-132471265D01*
X118488054Y-132646426D01*
X118593389Y-132804072D01*
X118727453Y-132938136D01*
X118832312Y-133008200D01*
X118885097Y-133043470D01*
X119060261Y-133116026D01*
X119246209Y-133153013D01*
X119246213Y-133153014D01*
X119246214Y-133153014D01*
X119435811Y-133153014D01*
X119435812Y-133153013D01*
X119621763Y-133116026D01*
X119796927Y-133043470D01*
X119954570Y-132938136D01*
X120088634Y-132804072D01*
X120193968Y-132646429D01*
X120266524Y-132471265D01*
X120303512Y-132285312D01*
X120303512Y-132095716D01*
X120303511Y-132095713D01*
X120303511Y-132095711D01*
X120918512Y-132095711D01*
X120918512Y-132285316D01*
X120955498Y-132471257D01*
X120955500Y-132471265D01*
X121028054Y-132646426D01*
X121133389Y-132804072D01*
X121267453Y-132938136D01*
X121372312Y-133008200D01*
X121425097Y-133043470D01*
X121600261Y-133116026D01*
X121786209Y-133153013D01*
X121786213Y-133153014D01*
X121786214Y-133153014D01*
X121975811Y-133153014D01*
X121975812Y-133153013D01*
X122161763Y-133116026D01*
X122336927Y-133043470D01*
X122494570Y-132938136D01*
X122628634Y-132804072D01*
X122733968Y-132646429D01*
X122806524Y-132471265D01*
X122843512Y-132285312D01*
X122843512Y-132095716D01*
X122843511Y-132095713D01*
X122843511Y-132095711D01*
X123458512Y-132095711D01*
X123458512Y-132285316D01*
X123495498Y-132471257D01*
X123495500Y-132471265D01*
X123568054Y-132646426D01*
X123673389Y-132804072D01*
X123807453Y-132938136D01*
X123912312Y-133008200D01*
X123965097Y-133043470D01*
X124140261Y-133116026D01*
X124326209Y-133153013D01*
X124326213Y-133153014D01*
X124326214Y-133153014D01*
X124515811Y-133153014D01*
X124515812Y-133153013D01*
X124701763Y-133116026D01*
X124876927Y-133043470D01*
X125034570Y-132938136D01*
X125168634Y-132804072D01*
X125273968Y-132646429D01*
X125346524Y-132471265D01*
X125383512Y-132285312D01*
X125383512Y-132095716D01*
X125383512Y-132095715D01*
X125383512Y-132095713D01*
X125382613Y-132091192D01*
X125699012Y-132091192D01*
X125699012Y-132289835D01*
X125730087Y-132486034D01*
X125730087Y-132486037D01*
X125791469Y-132674951D01*
X125881653Y-132851946D01*
X125908742Y-132889229D01*
X125908743Y-132889230D01*
X126518873Y-132279099D01*
X126541679Y-132364208D01*
X126600922Y-132466820D01*
X126684706Y-132550604D01*
X126787318Y-132609847D01*
X126872426Y-132632651D01*
X126262295Y-133242782D01*
X126262295Y-133242783D01*
X126299579Y-133269872D01*
X126476574Y-133360056D01*
X126665489Y-133421438D01*
X126861691Y-133452514D01*
X127060333Y-133452514D01*
X127256532Y-133421438D01*
X127256535Y-133421438D01*
X127445449Y-133360056D01*
X127622437Y-133269876D01*
X127659728Y-133242782D01*
X127049597Y-132632651D01*
X127134706Y-132609847D01*
X127237318Y-132550604D01*
X127321102Y-132466820D01*
X127380345Y-132364208D01*
X127403150Y-132279099D01*
X128013280Y-132889229D01*
X128040374Y-132851939D01*
X128130554Y-132674951D01*
X128191936Y-132486037D01*
X128191936Y-132486034D01*
X128223012Y-132289835D01*
X128223012Y-132095711D01*
X128538512Y-132095711D01*
X128538512Y-132285316D01*
X128575498Y-132471257D01*
X128575500Y-132471265D01*
X128648054Y-132646426D01*
X128753389Y-132804072D01*
X128887453Y-132938136D01*
X128992312Y-133008200D01*
X129045097Y-133043470D01*
X129220261Y-133116026D01*
X129406209Y-133153013D01*
X129406213Y-133153014D01*
X129406214Y-133153014D01*
X129595811Y-133153014D01*
X129595812Y-133153013D01*
X129781763Y-133116026D01*
X129956927Y-133043470D01*
X130114570Y-132938136D01*
X130248634Y-132804072D01*
X130353968Y-132646429D01*
X130426524Y-132471265D01*
X130463512Y-132285312D01*
X130463512Y-132095716D01*
X130463511Y-132095713D01*
X130463511Y-132095711D01*
X130426525Y-131909770D01*
X130426524Y-131909763D01*
X130353968Y-131734599D01*
X130318698Y-131681814D01*
X130248634Y-131576955D01*
X130114570Y-131442891D01*
X129956924Y-131337556D01*
X129781763Y-131265002D01*
X129781755Y-131265000D01*
X129595814Y-131228014D01*
X129595810Y-131228014D01*
X129406214Y-131228014D01*
X129406209Y-131228014D01*
X129220268Y-131265000D01*
X129220260Y-131265002D01*
X129045099Y-131337556D01*
X128887453Y-131442891D01*
X128753389Y-131576955D01*
X128648054Y-131734601D01*
X128575500Y-131909762D01*
X128575498Y-131909770D01*
X128538512Y-132095711D01*
X128223012Y-132095711D01*
X128223012Y-132091192D01*
X128191936Y-131894993D01*
X128191936Y-131894990D01*
X128130554Y-131706076D01*
X128040370Y-131529081D01*
X128013280Y-131491797D01*
X127403149Y-132101928D01*
X127380345Y-132016820D01*
X127321102Y-131914208D01*
X127237318Y-131830424D01*
X127134706Y-131771181D01*
X127049597Y-131748375D01*
X127659728Y-131138245D01*
X127659727Y-131138244D01*
X127622444Y-131111155D01*
X127445449Y-131020971D01*
X127256534Y-130959589D01*
X127060333Y-130928514D01*
X126861691Y-130928514D01*
X126665491Y-130959589D01*
X126665488Y-130959589D01*
X126476574Y-131020971D01*
X126299576Y-131111157D01*
X126262295Y-131138243D01*
X126262294Y-131138244D01*
X126872427Y-131748375D01*
X126787318Y-131771181D01*
X126684706Y-131830424D01*
X126600922Y-131914208D01*
X126541679Y-132016820D01*
X126518873Y-132101928D01*
X125908742Y-131491796D01*
X125908741Y-131491797D01*
X125881655Y-131529078D01*
X125791469Y-131706076D01*
X125730087Y-131894990D01*
X125730087Y-131894993D01*
X125699012Y-132091192D01*
X125382613Y-132091192D01*
X125346525Y-131909770D01*
X125346524Y-131909763D01*
X125273968Y-131734599D01*
X125238698Y-131681814D01*
X125168634Y-131576955D01*
X125034570Y-131442891D01*
X124876924Y-131337556D01*
X124786412Y-131300065D01*
X124701763Y-131265002D01*
X124701755Y-131265000D01*
X124515814Y-131228014D01*
X124515810Y-131228014D01*
X124326214Y-131228014D01*
X124326209Y-131228014D01*
X124140268Y-131265000D01*
X124140260Y-131265002D01*
X123965099Y-131337556D01*
X123807453Y-131442891D01*
X123673389Y-131576955D01*
X123568054Y-131734601D01*
X123495500Y-131909762D01*
X123495498Y-131909770D01*
X123458512Y-132095711D01*
X122843511Y-132095711D01*
X122806525Y-131909770D01*
X122806524Y-131909763D01*
X122733968Y-131734599D01*
X122698698Y-131681814D01*
X122628634Y-131576955D01*
X122494570Y-131442891D01*
X122336924Y-131337556D01*
X122161763Y-131265002D01*
X122161755Y-131265000D01*
X121975814Y-131228014D01*
X121975810Y-131228014D01*
X121786214Y-131228014D01*
X121786209Y-131228014D01*
X121600268Y-131265000D01*
X121600260Y-131265002D01*
X121425099Y-131337556D01*
X121267453Y-131442891D01*
X121133389Y-131576955D01*
X121028054Y-131734601D01*
X120955500Y-131909762D01*
X120955498Y-131909770D01*
X120918512Y-132095711D01*
X120303511Y-132095711D01*
X120266525Y-131909770D01*
X120266524Y-131909763D01*
X120193968Y-131734599D01*
X120158698Y-131681814D01*
X120088634Y-131576955D01*
X119954570Y-131442891D01*
X119796924Y-131337556D01*
X119621763Y-131265002D01*
X119621755Y-131265000D01*
X119435814Y-131228014D01*
X119435810Y-131228014D01*
X119246214Y-131228014D01*
X119246209Y-131228014D01*
X119060268Y-131265000D01*
X119060260Y-131265002D01*
X118885099Y-131337556D01*
X118727453Y-131442891D01*
X118593389Y-131576955D01*
X118488054Y-131734601D01*
X118415500Y-131909762D01*
X118415498Y-131909770D01*
X118378512Y-132095711D01*
X117763511Y-132095711D01*
X117726525Y-131909770D01*
X117726524Y-131909763D01*
X117653968Y-131734599D01*
X117618698Y-131681814D01*
X117548634Y-131576955D01*
X117414570Y-131442891D01*
X117256924Y-131337556D01*
X117081763Y-131265002D01*
X117081755Y-131265000D01*
X116895814Y-131228014D01*
X116895810Y-131228014D01*
X116706214Y-131228014D01*
X116706209Y-131228014D01*
X116520268Y-131265000D01*
X116520260Y-131265002D01*
X116345099Y-131337556D01*
X116187453Y-131442891D01*
X116053389Y-131576955D01*
X115948054Y-131734601D01*
X115909162Y-131828496D01*
X115865321Y-131882899D01*
X115799026Y-131904964D01*
X115731327Y-131887685D01*
X115683717Y-131836547D01*
X115670601Y-131781043D01*
X115670601Y-129547955D01*
X125644600Y-129547955D01*
X125683048Y-129741241D01*
X125683051Y-129741251D01*
X125758465Y-129923319D01*
X125758472Y-129923332D01*
X125867961Y-130087193D01*
X125867964Y-130087197D01*
X126007315Y-130226548D01*
X126007319Y-130226551D01*
X126171180Y-130336040D01*
X126171193Y-130336047D01*
X126353261Y-130411461D01*
X126353266Y-130411463D01*
X126353270Y-130411463D01*
X126353271Y-130411464D01*
X126546557Y-130449912D01*
X126546560Y-130449912D01*
X126743644Y-130449912D01*
X126873683Y-130424044D01*
X126936936Y-130411463D01*
X127119015Y-130336044D01*
X127282883Y-130226551D01*
X127422240Y-130087194D01*
X127531733Y-129923326D01*
X127607152Y-129741247D01*
X127645601Y-129547953D01*
X127645601Y-129350871D01*
X127645601Y-129350868D01*
X127607153Y-129157582D01*
X127607152Y-129157581D01*
X127607152Y-129157577D01*
X127607150Y-129157572D01*
X127531736Y-128975504D01*
X127531729Y-128975491D01*
X127422240Y-128811630D01*
X127422237Y-128811626D01*
X127282886Y-128672275D01*
X127282882Y-128672272D01*
X127119021Y-128562783D01*
X127119008Y-128562776D01*
X126936940Y-128487362D01*
X126936930Y-128487359D01*
X126743644Y-128448912D01*
X126743642Y-128448912D01*
X126546560Y-128448912D01*
X126546558Y-128448912D01*
X126353271Y-128487359D01*
X126353261Y-128487362D01*
X126171193Y-128562776D01*
X126171180Y-128562783D01*
X126007319Y-128672272D01*
X126007315Y-128672275D01*
X125867964Y-128811626D01*
X125867961Y-128811630D01*
X125758472Y-128975491D01*
X125758465Y-128975504D01*
X125683051Y-129157572D01*
X125683048Y-129157582D01*
X125644601Y-129350868D01*
X125644601Y-129350871D01*
X125644601Y-129547953D01*
X125644601Y-129547955D01*
X125644600Y-129547955D01*
X115670601Y-129547955D01*
X115670601Y-127347955D01*
X116194600Y-127347955D01*
X116233048Y-127541241D01*
X116233051Y-127541251D01*
X116308465Y-127723319D01*
X116308472Y-127723332D01*
X116417961Y-127887193D01*
X116417964Y-127887197D01*
X116557315Y-128026548D01*
X116557319Y-128026551D01*
X116721180Y-128136040D01*
X116721193Y-128136047D01*
X116903261Y-128211461D01*
X116903266Y-128211463D01*
X116903270Y-128211463D01*
X116903271Y-128211464D01*
X117096557Y-128249912D01*
X117096560Y-128249912D01*
X117293644Y-128249912D01*
X117423683Y-128224044D01*
X117486936Y-128211463D01*
X117669015Y-128136044D01*
X117832883Y-128026551D01*
X117972240Y-127887194D01*
X118081733Y-127723326D01*
X118157152Y-127541247D01*
X118195601Y-127347955D01*
X123194600Y-127347955D01*
X123233048Y-127541241D01*
X123233051Y-127541251D01*
X123308465Y-127723319D01*
X123308472Y-127723332D01*
X123417961Y-127887193D01*
X123417964Y-127887197D01*
X123557315Y-128026548D01*
X123557319Y-128026551D01*
X123721180Y-128136040D01*
X123721193Y-128136047D01*
X123903261Y-128211461D01*
X123903266Y-128211463D01*
X123903270Y-128211463D01*
X123903271Y-128211464D01*
X124096557Y-128249912D01*
X124096560Y-128249912D01*
X124293644Y-128249912D01*
X124423683Y-128224044D01*
X124486936Y-128211463D01*
X124669015Y-128136044D01*
X124832883Y-128026551D01*
X124972240Y-127887194D01*
X125081733Y-127723326D01*
X125157152Y-127541247D01*
X125195601Y-127347953D01*
X125195601Y-127150871D01*
X125195601Y-127150868D01*
X125157153Y-126957582D01*
X125157152Y-126957581D01*
X125157152Y-126957577D01*
X125157150Y-126957572D01*
X125081736Y-126775504D01*
X125081729Y-126775491D01*
X124972240Y-126611630D01*
X124972237Y-126611626D01*
X124832886Y-126472275D01*
X124832882Y-126472272D01*
X124669021Y-126362783D01*
X124669008Y-126362776D01*
X124486940Y-126287362D01*
X124486930Y-126287359D01*
X124293644Y-126248912D01*
X124293642Y-126248912D01*
X124096560Y-126248912D01*
X124096558Y-126248912D01*
X123903271Y-126287359D01*
X123903261Y-126287362D01*
X123721193Y-126362776D01*
X123721180Y-126362783D01*
X123557319Y-126472272D01*
X123557315Y-126472275D01*
X123417964Y-126611626D01*
X123417961Y-126611630D01*
X123308472Y-126775491D01*
X123308465Y-126775504D01*
X123233051Y-126957572D01*
X123233048Y-126957582D01*
X123194601Y-127150868D01*
X123194601Y-127150871D01*
X123194601Y-127347953D01*
X123194601Y-127347955D01*
X123194600Y-127347955D01*
X118195601Y-127347955D01*
X118195601Y-127347953D01*
X118195601Y-127150871D01*
X118195601Y-127150868D01*
X118157153Y-126957582D01*
X118157152Y-126957581D01*
X118157152Y-126957577D01*
X118157150Y-126957572D01*
X118081736Y-126775504D01*
X118081729Y-126775491D01*
X117972240Y-126611630D01*
X117972237Y-126611626D01*
X117832886Y-126472275D01*
X117832882Y-126472272D01*
X117669021Y-126362783D01*
X117669008Y-126362776D01*
X117486940Y-126287362D01*
X117486930Y-126287359D01*
X117293644Y-126248912D01*
X117293642Y-126248912D01*
X117096560Y-126248912D01*
X117096558Y-126248912D01*
X116903271Y-126287359D01*
X116903261Y-126287362D01*
X116721193Y-126362776D01*
X116721180Y-126362783D01*
X116557319Y-126472272D01*
X116557315Y-126472275D01*
X116417964Y-126611626D01*
X116417961Y-126611630D01*
X116308472Y-126775491D01*
X116308465Y-126775504D01*
X116233051Y-126957572D01*
X116233048Y-126957582D01*
X116194601Y-127150868D01*
X116194601Y-127150871D01*
X116194601Y-127347953D01*
X116194601Y-127347955D01*
X116194600Y-127347955D01*
X115670601Y-127347955D01*
X115670601Y-126128886D01*
X117919177Y-126128886D01*
X117963751Y-126161271D01*
X118146069Y-126254167D01*
X118340683Y-126317402D01*
X118542784Y-126349412D01*
X118747418Y-126349412D01*
X118949518Y-126317402D01*
X119144132Y-126254167D01*
X119326450Y-126161271D01*
X119371022Y-126128886D01*
X118645101Y-125402965D01*
X117919177Y-126128886D01*
X115670601Y-126128886D01*
X115670601Y-124443912D01*
X115690286Y-124376873D01*
X115743090Y-124331118D01*
X115794601Y-124319912D01*
X117355426Y-124319912D01*
X117422465Y-124339597D01*
G37*
G04 #@! TD.AperFunction*
G04 #@! TA.AperFunction,Conductor*
G36*
X106381510Y-83680777D02*
G01*
X106420922Y-83707315D01*
X106620623Y-83907016D01*
X106654108Y-83968339D01*
X106654559Y-84018888D01*
X106617500Y-84205197D01*
X106617500Y-84394802D01*
X106654486Y-84580743D01*
X106654488Y-84580751D01*
X106727042Y-84755912D01*
X106832377Y-84913558D01*
X106966441Y-85047622D01*
X107071300Y-85117686D01*
X107124085Y-85152956D01*
X107299249Y-85225512D01*
X107485197Y-85262499D01*
X107485201Y-85262500D01*
X107485202Y-85262500D01*
X107674799Y-85262500D01*
X107674800Y-85262499D01*
X107860751Y-85225512D01*
X108035915Y-85152956D01*
X108193558Y-85047622D01*
X108327622Y-84913558D01*
X108329396Y-84910902D01*
X108330685Y-84909824D01*
X108331486Y-84908850D01*
X108331670Y-84909001D01*
X108383007Y-84866097D01*
X108452331Y-84857387D01*
X108515360Y-84887540D01*
X108552081Y-84946982D01*
X108556500Y-84979791D01*
X108556500Y-86653513D01*
X108536815Y-86720552D01*
X108484011Y-86766307D01*
X108414853Y-86776251D01*
X108351297Y-86747226D01*
X108317939Y-86700966D01*
X108252957Y-86544087D01*
X108147622Y-86386441D01*
X108013558Y-86252377D01*
X107855912Y-86147042D01*
X107680751Y-86074488D01*
X107680743Y-86074486D01*
X107494802Y-86037500D01*
X107494798Y-86037500D01*
X107305202Y-86037500D01*
X107305197Y-86037500D01*
X107119256Y-86074486D01*
X107119248Y-86074488D01*
X106944087Y-86147042D01*
X106786441Y-86252377D01*
X106652377Y-86386441D01*
X106547042Y-86544087D01*
X106474488Y-86719248D01*
X106474486Y-86719256D01*
X106437500Y-86905197D01*
X106437500Y-87094802D01*
X106474486Y-87280743D01*
X106474488Y-87280751D01*
X106547042Y-87455912D01*
X106652377Y-87613558D01*
X106786441Y-87747622D01*
X106858436Y-87795727D01*
X106944085Y-87852956D01*
X106944086Y-87852956D01*
X106944087Y-87852957D01*
X106967126Y-87862500D01*
X107119249Y-87925512D01*
X107233185Y-87948175D01*
X107305197Y-87962499D01*
X107305201Y-87962500D01*
X107305202Y-87962500D01*
X107494799Y-87962500D01*
X107494800Y-87962499D01*
X107680751Y-87925512D01*
X107855915Y-87852956D01*
X108013558Y-87747622D01*
X108147622Y-87613558D01*
X108252956Y-87455915D01*
X108317939Y-87299032D01*
X108361780Y-87244630D01*
X108428074Y-87222565D01*
X108495774Y-87239844D01*
X108543384Y-87290982D01*
X108556500Y-87346486D01*
X108556500Y-87525745D01*
X108536815Y-87592784D01*
X108520181Y-87613426D01*
X108242522Y-87891084D01*
X108242518Y-87891090D01*
X108189793Y-87982410D01*
X108185810Y-87997279D01*
X108162500Y-88084273D01*
X108162500Y-88619909D01*
X108142815Y-88686948D01*
X108090011Y-88732703D01*
X108020853Y-88742647D01*
X107969610Y-88723012D01*
X107907938Y-88681805D01*
X107855915Y-88647044D01*
X107855912Y-88647042D01*
X107855911Y-88647042D01*
X107680751Y-88574488D01*
X107680743Y-88574486D01*
X107494802Y-88537500D01*
X107494798Y-88537500D01*
X107305202Y-88537500D01*
X107305197Y-88537500D01*
X107119256Y-88574486D01*
X107119248Y-88574488D01*
X106944087Y-88647042D01*
X106786441Y-88752377D01*
X106652377Y-88886441D01*
X106547042Y-89044087D01*
X106474488Y-89219248D01*
X106474486Y-89219256D01*
X106437500Y-89405197D01*
X106437500Y-89594802D01*
X106474486Y-89780743D01*
X106474488Y-89780751D01*
X106547042Y-89955912D01*
X106652377Y-90113558D01*
X106786441Y-90247622D01*
X106900320Y-90323713D01*
X106945125Y-90377325D01*
X106953832Y-90446650D01*
X106923678Y-90509677D01*
X106919110Y-90514496D01*
X99600174Y-97833432D01*
X99538851Y-97866917D01*
X99469159Y-97861933D01*
X99413226Y-97820061D01*
X99388809Y-97754597D01*
X99394562Y-97707432D01*
X99430925Y-97595519D01*
X99462000Y-97399321D01*
X99462000Y-97200678D01*
X99430924Y-97004479D01*
X99430924Y-97004476D01*
X99369542Y-96815562D01*
X99279358Y-96638567D01*
X99252268Y-96601283D01*
X98642138Y-97211415D01*
X98619333Y-97126306D01*
X98560090Y-97023694D01*
X98476306Y-96939910D01*
X98373694Y-96880667D01*
X98288585Y-96857861D01*
X98898716Y-96247731D01*
X98898715Y-96247730D01*
X98861432Y-96220641D01*
X98684437Y-96130457D01*
X98495522Y-96069075D01*
X98299321Y-96038000D01*
X98100679Y-96038000D01*
X97904479Y-96069075D01*
X97904476Y-96069075D01*
X97715562Y-96130457D01*
X97538564Y-96220643D01*
X97501283Y-96247729D01*
X97501282Y-96247730D01*
X98111415Y-96857861D01*
X98026306Y-96880667D01*
X97923694Y-96939910D01*
X97839910Y-97023694D01*
X97780667Y-97126306D01*
X97757861Y-97211414D01*
X97147730Y-96601282D01*
X97147729Y-96601283D01*
X97120643Y-96638564D01*
X97030457Y-96815562D01*
X96969075Y-97004476D01*
X96969075Y-97004479D01*
X96938000Y-97200678D01*
X96938000Y-97399321D01*
X96969075Y-97595520D01*
X96969075Y-97595523D01*
X97030457Y-97784437D01*
X97120641Y-97961432D01*
X97147730Y-97998715D01*
X97147731Y-97998716D01*
X97757861Y-97388585D01*
X97780667Y-97473694D01*
X97839910Y-97576306D01*
X97923694Y-97660090D01*
X98026306Y-97719333D01*
X98111415Y-97742138D01*
X97501283Y-98352268D01*
X97501283Y-98352269D01*
X97538567Y-98379358D01*
X97715562Y-98469542D01*
X97904477Y-98530924D01*
X98100679Y-98562000D01*
X98299321Y-98562000D01*
X98495519Y-98530925D01*
X98607432Y-98494562D01*
X98677274Y-98492567D01*
X98737107Y-98528647D01*
X98767935Y-98591348D01*
X98759971Y-98660762D01*
X98733433Y-98700174D01*
X98679519Y-98754088D01*
X98679518Y-98754090D01*
X98626792Y-98845412D01*
X98626793Y-98845413D01*
X98599500Y-98947273D01*
X98599500Y-100259460D01*
X98582887Y-100321460D01*
X98533609Y-100406810D01*
X98533609Y-100406811D01*
X98533608Y-100406813D01*
X98533608Y-100406814D01*
X98499500Y-100534108D01*
X98499500Y-100665892D01*
X98509783Y-100704270D01*
X98533608Y-100793187D01*
X98566554Y-100850250D01*
X98599500Y-100907314D01*
X98692686Y-101000500D01*
X98806814Y-101066392D01*
X98934108Y-101100500D01*
X98934110Y-101100500D01*
X99065890Y-101100500D01*
X99065892Y-101100500D01*
X99193186Y-101066392D01*
X99307314Y-101000500D01*
X99400500Y-100907314D01*
X99466392Y-100793186D01*
X99500500Y-100665892D01*
X99500500Y-100534108D01*
X99466392Y-100406814D01*
X99462169Y-100399500D01*
X99417113Y-100321460D01*
X99400500Y-100259460D01*
X99400500Y-99697648D01*
X101999500Y-99697648D01*
X101999500Y-99902351D01*
X102031522Y-100104534D01*
X102094781Y-100299223D01*
X102187715Y-100481613D01*
X102308028Y-100647213D01*
X102452786Y-100791971D01*
X102607749Y-100904556D01*
X102618390Y-100912287D01*
X102704739Y-100956284D01*
X102800776Y-101005218D01*
X102800778Y-101005218D01*
X102800781Y-101005220D01*
X102875049Y-101029351D01*
X102995465Y-101068477D01*
X103054707Y-101077860D01*
X103197648Y-101100500D01*
X103197649Y-101100500D01*
X103402351Y-101100500D01*
X103402352Y-101100500D01*
X103604534Y-101068477D01*
X103799219Y-101005220D01*
X103981610Y-100912287D01*
X104074590Y-100844732D01*
X104147213Y-100791971D01*
X104147215Y-100791968D01*
X104147219Y-100791966D01*
X104291966Y-100647219D01*
X104291968Y-100647215D01*
X104291971Y-100647213D01*
X104353038Y-100563160D01*
X104412287Y-100481610D01*
X104505220Y-100299219D01*
X104568477Y-100104534D01*
X104600500Y-99902352D01*
X104600500Y-99697648D01*
X104568477Y-99495466D01*
X104505220Y-99300781D01*
X104505218Y-99300778D01*
X104505218Y-99300776D01*
X104454124Y-99200500D01*
X104412287Y-99118390D01*
X104360618Y-99047273D01*
X104291971Y-98952786D01*
X104147213Y-98808028D01*
X103981613Y-98687715D01*
X103981612Y-98687714D01*
X103981610Y-98687713D01*
X103899571Y-98645912D01*
X103799223Y-98594781D01*
X103604534Y-98531522D01*
X103420371Y-98502354D01*
X103402352Y-98499500D01*
X103197648Y-98499500D01*
X103179635Y-98502353D01*
X102995465Y-98531522D01*
X102800776Y-98594781D01*
X102618386Y-98687715D01*
X102452786Y-98808028D01*
X102308028Y-98952786D01*
X102187715Y-99118386D01*
X102094781Y-99300776D01*
X102031522Y-99495465D01*
X101999500Y-99697648D01*
X99400500Y-99697648D01*
X99400500Y-99217254D01*
X99420185Y-99150215D01*
X99436814Y-99129578D01*
X104187819Y-94378572D01*
X104249142Y-94345088D01*
X104318834Y-94350072D01*
X104374767Y-94391944D01*
X104399184Y-94457408D01*
X104399500Y-94466254D01*
X104399500Y-98347273D01*
X104399500Y-98452727D01*
X104406679Y-98479520D01*
X104426793Y-98554589D01*
X104449998Y-98594780D01*
X104479520Y-98645913D01*
X104479522Y-98645915D01*
X106776005Y-100942398D01*
X106784022Y-100956284D01*
X106794206Y-100965542D01*
X106808099Y-100997986D01*
X106816503Y-101029351D01*
X106814840Y-101099201D01*
X106775677Y-101157063D01*
X106711448Y-101184567D01*
X106642546Y-101172980D01*
X106609047Y-101149125D01*
X106537785Y-101077863D01*
X106537781Y-101077860D01*
X106373920Y-100968371D01*
X106373907Y-100968364D01*
X106191839Y-100892950D01*
X106191829Y-100892947D01*
X105998543Y-100854500D01*
X105998541Y-100854500D01*
X105801459Y-100854500D01*
X105801457Y-100854500D01*
X105608170Y-100892947D01*
X105608160Y-100892950D01*
X105426092Y-100968364D01*
X105426079Y-100968371D01*
X105262218Y-101077860D01*
X105262214Y-101077863D01*
X105122863Y-101217214D01*
X105122860Y-101217218D01*
X105013371Y-101381079D01*
X105013364Y-101381092D01*
X104937950Y-101563160D01*
X104937947Y-101563170D01*
X104899500Y-101756456D01*
X104899500Y-101756459D01*
X104899500Y-101953541D01*
X104899500Y-101953543D01*
X104899499Y-101953543D01*
X104937947Y-102146829D01*
X104937950Y-102146839D01*
X105013364Y-102328907D01*
X105013371Y-102328920D01*
X105122860Y-102492781D01*
X105122863Y-102492785D01*
X105262214Y-102632136D01*
X105262218Y-102632139D01*
X105426079Y-102741628D01*
X105426092Y-102741635D01*
X105608160Y-102817049D01*
X105608165Y-102817051D01*
X105608169Y-102817051D01*
X105608170Y-102817052D01*
X105801456Y-102855500D01*
X105978744Y-102855500D01*
X106045783Y-102875185D01*
X106091538Y-102927989D01*
X106101482Y-102997147D01*
X106072457Y-103060703D01*
X106066425Y-103067181D01*
X104023835Y-105109770D01*
X103962512Y-105143255D01*
X103897994Y-105138641D01*
X103897668Y-105139718D01*
X103892921Y-105138278D01*
X103892820Y-105138271D01*
X103892559Y-105138168D01*
X103891833Y-105137948D01*
X103698543Y-105099500D01*
X103698541Y-105099500D01*
X103501459Y-105099500D01*
X103501457Y-105099500D01*
X103308170Y-105137947D01*
X103308160Y-105137950D01*
X103126092Y-105213364D01*
X103126079Y-105213371D01*
X102962218Y-105322860D01*
X102962214Y-105322863D01*
X102822863Y-105462214D01*
X102822860Y-105462218D01*
X102713371Y-105626079D01*
X102713364Y-105626092D01*
X102637950Y-105808160D01*
X102637947Y-105808170D01*
X102599500Y-106001456D01*
X102599500Y-106001459D01*
X102599500Y-106198541D01*
X102599500Y-106198543D01*
X102599499Y-106198543D01*
X102637947Y-106391829D01*
X102637950Y-106391839D01*
X102713364Y-106573907D01*
X102713371Y-106573920D01*
X102822860Y-106737781D01*
X102822863Y-106737785D01*
X102962214Y-106877136D01*
X102962218Y-106877139D01*
X103126079Y-106986628D01*
X103126092Y-106986635D01*
X103308160Y-107062049D01*
X103308165Y-107062051D01*
X103308169Y-107062051D01*
X103308170Y-107062052D01*
X103501456Y-107100500D01*
X103501459Y-107100500D01*
X103698543Y-107100500D01*
X103828582Y-107074632D01*
X103891835Y-107062051D01*
X104073914Y-106986632D01*
X104237782Y-106877139D01*
X104377139Y-106737782D01*
X104486632Y-106573914D01*
X104562051Y-106391835D01*
X104600500Y-106198541D01*
X104600500Y-106001459D01*
X104600500Y-106001456D01*
X104562052Y-105808171D01*
X104562052Y-105808170D01*
X104562051Y-105808165D01*
X104562047Y-105808157D01*
X104560284Y-105802342D01*
X104562316Y-105801725D01*
X104561208Y-105791413D01*
X104554225Y-105772690D01*
X104557553Y-105757388D01*
X104555881Y-105741815D01*
X104564829Y-105723942D01*
X104569077Y-105704417D01*
X104585771Y-105682115D01*
X104587162Y-105679339D01*
X104590200Y-105676191D01*
X104707186Y-105559205D01*
X104768507Y-105525722D01*
X104838199Y-105530706D01*
X104894132Y-105572578D01*
X104918549Y-105638042D01*
X104916482Y-105671079D01*
X104899500Y-105756454D01*
X104899500Y-105756459D01*
X104899500Y-105953541D01*
X104899500Y-105953543D01*
X104899499Y-105953543D01*
X104937947Y-106146829D01*
X104937950Y-106146839D01*
X105013364Y-106328907D01*
X105013371Y-106328920D01*
X105122860Y-106492781D01*
X105122863Y-106492785D01*
X105262214Y-106632136D01*
X105262218Y-106632139D01*
X105426079Y-106741628D01*
X105426092Y-106741635D01*
X105608160Y-106817049D01*
X105608165Y-106817051D01*
X105608169Y-106817051D01*
X105608170Y-106817052D01*
X105801456Y-106855500D01*
X105801459Y-106855500D01*
X105998543Y-106855500D01*
X106128582Y-106829632D01*
X106191835Y-106817051D01*
X106373914Y-106741632D01*
X106537782Y-106632139D01*
X106677139Y-106492782D01*
X106786632Y-106328914D01*
X106862051Y-106146835D01*
X106874632Y-106083582D01*
X106900500Y-105953543D01*
X106900500Y-105756456D01*
X106862052Y-105563170D01*
X106862051Y-105563169D01*
X106862051Y-105563165D01*
X106813839Y-105446769D01*
X106786635Y-105381092D01*
X106786628Y-105381079D01*
X106677139Y-105217218D01*
X106677136Y-105217214D01*
X106537785Y-105077863D01*
X106537781Y-105077860D01*
X106373920Y-104968371D01*
X106373907Y-104968364D01*
X106191839Y-104892950D01*
X106191829Y-104892947D01*
X105998543Y-104854500D01*
X105998541Y-104854500D01*
X105801459Y-104854500D01*
X105801454Y-104854500D01*
X105716079Y-104871482D01*
X105646487Y-104865255D01*
X105591310Y-104822391D01*
X105568066Y-104756501D01*
X105584134Y-104688505D01*
X105604203Y-104662188D01*
X106896199Y-103370192D01*
X106957520Y-103336709D01*
X107027212Y-103341693D01*
X107083145Y-103383565D01*
X107105495Y-103433683D01*
X107137947Y-103596829D01*
X107137950Y-103596839D01*
X107213364Y-103778907D01*
X107213371Y-103778920D01*
X107322860Y-103942781D01*
X107322863Y-103942785D01*
X107462214Y-104082136D01*
X107462218Y-104082139D01*
X107626079Y-104191628D01*
X107626092Y-104191635D01*
X107808160Y-104267049D01*
X107808165Y-104267051D01*
X107808169Y-104267051D01*
X107808170Y-104267052D01*
X108001456Y-104305500D01*
X108001459Y-104305500D01*
X108198543Y-104305500D01*
X108328582Y-104279632D01*
X108391835Y-104267051D01*
X108573914Y-104191632D01*
X108737782Y-104082139D01*
X108877139Y-103942782D01*
X108986632Y-103778914D01*
X109000306Y-103745903D01*
X109054573Y-103614888D01*
X109062051Y-103596835D01*
X109077560Y-103518869D01*
X109100500Y-103403543D01*
X109100500Y-103206456D01*
X109062052Y-103013170D01*
X109062051Y-103013169D01*
X109062051Y-103013165D01*
X109055416Y-102997147D01*
X108986635Y-102831092D01*
X108986628Y-102831079D01*
X108877139Y-102667218D01*
X108877136Y-102667214D01*
X108737785Y-102527863D01*
X108737781Y-102527860D01*
X108573920Y-102418371D01*
X108573907Y-102418364D01*
X108391839Y-102342950D01*
X108391829Y-102342947D01*
X108228684Y-102310495D01*
X108166773Y-102278110D01*
X108132199Y-102217394D01*
X108135940Y-102147624D01*
X108165195Y-102101197D01*
X108170663Y-102095729D01*
X108420480Y-101845913D01*
X108473207Y-101754588D01*
X108500500Y-101652727D01*
X108500500Y-101547273D01*
X108500500Y-99047273D01*
X108495942Y-99030263D01*
X108475183Y-98952786D01*
X108473208Y-98945413D01*
X108444525Y-98895734D01*
X108420480Y-98854087D01*
X108045913Y-98479520D01*
X107999505Y-98452726D01*
X107954589Y-98426793D01*
X107891914Y-98410000D01*
X107852727Y-98399500D01*
X107852726Y-98399500D01*
X107562313Y-98399500D01*
X107495274Y-98379815D01*
X107449519Y-98327011D01*
X107439575Y-98257853D01*
X107468600Y-98194297D01*
X107527378Y-98156523D01*
X107538122Y-98153883D01*
X107609806Y-98139623D01*
X107680751Y-98125512D01*
X107855915Y-98052956D01*
X108013558Y-97947622D01*
X108147622Y-97813558D01*
X108252956Y-97655915D01*
X108325512Y-97480751D01*
X108362500Y-97294798D01*
X108362500Y-97105202D01*
X108325512Y-96919249D01*
X108252956Y-96744085D01*
X108164010Y-96610968D01*
X108147622Y-96586441D01*
X108013558Y-96452377D01*
X107855912Y-96347042D01*
X107680751Y-96274488D01*
X107680743Y-96274486D01*
X107494802Y-96237500D01*
X107494798Y-96237500D01*
X107305202Y-96237500D01*
X107305197Y-96237500D01*
X107119256Y-96274486D01*
X107119248Y-96274488D01*
X106944087Y-96347042D01*
X106786441Y-96452377D01*
X106652377Y-96586441D01*
X106547042Y-96744087D01*
X106474488Y-96919248D01*
X106474486Y-96919256D01*
X106437500Y-97105197D01*
X106437500Y-97105202D01*
X106437500Y-97294798D01*
X106450319Y-97359244D01*
X106451191Y-97363627D01*
X106444963Y-97433219D01*
X106402099Y-97488396D01*
X106336209Y-97511640D01*
X106268212Y-97495572D01*
X106241892Y-97475499D01*
X106036819Y-97270426D01*
X106003334Y-97209103D01*
X106000500Y-97182745D01*
X106000500Y-95249618D01*
X106020185Y-95182579D01*
X106072989Y-95136824D01*
X106142147Y-95126880D01*
X106205703Y-95155905D01*
X106234985Y-95193323D01*
X106320641Y-95361432D01*
X106347730Y-95398715D01*
X106957861Y-94788584D01*
X106980667Y-94873694D01*
X107039910Y-94976306D01*
X107123694Y-95060090D01*
X107226306Y-95119333D01*
X107311414Y-95142137D01*
X106701283Y-95752268D01*
X106701283Y-95752269D01*
X106738567Y-95779358D01*
X106915562Y-95869542D01*
X107104477Y-95930924D01*
X107300679Y-95962000D01*
X107499321Y-95962000D01*
X107541560Y-95955310D01*
X107695520Y-95930924D01*
X107695523Y-95930924D01*
X107884437Y-95869542D01*
X108061425Y-95779362D01*
X108098716Y-95752268D01*
X107488585Y-95142137D01*
X107573694Y-95119333D01*
X107676306Y-95060090D01*
X107760090Y-94976306D01*
X107819333Y-94873694D01*
X107842138Y-94788585D01*
X108452268Y-95398715D01*
X108479362Y-95361425D01*
X108569542Y-95184437D01*
X108630924Y-94995523D01*
X108630924Y-94995520D01*
X108662000Y-94799321D01*
X108662000Y-94600678D01*
X108630924Y-94404479D01*
X108630924Y-94404476D01*
X108569542Y-94215562D01*
X108479358Y-94038567D01*
X108452268Y-94001283D01*
X107842137Y-94611414D01*
X107819333Y-94526306D01*
X107760090Y-94423694D01*
X107676306Y-94339910D01*
X107573694Y-94280667D01*
X107488584Y-94257861D01*
X108098715Y-93647730D01*
X108061432Y-93620641D01*
X107884437Y-93530457D01*
X107695522Y-93469075D01*
X107592129Y-93452699D01*
X107528995Y-93422769D01*
X107492064Y-93363458D01*
X107493062Y-93293595D01*
X107523845Y-93242547D01*
X110220480Y-90545913D01*
X110273207Y-90454587D01*
X110273207Y-90454586D01*
X110277271Y-90447548D01*
X110279359Y-90448754D01*
X110315507Y-90403893D01*
X110338776Y-90391185D01*
X110373914Y-90376632D01*
X110537782Y-90267139D01*
X110677139Y-90127782D01*
X110686643Y-90113558D01*
X110772398Y-89985217D01*
X110826010Y-89940412D01*
X110895335Y-89931705D01*
X110958362Y-89961859D01*
X110995082Y-90021302D01*
X110999500Y-90054108D01*
X110999500Y-96312690D01*
X110979815Y-96379729D01*
X110963181Y-96400371D01*
X110300000Y-97063552D01*
X110300000Y-97057339D01*
X110272741Y-96955606D01*
X110220080Y-96864394D01*
X110145606Y-96789920D01*
X110054394Y-96737259D01*
X109952661Y-96710000D01*
X109946446Y-96710000D01*
X110625922Y-96030524D01*
X110625921Y-96030523D01*
X110581359Y-95998147D01*
X110581350Y-95998141D01*
X110399031Y-95905244D01*
X110204417Y-95842009D01*
X110002317Y-95810000D01*
X109797683Y-95810000D01*
X109595582Y-95842009D01*
X109400968Y-95905244D01*
X109218644Y-95998143D01*
X109174077Y-96030523D01*
X109174077Y-96030524D01*
X109853554Y-96710000D01*
X109847339Y-96710000D01*
X109745606Y-96737259D01*
X109654394Y-96789920D01*
X109579920Y-96864394D01*
X109527259Y-96955606D01*
X109500000Y-97057339D01*
X109500000Y-97063553D01*
X108820524Y-96384077D01*
X108820523Y-96384077D01*
X108788143Y-96428644D01*
X108695244Y-96610968D01*
X108632009Y-96805582D01*
X108600000Y-97007682D01*
X108600000Y-97037582D01*
X108610087Y-97276008D01*
X108632009Y-97414417D01*
X108695244Y-97609031D01*
X108788141Y-97791350D01*
X108788147Y-97791359D01*
X108820523Y-97835921D01*
X108820524Y-97835922D01*
X109500000Y-97156446D01*
X109500000Y-97162661D01*
X109527259Y-97264394D01*
X109579920Y-97355606D01*
X109654394Y-97430080D01*
X109745606Y-97482741D01*
X109847339Y-97510000D01*
X109853553Y-97510000D01*
X109174076Y-98189474D01*
X109218650Y-98221859D01*
X109400968Y-98314755D01*
X109595582Y-98377990D01*
X109797683Y-98410000D01*
X110002317Y-98410000D01*
X110204417Y-98377990D01*
X110399031Y-98314755D01*
X110581349Y-98221859D01*
X110625921Y-98189474D01*
X109946447Y-97510000D01*
X109952661Y-97510000D01*
X110054394Y-97482741D01*
X110145606Y-97430080D01*
X110220080Y-97355606D01*
X110272741Y-97264394D01*
X110300000Y-97162661D01*
X110300000Y-97156447D01*
X110963181Y-97819628D01*
X110996666Y-97880951D01*
X110999500Y-97907309D01*
X110999500Y-99887111D01*
X110979815Y-99954150D01*
X110927011Y-99999905D01*
X110857853Y-100009849D01*
X110806610Y-99990214D01*
X110773918Y-99968370D01*
X110773907Y-99968364D01*
X110591839Y-99892950D01*
X110591829Y-99892947D01*
X110398543Y-99854500D01*
X110398541Y-99854500D01*
X110201459Y-99854500D01*
X110201457Y-99854500D01*
X110008170Y-99892947D01*
X110008160Y-99892950D01*
X109826092Y-99968364D01*
X109826079Y-99968371D01*
X109662218Y-100077860D01*
X109662214Y-100077863D01*
X109522863Y-100217214D01*
X109522860Y-100217218D01*
X109413371Y-100381079D01*
X109413364Y-100381092D01*
X109337950Y-100563160D01*
X109337947Y-100563170D01*
X109299500Y-100756456D01*
X109299500Y-100756459D01*
X109299500Y-100953541D01*
X109299500Y-100953543D01*
X109299499Y-100953543D01*
X109337947Y-101146829D01*
X109337950Y-101146839D01*
X109413364Y-101328907D01*
X109413371Y-101328920D01*
X109522860Y-101492781D01*
X109522863Y-101492785D01*
X109662214Y-101632136D01*
X109662218Y-101632139D01*
X109826079Y-101741628D01*
X109826092Y-101741635D01*
X109954400Y-101794781D01*
X110008165Y-101817051D01*
X110008169Y-101817051D01*
X110008170Y-101817052D01*
X110201456Y-101855500D01*
X110201459Y-101855500D01*
X110398543Y-101855500D01*
X110537550Y-101827849D01*
X110591835Y-101817051D01*
X110773914Y-101741632D01*
X110806609Y-101719785D01*
X110873285Y-101698908D01*
X110940666Y-101717392D01*
X110987356Y-101769370D01*
X110999500Y-101822888D01*
X110999500Y-111475500D01*
X110979815Y-111542539D01*
X110927011Y-111588294D01*
X110875500Y-111599500D01*
X92124500Y-111599500D01*
X92057461Y-111579815D01*
X92011706Y-111527011D01*
X92000500Y-111475500D01*
X92000500Y-109705513D01*
X93899500Y-109705513D01*
X93899500Y-109894486D01*
X93929059Y-110081118D01*
X93987454Y-110260836D01*
X94073240Y-110429199D01*
X94184310Y-110582073D01*
X94317927Y-110715690D01*
X94470801Y-110826760D01*
X94550347Y-110867290D01*
X94639163Y-110912545D01*
X94639165Y-110912545D01*
X94639168Y-110912547D01*
X94732218Y-110942781D01*
X94818881Y-110970940D01*
X95005514Y-111000500D01*
X95005519Y-111000500D01*
X95194486Y-111000500D01*
X95381118Y-110970940D01*
X95560832Y-110912547D01*
X95729199Y-110826760D01*
X95882073Y-110715690D01*
X96015690Y-110582073D01*
X96126760Y-110429199D01*
X96212547Y-110260832D01*
X96222698Y-110229590D01*
X96262131Y-110171919D01*
X96326489Y-110144720D01*
X96395336Y-110156632D01*
X96443729Y-110199020D01*
X96539373Y-110342161D01*
X96539376Y-110342165D01*
X96657837Y-110460626D01*
X96750494Y-110522537D01*
X96797137Y-110553703D01*
X96951918Y-110617816D01*
X97116228Y-110650499D01*
X97116232Y-110650500D01*
X97116233Y-110650500D01*
X97283768Y-110650500D01*
X97283769Y-110650499D01*
X97448082Y-110617816D01*
X97602863Y-110553703D01*
X97742162Y-110460626D01*
X97860626Y-110342162D01*
X97953703Y-110202863D01*
X98017816Y-110048082D01*
X98050500Y-109883767D01*
X98050500Y-109716233D01*
X98050499Y-109716228D01*
X98349500Y-109716228D01*
X98349500Y-109883771D01*
X98382182Y-110048074D01*
X98382184Y-110048082D01*
X98446295Y-110202860D01*
X98539373Y-110342162D01*
X98657837Y-110460626D01*
X98750494Y-110522537D01*
X98797137Y-110553703D01*
X98951918Y-110617816D01*
X99116228Y-110650499D01*
X99116232Y-110650500D01*
X99116233Y-110650500D01*
X99283768Y-110650500D01*
X99283769Y-110650499D01*
X99448082Y-110617816D01*
X99602863Y-110553703D01*
X99742162Y-110460626D01*
X99860626Y-110342162D01*
X99953703Y-110202863D01*
X100017816Y-110048082D01*
X100050500Y-109883767D01*
X100050500Y-109716233D01*
X100050499Y-109716228D01*
X100349500Y-109716228D01*
X100349500Y-109883771D01*
X100382182Y-110048074D01*
X100382184Y-110048082D01*
X100446295Y-110202860D01*
X100539373Y-110342162D01*
X100657837Y-110460626D01*
X100750494Y-110522537D01*
X100797137Y-110553703D01*
X100951918Y-110617816D01*
X101116228Y-110650499D01*
X101116232Y-110650500D01*
X101116233Y-110650500D01*
X101283768Y-110650500D01*
X101283769Y-110650499D01*
X101448082Y-110617816D01*
X101602863Y-110553703D01*
X101742162Y-110460626D01*
X101860626Y-110342162D01*
X101953703Y-110202863D01*
X101953703Y-110202862D01*
X101956270Y-110199021D01*
X102009882Y-110154215D01*
X102079207Y-110145508D01*
X102142234Y-110175662D01*
X102177301Y-110229590D01*
X102183905Y-110249914D01*
X102187454Y-110260836D01*
X102273240Y-110429199D01*
X102384310Y-110582073D01*
X102517927Y-110715690D01*
X102670801Y-110826760D01*
X102750347Y-110867290D01*
X102839163Y-110912545D01*
X102839165Y-110912545D01*
X102839168Y-110912547D01*
X102932218Y-110942781D01*
X103018881Y-110970940D01*
X103205514Y-111000500D01*
X103205519Y-111000500D01*
X103394486Y-111000500D01*
X103581118Y-110970940D01*
X103760832Y-110912547D01*
X103929199Y-110826760D01*
X104082073Y-110715690D01*
X104215690Y-110582073D01*
X104326760Y-110429199D01*
X104339832Y-110403543D01*
X107099499Y-110403543D01*
X107137947Y-110596829D01*
X107137950Y-110596839D01*
X107213364Y-110778907D01*
X107213371Y-110778920D01*
X107322860Y-110942781D01*
X107322863Y-110942785D01*
X107462214Y-111082136D01*
X107462218Y-111082139D01*
X107626079Y-111191628D01*
X107626092Y-111191635D01*
X107808160Y-111267049D01*
X107808165Y-111267051D01*
X107808169Y-111267051D01*
X107808170Y-111267052D01*
X108001456Y-111305500D01*
X108001459Y-111305500D01*
X108198543Y-111305500D01*
X108328582Y-111279632D01*
X108391835Y-111267051D01*
X108573914Y-111191632D01*
X108737782Y-111082139D01*
X108877139Y-110942782D01*
X108986632Y-110778914D01*
X109062051Y-110596835D01*
X109089145Y-110460626D01*
X109100500Y-110403543D01*
X109100500Y-110206456D01*
X109062052Y-110013170D01*
X109062051Y-110013169D01*
X109062051Y-110013165D01*
X109042871Y-109966859D01*
X108986635Y-109831092D01*
X108986628Y-109831079D01*
X108877139Y-109667218D01*
X108877136Y-109667214D01*
X108737785Y-109527863D01*
X108737781Y-109527860D01*
X108573920Y-109418371D01*
X108573907Y-109418364D01*
X108391839Y-109342950D01*
X108391829Y-109342947D01*
X108198543Y-109304500D01*
X108198541Y-109304500D01*
X108001459Y-109304500D01*
X108001457Y-109304500D01*
X107808170Y-109342947D01*
X107808160Y-109342950D01*
X107626092Y-109418364D01*
X107626079Y-109418371D01*
X107462218Y-109527860D01*
X107462214Y-109527863D01*
X107322863Y-109667214D01*
X107322860Y-109667218D01*
X107213371Y-109831079D01*
X107213364Y-109831092D01*
X107137950Y-110013160D01*
X107137947Y-110013170D01*
X107099500Y-110206456D01*
X107099500Y-110206459D01*
X107099500Y-110403541D01*
X107099500Y-110403543D01*
X107099499Y-110403543D01*
X104339832Y-110403543D01*
X104412547Y-110260832D01*
X104470940Y-110081118D01*
X104481703Y-110013165D01*
X104494166Y-109934474D01*
X105174076Y-109934474D01*
X105218650Y-109966859D01*
X105400968Y-110059755D01*
X105595582Y-110122990D01*
X105797683Y-110155000D01*
X106002317Y-110155000D01*
X106204417Y-110122990D01*
X106329228Y-110082436D01*
X106399031Y-110059755D01*
X106581349Y-109966859D01*
X106625921Y-109934474D01*
X106170711Y-109479264D01*
X106180070Y-109469905D01*
X106226148Y-109390095D01*
X106250000Y-109301078D01*
X106250000Y-108854999D01*
X106253553Y-108854999D01*
X106253553Y-108855001D01*
X106979474Y-109580922D01*
X106979474Y-109580921D01*
X107011859Y-109536349D01*
X107104755Y-109354031D01*
X107167990Y-109159417D01*
X107200000Y-108957317D01*
X107200000Y-108752682D01*
X107167990Y-108550582D01*
X107104755Y-108355968D01*
X107011859Y-108173650D01*
X106979474Y-108129077D01*
X106979474Y-108129076D01*
X106253553Y-108854999D01*
X106250000Y-108854999D01*
X106250000Y-108408922D01*
X106226148Y-108319905D01*
X106180070Y-108240095D01*
X106170710Y-108230735D01*
X106625922Y-107775524D01*
X106625921Y-107775523D01*
X106581359Y-107743147D01*
X106581350Y-107743141D01*
X106399031Y-107650244D01*
X106204417Y-107587009D01*
X106002317Y-107555000D01*
X105797683Y-107555000D01*
X105595582Y-107587009D01*
X105400968Y-107650244D01*
X105218644Y-107743143D01*
X105174077Y-107775523D01*
X105174077Y-107775524D01*
X105629289Y-108230735D01*
X105619930Y-108240095D01*
X105573852Y-108319905D01*
X105550000Y-108408922D01*
X105550000Y-109301078D01*
X105573852Y-109390095D01*
X105619930Y-109469905D01*
X105629288Y-109479263D01*
X105174076Y-109934474D01*
X104494166Y-109934474D01*
X104500500Y-109894486D01*
X104500500Y-109705513D01*
X104470940Y-109518881D01*
X104438281Y-109418368D01*
X104412547Y-109339168D01*
X104412545Y-109339165D01*
X104412545Y-109339163D01*
X104367290Y-109250347D01*
X104326760Y-109170801D01*
X104215690Y-109017927D01*
X104082073Y-108884310D01*
X104079422Y-108882384D01*
X104032304Y-108848149D01*
X104032281Y-108848134D01*
X103929199Y-108773240D01*
X103888852Y-108752682D01*
X104600000Y-108752682D01*
X104600000Y-108957317D01*
X104632009Y-109159417D01*
X104695244Y-109354031D01*
X104788141Y-109536350D01*
X104788147Y-109536359D01*
X104820523Y-109580921D01*
X104820524Y-109580922D01*
X105546446Y-108855001D01*
X105546446Y-108854999D01*
X104820524Y-108129077D01*
X104820523Y-108129077D01*
X104788143Y-108173644D01*
X104695244Y-108355968D01*
X104632009Y-108550582D01*
X104600000Y-108752682D01*
X103888852Y-108752682D01*
X103760836Y-108687454D01*
X103581118Y-108629059D01*
X103394486Y-108599500D01*
X103394481Y-108599500D01*
X103205519Y-108599500D01*
X103205514Y-108599500D01*
X103018881Y-108629059D01*
X102839163Y-108687454D01*
X102670800Y-108773240D01*
X102583579Y-108836610D01*
X102517927Y-108884310D01*
X102517925Y-108884312D01*
X102517924Y-108884312D01*
X102384312Y-109017924D01*
X102384312Y-109017925D01*
X102384310Y-109017927D01*
X102363698Y-109046297D01*
X102273240Y-109170800D01*
X102187455Y-109339162D01*
X102187453Y-109339167D01*
X102187453Y-109339168D01*
X102177301Y-109370409D01*
X102137864Y-109428083D01*
X102073505Y-109455280D01*
X102004659Y-109443365D01*
X101956270Y-109400979D01*
X101917495Y-109342949D01*
X101860626Y-109257838D01*
X101860625Y-109257837D01*
X101860623Y-109257834D01*
X101742162Y-109139373D01*
X101602860Y-109046295D01*
X101448082Y-108982184D01*
X101448074Y-108982182D01*
X101283771Y-108949500D01*
X101283767Y-108949500D01*
X101116233Y-108949500D01*
X101116228Y-108949500D01*
X100951925Y-108982182D01*
X100951917Y-108982184D01*
X100797139Y-109046295D01*
X100657837Y-109139373D01*
X100539373Y-109257837D01*
X100446295Y-109397139D01*
X100382184Y-109551917D01*
X100382182Y-109551925D01*
X100349500Y-109716228D01*
X100050499Y-109716228D01*
X100017816Y-109551918D01*
X99964969Y-109424336D01*
X99953704Y-109397139D01*
X99948997Y-109390095D01*
X99891805Y-109304500D01*
X99860626Y-109257837D01*
X99742162Y-109139373D01*
X99602860Y-109046295D01*
X99448082Y-108982184D01*
X99448074Y-108982182D01*
X99283771Y-108949500D01*
X99283767Y-108949500D01*
X99116233Y-108949500D01*
X99116228Y-108949500D01*
X98951925Y-108982182D01*
X98951917Y-108982184D01*
X98797139Y-109046295D01*
X98657837Y-109139373D01*
X98539373Y-109257837D01*
X98446295Y-109397139D01*
X98382184Y-109551917D01*
X98382182Y-109551925D01*
X98349500Y-109716228D01*
X98050499Y-109716228D01*
X98017816Y-109551918D01*
X97964969Y-109424336D01*
X97953704Y-109397139D01*
X97948997Y-109390095D01*
X97891805Y-109304500D01*
X97860626Y-109257837D01*
X97742162Y-109139373D01*
X97602860Y-109046295D01*
X97448082Y-108982184D01*
X97448074Y-108982182D01*
X97283771Y-108949500D01*
X97283767Y-108949500D01*
X97116233Y-108949500D01*
X97116228Y-108949500D01*
X96951925Y-108982182D01*
X96951917Y-108982184D01*
X96797139Y-109046295D01*
X96657837Y-109139373D01*
X96539376Y-109257834D01*
X96539373Y-109257838D01*
X96443729Y-109400979D01*
X96390117Y-109445784D01*
X96320791Y-109454491D01*
X96257764Y-109424336D01*
X96222698Y-109370409D01*
X96212547Y-109339168D01*
X96126760Y-109170801D01*
X96015690Y-109017927D01*
X95882073Y-108884310D01*
X95729199Y-108773240D01*
X95688852Y-108752682D01*
X95560836Y-108687454D01*
X95381118Y-108629059D01*
X95194486Y-108599500D01*
X95194481Y-108599500D01*
X95005519Y-108599500D01*
X95005514Y-108599500D01*
X94818881Y-108629059D01*
X94639163Y-108687454D01*
X94470800Y-108773240D01*
X94383579Y-108836610D01*
X94317927Y-108884310D01*
X94317925Y-108884312D01*
X94317924Y-108884312D01*
X94184312Y-109017924D01*
X94184312Y-109017925D01*
X94184310Y-109017927D01*
X94163698Y-109046297D01*
X94073240Y-109170800D01*
X93987454Y-109339163D01*
X93929059Y-109518881D01*
X93899500Y-109705513D01*
X92000500Y-109705513D01*
X92000500Y-107549500D01*
X92020185Y-107482461D01*
X92072989Y-107436706D01*
X92124500Y-107425500D01*
X93669750Y-107425500D01*
X93669751Y-107425499D01*
X93684568Y-107422552D01*
X93728229Y-107413868D01*
X93728229Y-107413867D01*
X93728231Y-107413867D01*
X93794552Y-107369552D01*
X93838867Y-107303231D01*
X93838867Y-107303229D01*
X93838868Y-107303229D01*
X93850499Y-107244752D01*
X93850500Y-107244750D01*
X93850500Y-106198543D01*
X94979499Y-106198543D01*
X95017947Y-106391829D01*
X95017950Y-106391839D01*
X95093364Y-106573907D01*
X95093371Y-106573920D01*
X95202860Y-106737781D01*
X95202863Y-106737785D01*
X95342214Y-106877136D01*
X95342218Y-106877139D01*
X95506079Y-106986628D01*
X95506092Y-106986635D01*
X95688160Y-107062049D01*
X95688165Y-107062051D01*
X95688169Y-107062051D01*
X95688170Y-107062052D01*
X95881456Y-107100500D01*
X95881459Y-107100500D01*
X96078543Y-107100500D01*
X96208582Y-107074632D01*
X96271835Y-107062051D01*
X96453914Y-106986632D01*
X96617782Y-106877139D01*
X96757139Y-106737782D01*
X96866632Y-106573914D01*
X96942051Y-106391835D01*
X96980500Y-106198541D01*
X96980500Y-106001459D01*
X96980500Y-106001456D01*
X96942052Y-105808170D01*
X96942051Y-105808169D01*
X96942051Y-105808165D01*
X96939639Y-105802342D01*
X96866635Y-105626092D01*
X96866628Y-105626079D01*
X96757139Y-105462218D01*
X96757136Y-105462214D01*
X96617785Y-105322863D01*
X96617781Y-105322860D01*
X96453920Y-105213371D01*
X96453907Y-105213364D01*
X96271839Y-105137950D01*
X96271829Y-105137947D01*
X96078543Y-105099500D01*
X96078541Y-105099500D01*
X95881459Y-105099500D01*
X95881457Y-105099500D01*
X95688170Y-105137947D01*
X95688160Y-105137950D01*
X95506092Y-105213364D01*
X95506079Y-105213371D01*
X95342218Y-105322860D01*
X95342214Y-105322863D01*
X95202863Y-105462214D01*
X95202860Y-105462218D01*
X95093371Y-105626079D01*
X95093364Y-105626092D01*
X95017950Y-105808160D01*
X95017947Y-105808170D01*
X94979500Y-106001456D01*
X94979500Y-106001459D01*
X94979500Y-106198541D01*
X94979500Y-106198543D01*
X94979499Y-106198543D01*
X93850500Y-106198543D01*
X93850500Y-105505249D01*
X93850499Y-105505247D01*
X93838868Y-105446770D01*
X93838867Y-105446769D01*
X93794552Y-105380447D01*
X93728230Y-105336132D01*
X93728229Y-105336131D01*
X93669752Y-105324500D01*
X93669748Y-105324500D01*
X93366048Y-105324500D01*
X93299009Y-105304815D01*
X93253254Y-105252011D01*
X93243310Y-105182853D01*
X93272335Y-105119297D01*
X93314264Y-105089061D01*
X93313879Y-105088306D01*
X93507554Y-104989622D01*
X93561716Y-104950270D01*
X93561717Y-104950270D01*
X92929409Y-104317962D01*
X92992993Y-104300925D01*
X93107007Y-104235099D01*
X93200099Y-104142007D01*
X93265925Y-104027993D01*
X93282962Y-103964409D01*
X93915270Y-104596717D01*
X93915270Y-104596716D01*
X93954622Y-104542554D01*
X94051095Y-104353217D01*
X94116757Y-104151130D01*
X94116757Y-104151127D01*
X94146132Y-103965666D01*
X94176061Y-103902531D01*
X94235373Y-103865600D01*
X94305235Y-103866598D01*
X94363468Y-103905208D01*
X94385645Y-103944105D01*
X94427207Y-104062883D01*
X94427208Y-104062884D01*
X94507849Y-104172150D01*
X94534247Y-104191632D01*
X94617117Y-104252793D01*
X94657864Y-104267051D01*
X94745298Y-104297646D01*
X94752323Y-104298304D01*
X94775733Y-104300500D01*
X96584266Y-104300499D01*
X96614700Y-104297646D01*
X96742883Y-104252793D01*
X96852150Y-104172150D01*
X96932793Y-104062883D01*
X96957608Y-103991966D01*
X96977646Y-103934702D01*
X96977646Y-103934700D01*
X96980500Y-103904267D01*
X96980499Y-102897648D01*
X101999500Y-102897648D01*
X101999500Y-103102351D01*
X102031522Y-103304534D01*
X102094781Y-103499223D01*
X102187715Y-103681613D01*
X102308028Y-103847213D01*
X102452786Y-103991971D01*
X102576890Y-104082136D01*
X102618390Y-104112287D01*
X102694618Y-104151127D01*
X102800776Y-104205218D01*
X102800778Y-104205218D01*
X102800781Y-104205220D01*
X102892739Y-104235099D01*
X102995465Y-104268477D01*
X103096557Y-104284488D01*
X103197648Y-104300500D01*
X103197649Y-104300500D01*
X103402351Y-104300500D01*
X103402352Y-104300500D01*
X103604534Y-104268477D01*
X103799219Y-104205220D01*
X103981610Y-104112287D01*
X104097632Y-104027993D01*
X104147213Y-103991971D01*
X104147215Y-103991968D01*
X104147219Y-103991966D01*
X104291966Y-103847219D01*
X104291968Y-103847215D01*
X104291971Y-103847213D01*
X104380809Y-103724936D01*
X104412287Y-103681610D01*
X104505220Y-103499219D01*
X104568477Y-103304534D01*
X104600500Y-103102352D01*
X104600500Y-102897648D01*
X104587735Y-102817052D01*
X104568477Y-102695465D01*
X104514019Y-102527861D01*
X104505220Y-102500781D01*
X104505218Y-102500778D01*
X104505218Y-102500776D01*
X104445382Y-102383343D01*
X104412287Y-102318390D01*
X104383022Y-102278110D01*
X104291971Y-102152786D01*
X104147213Y-102008028D01*
X103981613Y-101887715D01*
X103981612Y-101887714D01*
X103981610Y-101887713D01*
X103899571Y-101845912D01*
X103799223Y-101794781D01*
X103604534Y-101731522D01*
X103420371Y-101702354D01*
X103402352Y-101699500D01*
X103197648Y-101699500D01*
X103179635Y-101702353D01*
X102995465Y-101731522D01*
X102800776Y-101794781D01*
X102618386Y-101887715D01*
X102452786Y-102008028D01*
X102308028Y-102152786D01*
X102187715Y-102318386D01*
X102094781Y-102500776D01*
X102031522Y-102695465D01*
X101999500Y-102897648D01*
X96980499Y-102897648D01*
X96980499Y-102095734D01*
X96977646Y-102065300D01*
X96972266Y-102049926D01*
X96932793Y-101937117D01*
X96852150Y-101827849D01*
X96755419Y-101756459D01*
X96742883Y-101747207D01*
X96742881Y-101747206D01*
X96614701Y-101702353D01*
X96584270Y-101699500D01*
X94775739Y-101699500D01*
X94761751Y-101700811D01*
X94745300Y-101702354D01*
X94745297Y-101702354D01*
X94745296Y-101702355D01*
X94745294Y-101702355D01*
X94617117Y-101747206D01*
X94507849Y-101827849D01*
X94427206Y-101937118D01*
X94382353Y-102065297D01*
X94382353Y-102065299D01*
X94379500Y-102095729D01*
X94379500Y-103602198D01*
X94359815Y-103669237D01*
X94307011Y-103714992D01*
X94237853Y-103724936D01*
X94174297Y-103695911D01*
X94136523Y-103637133D01*
X94133027Y-103621595D01*
X94116758Y-103518873D01*
X94116757Y-103518869D01*
X94051095Y-103316782D01*
X93954624Y-103127449D01*
X93915270Y-103073282D01*
X93915269Y-103073282D01*
X93282962Y-103705590D01*
X93265925Y-103642007D01*
X93200099Y-103527993D01*
X93107007Y-103434901D01*
X92992993Y-103369075D01*
X92929407Y-103352036D01*
X93561716Y-102719728D01*
X93507550Y-102680375D01*
X93318217Y-102583904D01*
X93116129Y-102518242D01*
X92906246Y-102485000D01*
X92693754Y-102485000D01*
X92483872Y-102518242D01*
X92483869Y-102518242D01*
X92281782Y-102583904D01*
X92180795Y-102635360D01*
X92112125Y-102648256D01*
X92047385Y-102621979D01*
X92007128Y-102564873D01*
X92000500Y-102524875D01*
X92000500Y-96986255D01*
X92020185Y-96919216D01*
X92072989Y-96873461D01*
X92142147Y-96863517D01*
X92205703Y-96892542D01*
X92212181Y-96898574D01*
X94343181Y-99029574D01*
X94376666Y-99090897D01*
X94379500Y-99117255D01*
X94379500Y-100704260D01*
X94379501Y-100704266D01*
X94382354Y-100734700D01*
X94382354Y-100734702D01*
X94382355Y-100734703D01*
X94382355Y-100734705D01*
X94427206Y-100862882D01*
X94507849Y-100972150D01*
X94552655Y-101005218D01*
X94617117Y-101052793D01*
X94655978Y-101066391D01*
X94745298Y-101097646D01*
X94752323Y-101098304D01*
X94775733Y-101100500D01*
X96584266Y-101100499D01*
X96614700Y-101097646D01*
X96742883Y-101052793D01*
X96852150Y-100972150D01*
X96932793Y-100862883D01*
X96957608Y-100791966D01*
X96977646Y-100734702D01*
X96977646Y-100734700D01*
X96980500Y-100704267D01*
X96980499Y-98895734D01*
X96977646Y-98865300D01*
X96973722Y-98854087D01*
X96932793Y-98737117D01*
X96852150Y-98627849D01*
X96778123Y-98573215D01*
X96742883Y-98547207D01*
X96742881Y-98547206D01*
X96614701Y-98502353D01*
X96584271Y-98499500D01*
X96584267Y-98499500D01*
X94997255Y-98499500D01*
X94930216Y-98479815D01*
X94909574Y-98463181D01*
X92936819Y-96490426D01*
X92922115Y-96463498D01*
X92905523Y-96437680D01*
X92904631Y-96431479D01*
X92903334Y-96429103D01*
X92900500Y-96402745D01*
X92900500Y-83857619D01*
X92920185Y-83790580D01*
X92972989Y-83744825D01*
X93042147Y-83734881D01*
X93105703Y-83763906D01*
X93112181Y-83769938D01*
X95262723Y-85920480D01*
X95354048Y-85973207D01*
X95455909Y-86000500D01*
X95561363Y-86000500D01*
X97438957Y-86000500D01*
X97505996Y-86020185D01*
X97551751Y-86072989D01*
X97561695Y-86142147D01*
X97532670Y-86205703D01*
X97526638Y-86212181D01*
X97452380Y-86286438D01*
X97452377Y-86286441D01*
X97347042Y-86444087D01*
X97274488Y-86619248D01*
X97274486Y-86619256D01*
X97237500Y-86805197D01*
X97237500Y-86994802D01*
X97274486Y-87180743D01*
X97274488Y-87180751D01*
X97347042Y-87355912D01*
X97452377Y-87513558D01*
X97586441Y-87647622D01*
X97691300Y-87717686D01*
X97744085Y-87752956D01*
X97919249Y-87825512D01*
X98057221Y-87852956D01*
X98105197Y-87862499D01*
X98105201Y-87862500D01*
X98105202Y-87862500D01*
X98294799Y-87862500D01*
X98294800Y-87862499D01*
X98480751Y-87825512D01*
X98655915Y-87752956D01*
X98813558Y-87647622D01*
X98947622Y-87513558D01*
X99052956Y-87355915D01*
X99125512Y-87180751D01*
X99162500Y-86994798D01*
X99162500Y-86805202D01*
X99125512Y-86619249D01*
X99052956Y-86444085D01*
X99014439Y-86386441D01*
X98947622Y-86286441D01*
X98873362Y-86212181D01*
X98839877Y-86150858D01*
X98844861Y-86081166D01*
X98886733Y-86025233D01*
X98952197Y-86000816D01*
X98961043Y-86000500D01*
X103052725Y-86000500D01*
X103052727Y-86000500D01*
X103154588Y-85973207D01*
X103245913Y-85920480D01*
X104120480Y-85045913D01*
X104173207Y-84954588D01*
X104200500Y-84852727D01*
X104200500Y-84837308D01*
X104220185Y-84770269D01*
X104236819Y-84749627D01*
X104597861Y-84388584D01*
X104620667Y-84473694D01*
X104679910Y-84576306D01*
X104763694Y-84660090D01*
X104866306Y-84719333D01*
X104951414Y-84742137D01*
X104341283Y-85352268D01*
X104341283Y-85352269D01*
X104378567Y-85379358D01*
X104555562Y-85469542D01*
X104744477Y-85530924D01*
X104940679Y-85562000D01*
X105139321Y-85562000D01*
X105335520Y-85530924D01*
X105335523Y-85530924D01*
X105524437Y-85469542D01*
X105701425Y-85379362D01*
X105738716Y-85352268D01*
X105128585Y-84742137D01*
X105213694Y-84719333D01*
X105316306Y-84660090D01*
X105400090Y-84576306D01*
X105459333Y-84473694D01*
X105482138Y-84388585D01*
X106092268Y-84998715D01*
X106119362Y-84961425D01*
X106209542Y-84784437D01*
X106270924Y-84595523D01*
X106270924Y-84595520D01*
X106302000Y-84399321D01*
X106302000Y-84200678D01*
X106270924Y-84004479D01*
X106270924Y-84004476D01*
X106215310Y-83833314D01*
X106213315Y-83763473D01*
X106249395Y-83703640D01*
X106312096Y-83672812D01*
X106381510Y-83680777D01*
G37*
G04 #@! TD.AperFunction*
G04 #@! TA.AperFunction,Conductor*
G36*
X103721039Y-71519685D02*
G01*
X103766794Y-71572489D01*
X103778000Y-71624000D01*
X103778000Y-71719321D01*
X103809075Y-71915520D01*
X103809075Y-71915523D01*
X103870457Y-72104437D01*
X103960641Y-72281432D01*
X103987730Y-72318715D01*
X104597861Y-71708584D01*
X104620667Y-71793694D01*
X104679910Y-71896306D01*
X104763694Y-71980090D01*
X104866306Y-72039333D01*
X104951413Y-72062137D01*
X104341283Y-72672268D01*
X104341283Y-72672269D01*
X104378567Y-72699358D01*
X104555562Y-72789542D01*
X104744477Y-72850924D01*
X104940679Y-72882000D01*
X105139321Y-72882000D01*
X105335520Y-72850924D01*
X105335523Y-72850924D01*
X105524437Y-72789542D01*
X105701432Y-72699358D01*
X105802614Y-72625845D01*
X105868420Y-72602365D01*
X105936474Y-72618190D01*
X105985169Y-72668296D01*
X105999500Y-72726163D01*
X105999500Y-76132744D01*
X105979815Y-76199783D01*
X105963181Y-76220425D01*
X104626741Y-77556864D01*
X104565418Y-77590349D01*
X104499217Y-77586608D01*
X104496187Y-77585580D01*
X104496183Y-77585579D01*
X104496181Y-77585578D01*
X104369014Y-77551503D01*
X104369009Y-77551502D01*
X104369007Y-77551502D01*
X104315832Y-77544500D01*
X104315826Y-77544500D01*
X103750000Y-77544500D01*
X103749995Y-77544500D01*
X103704272Y-77549651D01*
X103659643Y-77571144D01*
X103590701Y-77582495D01*
X103553659Y-77566951D01*
X103551752Y-77570913D01*
X103539164Y-77564851D01*
X103450004Y-77544500D01*
X103450000Y-77544500D01*
X102884174Y-77544500D01*
X102884167Y-77544500D01*
X102830992Y-77551502D01*
X102830986Y-77551503D01*
X102703811Y-77585580D01*
X102654268Y-77606101D01*
X102654254Y-77606108D01*
X102540240Y-77671934D01*
X102497683Y-77704590D01*
X102404590Y-77797683D01*
X102371934Y-77840240D01*
X102306108Y-77954254D01*
X102306101Y-77954268D01*
X102285580Y-78003811D01*
X102251503Y-78130986D01*
X102251502Y-78130992D01*
X102244500Y-78184167D01*
X102244500Y-78815832D01*
X102251028Y-78865410D01*
X102251503Y-78869014D01*
X102269744Y-78937090D01*
X102285580Y-78996188D01*
X102306101Y-79045731D01*
X102306108Y-79045745D01*
X102371934Y-79159759D01*
X102391988Y-79185893D01*
X102404591Y-79202317D01*
X102497683Y-79295409D01*
X102500980Y-79297939D01*
X102542186Y-79354362D01*
X102549500Y-79396319D01*
X102549500Y-80637997D01*
X102555773Y-80661408D01*
X102554110Y-80731258D01*
X102514947Y-80789120D01*
X102450718Y-80816623D01*
X102435998Y-80817500D01*
X102405197Y-80817500D01*
X102219256Y-80854486D01*
X102219248Y-80854488D01*
X102044087Y-80927042D01*
X101886441Y-81032377D01*
X101752377Y-81166441D01*
X101647042Y-81324087D01*
X101574488Y-81499248D01*
X101574486Y-81499256D01*
X101537500Y-81685197D01*
X101537500Y-81874802D01*
X101574486Y-82060743D01*
X101574488Y-82060751D01*
X101647042Y-82235912D01*
X101752377Y-82393558D01*
X101886441Y-82527622D01*
X101930391Y-82556988D01*
X102044085Y-82632956D01*
X102219249Y-82705512D01*
X102405197Y-82742499D01*
X102405201Y-82742500D01*
X102405202Y-82742500D01*
X102594799Y-82742500D01*
X102594800Y-82742499D01*
X102780751Y-82705512D01*
X102955915Y-82632956D01*
X103113558Y-82527622D01*
X103133850Y-82507330D01*
X103187819Y-82453362D01*
X103249142Y-82419877D01*
X103318834Y-82424861D01*
X103374767Y-82466733D01*
X103399184Y-82532197D01*
X103399500Y-82541043D01*
X103399500Y-83538957D01*
X103379815Y-83605996D01*
X103327011Y-83651751D01*
X103257853Y-83661695D01*
X103194297Y-83632670D01*
X103187819Y-83626638D01*
X103113558Y-83552377D01*
X102955912Y-83447042D01*
X102780751Y-83374488D01*
X102780743Y-83374486D01*
X102594802Y-83337500D01*
X102594798Y-83337500D01*
X102405202Y-83337500D01*
X102405197Y-83337500D01*
X102218888Y-83374559D01*
X102149296Y-83368332D01*
X102107016Y-83340623D01*
X100922694Y-82156301D01*
X100889209Y-82094978D01*
X100888758Y-82044431D01*
X100922500Y-81874798D01*
X100922500Y-81685202D01*
X100885512Y-81499249D01*
X100829392Y-81363766D01*
X100812957Y-81324087D01*
X100707622Y-81166441D01*
X100573558Y-81032377D01*
X100415912Y-80927042D01*
X100240751Y-80854488D01*
X100240743Y-80854486D01*
X100054802Y-80817500D01*
X100054798Y-80817500D01*
X99865202Y-80817500D01*
X99865197Y-80817500D01*
X99679256Y-80854486D01*
X99679248Y-80854488D01*
X99504087Y-80927042D01*
X99346441Y-81032377D01*
X99212377Y-81166441D01*
X99107042Y-81324087D01*
X99034488Y-81499248D01*
X99034486Y-81499256D01*
X98997500Y-81685197D01*
X98997500Y-81874802D01*
X99034486Y-82060743D01*
X99034488Y-82060751D01*
X99107042Y-82235912D01*
X99212377Y-82393558D01*
X99346441Y-82527622D01*
X99390391Y-82556988D01*
X99504085Y-82632956D01*
X99679249Y-82705512D01*
X99865197Y-82742499D01*
X99865201Y-82742500D01*
X99865202Y-82742500D01*
X100054799Y-82742500D01*
X100054800Y-82742499D01*
X100240751Y-82705512D01*
X100240768Y-82705504D01*
X100245092Y-82704194D01*
X100314959Y-82703565D01*
X100368778Y-82735171D01*
X101540623Y-83907016D01*
X101574108Y-83968339D01*
X101574559Y-84018888D01*
X101537500Y-84205197D01*
X101537500Y-84394802D01*
X101574486Y-84580743D01*
X101574488Y-84580751D01*
X101647042Y-84755912D01*
X101752377Y-84913558D01*
X101826638Y-84987819D01*
X101860123Y-85049142D01*
X101855139Y-85118834D01*
X101813267Y-85174767D01*
X101747803Y-85199184D01*
X101738957Y-85199500D01*
X100721043Y-85199500D01*
X100654004Y-85179815D01*
X100608249Y-85127011D01*
X100598305Y-85057853D01*
X100627330Y-84994297D01*
X100633362Y-84987819D01*
X100707619Y-84913561D01*
X100707622Y-84913558D01*
X100725007Y-84887540D01*
X100812956Y-84755915D01*
X100885512Y-84580751D01*
X100922500Y-84394798D01*
X100922500Y-84205202D01*
X100885512Y-84019249D01*
X100812956Y-83844085D01*
X100777205Y-83790580D01*
X100707622Y-83686441D01*
X100573558Y-83552377D01*
X100415912Y-83447042D01*
X100240751Y-83374488D01*
X100240743Y-83374486D01*
X100054802Y-83337500D01*
X100054798Y-83337500D01*
X99865202Y-83337500D01*
X99865197Y-83337500D01*
X99678888Y-83374559D01*
X99609296Y-83368332D01*
X99567016Y-83340623D01*
X98382694Y-82156301D01*
X98349209Y-82094978D01*
X98348758Y-82044431D01*
X98382500Y-81874798D01*
X98382500Y-81685202D01*
X98345512Y-81499249D01*
X98289392Y-81363766D01*
X98272957Y-81324087D01*
X98167622Y-81166441D01*
X98033558Y-81032377D01*
X97875912Y-80927042D01*
X97700751Y-80854488D01*
X97700743Y-80854486D01*
X97514802Y-80817500D01*
X97514798Y-80817500D01*
X97325202Y-80817500D01*
X97325197Y-80817500D01*
X97139256Y-80854486D01*
X97139248Y-80854488D01*
X96964087Y-80927042D01*
X96806441Y-81032377D01*
X96672377Y-81166441D01*
X96567042Y-81324087D01*
X96494488Y-81499248D01*
X96494486Y-81499256D01*
X96457500Y-81685197D01*
X96457500Y-81874802D01*
X96494486Y-82060743D01*
X96494488Y-82060751D01*
X96567042Y-82235912D01*
X96672377Y-82393558D01*
X96806441Y-82527622D01*
X96850391Y-82556988D01*
X96964085Y-82632956D01*
X97139249Y-82705512D01*
X97325197Y-82742499D01*
X97325201Y-82742500D01*
X97325202Y-82742500D01*
X97514799Y-82742500D01*
X97514800Y-82742499D01*
X97700751Y-82705512D01*
X97700768Y-82705504D01*
X97705092Y-82704194D01*
X97774959Y-82703565D01*
X97828778Y-82735171D01*
X99000623Y-83907016D01*
X99034108Y-83968339D01*
X99034559Y-84018888D01*
X98997500Y-84205197D01*
X98997500Y-84394802D01*
X99034486Y-84580743D01*
X99034488Y-84580751D01*
X99107042Y-84755912D01*
X99212377Y-84913558D01*
X99286638Y-84987819D01*
X99320123Y-85049142D01*
X99315139Y-85118834D01*
X99273267Y-85174767D01*
X99207803Y-85199184D01*
X99198957Y-85199500D01*
X98181043Y-85199500D01*
X98114004Y-85179815D01*
X98068249Y-85127011D01*
X98058305Y-85057853D01*
X98087330Y-84994297D01*
X98093362Y-84987819D01*
X98167619Y-84913561D01*
X98167622Y-84913558D01*
X98185007Y-84887540D01*
X98272956Y-84755915D01*
X98345512Y-84580751D01*
X98382500Y-84394798D01*
X98382500Y-84205202D01*
X98345512Y-84019249D01*
X98272956Y-83844085D01*
X98237205Y-83790580D01*
X98167622Y-83686441D01*
X98033558Y-83552377D01*
X97875912Y-83447042D01*
X97700751Y-83374488D01*
X97700743Y-83374486D01*
X97514802Y-83337500D01*
X97514798Y-83337500D01*
X97325202Y-83337500D01*
X97325197Y-83337500D01*
X97139256Y-83374486D01*
X97139248Y-83374488D01*
X96964087Y-83447042D01*
X96806441Y-83552377D01*
X96672377Y-83686441D01*
X96567042Y-83844087D01*
X96494488Y-84019248D01*
X96494486Y-84019256D01*
X96457500Y-84205197D01*
X96457500Y-84394802D01*
X96494486Y-84580743D01*
X96494488Y-84580751D01*
X96567042Y-84755912D01*
X96672377Y-84913558D01*
X96746638Y-84987819D01*
X96780123Y-85049142D01*
X96775139Y-85118834D01*
X96733267Y-85174767D01*
X96667803Y-85199184D01*
X96658957Y-85199500D01*
X95725891Y-85199500D01*
X95658852Y-85179815D01*
X95638210Y-85163181D01*
X95311239Y-84836210D01*
X95277754Y-84774887D01*
X95282738Y-84705195D01*
X95324610Y-84649262D01*
X95336920Y-84641142D01*
X95407314Y-84600500D01*
X95500500Y-84507314D01*
X95566392Y-84393186D01*
X95600500Y-84265892D01*
X95600500Y-84134108D01*
X95566392Y-84006814D01*
X95555968Y-83988760D01*
X95517113Y-83921460D01*
X95500500Y-83859460D01*
X95500500Y-79237254D01*
X95520185Y-79170215D01*
X95536814Y-79149578D01*
X102107017Y-72579374D01*
X102168338Y-72545891D01*
X102218887Y-72545440D01*
X102219249Y-72545512D01*
X102405199Y-72582499D01*
X102405201Y-72582500D01*
X102405202Y-72582500D01*
X102594799Y-72582500D01*
X102594800Y-72582499D01*
X102780751Y-72545512D01*
X102955915Y-72472956D01*
X103113558Y-72367622D01*
X103247622Y-72233558D01*
X103352956Y-72075915D01*
X103425512Y-71900751D01*
X103462500Y-71714798D01*
X103462500Y-71624000D01*
X103465050Y-71615314D01*
X103463762Y-71606353D01*
X103474740Y-71582312D01*
X103482185Y-71556961D01*
X103489025Y-71551033D01*
X103492787Y-71542797D01*
X103515021Y-71528507D01*
X103534989Y-71511206D01*
X103545503Y-71508918D01*
X103551565Y-71505023D01*
X103586500Y-71500000D01*
X103654000Y-71500000D01*
X103721039Y-71519685D01*
G37*
G04 #@! TD.AperFunction*
G04 #@! TA.AperFunction,Conductor*
G36*
X93561039Y-71519685D02*
G01*
X93606794Y-71572489D01*
X93618000Y-71624000D01*
X93618000Y-71719321D01*
X93649075Y-71915520D01*
X93649075Y-71915523D01*
X93710457Y-72104437D01*
X93800641Y-72281432D01*
X93827730Y-72318715D01*
X94437861Y-71708584D01*
X94460667Y-71793694D01*
X94519910Y-71896306D01*
X94603694Y-71980090D01*
X94706306Y-72039333D01*
X94791414Y-72062137D01*
X94181283Y-72672268D01*
X94181283Y-72672269D01*
X94218567Y-72699358D01*
X94395562Y-72789542D01*
X94584477Y-72850924D01*
X94780679Y-72882000D01*
X94979321Y-72882000D01*
X95175520Y-72850924D01*
X95175523Y-72850924D01*
X95364437Y-72789542D01*
X95541425Y-72699362D01*
X95578716Y-72672268D01*
X94968585Y-72062137D01*
X95053694Y-72039333D01*
X95156306Y-71980090D01*
X95240090Y-71896306D01*
X95299333Y-71793694D01*
X95322138Y-71708584D01*
X95932268Y-72318715D01*
X95959362Y-72281425D01*
X96049542Y-72104437D01*
X96110924Y-71915523D01*
X96110924Y-71915520D01*
X96142000Y-71719321D01*
X96142000Y-71624000D01*
X96144550Y-71615314D01*
X96143262Y-71606353D01*
X96154240Y-71582312D01*
X96161685Y-71556961D01*
X96168525Y-71551033D01*
X96172287Y-71542797D01*
X96194521Y-71528507D01*
X96214489Y-71511206D01*
X96225003Y-71508918D01*
X96231065Y-71505023D01*
X96266000Y-71500000D01*
X96333500Y-71500000D01*
X96400539Y-71519685D01*
X96446294Y-71572489D01*
X96457500Y-71624000D01*
X96457500Y-71714802D01*
X96494486Y-71900743D01*
X96494488Y-71900751D01*
X96567042Y-72075912D01*
X96672377Y-72233558D01*
X96806441Y-72367622D01*
X96887363Y-72421692D01*
X96964085Y-72472956D01*
X97139249Y-72545512D01*
X97325197Y-72582499D01*
X97325201Y-72582500D01*
X97325202Y-72582500D01*
X97514799Y-72582500D01*
X97514800Y-72582499D01*
X97700751Y-72545512D01*
X97875915Y-72472956D01*
X98033558Y-72367622D01*
X98167622Y-72233558D01*
X98272956Y-72075915D01*
X98345512Y-71900751D01*
X98382500Y-71714798D01*
X98382500Y-71624000D01*
X98402185Y-71556961D01*
X98454989Y-71511206D01*
X98506500Y-71500000D01*
X98873500Y-71500000D01*
X98940539Y-71519685D01*
X98986294Y-71572489D01*
X98997500Y-71624000D01*
X98997500Y-71714802D01*
X99034486Y-71900743D01*
X99034488Y-71900751D01*
X99107042Y-72075912D01*
X99212377Y-72233558D01*
X99346441Y-72367622D01*
X99427363Y-72421692D01*
X99504085Y-72472956D01*
X99679249Y-72545512D01*
X99865197Y-72582499D01*
X99865201Y-72582500D01*
X99865202Y-72582500D01*
X100054799Y-72582500D01*
X100054800Y-72582499D01*
X100240751Y-72545512D01*
X100415915Y-72472956D01*
X100573558Y-72367622D01*
X100707622Y-72233558D01*
X100812956Y-72075915D01*
X100885512Y-71900751D01*
X100922500Y-71714798D01*
X100922500Y-71624000D01*
X100942185Y-71556961D01*
X100994989Y-71511206D01*
X101046500Y-71500000D01*
X101413500Y-71500000D01*
X101480539Y-71519685D01*
X101526294Y-71572489D01*
X101537500Y-71624000D01*
X101537500Y-71714802D01*
X101574559Y-71901110D01*
X101568332Y-71970702D01*
X101540623Y-72012982D01*
X94779522Y-78774084D01*
X94779520Y-78774087D01*
X94726793Y-78865412D01*
X94725828Y-78869014D01*
X94707588Y-78937084D01*
X94707588Y-78937087D01*
X94699500Y-78967273D01*
X94699500Y-78967276D01*
X94699500Y-83859460D01*
X94695349Y-83874949D01*
X94696004Y-83888697D01*
X94682886Y-83921462D01*
X94658856Y-83963081D01*
X94608288Y-84011296D01*
X94539680Y-84024517D01*
X94474816Y-83998548D01*
X94463789Y-83988760D01*
X92936819Y-82461790D01*
X92903334Y-82400467D01*
X92900500Y-82374109D01*
X92900500Y-82140539D01*
X92917112Y-82078540D01*
X92966392Y-81993186D01*
X93000500Y-81865892D01*
X93000500Y-81734108D01*
X92966392Y-81606814D01*
X92900500Y-81492686D01*
X92807314Y-81399500D01*
X92750250Y-81366554D01*
X92693187Y-81333608D01*
X92629539Y-81316554D01*
X92565892Y-81299500D01*
X92434108Y-81299500D01*
X92306814Y-81333608D01*
X92306813Y-81333608D01*
X92306811Y-81333609D01*
X92306810Y-81333609D01*
X92186500Y-81403071D01*
X92118600Y-81419544D01*
X92052573Y-81396692D01*
X92009382Y-81341770D01*
X92000500Y-81295684D01*
X92000500Y-71624000D01*
X92020185Y-71556961D01*
X92072989Y-71511206D01*
X92124500Y-71500000D01*
X93494000Y-71500000D01*
X93561039Y-71519685D01*
G37*
G04 #@! TD.AperFunction*
G04 #@! TA.AperFunction,Conductor*
G36*
X109435996Y-47620185D02*
G01*
X109481751Y-47672989D01*
X109491695Y-47742147D01*
X109462670Y-47805703D01*
X109456638Y-47812181D01*
X109372380Y-47896438D01*
X109372377Y-47896441D01*
X109267042Y-48054087D01*
X109194488Y-48229248D01*
X109194486Y-48229256D01*
X109157500Y-48415197D01*
X109157500Y-48604802D01*
X109194486Y-48790743D01*
X109194488Y-48790751D01*
X109267042Y-48965912D01*
X109372377Y-49123558D01*
X109506441Y-49257622D01*
X109611300Y-49327686D01*
X109664085Y-49362956D01*
X109839249Y-49435512D01*
X110025197Y-49472499D01*
X110025201Y-49472500D01*
X110025202Y-49472500D01*
X110214799Y-49472500D01*
X110214800Y-49472499D01*
X110400751Y-49435512D01*
X110575915Y-49362956D01*
X110733558Y-49257622D01*
X110733561Y-49257619D01*
X110787819Y-49203362D01*
X110849142Y-49169877D01*
X110918834Y-49174861D01*
X110974767Y-49216733D01*
X110999184Y-49282197D01*
X110999500Y-49291043D01*
X110999500Y-49885712D01*
X110979815Y-49952751D01*
X110927011Y-49998506D01*
X110857853Y-50008450D01*
X110802616Y-49986031D01*
X110781435Y-49970642D01*
X110604437Y-49880457D01*
X110415522Y-49819075D01*
X110219321Y-49788000D01*
X110020679Y-49788000D01*
X109824479Y-49819075D01*
X109824476Y-49819075D01*
X109635562Y-49880457D01*
X109458564Y-49970643D01*
X109421283Y-49997729D01*
X109421282Y-49997730D01*
X110031414Y-50607862D01*
X109946306Y-50630667D01*
X109843694Y-50689910D01*
X109759910Y-50773694D01*
X109700667Y-50876306D01*
X109677861Y-50961414D01*
X109067730Y-50351282D01*
X109067729Y-50351283D01*
X109040643Y-50388564D01*
X108950457Y-50565562D01*
X108889075Y-50754476D01*
X108889075Y-50754479D01*
X108858000Y-50950678D01*
X108858000Y-51149321D01*
X108889075Y-51345520D01*
X108889075Y-51345523D01*
X108950457Y-51534437D01*
X109040641Y-51711432D01*
X109067730Y-51748715D01*
X109067731Y-51748716D01*
X109677861Y-51138585D01*
X109700667Y-51223694D01*
X109759910Y-51326306D01*
X109843694Y-51410090D01*
X109946306Y-51469333D01*
X110031413Y-51492137D01*
X109421283Y-52102268D01*
X109421283Y-52102269D01*
X109458567Y-52129358D01*
X109635562Y-52219542D01*
X109824477Y-52280924D01*
X110020679Y-52312000D01*
X110219321Y-52312000D01*
X110415520Y-52280924D01*
X110415523Y-52280924D01*
X110604437Y-52219542D01*
X110781436Y-52129356D01*
X110802614Y-52113970D01*
X110868420Y-52090489D01*
X110936474Y-52106314D01*
X110985169Y-52156419D01*
X110999500Y-52214287D01*
X110999500Y-52808957D01*
X110979815Y-52875996D01*
X110927011Y-52921751D01*
X110857853Y-52931695D01*
X110794297Y-52902670D01*
X110787819Y-52896638D01*
X110733558Y-52842377D01*
X110575912Y-52737042D01*
X110400751Y-52664488D01*
X110400743Y-52664486D01*
X110214802Y-52627500D01*
X110214798Y-52627500D01*
X110025202Y-52627500D01*
X110025197Y-52627500D01*
X109839256Y-52664486D01*
X109839248Y-52664488D01*
X109664087Y-52737042D01*
X109506441Y-52842377D01*
X109372377Y-52976441D01*
X109267044Y-53134084D01*
X109241778Y-53195078D01*
X109227444Y-53212863D01*
X109216981Y-53233171D01*
X109200850Y-53245862D01*
X109197935Y-53249480D01*
X109189243Y-53254995D01*
X109185269Y-53257290D01*
X109183713Y-53258189D01*
X109177881Y-53261555D01*
X109164087Y-53269519D01*
X104779522Y-57654084D01*
X104779518Y-57654090D01*
X104726792Y-57745412D01*
X104726793Y-57745413D01*
X104699500Y-57847273D01*
X104699500Y-64014791D01*
X104679815Y-64081830D01*
X104627011Y-64127585D01*
X104607602Y-64134563D01*
X104603839Y-64135571D01*
X104603824Y-64135576D01*
X104554260Y-64156105D01*
X104554254Y-64156108D01*
X104440240Y-64221934D01*
X104397683Y-64254590D01*
X104304590Y-64347683D01*
X104271934Y-64390240D01*
X104206108Y-64504254D01*
X104206101Y-64504268D01*
X104185580Y-64553811D01*
X104151503Y-64680986D01*
X104151502Y-64680992D01*
X104144500Y-64734167D01*
X104144500Y-65300004D01*
X104149651Y-65345728D01*
X104171144Y-65390356D01*
X104182496Y-65459297D01*
X104166943Y-65496339D01*
X104170913Y-65498251D01*
X104164850Y-65510839D01*
X104144500Y-65599995D01*
X104144500Y-65976000D01*
X104124815Y-66043039D01*
X104072011Y-66088794D01*
X104020500Y-66100000D01*
X95925006Y-66100000D01*
X95857967Y-66080315D01*
X95812212Y-66027511D01*
X95806347Y-66012002D01*
X95805513Y-66009255D01*
X95805512Y-66009249D01*
X95732956Y-65834085D01*
X95697686Y-65781300D01*
X95627622Y-65676441D01*
X95493558Y-65542377D01*
X95335912Y-65437042D01*
X95160751Y-65364488D01*
X95160743Y-65364486D01*
X94974802Y-65327500D01*
X94974798Y-65327500D01*
X94785202Y-65327500D01*
X94785197Y-65327500D01*
X94599256Y-65364486D01*
X94599248Y-65364488D01*
X94424087Y-65437042D01*
X94266441Y-65542377D01*
X94132377Y-65676441D01*
X94027042Y-65834087D01*
X93954488Y-66009248D01*
X93953653Y-66012002D01*
X93952823Y-66013266D01*
X93952157Y-66014877D01*
X93951851Y-66014750D01*
X93915352Y-66070438D01*
X93851538Y-66098891D01*
X93834994Y-66100000D01*
X92124500Y-66100000D01*
X92057461Y-66080315D01*
X92011706Y-66027511D01*
X92000500Y-65976000D01*
X92000500Y-63655197D01*
X93957500Y-63655197D01*
X93957500Y-63844802D01*
X93994486Y-64030743D01*
X93994488Y-64030751D01*
X94067042Y-64205912D01*
X94172377Y-64363558D01*
X94306441Y-64497622D01*
X94411300Y-64567686D01*
X94464085Y-64602956D01*
X94639249Y-64675512D01*
X94825197Y-64712499D01*
X94825201Y-64712500D01*
X94825202Y-64712500D01*
X95014799Y-64712500D01*
X95014800Y-64712499D01*
X95200751Y-64675512D01*
X95375915Y-64602956D01*
X95533558Y-64497622D01*
X95667622Y-64363558D01*
X95772956Y-64205915D01*
X95845512Y-64030751D01*
X95882500Y-63844798D01*
X95882500Y-63655202D01*
X95845512Y-63469249D01*
X95772956Y-63294085D01*
X95737686Y-63241300D01*
X95667622Y-63136441D01*
X95533558Y-63002377D01*
X95375912Y-62897042D01*
X95200751Y-62824488D01*
X95200743Y-62824486D01*
X95014802Y-62787500D01*
X95014798Y-62787500D01*
X94825202Y-62787500D01*
X94825197Y-62787500D01*
X94639256Y-62824486D01*
X94639248Y-62824488D01*
X94464087Y-62897042D01*
X94306441Y-63002377D01*
X94172377Y-63136441D01*
X94067042Y-63294087D01*
X93994488Y-63469248D01*
X93994486Y-63469256D01*
X93957500Y-63655197D01*
X92000500Y-63655197D01*
X92000500Y-61115197D01*
X93957500Y-61115197D01*
X93957500Y-61304802D01*
X93994486Y-61490743D01*
X93994488Y-61490751D01*
X94067042Y-61665912D01*
X94172377Y-61823558D01*
X94306441Y-61957622D01*
X94411300Y-62027686D01*
X94464085Y-62062956D01*
X94639249Y-62135512D01*
X94825197Y-62172499D01*
X94825201Y-62172500D01*
X94825202Y-62172500D01*
X95014799Y-62172500D01*
X95014800Y-62172499D01*
X95200751Y-62135512D01*
X95375915Y-62062956D01*
X95533558Y-61957622D01*
X95667622Y-61823558D01*
X95772956Y-61665915D01*
X95845512Y-61490751D01*
X95882500Y-61304798D01*
X95882500Y-61115202D01*
X95845512Y-60929249D01*
X95772956Y-60754085D01*
X95737686Y-60701300D01*
X95667622Y-60596441D01*
X95533558Y-60462377D01*
X95375912Y-60357042D01*
X95200751Y-60284488D01*
X95200743Y-60284486D01*
X95014802Y-60247500D01*
X95014798Y-60247500D01*
X94825202Y-60247500D01*
X94825197Y-60247500D01*
X94639256Y-60284486D01*
X94639248Y-60284488D01*
X94464087Y-60357042D01*
X94306441Y-60462377D01*
X94172377Y-60596441D01*
X94067042Y-60754087D01*
X93994488Y-60929248D01*
X93994486Y-60929256D01*
X93957500Y-61115197D01*
X92000500Y-61115197D01*
X92000500Y-58575197D01*
X93957500Y-58575197D01*
X93957500Y-58764802D01*
X93994486Y-58950743D01*
X93994488Y-58950751D01*
X94067042Y-59125912D01*
X94172377Y-59283558D01*
X94306441Y-59417622D01*
X94411300Y-59487686D01*
X94464085Y-59522956D01*
X94639249Y-59595512D01*
X94825197Y-59632499D01*
X94825201Y-59632500D01*
X94825202Y-59632500D01*
X95014799Y-59632500D01*
X95014800Y-59632499D01*
X95200751Y-59595512D01*
X95375915Y-59522956D01*
X95533558Y-59417622D01*
X95667622Y-59283558D01*
X95772956Y-59125915D01*
X95845512Y-58950751D01*
X95882500Y-58764798D01*
X95882500Y-58575202D01*
X95845512Y-58389249D01*
X95772956Y-58214085D01*
X95737686Y-58161300D01*
X95667622Y-58056441D01*
X95533558Y-57922377D01*
X95375912Y-57817042D01*
X95200751Y-57744488D01*
X95200743Y-57744486D01*
X95014802Y-57707500D01*
X95014798Y-57707500D01*
X94825202Y-57707500D01*
X94825197Y-57707500D01*
X94639256Y-57744486D01*
X94639248Y-57744488D01*
X94464087Y-57817042D01*
X94306441Y-57922377D01*
X94172377Y-58056441D01*
X94067042Y-58214087D01*
X93994488Y-58389248D01*
X93994486Y-58389256D01*
X93957500Y-58575197D01*
X92000500Y-58575197D01*
X92000500Y-56035197D01*
X93957500Y-56035197D01*
X93957500Y-56224802D01*
X93994486Y-56410743D01*
X93994488Y-56410751D01*
X94067042Y-56585912D01*
X94172377Y-56743558D01*
X94306441Y-56877622D01*
X94411300Y-56947686D01*
X94464085Y-56982956D01*
X94639249Y-57055512D01*
X94825197Y-57092499D01*
X94825201Y-57092500D01*
X94825202Y-57092500D01*
X95014799Y-57092500D01*
X95014800Y-57092499D01*
X95200751Y-57055512D01*
X95375915Y-56982956D01*
X95533558Y-56877622D01*
X95667622Y-56743558D01*
X95772956Y-56585915D01*
X95845512Y-56410751D01*
X95882500Y-56224798D01*
X95882500Y-56035202D01*
X95845512Y-55849249D01*
X95772956Y-55674085D01*
X95737686Y-55621300D01*
X95667622Y-55516441D01*
X95533558Y-55382377D01*
X95375912Y-55277042D01*
X95200751Y-55204488D01*
X95200743Y-55204486D01*
X95014802Y-55167500D01*
X95014798Y-55167500D01*
X94825202Y-55167500D01*
X94825197Y-55167500D01*
X94639256Y-55204486D01*
X94639248Y-55204488D01*
X94464087Y-55277042D01*
X94306441Y-55382377D01*
X94172377Y-55516441D01*
X94067042Y-55674087D01*
X93994488Y-55849248D01*
X93994486Y-55849256D01*
X93957500Y-56035197D01*
X92000500Y-56035197D01*
X92000500Y-53495197D01*
X93957500Y-53495197D01*
X93957500Y-53684802D01*
X93994486Y-53870743D01*
X93994488Y-53870751D01*
X94067042Y-54045912D01*
X94172377Y-54203558D01*
X94306441Y-54337622D01*
X94411300Y-54407686D01*
X94464085Y-54442956D01*
X94639249Y-54515512D01*
X94825197Y-54552499D01*
X94825201Y-54552500D01*
X94825202Y-54552500D01*
X95014799Y-54552500D01*
X95014800Y-54552499D01*
X95200751Y-54515512D01*
X95375915Y-54442956D01*
X95533558Y-54337622D01*
X95667622Y-54203558D01*
X95772956Y-54045915D01*
X95845512Y-53870751D01*
X95882500Y-53684798D01*
X95882500Y-53495202D01*
X95845512Y-53309249D01*
X95772956Y-53134085D01*
X95737686Y-53081300D01*
X95667622Y-52976441D01*
X95533558Y-52842377D01*
X95375912Y-52737042D01*
X95200751Y-52664488D01*
X95200743Y-52664486D01*
X95014802Y-52627500D01*
X95014798Y-52627500D01*
X94825202Y-52627500D01*
X94825197Y-52627500D01*
X94639256Y-52664486D01*
X94639248Y-52664488D01*
X94464087Y-52737042D01*
X94306441Y-52842377D01*
X94172377Y-52976441D01*
X94067042Y-53134087D01*
X93994488Y-53309248D01*
X93994486Y-53309256D01*
X93957500Y-53495197D01*
X92000500Y-53495197D01*
X92000500Y-50955197D01*
X93957500Y-50955197D01*
X93957500Y-51144802D01*
X93994486Y-51330743D01*
X93994488Y-51330751D01*
X94067042Y-51505912D01*
X94172377Y-51663558D01*
X94306441Y-51797622D01*
X94411300Y-51867686D01*
X94464085Y-51902956D01*
X94639249Y-51975512D01*
X94825197Y-52012499D01*
X94825201Y-52012500D01*
X94825202Y-52012500D01*
X95014799Y-52012500D01*
X95014800Y-52012499D01*
X95200751Y-51975512D01*
X95375915Y-51902956D01*
X95533558Y-51797622D01*
X95667622Y-51663558D01*
X95772956Y-51505915D01*
X95845512Y-51330751D01*
X95882500Y-51144798D01*
X95882500Y-50955202D01*
X95882500Y-50955199D01*
X95845513Y-50769256D01*
X95845512Y-50769249D01*
X95772956Y-50594085D01*
X95737686Y-50541300D01*
X95667622Y-50436441D01*
X95533558Y-50302377D01*
X95375912Y-50197042D01*
X95200751Y-50124488D01*
X95200743Y-50124486D01*
X95014802Y-50087500D01*
X95014798Y-50087500D01*
X94825202Y-50087500D01*
X94825197Y-50087500D01*
X94639256Y-50124486D01*
X94639248Y-50124488D01*
X94464087Y-50197042D01*
X94306441Y-50302377D01*
X94172377Y-50436441D01*
X94067042Y-50594087D01*
X93994488Y-50769248D01*
X93994486Y-50769256D01*
X93957500Y-50955197D01*
X92000500Y-50955197D01*
X92000500Y-49974000D01*
X92020185Y-49906961D01*
X92072989Y-49861206D01*
X92124500Y-49850000D01*
X92350000Y-49850000D01*
X92350000Y-48933012D01*
X92407007Y-48965925D01*
X92534174Y-49000000D01*
X92665826Y-49000000D01*
X92792993Y-48965925D01*
X92850000Y-48933012D01*
X92850000Y-49850000D01*
X93497828Y-49850000D01*
X93497844Y-49849999D01*
X93557372Y-49843598D01*
X93557379Y-49843596D01*
X93692086Y-49793354D01*
X93692093Y-49793350D01*
X93807187Y-49707190D01*
X93807190Y-49707187D01*
X93893350Y-49592093D01*
X93893354Y-49592086D01*
X93943596Y-49457379D01*
X93943598Y-49457372D01*
X93949999Y-49397844D01*
X93950000Y-49397827D01*
X93950000Y-49199146D01*
X93969685Y-49132107D01*
X94022489Y-49086352D01*
X94091647Y-49076408D01*
X94155203Y-49105433D01*
X94169858Y-49120487D01*
X94172382Y-49123563D01*
X94306441Y-49257622D01*
X94411300Y-49327686D01*
X94464085Y-49362956D01*
X94639249Y-49435512D01*
X94825197Y-49472499D01*
X94825201Y-49472500D01*
X94825202Y-49472500D01*
X95014799Y-49472500D01*
X95014800Y-49472499D01*
X95200751Y-49435512D01*
X95375915Y-49362956D01*
X95533558Y-49257622D01*
X95667622Y-49123558D01*
X95772956Y-48965915D01*
X95845512Y-48790751D01*
X95882500Y-48604798D01*
X95882500Y-48415202D01*
X95845512Y-48229249D01*
X95772956Y-48054085D01*
X95736817Y-48000000D01*
X95667622Y-47896441D01*
X95583362Y-47812181D01*
X95549877Y-47750858D01*
X95554861Y-47681166D01*
X95596733Y-47625233D01*
X95662197Y-47600816D01*
X95671043Y-47600500D01*
X109368957Y-47600500D01*
X109435996Y-47620185D01*
G37*
G04 #@! TD.AperFunction*
M02*
