M48
; DRILL file {KiCad 9.0.2} date 2025-07-09T03:35:44-0400
; FORMAT={-:-/ absolute / metric / decimal}
; #@! TF.CreationDate,2025-07-09T03:35:44-04:00
; #@! TF.GenerationSoftware,Kicad,Pcbnew,9.0.2
; #@! TF.FileFunction,Plated,1,2,PTH
FMAT,2
METRIC
; #@! TA.AperFunction,Plated,PTH,ViaDrill
T1C0.300
; #@! TA.AperFunction,Plated,PTH,ComponentDrill
T2C0.700
; #@! TA.AperFunction,Plated,PTH,ComponentDrill
T3C0.800
; #@! TA.AperFunction,Plated,PTH,ComponentDrill
T4C0.900
; #@! TA.AperFunction,Plated,PTH,ComponentDrill
T5C1.000
; #@! TA.AperFunction,Plated,PTH,ComponentDrill
T6C1.100
; #@! TA.AperFunction,Plated,PTH,ComponentDrill
T7C1.250
%
G90
G05
T1
X92.5Y-81.8
X95.1Y-84.2
X99.0Y-100.6
X105.5Y-100.4
X106.4Y-70.3
X107.3Y-100.9
X109.9Y-83.4
T3
X95.98Y-106.1
X97.2Y-109.8
X99.2Y-109.8
X101.2Y-109.8
X103.6Y-106.1
X109.9Y-89.49
X109.9Y-97.11
T4
X94.88Y-66.29
X94.88Y-71.62
X94.92Y-48.51
X94.92Y-51.05
X94.92Y-53.59
X94.92Y-56.13
X94.92Y-58.67
X94.92Y-61.21
X94.92Y-63.75
X97.42Y-71.62
X97.42Y-81.78
X97.42Y-84.3
X98.2Y-86.9
X98.2Y-97.3
X99.96Y-71.62
X99.96Y-81.78
X99.96Y-84.3
X100.14Y-145.37
X102.5Y-71.62
X102.5Y-81.78
X102.5Y-84.3
X102.68Y-145.37
X105.04Y-71.62
X105.04Y-81.78
X105.04Y-84.3
X105.22Y-145.37
X107.4Y-87.0
X107.4Y-89.5
X107.4Y-94.7
X107.4Y-97.2
X107.58Y-71.62
X107.58Y-81.78
X107.58Y-84.3
X107.76Y-145.37
X110.12Y-48.51
X110.12Y-51.05
X110.12Y-53.59
X110.12Y-56.13
X110.12Y-58.67
X110.12Y-61.21
X110.12Y-63.75
X110.12Y-66.29
X110.12Y-71.62
X110.3Y-145.37
X116.801Y-132.191
X119.34Y-145.27
X119.341Y-132.191
X119.341Y-142.351
X121.88Y-145.27
X121.881Y-132.191
X121.881Y-142.351
X124.42Y-145.27
X124.421Y-132.191
X124.421Y-142.351
X126.96Y-145.27
X126.961Y-132.191
X126.961Y-142.351
X129.5Y-145.27
X129.501Y-132.191
X129.501Y-142.351
X132.041Y-132.191
T5
X92.6Y-48.5
X92.8Y-103.835
X92.8Y-106.375
T6
X95.68Y-99.8
X95.68Y-103.0
X103.3Y-99.8
X103.3Y-103.0
T7
X95.1Y-109.8
X103.3Y-109.8
T2
X105.9Y-102.255G85X105.9Y-101.455
G05
X105.9Y-106.255G85X105.9Y-105.455
G05
X105.9Y-109.255G85X105.9Y-108.455
G05
X110.3Y-101.255G85X110.3Y-100.455
G05
X118.245Y-125.049G85X119.045Y-125.049
G05
X121.245Y-125.049G85X122.045Y-125.049
G05
X125.245Y-125.049G85X126.045Y-125.049
G05
X126.245Y-129.449G85X127.045Y-129.449
G05
M30
