G04 #@! TF.GenerationSoftware,KiCad,Pcbnew,9.0.2*
G04 #@! TF.CreationDate,2025-07-09T03:35:45-04:00*
G04 #@! TF.ProjectId,FBT,4642542e-6b69-4636-9164-5f7063625858,rev?*
G04 #@! TF.SameCoordinates,Original*
G04 #@! TF.FileFunction,Legend,Top*
G04 #@! TF.FilePolarity,Positive*
%FSLAX46Y46*%
G04 Gerber Fmt 4.6, Leading zero omitted, Abs format (unit mm)*
G04 Created by KiCad (PCBNEW 9.0.2) date 2025-07-09 03:35:45*
%MOMM*%
%LPD*%
G01*
G04 APERTURE LIST*
%ADD10C,0.125000*%
%ADD11C,0.100000*%
%ADD12C,0.150000*%
%ADD13C,0.120000*%
G04 APERTURE END LIST*
D10*
X97791759Y-92375880D02*
X97744140Y-92423500D01*
X97744140Y-92423500D02*
X97601283Y-92471119D01*
X97601283Y-92471119D02*
X97506045Y-92471119D01*
X97506045Y-92471119D02*
X97363188Y-92423500D01*
X97363188Y-92423500D02*
X97267950Y-92328261D01*
X97267950Y-92328261D02*
X97220331Y-92233023D01*
X97220331Y-92233023D02*
X97172712Y-92042547D01*
X97172712Y-92042547D02*
X97172712Y-91899690D01*
X97172712Y-91899690D02*
X97220331Y-91709214D01*
X97220331Y-91709214D02*
X97267950Y-91613976D01*
X97267950Y-91613976D02*
X97363188Y-91518738D01*
X97363188Y-91518738D02*
X97506045Y-91471119D01*
X97506045Y-91471119D02*
X97601283Y-91471119D01*
X97601283Y-91471119D02*
X97744140Y-91518738D01*
X97744140Y-91518738D02*
X97791759Y-91566357D01*
X98220331Y-92471119D02*
X98220331Y-91471119D01*
X98220331Y-91947309D02*
X98791759Y-91947309D01*
X98791759Y-92471119D02*
X98791759Y-91471119D01*
X99791759Y-91518738D02*
X99696521Y-91471119D01*
X99696521Y-91471119D02*
X99553664Y-91471119D01*
X99553664Y-91471119D02*
X99410807Y-91518738D01*
X99410807Y-91518738D02*
X99315569Y-91613976D01*
X99315569Y-91613976D02*
X99267950Y-91709214D01*
X99267950Y-91709214D02*
X99220331Y-91899690D01*
X99220331Y-91899690D02*
X99220331Y-92042547D01*
X99220331Y-92042547D02*
X99267950Y-92233023D01*
X99267950Y-92233023D02*
X99315569Y-92328261D01*
X99315569Y-92328261D02*
X99410807Y-92423500D01*
X99410807Y-92423500D02*
X99553664Y-92471119D01*
X99553664Y-92471119D02*
X99648902Y-92471119D01*
X99648902Y-92471119D02*
X99791759Y-92423500D01*
X99791759Y-92423500D02*
X99839378Y-92375880D01*
X99839378Y-92375880D02*
X99839378Y-92042547D01*
X99839378Y-92042547D02*
X99648902Y-92042547D01*
X100839378Y-92471119D02*
X100506045Y-91994928D01*
X100267950Y-92471119D02*
X100267950Y-91471119D01*
X100267950Y-91471119D02*
X100648902Y-91471119D01*
X100648902Y-91471119D02*
X100744140Y-91518738D01*
X100744140Y-91518738D02*
X100791759Y-91566357D01*
X100791759Y-91566357D02*
X100839378Y-91661595D01*
X100839378Y-91661595D02*
X100839378Y-91804452D01*
X100839378Y-91804452D02*
X100791759Y-91899690D01*
X100791759Y-91899690D02*
X100744140Y-91947309D01*
X100744140Y-91947309D02*
X100648902Y-91994928D01*
X100648902Y-91994928D02*
X100267950Y-91994928D01*
X101791759Y-92471119D02*
X101220331Y-92471119D01*
X101506045Y-92471119D02*
X101506045Y-91471119D01*
X101506045Y-91471119D02*
X101410807Y-91613976D01*
X101410807Y-91613976D02*
X101315569Y-91709214D01*
X101315569Y-91709214D02*
X101220331Y-91756833D01*
D11*
G36*
X93323094Y-108829724D02*
G01*
X92246579Y-108829724D01*
X92246579Y-108272332D01*
X92357690Y-108272332D01*
X92357690Y-108310600D01*
X92384750Y-108337660D01*
X92403884Y-108341466D01*
X92734836Y-108341466D01*
X92734836Y-108672419D01*
X92738642Y-108691553D01*
X92765702Y-108718613D01*
X92803970Y-108718613D01*
X92831030Y-108691553D01*
X92834836Y-108672419D01*
X92834836Y-108341466D01*
X93165789Y-108341466D01*
X93184923Y-108337660D01*
X93211983Y-108310600D01*
X93211983Y-108272332D01*
X93184923Y-108245272D01*
X93165789Y-108241466D01*
X92834836Y-108241466D01*
X92834836Y-107910514D01*
X92831030Y-107891380D01*
X92803970Y-107864320D01*
X92765702Y-107864320D01*
X92738642Y-107891380D01*
X92734836Y-107910514D01*
X92734836Y-108241466D01*
X92403884Y-108241466D01*
X92384750Y-108245272D01*
X92357690Y-108272332D01*
X92246579Y-108272332D01*
X92246579Y-107753209D01*
X93323094Y-107753209D01*
X93323094Y-108829724D01*
G37*
D12*
X92531009Y-53504761D02*
X92578628Y-53361904D01*
X92578628Y-53361904D02*
X92626247Y-53314285D01*
X92626247Y-53314285D02*
X92721485Y-53266666D01*
X92721485Y-53266666D02*
X92864342Y-53266666D01*
X92864342Y-53266666D02*
X92959580Y-53314285D01*
X92959580Y-53314285D02*
X93007200Y-53361904D01*
X93007200Y-53361904D02*
X93054819Y-53457142D01*
X93054819Y-53457142D02*
X93054819Y-53838094D01*
X93054819Y-53838094D02*
X92054819Y-53838094D01*
X92054819Y-53838094D02*
X92054819Y-53504761D01*
X92054819Y-53504761D02*
X92102438Y-53409523D01*
X92102438Y-53409523D02*
X92150057Y-53361904D01*
X92150057Y-53361904D02*
X92245295Y-53314285D01*
X92245295Y-53314285D02*
X92340533Y-53314285D01*
X92340533Y-53314285D02*
X92435771Y-53361904D01*
X92435771Y-53361904D02*
X92483390Y-53409523D01*
X92483390Y-53409523D02*
X92531009Y-53504761D01*
X92531009Y-53504761D02*
X92531009Y-53838094D01*
X92054819Y-52980951D02*
X92054819Y-52409523D01*
X93054819Y-52695237D02*
X92054819Y-52695237D01*
X92673866Y-52076189D02*
X92673866Y-51314285D01*
X92150057Y-50885713D02*
X92102438Y-50838094D01*
X92102438Y-50838094D02*
X92054819Y-50742856D01*
X92054819Y-50742856D02*
X92054819Y-50504761D01*
X92054819Y-50504761D02*
X92102438Y-50409523D01*
X92102438Y-50409523D02*
X92150057Y-50361904D01*
X92150057Y-50361904D02*
X92245295Y-50314285D01*
X92245295Y-50314285D02*
X92340533Y-50314285D01*
X92340533Y-50314285D02*
X92483390Y-50361904D01*
X92483390Y-50361904D02*
X93054819Y-50933332D01*
X93054819Y-50933332D02*
X93054819Y-50314285D01*
D11*
X97866667Y-108809800D02*
X98009524Y-108857419D01*
X98009524Y-108857419D02*
X98247619Y-108857419D01*
X98247619Y-108857419D02*
X98342857Y-108809800D01*
X98342857Y-108809800D02*
X98390476Y-108762180D01*
X98390476Y-108762180D02*
X98438095Y-108666942D01*
X98438095Y-108666942D02*
X98438095Y-108571704D01*
X98438095Y-108571704D02*
X98390476Y-108476466D01*
X98390476Y-108476466D02*
X98342857Y-108428847D01*
X98342857Y-108428847D02*
X98247619Y-108381228D01*
X98247619Y-108381228D02*
X98057143Y-108333609D01*
X98057143Y-108333609D02*
X97961905Y-108285990D01*
X97961905Y-108285990D02*
X97914286Y-108238371D01*
X97914286Y-108238371D02*
X97866667Y-108143133D01*
X97866667Y-108143133D02*
X97866667Y-108047895D01*
X97866667Y-108047895D02*
X97914286Y-107952657D01*
X97914286Y-107952657D02*
X97961905Y-107905038D01*
X97961905Y-107905038D02*
X98057143Y-107857419D01*
X98057143Y-107857419D02*
X98295238Y-107857419D01*
X98295238Y-107857419D02*
X98438095Y-107905038D01*
X98771429Y-107857419D02*
X99009524Y-108857419D01*
X99009524Y-108857419D02*
X99200000Y-108143133D01*
X99200000Y-108143133D02*
X99390476Y-108857419D01*
X99390476Y-108857419D02*
X99628572Y-107857419D01*
X100533333Y-108857419D02*
X99961905Y-108857419D01*
X100247619Y-108857419D02*
X100247619Y-107857419D01*
X100247619Y-107857419D02*
X100152381Y-108000276D01*
X100152381Y-108000276D02*
X100057143Y-108095514D01*
X100057143Y-108095514D02*
X99961905Y-108143133D01*
D12*
X100928572Y-76754819D02*
X100928572Y-75754819D01*
X101404762Y-76754819D02*
X101404762Y-75754819D01*
X101404762Y-75754819D02*
X101738095Y-76469104D01*
X101738095Y-76469104D02*
X102071428Y-75754819D01*
X102071428Y-75754819D02*
X102071428Y-76754819D01*
X102547619Y-75754819D02*
X102547619Y-76564342D01*
X102547619Y-76564342D02*
X102595238Y-76659580D01*
X102595238Y-76659580D02*
X102642857Y-76707200D01*
X102642857Y-76707200D02*
X102738095Y-76754819D01*
X102738095Y-76754819D02*
X102928571Y-76754819D01*
X102928571Y-76754819D02*
X103023809Y-76707200D01*
X103023809Y-76707200D02*
X103071428Y-76659580D01*
X103071428Y-76659580D02*
X103119047Y-76564342D01*
X103119047Y-76564342D02*
X103119047Y-75754819D01*
X104119047Y-76754819D02*
X103547619Y-76754819D01*
X103833333Y-76754819D02*
X103833333Y-75754819D01*
X103833333Y-75754819D02*
X103738095Y-75897676D01*
X103738095Y-75897676D02*
X103642857Y-75992914D01*
X103642857Y-75992914D02*
X103547619Y-76040533D01*
X107654819Y-106633333D02*
X108369104Y-106633333D01*
X108369104Y-106633333D02*
X108511961Y-106680952D01*
X108511961Y-106680952D02*
X108607200Y-106776190D01*
X108607200Y-106776190D02*
X108654819Y-106919047D01*
X108654819Y-106919047D02*
X108654819Y-107014285D01*
X108654819Y-105633333D02*
X108654819Y-106204761D01*
X108654819Y-105919047D02*
X107654819Y-105919047D01*
X107654819Y-105919047D02*
X107797676Y-106014285D01*
X107797676Y-106014285D02*
X107892914Y-106109523D01*
X107892914Y-106109523D02*
X107940533Y-106204761D01*
X99161905Y-103454819D02*
X99161905Y-102454819D01*
X99161905Y-102454819D02*
X99400000Y-102454819D01*
X99400000Y-102454819D02*
X99542857Y-102502438D01*
X99542857Y-102502438D02*
X99638095Y-102597676D01*
X99638095Y-102597676D02*
X99685714Y-102692914D01*
X99685714Y-102692914D02*
X99733333Y-102883390D01*
X99733333Y-102883390D02*
X99733333Y-103026247D01*
X99733333Y-103026247D02*
X99685714Y-103216723D01*
X99685714Y-103216723D02*
X99638095Y-103311961D01*
X99638095Y-103311961D02*
X99542857Y-103407200D01*
X99542857Y-103407200D02*
X99400000Y-103454819D01*
X99400000Y-103454819D02*
X99161905Y-103454819D01*
X100114286Y-102550057D02*
X100161905Y-102502438D01*
X100161905Y-102502438D02*
X100257143Y-102454819D01*
X100257143Y-102454819D02*
X100495238Y-102454819D01*
X100495238Y-102454819D02*
X100590476Y-102502438D01*
X100590476Y-102502438D02*
X100638095Y-102550057D01*
X100638095Y-102550057D02*
X100685714Y-102645295D01*
X100685714Y-102645295D02*
X100685714Y-102740533D01*
X100685714Y-102740533D02*
X100638095Y-102883390D01*
X100638095Y-102883390D02*
X100066667Y-103454819D01*
X100066667Y-103454819D02*
X100685714Y-103454819D01*
X99233333Y-106554819D02*
X98900000Y-106078628D01*
X98661905Y-106554819D02*
X98661905Y-105554819D01*
X98661905Y-105554819D02*
X99042857Y-105554819D01*
X99042857Y-105554819D02*
X99138095Y-105602438D01*
X99138095Y-105602438D02*
X99185714Y-105650057D01*
X99185714Y-105650057D02*
X99233333Y-105745295D01*
X99233333Y-105745295D02*
X99233333Y-105888152D01*
X99233333Y-105888152D02*
X99185714Y-105983390D01*
X99185714Y-105983390D02*
X99138095Y-106031009D01*
X99138095Y-106031009D02*
X99042857Y-106078628D01*
X99042857Y-106078628D02*
X98661905Y-106078628D01*
X99614286Y-105650057D02*
X99661905Y-105602438D01*
X99661905Y-105602438D02*
X99757143Y-105554819D01*
X99757143Y-105554819D02*
X99995238Y-105554819D01*
X99995238Y-105554819D02*
X100090476Y-105602438D01*
X100090476Y-105602438D02*
X100138095Y-105650057D01*
X100138095Y-105650057D02*
X100185714Y-105745295D01*
X100185714Y-105745295D02*
X100185714Y-105840533D01*
X100185714Y-105840533D02*
X100138095Y-105983390D01*
X100138095Y-105983390D02*
X99566667Y-106554819D01*
X99566667Y-106554819D02*
X100185714Y-106554819D01*
X122849584Y-135955333D02*
X122849584Y-134955333D01*
X123325774Y-135955333D02*
X123325774Y-134955333D01*
X123325774Y-134955333D02*
X123659107Y-135669618D01*
X123659107Y-135669618D02*
X123992440Y-134955333D01*
X123992440Y-134955333D02*
X123992440Y-135955333D01*
X124468631Y-134955333D02*
X124468631Y-135764856D01*
X124468631Y-135764856D02*
X124516250Y-135860094D01*
X124516250Y-135860094D02*
X124563869Y-135907714D01*
X124563869Y-135907714D02*
X124659107Y-135955333D01*
X124659107Y-135955333D02*
X124849583Y-135955333D01*
X124849583Y-135955333D02*
X124944821Y-135907714D01*
X124944821Y-135907714D02*
X124992440Y-135860094D01*
X124992440Y-135860094D02*
X125040059Y-135764856D01*
X125040059Y-135764856D02*
X125040059Y-134955333D01*
X125468631Y-135050571D02*
X125516250Y-135002952D01*
X125516250Y-135002952D02*
X125611488Y-134955333D01*
X125611488Y-134955333D02*
X125849583Y-134955333D01*
X125849583Y-134955333D02*
X125944821Y-135002952D01*
X125944821Y-135002952D02*
X125992440Y-135050571D01*
X125992440Y-135050571D02*
X126040059Y-135145809D01*
X126040059Y-135145809D02*
X126040059Y-135241047D01*
X126040059Y-135241047D02*
X125992440Y-135383904D01*
X125992440Y-135383904D02*
X125421012Y-135955333D01*
X125421012Y-135955333D02*
X126040059Y-135955333D01*
X92731009Y-110985714D02*
X92778628Y-110842857D01*
X92778628Y-110842857D02*
X92826247Y-110795238D01*
X92826247Y-110795238D02*
X92921485Y-110747619D01*
X92921485Y-110747619D02*
X93064342Y-110747619D01*
X93064342Y-110747619D02*
X93159580Y-110795238D01*
X93159580Y-110795238D02*
X93207200Y-110842857D01*
X93207200Y-110842857D02*
X93254819Y-110938095D01*
X93254819Y-110938095D02*
X93254819Y-111319047D01*
X93254819Y-111319047D02*
X92254819Y-111319047D01*
X92254819Y-111319047D02*
X92254819Y-110985714D01*
X92254819Y-110985714D02*
X92302438Y-110890476D01*
X92302438Y-110890476D02*
X92350057Y-110842857D01*
X92350057Y-110842857D02*
X92445295Y-110795238D01*
X92445295Y-110795238D02*
X92540533Y-110795238D01*
X92540533Y-110795238D02*
X92635771Y-110842857D01*
X92635771Y-110842857D02*
X92683390Y-110890476D01*
X92683390Y-110890476D02*
X92731009Y-110985714D01*
X92731009Y-110985714D02*
X92731009Y-111319047D01*
X92254819Y-110461904D02*
X92254819Y-109890476D01*
X93254819Y-110176190D02*
X92254819Y-110176190D01*
X93254819Y-109033333D02*
X93254819Y-109604761D01*
X93254819Y-109319047D02*
X92254819Y-109319047D01*
X92254819Y-109319047D02*
X92397676Y-109414285D01*
X92397676Y-109414285D02*
X92492914Y-109509523D01*
X92492914Y-109509523D02*
X92540533Y-109604761D01*
X99561905Y-100254819D02*
X99561905Y-99254819D01*
X99561905Y-99254819D02*
X99800000Y-99254819D01*
X99800000Y-99254819D02*
X99942857Y-99302438D01*
X99942857Y-99302438D02*
X100038095Y-99397676D01*
X100038095Y-99397676D02*
X100085714Y-99492914D01*
X100085714Y-99492914D02*
X100133333Y-99683390D01*
X100133333Y-99683390D02*
X100133333Y-99826247D01*
X100133333Y-99826247D02*
X100085714Y-100016723D01*
X100085714Y-100016723D02*
X100038095Y-100111961D01*
X100038095Y-100111961D02*
X99942857Y-100207200D01*
X99942857Y-100207200D02*
X99800000Y-100254819D01*
X99800000Y-100254819D02*
X99561905Y-100254819D01*
X101085714Y-100254819D02*
X100514286Y-100254819D01*
X100800000Y-100254819D02*
X100800000Y-99254819D01*
X100800000Y-99254819D02*
X100704762Y-99397676D01*
X100704762Y-99397676D02*
X100609524Y-99492914D01*
X100609524Y-99492914D02*
X100514286Y-99540533D01*
X93638095Y-100254819D02*
X93638095Y-99254819D01*
X94209523Y-100254819D02*
X93780952Y-99683390D01*
X94209523Y-99254819D02*
X93638095Y-99826247D01*
X121607267Y-121235231D02*
X121607267Y-121949516D01*
X121607267Y-121949516D02*
X121559648Y-122092373D01*
X121559648Y-122092373D02*
X121464410Y-122187612D01*
X121464410Y-122187612D02*
X121321553Y-122235231D01*
X121321553Y-122235231D02*
X121226315Y-122235231D01*
X122035839Y-121330469D02*
X122083458Y-121282850D01*
X122083458Y-121282850D02*
X122178696Y-121235231D01*
X122178696Y-121235231D02*
X122416791Y-121235231D01*
X122416791Y-121235231D02*
X122512029Y-121282850D01*
X122512029Y-121282850D02*
X122559648Y-121330469D01*
X122559648Y-121330469D02*
X122607267Y-121425707D01*
X122607267Y-121425707D02*
X122607267Y-121520945D01*
X122607267Y-121520945D02*
X122559648Y-121663802D01*
X122559648Y-121663802D02*
X121988220Y-122235231D01*
X121988220Y-122235231D02*
X122607267Y-122235231D01*
X110354819Y-93466666D02*
X109878628Y-93799999D01*
X110354819Y-94038094D02*
X109354819Y-94038094D01*
X109354819Y-94038094D02*
X109354819Y-93657142D01*
X109354819Y-93657142D02*
X109402438Y-93561904D01*
X109402438Y-93561904D02*
X109450057Y-93514285D01*
X109450057Y-93514285D02*
X109545295Y-93466666D01*
X109545295Y-93466666D02*
X109688152Y-93466666D01*
X109688152Y-93466666D02*
X109783390Y-93514285D01*
X109783390Y-93514285D02*
X109831009Y-93561904D01*
X109831009Y-93561904D02*
X109878628Y-93657142D01*
X109878628Y-93657142D02*
X109878628Y-94038094D01*
X110354819Y-92514285D02*
X110354819Y-93085713D01*
X110354819Y-92799999D02*
X109354819Y-92799999D01*
X109354819Y-92799999D02*
X109497676Y-92895237D01*
X109497676Y-92895237D02*
X109592914Y-92990475D01*
X109592914Y-92990475D02*
X109640533Y-93085713D01*
D11*
X108118580Y-136166666D02*
X108594771Y-135833333D01*
X108118580Y-135595238D02*
X109118580Y-135595238D01*
X109118580Y-135595238D02*
X109118580Y-135976190D01*
X109118580Y-135976190D02*
X109070961Y-136071428D01*
X109070961Y-136071428D02*
X109023342Y-136119047D01*
X109023342Y-136119047D02*
X108928104Y-136166666D01*
X108928104Y-136166666D02*
X108785247Y-136166666D01*
X108785247Y-136166666D02*
X108690009Y-136119047D01*
X108690009Y-136119047D02*
X108642390Y-136071428D01*
X108642390Y-136071428D02*
X108594771Y-135976190D01*
X108594771Y-135976190D02*
X108594771Y-135595238D01*
X108642390Y-136595238D02*
X108642390Y-136928571D01*
X108118580Y-137071428D02*
X108118580Y-136595238D01*
X108118580Y-136595238D02*
X109118580Y-136595238D01*
X109118580Y-136595238D02*
X109118580Y-137071428D01*
X108642390Y-137833333D02*
X108642390Y-137500000D01*
X108118580Y-137500000D02*
X109118580Y-137500000D01*
X109118580Y-137500000D02*
X109118580Y-137976190D01*
X109118580Y-138500000D02*
X108880485Y-138500000D01*
X108975723Y-138261905D02*
X108880485Y-138500000D01*
X108880485Y-138500000D02*
X108975723Y-138738095D01*
X108690009Y-138357143D02*
X108880485Y-138500000D01*
X108880485Y-138500000D02*
X108690009Y-138642857D01*
X109118580Y-139261905D02*
X108880485Y-139261905D01*
X108975723Y-139023810D02*
X108880485Y-139261905D01*
X108880485Y-139261905D02*
X108975723Y-139500000D01*
X108690009Y-139119048D02*
X108880485Y-139261905D01*
X108880485Y-139261905D02*
X108690009Y-139404762D01*
D12*
X100666667Y-55254819D02*
X100666667Y-54254819D01*
X100666667Y-54254819D02*
X101000000Y-54969104D01*
X101000000Y-54969104D02*
X101333333Y-54254819D01*
X101333333Y-54254819D02*
X101333333Y-55254819D01*
X102380952Y-55159580D02*
X102333333Y-55207200D01*
X102333333Y-55207200D02*
X102190476Y-55254819D01*
X102190476Y-55254819D02*
X102095238Y-55254819D01*
X102095238Y-55254819D02*
X101952381Y-55207200D01*
X101952381Y-55207200D02*
X101857143Y-55111961D01*
X101857143Y-55111961D02*
X101809524Y-55016723D01*
X101809524Y-55016723D02*
X101761905Y-54826247D01*
X101761905Y-54826247D02*
X101761905Y-54683390D01*
X101761905Y-54683390D02*
X101809524Y-54492914D01*
X101809524Y-54492914D02*
X101857143Y-54397676D01*
X101857143Y-54397676D02*
X101952381Y-54302438D01*
X101952381Y-54302438D02*
X102095238Y-54254819D01*
X102095238Y-54254819D02*
X102190476Y-54254819D01*
X102190476Y-54254819D02*
X102333333Y-54302438D01*
X102333333Y-54302438D02*
X102380952Y-54350057D01*
X102809524Y-54254819D02*
X102809524Y-55064342D01*
X102809524Y-55064342D02*
X102857143Y-55159580D01*
X102857143Y-55159580D02*
X102904762Y-55207200D01*
X102904762Y-55207200D02*
X103000000Y-55254819D01*
X103000000Y-55254819D02*
X103190476Y-55254819D01*
X103190476Y-55254819D02*
X103285714Y-55207200D01*
X103285714Y-55207200D02*
X103333333Y-55159580D01*
X103333333Y-55159580D02*
X103380952Y-55064342D01*
X103380952Y-55064342D02*
X103380952Y-54254819D01*
X104380952Y-55254819D02*
X103809524Y-55254819D01*
X104095238Y-55254819D02*
X104095238Y-54254819D01*
X104095238Y-54254819D02*
X104000000Y-54397676D01*
X104000000Y-54397676D02*
X103904762Y-54492914D01*
X103904762Y-54492914D02*
X103809524Y-54540533D01*
D13*
X91220000Y-47120000D02*
X92600000Y-47120000D01*
X91220000Y-48500000D02*
X91220000Y-47120000D01*
X91220000Y-49770000D02*
X91220000Y-49880000D01*
X91220000Y-49770000D02*
X93980000Y-49770000D01*
X91220000Y-49880000D02*
X93980000Y-49880000D01*
X93980000Y-49770000D02*
X93980000Y-49880000D01*
D11*
X94900000Y-107650000D02*
X94900000Y-108450000D01*
X94900000Y-107650000D02*
X95700000Y-107650000D01*
X94900000Y-111950000D02*
X94900000Y-111150000D01*
X94900000Y-111950000D02*
X95700000Y-111950000D01*
X98800000Y-107650000D02*
X99600000Y-107650000D01*
X99600000Y-111950000D02*
X98800000Y-111950000D01*
X103500000Y-107650000D02*
X102700000Y-107650000D01*
X103500000Y-107650000D02*
X103500000Y-108450000D01*
X103500000Y-111950000D02*
X102700000Y-111950000D01*
X103500000Y-111950000D02*
X103500000Y-111150000D01*
D13*
X111390000Y-70350000D02*
X93610000Y-70350000D01*
X93610000Y-83050000D01*
X111390000Y-83050000D01*
X111390000Y-70350000D01*
X96785000Y-79875000D02*
G75*
G02*
X94245000Y-79875000I-1270000J0D01*
G01*
X94245000Y-79875000D02*
G75*
G02*
X96785000Y-79875000I1270000J0D01*
G01*
X110755000Y-79875000D02*
G75*
G02*
X108215000Y-79875000I-1270000J0D01*
G01*
X108215000Y-79875000D02*
G75*
G02*
X110755000Y-79875000I1270000J0D01*
G01*
X104800000Y-99005000D02*
X111400000Y-99005000D01*
X104800000Y-112005000D02*
X104800000Y-99005000D01*
X105600000Y-112005000D02*
X104800000Y-112005000D01*
X105600000Y-114005000D02*
X105600000Y-112005000D01*
X105900000Y-114005000D02*
X105600000Y-114005000D01*
X105900000Y-114005000D02*
X110600000Y-114005000D01*
X110600000Y-112005000D02*
X111400000Y-112005000D01*
X110600000Y-114005000D02*
X110600000Y-112005000D01*
X111400000Y-112005000D02*
X111400000Y-99005000D01*
X96770000Y-101530000D02*
X102210000Y-101530000D01*
X96770000Y-101660000D02*
X96770000Y-101530000D01*
X96770000Y-104340000D02*
X96770000Y-104470000D01*
X96770000Y-104470000D02*
X102210000Y-104470000D01*
X97550000Y-101530000D02*
X97550000Y-104470000D01*
X97670000Y-101530000D02*
X97670000Y-104470000D01*
X97790000Y-101530000D02*
X97790000Y-104470000D01*
X102210000Y-101530000D02*
X102210000Y-101660000D01*
X102210000Y-104470000D02*
X102210000Y-104340000D01*
X96520000Y-104730000D02*
X96520000Y-105060000D01*
X96520000Y-107470000D02*
X96520000Y-107140000D01*
X103060000Y-104730000D02*
X96520000Y-104730000D01*
X103060000Y-105060000D02*
X103060000Y-104730000D01*
X103060000Y-107140000D02*
X103060000Y-107470000D01*
X103060000Y-107470000D02*
X96520000Y-107470000D01*
X133311012Y-130920514D02*
X115531012Y-130920514D01*
X115531012Y-143620514D01*
X133311012Y-143620514D01*
X133311012Y-130920514D01*
X118706012Y-140445514D02*
G75*
G02*
X116166012Y-140445514I-1270000J0D01*
G01*
X116166012Y-140445514D02*
G75*
G02*
X118706012Y-140445514I1270000J0D01*
G01*
X132676012Y-140445514D02*
G75*
G02*
X130136012Y-140445514I-1270000J0D01*
G01*
X130136012Y-140445514D02*
G75*
G02*
X132676012Y-140445514I1270000J0D01*
G01*
D11*
X91500000Y-86100000D02*
X108300000Y-86100000D01*
X108300000Y-98100000D01*
X91500000Y-98100000D01*
X91500000Y-86100000D01*
D13*
X91420000Y-105105000D02*
X91420000Y-102455000D01*
X94180000Y-102455000D02*
X91420000Y-102455000D01*
X94180000Y-105105000D02*
X91420000Y-105105000D01*
X94180000Y-105105000D02*
X94180000Y-102455000D01*
X94180000Y-106375000D02*
X94180000Y-107755000D01*
X94180000Y-107755000D02*
X92800000Y-107755000D01*
X96770000Y-98330000D02*
X102210000Y-98330000D01*
X96770000Y-98460000D02*
X96770000Y-98330000D01*
X96770000Y-101140000D02*
X96770000Y-101270000D01*
X96770000Y-101270000D02*
X102210000Y-101270000D01*
X97550000Y-98330000D02*
X97550000Y-101270000D01*
X97670000Y-98330000D02*
X97670000Y-101270000D01*
X97790000Y-98330000D02*
X97790000Y-101270000D01*
X102210000Y-98330000D02*
X102210000Y-98460000D01*
X102210000Y-101270000D02*
X102210000Y-101140000D01*
X113495101Y-124749412D02*
X115495101Y-124749412D01*
X113495101Y-125049412D02*
X113495101Y-124749412D01*
X113495101Y-125049412D02*
X113495101Y-129749412D01*
X113495101Y-129749412D02*
X115495101Y-129749412D01*
X115495101Y-123949412D02*
X128495101Y-123949412D01*
X115495101Y-124749412D02*
X115495101Y-123949412D01*
X115495101Y-129749412D02*
X115495101Y-130549412D01*
X115495101Y-130549412D02*
X128495101Y-130549412D01*
X128495101Y-123949412D02*
X128495101Y-130549412D01*
X108530000Y-90030000D02*
X108860000Y-90030000D01*
X108530000Y-96570000D02*
X108530000Y-90030000D01*
X108860000Y-96570000D02*
X108530000Y-96570000D01*
X110940000Y-96570000D02*
X111270000Y-96570000D01*
X111270000Y-90030000D02*
X110940000Y-90030000D01*
X111270000Y-96570000D02*
X111270000Y-90030000D01*
X111824000Y-146894000D02*
X98576000Y-146894000D01*
X98576000Y-128106000D01*
X111824000Y-128106000D01*
X111824000Y-146894000D01*
D11*
X102576000Y-130394000D02*
G75*
G02*
X99576000Y-130394000I-1500000J0D01*
G01*
X99576000Y-130394000D02*
G75*
G02*
X102576000Y-130394000I1500000J0D01*
G01*
X110576000Y-130394000D02*
G75*
G02*
X107576000Y-130394000I-1500000J0D01*
G01*
X107576000Y-130394000D02*
G75*
G02*
X110576000Y-130394000I1500000J0D01*
G01*
D13*
X93610000Y-47240000D02*
X111390000Y-47240000D01*
X111390000Y-70100000D01*
X93610000Y-70100000D01*
X93610000Y-47240000D01*
M02*
