G04 #@! TF.GenerationSoftware,KiCad,Pcbnew,9.0.2*
G04 #@! TF.CreationDate,2025-07-15T04:34:09-04:00*
G04 #@! TF.ProjectId,FBT,4642542e-6b69-4636-9164-5f7063625858,rev?*
G04 #@! TF.SameCoordinates,Original*
G04 #@! TF.FileFunction,Soldermask,Bot*
G04 #@! TF.FilePolarity,Negative*
%FSLAX46Y46*%
G04 Gerber Fmt 4.6, Leading zero omitted, Abs format (unit mm)*
G04 Created by KiCad (PCBNEW 9.0.2) date 2025-07-15 04:34:09*
%MOMM*%
%LPD*%
G01*
G04 APERTURE LIST*
G04 Aperture macros list*
%AMRoundRect*
0 Rectangle with rounded corners*
0 $1 Rounding radius*
0 $2 $3 $4 $5 $6 $7 $8 $9 X,Y pos of 4 corners*
0 Add a 4 corners polygon primitive as box body*
4,1,4,$2,$3,$4,$5,$6,$7,$8,$9,$2,$3,0*
0 Add four circle primitives for the rounded corners*
1,1,$1+$1,$2,$3*
1,1,$1+$1,$4,$5*
1,1,$1+$1,$6,$7*
1,1,$1+$1,$8,$9*
0 Add four rect primitives between the rounded corners*
20,1,$1+$1,$2,$3,$4,$5,0*
20,1,$1+$1,$4,$5,$6,$7,0*
20,1,$1+$1,$6,$7,$8,$9,0*
20,1,$1+$1,$8,$9,$2,$3,0*%
%AMFreePoly0*
4,1,23,0.500000,-0.750000,0.000000,-0.750000,0.000000,-0.745722,-0.065263,-0.745722,-0.191342,-0.711940,-0.304381,-0.646677,-0.396677,-0.554381,-0.461940,-0.441342,-0.495722,-0.315263,-0.495722,-0.250000,-0.500000,-0.250000,-0.500000,0.250000,-0.495722,0.250000,-0.495722,0.315263,-0.461940,0.441342,-0.396677,0.554381,-0.304381,0.646677,-0.191342,0.711940,-0.065263,0.745722,0.000000,0.745722,
0.000000,0.750000,0.500000,0.750000,0.500000,-0.750000,0.500000,-0.750000,$1*%
%AMFreePoly1*
4,1,23,0.000000,0.745722,0.065263,0.745722,0.191342,0.711940,0.304381,0.646677,0.396677,0.554381,0.461940,0.441342,0.495722,0.315263,0.495722,0.250000,0.500000,0.250000,0.500000,-0.250000,0.495722,-0.250000,0.495722,-0.315263,0.461940,-0.441342,0.396677,-0.554381,0.304381,-0.646677,0.191342,-0.711940,0.065263,-0.745722,0.000000,-0.745722,0.000000,-0.750000,-0.500000,-0.750000,
-0.500000,0.750000,0.000000,0.750000,0.000000,0.745722,0.000000,0.745722,$1*%
G04 Aperture macros list end*
%ADD10R,1.700000X1.700000*%
%ADD11C,2.100000*%
%ADD12C,1.400000*%
%ADD13C,1.524000*%
%ADD14O,1.600000X2.000000*%
%ADD15RoundRect,0.249999X-0.850001X-0.850001X0.850001X-0.850001X0.850001X0.850001X-0.850001X0.850001X0*%
%ADD16C,2.200000*%
%ADD17C,1.600000*%
%ADD18C,1.700000*%
%ADD19FreePoly0,270.000000*%
%ADD20FreePoly1,270.000000*%
%ADD21FreePoly0,180.000000*%
%ADD22FreePoly1,180.000000*%
G04 APERTURE END LIST*
G36*
X121550000Y-46100000D02*
G01*
X123050000Y-46100000D01*
X123050000Y-46400000D01*
X121550000Y-46400000D01*
X121550000Y-46100000D01*
G37*
G36*
X123500000Y-52600000D02*
G01*
X123200000Y-52600000D01*
X123200000Y-54100000D01*
X123500000Y-54100000D01*
X123500000Y-52600000D01*
G37*
D10*
X106553000Y-25908000D03*
D11*
X109700000Y-87600000D03*
X117900000Y-87600000D03*
D12*
X111800000Y-87600000D03*
X113800000Y-87600000D03*
X115800000Y-87600000D03*
D13*
X124841000Y-50292000D03*
X122301000Y-50292000D03*
X119761000Y-50292000D03*
X117221000Y-50292000D03*
X114681000Y-50292000D03*
X112141000Y-50292000D03*
X109601000Y-50292000D03*
X112141000Y-60452000D03*
X114681000Y-60452000D03*
X117221000Y-60452000D03*
X119761000Y-60452000D03*
X122301000Y-60452000D03*
D14*
X120494000Y-79700000D03*
X120494000Y-83700000D03*
X120494000Y-86700000D03*
X124894000Y-78700000D03*
D15*
X110236000Y-83000000D03*
D16*
X117856000Y-83000000D03*
D17*
X106553000Y-38862000D03*
X106553000Y-46482000D03*
D13*
X122645980Y-75456462D03*
X122645980Y-63256462D03*
X108745980Y-63356462D03*
X108745980Y-65856462D03*
X108745980Y-72856462D03*
X108745980Y-75356462D03*
X119250000Y-74550000D03*
X119250000Y-64150000D03*
X110050000Y-64250000D03*
X110050000Y-66750000D03*
X110050000Y-71950000D03*
X110050000Y-74450000D03*
D10*
X107061000Y-83058000D03*
D18*
X107061000Y-80518000D03*
D15*
X110236000Y-79375000D03*
D16*
X117856000Y-79375000D03*
D17*
X106553000Y-29083000D03*
X106553000Y-36703000D03*
D13*
X109514000Y-25785000D03*
X109514000Y-28325000D03*
X109514000Y-30865000D03*
X109514000Y-33405000D03*
X109514000Y-35945000D03*
X109514000Y-38485000D03*
X109514000Y-41025000D03*
X109474000Y-43565000D03*
X124714000Y-43565000D03*
X124714000Y-41025000D03*
X124714000Y-38485000D03*
X124714000Y-35945000D03*
X124714000Y-33405000D03*
X124714000Y-30865000D03*
X124714000Y-28325000D03*
X124714000Y-25785000D03*
X107036656Y-60457212D03*
X107036656Y-57917212D03*
X107036656Y-55377212D03*
X107036656Y-52837212D03*
X107036656Y-50297212D03*
D19*
X122300000Y-45600000D03*
D20*
X122300000Y-46900000D03*
D21*
X124000000Y-53350000D03*
D22*
X122700000Y-53350000D03*
M02*
