G04 #@! TF.GenerationSoftware,KiCad,Pcbnew,9.0.2*
G04 #@! TF.CreationDate,2025-07-15T04:34:09-04:00*
G04 #@! TF.ProjectId,FBT,4642542e-6b69-4636-9164-5f7063625858,rev?*
G04 #@! TF.SameCoordinates,Original*
G04 #@! TF.FileFunction,Soldermask,Top*
G04 #@! TF.FilePolarity,Negative*
%FSLAX46Y46*%
G04 Gerber Fmt 4.6, Leading zero omitted, Abs format (unit mm)*
G04 Created by KiCad (PCBNEW 9.0.2) date 2025-07-15 04:34:09*
%MOMM*%
%LPD*%
G01*
G04 APERTURE LIST*
G04 Aperture macros list*
%AMRoundRect*
0 Rectangle with rounded corners*
0 $1 Rounding radius*
0 $2 $3 $4 $5 $6 $7 $8 $9 X,Y pos of 4 corners*
0 Add a 4 corners polygon primitive as box body*
4,1,4,$2,$3,$4,$5,$6,$7,$8,$9,$2,$3,0*
0 Add four circle primitives for the rounded corners*
1,1,$1+$1,$2,$3*
1,1,$1+$1,$4,$5*
1,1,$1+$1,$6,$7*
1,1,$1+$1,$8,$9*
0 Add four rect primitives between the rounded corners*
20,1,$1+$1,$2,$3,$4,$5,0*
20,1,$1+$1,$4,$5,$6,$7,0*
20,1,$1+$1,$6,$7,$8,$9,0*
20,1,$1+$1,$8,$9,$2,$3,0*%
G04 Aperture macros list end*
%ADD10R,1.700000X1.700000*%
%ADD11C,2.100000*%
%ADD12C,1.400000*%
%ADD13C,1.524000*%
%ADD14O,1.600000X2.000000*%
%ADD15RoundRect,0.249999X-0.850001X-0.850001X0.850001X-0.850001X0.850001X0.850001X-0.850001X0.850001X0*%
%ADD16C,2.200000*%
%ADD17C,1.600000*%
%ADD18C,1.700000*%
G04 APERTURE END LIST*
D10*
X106553000Y-25908000D03*
D11*
X109700000Y-87600000D03*
X117900000Y-87600000D03*
D12*
X111800000Y-87600000D03*
X113800000Y-87600000D03*
X115800000Y-87600000D03*
D13*
X124841000Y-50292000D03*
X122301000Y-50292000D03*
X119761000Y-50292000D03*
X117221000Y-50292000D03*
X114681000Y-50292000D03*
X112141000Y-50292000D03*
X109601000Y-50292000D03*
X112141000Y-60452000D03*
X114681000Y-60452000D03*
X117221000Y-60452000D03*
X119761000Y-60452000D03*
X122301000Y-60452000D03*
D14*
X120494000Y-79700000D03*
X120494000Y-83700000D03*
X120494000Y-86700000D03*
X124894000Y-78700000D03*
D15*
X110236000Y-83000000D03*
D16*
X117856000Y-83000000D03*
D17*
X106553000Y-38862000D03*
X106553000Y-46482000D03*
D13*
X122645980Y-75456462D03*
X122645980Y-63256462D03*
X108745980Y-63356462D03*
X108745980Y-65856462D03*
X108745980Y-72856462D03*
X108745980Y-75356462D03*
X119250000Y-74550000D03*
X119250000Y-64150000D03*
X110050000Y-64250000D03*
X110050000Y-66750000D03*
X110050000Y-71950000D03*
X110050000Y-74450000D03*
D10*
X107061000Y-83058000D03*
D18*
X107061000Y-80518000D03*
D15*
X110236000Y-79375000D03*
D16*
X117856000Y-79375000D03*
D17*
X106553000Y-29083000D03*
X106553000Y-36703000D03*
D13*
X109514000Y-25785000D03*
X109514000Y-28325000D03*
X109514000Y-30865000D03*
X109514000Y-33405000D03*
X109514000Y-35945000D03*
X109514000Y-38485000D03*
X109514000Y-41025000D03*
X109474000Y-43565000D03*
X124714000Y-43565000D03*
X124714000Y-41025000D03*
X124714000Y-38485000D03*
X124714000Y-35945000D03*
X124714000Y-33405000D03*
X124714000Y-30865000D03*
X124714000Y-28325000D03*
X124714000Y-25785000D03*
X107036656Y-60457212D03*
X107036656Y-57917212D03*
X107036656Y-55377212D03*
X107036656Y-52837212D03*
X107036656Y-50297212D03*
M02*
