G04 #@! TF.GenerationSoftware,KiCad,Pcbnew,9.0.2*
G04 #@! TF.CreationDate,2025-07-15T04:34:08-04:00*
G04 #@! TF.ProjectId,FBT,4642542e-6b69-4636-9164-5f7063625858,rev?*
G04 #@! TF.SameCoordinates,Original*
G04 #@! TF.FileFunction,Copper,L1,Top*
G04 #@! TF.FilePolarity,Positive*
%FSLAX46Y46*%
G04 Gerber Fmt 4.6, Leading zero omitted, Abs format (unit mm)*
G04 Created by KiCad (PCBNEW 9.0.2) date 2025-07-15 04:34:08*
%MOMM*%
%LPD*%
G01*
G04 APERTURE LIST*
G04 Aperture macros list*
%AMRoundRect*
0 Rectangle with rounded corners*
0 $1 Rounding radius*
0 $2 $3 $4 $5 $6 $7 $8 $9 X,Y pos of 4 corners*
0 Add a 4 corners polygon primitive as box body*
4,1,4,$2,$3,$4,$5,$6,$7,$8,$9,$2,$3,0*
0 Add four circle primitives for the rounded corners*
1,1,$1+$1,$2,$3*
1,1,$1+$1,$4,$5*
1,1,$1+$1,$6,$7*
1,1,$1+$1,$8,$9*
0 Add four rect primitives between the rounded corners*
20,1,$1+$1,$2,$3,$4,$5,0*
20,1,$1+$1,$4,$5,$6,$7,0*
20,1,$1+$1,$6,$7,$8,$9,0*
20,1,$1+$1,$8,$9,$2,$3,0*%
G04 Aperture macros list end*
G04 #@! TA.AperFunction,ComponentPad*
%ADD10R,1.700000X1.700000*%
G04 #@! TD*
G04 #@! TA.AperFunction,ComponentPad*
%ADD11C,2.100000*%
G04 #@! TD*
G04 #@! TA.AperFunction,ComponentPad*
%ADD12C,1.400000*%
G04 #@! TD*
G04 #@! TA.AperFunction,ComponentPad*
%ADD13C,1.524000*%
G04 #@! TD*
G04 #@! TA.AperFunction,ComponentPad*
%ADD14O,1.600000X2.000000*%
G04 #@! TD*
G04 #@! TA.AperFunction,ComponentPad*
%ADD15RoundRect,0.249999X-0.850001X-0.850001X0.850001X-0.850001X0.850001X0.850001X-0.850001X0.850001X0*%
G04 #@! TD*
G04 #@! TA.AperFunction,ComponentPad*
%ADD16C,2.200000*%
G04 #@! TD*
G04 #@! TA.AperFunction,ComponentPad*
%ADD17C,1.600000*%
G04 #@! TD*
G04 #@! TA.AperFunction,ComponentPad*
%ADD18C,1.700000*%
G04 #@! TD*
G04 #@! TA.AperFunction,ViaPad*
%ADD19C,0.600000*%
G04 #@! TD*
G04 #@! TA.AperFunction,Conductor*
%ADD20C,0.400000*%
G04 #@! TD*
G04 APERTURE END LIST*
D10*
X106553000Y-25908000D03*
D11*
X109700000Y-87600000D03*
X117900000Y-87600000D03*
D12*
X111800000Y-87600000D03*
X113800000Y-87600000D03*
X115800000Y-87600000D03*
D13*
X124841000Y-50292000D03*
X122301000Y-50292000D03*
X119761000Y-50292000D03*
X117221000Y-50292000D03*
X114681000Y-50292000D03*
X112141000Y-50292000D03*
X109601000Y-50292000D03*
X112141000Y-60452000D03*
X114681000Y-60452000D03*
X117221000Y-60452000D03*
X119761000Y-60452000D03*
X122301000Y-60452000D03*
D14*
X120494000Y-79700000D03*
X120494000Y-83700000D03*
X120494000Y-86700000D03*
X124894000Y-78700000D03*
D15*
X110236000Y-83000000D03*
D16*
X117856000Y-83000000D03*
D17*
X106553000Y-38862000D03*
X106553000Y-46482000D03*
D13*
X122645980Y-75456462D03*
X122645980Y-63256462D03*
X108745980Y-63356462D03*
X108745980Y-65856462D03*
X108745980Y-72856462D03*
X108745980Y-75356462D03*
X119250000Y-74550000D03*
X119250000Y-64150000D03*
X110050000Y-64250000D03*
X110050000Y-66750000D03*
X110050000Y-71950000D03*
X110050000Y-74450000D03*
D10*
X107061000Y-83058000D03*
D18*
X107061000Y-80518000D03*
D15*
X110236000Y-79375000D03*
D16*
X117856000Y-79375000D03*
D17*
X106553000Y-29083000D03*
X106553000Y-36703000D03*
D13*
X109514000Y-25785000D03*
X109514000Y-28325000D03*
X109514000Y-30865000D03*
X109514000Y-33405000D03*
X109514000Y-35945000D03*
X109514000Y-38485000D03*
X109514000Y-41025000D03*
X109474000Y-43565000D03*
X124714000Y-43565000D03*
X124714000Y-41025000D03*
X124714000Y-38485000D03*
X124714000Y-35945000D03*
X124714000Y-33405000D03*
X124714000Y-30865000D03*
X124714000Y-28325000D03*
X124714000Y-25785000D03*
X107036656Y-60457212D03*
X107036656Y-57917212D03*
X107036656Y-55377212D03*
X107036656Y-52837212D03*
X107036656Y-50297212D03*
D19*
X118694731Y-61950000D03*
X123600000Y-48900000D03*
X121050000Y-61800000D03*
X107150000Y-34050000D03*
X108000000Y-30800000D03*
X106400000Y-62900000D03*
D20*
X124714000Y-36686000D02*
X122650000Y-38750000D01*
X120494000Y-63749269D02*
X120494000Y-79700000D01*
X122650000Y-47450000D02*
X121600000Y-48500000D01*
X117200000Y-48500000D02*
X115408000Y-50292000D01*
X115408000Y-50292000D02*
X114681000Y-50292000D01*
X122650000Y-38750000D02*
X122650000Y-47450000D01*
X121600000Y-48500000D02*
X117200000Y-48500000D01*
X124714000Y-35945000D02*
X124714000Y-36686000D01*
X118694731Y-61950000D02*
X120494000Y-63749269D01*
X124894000Y-52244000D02*
X123600000Y-50950000D01*
X123600000Y-50950000D02*
X123600000Y-48900000D01*
X124894000Y-78700000D02*
X124894000Y-52244000D01*
X121050000Y-63455327D02*
X121250000Y-63655327D01*
X121700000Y-78100000D02*
X121700000Y-80450000D01*
X121050000Y-61800000D02*
X121050000Y-63455327D01*
X120494000Y-81656000D02*
X120494000Y-83700000D01*
X124714000Y-38485000D02*
X123350000Y-39849000D01*
X121700000Y-80450000D02*
X120494000Y-81656000D01*
X121250000Y-77650000D02*
X121700000Y-78100000D01*
X122071000Y-49129000D02*
X118371000Y-49129000D01*
X123350000Y-39849000D02*
X123350000Y-47850000D01*
X121250000Y-63655327D02*
X121250000Y-77650000D01*
X117221000Y-50279000D02*
X117221000Y-50292000D01*
X118371000Y-49129000D02*
X117221000Y-50279000D01*
X123350000Y-47850000D02*
X122071000Y-49129000D01*
X119052024Y-86700000D02*
X113452024Y-81100000D01*
X105873656Y-52226344D02*
X105873656Y-56754212D01*
X106639788Y-51460212D02*
X105873656Y-52226344D01*
X107150000Y-34150000D02*
X107900000Y-34900000D01*
X109601000Y-50292000D02*
X108432788Y-51460212D01*
X118598000Y-51455000D02*
X110764000Y-51455000D01*
X105873656Y-56754212D02*
X107036656Y-57917212D01*
X112650000Y-64150000D02*
X110050000Y-66750000D01*
X119761000Y-50292000D02*
X118598000Y-51455000D01*
X107900000Y-34900000D02*
X107900000Y-48591000D01*
X113452024Y-81100000D02*
X107643000Y-81100000D01*
X119250000Y-64150000D02*
X112650000Y-64150000D01*
X107643000Y-81100000D02*
X107061000Y-80518000D01*
X107900000Y-48591000D02*
X109601000Y-50292000D01*
X107150000Y-34050000D02*
X107150000Y-34150000D01*
X110764000Y-51455000D02*
X109601000Y-50292000D01*
X108432788Y-51460212D02*
X106639788Y-51460212D01*
X120494000Y-86700000D02*
X119052024Y-86700000D01*
X106400000Y-75539000D02*
X106400000Y-62900000D01*
X124714000Y-25785000D02*
X123337000Y-27162000D01*
X108000000Y-27600000D02*
X108000000Y-30800000D01*
X110236000Y-79375000D02*
X106400000Y-75539000D01*
X123337000Y-27162000D02*
X108438000Y-27162000D01*
X108438000Y-27162000D02*
X108000000Y-27600000D01*
X115000000Y-62100000D02*
X115913865Y-61186135D01*
X115913865Y-61186135D02*
X115913865Y-56679135D01*
X110350000Y-62100000D02*
X115000000Y-62100000D01*
X115913865Y-56679135D02*
X122301000Y-50292000D01*
X108707212Y-60457212D02*
X110350000Y-62100000D01*
X107036656Y-60457212D02*
X108707212Y-60457212D01*
X109606212Y-55377212D02*
X107036656Y-55377212D01*
X114681000Y-60452000D02*
X109606212Y-55377212D01*
X107500000Y-32200000D02*
X123509000Y-32200000D01*
X106553000Y-36703000D02*
X106150000Y-36300000D01*
X123509000Y-32200000D02*
X124714000Y-33405000D01*
X106150000Y-36300000D02*
X106150000Y-33550000D01*
X106150000Y-33550000D02*
X107500000Y-32200000D01*
M02*
