G04 #@! TF.GenerationSoftware,KiCad,Pcbnew,9.0.2*
G04 #@! TF.CreationDate,2025-07-15T04:34:08-04:00*
G04 #@! TF.ProjectId,FBT,4642542e-6b69-4636-9164-5f7063625858,rev?*
G04 #@! TF.SameCoordinates,Original*
G04 #@! TF.FileFunction,Copper,L2,Bot*
G04 #@! TF.FilePolarity,Positive*
%FSLAX46Y46*%
G04 Gerber Fmt 4.6, Leading zero omitted, Abs format (unit mm)*
G04 Created by KiCad (PCBNEW 9.0.2) date 2025-07-15 04:34:08*
%MOMM*%
%LPD*%
G01*
G04 APERTURE LIST*
G04 Aperture macros list*
%AMRoundRect*
0 Rectangle with rounded corners*
0 $1 Rounding radius*
0 $2 $3 $4 $5 $6 $7 $8 $9 X,Y pos of 4 corners*
0 Add a 4 corners polygon primitive as box body*
4,1,4,$2,$3,$4,$5,$6,$7,$8,$9,$2,$3,0*
0 Add four circle primitives for the rounded corners*
1,1,$1+$1,$2,$3*
1,1,$1+$1,$4,$5*
1,1,$1+$1,$6,$7*
1,1,$1+$1,$8,$9*
0 Add four rect primitives between the rounded corners*
20,1,$1+$1,$2,$3,$4,$5,0*
20,1,$1+$1,$4,$5,$6,$7,0*
20,1,$1+$1,$6,$7,$8,$9,0*
20,1,$1+$1,$8,$9,$2,$3,0*%
%AMFreePoly0*
4,1,23,0.500000,-0.750000,0.000000,-0.750000,0.000000,-0.745722,-0.065263,-0.745722,-0.191342,-0.711940,-0.304381,-0.646677,-0.396677,-0.554381,-0.461940,-0.441342,-0.495722,-0.315263,-0.495722,-0.250000,-0.500000,-0.250000,-0.500000,0.250000,-0.495722,0.250000,-0.495722,0.315263,-0.461940,0.441342,-0.396677,0.554381,-0.304381,0.646677,-0.191342,0.711940,-0.065263,0.745722,0.000000,0.745722,
0.000000,0.750000,0.500000,0.750000,0.500000,-0.750000,0.500000,-0.750000,$1*%
%AMFreePoly1*
4,1,23,0.000000,0.745722,0.065263,0.745722,0.191342,0.711940,0.304381,0.646677,0.396677,0.554381,0.461940,0.441342,0.495722,0.315263,0.495722,0.250000,0.500000,0.250000,0.500000,-0.250000,0.495722,-0.250000,0.495722,-0.315263,0.461940,-0.441342,0.396677,-0.554381,0.304381,-0.646677,0.191342,-0.711940,0.065263,-0.745722,0.000000,-0.745722,0.000000,-0.750000,-0.500000,-0.750000,
-0.500000,0.750000,0.000000,0.750000,0.000000,0.745722,0.000000,0.745722,$1*%
G04 Aperture macros list end*
G04 #@! TA.AperFunction,EtchedComponent*
%ADD10C,0.000000*%
G04 #@! TD*
G04 #@! TA.AperFunction,ComponentPad*
%ADD11R,1.700000X1.700000*%
G04 #@! TD*
G04 #@! TA.AperFunction,ComponentPad*
%ADD12C,2.100000*%
G04 #@! TD*
G04 #@! TA.AperFunction,ComponentPad*
%ADD13C,1.400000*%
G04 #@! TD*
G04 #@! TA.AperFunction,ComponentPad*
%ADD14C,1.524000*%
G04 #@! TD*
G04 #@! TA.AperFunction,ComponentPad*
%ADD15O,1.600000X2.000000*%
G04 #@! TD*
G04 #@! TA.AperFunction,ComponentPad*
%ADD16RoundRect,0.249999X-0.850001X-0.850001X0.850001X-0.850001X0.850001X0.850001X-0.850001X0.850001X0*%
G04 #@! TD*
G04 #@! TA.AperFunction,ComponentPad*
%ADD17C,2.200000*%
G04 #@! TD*
G04 #@! TA.AperFunction,ComponentPad*
%ADD18C,1.600000*%
G04 #@! TD*
G04 #@! TA.AperFunction,ComponentPad*
%ADD19C,1.700000*%
G04 #@! TD*
G04 #@! TA.AperFunction,SMDPad,CuDef*
%ADD20FreePoly0,270.000000*%
G04 #@! TD*
G04 #@! TA.AperFunction,SMDPad,CuDef*
%ADD21FreePoly1,270.000000*%
G04 #@! TD*
G04 #@! TA.AperFunction,SMDPad,CuDef*
%ADD22FreePoly0,180.000000*%
G04 #@! TD*
G04 #@! TA.AperFunction,SMDPad,CuDef*
%ADD23FreePoly1,180.000000*%
G04 #@! TD*
G04 #@! TA.AperFunction,ViaPad*
%ADD24C,0.600000*%
G04 #@! TD*
G04 #@! TA.AperFunction,Conductor*
%ADD25C,0.400000*%
G04 #@! TD*
G04 APERTURE END LIST*
D10*
G04 #@! TA.AperFunction,EtchedComponent*
G36*
X122600000Y-46500000D02*
G01*
X122000000Y-46500000D01*
X122000000Y-46000000D01*
X122600000Y-46000000D01*
X122600000Y-46500000D01*
G37*
G04 #@! TD.AperFunction*
D11*
X106553000Y-25908000D03*
D12*
X109700000Y-87600000D03*
X117900000Y-87600000D03*
D13*
X111800000Y-87600000D03*
X113800000Y-87600000D03*
X115800000Y-87600000D03*
D14*
X124841000Y-50292000D03*
X122301000Y-50292000D03*
X119761000Y-50292000D03*
X117221000Y-50292000D03*
X114681000Y-50292000D03*
X112141000Y-50292000D03*
X109601000Y-50292000D03*
X112141000Y-60452000D03*
X114681000Y-60452000D03*
X117221000Y-60452000D03*
X119761000Y-60452000D03*
X122301000Y-60452000D03*
D15*
X120494000Y-79700000D03*
X120494000Y-83700000D03*
X120494000Y-86700000D03*
X124894000Y-78700000D03*
D16*
X110236000Y-83000000D03*
D17*
X117856000Y-83000000D03*
D18*
X106553000Y-38862000D03*
X106553000Y-46482000D03*
D14*
X122645980Y-75456462D03*
X122645980Y-63256462D03*
X108745980Y-63356462D03*
X108745980Y-65856462D03*
X108745980Y-72856462D03*
X108745980Y-75356462D03*
X119250000Y-74550000D03*
X119250000Y-64150000D03*
X110050000Y-64250000D03*
X110050000Y-66750000D03*
X110050000Y-71950000D03*
X110050000Y-74450000D03*
D11*
X107061000Y-83058000D03*
D19*
X107061000Y-80518000D03*
D16*
X110236000Y-79375000D03*
D17*
X117856000Y-79375000D03*
D18*
X106553000Y-29083000D03*
X106553000Y-36703000D03*
D14*
X109514000Y-25785000D03*
X109514000Y-28325000D03*
X109514000Y-30865000D03*
X109514000Y-33405000D03*
X109514000Y-35945000D03*
X109514000Y-38485000D03*
X109514000Y-41025000D03*
X109474000Y-43565000D03*
X124714000Y-43565000D03*
X124714000Y-41025000D03*
X124714000Y-38485000D03*
X124714000Y-35945000D03*
X124714000Y-33405000D03*
X124714000Y-30865000D03*
X124714000Y-28325000D03*
X124714000Y-25785000D03*
X107036656Y-60457212D03*
X107036656Y-57917212D03*
X107036656Y-55377212D03*
X107036656Y-52837212D03*
X107036656Y-50297212D03*
D20*
X122300000Y-45600000D03*
D21*
X122300000Y-46900000D03*
D22*
X124000000Y-53350000D03*
D23*
X122700000Y-53350000D03*
D24*
X118694731Y-61950000D03*
X123600000Y-48900000D03*
X121050000Y-61800000D03*
X107150000Y-34050000D03*
X108000000Y-30800000D03*
X106400000Y-62900000D03*
D25*
X118500000Y-54111000D02*
X114681000Y-50292000D01*
X118500000Y-61755269D02*
X118500000Y-54111000D01*
X118694731Y-61950000D02*
X118500000Y-61755269D01*
X123785000Y-30865000D02*
X122300000Y-32350000D01*
X123600000Y-48900000D02*
X123600000Y-46145000D01*
X122300000Y-32350000D02*
X122300000Y-45600000D01*
X123055000Y-45600000D02*
X122300000Y-45600000D01*
X124714000Y-30865000D02*
X123785000Y-30865000D01*
X123600000Y-46145000D02*
X123055000Y-45600000D01*
X121050000Y-61800000D02*
X121050000Y-54121000D01*
X121050000Y-54121000D02*
X117221000Y-50292000D01*
X107582980Y-62874731D02*
X107582980Y-64693462D01*
X107036656Y-57917212D02*
X108199656Y-59080212D01*
X106553000Y-25908000D02*
X106553000Y-29083000D01*
X107061000Y-67541442D02*
X108745980Y-65856462D01*
X108745980Y-65856462D02*
X109156462Y-65856462D01*
X108199656Y-59080212D02*
X108199656Y-62258055D01*
X119250000Y-64150000D02*
X121752442Y-64150000D01*
X121752442Y-64150000D02*
X122645980Y-63256462D01*
X124714000Y-28325000D02*
X123551000Y-27162000D01*
X106553000Y-33453000D02*
X106553000Y-29083000D01*
X108199656Y-62258055D02*
X107582980Y-62874731D01*
X123551000Y-27162000D02*
X108474000Y-27162000D01*
X107150000Y-34050000D02*
X106553000Y-33453000D01*
X109156462Y-65856462D02*
X110050000Y-66750000D01*
X107582980Y-64693462D02*
X108745980Y-65856462D01*
X107061000Y-80518000D02*
X107061000Y-67541442D01*
X108474000Y-27162000D02*
X106553000Y-29083000D01*
X111550000Y-85350000D02*
X109353000Y-85350000D01*
X111600000Y-73500000D02*
X110050000Y-71950000D01*
X109143538Y-72856462D02*
X110050000Y-71950000D01*
X111600000Y-75150000D02*
X111600000Y-73500000D01*
X109353000Y-85350000D02*
X107061000Y-83058000D01*
X108745980Y-72856462D02*
X109143538Y-72856462D01*
X108312000Y-78438000D02*
X111600000Y-75150000D01*
X108312000Y-81807000D02*
X108312000Y-78438000D01*
X113800000Y-87600000D02*
X111550000Y-85350000D01*
X107061000Y-83058000D02*
X108312000Y-81807000D01*
X117856000Y-75944000D02*
X119250000Y-74550000D01*
X117856000Y-79375000D02*
X117856000Y-75944000D01*
X119250000Y-74550000D02*
X121739518Y-74550000D01*
X121739518Y-74550000D02*
X122645980Y-75456462D01*
X105873656Y-62373656D02*
X106400000Y-62900000D01*
X120427731Y-49100000D02*
X107789137Y-49100000D01*
X107789137Y-49100000D02*
X107189137Y-48500000D01*
X110236000Y-83000000D02*
X110236000Y-79375000D01*
X108000000Y-45035000D02*
X106553000Y-46482000D01*
X106553000Y-46482000D02*
X106553000Y-47863863D01*
X106553000Y-47863863D02*
X107189137Y-48500000D01*
X105873656Y-49815481D02*
X105873656Y-62373656D01*
X122700000Y-53350000D02*
X121138000Y-51788000D01*
X121138000Y-51788000D02*
X121138000Y-49810269D01*
X121138000Y-49810269D02*
X120427731Y-49100000D01*
X107189137Y-48500000D02*
X105873656Y-49815481D01*
X108000000Y-30800000D02*
X108000000Y-45035000D01*
X115800000Y-85056000D02*
X117856000Y-83000000D01*
X115800000Y-87600000D02*
X115800000Y-85056000D01*
X122301000Y-46999000D02*
X122301000Y-50292000D01*
X112141000Y-57941556D02*
X107036656Y-52837212D01*
X112141000Y-60452000D02*
X112141000Y-57941556D01*
X124000000Y-51133000D02*
X124841000Y-50292000D01*
X124000000Y-53350000D02*
X124000000Y-51133000D01*
X106553000Y-36703000D02*
X106600000Y-36656000D01*
X106553000Y-38862000D02*
X106553000Y-36703000D01*
G04 #@! TA.AperFunction,Conductor*
G36*
X106595075Y-80710993D02*
G01*
X106660901Y-80825007D01*
X106753993Y-80918099D01*
X106868007Y-80983925D01*
X106931589Y-81000962D01*
X106299282Y-81633269D01*
X106299282Y-81633270D01*
X106353449Y-81672624D01*
X106547121Y-81771306D01*
X106546603Y-81772321D01*
X106596808Y-81812779D01*
X106618873Y-81879073D01*
X106601594Y-81946772D01*
X106550458Y-81994383D01*
X106494952Y-82007500D01*
X106191247Y-82007500D01*
X106132770Y-82019131D01*
X106132769Y-82019132D01*
X106066447Y-82063447D01*
X106022132Y-82129769D01*
X106022131Y-82129770D01*
X106010500Y-82188247D01*
X106010500Y-83927752D01*
X106022131Y-83986229D01*
X106022132Y-83986230D01*
X106066447Y-84052552D01*
X106132769Y-84096867D01*
X106132770Y-84096868D01*
X106191247Y-84108499D01*
X106191250Y-84108500D01*
X106191252Y-84108500D01*
X107493745Y-84108500D01*
X107560784Y-84128185D01*
X107581426Y-84144819D01*
X109032519Y-85595912D01*
X109032520Y-85595913D01*
X109107087Y-85670480D01*
X109198413Y-85723207D01*
X109300273Y-85750500D01*
X109405726Y-85750500D01*
X111332745Y-85750500D01*
X111399784Y-85770185D01*
X111420426Y-85786819D01*
X112154410Y-86520803D01*
X112187895Y-86582126D01*
X112182911Y-86651818D01*
X112141039Y-86707751D01*
X112075575Y-86732168D01*
X112042538Y-86730101D01*
X111888695Y-86699500D01*
X111888691Y-86699500D01*
X111711309Y-86699500D01*
X111711306Y-86699500D01*
X111537341Y-86734103D01*
X111537332Y-86734106D01*
X111373459Y-86801983D01*
X111373446Y-86801990D01*
X111225965Y-86900535D01*
X111225961Y-86900538D01*
X111100536Y-87025963D01*
X111053793Y-87095918D01*
X111000180Y-87140722D01*
X110930855Y-87149428D01*
X110867828Y-87119272D01*
X110840207Y-87083319D01*
X110769525Y-86944596D01*
X110752144Y-86920674D01*
X110653828Y-86785354D01*
X110514646Y-86646172D01*
X110355405Y-86530476D01*
X110302071Y-86503301D01*
X110180029Y-86441117D01*
X109992826Y-86380290D01*
X109798422Y-86349500D01*
X109798417Y-86349500D01*
X109601583Y-86349500D01*
X109601578Y-86349500D01*
X109407173Y-86380290D01*
X109219970Y-86441117D01*
X109044594Y-86530476D01*
X108973505Y-86582126D01*
X108885354Y-86646172D01*
X108885352Y-86646174D01*
X108885351Y-86646174D01*
X108746174Y-86785351D01*
X108746174Y-86785352D01*
X108746172Y-86785354D01*
X108696485Y-86853741D01*
X108630476Y-86944594D01*
X108541117Y-87119970D01*
X108480290Y-87307173D01*
X108449500Y-87501577D01*
X108449500Y-87698422D01*
X108480290Y-87892826D01*
X108541117Y-88080029D01*
X108626979Y-88248541D01*
X108630476Y-88255405D01*
X108746172Y-88414646D01*
X108885354Y-88553828D01*
X109044595Y-88669524D01*
X109127455Y-88711743D01*
X109219970Y-88758882D01*
X109219972Y-88758882D01*
X109219975Y-88758884D01*
X109308923Y-88787785D01*
X109407173Y-88819709D01*
X109601578Y-88850500D01*
X109601583Y-88850500D01*
X109798422Y-88850500D01*
X109992826Y-88819709D01*
X110180025Y-88758884D01*
X110355405Y-88669524D01*
X110514646Y-88553828D01*
X110653828Y-88414646D01*
X110769524Y-88255405D01*
X110840208Y-88116678D01*
X110888181Y-88065884D01*
X110956002Y-88049088D01*
X111022137Y-88071625D01*
X111053793Y-88104082D01*
X111100533Y-88174032D01*
X111100538Y-88174038D01*
X111225961Y-88299461D01*
X111225965Y-88299464D01*
X111373446Y-88398009D01*
X111373459Y-88398016D01*
X111479235Y-88441829D01*
X111537334Y-88465894D01*
X111537336Y-88465894D01*
X111537341Y-88465896D01*
X111711304Y-88500499D01*
X111711307Y-88500500D01*
X111711309Y-88500500D01*
X111888693Y-88500500D01*
X111888694Y-88500499D01*
X111946682Y-88488964D01*
X112062658Y-88465896D01*
X112062661Y-88465894D01*
X112062666Y-88465894D01*
X112226547Y-88398013D01*
X112374035Y-88299464D01*
X112499464Y-88174035D01*
X112598013Y-88026547D01*
X112665894Y-87862666D01*
X112666789Y-87858170D01*
X112678383Y-87799882D01*
X112710768Y-87737971D01*
X112771483Y-87703397D01*
X112841253Y-87707136D01*
X112897925Y-87748003D01*
X112921617Y-87799882D01*
X112934103Y-87862658D01*
X112934106Y-87862667D01*
X113001983Y-88026540D01*
X113001990Y-88026553D01*
X113100535Y-88174034D01*
X113100538Y-88174038D01*
X113225961Y-88299461D01*
X113225965Y-88299464D01*
X113373446Y-88398009D01*
X113373459Y-88398016D01*
X113479235Y-88441829D01*
X113537334Y-88465894D01*
X113537336Y-88465894D01*
X113537341Y-88465896D01*
X113711304Y-88500499D01*
X113711307Y-88500500D01*
X113711309Y-88500500D01*
X113888693Y-88500500D01*
X113888694Y-88500499D01*
X113946682Y-88488964D01*
X114062658Y-88465896D01*
X114062661Y-88465894D01*
X114062666Y-88465894D01*
X114226547Y-88398013D01*
X114374035Y-88299464D01*
X114499464Y-88174035D01*
X114598013Y-88026547D01*
X114665894Y-87862666D01*
X114666789Y-87858170D01*
X114678383Y-87799882D01*
X114710768Y-87737971D01*
X114771483Y-87703397D01*
X114841253Y-87707136D01*
X114897925Y-87748003D01*
X114921617Y-87799882D01*
X114934103Y-87862658D01*
X114934106Y-87862667D01*
X115001983Y-88026540D01*
X115001990Y-88026553D01*
X115100535Y-88174034D01*
X115100538Y-88174038D01*
X115225961Y-88299461D01*
X115225965Y-88299464D01*
X115373446Y-88398009D01*
X115373459Y-88398016D01*
X115479235Y-88441829D01*
X115537334Y-88465894D01*
X115537336Y-88465894D01*
X115537341Y-88465896D01*
X115711304Y-88500499D01*
X115711307Y-88500500D01*
X115711309Y-88500500D01*
X115888693Y-88500500D01*
X115888694Y-88500499D01*
X115946682Y-88488964D01*
X116062658Y-88465896D01*
X116062661Y-88465894D01*
X116062666Y-88465894D01*
X116226547Y-88398013D01*
X116374035Y-88299464D01*
X116499464Y-88174035D01*
X116537788Y-88116679D01*
X116546205Y-88104083D01*
X116599817Y-88059278D01*
X116669142Y-88050571D01*
X116732170Y-88080726D01*
X116759792Y-88116679D01*
X116830476Y-88255405D01*
X116946172Y-88414646D01*
X117085354Y-88553828D01*
X117244595Y-88669524D01*
X117327455Y-88711743D01*
X117419970Y-88758882D01*
X117419972Y-88758882D01*
X117419975Y-88758884D01*
X117508923Y-88787785D01*
X117607173Y-88819709D01*
X117801578Y-88850500D01*
X117801583Y-88850500D01*
X117998422Y-88850500D01*
X118192826Y-88819709D01*
X118380025Y-88758884D01*
X118555405Y-88669524D01*
X118714646Y-88553828D01*
X118853828Y-88414646D01*
X118969524Y-88255405D01*
X119058884Y-88080025D01*
X119119709Y-87892826D01*
X119125199Y-87858164D01*
X119150500Y-87698422D01*
X119150500Y-87643017D01*
X119170185Y-87575978D01*
X119222989Y-87530223D01*
X119292147Y-87520279D01*
X119355703Y-87549304D01*
X119380232Y-87578235D01*
X119382139Y-87581348D01*
X119502417Y-87746894D01*
X119502417Y-87746895D01*
X119647104Y-87891582D01*
X119812650Y-88011859D01*
X119994968Y-88104754D01*
X120189578Y-88167988D01*
X120244000Y-88176607D01*
X120244000Y-87344975D01*
X120279095Y-87380070D01*
X120358905Y-87426148D01*
X120447922Y-87450000D01*
X120540078Y-87450000D01*
X120629095Y-87426148D01*
X120708905Y-87380070D01*
X120744000Y-87344975D01*
X120744000Y-88176606D01*
X120798421Y-88167988D01*
X120993031Y-88104754D01*
X121175349Y-88011859D01*
X121340894Y-87891582D01*
X121340895Y-87891582D01*
X121485581Y-87746896D01*
X121550087Y-87658111D01*
X121605417Y-87615445D01*
X121675030Y-87609466D01*
X121736826Y-87642071D01*
X121771183Y-87702910D01*
X121767195Y-87772665D01*
X121764968Y-87778447D01*
X121731949Y-87858164D01*
X121731947Y-87858170D01*
X121693500Y-88051456D01*
X121693500Y-88051459D01*
X121693500Y-88248541D01*
X121693500Y-88248543D01*
X121693499Y-88248543D01*
X121731947Y-88441829D01*
X121731950Y-88441839D01*
X121807364Y-88623907D01*
X121807371Y-88623920D01*
X121916860Y-88787781D01*
X121916863Y-88787785D01*
X122056214Y-88927136D01*
X122056218Y-88927139D01*
X122220079Y-89036628D01*
X122225456Y-89039502D01*
X122224665Y-89040980D01*
X122272813Y-89079775D01*
X122294881Y-89146068D01*
X122277605Y-89213769D01*
X122226470Y-89261381D01*
X122170960Y-89274500D01*
X105702500Y-89274500D01*
X105635461Y-89254815D01*
X105589706Y-89202011D01*
X105578500Y-89150500D01*
X105578500Y-81098558D01*
X105598185Y-81031519D01*
X105650989Y-80985764D01*
X105720147Y-80975820D01*
X105783703Y-81004845D01*
X105812985Y-81042263D01*
X105906375Y-81225550D01*
X105945728Y-81279716D01*
X106578037Y-80647408D01*
X106595075Y-80710993D01*
G37*
G04 #@! TD.AperFunction*
G04 #@! TA.AperFunction,Conductor*
G36*
X108452603Y-49520185D02*
G01*
X108498358Y-49572989D01*
X108508302Y-49642147D01*
X108496049Y-49680795D01*
X108431457Y-49807562D01*
X108370075Y-49996476D01*
X108370075Y-49996479D01*
X108339000Y-50192678D01*
X108339000Y-50391321D01*
X108370075Y-50587520D01*
X108370075Y-50587523D01*
X108431457Y-50776437D01*
X108521641Y-50953432D01*
X108548730Y-50990715D01*
X109158861Y-50380584D01*
X109181667Y-50465694D01*
X109240910Y-50568306D01*
X109324694Y-50652090D01*
X109427306Y-50711333D01*
X109512414Y-50734137D01*
X108902283Y-51344268D01*
X108902283Y-51344269D01*
X108939567Y-51371358D01*
X109116562Y-51461542D01*
X109305477Y-51522924D01*
X109501679Y-51554000D01*
X109700321Y-51554000D01*
X109896520Y-51522924D01*
X109896523Y-51522924D01*
X110085437Y-51461542D01*
X110262425Y-51371362D01*
X110299716Y-51344268D01*
X109689585Y-50734137D01*
X109774694Y-50711333D01*
X109877306Y-50652090D01*
X109961090Y-50568306D01*
X110020333Y-50465694D01*
X110043138Y-50380585D01*
X110653268Y-50990715D01*
X110680362Y-50953425D01*
X110770542Y-50776437D01*
X110831924Y-50587523D01*
X110831924Y-50587520D01*
X110863000Y-50391321D01*
X110863000Y-50192678D01*
X110831924Y-49996479D01*
X110831924Y-49996476D01*
X110770542Y-49807562D01*
X110705951Y-49680795D01*
X110693055Y-49612126D01*
X110719331Y-49547385D01*
X110776438Y-49507128D01*
X110816436Y-49500500D01*
X111280287Y-49500500D01*
X111347326Y-49520185D01*
X111393081Y-49572989D01*
X111403025Y-49642147D01*
X111383389Y-49693391D01*
X111288042Y-49836087D01*
X111215488Y-50011248D01*
X111215486Y-50011256D01*
X111178500Y-50197197D01*
X111178500Y-50386802D01*
X111215486Y-50572743D01*
X111215488Y-50572751D01*
X111288042Y-50747912D01*
X111393377Y-50905558D01*
X111527441Y-51039622D01*
X111564686Y-51064508D01*
X111685085Y-51144956D01*
X111685086Y-51144956D01*
X111685087Y-51144957D01*
X111697670Y-51150169D01*
X111860249Y-51217512D01*
X112030517Y-51251380D01*
X112046197Y-51254499D01*
X112046201Y-51254500D01*
X112046202Y-51254500D01*
X112235799Y-51254500D01*
X112235800Y-51254499D01*
X112421751Y-51217512D01*
X112596915Y-51144956D01*
X112754558Y-51039622D01*
X112888622Y-50905558D01*
X112993956Y-50747915D01*
X113066512Y-50572751D01*
X113103500Y-50386798D01*
X113103500Y-50197202D01*
X113066512Y-50011249D01*
X112993956Y-49836085D01*
X112898611Y-49693391D01*
X112877733Y-49626713D01*
X112896218Y-49559333D01*
X112948197Y-49512643D01*
X113001713Y-49500500D01*
X113820287Y-49500500D01*
X113887326Y-49520185D01*
X113933081Y-49572989D01*
X113943025Y-49642147D01*
X113923389Y-49693391D01*
X113828042Y-49836087D01*
X113755488Y-50011248D01*
X113755486Y-50011256D01*
X113718500Y-50197197D01*
X113718500Y-50386802D01*
X113755486Y-50572743D01*
X113755488Y-50572751D01*
X113828042Y-50747912D01*
X113933377Y-50905558D01*
X114067441Y-51039622D01*
X114104686Y-51064508D01*
X114225085Y-51144956D01*
X114225086Y-51144956D01*
X114225087Y-51144957D01*
X114237670Y-51150169D01*
X114400249Y-51217512D01*
X114570517Y-51251380D01*
X114586197Y-51254499D01*
X114586201Y-51254500D01*
X114586202Y-51254500D01*
X114775799Y-51254500D01*
X114775799Y-51254499D01*
X114961751Y-51217512D01*
X114961753Y-51217510D01*
X114962110Y-51217440D01*
X115031702Y-51223667D01*
X115073983Y-51251376D01*
X118063181Y-54240573D01*
X118096666Y-54301896D01*
X118099500Y-54328254D01*
X118099500Y-59669957D01*
X118079815Y-59736996D01*
X118027011Y-59782751D01*
X117957853Y-59792695D01*
X117894297Y-59763670D01*
X117887819Y-59757638D01*
X117834558Y-59704377D01*
X117676912Y-59599042D01*
X117501751Y-59526488D01*
X117501743Y-59526486D01*
X117315802Y-59489500D01*
X117315798Y-59489500D01*
X117126202Y-59489500D01*
X117126197Y-59489500D01*
X116940256Y-59526486D01*
X116940248Y-59526488D01*
X116765087Y-59599042D01*
X116607441Y-59704377D01*
X116473377Y-59838441D01*
X116368042Y-59996087D01*
X116295488Y-60171248D01*
X116295486Y-60171256D01*
X116258500Y-60357197D01*
X116258500Y-60546802D01*
X116295486Y-60732743D01*
X116295488Y-60732751D01*
X116368042Y-60907912D01*
X116473377Y-61065558D01*
X116607441Y-61199622D01*
X116659191Y-61234200D01*
X116765085Y-61304956D01*
X116765086Y-61304956D01*
X116765087Y-61304957D01*
X116777670Y-61310169D01*
X116940249Y-61377512D01*
X117126197Y-61414499D01*
X117126201Y-61414500D01*
X117126202Y-61414500D01*
X117315799Y-61414500D01*
X117315800Y-61414499D01*
X117501751Y-61377512D01*
X117676915Y-61304956D01*
X117834558Y-61199622D01*
X117859818Y-61174362D01*
X117887819Y-61146362D01*
X117949142Y-61112877D01*
X118018834Y-61117861D01*
X118074767Y-61159733D01*
X118099184Y-61225197D01*
X118099500Y-61234043D01*
X118099500Y-61807995D01*
X118126793Y-61909858D01*
X118146092Y-61943285D01*
X118179520Y-62001182D01*
X118179524Y-62001186D01*
X118181049Y-62003174D01*
X118183265Y-62007668D01*
X118183584Y-62008220D01*
X118183547Y-62008240D01*
X118202450Y-62046569D01*
X118228339Y-62143186D01*
X118294231Y-62257314D01*
X118387417Y-62350500D01*
X118501545Y-62416392D01*
X118628839Y-62450500D01*
X118628841Y-62450500D01*
X118760621Y-62450500D01*
X118760623Y-62450500D01*
X118887917Y-62416392D01*
X119002045Y-62350500D01*
X119095231Y-62257314D01*
X119161123Y-62143186D01*
X119195231Y-62015892D01*
X119195231Y-61884108D01*
X119161123Y-61756814D01*
X119095231Y-61642686D01*
X119002045Y-61549500D01*
X118999909Y-61548266D01*
X118962499Y-61526667D01*
X118954216Y-61517980D01*
X118943297Y-61512994D01*
X118930550Y-61493160D01*
X118914284Y-61476100D01*
X118911068Y-61462844D01*
X118905523Y-61454216D01*
X118900500Y-61419281D01*
X118900500Y-61252043D01*
X118920185Y-61185004D01*
X118972989Y-61139249D01*
X119042147Y-61129305D01*
X119105703Y-61158330D01*
X119112181Y-61164362D01*
X119147441Y-61199622D01*
X119199191Y-61234200D01*
X119305085Y-61304956D01*
X119305086Y-61304956D01*
X119305087Y-61304957D01*
X119317670Y-61310169D01*
X119480249Y-61377512D01*
X119666197Y-61414499D01*
X119666201Y-61414500D01*
X119666202Y-61414500D01*
X119855799Y-61414500D01*
X119855800Y-61414499D01*
X120041751Y-61377512D01*
X120216915Y-61304956D01*
X120374558Y-61199622D01*
X120405850Y-61168330D01*
X120437819Y-61136362D01*
X120457255Y-61125749D01*
X120473989Y-61111249D01*
X120487320Y-61109332D01*
X120499142Y-61102877D01*
X120521228Y-61104456D01*
X120543147Y-61101305D01*
X120555398Y-61106900D01*
X120568834Y-61107861D01*
X120586560Y-61121131D01*
X120606703Y-61130330D01*
X120613985Y-61141661D01*
X120624767Y-61149733D01*
X120632504Y-61170478D01*
X120644477Y-61189108D01*
X120647628Y-61211026D01*
X120649184Y-61215197D01*
X120649500Y-61224043D01*
X120649500Y-61459460D01*
X120632887Y-61521460D01*
X120583609Y-61606810D01*
X120583609Y-61606811D01*
X120583608Y-61606813D01*
X120583608Y-61606814D01*
X120549500Y-61734108D01*
X120549500Y-61865892D01*
X120561280Y-61909857D01*
X120583608Y-61993187D01*
X120596717Y-62015892D01*
X120649500Y-62107314D01*
X120742686Y-62200500D01*
X120856814Y-62266392D01*
X120984108Y-62300500D01*
X120984110Y-62300500D01*
X121115890Y-62300500D01*
X121115892Y-62300500D01*
X121243186Y-62266392D01*
X121357314Y-62200500D01*
X121450500Y-62107314D01*
X121516392Y-61993186D01*
X121550500Y-61865892D01*
X121550500Y-61734108D01*
X121516392Y-61606814D01*
X121483299Y-61549496D01*
X121467113Y-61521460D01*
X121462962Y-61505971D01*
X121455523Y-61494395D01*
X121450500Y-61459460D01*
X121450500Y-61262043D01*
X121470185Y-61195004D01*
X121522989Y-61149249D01*
X121592147Y-61139305D01*
X121655703Y-61168330D01*
X121662181Y-61174362D01*
X121687441Y-61199622D01*
X121739191Y-61234200D01*
X121845085Y-61304956D01*
X121845086Y-61304956D01*
X121845087Y-61304957D01*
X121857670Y-61310169D01*
X122020249Y-61377512D01*
X122206197Y-61414499D01*
X122206201Y-61414500D01*
X122206202Y-61414500D01*
X122395799Y-61414500D01*
X122395800Y-61414499D01*
X122581751Y-61377512D01*
X122756915Y-61304956D01*
X122914558Y-61199622D01*
X123048622Y-61065558D01*
X123153956Y-60907915D01*
X123226512Y-60732751D01*
X123263500Y-60546798D01*
X123263500Y-60357202D01*
X123226512Y-60171249D01*
X123153956Y-59996085D01*
X123118686Y-59943300D01*
X123048622Y-59838441D01*
X122914558Y-59704377D01*
X122756912Y-59599042D01*
X122581751Y-59526488D01*
X122581743Y-59526486D01*
X122395802Y-59489500D01*
X122395798Y-59489500D01*
X122206202Y-59489500D01*
X122206197Y-59489500D01*
X122020256Y-59526486D01*
X122020248Y-59526488D01*
X121845087Y-59599042D01*
X121687441Y-59704377D01*
X121687438Y-59704380D01*
X121662181Y-59729638D01*
X121600858Y-59763123D01*
X121531166Y-59758139D01*
X121475233Y-59716267D01*
X121450816Y-59650803D01*
X121450500Y-59641957D01*
X121450500Y-54183729D01*
X121450501Y-54183716D01*
X121450501Y-54068274D01*
X121450501Y-54068273D01*
X121423207Y-53966413D01*
X121370480Y-53875087D01*
X121295913Y-53800520D01*
X121295912Y-53800519D01*
X121291582Y-53796189D01*
X121291571Y-53796179D01*
X119719045Y-52223653D01*
X119168313Y-51672920D01*
X119134829Y-51611599D01*
X119139813Y-51541907D01*
X119181685Y-51485974D01*
X119247149Y-51461557D01*
X119294313Y-51467310D01*
X119465477Y-51522924D01*
X119661679Y-51554000D01*
X119860321Y-51554000D01*
X120056520Y-51522924D01*
X120056523Y-51522924D01*
X120245437Y-51461542D01*
X120422432Y-51371358D01*
X120540614Y-51285494D01*
X120606421Y-51262014D01*
X120674474Y-51277839D01*
X120723169Y-51327945D01*
X120737500Y-51385812D01*
X120737500Y-51840726D01*
X120764793Y-51942589D01*
X120788849Y-51984254D01*
X120817520Y-52033913D01*
X120817521Y-52033914D01*
X120817522Y-52033915D01*
X121958181Y-53174573D01*
X121991666Y-53235896D01*
X121994500Y-53262254D01*
X121994500Y-53665832D01*
X122001502Y-53719007D01*
X122001503Y-53719014D01*
X122023343Y-53800520D01*
X122035580Y-53846188D01*
X122056101Y-53895731D01*
X122056108Y-53895745D01*
X122121934Y-54009759D01*
X122154590Y-54052316D01*
X122247683Y-54145409D01*
X122284589Y-54173729D01*
X122290243Y-54178067D01*
X122404257Y-54243893D01*
X122404262Y-54243895D01*
X122404268Y-54243898D01*
X122453811Y-54264419D01*
X122453813Y-54264419D01*
X122453819Y-54264422D01*
X122580986Y-54298497D01*
X122634174Y-54305500D01*
X122634180Y-54305500D01*
X123200003Y-54305500D01*
X123200003Y-54305499D01*
X123245728Y-54300348D01*
X123273669Y-54286892D01*
X123290354Y-54278857D01*
X123359295Y-54267504D01*
X123396336Y-54283055D01*
X123398248Y-54279087D01*
X123410835Y-54285148D01*
X123410836Y-54285148D01*
X123410837Y-54285149D01*
X123477428Y-54300348D01*
X123499995Y-54305499D01*
X123500000Y-54305500D01*
X124065820Y-54305500D01*
X124065826Y-54305500D01*
X124119014Y-54298497D01*
X124246181Y-54264422D01*
X124295743Y-54243893D01*
X124409757Y-54178067D01*
X124452317Y-54145409D01*
X124545409Y-54052317D01*
X124578067Y-54009757D01*
X124643893Y-53895743D01*
X124664422Y-53846181D01*
X124698497Y-53719014D01*
X124705500Y-53665826D01*
X124705500Y-53034174D01*
X124698497Y-52980986D01*
X124664422Y-52853819D01*
X124643893Y-52804257D01*
X124578067Y-52690243D01*
X124545409Y-52647683D01*
X124452317Y-52554591D01*
X124452316Y-52554590D01*
X124452307Y-52554582D01*
X124449012Y-52552054D01*
X124407810Y-52495626D01*
X124400500Y-52453680D01*
X124400500Y-51350254D01*
X124409142Y-51320819D01*
X124415665Y-51290832D01*
X124419422Y-51285812D01*
X124420185Y-51283215D01*
X124436815Y-51262577D01*
X124439681Y-51259711D01*
X124448013Y-51251378D01*
X124509332Y-51217892D01*
X124559887Y-51217440D01*
X124560249Y-51217512D01*
X124746199Y-51254499D01*
X124746201Y-51254500D01*
X124746202Y-51254500D01*
X124935799Y-51254500D01*
X124935800Y-51254499D01*
X125121751Y-51217512D01*
X125296915Y-51144956D01*
X125400610Y-51075668D01*
X125467286Y-51054791D01*
X125534666Y-51073275D01*
X125581357Y-51125254D01*
X125593500Y-51178771D01*
X125593500Y-77532111D01*
X125573815Y-77599150D01*
X125521011Y-77644905D01*
X125451853Y-77654849D01*
X125400610Y-77635214D01*
X125367918Y-77613370D01*
X125367907Y-77613364D01*
X125185839Y-77537950D01*
X125185829Y-77537947D01*
X124992543Y-77499500D01*
X124992541Y-77499500D01*
X124795459Y-77499500D01*
X124795457Y-77499500D01*
X124602170Y-77537947D01*
X124602160Y-77537950D01*
X124420092Y-77613364D01*
X124420079Y-77613371D01*
X124256218Y-77722860D01*
X124256214Y-77722863D01*
X124116863Y-77862214D01*
X124116860Y-77862218D01*
X124007371Y-78026079D01*
X124007364Y-78026092D01*
X123931950Y-78208160D01*
X123931947Y-78208170D01*
X123893500Y-78401456D01*
X123893500Y-78401459D01*
X123893500Y-78998541D01*
X123893500Y-78998543D01*
X123893499Y-78998543D01*
X123931947Y-79191829D01*
X123931950Y-79191839D01*
X124007364Y-79373907D01*
X124007371Y-79373920D01*
X124116860Y-79537781D01*
X124116863Y-79537785D01*
X124256214Y-79677136D01*
X124256218Y-79677139D01*
X124420079Y-79786628D01*
X124420092Y-79786635D01*
X124602160Y-79862049D01*
X124602165Y-79862051D01*
X124602169Y-79862051D01*
X124602170Y-79862052D01*
X124795456Y-79900500D01*
X124795459Y-79900500D01*
X124992543Y-79900500D01*
X125124663Y-79874219D01*
X125185835Y-79862051D01*
X125367914Y-79786632D01*
X125400609Y-79764785D01*
X125467285Y-79743908D01*
X125534666Y-79762392D01*
X125581356Y-79814370D01*
X125593500Y-79867888D01*
X125593500Y-89150500D01*
X125573815Y-89217539D01*
X125521011Y-89263294D01*
X125469500Y-89274500D01*
X123217040Y-89274500D01*
X123150001Y-89254815D01*
X123104246Y-89202011D01*
X123094302Y-89132853D01*
X123123327Y-89069297D01*
X123163129Y-89040597D01*
X123162544Y-89039502D01*
X123167907Y-89036634D01*
X123167914Y-89036632D01*
X123331782Y-88927139D01*
X123471139Y-88787782D01*
X123580632Y-88623914D01*
X123656051Y-88441835D01*
X123684371Y-88299464D01*
X123694500Y-88248543D01*
X123694500Y-88051456D01*
X123656052Y-87858170D01*
X123656051Y-87858169D01*
X123656051Y-87858165D01*
X123610421Y-87748003D01*
X123580635Y-87676092D01*
X123580628Y-87676079D01*
X123471139Y-87512218D01*
X123471136Y-87512214D01*
X123331785Y-87372863D01*
X123331781Y-87372860D01*
X123167920Y-87263371D01*
X123167907Y-87263364D01*
X122985839Y-87187950D01*
X122985829Y-87187947D01*
X122792543Y-87149500D01*
X122792541Y-87149500D01*
X122595459Y-87149500D01*
X122595457Y-87149500D01*
X122402170Y-87187947D01*
X122402160Y-87187950D01*
X122220092Y-87263364D01*
X122220079Y-87263371D01*
X122056218Y-87372860D01*
X122056214Y-87372863D01*
X121916863Y-87512214D01*
X121912997Y-87516926D01*
X121911344Y-87515569D01*
X121865130Y-87554168D01*
X121795802Y-87562853D01*
X121732784Y-87532678D01*
X121696084Y-87473223D01*
X121697353Y-87403365D01*
X121697745Y-87402137D01*
X121761990Y-87204417D01*
X121794000Y-87002317D01*
X121794000Y-86950000D01*
X120844000Y-86950000D01*
X120844000Y-86450000D01*
X121794000Y-86450000D01*
X121794000Y-86397682D01*
X121761990Y-86195582D01*
X121698755Y-86000968D01*
X121605859Y-85818650D01*
X121485582Y-85653105D01*
X121485582Y-85653104D01*
X121340895Y-85508417D01*
X121175349Y-85388140D01*
X120993029Y-85295244D01*
X120798413Y-85232009D01*
X120744000Y-85223390D01*
X120744000Y-86055025D01*
X120708905Y-86019930D01*
X120629095Y-85973852D01*
X120540078Y-85950000D01*
X120447922Y-85950000D01*
X120358905Y-85973852D01*
X120279095Y-86019930D01*
X120244000Y-86055025D01*
X120244000Y-85223390D01*
X120189586Y-85232009D01*
X119994970Y-85295244D01*
X119812650Y-85388140D01*
X119647105Y-85508417D01*
X119647104Y-85508417D01*
X119502417Y-85653104D01*
X119502417Y-85653105D01*
X119382140Y-85818650D01*
X119289244Y-86000968D01*
X119226009Y-86195582D01*
X119194000Y-86397682D01*
X119194000Y-86450000D01*
X120144000Y-86450000D01*
X120144000Y-86950000D01*
X119194000Y-86950000D01*
X119167800Y-86976200D01*
X119106476Y-87009684D01*
X119036785Y-87004699D01*
X118980851Y-86962828D01*
X118972080Y-86948739D01*
X118972069Y-86948747D01*
X118971048Y-86947082D01*
X118969629Y-86944803D01*
X118969524Y-86944595D01*
X118853828Y-86785354D01*
X118714646Y-86646172D01*
X118555405Y-86530476D01*
X118502071Y-86503301D01*
X118380029Y-86441117D01*
X118192826Y-86380290D01*
X117998422Y-86349500D01*
X117998417Y-86349500D01*
X117801583Y-86349500D01*
X117801578Y-86349500D01*
X117607173Y-86380290D01*
X117419970Y-86441117D01*
X117244594Y-86530476D01*
X117173505Y-86582126D01*
X117085354Y-86646172D01*
X117085352Y-86646174D01*
X117085351Y-86646174D01*
X116946174Y-86785351D01*
X116946174Y-86785352D01*
X116946172Y-86785354D01*
X116896485Y-86853741D01*
X116830476Y-86944594D01*
X116759792Y-87083320D01*
X116711817Y-87134116D01*
X116643996Y-87150911D01*
X116577861Y-87128374D01*
X116546205Y-87095917D01*
X116499461Y-87025961D01*
X116374038Y-86900538D01*
X116374034Y-86900535D01*
X116255609Y-86821405D01*
X116210804Y-86767792D01*
X116200500Y-86718303D01*
X116200500Y-85273254D01*
X116220185Y-85206215D01*
X116236814Y-85185577D01*
X117200593Y-84221798D01*
X117261914Y-84188315D01*
X117331605Y-84193299D01*
X117344564Y-84198995D01*
X117356781Y-84205220D01*
X117484419Y-84246692D01*
X117551465Y-84268477D01*
X117652557Y-84284488D01*
X117753648Y-84300500D01*
X117753649Y-84300500D01*
X117958351Y-84300500D01*
X117958352Y-84300500D01*
X118160534Y-84268477D01*
X118355219Y-84205220D01*
X118537610Y-84112287D01*
X118630590Y-84044732D01*
X118694167Y-83998543D01*
X119493499Y-83998543D01*
X119531947Y-84191829D01*
X119531950Y-84191839D01*
X119607364Y-84373907D01*
X119607371Y-84373920D01*
X119716860Y-84537781D01*
X119716863Y-84537785D01*
X119856214Y-84677136D01*
X119856218Y-84677139D01*
X120020079Y-84786628D01*
X120020092Y-84786635D01*
X120202160Y-84862049D01*
X120202165Y-84862051D01*
X120202169Y-84862051D01*
X120202170Y-84862052D01*
X120395456Y-84900500D01*
X120395459Y-84900500D01*
X120592543Y-84900500D01*
X120722582Y-84874632D01*
X120785835Y-84862051D01*
X120967914Y-84786632D01*
X121131782Y-84677139D01*
X121271139Y-84537782D01*
X121380632Y-84373914D01*
X121456051Y-84191835D01*
X121480057Y-84071149D01*
X121494500Y-83998543D01*
X121494500Y-83401456D01*
X121456052Y-83208170D01*
X121456051Y-83208169D01*
X121456051Y-83208165D01*
X121412222Y-83102351D01*
X121380635Y-83026092D01*
X121380628Y-83026079D01*
X121271139Y-82862218D01*
X121271136Y-82862214D01*
X121131785Y-82722863D01*
X121131781Y-82722860D01*
X120967920Y-82613371D01*
X120967907Y-82613364D01*
X120785839Y-82537950D01*
X120785829Y-82537947D01*
X120592543Y-82499500D01*
X120592541Y-82499500D01*
X120395459Y-82499500D01*
X120395457Y-82499500D01*
X120202170Y-82537947D01*
X120202160Y-82537950D01*
X120020092Y-82613364D01*
X120020079Y-82613371D01*
X119856218Y-82722860D01*
X119856214Y-82722863D01*
X119716863Y-82862214D01*
X119716860Y-82862218D01*
X119607371Y-83026079D01*
X119607364Y-83026092D01*
X119531950Y-83208160D01*
X119531947Y-83208170D01*
X119493500Y-83401456D01*
X119493500Y-83401459D01*
X119493500Y-83998541D01*
X119493500Y-83998543D01*
X119493499Y-83998543D01*
X118694167Y-83998543D01*
X118703213Y-83991971D01*
X118703215Y-83991968D01*
X118703219Y-83991966D01*
X118847966Y-83847219D01*
X118847968Y-83847215D01*
X118847971Y-83847213D01*
X118900732Y-83774590D01*
X118968287Y-83681610D01*
X119061220Y-83499219D01*
X119124477Y-83304534D01*
X119156500Y-83102352D01*
X119156500Y-82897648D01*
X119124477Y-82695466D01*
X119061220Y-82500781D01*
X119061218Y-82500778D01*
X119061218Y-82500776D01*
X119027503Y-82434607D01*
X118968287Y-82318390D01*
X118960556Y-82307749D01*
X118847971Y-82152786D01*
X118703213Y-82008028D01*
X118537613Y-81887715D01*
X118537612Y-81887714D01*
X118537610Y-81887713D01*
X118480653Y-81858691D01*
X118355223Y-81794781D01*
X118160534Y-81731522D01*
X117976371Y-81702354D01*
X117958352Y-81699500D01*
X117753648Y-81699500D01*
X117735635Y-81702353D01*
X117551465Y-81731522D01*
X117356776Y-81794781D01*
X117174386Y-81887715D01*
X117008786Y-82008028D01*
X116864028Y-82152786D01*
X116743715Y-82318386D01*
X116650781Y-82500776D01*
X116587522Y-82695465D01*
X116555500Y-82897648D01*
X116555500Y-83102351D01*
X116587522Y-83304534D01*
X116650782Y-83499226D01*
X116657002Y-83511432D01*
X116669898Y-83580101D01*
X116643621Y-83644842D01*
X116634198Y-83655407D01*
X115479522Y-84810084D01*
X115479518Y-84810090D01*
X115426792Y-84901412D01*
X115426793Y-84901413D01*
X115399500Y-85003273D01*
X115399500Y-86718303D01*
X115379815Y-86785342D01*
X115344391Y-86821405D01*
X115225965Y-86900535D01*
X115225961Y-86900538D01*
X115100538Y-87025961D01*
X115100535Y-87025965D01*
X115001990Y-87173446D01*
X115001983Y-87173459D01*
X114934106Y-87337332D01*
X114934104Y-87337340D01*
X114921617Y-87400118D01*
X114889232Y-87462028D01*
X114828516Y-87496603D01*
X114758747Y-87492863D01*
X114702075Y-87451996D01*
X114678383Y-87400118D01*
X114665895Y-87337340D01*
X114665894Y-87337334D01*
X114604018Y-87187950D01*
X114598016Y-87173459D01*
X114598009Y-87173446D01*
X114499464Y-87025965D01*
X114499461Y-87025961D01*
X114374038Y-86900538D01*
X114374034Y-86900535D01*
X114226553Y-86801990D01*
X114226540Y-86801983D01*
X114062667Y-86734106D01*
X114062658Y-86734103D01*
X113888694Y-86699500D01*
X113888691Y-86699500D01*
X113711309Y-86699500D01*
X113711304Y-86699500D01*
X113571615Y-86727286D01*
X113502023Y-86721059D01*
X113459743Y-86693350D01*
X111795915Y-85029522D01*
X111795913Y-85029520D01*
X111750250Y-85003156D01*
X111704589Y-84976793D01*
X111653657Y-84963146D01*
X111602727Y-84949500D01*
X111602726Y-84949500D01*
X109570255Y-84949500D01*
X109503216Y-84929815D01*
X109482574Y-84913181D01*
X109003536Y-84434143D01*
X108970051Y-84372820D01*
X108975035Y-84303128D01*
X109016907Y-84247195D01*
X109082371Y-84222778D01*
X109150644Y-84237630D01*
X109164847Y-84246689D01*
X109173117Y-84252793D01*
X109215844Y-84267744D01*
X109301298Y-84297646D01*
X109308323Y-84298304D01*
X109331733Y-84300500D01*
X111140266Y-84300499D01*
X111170700Y-84297646D01*
X111298883Y-84252793D01*
X111408150Y-84172150D01*
X111488793Y-84062883D01*
X111515615Y-83986229D01*
X111533646Y-83934702D01*
X111533646Y-83934700D01*
X111536500Y-83904267D01*
X111536499Y-82095734D01*
X111533646Y-82065300D01*
X111488793Y-81937117D01*
X111452331Y-81887713D01*
X111408150Y-81827849D01*
X111308457Y-81754273D01*
X111298883Y-81747207D01*
X111298881Y-81747206D01*
X111170701Y-81702353D01*
X111140271Y-81699500D01*
X111140267Y-81699500D01*
X110760500Y-81699500D01*
X110693461Y-81679815D01*
X110647706Y-81627011D01*
X110636500Y-81575500D01*
X110636500Y-81248543D01*
X121693499Y-81248543D01*
X121731947Y-81441829D01*
X121731950Y-81441839D01*
X121807364Y-81623907D01*
X121807371Y-81623920D01*
X121916860Y-81787781D01*
X121916863Y-81787785D01*
X122056214Y-81927136D01*
X122056218Y-81927139D01*
X122220079Y-82036628D01*
X122220092Y-82036635D01*
X122362772Y-82095734D01*
X122402165Y-82112051D01*
X122402169Y-82112051D01*
X122402170Y-82112052D01*
X122595456Y-82150500D01*
X122595459Y-82150500D01*
X122792543Y-82150500D01*
X122922582Y-82124632D01*
X122985835Y-82112051D01*
X123167914Y-82036632D01*
X123331782Y-81927139D01*
X123471139Y-81787782D01*
X123580632Y-81623914D01*
X123656051Y-81441835D01*
X123694500Y-81248541D01*
X123694500Y-81051459D01*
X123694500Y-81051456D01*
X123656052Y-80858170D01*
X123656051Y-80858169D01*
X123656051Y-80858165D01*
X123626423Y-80786635D01*
X123580635Y-80676092D01*
X123580628Y-80676079D01*
X123471139Y-80512218D01*
X123471136Y-80512214D01*
X123331785Y-80372863D01*
X123331781Y-80372860D01*
X123167920Y-80263371D01*
X123167907Y-80263364D01*
X122985839Y-80187950D01*
X122985829Y-80187947D01*
X122792543Y-80149500D01*
X122792541Y-80149500D01*
X122595459Y-80149500D01*
X122595457Y-80149500D01*
X122402170Y-80187947D01*
X122402160Y-80187950D01*
X122220092Y-80263364D01*
X122220079Y-80263371D01*
X122056218Y-80372860D01*
X122056214Y-80372863D01*
X121916863Y-80512214D01*
X121916860Y-80512218D01*
X121807371Y-80676079D01*
X121807364Y-80676092D01*
X121731950Y-80858160D01*
X121731947Y-80858170D01*
X121693500Y-81051456D01*
X121693500Y-81051459D01*
X121693500Y-81248541D01*
X121693500Y-81248543D01*
X121693499Y-81248543D01*
X110636500Y-81248543D01*
X110636500Y-80799499D01*
X110656185Y-80732460D01*
X110708989Y-80686705D01*
X110760500Y-80675499D01*
X111140260Y-80675499D01*
X111140266Y-80675499D01*
X111170700Y-80672646D01*
X111298883Y-80627793D01*
X111408150Y-80547150D01*
X111488793Y-80437883D01*
X111531839Y-80314865D01*
X111533646Y-80309702D01*
X111533646Y-80309700D01*
X111534523Y-80300345D01*
X111536500Y-80279267D01*
X111536499Y-79272648D01*
X116555500Y-79272648D01*
X116555500Y-79477351D01*
X116587522Y-79679534D01*
X116650781Y-79874223D01*
X116682993Y-79937441D01*
X116741402Y-80052075D01*
X116743715Y-80056613D01*
X116864028Y-80222213D01*
X117008786Y-80366971D01*
X117163749Y-80479556D01*
X117174390Y-80487287D01*
X117234668Y-80518000D01*
X117356776Y-80580218D01*
X117356778Y-80580218D01*
X117356781Y-80580220D01*
X117439494Y-80607095D01*
X117551465Y-80643477D01*
X117652557Y-80659488D01*
X117753648Y-80675500D01*
X117753649Y-80675500D01*
X117958351Y-80675500D01*
X117958352Y-80675500D01*
X118160534Y-80643477D01*
X118355219Y-80580220D01*
X118537610Y-80487287D01*
X118693648Y-80373920D01*
X118703213Y-80366971D01*
X118703215Y-80366968D01*
X118703219Y-80366966D01*
X118847966Y-80222219D01*
X118847968Y-80222215D01*
X118847971Y-80222213D01*
X118923757Y-80117901D01*
X118968287Y-80056610D01*
X118997874Y-79998543D01*
X119493499Y-79998543D01*
X119531947Y-80191829D01*
X119531950Y-80191839D01*
X119607364Y-80373907D01*
X119607371Y-80373920D01*
X119716860Y-80537781D01*
X119716863Y-80537785D01*
X119856214Y-80677136D01*
X119856218Y-80677139D01*
X120020079Y-80786628D01*
X120020092Y-80786635D01*
X120192771Y-80858160D01*
X120202165Y-80862051D01*
X120202169Y-80862051D01*
X120202170Y-80862052D01*
X120395456Y-80900500D01*
X120395459Y-80900500D01*
X120592543Y-80900500D01*
X120722582Y-80874632D01*
X120785835Y-80862051D01*
X120967914Y-80786632D01*
X121131782Y-80677139D01*
X121271139Y-80537782D01*
X121380632Y-80373914D01*
X121456051Y-80191835D01*
X121482949Y-80056610D01*
X121494500Y-79998543D01*
X121494500Y-79401456D01*
X121456052Y-79208170D01*
X121456051Y-79208169D01*
X121456051Y-79208165D01*
X121456049Y-79208160D01*
X121380635Y-79026092D01*
X121380628Y-79026079D01*
X121271139Y-78862218D01*
X121271136Y-78862214D01*
X121131785Y-78722863D01*
X121131781Y-78722860D01*
X120967920Y-78613371D01*
X120967907Y-78613364D01*
X120785839Y-78537950D01*
X120785829Y-78537947D01*
X120592543Y-78499500D01*
X120592541Y-78499500D01*
X120395459Y-78499500D01*
X120395457Y-78499500D01*
X120202170Y-78537947D01*
X120202160Y-78537950D01*
X120020092Y-78613364D01*
X120020079Y-78613371D01*
X119856218Y-78722860D01*
X119856214Y-78722863D01*
X119716863Y-78862214D01*
X119716860Y-78862218D01*
X119607371Y-79026079D01*
X119607364Y-79026092D01*
X119531950Y-79208160D01*
X119531947Y-79208170D01*
X119493500Y-79401456D01*
X119493500Y-79401459D01*
X119493500Y-79998541D01*
X119493500Y-79998543D01*
X119493499Y-79998543D01*
X118997874Y-79998543D01*
X119061220Y-79874219D01*
X119124477Y-79679534D01*
X119156500Y-79477352D01*
X119156500Y-79272648D01*
X119124477Y-79070466D01*
X119061220Y-78875781D01*
X119061218Y-78875778D01*
X119061218Y-78875776D01*
X118983303Y-78722861D01*
X118968287Y-78693390D01*
X118960556Y-78682749D01*
X118847971Y-78527786D01*
X118703213Y-78383028D01*
X118537613Y-78262715D01*
X118537612Y-78262714D01*
X118537610Y-78262713D01*
X118430554Y-78208165D01*
X118355219Y-78169779D01*
X118342180Y-78165543D01*
X118284505Y-78126105D01*
X118257308Y-78061746D01*
X118256500Y-78047613D01*
X118256500Y-76161254D01*
X118276185Y-76094215D01*
X118292819Y-76073573D01*
X118554018Y-75812374D01*
X118857017Y-75509374D01*
X118918338Y-75475891D01*
X118968887Y-75475440D01*
X118969249Y-75475512D01*
X119155199Y-75512499D01*
X119155201Y-75512500D01*
X119155202Y-75512500D01*
X119344799Y-75512500D01*
X119344800Y-75512499D01*
X119530751Y-75475512D01*
X119705915Y-75402956D01*
X119863558Y-75297622D01*
X119997622Y-75163558D01*
X120102956Y-75005915D01*
X120102956Y-75005913D01*
X120103160Y-75005609D01*
X120156772Y-74960804D01*
X120206262Y-74950500D01*
X121522263Y-74950500D01*
X121551703Y-74959144D01*
X121581690Y-74965668D01*
X121586705Y-74969422D01*
X121589302Y-74970185D01*
X121609944Y-74986819D01*
X121686603Y-75063478D01*
X121720088Y-75124801D01*
X121720539Y-75175350D01*
X121683480Y-75361659D01*
X121683480Y-75551264D01*
X121720466Y-75737205D01*
X121720468Y-75737213D01*
X121793022Y-75912374D01*
X121898357Y-76070020D01*
X122032421Y-76204084D01*
X122137280Y-76274148D01*
X122190065Y-76309418D01*
X122190066Y-76309418D01*
X122190067Y-76309419D01*
X122213106Y-76318962D01*
X122365229Y-76381974D01*
X122551177Y-76418961D01*
X122551181Y-76418962D01*
X122551182Y-76418962D01*
X122740779Y-76418962D01*
X122740780Y-76418961D01*
X122926731Y-76381974D01*
X123101895Y-76309418D01*
X123259538Y-76204084D01*
X123393602Y-76070020D01*
X123498936Y-75912377D01*
X123571492Y-75737213D01*
X123608480Y-75551260D01*
X123608480Y-75361664D01*
X123571492Y-75175711D01*
X123498936Y-75000547D01*
X123432222Y-74900702D01*
X123393602Y-74842903D01*
X123259538Y-74708839D01*
X123101892Y-74603504D01*
X122926731Y-74530950D01*
X122926723Y-74530948D01*
X122740782Y-74493962D01*
X122740778Y-74493962D01*
X122551182Y-74493962D01*
X122551177Y-74493962D01*
X122364868Y-74531021D01*
X122295276Y-74524794D01*
X122252996Y-74497085D01*
X121985433Y-74229522D01*
X121985431Y-74229520D01*
X121933276Y-74199408D01*
X121894107Y-74176793D01*
X121843175Y-74163146D01*
X121792245Y-74149500D01*
X121792244Y-74149500D01*
X120206262Y-74149500D01*
X120139223Y-74129815D01*
X120103160Y-74094391D01*
X119997622Y-73936441D01*
X119863558Y-73802377D01*
X119705912Y-73697042D01*
X119530751Y-73624488D01*
X119530743Y-73624486D01*
X119344802Y-73587500D01*
X119344798Y-73587500D01*
X119155202Y-73587500D01*
X119155197Y-73587500D01*
X118969256Y-73624486D01*
X118969248Y-73624488D01*
X118794087Y-73697042D01*
X118636441Y-73802377D01*
X118502377Y-73936441D01*
X118397042Y-74094087D01*
X118324488Y-74269248D01*
X118324486Y-74269256D01*
X118287500Y-74455197D01*
X118287500Y-74644802D01*
X118324559Y-74831110D01*
X118318332Y-74900702D01*
X118290623Y-74942982D01*
X117535522Y-75698084D01*
X117535520Y-75698087D01*
X117482793Y-75789410D01*
X117455500Y-75891273D01*
X117455500Y-78047613D01*
X117435815Y-78114652D01*
X117383011Y-78160407D01*
X117369820Y-78165543D01*
X117356780Y-78169779D01*
X117174386Y-78262715D01*
X117008786Y-78383028D01*
X116864028Y-78527786D01*
X116743715Y-78693386D01*
X116650781Y-78875776D01*
X116587522Y-79070465D01*
X116555500Y-79272648D01*
X111536499Y-79272648D01*
X111536499Y-78470734D01*
X111533646Y-78440300D01*
X111488793Y-78312117D01*
X111475779Y-78294484D01*
X111408150Y-78202849D01*
X111334123Y-78148215D01*
X111298883Y-78122207D01*
X111298881Y-78122206D01*
X111170701Y-78077353D01*
X111140271Y-78074500D01*
X109541253Y-78074500D01*
X109474214Y-78054815D01*
X109428459Y-78002011D01*
X109418515Y-77932853D01*
X109447540Y-77869297D01*
X109453557Y-77862834D01*
X111920480Y-75395913D01*
X111973207Y-75304588D01*
X112000500Y-75202727D01*
X112000500Y-75097273D01*
X112000500Y-73447273D01*
X111973207Y-73345413D01*
X111973207Y-73345412D01*
X111920480Y-73254087D01*
X111009376Y-72342983D01*
X110975891Y-72281660D01*
X110975440Y-72231110D01*
X110975510Y-72230753D01*
X110975512Y-72230751D01*
X111012500Y-72044798D01*
X111012500Y-71855202D01*
X110975512Y-71669249D01*
X110902956Y-71494085D01*
X110867686Y-71441300D01*
X110797622Y-71336441D01*
X110663558Y-71202377D01*
X110505912Y-71097042D01*
X110330751Y-71024488D01*
X110330743Y-71024486D01*
X110144802Y-70987500D01*
X110144798Y-70987500D01*
X109955202Y-70987500D01*
X109955197Y-70987500D01*
X109769256Y-71024486D01*
X109769248Y-71024488D01*
X109594087Y-71097042D01*
X109436441Y-71202377D01*
X109302377Y-71336441D01*
X109197042Y-71494087D01*
X109124488Y-71669248D01*
X109124486Y-71669256D01*
X109094884Y-71818077D01*
X109062499Y-71879988D01*
X109001784Y-71914562D01*
X108949076Y-71915503D01*
X108840782Y-71893962D01*
X108840778Y-71893962D01*
X108651182Y-71893962D01*
X108651177Y-71893962D01*
X108465236Y-71930948D01*
X108465228Y-71930950D01*
X108290067Y-72003504D01*
X108132421Y-72108839D01*
X107998357Y-72242903D01*
X107893022Y-72400549D01*
X107820468Y-72575710D01*
X107820466Y-72575718D01*
X107783480Y-72761659D01*
X107783480Y-72951264D01*
X107820466Y-73137205D01*
X107820468Y-73137213D01*
X107893022Y-73312374D01*
X107998357Y-73470020D01*
X108132421Y-73604084D01*
X108170570Y-73629574D01*
X108290065Y-73709418D01*
X108465229Y-73781974D01*
X108651177Y-73818961D01*
X108651181Y-73818962D01*
X108651182Y-73818962D01*
X108840779Y-73818962D01*
X108840780Y-73818961D01*
X109026731Y-73781974D01*
X109080529Y-73759689D01*
X109149997Y-73752221D01*
X109212476Y-73783496D01*
X109248129Y-73843584D01*
X109245636Y-73913410D01*
X109231084Y-73943141D01*
X109197042Y-73994088D01*
X109124488Y-74169248D01*
X109124486Y-74169256D01*
X109094884Y-74318077D01*
X109062499Y-74379988D01*
X109001784Y-74414562D01*
X108949076Y-74415503D01*
X108840782Y-74393962D01*
X108840778Y-74393962D01*
X108651182Y-74393962D01*
X108651177Y-74393962D01*
X108465236Y-74430948D01*
X108465228Y-74430950D01*
X108290067Y-74503504D01*
X108132421Y-74608839D01*
X107998357Y-74742903D01*
X107893022Y-74900549D01*
X107820468Y-75075710D01*
X107820466Y-75075718D01*
X107783480Y-75261659D01*
X107783480Y-75451264D01*
X107820466Y-75637205D01*
X107820468Y-75637213D01*
X107893022Y-75812374D01*
X107998357Y-75970020D01*
X108132421Y-76104084D01*
X108217983Y-76161254D01*
X108290065Y-76209418D01*
X108465229Y-76281974D01*
X108603201Y-76309418D01*
X108651177Y-76318961D01*
X108651181Y-76318962D01*
X108651182Y-76318962D01*
X108840779Y-76318962D01*
X108840780Y-76318961D01*
X109026731Y-76281974D01*
X109201895Y-76209418D01*
X109359538Y-76104084D01*
X109493602Y-75970020D01*
X109598936Y-75812377D01*
X109671492Y-75637213D01*
X109701096Y-75488380D01*
X109733479Y-75426474D01*
X109794194Y-75391899D01*
X109846902Y-75390958D01*
X109955200Y-75412499D01*
X109955201Y-75412500D01*
X109955202Y-75412500D01*
X110144799Y-75412500D01*
X110144800Y-75412499D01*
X110330751Y-75375512D01*
X110505915Y-75302956D01*
X110588434Y-75247818D01*
X110655109Y-75226941D01*
X110722489Y-75245425D01*
X110769180Y-75297404D01*
X110780356Y-75366374D01*
X110752471Y-75430438D01*
X110745004Y-75438602D01*
X107991522Y-78192084D01*
X107991518Y-78192090D01*
X107938793Y-78283411D01*
X107935827Y-78294483D01*
X107935827Y-78294484D01*
X107911500Y-78385273D01*
X107911500Y-79233861D01*
X107891815Y-79300900D01*
X107839011Y-79346655D01*
X107769853Y-79356599D01*
X107731205Y-79344346D01*
X107579217Y-79266904D01*
X107377129Y-79201242D01*
X107167246Y-79168000D01*
X106954754Y-79168000D01*
X106744872Y-79201242D01*
X106744869Y-79201242D01*
X106542782Y-79266904D01*
X106353439Y-79363380D01*
X106299282Y-79402727D01*
X106299282Y-79402728D01*
X106931591Y-80035037D01*
X106868007Y-80052075D01*
X106753993Y-80117901D01*
X106660901Y-80210993D01*
X106595075Y-80325007D01*
X106578037Y-80388591D01*
X105945728Y-79756282D01*
X105945727Y-79756282D01*
X105906380Y-79810440D01*
X105906378Y-79810443D01*
X105812984Y-79993737D01*
X105765010Y-80044532D01*
X105697189Y-80061327D01*
X105631054Y-80038789D01*
X105587603Y-79984074D01*
X105578500Y-79937441D01*
X105578500Y-65757140D01*
X107483980Y-65757140D01*
X107483980Y-65955783D01*
X107515055Y-66151982D01*
X107515055Y-66151985D01*
X107576437Y-66340899D01*
X107666621Y-66517894D01*
X107693710Y-66555177D01*
X107693711Y-66555178D01*
X108303841Y-65945047D01*
X108326647Y-66030156D01*
X108385890Y-66132768D01*
X108469674Y-66216552D01*
X108572286Y-66275795D01*
X108657393Y-66298599D01*
X108047263Y-66908730D01*
X108047263Y-66908731D01*
X108084547Y-66935820D01*
X108261542Y-67026004D01*
X108450457Y-67087386D01*
X108646659Y-67118462D01*
X108752684Y-67118462D01*
X108819723Y-67138147D01*
X108865478Y-67190951D01*
X108870615Y-67204144D01*
X108880457Y-67234437D01*
X108880458Y-67234440D01*
X108970641Y-67411432D01*
X108997730Y-67448715D01*
X109607861Y-66838584D01*
X109630667Y-66923694D01*
X109689910Y-67026306D01*
X109773694Y-67110090D01*
X109876306Y-67169333D01*
X109961414Y-67192137D01*
X109351283Y-67802268D01*
X109351283Y-67802269D01*
X109388567Y-67829358D01*
X109565562Y-67919542D01*
X109754477Y-67980924D01*
X109950679Y-68012000D01*
X110149321Y-68012000D01*
X110345520Y-67980924D01*
X110345523Y-67980924D01*
X110534437Y-67919542D01*
X110711425Y-67829362D01*
X110748716Y-67802268D01*
X110138585Y-67192137D01*
X110223694Y-67169333D01*
X110326306Y-67110090D01*
X110410090Y-67026306D01*
X110469333Y-66923694D01*
X110492138Y-66838585D01*
X111102268Y-67448715D01*
X111129362Y-67411425D01*
X111219542Y-67234437D01*
X111280924Y-67045523D01*
X111280924Y-67045520D01*
X111312000Y-66849321D01*
X111312000Y-66650678D01*
X111280924Y-66454479D01*
X111280924Y-66454476D01*
X111219542Y-66265562D01*
X111129358Y-66088567D01*
X111102268Y-66051283D01*
X110492137Y-66661414D01*
X110469333Y-66576306D01*
X110410090Y-66473694D01*
X110326306Y-66389910D01*
X110223694Y-66330667D01*
X110138584Y-66307861D01*
X110748715Y-65697730D01*
X110711432Y-65670641D01*
X110534437Y-65580457D01*
X110345522Y-65519075D01*
X110149321Y-65488000D01*
X110043296Y-65488000D01*
X110019582Y-65481036D01*
X109995025Y-65478219D01*
X109986642Y-65471364D01*
X109976257Y-65468315D01*
X109960073Y-65449638D01*
X109940937Y-65433990D01*
X109933622Y-65419111D01*
X109930502Y-65415511D01*
X109925365Y-65402317D01*
X109916430Y-65374817D01*
X109914435Y-65304976D01*
X109950516Y-65245143D01*
X110013217Y-65214316D01*
X110034361Y-65212500D01*
X110144799Y-65212500D01*
X110144800Y-65212499D01*
X110330751Y-65175512D01*
X110505915Y-65102956D01*
X110663558Y-64997622D01*
X110797622Y-64863558D01*
X110902956Y-64705915D01*
X110975512Y-64530751D01*
X111012500Y-64344798D01*
X111012500Y-64155202D01*
X110991709Y-64050678D01*
X117988000Y-64050678D01*
X117988000Y-64249321D01*
X118019075Y-64445520D01*
X118019075Y-64445523D01*
X118080457Y-64634437D01*
X118170641Y-64811432D01*
X118197730Y-64848715D01*
X118197731Y-64848716D01*
X118807861Y-64238585D01*
X118830667Y-64323694D01*
X118889910Y-64426306D01*
X118973694Y-64510090D01*
X119076306Y-64569333D01*
X119161414Y-64592137D01*
X118551283Y-65202268D01*
X118551283Y-65202269D01*
X118588567Y-65229358D01*
X118765562Y-65319542D01*
X118954477Y-65380924D01*
X119150679Y-65412000D01*
X119349321Y-65412000D01*
X119545520Y-65380924D01*
X119545523Y-65380924D01*
X119734437Y-65319542D01*
X119911425Y-65229362D01*
X119948716Y-65202268D01*
X119338585Y-64592137D01*
X119423694Y-64569333D01*
X119526306Y-64510090D01*
X119610090Y-64426306D01*
X119669333Y-64323694D01*
X119692138Y-64238585D01*
X120302268Y-64848715D01*
X120329362Y-64811425D01*
X120419542Y-64634437D01*
X120480924Y-64445523D01*
X120480924Y-64445520D01*
X120512000Y-64249321D01*
X120512000Y-64050678D01*
X120480924Y-63854479D01*
X120480924Y-63854476D01*
X120419542Y-63665562D01*
X120329358Y-63488567D01*
X120302268Y-63451283D01*
X119692137Y-64061414D01*
X119669333Y-63976306D01*
X119610090Y-63873694D01*
X119526306Y-63789910D01*
X119423694Y-63730667D01*
X119338585Y-63707861D01*
X119889307Y-63157140D01*
X121383980Y-63157140D01*
X121383980Y-63355783D01*
X121415055Y-63551982D01*
X121415055Y-63551985D01*
X121476437Y-63740899D01*
X121566621Y-63917894D01*
X121593710Y-63955177D01*
X121593711Y-63955178D01*
X122203841Y-63345047D01*
X122226647Y-63430156D01*
X122285890Y-63532768D01*
X122369674Y-63616552D01*
X122472286Y-63675795D01*
X122557394Y-63698599D01*
X121947263Y-64308730D01*
X121947263Y-64308731D01*
X121984547Y-64335820D01*
X122161542Y-64426004D01*
X122350457Y-64487386D01*
X122546659Y-64518462D01*
X122745301Y-64518462D01*
X122941500Y-64487386D01*
X122941503Y-64487386D01*
X123130417Y-64426004D01*
X123307405Y-64335824D01*
X123344696Y-64308730D01*
X122734565Y-63698599D01*
X122819674Y-63675795D01*
X122922286Y-63616552D01*
X123006070Y-63532768D01*
X123065313Y-63430156D01*
X123088118Y-63345047D01*
X123698248Y-63955177D01*
X123725342Y-63917887D01*
X123815522Y-63740899D01*
X123876904Y-63551985D01*
X123876904Y-63551982D01*
X123907980Y-63355783D01*
X123907980Y-63157140D01*
X123876904Y-62960941D01*
X123876904Y-62960938D01*
X123815522Y-62772024D01*
X123725338Y-62595029D01*
X123698248Y-62557745D01*
X123088117Y-63167876D01*
X123065313Y-63082768D01*
X123006070Y-62980156D01*
X122922286Y-62896372D01*
X122819674Y-62837129D01*
X122734565Y-62814323D01*
X123344696Y-62204193D01*
X123344695Y-62204192D01*
X123307412Y-62177103D01*
X123130417Y-62086919D01*
X122941502Y-62025537D01*
X122745301Y-61994462D01*
X122546659Y-61994462D01*
X122350459Y-62025537D01*
X122350456Y-62025537D01*
X122161542Y-62086919D01*
X121984544Y-62177105D01*
X121947263Y-62204191D01*
X121947262Y-62204192D01*
X122557395Y-62814323D01*
X122472286Y-62837129D01*
X122369674Y-62896372D01*
X122285890Y-62980156D01*
X122226647Y-63082768D01*
X122203841Y-63167876D01*
X121593710Y-62557744D01*
X121593709Y-62557745D01*
X121566623Y-62595026D01*
X121476437Y-62772024D01*
X121415055Y-62960938D01*
X121415055Y-62960941D01*
X121383980Y-63157140D01*
X119889307Y-63157140D01*
X119948716Y-63097731D01*
X119948715Y-63097730D01*
X119911432Y-63070641D01*
X119734437Y-62980457D01*
X119545522Y-62919075D01*
X119349321Y-62888000D01*
X119150679Y-62888000D01*
X118954479Y-62919075D01*
X118954476Y-62919075D01*
X118765562Y-62980457D01*
X118588564Y-63070643D01*
X118551283Y-63097729D01*
X118551282Y-63097730D01*
X119161415Y-63707861D01*
X119076306Y-63730667D01*
X118973694Y-63789910D01*
X118889910Y-63873694D01*
X118830667Y-63976306D01*
X118807861Y-64061414D01*
X118197730Y-63451282D01*
X118197729Y-63451283D01*
X118170643Y-63488564D01*
X118080457Y-63665562D01*
X118019075Y-63854476D01*
X118019075Y-63854479D01*
X117988000Y-64050678D01*
X110991709Y-64050678D01*
X110975512Y-63969249D01*
X110902956Y-63794085D01*
X110823917Y-63675795D01*
X110797622Y-63636441D01*
X110663558Y-63502377D01*
X110505912Y-63397042D01*
X110330751Y-63324488D01*
X110330743Y-63324486D01*
X110144802Y-63287500D01*
X110144798Y-63287500D01*
X109955202Y-63287500D01*
X109930998Y-63292314D01*
X109844430Y-63309533D01*
X109835411Y-63308725D01*
X109826876Y-63311737D01*
X109801158Y-63305659D01*
X109774838Y-63303304D01*
X109767689Y-63297751D01*
X109758879Y-63295669D01*
X109740528Y-63276651D01*
X109719662Y-63260441D01*
X109715367Y-63250574D01*
X109710364Y-63245389D01*
X109698622Y-63212105D01*
X109697669Y-63207316D01*
X109690084Y-63169180D01*
X109690084Y-63169177D01*
X109675872Y-63097730D01*
X109671492Y-63075711D01*
X109598936Y-62900547D01*
X109536070Y-62806462D01*
X109493602Y-62742903D01*
X109359538Y-62608839D01*
X109201892Y-62503504D01*
X109026731Y-62430950D01*
X109026723Y-62430948D01*
X108840782Y-62393962D01*
X108840778Y-62393962D01*
X108651182Y-62393962D01*
X108651177Y-62393962D01*
X108465236Y-62430948D01*
X108465228Y-62430950D01*
X108290067Y-62503504D01*
X108132421Y-62608839D01*
X107998357Y-62742903D01*
X107893022Y-62900549D01*
X107820468Y-63075710D01*
X107820466Y-63075718D01*
X107783480Y-63261659D01*
X107783480Y-63451264D01*
X107820466Y-63637205D01*
X107820468Y-63637213D01*
X107893022Y-63812374D01*
X107998357Y-63970020D01*
X108132421Y-64104084D01*
X108208925Y-64155202D01*
X108290065Y-64209418D01*
X108465229Y-64281974D01*
X108651177Y-64318961D01*
X108651181Y-64318962D01*
X108651182Y-64318962D01*
X108840779Y-64318962D01*
X108840779Y-64318961D01*
X108920241Y-64303156D01*
X108951548Y-64296929D01*
X108960563Y-64297735D01*
X108969101Y-64294724D01*
X108994818Y-64300800D01*
X109021139Y-64303156D01*
X109028287Y-64308709D01*
X109037098Y-64310791D01*
X109055447Y-64329807D01*
X109076317Y-64346019D01*
X109080611Y-64355886D01*
X109085614Y-64361070D01*
X109097356Y-64394354D01*
X109111945Y-64467694D01*
X109105718Y-64537285D01*
X109062856Y-64592463D01*
X108996966Y-64615708D01*
X108970931Y-64614359D01*
X108845302Y-64594462D01*
X108646659Y-64594462D01*
X108450459Y-64625537D01*
X108450456Y-64625537D01*
X108261542Y-64686919D01*
X108084544Y-64777105D01*
X108047263Y-64804191D01*
X108047262Y-64804192D01*
X108657394Y-65414324D01*
X108572286Y-65437129D01*
X108469674Y-65496372D01*
X108385890Y-65580156D01*
X108326647Y-65682768D01*
X108303841Y-65767876D01*
X107693710Y-65157744D01*
X107693709Y-65157745D01*
X107666623Y-65195026D01*
X107576437Y-65372024D01*
X107515055Y-65560938D01*
X107515055Y-65560941D01*
X107483980Y-65757140D01*
X105578500Y-65757140D01*
X105578500Y-62944255D01*
X105584738Y-62923009D01*
X105586318Y-62900921D01*
X105594390Y-62890137D01*
X105598185Y-62877216D01*
X105614918Y-62862716D01*
X105628190Y-62844988D01*
X105640810Y-62840280D01*
X105650989Y-62831461D01*
X105672906Y-62828309D01*
X105693654Y-62820571D01*
X105706814Y-62823433D01*
X105720147Y-62821517D01*
X105740290Y-62830716D01*
X105761927Y-62835423D01*
X105779652Y-62848691D01*
X105783703Y-62850542D01*
X105790181Y-62856574D01*
X105876005Y-62942398D01*
X105908099Y-62997985D01*
X105933608Y-63093186D01*
X105999500Y-63207314D01*
X106092686Y-63300500D01*
X106206814Y-63366392D01*
X106334108Y-63400500D01*
X106334110Y-63400500D01*
X106465890Y-63400500D01*
X106465892Y-63400500D01*
X106593186Y-63366392D01*
X106707314Y-63300500D01*
X106800500Y-63207314D01*
X106866392Y-63093186D01*
X106900500Y-62965892D01*
X106900500Y-62834108D01*
X106866392Y-62706814D01*
X106800500Y-62592686D01*
X106707314Y-62499500D01*
X106593186Y-62433608D01*
X106497985Y-62408099D01*
X106484097Y-62400080D01*
X106470652Y-62397156D01*
X106442398Y-62376005D01*
X106310475Y-62244082D01*
X106276990Y-62182759D01*
X106274156Y-62156401D01*
X106274156Y-61337302D01*
X106293841Y-61270263D01*
X106346645Y-61224508D01*
X106415803Y-61214564D01*
X106467047Y-61234200D01*
X106580741Y-61310168D01*
X106755905Y-61382724D01*
X106939691Y-61419281D01*
X106941853Y-61419711D01*
X106941857Y-61419712D01*
X106941858Y-61419712D01*
X107131455Y-61419712D01*
X107131456Y-61419711D01*
X107317407Y-61382724D01*
X107492571Y-61310168D01*
X107650214Y-61204834D01*
X107784278Y-61070770D01*
X107889612Y-60913127D01*
X107962168Y-60737963D01*
X107999156Y-60552010D01*
X107999156Y-60362414D01*
X107962168Y-60176461D01*
X107889612Y-60001297D01*
X107799156Y-59865920D01*
X107784278Y-59843653D01*
X107650214Y-59709589D01*
X107492568Y-59604254D01*
X107317407Y-59531700D01*
X107317399Y-59531698D01*
X107131458Y-59494712D01*
X107131454Y-59494712D01*
X106941858Y-59494712D01*
X106941853Y-59494712D01*
X106755912Y-59531698D01*
X106755904Y-59531700D01*
X106580744Y-59604254D01*
X106467046Y-59680224D01*
X106400368Y-59701101D01*
X106332988Y-59682616D01*
X106286299Y-59630637D01*
X106274156Y-59577121D01*
X106274156Y-59147424D01*
X106293841Y-59080385D01*
X106346645Y-59034630D01*
X106415803Y-59024686D01*
X106454451Y-59036939D01*
X106552218Y-59086754D01*
X106741133Y-59148136D01*
X106937335Y-59179212D01*
X107135977Y-59179212D01*
X107332176Y-59148136D01*
X107332179Y-59148136D01*
X107521093Y-59086754D01*
X107698081Y-58996574D01*
X107735371Y-58969480D01*
X107125241Y-58359350D01*
X107210350Y-58336545D01*
X107312962Y-58277302D01*
X107396746Y-58193518D01*
X107455989Y-58090906D01*
X107478794Y-58005797D01*
X108088924Y-58615927D01*
X108116018Y-58578637D01*
X108206198Y-58401649D01*
X108267580Y-58212735D01*
X108267580Y-58212732D01*
X108298656Y-58016533D01*
X108298656Y-57817890D01*
X108267580Y-57621691D01*
X108267580Y-57621688D01*
X108206198Y-57432774D01*
X108116014Y-57255779D01*
X108088924Y-57218495D01*
X107478793Y-57828626D01*
X107455989Y-57743518D01*
X107396746Y-57640906D01*
X107312962Y-57557122D01*
X107210350Y-57497879D01*
X107125240Y-57475073D01*
X107735371Y-56864942D01*
X107698088Y-56837853D01*
X107521093Y-56747669D01*
X107332178Y-56686287D01*
X107135977Y-56655212D01*
X106937335Y-56655212D01*
X106741135Y-56686287D01*
X106741132Y-56686287D01*
X106552216Y-56747670D01*
X106552215Y-56747670D01*
X106454450Y-56797484D01*
X106385781Y-56810380D01*
X106321041Y-56784103D01*
X106280784Y-56726997D01*
X106274156Y-56686999D01*
X106274156Y-56257302D01*
X106293841Y-56190263D01*
X106346645Y-56144508D01*
X106415803Y-56134564D01*
X106467047Y-56154200D01*
X106580741Y-56230168D01*
X106755905Y-56302724D01*
X106941853Y-56339711D01*
X106941857Y-56339712D01*
X106941858Y-56339712D01*
X107131455Y-56339712D01*
X107131456Y-56339711D01*
X107317407Y-56302724D01*
X107492571Y-56230168D01*
X107650214Y-56124834D01*
X107784278Y-55990770D01*
X107889612Y-55833127D01*
X107962168Y-55657963D01*
X107999156Y-55472010D01*
X107999156Y-55282414D01*
X107962168Y-55096461D01*
X107889612Y-54921297D01*
X107799156Y-54785920D01*
X107784278Y-54763653D01*
X107650214Y-54629589D01*
X107492568Y-54524254D01*
X107317407Y-54451700D01*
X107317399Y-54451698D01*
X107131458Y-54414712D01*
X107131454Y-54414712D01*
X106941858Y-54414712D01*
X106941853Y-54414712D01*
X106755912Y-54451698D01*
X106755904Y-54451700D01*
X106580744Y-54524254D01*
X106467046Y-54600224D01*
X106400368Y-54621101D01*
X106332988Y-54602616D01*
X106286299Y-54550637D01*
X106274156Y-54497121D01*
X106274156Y-53717302D01*
X106293841Y-53650263D01*
X106346645Y-53604508D01*
X106415803Y-53594564D01*
X106467047Y-53614200D01*
X106580741Y-53690168D01*
X106755905Y-53762724D01*
X106941853Y-53799711D01*
X106941857Y-53799712D01*
X106941858Y-53799712D01*
X107131455Y-53799712D01*
X107131455Y-53799711D01*
X107317407Y-53762724D01*
X107317409Y-53762722D01*
X107317766Y-53762652D01*
X107387358Y-53768879D01*
X107429639Y-53796588D01*
X111704181Y-58071129D01*
X111737666Y-58132452D01*
X111740500Y-58158810D01*
X111740500Y-59495737D01*
X111720815Y-59562776D01*
X111685391Y-59598839D01*
X111527442Y-59704377D01*
X111527438Y-59704380D01*
X111393377Y-59838441D01*
X111288042Y-59996087D01*
X111215488Y-60171248D01*
X111215486Y-60171256D01*
X111178500Y-60357197D01*
X111178500Y-60546802D01*
X111215486Y-60732743D01*
X111215488Y-60732751D01*
X111288042Y-60907912D01*
X111393377Y-61065558D01*
X111527441Y-61199622D01*
X111579191Y-61234200D01*
X111685085Y-61304956D01*
X111685086Y-61304956D01*
X111685087Y-61304957D01*
X111697670Y-61310169D01*
X111860249Y-61377512D01*
X112046197Y-61414499D01*
X112046201Y-61414500D01*
X112046202Y-61414500D01*
X112235799Y-61414500D01*
X112235800Y-61414499D01*
X112421751Y-61377512D01*
X112596915Y-61304956D01*
X112754558Y-61199622D01*
X112888622Y-61065558D01*
X112993956Y-60907915D01*
X113066512Y-60732751D01*
X113103500Y-60546798D01*
X113103500Y-60357202D01*
X113103499Y-60357197D01*
X113718500Y-60357197D01*
X113718500Y-60546802D01*
X113755486Y-60732743D01*
X113755488Y-60732751D01*
X113828042Y-60907912D01*
X113933377Y-61065558D01*
X114067441Y-61199622D01*
X114119191Y-61234200D01*
X114225085Y-61304956D01*
X114225086Y-61304956D01*
X114225087Y-61304957D01*
X114237670Y-61310169D01*
X114400249Y-61377512D01*
X114586197Y-61414499D01*
X114586201Y-61414500D01*
X114586202Y-61414500D01*
X114775799Y-61414500D01*
X114775800Y-61414499D01*
X114961751Y-61377512D01*
X115136915Y-61304956D01*
X115294558Y-61199622D01*
X115428622Y-61065558D01*
X115533956Y-60907915D01*
X115606512Y-60732751D01*
X115643500Y-60546798D01*
X115643500Y-60357202D01*
X115606512Y-60171249D01*
X115533956Y-59996085D01*
X115498686Y-59943300D01*
X115428622Y-59838441D01*
X115294558Y-59704377D01*
X115136912Y-59599042D01*
X114961751Y-59526488D01*
X114961743Y-59526486D01*
X114775802Y-59489500D01*
X114775798Y-59489500D01*
X114586202Y-59489500D01*
X114586197Y-59489500D01*
X114400256Y-59526486D01*
X114400248Y-59526488D01*
X114225087Y-59599042D01*
X114067441Y-59704377D01*
X113933377Y-59838441D01*
X113828042Y-59996087D01*
X113755488Y-60171248D01*
X113755486Y-60171256D01*
X113718500Y-60357197D01*
X113103499Y-60357197D01*
X113066512Y-60171249D01*
X112993956Y-59996085D01*
X112958686Y-59943300D01*
X112888622Y-59838441D01*
X112754561Y-59704380D01*
X112754557Y-59704377D01*
X112596609Y-59598839D01*
X112551804Y-59545227D01*
X112541500Y-59495737D01*
X112541500Y-58004285D01*
X112541501Y-58004272D01*
X112541501Y-57888832D01*
X112541501Y-57888830D01*
X112514207Y-57786969D01*
X112461480Y-57695643D01*
X112386913Y-57621076D01*
X112386912Y-57621075D01*
X112382582Y-57616745D01*
X112382571Y-57616735D01*
X107996032Y-53230195D01*
X107962547Y-53168872D01*
X107962096Y-53118322D01*
X107962166Y-53117965D01*
X107962168Y-53117963D01*
X107999156Y-52932010D01*
X107999156Y-52742414D01*
X107962168Y-52556461D01*
X107889612Y-52381297D01*
X107854342Y-52328512D01*
X107784278Y-52223653D01*
X107650214Y-52089589D01*
X107492568Y-51984254D01*
X107317407Y-51911700D01*
X107317399Y-51911698D01*
X107131458Y-51874712D01*
X107131454Y-51874712D01*
X106941858Y-51874712D01*
X106941853Y-51874712D01*
X106755912Y-51911698D01*
X106755904Y-51911700D01*
X106580744Y-51984254D01*
X106467046Y-52060224D01*
X106400368Y-52081101D01*
X106332988Y-52062616D01*
X106286299Y-52010637D01*
X106274156Y-51957121D01*
X106274156Y-51177302D01*
X106293841Y-51110263D01*
X106346645Y-51064508D01*
X106415803Y-51054564D01*
X106467047Y-51074200D01*
X106580741Y-51150168D01*
X106755905Y-51222724D01*
X106941853Y-51259711D01*
X106941857Y-51259712D01*
X106941858Y-51259712D01*
X107131455Y-51259712D01*
X107131456Y-51259711D01*
X107317407Y-51222724D01*
X107492571Y-51150168D01*
X107650214Y-51044834D01*
X107784278Y-50910770D01*
X107889612Y-50753127D01*
X107962168Y-50577963D01*
X107999156Y-50392010D01*
X107999156Y-50202414D01*
X107962168Y-50016461D01*
X107889612Y-49841297D01*
X107790783Y-49693390D01*
X107769906Y-49626713D01*
X107788391Y-49559333D01*
X107840369Y-49512643D01*
X107893886Y-49500500D01*
X108385564Y-49500500D01*
X108452603Y-49520185D01*
G37*
G04 #@! TD.AperFunction*
G04 #@! TA.AperFunction,Conductor*
G36*
X108829996Y-24895185D02*
G01*
X108875751Y-24947989D01*
X108885695Y-25017147D01*
X108856670Y-25080703D01*
X108850638Y-25087181D01*
X108766380Y-25171438D01*
X108766377Y-25171441D01*
X108661042Y-25329087D01*
X108588488Y-25504248D01*
X108588486Y-25504256D01*
X108551500Y-25690197D01*
X108551500Y-25879802D01*
X108588486Y-26065743D01*
X108588488Y-26065751D01*
X108661042Y-26240912D01*
X108766377Y-26398558D01*
X108900441Y-26532622D01*
X109005300Y-26602686D01*
X109058085Y-26637956D01*
X109233249Y-26710512D01*
X109419197Y-26747499D01*
X109419201Y-26747500D01*
X109419202Y-26747500D01*
X109608799Y-26747500D01*
X109608800Y-26747499D01*
X109794751Y-26710512D01*
X109969915Y-26637956D01*
X110127558Y-26532622D01*
X110261622Y-26398558D01*
X110366956Y-26240915D01*
X110439512Y-26065751D01*
X110476500Y-25879798D01*
X110476500Y-25690202D01*
X110439512Y-25504249D01*
X110366956Y-25329085D01*
X110331686Y-25276300D01*
X110261622Y-25171441D01*
X110177362Y-25087181D01*
X110143877Y-25025858D01*
X110148861Y-24956166D01*
X110190733Y-24900233D01*
X110256197Y-24875816D01*
X110265043Y-24875500D01*
X123962957Y-24875500D01*
X124029996Y-24895185D01*
X124075751Y-24947989D01*
X124085695Y-25017147D01*
X124056670Y-25080703D01*
X124050638Y-25087181D01*
X123966380Y-25171438D01*
X123966377Y-25171441D01*
X123861042Y-25329087D01*
X123788488Y-25504248D01*
X123788486Y-25504256D01*
X123751500Y-25690197D01*
X123751500Y-25879802D01*
X123788486Y-26065743D01*
X123788488Y-26065751D01*
X123861042Y-26240912D01*
X123966377Y-26398558D01*
X124100441Y-26532622D01*
X124205300Y-26602686D01*
X124258085Y-26637956D01*
X124433249Y-26710512D01*
X124619197Y-26747499D01*
X124619201Y-26747500D01*
X124619202Y-26747500D01*
X124808799Y-26747500D01*
X124808800Y-26747499D01*
X124994751Y-26710512D01*
X125169915Y-26637956D01*
X125327558Y-26532622D01*
X125327561Y-26532619D01*
X125381819Y-26478362D01*
X125443142Y-26444877D01*
X125512834Y-26449861D01*
X125568767Y-26491733D01*
X125593184Y-26557197D01*
X125593500Y-26566043D01*
X125593500Y-27160712D01*
X125573815Y-27227751D01*
X125521011Y-27273506D01*
X125451853Y-27283450D01*
X125396616Y-27261031D01*
X125375435Y-27245642D01*
X125198437Y-27155457D01*
X125009522Y-27094075D01*
X124813321Y-27063000D01*
X124614679Y-27063000D01*
X124418479Y-27094075D01*
X124418476Y-27094075D01*
X124229562Y-27155457D01*
X124052564Y-27245643D01*
X124015283Y-27272729D01*
X124015282Y-27272730D01*
X124625414Y-27882862D01*
X124540306Y-27905667D01*
X124437694Y-27964910D01*
X124353910Y-28048694D01*
X124294667Y-28151306D01*
X124271861Y-28236414D01*
X123661730Y-27626282D01*
X123661729Y-27626283D01*
X123634643Y-27663564D01*
X123544457Y-27840562D01*
X123483075Y-28029476D01*
X123483075Y-28029479D01*
X123452000Y-28225678D01*
X123452000Y-28424321D01*
X123483075Y-28620520D01*
X123483075Y-28620523D01*
X123544457Y-28809437D01*
X123634641Y-28986432D01*
X123661730Y-29023715D01*
X123661731Y-29023716D01*
X124271861Y-28413585D01*
X124294667Y-28498694D01*
X124353910Y-28601306D01*
X124437694Y-28685090D01*
X124540306Y-28744333D01*
X124625413Y-28767137D01*
X124015283Y-29377268D01*
X124015283Y-29377269D01*
X124052567Y-29404358D01*
X124229562Y-29494542D01*
X124418477Y-29555924D01*
X124614679Y-29587000D01*
X124813321Y-29587000D01*
X125009520Y-29555924D01*
X125009523Y-29555924D01*
X125198437Y-29494542D01*
X125375436Y-29404356D01*
X125396614Y-29388970D01*
X125462420Y-29365489D01*
X125530474Y-29381314D01*
X125579169Y-29431419D01*
X125593500Y-29489287D01*
X125593500Y-30083957D01*
X125573815Y-30150996D01*
X125521011Y-30196751D01*
X125451853Y-30206695D01*
X125388297Y-30177670D01*
X125381819Y-30171638D01*
X125327558Y-30117377D01*
X125169912Y-30012042D01*
X124994751Y-29939488D01*
X124994743Y-29939486D01*
X124808802Y-29902500D01*
X124808798Y-29902500D01*
X124619202Y-29902500D01*
X124619197Y-29902500D01*
X124433256Y-29939486D01*
X124433248Y-29939488D01*
X124258087Y-30012042D01*
X124100441Y-30117377D01*
X123966377Y-30251441D01*
X123911476Y-30333608D01*
X123867448Y-30399502D01*
X123860840Y-30409391D01*
X123807228Y-30454196D01*
X123757738Y-30464500D01*
X123732273Y-30464500D01*
X123630410Y-30491793D01*
X123539087Y-30544520D01*
X123539084Y-30544522D01*
X121979522Y-32104084D01*
X121979518Y-32104090D01*
X121926792Y-32195412D01*
X121926793Y-32195413D01*
X121899500Y-32297273D01*
X121899500Y-43271000D01*
X121879815Y-43338039D01*
X121827011Y-43383794D01*
X121775500Y-43395000D01*
X110523306Y-43395000D01*
X110456267Y-43375315D01*
X110410512Y-43322511D01*
X110401689Y-43295191D01*
X110399513Y-43284256D01*
X110399512Y-43284249D01*
X110326956Y-43109085D01*
X110274366Y-43030379D01*
X110221622Y-42951441D01*
X110087558Y-42817377D01*
X109929912Y-42712042D01*
X109754751Y-42639488D01*
X109754743Y-42639486D01*
X109568802Y-42602500D01*
X109568798Y-42602500D01*
X109379202Y-42602500D01*
X109379197Y-42602500D01*
X109193256Y-42639486D01*
X109193248Y-42639488D01*
X109018087Y-42712042D01*
X108860441Y-42817377D01*
X108726380Y-42951438D01*
X108726377Y-42951442D01*
X108627602Y-43099270D01*
X108573990Y-43144075D01*
X108504665Y-43152782D01*
X108441637Y-43122628D01*
X108404918Y-43063185D01*
X108400500Y-43030379D01*
X108400500Y-41475297D01*
X108420185Y-41408258D01*
X108472989Y-41362503D01*
X108542147Y-41352559D01*
X108605703Y-41381584D01*
X108639061Y-41427844D01*
X108661042Y-41480912D01*
X108766377Y-41638558D01*
X108900441Y-41772622D01*
X109005300Y-41842686D01*
X109058085Y-41877956D01*
X109233249Y-41950512D01*
X109419197Y-41987499D01*
X109419201Y-41987500D01*
X109419202Y-41987500D01*
X109608799Y-41987500D01*
X109608800Y-41987499D01*
X109794751Y-41950512D01*
X109969915Y-41877956D01*
X110127558Y-41772622D01*
X110261622Y-41638558D01*
X110366956Y-41480915D01*
X110439512Y-41305751D01*
X110476500Y-41119798D01*
X110476500Y-40930202D01*
X110439512Y-40744249D01*
X110366956Y-40569085D01*
X110331686Y-40516300D01*
X110261622Y-40411441D01*
X110127558Y-40277377D01*
X109969912Y-40172042D01*
X109794751Y-40099488D01*
X109794743Y-40099486D01*
X109608802Y-40062500D01*
X109608798Y-40062500D01*
X109419202Y-40062500D01*
X109419197Y-40062500D01*
X109233256Y-40099486D01*
X109233248Y-40099488D01*
X109058087Y-40172042D01*
X108900441Y-40277377D01*
X108766377Y-40411441D01*
X108661043Y-40569085D01*
X108639061Y-40622156D01*
X108595219Y-40676559D01*
X108528925Y-40698623D01*
X108461226Y-40681343D01*
X108413616Y-40630206D01*
X108400500Y-40574702D01*
X108400500Y-38935297D01*
X108420185Y-38868258D01*
X108472989Y-38822503D01*
X108542147Y-38812559D01*
X108605703Y-38841584D01*
X108639061Y-38887844D01*
X108661042Y-38940912D01*
X108766377Y-39098558D01*
X108900441Y-39232622D01*
X109005300Y-39302686D01*
X109058085Y-39337956D01*
X109233249Y-39410512D01*
X109364092Y-39436538D01*
X109419197Y-39447499D01*
X109419201Y-39447500D01*
X109419202Y-39447500D01*
X109608799Y-39447500D01*
X109608800Y-39447499D01*
X109794751Y-39410512D01*
X109969915Y-39337956D01*
X110127558Y-39232622D01*
X110261622Y-39098558D01*
X110366956Y-38940915D01*
X110439512Y-38765751D01*
X110476500Y-38579798D01*
X110476500Y-38390202D01*
X110439512Y-38204249D01*
X110366956Y-38029085D01*
X110310745Y-37944959D01*
X110261622Y-37871441D01*
X110127558Y-37737377D01*
X109969912Y-37632042D01*
X109794751Y-37559488D01*
X109794743Y-37559486D01*
X109608802Y-37522500D01*
X109608798Y-37522500D01*
X109419202Y-37522500D01*
X109419197Y-37522500D01*
X109233256Y-37559486D01*
X109233248Y-37559488D01*
X109058087Y-37632042D01*
X108900441Y-37737377D01*
X108766377Y-37871441D01*
X108661043Y-38029085D01*
X108639061Y-38082156D01*
X108595219Y-38136559D01*
X108528925Y-38158623D01*
X108461226Y-38141343D01*
X108413616Y-38090206D01*
X108400500Y-38034702D01*
X108400500Y-36395297D01*
X108420185Y-36328258D01*
X108472989Y-36282503D01*
X108542147Y-36272559D01*
X108605703Y-36301584D01*
X108639061Y-36347844D01*
X108661042Y-36400912D01*
X108766377Y-36558558D01*
X108900441Y-36692622D01*
X109005300Y-36762686D01*
X109058085Y-36797956D01*
X109233249Y-36870512D01*
X109419197Y-36907499D01*
X109419201Y-36907500D01*
X109419202Y-36907500D01*
X109608799Y-36907500D01*
X109608800Y-36907499D01*
X109794751Y-36870512D01*
X109969915Y-36797956D01*
X110127558Y-36692622D01*
X110261622Y-36558558D01*
X110366956Y-36400915D01*
X110439512Y-36225751D01*
X110476500Y-36039798D01*
X110476500Y-35850202D01*
X110439512Y-35664249D01*
X110366956Y-35489085D01*
X110331686Y-35436300D01*
X110261622Y-35331441D01*
X110127558Y-35197377D01*
X109969912Y-35092042D01*
X109794751Y-35019488D01*
X109794743Y-35019486D01*
X109608802Y-34982500D01*
X109608798Y-34982500D01*
X109419202Y-34982500D01*
X109419197Y-34982500D01*
X109233256Y-35019486D01*
X109233248Y-35019488D01*
X109058087Y-35092042D01*
X108900441Y-35197377D01*
X108766377Y-35331441D01*
X108661043Y-35489085D01*
X108639061Y-35542156D01*
X108595219Y-35596559D01*
X108528925Y-35618623D01*
X108461226Y-35601343D01*
X108413616Y-35550206D01*
X108400500Y-35494702D01*
X108400500Y-33855297D01*
X108420185Y-33788258D01*
X108472989Y-33742503D01*
X108542147Y-33732559D01*
X108605703Y-33761584D01*
X108639061Y-33807844D01*
X108661042Y-33860912D01*
X108766377Y-34018558D01*
X108900441Y-34152622D01*
X109005300Y-34222686D01*
X109058085Y-34257956D01*
X109233249Y-34330512D01*
X109419197Y-34367499D01*
X109419201Y-34367500D01*
X109419202Y-34367500D01*
X109608799Y-34367500D01*
X109608800Y-34367499D01*
X109794751Y-34330512D01*
X109969915Y-34257956D01*
X110127558Y-34152622D01*
X110261622Y-34018558D01*
X110366956Y-33860915D01*
X110439512Y-33685751D01*
X110476500Y-33499798D01*
X110476500Y-33310202D01*
X110439512Y-33124249D01*
X110366956Y-32949085D01*
X110331686Y-32896300D01*
X110261622Y-32791441D01*
X110127558Y-32657377D01*
X109969912Y-32552042D01*
X109794751Y-32479488D01*
X109794743Y-32479486D01*
X109608802Y-32442500D01*
X109608798Y-32442500D01*
X109419202Y-32442500D01*
X109419197Y-32442500D01*
X109233256Y-32479486D01*
X109233248Y-32479488D01*
X109058087Y-32552042D01*
X108900441Y-32657377D01*
X108766377Y-32791441D01*
X108661043Y-32949085D01*
X108639061Y-33002156D01*
X108595219Y-33056559D01*
X108528925Y-33078623D01*
X108461226Y-33061343D01*
X108413616Y-33010206D01*
X108400500Y-32954702D01*
X108400500Y-31315297D01*
X108420185Y-31248258D01*
X108472989Y-31202503D01*
X108542147Y-31192559D01*
X108605703Y-31221584D01*
X108639061Y-31267844D01*
X108661042Y-31320912D01*
X108766377Y-31478558D01*
X108900441Y-31612622D01*
X109005300Y-31682686D01*
X109058085Y-31717956D01*
X109233249Y-31790512D01*
X109419197Y-31827499D01*
X109419201Y-31827500D01*
X109419202Y-31827500D01*
X109608799Y-31827500D01*
X109608800Y-31827499D01*
X109794751Y-31790512D01*
X109969915Y-31717956D01*
X110127558Y-31612622D01*
X110261622Y-31478558D01*
X110366956Y-31320915D01*
X110439512Y-31145751D01*
X110476500Y-30959798D01*
X110476500Y-30770202D01*
X110439512Y-30584249D01*
X110366956Y-30409085D01*
X110316524Y-30333608D01*
X110261622Y-30251441D01*
X110127558Y-30117377D01*
X109969912Y-30012042D01*
X109794751Y-29939488D01*
X109794743Y-29939486D01*
X109608802Y-29902500D01*
X109608798Y-29902500D01*
X109419202Y-29902500D01*
X109419197Y-29902500D01*
X109233256Y-29939486D01*
X109233248Y-29939488D01*
X109058087Y-30012042D01*
X108900441Y-30117377D01*
X108766377Y-30251441D01*
X108661043Y-30409085D01*
X108628266Y-30488217D01*
X108584424Y-30542620D01*
X108518130Y-30564684D01*
X108450431Y-30547404D01*
X108406318Y-30502763D01*
X108406115Y-30502411D01*
X108400500Y-30492686D01*
X108307314Y-30399500D01*
X108250250Y-30366554D01*
X108193187Y-30333608D01*
X108129539Y-30316554D01*
X108065892Y-30299500D01*
X107934108Y-30299500D01*
X107806812Y-30333608D01*
X107692686Y-30399500D01*
X107692683Y-30399502D01*
X107599502Y-30492683D01*
X107599500Y-30492686D01*
X107533608Y-30606812D01*
X107499500Y-30734108D01*
X107499500Y-30865892D01*
X107533608Y-30993186D01*
X107582887Y-31078540D01*
X107599500Y-31140539D01*
X107599500Y-36059571D01*
X107579815Y-36126610D01*
X107527011Y-36172365D01*
X107457853Y-36182309D01*
X107394297Y-36153284D01*
X107372398Y-36128462D01*
X107330139Y-36065218D01*
X107330136Y-36065214D01*
X107190785Y-35925863D01*
X107190781Y-35925860D01*
X107026920Y-35816371D01*
X107026907Y-35816364D01*
X106844839Y-35740950D01*
X106844829Y-35740947D01*
X106651543Y-35702500D01*
X106651541Y-35702500D01*
X106454459Y-35702500D01*
X106454457Y-35702500D01*
X106261170Y-35740947D01*
X106261160Y-35740950D01*
X106079092Y-35816364D01*
X106079079Y-35816371D01*
X105915218Y-35925860D01*
X105915214Y-35925863D01*
X105790181Y-36050897D01*
X105728858Y-36084382D01*
X105659166Y-36079398D01*
X105603233Y-36037526D01*
X105578816Y-35972062D01*
X105578500Y-35963216D01*
X105578500Y-30225236D01*
X105598185Y-30158197D01*
X105650989Y-30112442D01*
X105720147Y-30102498D01*
X105775386Y-30124919D01*
X105871646Y-30194857D01*
X106053968Y-30287755D01*
X106248582Y-30350990D01*
X106450683Y-30383000D01*
X106655317Y-30383000D01*
X106857417Y-30350990D01*
X107052031Y-30287755D01*
X107234349Y-30194859D01*
X107278921Y-30162474D01*
X106599447Y-29483000D01*
X106605661Y-29483000D01*
X106707394Y-29455741D01*
X106798606Y-29403080D01*
X106873080Y-29328606D01*
X106925741Y-29237394D01*
X106953000Y-29135661D01*
X106953000Y-29129447D01*
X107632474Y-29808921D01*
X107664859Y-29764349D01*
X107757755Y-29582031D01*
X107820990Y-29387417D01*
X107853000Y-29185317D01*
X107853000Y-28980682D01*
X107820990Y-28778582D01*
X107757755Y-28583968D01*
X107664859Y-28401650D01*
X107632474Y-28357077D01*
X107632474Y-28357076D01*
X106953000Y-29036551D01*
X106953000Y-29030339D01*
X106925741Y-28928606D01*
X106873080Y-28837394D01*
X106798606Y-28762920D01*
X106707394Y-28710259D01*
X106605661Y-28683000D01*
X106599446Y-28683000D01*
X107052250Y-28230197D01*
X108551500Y-28230197D01*
X108551500Y-28419802D01*
X108588486Y-28605743D01*
X108588488Y-28605751D01*
X108661042Y-28780912D01*
X108766377Y-28938558D01*
X108900441Y-29072622D01*
X108994786Y-29135661D01*
X109058085Y-29177956D01*
X109233249Y-29250512D01*
X109412335Y-29286134D01*
X109419197Y-29287499D01*
X109419201Y-29287500D01*
X109419202Y-29287500D01*
X109608799Y-29287500D01*
X109608800Y-29287499D01*
X109794751Y-29250512D01*
X109969915Y-29177956D01*
X110127558Y-29072622D01*
X110261622Y-28938558D01*
X110366956Y-28780915D01*
X110439512Y-28605751D01*
X110476500Y-28419798D01*
X110476500Y-28230202D01*
X110476500Y-28230199D01*
X110442753Y-28060542D01*
X110439512Y-28044249D01*
X110366956Y-27869085D01*
X110309436Y-27783000D01*
X110261622Y-27711441D01*
X110127558Y-27577377D01*
X109969912Y-27472042D01*
X109794751Y-27399488D01*
X109794743Y-27399486D01*
X109608802Y-27362500D01*
X109608798Y-27362500D01*
X109419202Y-27362500D01*
X109419197Y-27362500D01*
X109233256Y-27399486D01*
X109233248Y-27399488D01*
X109058087Y-27472042D01*
X108900441Y-27577377D01*
X108766377Y-27711441D01*
X108661042Y-27869087D01*
X108588488Y-28044248D01*
X108588486Y-28044256D01*
X108551500Y-28230197D01*
X107052250Y-28230197D01*
X107146018Y-28136429D01*
X107278922Y-28003524D01*
X107278921Y-28003523D01*
X107234359Y-27971147D01*
X107234350Y-27971141D01*
X107052031Y-27878244D01*
X106857417Y-27815009D01*
X106655317Y-27783000D01*
X106450683Y-27783000D01*
X106248582Y-27815009D01*
X106053968Y-27878244D01*
X105871650Y-27971140D01*
X105775386Y-28041081D01*
X105709579Y-28064561D01*
X105641525Y-28048736D01*
X105592830Y-27998630D01*
X105578500Y-27940763D01*
X105578500Y-27382000D01*
X105598185Y-27314961D01*
X105650989Y-27269206D01*
X105702500Y-27258000D01*
X106303000Y-27258000D01*
X106303000Y-26341012D01*
X106360007Y-26373925D01*
X106487174Y-26408000D01*
X106618826Y-26408000D01*
X106745993Y-26373925D01*
X106803000Y-26341012D01*
X106803000Y-27258000D01*
X107450828Y-27258000D01*
X107450844Y-27257999D01*
X107510372Y-27251598D01*
X107510379Y-27251596D01*
X107645086Y-27201354D01*
X107645093Y-27201350D01*
X107760187Y-27115190D01*
X107760190Y-27115187D01*
X107846350Y-27000093D01*
X107846354Y-27000086D01*
X107896596Y-26865379D01*
X107896598Y-26865372D01*
X107902999Y-26805844D01*
X107903000Y-26805827D01*
X107903000Y-26158000D01*
X106986012Y-26158000D01*
X107018925Y-26100993D01*
X107053000Y-25973826D01*
X107053000Y-25842174D01*
X107018925Y-25715007D01*
X106986012Y-25658000D01*
X107903000Y-25658000D01*
X107903000Y-25010172D01*
X107902822Y-25006847D01*
X107904346Y-25006765D01*
X107915707Y-24943950D01*
X107963339Y-24892832D01*
X108026568Y-24875500D01*
X108762957Y-24875500D01*
X108829996Y-24895185D01*
G37*
G04 #@! TD.AperFunction*
M02*
