%TF.GenerationSoftware,KiCad,Pcbnew,9.0.2*%
%TF.CreationDate,2025-07-15T04:34:07-04:00*%
%TF.ProjectId,FBT,4642542e-6b69-4636-9164-5f7063625858,rev?*%
%TF.SameCoordinates,Original*%
%TF.FileFunction,Drillmap*%
%TF.FilePolarity,Positive*%
%FSLAX45Y45*%
G04 Gerber Fmt 4.5, Leading zero omitted, Abs format (unit mm)*
G04 Created by KiCad (PCBNEW 9.0.2) date 2025-07-15 04:34:07*
%MOMM*%
%LPD*%
G01*
G04 APERTURE LIST*
%ADD10C,0.050000*%
%ADD11C,0.200000*%
%ADD12C,0.150000*%
G04 APERTURE END LIST*
D10*
X10507800Y-2437500D02*
X12609400Y-2437500D01*
X12609400Y-8977500D01*
X10507800Y-8977500D01*
X10507800Y-2437500D01*
D11*
D12*
X12194400Y-8040000D02*
X12344400Y-8190000D01*
X12344400Y-8040000D02*
X12194400Y-8190000D01*
X12194400Y-8740000D02*
X12344400Y-8890000D01*
X12344400Y-8740000D02*
X12194400Y-8890000D01*
D11*
X10766077Y-9291484D02*
X10766077Y-9091484D01*
X10766077Y-9091484D02*
X10813696Y-9091484D01*
X10813696Y-9091484D02*
X10842267Y-9101008D01*
X10842267Y-9101008D02*
X10861315Y-9120055D01*
X10861315Y-9120055D02*
X10870839Y-9139103D01*
X10870839Y-9139103D02*
X10880363Y-9177198D01*
X10880363Y-9177198D02*
X10880363Y-9205770D01*
X10880363Y-9205770D02*
X10870839Y-9243865D01*
X10870839Y-9243865D02*
X10861315Y-9262912D01*
X10861315Y-9262912D02*
X10842267Y-9281960D01*
X10842267Y-9281960D02*
X10813696Y-9291484D01*
X10813696Y-9291484D02*
X10766077Y-9291484D01*
X10966077Y-9291484D02*
X10966077Y-9158150D01*
X10966077Y-9196246D02*
X10975601Y-9177198D01*
X10975601Y-9177198D02*
X10985124Y-9167674D01*
X10985124Y-9167674D02*
X11004172Y-9158150D01*
X11004172Y-9158150D02*
X11023220Y-9158150D01*
X11089886Y-9291484D02*
X11089886Y-9158150D01*
X11089886Y-9091484D02*
X11080363Y-9101008D01*
X11080363Y-9101008D02*
X11089886Y-9110531D01*
X11089886Y-9110531D02*
X11099410Y-9101008D01*
X11099410Y-9101008D02*
X11089886Y-9091484D01*
X11089886Y-9091484D02*
X11089886Y-9110531D01*
X11213696Y-9291484D02*
X11194648Y-9281960D01*
X11194648Y-9281960D02*
X11185124Y-9262912D01*
X11185124Y-9262912D02*
X11185124Y-9091484D01*
X11318458Y-9291484D02*
X11299410Y-9281960D01*
X11299410Y-9281960D02*
X11289886Y-9262912D01*
X11289886Y-9262912D02*
X11289886Y-9091484D01*
X11547029Y-9291484D02*
X11547029Y-9091484D01*
X11547029Y-9091484D02*
X11613696Y-9234341D01*
X11613696Y-9234341D02*
X11680362Y-9091484D01*
X11680362Y-9091484D02*
X11680362Y-9291484D01*
X11861315Y-9291484D02*
X11861315Y-9186722D01*
X11861315Y-9186722D02*
X11851791Y-9167674D01*
X11851791Y-9167674D02*
X11832743Y-9158150D01*
X11832743Y-9158150D02*
X11794648Y-9158150D01*
X11794648Y-9158150D02*
X11775601Y-9167674D01*
X11861315Y-9281960D02*
X11842267Y-9291484D01*
X11842267Y-9291484D02*
X11794648Y-9291484D01*
X11794648Y-9291484D02*
X11775601Y-9281960D01*
X11775601Y-9281960D02*
X11766077Y-9262912D01*
X11766077Y-9262912D02*
X11766077Y-9243865D01*
X11766077Y-9243865D02*
X11775601Y-9224817D01*
X11775601Y-9224817D02*
X11794648Y-9215293D01*
X11794648Y-9215293D02*
X11842267Y-9215293D01*
X11842267Y-9215293D02*
X11861315Y-9205770D01*
X11956553Y-9158150D02*
X11956553Y-9358150D01*
X11956553Y-9167674D02*
X11975601Y-9158150D01*
X11975601Y-9158150D02*
X12013696Y-9158150D01*
X12013696Y-9158150D02*
X12032743Y-9167674D01*
X12032743Y-9167674D02*
X12042267Y-9177198D01*
X12042267Y-9177198D02*
X12051791Y-9196246D01*
X12051791Y-9196246D02*
X12051791Y-9253389D01*
X12051791Y-9253389D02*
X12042267Y-9272436D01*
X12042267Y-9272436D02*
X12032743Y-9281960D01*
X12032743Y-9281960D02*
X12013696Y-9291484D01*
X12013696Y-9291484D02*
X11975601Y-9291484D01*
X11975601Y-9291484D02*
X11956553Y-9281960D01*
X12137505Y-9272436D02*
X12147029Y-9281960D01*
X12147029Y-9281960D02*
X12137505Y-9291484D01*
X12137505Y-9291484D02*
X12127982Y-9281960D01*
X12127982Y-9281960D02*
X12137505Y-9272436D01*
X12137505Y-9272436D02*
X12137505Y-9291484D01*
X12137505Y-9167674D02*
X12147029Y-9177198D01*
X12147029Y-9177198D02*
X12137505Y-9186722D01*
X12137505Y-9186722D02*
X12127982Y-9177198D01*
X12127982Y-9177198D02*
X12137505Y-9167674D01*
X12137505Y-9167674D02*
X12137505Y-9186722D01*
D12*
X10355300Y-9545000D02*
X10505300Y-9695000D01*
X10505300Y-9545000D02*
X10355300Y-9695000D01*
D11*
X10870839Y-9711484D02*
X10756553Y-9711484D01*
X10813696Y-9711484D02*
X10813696Y-9511484D01*
X10813696Y-9511484D02*
X10794648Y-9540055D01*
X10794648Y-9540055D02*
X10775601Y-9559103D01*
X10775601Y-9559103D02*
X10756553Y-9568627D01*
X10956553Y-9692436D02*
X10966077Y-9701960D01*
X10966077Y-9701960D02*
X10956553Y-9711484D01*
X10956553Y-9711484D02*
X10947029Y-9701960D01*
X10947029Y-9701960D02*
X10956553Y-9692436D01*
X10956553Y-9692436D02*
X10956553Y-9711484D01*
X11147029Y-9511484D02*
X11051791Y-9511484D01*
X11051791Y-9511484D02*
X11042267Y-9606722D01*
X11042267Y-9606722D02*
X11051791Y-9597198D01*
X11051791Y-9597198D02*
X11070839Y-9587674D01*
X11070839Y-9587674D02*
X11118458Y-9587674D01*
X11118458Y-9587674D02*
X11137505Y-9597198D01*
X11137505Y-9597198D02*
X11147029Y-9606722D01*
X11147029Y-9606722D02*
X11156553Y-9625770D01*
X11156553Y-9625770D02*
X11156553Y-9673389D01*
X11156553Y-9673389D02*
X11147029Y-9692436D01*
X11147029Y-9692436D02*
X11137505Y-9701960D01*
X11137505Y-9701960D02*
X11118458Y-9711484D01*
X11118458Y-9711484D02*
X11070839Y-9711484D01*
X11070839Y-9711484D02*
X11051791Y-9701960D01*
X11051791Y-9701960D02*
X11042267Y-9692436D01*
X11280362Y-9511484D02*
X11299410Y-9511484D01*
X11299410Y-9511484D02*
X11318458Y-9521008D01*
X11318458Y-9521008D02*
X11327982Y-9530531D01*
X11327982Y-9530531D02*
X11337505Y-9549579D01*
X11337505Y-9549579D02*
X11347029Y-9587674D01*
X11347029Y-9587674D02*
X11347029Y-9635293D01*
X11347029Y-9635293D02*
X11337505Y-9673389D01*
X11337505Y-9673389D02*
X11327982Y-9692436D01*
X11327982Y-9692436D02*
X11318458Y-9701960D01*
X11318458Y-9701960D02*
X11299410Y-9711484D01*
X11299410Y-9711484D02*
X11280362Y-9711484D01*
X11280362Y-9711484D02*
X11261315Y-9701960D01*
X11261315Y-9701960D02*
X11251791Y-9692436D01*
X11251791Y-9692436D02*
X11242267Y-9673389D01*
X11242267Y-9673389D02*
X11232743Y-9635293D01*
X11232743Y-9635293D02*
X11232743Y-9587674D01*
X11232743Y-9587674D02*
X11242267Y-9549579D01*
X11242267Y-9549579D02*
X11251791Y-9530531D01*
X11251791Y-9530531D02*
X11261315Y-9521008D01*
X11261315Y-9521008D02*
X11280362Y-9511484D01*
X11470839Y-9511484D02*
X11489886Y-9511484D01*
X11489886Y-9511484D02*
X11508934Y-9521008D01*
X11508934Y-9521008D02*
X11518458Y-9530531D01*
X11518458Y-9530531D02*
X11527982Y-9549579D01*
X11527982Y-9549579D02*
X11537505Y-9587674D01*
X11537505Y-9587674D02*
X11537505Y-9635293D01*
X11537505Y-9635293D02*
X11527982Y-9673389D01*
X11527982Y-9673389D02*
X11518458Y-9692436D01*
X11518458Y-9692436D02*
X11508934Y-9701960D01*
X11508934Y-9701960D02*
X11489886Y-9711484D01*
X11489886Y-9711484D02*
X11470839Y-9711484D01*
X11470839Y-9711484D02*
X11451791Y-9701960D01*
X11451791Y-9701960D02*
X11442267Y-9692436D01*
X11442267Y-9692436D02*
X11432743Y-9673389D01*
X11432743Y-9673389D02*
X11423220Y-9635293D01*
X11423220Y-9635293D02*
X11423220Y-9587674D01*
X11423220Y-9587674D02*
X11432743Y-9549579D01*
X11432743Y-9549579D02*
X11442267Y-9530531D01*
X11442267Y-9530531D02*
X11451791Y-9521008D01*
X11451791Y-9521008D02*
X11470839Y-9511484D01*
X11623220Y-9711484D02*
X11623220Y-9578150D01*
X11623220Y-9597198D02*
X11632743Y-9587674D01*
X11632743Y-9587674D02*
X11651791Y-9578150D01*
X11651791Y-9578150D02*
X11680363Y-9578150D01*
X11680363Y-9578150D02*
X11699410Y-9587674D01*
X11699410Y-9587674D02*
X11708934Y-9606722D01*
X11708934Y-9606722D02*
X11708934Y-9711484D01*
X11708934Y-9606722D02*
X11718458Y-9587674D01*
X11718458Y-9587674D02*
X11737505Y-9578150D01*
X11737505Y-9578150D02*
X11766077Y-9578150D01*
X11766077Y-9578150D02*
X11785124Y-9587674D01*
X11785124Y-9587674D02*
X11794648Y-9606722D01*
X11794648Y-9606722D02*
X11794648Y-9711484D01*
X11889886Y-9711484D02*
X11889886Y-9578150D01*
X11889886Y-9597198D02*
X11899410Y-9587674D01*
X11899410Y-9587674D02*
X11918458Y-9578150D01*
X11918458Y-9578150D02*
X11947029Y-9578150D01*
X11947029Y-9578150D02*
X11966077Y-9587674D01*
X11966077Y-9587674D02*
X11975601Y-9606722D01*
X11975601Y-9606722D02*
X11975601Y-9711484D01*
X11975601Y-9606722D02*
X11985124Y-9587674D01*
X11985124Y-9587674D02*
X12004172Y-9578150D01*
X12004172Y-9578150D02*
X12032743Y-9578150D01*
X12032743Y-9578150D02*
X12051791Y-9587674D01*
X12051791Y-9587674D02*
X12061315Y-9606722D01*
X12061315Y-9606722D02*
X12061315Y-9711484D01*
X12451791Y-9501960D02*
X12280363Y-9759103D01*
X12708934Y-9511484D02*
X12727982Y-9511484D01*
X12727982Y-9511484D02*
X12747029Y-9521008D01*
X12747029Y-9521008D02*
X12756553Y-9530531D01*
X12756553Y-9530531D02*
X12766077Y-9549579D01*
X12766077Y-9549579D02*
X12775601Y-9587674D01*
X12775601Y-9587674D02*
X12775601Y-9635293D01*
X12775601Y-9635293D02*
X12766077Y-9673389D01*
X12766077Y-9673389D02*
X12756553Y-9692436D01*
X12756553Y-9692436D02*
X12747029Y-9701960D01*
X12747029Y-9701960D02*
X12727982Y-9711484D01*
X12727982Y-9711484D02*
X12708934Y-9711484D01*
X12708934Y-9711484D02*
X12689886Y-9701960D01*
X12689886Y-9701960D02*
X12680363Y-9692436D01*
X12680363Y-9692436D02*
X12670839Y-9673389D01*
X12670839Y-9673389D02*
X12661315Y-9635293D01*
X12661315Y-9635293D02*
X12661315Y-9587674D01*
X12661315Y-9587674D02*
X12670839Y-9549579D01*
X12670839Y-9549579D02*
X12680363Y-9530531D01*
X12680363Y-9530531D02*
X12689886Y-9521008D01*
X12689886Y-9521008D02*
X12708934Y-9511484D01*
X12861315Y-9692436D02*
X12870839Y-9701960D01*
X12870839Y-9701960D02*
X12861315Y-9711484D01*
X12861315Y-9711484D02*
X12851791Y-9701960D01*
X12851791Y-9701960D02*
X12861315Y-9692436D01*
X12861315Y-9692436D02*
X12861315Y-9711484D01*
X12994648Y-9511484D02*
X13013696Y-9511484D01*
X13013696Y-9511484D02*
X13032744Y-9521008D01*
X13032744Y-9521008D02*
X13042267Y-9530531D01*
X13042267Y-9530531D02*
X13051791Y-9549579D01*
X13051791Y-9549579D02*
X13061315Y-9587674D01*
X13061315Y-9587674D02*
X13061315Y-9635293D01*
X13061315Y-9635293D02*
X13051791Y-9673389D01*
X13051791Y-9673389D02*
X13042267Y-9692436D01*
X13042267Y-9692436D02*
X13032744Y-9701960D01*
X13032744Y-9701960D02*
X13013696Y-9711484D01*
X13013696Y-9711484D02*
X12994648Y-9711484D01*
X12994648Y-9711484D02*
X12975601Y-9701960D01*
X12975601Y-9701960D02*
X12966077Y-9692436D01*
X12966077Y-9692436D02*
X12956553Y-9673389D01*
X12956553Y-9673389D02*
X12947029Y-9635293D01*
X12947029Y-9635293D02*
X12947029Y-9587674D01*
X12947029Y-9587674D02*
X12956553Y-9549579D01*
X12956553Y-9549579D02*
X12966077Y-9530531D01*
X12966077Y-9530531D02*
X12975601Y-9521008D01*
X12975601Y-9521008D02*
X12994648Y-9511484D01*
X13242267Y-9511484D02*
X13147029Y-9511484D01*
X13147029Y-9511484D02*
X13137506Y-9606722D01*
X13137506Y-9606722D02*
X13147029Y-9597198D01*
X13147029Y-9597198D02*
X13166077Y-9587674D01*
X13166077Y-9587674D02*
X13213696Y-9587674D01*
X13213696Y-9587674D02*
X13232744Y-9597198D01*
X13232744Y-9597198D02*
X13242267Y-9606722D01*
X13242267Y-9606722D02*
X13251791Y-9625770D01*
X13251791Y-9625770D02*
X13251791Y-9673389D01*
X13251791Y-9673389D02*
X13242267Y-9692436D01*
X13242267Y-9692436D02*
X13232744Y-9701960D01*
X13232744Y-9701960D02*
X13213696Y-9711484D01*
X13213696Y-9711484D02*
X13166077Y-9711484D01*
X13166077Y-9711484D02*
X13147029Y-9701960D01*
X13147029Y-9701960D02*
X13137506Y-9692436D01*
X13347029Y-9711484D02*
X13385125Y-9711484D01*
X13385125Y-9711484D02*
X13404172Y-9701960D01*
X13404172Y-9701960D02*
X13413696Y-9692436D01*
X13413696Y-9692436D02*
X13432744Y-9663865D01*
X13432744Y-9663865D02*
X13442267Y-9625770D01*
X13442267Y-9625770D02*
X13442267Y-9549579D01*
X13442267Y-9549579D02*
X13432744Y-9530531D01*
X13432744Y-9530531D02*
X13423220Y-9521008D01*
X13423220Y-9521008D02*
X13404172Y-9511484D01*
X13404172Y-9511484D02*
X13366077Y-9511484D01*
X13366077Y-9511484D02*
X13347029Y-9521008D01*
X13347029Y-9521008D02*
X13337506Y-9530531D01*
X13337506Y-9530531D02*
X13327982Y-9549579D01*
X13327982Y-9549579D02*
X13327982Y-9597198D01*
X13327982Y-9597198D02*
X13337506Y-9616246D01*
X13337506Y-9616246D02*
X13347029Y-9625770D01*
X13347029Y-9625770D02*
X13366077Y-9635293D01*
X13366077Y-9635293D02*
X13404172Y-9635293D01*
X13404172Y-9635293D02*
X13423220Y-9625770D01*
X13423220Y-9625770D02*
X13432744Y-9616246D01*
X13432744Y-9616246D02*
X13442267Y-9597198D01*
X13632744Y-9711484D02*
X13518458Y-9711484D01*
X13575601Y-9711484D02*
X13575601Y-9511484D01*
X13575601Y-9511484D02*
X13556553Y-9540055D01*
X13556553Y-9540055D02*
X13537506Y-9559103D01*
X13537506Y-9559103D02*
X13518458Y-9568627D01*
X13708934Y-9511484D02*
X13708934Y-9549579D01*
X13785125Y-9511484D02*
X13785125Y-9549579D01*
X14080363Y-9787674D02*
X14070839Y-9778150D01*
X14070839Y-9778150D02*
X14051791Y-9749579D01*
X14051791Y-9749579D02*
X14042268Y-9730531D01*
X14042268Y-9730531D02*
X14032744Y-9701960D01*
X14032744Y-9701960D02*
X14023220Y-9654341D01*
X14023220Y-9654341D02*
X14023220Y-9616246D01*
X14023220Y-9616246D02*
X14032744Y-9568627D01*
X14032744Y-9568627D02*
X14042268Y-9540055D01*
X14042268Y-9540055D02*
X14051791Y-9521008D01*
X14051791Y-9521008D02*
X14070839Y-9492436D01*
X14070839Y-9492436D02*
X14080363Y-9482912D01*
X14147029Y-9530531D02*
X14156553Y-9521008D01*
X14156553Y-9521008D02*
X14175601Y-9511484D01*
X14175601Y-9511484D02*
X14223220Y-9511484D01*
X14223220Y-9511484D02*
X14242268Y-9521008D01*
X14242268Y-9521008D02*
X14251791Y-9530531D01*
X14251791Y-9530531D02*
X14261315Y-9549579D01*
X14261315Y-9549579D02*
X14261315Y-9568627D01*
X14261315Y-9568627D02*
X14251791Y-9597198D01*
X14251791Y-9597198D02*
X14137506Y-9711484D01*
X14137506Y-9711484D02*
X14261315Y-9711484D01*
X14499410Y-9711484D02*
X14499410Y-9511484D01*
X14585125Y-9711484D02*
X14585125Y-9606722D01*
X14585125Y-9606722D02*
X14575601Y-9587674D01*
X14575601Y-9587674D02*
X14556553Y-9578150D01*
X14556553Y-9578150D02*
X14527982Y-9578150D01*
X14527982Y-9578150D02*
X14508934Y-9587674D01*
X14508934Y-9587674D02*
X14499410Y-9597198D01*
X14708934Y-9711484D02*
X14689887Y-9701960D01*
X14689887Y-9701960D02*
X14680363Y-9692436D01*
X14680363Y-9692436D02*
X14670839Y-9673389D01*
X14670839Y-9673389D02*
X14670839Y-9616246D01*
X14670839Y-9616246D02*
X14680363Y-9597198D01*
X14680363Y-9597198D02*
X14689887Y-9587674D01*
X14689887Y-9587674D02*
X14708934Y-9578150D01*
X14708934Y-9578150D02*
X14737506Y-9578150D01*
X14737506Y-9578150D02*
X14756553Y-9587674D01*
X14756553Y-9587674D02*
X14766077Y-9597198D01*
X14766077Y-9597198D02*
X14775601Y-9616246D01*
X14775601Y-9616246D02*
X14775601Y-9673389D01*
X14775601Y-9673389D02*
X14766077Y-9692436D01*
X14766077Y-9692436D02*
X14756553Y-9701960D01*
X14756553Y-9701960D02*
X14737506Y-9711484D01*
X14737506Y-9711484D02*
X14708934Y-9711484D01*
X14889887Y-9711484D02*
X14870839Y-9701960D01*
X14870839Y-9701960D02*
X14861315Y-9682912D01*
X14861315Y-9682912D02*
X14861315Y-9511484D01*
X15042268Y-9701960D02*
X15023220Y-9711484D01*
X15023220Y-9711484D02*
X14985125Y-9711484D01*
X14985125Y-9711484D02*
X14966077Y-9701960D01*
X14966077Y-9701960D02*
X14956553Y-9682912D01*
X14956553Y-9682912D02*
X14956553Y-9606722D01*
X14956553Y-9606722D02*
X14966077Y-9587674D01*
X14966077Y-9587674D02*
X14985125Y-9578150D01*
X14985125Y-9578150D02*
X15023220Y-9578150D01*
X15023220Y-9578150D02*
X15042268Y-9587674D01*
X15042268Y-9587674D02*
X15051791Y-9606722D01*
X15051791Y-9606722D02*
X15051791Y-9625770D01*
X15051791Y-9625770D02*
X14956553Y-9644817D01*
X15127982Y-9701960D02*
X15147030Y-9711484D01*
X15147030Y-9711484D02*
X15185125Y-9711484D01*
X15185125Y-9711484D02*
X15204172Y-9701960D01*
X15204172Y-9701960D02*
X15213696Y-9682912D01*
X15213696Y-9682912D02*
X15213696Y-9673389D01*
X15213696Y-9673389D02*
X15204172Y-9654341D01*
X15204172Y-9654341D02*
X15185125Y-9644817D01*
X15185125Y-9644817D02*
X15156553Y-9644817D01*
X15156553Y-9644817D02*
X15137506Y-9635293D01*
X15137506Y-9635293D02*
X15127982Y-9616246D01*
X15127982Y-9616246D02*
X15127982Y-9606722D01*
X15127982Y-9606722D02*
X15137506Y-9587674D01*
X15137506Y-9587674D02*
X15156553Y-9578150D01*
X15156553Y-9578150D02*
X15185125Y-9578150D01*
X15185125Y-9578150D02*
X15204172Y-9587674D01*
X15280363Y-9787674D02*
X15289887Y-9778150D01*
X15289887Y-9778150D02*
X15308934Y-9749579D01*
X15308934Y-9749579D02*
X15318458Y-9730531D01*
X15318458Y-9730531D02*
X15327982Y-9701960D01*
X15327982Y-9701960D02*
X15337506Y-9654341D01*
X15337506Y-9654341D02*
X15337506Y-9616246D01*
X15337506Y-9616246D02*
X15327982Y-9568627D01*
X15327982Y-9568627D02*
X15318458Y-9540055D01*
X15318458Y-9540055D02*
X15308934Y-9521008D01*
X15308934Y-9521008D02*
X15289887Y-9492436D01*
X15289887Y-9492436D02*
X15280363Y-9482912D01*
X15642268Y-9787674D02*
X15632744Y-9778150D01*
X15632744Y-9778150D02*
X15613696Y-9749579D01*
X15613696Y-9749579D02*
X15604172Y-9730531D01*
X15604172Y-9730531D02*
X15594649Y-9701960D01*
X15594649Y-9701960D02*
X15585125Y-9654341D01*
X15585125Y-9654341D02*
X15585125Y-9616246D01*
X15585125Y-9616246D02*
X15594649Y-9568627D01*
X15594649Y-9568627D02*
X15604172Y-9540055D01*
X15604172Y-9540055D02*
X15613696Y-9521008D01*
X15613696Y-9521008D02*
X15632744Y-9492436D01*
X15632744Y-9492436D02*
X15642268Y-9482912D01*
X15718458Y-9578150D02*
X15718458Y-9711484D01*
X15718458Y-9597198D02*
X15727982Y-9587674D01*
X15727982Y-9587674D02*
X15747030Y-9578150D01*
X15747030Y-9578150D02*
X15775601Y-9578150D01*
X15775601Y-9578150D02*
X15794649Y-9587674D01*
X15794649Y-9587674D02*
X15804172Y-9606722D01*
X15804172Y-9606722D02*
X15804172Y-9711484D01*
X15927982Y-9711484D02*
X15908934Y-9701960D01*
X15908934Y-9701960D02*
X15899411Y-9692436D01*
X15899411Y-9692436D02*
X15889887Y-9673389D01*
X15889887Y-9673389D02*
X15889887Y-9616246D01*
X15889887Y-9616246D02*
X15899411Y-9597198D01*
X15899411Y-9597198D02*
X15908934Y-9587674D01*
X15908934Y-9587674D02*
X15927982Y-9578150D01*
X15927982Y-9578150D02*
X15956553Y-9578150D01*
X15956553Y-9578150D02*
X15975601Y-9587674D01*
X15975601Y-9587674D02*
X15985125Y-9597198D01*
X15985125Y-9597198D02*
X15994649Y-9616246D01*
X15994649Y-9616246D02*
X15994649Y-9673389D01*
X15994649Y-9673389D02*
X15985125Y-9692436D01*
X15985125Y-9692436D02*
X15975601Y-9701960D01*
X15975601Y-9701960D02*
X15956553Y-9711484D01*
X15956553Y-9711484D02*
X15927982Y-9711484D01*
X16051792Y-9578150D02*
X16127982Y-9578150D01*
X16080363Y-9511484D02*
X16080363Y-9682912D01*
X16080363Y-9682912D02*
X16089887Y-9701960D01*
X16089887Y-9701960D02*
X16108934Y-9711484D01*
X16108934Y-9711484D02*
X16127982Y-9711484D01*
X16347030Y-9578150D02*
X16347030Y-9778150D01*
X16347030Y-9587674D02*
X16366077Y-9578150D01*
X16366077Y-9578150D02*
X16404173Y-9578150D01*
X16404173Y-9578150D02*
X16423220Y-9587674D01*
X16423220Y-9587674D02*
X16432744Y-9597198D01*
X16432744Y-9597198D02*
X16442268Y-9616246D01*
X16442268Y-9616246D02*
X16442268Y-9673389D01*
X16442268Y-9673389D02*
X16432744Y-9692436D01*
X16432744Y-9692436D02*
X16423220Y-9701960D01*
X16423220Y-9701960D02*
X16404173Y-9711484D01*
X16404173Y-9711484D02*
X16366077Y-9711484D01*
X16366077Y-9711484D02*
X16347030Y-9701960D01*
X16556553Y-9711484D02*
X16537506Y-9701960D01*
X16537506Y-9701960D02*
X16527982Y-9682912D01*
X16527982Y-9682912D02*
X16527982Y-9511484D01*
X16718458Y-9711484D02*
X16718458Y-9606722D01*
X16718458Y-9606722D02*
X16708934Y-9587674D01*
X16708934Y-9587674D02*
X16689887Y-9578150D01*
X16689887Y-9578150D02*
X16651792Y-9578150D01*
X16651792Y-9578150D02*
X16632744Y-9587674D01*
X16718458Y-9701960D02*
X16699411Y-9711484D01*
X16699411Y-9711484D02*
X16651792Y-9711484D01*
X16651792Y-9711484D02*
X16632744Y-9701960D01*
X16632744Y-9701960D02*
X16623220Y-9682912D01*
X16623220Y-9682912D02*
X16623220Y-9663865D01*
X16623220Y-9663865D02*
X16632744Y-9644817D01*
X16632744Y-9644817D02*
X16651792Y-9635293D01*
X16651792Y-9635293D02*
X16699411Y-9635293D01*
X16699411Y-9635293D02*
X16718458Y-9625770D01*
X16785125Y-9578150D02*
X16861315Y-9578150D01*
X16813696Y-9511484D02*
X16813696Y-9682912D01*
X16813696Y-9682912D02*
X16823220Y-9701960D01*
X16823220Y-9701960D02*
X16842268Y-9711484D01*
X16842268Y-9711484D02*
X16861315Y-9711484D01*
X17004173Y-9701960D02*
X16985125Y-9711484D01*
X16985125Y-9711484D02*
X16947030Y-9711484D01*
X16947030Y-9711484D02*
X16927982Y-9701960D01*
X16927982Y-9701960D02*
X16918458Y-9682912D01*
X16918458Y-9682912D02*
X16918458Y-9606722D01*
X16918458Y-9606722D02*
X16927982Y-9587674D01*
X16927982Y-9587674D02*
X16947030Y-9578150D01*
X16947030Y-9578150D02*
X16985125Y-9578150D01*
X16985125Y-9578150D02*
X17004173Y-9587674D01*
X17004173Y-9587674D02*
X17013696Y-9606722D01*
X17013696Y-9606722D02*
X17013696Y-9625770D01*
X17013696Y-9625770D02*
X16918458Y-9644817D01*
X17185125Y-9711484D02*
X17185125Y-9511484D01*
X17185125Y-9701960D02*
X17166077Y-9711484D01*
X17166077Y-9711484D02*
X17127982Y-9711484D01*
X17127982Y-9711484D02*
X17108935Y-9701960D01*
X17108935Y-9701960D02*
X17099411Y-9692436D01*
X17099411Y-9692436D02*
X17089887Y-9673389D01*
X17089887Y-9673389D02*
X17089887Y-9616246D01*
X17089887Y-9616246D02*
X17099411Y-9597198D01*
X17099411Y-9597198D02*
X17108935Y-9587674D01*
X17108935Y-9587674D02*
X17127982Y-9578150D01*
X17127982Y-9578150D02*
X17166077Y-9578150D01*
X17166077Y-9578150D02*
X17185125Y-9587674D01*
X17261316Y-9787674D02*
X17270839Y-9778150D01*
X17270839Y-9778150D02*
X17289887Y-9749579D01*
X17289887Y-9749579D02*
X17299411Y-9730531D01*
X17299411Y-9730531D02*
X17308935Y-9701960D01*
X17308935Y-9701960D02*
X17318458Y-9654341D01*
X17318458Y-9654341D02*
X17318458Y-9616246D01*
X17318458Y-9616246D02*
X17308935Y-9568627D01*
X17308935Y-9568627D02*
X17299411Y-9540055D01*
X17299411Y-9540055D02*
X17289887Y-9521008D01*
X17289887Y-9521008D02*
X17270839Y-9492436D01*
X17270839Y-9492436D02*
X17261316Y-9482912D01*
M02*
