M48
; DRILL file {KiCad 9.0.2} date 2025-07-15T04:34:07-0400
; FORMAT={-:-/ absolute / metric / decimal}
; #@! TF.CreationDate,2025-07-15T04:34:07-04:00
; #@! TF.GenerationSoftware,Kicad,Pcbnew,9.0.2
; #@! TF.FileFunction,Plated,1,2,PTH
FMAT,2
METRIC
; #@! TA.AperFunction,Plated,PTH,ViaDrill
T1C0.300
; #@! TA.AperFunction,Plated,PTH,ComponentDrill
T2C0.700
; #@! TA.AperFunction,Plated,PTH,ComponentDrill
T3C0.800
; #@! TA.AperFunction,Plated,PTH,ComponentDrill
T4C0.900
; #@! TA.AperFunction,Plated,PTH,ComponentDrill
T5C1.000
; #@! TA.AperFunction,Plated,PTH,ComponentDrill
T6C1.100
; #@! TA.AperFunction,Plated,PTH,ComponentDrill
T7C1.250
%
G90
G05
T1
X106.4Y-62.9
X107.15Y-34.05
X108.0Y-30.8
X118.695Y-61.95
X121.05Y-61.8
X123.6Y-48.9
T3
X106.553Y-29.083
X106.553Y-36.703
X106.553Y-38.862
X106.553Y-46.482
X111.8Y-87.6
X113.8Y-87.6
X115.8Y-87.6
T4
X107.037Y-50.297
X107.037Y-52.837
X107.037Y-55.377
X107.037Y-57.917
X107.037Y-60.457
X108.746Y-63.356
X108.746Y-65.856
X108.746Y-72.856
X108.746Y-75.356
X109.474Y-43.565
X109.514Y-25.785
X109.514Y-28.325
X109.514Y-30.865
X109.514Y-33.405
X109.514Y-35.945
X109.514Y-38.485
X109.514Y-41.025
X109.601Y-50.292
X110.05Y-64.25
X110.05Y-66.75
X110.05Y-71.95
X110.05Y-74.45
X112.141Y-50.292
X112.141Y-60.452
X114.681Y-50.292
X114.681Y-60.452
X117.221Y-50.292
X117.221Y-60.452
X119.25Y-64.15
X119.25Y-74.55
X119.761Y-50.292
X119.761Y-60.452
X122.301Y-50.292
X122.301Y-60.452
X122.646Y-63.256
X122.646Y-75.456
X124.714Y-25.785
X124.714Y-28.325
X124.714Y-30.865
X124.714Y-33.405
X124.714Y-35.945
X124.714Y-38.485
X124.714Y-41.025
X124.714Y-43.565
X124.841Y-50.292
T5
X106.553Y-25.908
X107.061Y-80.518
X107.061Y-83.058
T6
X110.236Y-79.375
X110.236Y-83.0
X117.856Y-79.375
X117.856Y-83.0
T7
X109.7Y-87.6
X117.9Y-87.6
T2
X120.494Y-80.1G85X120.494Y-79.3
G05
X120.494Y-84.1G85X120.494Y-83.3
G05
X120.494Y-87.1G85X120.494Y-86.3
G05
X124.894Y-79.1G85X124.894Y-78.3
G05
M30
