%TF.GenerationSoftware,KiCad,Pcbnew,9.0.2*%
%TF.CreationDate,2025-07-09T02:38:07-04:00*%
%TF.ProjectId,FBT,4642542e-6b69-4636-9164-5f7063625858,rev?*%
%TF.SameCoordinates,Original*%
%TF.FileFunction,Drillmap*%
%TF.FilePolarity,Positive*%
%FSLAX45Y45*%
G04 Gerber Fmt 4.5, Leading zero omitted, Abs format (unit mm)*
G04 Created by KiCad (PCBNEW 9.0.2) date 2025-07-09 02:38:07*
%MOMM*%
%LPD*%
G01*
G04 APERTURE LIST*
%ADD10C,0.200000*%
%ADD11C,0.100000*%
%ADD12C,0.110000*%
%ADD13C,0.125000*%
G04 APERTURE END LIST*
D10*
X13000000Y-5000000D02*
X17000000Y-5000000D01*
X17000000Y-9000000D01*
X13000000Y-9000000D01*
X13000000Y-5000000D01*
D11*
X15955000Y-8285000D02*
X15985000Y-8315000D01*
X15985000Y-8285000D02*
X15955000Y-8315000D01*
X16442750Y-8657250D02*
X16472750Y-8687250D01*
X16472750Y-8657250D02*
X16442750Y-8687250D01*
X16475000Y-6575000D02*
X16505000Y-6605000D01*
X16505000Y-6575000D02*
X16475000Y-6605000D01*
X16485000Y-5785000D02*
X16515000Y-5815000D01*
X16515000Y-5785000D02*
X16485000Y-5815000D01*
X16590000Y-8370000D02*
X16620000Y-8400000D01*
X16620000Y-8370000D02*
X16590000Y-8400000D01*
X15910500Y-8450000D02*
G75*
G02*
X15840500Y-8450000I-35000J0D01*
G01*
X15840500Y-8450000D02*
G75*
G02*
X15910500Y-8450000I35000J0D01*
G01*
X15915500Y-8415000D02*
X15835500Y-8415000D01*
X15835500Y-8485000D02*
G75*
G02*
X15835500Y-8415000I0J35000D01*
G01*
X15835500Y-8485000D02*
X15915500Y-8485000D01*
X15915500Y-8485000D02*
G75*
G03*
X15915500Y-8415000I0J35000D01*
G01*
X16010500Y-8890000D02*
G75*
G02*
X15940500Y-8890000I-35000J0D01*
G01*
X15940500Y-8890000D02*
G75*
G02*
X16010500Y-8890000I35000J0D01*
G01*
X16015500Y-8855000D02*
X15935500Y-8855000D01*
X15935500Y-8925000D02*
G75*
G02*
X15935500Y-8855000I0J35000D01*
G01*
X15935500Y-8925000D02*
X16015500Y-8925000D01*
X16015500Y-8925000D02*
G75*
G03*
X16015500Y-8855000I0J35000D01*
G01*
X16410500Y-8890000D02*
G75*
G02*
X16340500Y-8890000I-35000J0D01*
G01*
X16340500Y-8890000D02*
G75*
G02*
X16410500Y-8890000I35000J0D01*
G01*
X16415500Y-8855000D02*
X16335500Y-8855000D01*
X16335500Y-8925000D02*
G75*
G02*
X16335500Y-8855000I0J35000D01*
G01*
X16335500Y-8925000D02*
X16415500Y-8925000D01*
X16415500Y-8925000D02*
G75*
G03*
X16415500Y-8855000I0J35000D01*
G01*
X16710500Y-8890000D02*
G75*
G02*
X16640500Y-8890000I-35000J0D01*
G01*
X16640500Y-8890000D02*
G75*
G02*
X16710500Y-8890000I35000J0D01*
G01*
X16715500Y-8855000D02*
X16635500Y-8855000D01*
X16635500Y-8925000D02*
G75*
G02*
X16635500Y-8855000I0J35000D01*
G01*
X16635500Y-8925000D02*
X16715500Y-8925000D01*
X16715500Y-8925000D02*
G75*
G03*
X16715500Y-8855000I0J35000D01*
G01*
X16125000Y-5480000D02*
X16125000Y-5560000D01*
X16085000Y-5520000D02*
X16165000Y-5520000D01*
X16128000Y-5160000D02*
X16128000Y-5240000D01*
X16088000Y-5200000D02*
X16168000Y-5200000D01*
X16770000Y-5985000D02*
X16770000Y-6065000D01*
X16730000Y-6025000D02*
X16810000Y-6025000D01*
X16770000Y-6185000D02*
X16770000Y-6265000D01*
X16730000Y-6225000D02*
X16810000Y-6225000D01*
X16770000Y-6385000D02*
X16770000Y-6465000D01*
X16730000Y-6425000D02*
X16810000Y-6425000D01*
X16887000Y-5480000D02*
X16887000Y-5560000D01*
X16847000Y-5520000D02*
X16927000Y-5520000D01*
X16890000Y-5160000D02*
X16890000Y-5240000D01*
X16850000Y-5200000D02*
X16930000Y-5200000D01*
X13159420Y-6935959D02*
X13159420Y-6872319D01*
X13095780Y-6872319D01*
X13095780Y-6935959D01*
X13159420Y-6935959D01*
X13163420Y-5157959D02*
X13163420Y-5094319D01*
X13099780Y-5094319D01*
X13099780Y-5157959D01*
X13163420Y-5157959D01*
X13163420Y-5411959D02*
X13163420Y-5348319D01*
X13099780Y-5348319D01*
X13099780Y-5411959D01*
X13163420Y-5411959D01*
X13163420Y-5665959D02*
X13163420Y-5602319D01*
X13099780Y-5602319D01*
X13099780Y-5665959D01*
X13163420Y-5665959D01*
X13163420Y-5919959D02*
X13163420Y-5856319D01*
X13099780Y-5856319D01*
X13099780Y-5919959D01*
X13163420Y-5919959D01*
X13163420Y-6173959D02*
X13163420Y-6110319D01*
X13099780Y-6110319D01*
X13099780Y-6173959D01*
X13163420Y-6173959D01*
X13163420Y-6427959D02*
X13163420Y-6364319D01*
X13099780Y-6364319D01*
X13099780Y-6427959D01*
X13163420Y-6427959D01*
X13163420Y-6681959D02*
X13163420Y-6618319D01*
X13099780Y-6618319D01*
X13099780Y-6681959D01*
X13163420Y-6681959D01*
X14683420Y-5157959D02*
X14683420Y-5094319D01*
X14619780Y-5094319D01*
X14619780Y-5157959D01*
X14683420Y-5157959D01*
X14683420Y-5411959D02*
X14683420Y-5348319D01*
X14619780Y-5348319D01*
X14619780Y-5411959D01*
X14683420Y-5411959D01*
X14683420Y-5665959D02*
X14683420Y-5602319D01*
X14619780Y-5602319D01*
X14619780Y-5665959D01*
X14683420Y-5665959D01*
X14683420Y-5919959D02*
X14683420Y-5856319D01*
X14619780Y-5856319D01*
X14619780Y-5919959D01*
X14683420Y-5919959D01*
X14683420Y-6173959D02*
X14683420Y-6110319D01*
X14619780Y-6110319D01*
X14619780Y-6173959D01*
X14683420Y-6173959D01*
X14683420Y-6427959D02*
X14683420Y-6364319D01*
X14619780Y-6364319D01*
X14619780Y-6427959D01*
X14683420Y-6427959D01*
X14683420Y-6681959D02*
X14683420Y-6618319D01*
X14619780Y-6618319D01*
X14619780Y-6681959D01*
X14683420Y-6681959D01*
X14683420Y-6935959D02*
X14683420Y-6872319D01*
X14619780Y-6872319D01*
X14619780Y-6935959D01*
X14683420Y-6935959D01*
X14751820Y-7863820D02*
X14751820Y-7800180D01*
X14688180Y-7800180D01*
X14688180Y-7863820D01*
X14751820Y-7863820D01*
X14751820Y-8117820D02*
X14751820Y-8054180D01*
X14688180Y-8054180D01*
X14688180Y-8117820D01*
X14751820Y-8117820D01*
X14751820Y-8371820D02*
X14751820Y-8308180D01*
X14688180Y-8308180D01*
X14688180Y-8371820D01*
X14751820Y-8371820D01*
X14751820Y-8625820D02*
X14751820Y-8562180D01*
X14688180Y-8562180D01*
X14688180Y-8625820D01*
X14751820Y-8625820D01*
X14751820Y-8879820D02*
X14751820Y-8816180D01*
X14688180Y-8816180D01*
X14688180Y-8879820D01*
X14751820Y-8879820D01*
X14921820Y-5711820D02*
X14921820Y-5648180D01*
X14858180Y-5648180D01*
X14858180Y-5711820D01*
X14921820Y-5711820D01*
X14931820Y-6631820D02*
X14931820Y-6568180D01*
X14868180Y-6568180D01*
X14868180Y-6631820D01*
X14931820Y-6631820D01*
X15181820Y-6631820D02*
X15181820Y-6568180D01*
X15118180Y-6568180D01*
X15118180Y-6631820D01*
X15181820Y-6631820D01*
X15371820Y-7181820D02*
X15371820Y-7118180D01*
X15308180Y-7118180D01*
X15308180Y-7181820D01*
X15371820Y-7181820D01*
X15625820Y-7181820D02*
X15625820Y-7118180D01*
X15562180Y-7118180D01*
X15562180Y-7181820D01*
X15625820Y-7181820D01*
X15625820Y-8197820D02*
X15625820Y-8134180D01*
X15562180Y-8134180D01*
X15562180Y-8197820D01*
X15625820Y-8197820D01*
X15701820Y-6631820D02*
X15701820Y-6568180D01*
X15638180Y-6568180D01*
X15638180Y-6631820D01*
X15701820Y-6631820D01*
X15879820Y-7181820D02*
X15879820Y-7118180D01*
X15816180Y-7118180D01*
X15816180Y-7181820D01*
X15879820Y-7181820D01*
X15879820Y-8197820D02*
X15879820Y-8134180D01*
X15816180Y-8134180D01*
X15816180Y-8197820D01*
X15879820Y-8197820D01*
X15951820Y-6631820D02*
X15951820Y-6568180D01*
X15888180Y-6568180D01*
X15888180Y-6631820D01*
X15951820Y-6631820D01*
X15961820Y-5711820D02*
X15961820Y-5648180D01*
X15898180Y-5648180D01*
X15898180Y-5711820D01*
X15961820Y-5711820D01*
X16133820Y-7181820D02*
X16133820Y-7118180D01*
X16070180Y-7118180D01*
X16070180Y-7181820D01*
X16133820Y-7181820D01*
X16133820Y-8197820D02*
X16133820Y-8134180D01*
X16070180Y-8134180D01*
X16070180Y-8197820D01*
X16133820Y-8197820D01*
X16387820Y-7181820D02*
X16387820Y-7118180D01*
X16324180Y-7118180D01*
X16324180Y-7181820D01*
X16387820Y-7181820D01*
X16387820Y-8197820D02*
X16387820Y-8134180D01*
X16324180Y-8134180D01*
X16324180Y-8197820D01*
X16387820Y-8197820D01*
X16641820Y-7181820D02*
X16641820Y-7118180D01*
X16578180Y-7118180D01*
X16578180Y-7181820D01*
X16641820Y-7181820D01*
X16641820Y-8197820D02*
X16641820Y-8134180D01*
X16578180Y-8134180D01*
X16578180Y-8197820D01*
X16641820Y-8197820D01*
X16895820Y-7181820D02*
X16895820Y-7118180D01*
X16832180Y-7118180D01*
X16832180Y-7181820D01*
X16895820Y-7181820D01*
X15160000Y-8770000D02*
X15210000Y-8720000D01*
X15160000Y-8670000D01*
X15110000Y-8720000D01*
X15160000Y-8770000D01*
X15410000Y-8770000D02*
X15460000Y-8720000D01*
X15410000Y-8670000D01*
X15360000Y-8720000D01*
X15410000Y-8770000D01*
D12*
X15393000Y-6805000D02*
X15503000Y-6915000D01*
X15503000Y-6805000D02*
X15393000Y-6915000D01*
X15503000Y-6860000D02*
G75*
G02*
X15393000Y-6860000I-55000J0D01*
G01*
X15393000Y-6860000D02*
G75*
G02*
X15503000Y-6860000I55000J0D01*
G01*
X16155000Y-5763000D02*
X16265000Y-5873000D01*
X16265000Y-5763000D02*
X16155000Y-5873000D01*
X16265000Y-5818000D02*
G75*
G02*
X16155000Y-5818000I-55000J0D01*
G01*
X16155000Y-5818000D02*
G75*
G02*
X16265000Y-5818000I55000J0D01*
G01*
X16155000Y-6525000D02*
X16265000Y-6635000D01*
X16265000Y-6525000D02*
X16155000Y-6635000D01*
X16265000Y-6580000D02*
G75*
G02*
X16155000Y-6580000I-55000J0D01*
G01*
X16155000Y-6580000D02*
G75*
G02*
X16265000Y-6580000I55000J0D01*
G01*
X16155000Y-6805000D02*
X16265000Y-6915000D01*
X16265000Y-6805000D02*
X16155000Y-6915000D01*
X16265000Y-6860000D02*
G75*
G02*
X16155000Y-6860000I-55000J0D01*
G01*
X16155000Y-6860000D02*
G75*
G02*
X16265000Y-6860000I55000J0D01*
G01*
D13*
X16707500Y-5752500D02*
X16832500Y-5877500D01*
X16832500Y-5752500D02*
X16707500Y-5877500D01*
X16770000Y-5752500D02*
X16770000Y-5877500D01*
X16707500Y-5815000D02*
X16832500Y-5815000D01*
X16707500Y-6572500D02*
X16832500Y-6697500D01*
X16832500Y-6572500D02*
X16707500Y-6697500D01*
X16770000Y-6572500D02*
X16770000Y-6697500D01*
X16707500Y-6635000D02*
X16832500Y-6635000D01*
D10*
X13250777Y-9321484D02*
X13250777Y-9121484D01*
X13250777Y-9121484D02*
X13298396Y-9121484D01*
X13298396Y-9121484D02*
X13326967Y-9131008D01*
X13326967Y-9131008D02*
X13346015Y-9150055D01*
X13346015Y-9150055D02*
X13355539Y-9169103D01*
X13355539Y-9169103D02*
X13365062Y-9207198D01*
X13365062Y-9207198D02*
X13365062Y-9235770D01*
X13365062Y-9235770D02*
X13355539Y-9273865D01*
X13355539Y-9273865D02*
X13346015Y-9292912D01*
X13346015Y-9292912D02*
X13326967Y-9311960D01*
X13326967Y-9311960D02*
X13298396Y-9321484D01*
X13298396Y-9321484D02*
X13250777Y-9321484D01*
X13450777Y-9321484D02*
X13450777Y-9188150D01*
X13450777Y-9226246D02*
X13460301Y-9207198D01*
X13460301Y-9207198D02*
X13469824Y-9197674D01*
X13469824Y-9197674D02*
X13488872Y-9188150D01*
X13488872Y-9188150D02*
X13507920Y-9188150D01*
X13574586Y-9321484D02*
X13574586Y-9188150D01*
X13574586Y-9121484D02*
X13565062Y-9131008D01*
X13565062Y-9131008D02*
X13574586Y-9140531D01*
X13574586Y-9140531D02*
X13584110Y-9131008D01*
X13584110Y-9131008D02*
X13574586Y-9121484D01*
X13574586Y-9121484D02*
X13574586Y-9140531D01*
X13698396Y-9321484D02*
X13679348Y-9311960D01*
X13679348Y-9311960D02*
X13669824Y-9292912D01*
X13669824Y-9292912D02*
X13669824Y-9121484D01*
X13803158Y-9321484D02*
X13784110Y-9311960D01*
X13784110Y-9311960D02*
X13774586Y-9292912D01*
X13774586Y-9292912D02*
X13774586Y-9121484D01*
X14031729Y-9321484D02*
X14031729Y-9121484D01*
X14031729Y-9121484D02*
X14098396Y-9264341D01*
X14098396Y-9264341D02*
X14165062Y-9121484D01*
X14165062Y-9121484D02*
X14165062Y-9321484D01*
X14346015Y-9321484D02*
X14346015Y-9216722D01*
X14346015Y-9216722D02*
X14336491Y-9197674D01*
X14336491Y-9197674D02*
X14317443Y-9188150D01*
X14317443Y-9188150D02*
X14279348Y-9188150D01*
X14279348Y-9188150D02*
X14260301Y-9197674D01*
X14346015Y-9311960D02*
X14326967Y-9321484D01*
X14326967Y-9321484D02*
X14279348Y-9321484D01*
X14279348Y-9321484D02*
X14260301Y-9311960D01*
X14260301Y-9311960D02*
X14250777Y-9292912D01*
X14250777Y-9292912D02*
X14250777Y-9273865D01*
X14250777Y-9273865D02*
X14260301Y-9254817D01*
X14260301Y-9254817D02*
X14279348Y-9245293D01*
X14279348Y-9245293D02*
X14326967Y-9245293D01*
X14326967Y-9245293D02*
X14346015Y-9235770D01*
X14441253Y-9188150D02*
X14441253Y-9388150D01*
X14441253Y-9197674D02*
X14460301Y-9188150D01*
X14460301Y-9188150D02*
X14498396Y-9188150D01*
X14498396Y-9188150D02*
X14517443Y-9197674D01*
X14517443Y-9197674D02*
X14526967Y-9207198D01*
X14526967Y-9207198D02*
X14536491Y-9226246D01*
X14536491Y-9226246D02*
X14536491Y-9283389D01*
X14536491Y-9283389D02*
X14526967Y-9302436D01*
X14526967Y-9302436D02*
X14517443Y-9311960D01*
X14517443Y-9311960D02*
X14498396Y-9321484D01*
X14498396Y-9321484D02*
X14460301Y-9321484D01*
X14460301Y-9321484D02*
X14441253Y-9311960D01*
X14622205Y-9302436D02*
X14631729Y-9311960D01*
X14631729Y-9311960D02*
X14622205Y-9321484D01*
X14622205Y-9321484D02*
X14612682Y-9311960D01*
X14612682Y-9311960D02*
X14622205Y-9302436D01*
X14622205Y-9302436D02*
X14622205Y-9321484D01*
X14622205Y-9197674D02*
X14631729Y-9207198D01*
X14631729Y-9207198D02*
X14622205Y-9216722D01*
X14622205Y-9216722D02*
X14612682Y-9207198D01*
X14612682Y-9207198D02*
X14622205Y-9197674D01*
X14622205Y-9197674D02*
X14622205Y-9216722D01*
D11*
X12960000Y-9635000D02*
X12990000Y-9665000D01*
X12990000Y-9635000D02*
X12960000Y-9665000D01*
D10*
X13288872Y-9541484D02*
X13307920Y-9541484D01*
X13307920Y-9541484D02*
X13326967Y-9551008D01*
X13326967Y-9551008D02*
X13336491Y-9560531D01*
X13336491Y-9560531D02*
X13346015Y-9579579D01*
X13346015Y-9579579D02*
X13355539Y-9617674D01*
X13355539Y-9617674D02*
X13355539Y-9665293D01*
X13355539Y-9665293D02*
X13346015Y-9703389D01*
X13346015Y-9703389D02*
X13336491Y-9722436D01*
X13336491Y-9722436D02*
X13326967Y-9731960D01*
X13326967Y-9731960D02*
X13307920Y-9741484D01*
X13307920Y-9741484D02*
X13288872Y-9741484D01*
X13288872Y-9741484D02*
X13269824Y-9731960D01*
X13269824Y-9731960D02*
X13260301Y-9722436D01*
X13260301Y-9722436D02*
X13250777Y-9703389D01*
X13250777Y-9703389D02*
X13241253Y-9665293D01*
X13241253Y-9665293D02*
X13241253Y-9617674D01*
X13241253Y-9617674D02*
X13250777Y-9579579D01*
X13250777Y-9579579D02*
X13260301Y-9560531D01*
X13260301Y-9560531D02*
X13269824Y-9551008D01*
X13269824Y-9551008D02*
X13288872Y-9541484D01*
X13441253Y-9722436D02*
X13450777Y-9731960D01*
X13450777Y-9731960D02*
X13441253Y-9741484D01*
X13441253Y-9741484D02*
X13431729Y-9731960D01*
X13431729Y-9731960D02*
X13441253Y-9722436D01*
X13441253Y-9722436D02*
X13441253Y-9741484D01*
X13517443Y-9541484D02*
X13641253Y-9541484D01*
X13641253Y-9541484D02*
X13574586Y-9617674D01*
X13574586Y-9617674D02*
X13603158Y-9617674D01*
X13603158Y-9617674D02*
X13622205Y-9627198D01*
X13622205Y-9627198D02*
X13631729Y-9636722D01*
X13631729Y-9636722D02*
X13641253Y-9655770D01*
X13641253Y-9655770D02*
X13641253Y-9703389D01*
X13641253Y-9703389D02*
X13631729Y-9722436D01*
X13631729Y-9722436D02*
X13622205Y-9731960D01*
X13622205Y-9731960D02*
X13603158Y-9741484D01*
X13603158Y-9741484D02*
X13546015Y-9741484D01*
X13546015Y-9741484D02*
X13526967Y-9731960D01*
X13526967Y-9731960D02*
X13517443Y-9722436D01*
X13765062Y-9541484D02*
X13784110Y-9541484D01*
X13784110Y-9541484D02*
X13803158Y-9551008D01*
X13803158Y-9551008D02*
X13812682Y-9560531D01*
X13812682Y-9560531D02*
X13822205Y-9579579D01*
X13822205Y-9579579D02*
X13831729Y-9617674D01*
X13831729Y-9617674D02*
X13831729Y-9665293D01*
X13831729Y-9665293D02*
X13822205Y-9703389D01*
X13822205Y-9703389D02*
X13812682Y-9722436D01*
X13812682Y-9722436D02*
X13803158Y-9731960D01*
X13803158Y-9731960D02*
X13784110Y-9741484D01*
X13784110Y-9741484D02*
X13765062Y-9741484D01*
X13765062Y-9741484D02*
X13746015Y-9731960D01*
X13746015Y-9731960D02*
X13736491Y-9722436D01*
X13736491Y-9722436D02*
X13726967Y-9703389D01*
X13726967Y-9703389D02*
X13717443Y-9665293D01*
X13717443Y-9665293D02*
X13717443Y-9617674D01*
X13717443Y-9617674D02*
X13726967Y-9579579D01*
X13726967Y-9579579D02*
X13736491Y-9560531D01*
X13736491Y-9560531D02*
X13746015Y-9551008D01*
X13746015Y-9551008D02*
X13765062Y-9541484D01*
X13955539Y-9541484D02*
X13974586Y-9541484D01*
X13974586Y-9541484D02*
X13993634Y-9551008D01*
X13993634Y-9551008D02*
X14003158Y-9560531D01*
X14003158Y-9560531D02*
X14012682Y-9579579D01*
X14012682Y-9579579D02*
X14022205Y-9617674D01*
X14022205Y-9617674D02*
X14022205Y-9665293D01*
X14022205Y-9665293D02*
X14012682Y-9703389D01*
X14012682Y-9703389D02*
X14003158Y-9722436D01*
X14003158Y-9722436D02*
X13993634Y-9731960D01*
X13993634Y-9731960D02*
X13974586Y-9741484D01*
X13974586Y-9741484D02*
X13955539Y-9741484D01*
X13955539Y-9741484D02*
X13936491Y-9731960D01*
X13936491Y-9731960D02*
X13926967Y-9722436D01*
X13926967Y-9722436D02*
X13917443Y-9703389D01*
X13917443Y-9703389D02*
X13907920Y-9665293D01*
X13907920Y-9665293D02*
X13907920Y-9617674D01*
X13907920Y-9617674D02*
X13917443Y-9579579D01*
X13917443Y-9579579D02*
X13926967Y-9560531D01*
X13926967Y-9560531D02*
X13936491Y-9551008D01*
X13936491Y-9551008D02*
X13955539Y-9541484D01*
X14107920Y-9741484D02*
X14107920Y-9608150D01*
X14107920Y-9627198D02*
X14117443Y-9617674D01*
X14117443Y-9617674D02*
X14136491Y-9608150D01*
X14136491Y-9608150D02*
X14165063Y-9608150D01*
X14165063Y-9608150D02*
X14184110Y-9617674D01*
X14184110Y-9617674D02*
X14193634Y-9636722D01*
X14193634Y-9636722D02*
X14193634Y-9741484D01*
X14193634Y-9636722D02*
X14203158Y-9617674D01*
X14203158Y-9617674D02*
X14222205Y-9608150D01*
X14222205Y-9608150D02*
X14250777Y-9608150D01*
X14250777Y-9608150D02*
X14269824Y-9617674D01*
X14269824Y-9617674D02*
X14279348Y-9636722D01*
X14279348Y-9636722D02*
X14279348Y-9741484D01*
X14374586Y-9741484D02*
X14374586Y-9608150D01*
X14374586Y-9627198D02*
X14384110Y-9617674D01*
X14384110Y-9617674D02*
X14403158Y-9608150D01*
X14403158Y-9608150D02*
X14431729Y-9608150D01*
X14431729Y-9608150D02*
X14450777Y-9617674D01*
X14450777Y-9617674D02*
X14460301Y-9636722D01*
X14460301Y-9636722D02*
X14460301Y-9741484D01*
X14460301Y-9636722D02*
X14469824Y-9617674D01*
X14469824Y-9617674D02*
X14488872Y-9608150D01*
X14488872Y-9608150D02*
X14517443Y-9608150D01*
X14517443Y-9608150D02*
X14536491Y-9617674D01*
X14536491Y-9617674D02*
X14546015Y-9636722D01*
X14546015Y-9636722D02*
X14546015Y-9741484D01*
X14936491Y-9531960D02*
X14765063Y-9789103D01*
X15193634Y-9541484D02*
X15212682Y-9541484D01*
X15212682Y-9541484D02*
X15231729Y-9551008D01*
X15231729Y-9551008D02*
X15241253Y-9560531D01*
X15241253Y-9560531D02*
X15250777Y-9579579D01*
X15250777Y-9579579D02*
X15260301Y-9617674D01*
X15260301Y-9617674D02*
X15260301Y-9665293D01*
X15260301Y-9665293D02*
X15250777Y-9703389D01*
X15250777Y-9703389D02*
X15241253Y-9722436D01*
X15241253Y-9722436D02*
X15231729Y-9731960D01*
X15231729Y-9731960D02*
X15212682Y-9741484D01*
X15212682Y-9741484D02*
X15193634Y-9741484D01*
X15193634Y-9741484D02*
X15174586Y-9731960D01*
X15174586Y-9731960D02*
X15165063Y-9722436D01*
X15165063Y-9722436D02*
X15155539Y-9703389D01*
X15155539Y-9703389D02*
X15146015Y-9665293D01*
X15146015Y-9665293D02*
X15146015Y-9617674D01*
X15146015Y-9617674D02*
X15155539Y-9579579D01*
X15155539Y-9579579D02*
X15165063Y-9560531D01*
X15165063Y-9560531D02*
X15174586Y-9551008D01*
X15174586Y-9551008D02*
X15193634Y-9541484D01*
X15346015Y-9722436D02*
X15355539Y-9731960D01*
X15355539Y-9731960D02*
X15346015Y-9741484D01*
X15346015Y-9741484D02*
X15336491Y-9731960D01*
X15336491Y-9731960D02*
X15346015Y-9722436D01*
X15346015Y-9722436D02*
X15346015Y-9741484D01*
X15479348Y-9541484D02*
X15498396Y-9541484D01*
X15498396Y-9541484D02*
X15517444Y-9551008D01*
X15517444Y-9551008D02*
X15526967Y-9560531D01*
X15526967Y-9560531D02*
X15536491Y-9579579D01*
X15536491Y-9579579D02*
X15546015Y-9617674D01*
X15546015Y-9617674D02*
X15546015Y-9665293D01*
X15546015Y-9665293D02*
X15536491Y-9703389D01*
X15536491Y-9703389D02*
X15526967Y-9722436D01*
X15526967Y-9722436D02*
X15517444Y-9731960D01*
X15517444Y-9731960D02*
X15498396Y-9741484D01*
X15498396Y-9741484D02*
X15479348Y-9741484D01*
X15479348Y-9741484D02*
X15460301Y-9731960D01*
X15460301Y-9731960D02*
X15450777Y-9722436D01*
X15450777Y-9722436D02*
X15441253Y-9703389D01*
X15441253Y-9703389D02*
X15431729Y-9665293D01*
X15431729Y-9665293D02*
X15431729Y-9617674D01*
X15431729Y-9617674D02*
X15441253Y-9579579D01*
X15441253Y-9579579D02*
X15450777Y-9560531D01*
X15450777Y-9560531D02*
X15460301Y-9551008D01*
X15460301Y-9551008D02*
X15479348Y-9541484D01*
X15736491Y-9741484D02*
X15622206Y-9741484D01*
X15679348Y-9741484D02*
X15679348Y-9541484D01*
X15679348Y-9541484D02*
X15660301Y-9570055D01*
X15660301Y-9570055D02*
X15641253Y-9589103D01*
X15641253Y-9589103D02*
X15622206Y-9598627D01*
X15926967Y-9741484D02*
X15812682Y-9741484D01*
X15869825Y-9741484D02*
X15869825Y-9541484D01*
X15869825Y-9541484D02*
X15850777Y-9570055D01*
X15850777Y-9570055D02*
X15831729Y-9589103D01*
X15831729Y-9589103D02*
X15812682Y-9598627D01*
X16041253Y-9627198D02*
X16022206Y-9617674D01*
X16022206Y-9617674D02*
X16012682Y-9608150D01*
X16012682Y-9608150D02*
X16003158Y-9589103D01*
X16003158Y-9589103D02*
X16003158Y-9579579D01*
X16003158Y-9579579D02*
X16012682Y-9560531D01*
X16012682Y-9560531D02*
X16022206Y-9551008D01*
X16022206Y-9551008D02*
X16041253Y-9541484D01*
X16041253Y-9541484D02*
X16079348Y-9541484D01*
X16079348Y-9541484D02*
X16098396Y-9551008D01*
X16098396Y-9551008D02*
X16107920Y-9560531D01*
X16107920Y-9560531D02*
X16117444Y-9579579D01*
X16117444Y-9579579D02*
X16117444Y-9589103D01*
X16117444Y-9589103D02*
X16107920Y-9608150D01*
X16107920Y-9608150D02*
X16098396Y-9617674D01*
X16098396Y-9617674D02*
X16079348Y-9627198D01*
X16079348Y-9627198D02*
X16041253Y-9627198D01*
X16041253Y-9627198D02*
X16022206Y-9636722D01*
X16022206Y-9636722D02*
X16012682Y-9646246D01*
X16012682Y-9646246D02*
X16003158Y-9665293D01*
X16003158Y-9665293D02*
X16003158Y-9703389D01*
X16003158Y-9703389D02*
X16012682Y-9722436D01*
X16012682Y-9722436D02*
X16022206Y-9731960D01*
X16022206Y-9731960D02*
X16041253Y-9741484D01*
X16041253Y-9741484D02*
X16079348Y-9741484D01*
X16079348Y-9741484D02*
X16098396Y-9731960D01*
X16098396Y-9731960D02*
X16107920Y-9722436D01*
X16107920Y-9722436D02*
X16117444Y-9703389D01*
X16117444Y-9703389D02*
X16117444Y-9665293D01*
X16117444Y-9665293D02*
X16107920Y-9646246D01*
X16107920Y-9646246D02*
X16098396Y-9636722D01*
X16098396Y-9636722D02*
X16079348Y-9627198D01*
X16193634Y-9541484D02*
X16193634Y-9579579D01*
X16269825Y-9541484D02*
X16269825Y-9579579D01*
X16565063Y-9817674D02*
X16555539Y-9808150D01*
X16555539Y-9808150D02*
X16536491Y-9779579D01*
X16536491Y-9779579D02*
X16526968Y-9760531D01*
X16526968Y-9760531D02*
X16517444Y-9731960D01*
X16517444Y-9731960D02*
X16507920Y-9684341D01*
X16507920Y-9684341D02*
X16507920Y-9646246D01*
X16507920Y-9646246D02*
X16517444Y-9598627D01*
X16517444Y-9598627D02*
X16526968Y-9570055D01*
X16526968Y-9570055D02*
X16536491Y-9551008D01*
X16536491Y-9551008D02*
X16555539Y-9522436D01*
X16555539Y-9522436D02*
X16565063Y-9512912D01*
X16736491Y-9541484D02*
X16641253Y-9541484D01*
X16641253Y-9541484D02*
X16631729Y-9636722D01*
X16631729Y-9636722D02*
X16641253Y-9627198D01*
X16641253Y-9627198D02*
X16660301Y-9617674D01*
X16660301Y-9617674D02*
X16707920Y-9617674D01*
X16707920Y-9617674D02*
X16726968Y-9627198D01*
X16726968Y-9627198D02*
X16736491Y-9636722D01*
X16736491Y-9636722D02*
X16746015Y-9655770D01*
X16746015Y-9655770D02*
X16746015Y-9703389D01*
X16746015Y-9703389D02*
X16736491Y-9722436D01*
X16736491Y-9722436D02*
X16726968Y-9731960D01*
X16726968Y-9731960D02*
X16707920Y-9741484D01*
X16707920Y-9741484D02*
X16660301Y-9741484D01*
X16660301Y-9741484D02*
X16641253Y-9731960D01*
X16641253Y-9731960D02*
X16631729Y-9722436D01*
X16984111Y-9741484D02*
X16984111Y-9541484D01*
X17069825Y-9741484D02*
X17069825Y-9636722D01*
X17069825Y-9636722D02*
X17060301Y-9617674D01*
X17060301Y-9617674D02*
X17041253Y-9608150D01*
X17041253Y-9608150D02*
X17012682Y-9608150D01*
X17012682Y-9608150D02*
X16993634Y-9617674D01*
X16993634Y-9617674D02*
X16984111Y-9627198D01*
X17193634Y-9741484D02*
X17174587Y-9731960D01*
X17174587Y-9731960D02*
X17165063Y-9722436D01*
X17165063Y-9722436D02*
X17155539Y-9703389D01*
X17155539Y-9703389D02*
X17155539Y-9646246D01*
X17155539Y-9646246D02*
X17165063Y-9627198D01*
X17165063Y-9627198D02*
X17174587Y-9617674D01*
X17174587Y-9617674D02*
X17193634Y-9608150D01*
X17193634Y-9608150D02*
X17222206Y-9608150D01*
X17222206Y-9608150D02*
X17241253Y-9617674D01*
X17241253Y-9617674D02*
X17250777Y-9627198D01*
X17250777Y-9627198D02*
X17260301Y-9646246D01*
X17260301Y-9646246D02*
X17260301Y-9703389D01*
X17260301Y-9703389D02*
X17250777Y-9722436D01*
X17250777Y-9722436D02*
X17241253Y-9731960D01*
X17241253Y-9731960D02*
X17222206Y-9741484D01*
X17222206Y-9741484D02*
X17193634Y-9741484D01*
X17374587Y-9741484D02*
X17355539Y-9731960D01*
X17355539Y-9731960D02*
X17346015Y-9712912D01*
X17346015Y-9712912D02*
X17346015Y-9541484D01*
X17526968Y-9731960D02*
X17507920Y-9741484D01*
X17507920Y-9741484D02*
X17469825Y-9741484D01*
X17469825Y-9741484D02*
X17450777Y-9731960D01*
X17450777Y-9731960D02*
X17441253Y-9712912D01*
X17441253Y-9712912D02*
X17441253Y-9636722D01*
X17441253Y-9636722D02*
X17450777Y-9617674D01*
X17450777Y-9617674D02*
X17469825Y-9608150D01*
X17469825Y-9608150D02*
X17507920Y-9608150D01*
X17507920Y-9608150D02*
X17526968Y-9617674D01*
X17526968Y-9617674D02*
X17536492Y-9636722D01*
X17536492Y-9636722D02*
X17536492Y-9655770D01*
X17536492Y-9655770D02*
X17441253Y-9674817D01*
X17612682Y-9731960D02*
X17631730Y-9741484D01*
X17631730Y-9741484D02*
X17669825Y-9741484D01*
X17669825Y-9741484D02*
X17688873Y-9731960D01*
X17688873Y-9731960D02*
X17698396Y-9712912D01*
X17698396Y-9712912D02*
X17698396Y-9703389D01*
X17698396Y-9703389D02*
X17688873Y-9684341D01*
X17688873Y-9684341D02*
X17669825Y-9674817D01*
X17669825Y-9674817D02*
X17641253Y-9674817D01*
X17641253Y-9674817D02*
X17622206Y-9665293D01*
X17622206Y-9665293D02*
X17612682Y-9646246D01*
X17612682Y-9646246D02*
X17612682Y-9636722D01*
X17612682Y-9636722D02*
X17622206Y-9617674D01*
X17622206Y-9617674D02*
X17641253Y-9608150D01*
X17641253Y-9608150D02*
X17669825Y-9608150D01*
X17669825Y-9608150D02*
X17688873Y-9617674D01*
X17765063Y-9817674D02*
X17774587Y-9808150D01*
X17774587Y-9808150D02*
X17793634Y-9779579D01*
X17793634Y-9779579D02*
X17803158Y-9760531D01*
X17803158Y-9760531D02*
X17812682Y-9731960D01*
X17812682Y-9731960D02*
X17822206Y-9684341D01*
X17822206Y-9684341D02*
X17822206Y-9646246D01*
X17822206Y-9646246D02*
X17812682Y-9598627D01*
X17812682Y-9598627D02*
X17803158Y-9570055D01*
X17803158Y-9570055D02*
X17793634Y-9551008D01*
X17793634Y-9551008D02*
X17774587Y-9522436D01*
X17774587Y-9522436D02*
X17765063Y-9512912D01*
D11*
X12990000Y-9914000D02*
G75*
G02*
X12920000Y-9914000I-35000J0D01*
G01*
X12920000Y-9914000D02*
G75*
G02*
X12990000Y-9914000I35000J0D01*
G01*
D10*
X13288872Y-9805484D02*
X13307920Y-9805484D01*
X13307920Y-9805484D02*
X13326967Y-9815008D01*
X13326967Y-9815008D02*
X13336491Y-9824531D01*
X13336491Y-9824531D02*
X13346015Y-9843579D01*
X13346015Y-9843579D02*
X13355539Y-9881674D01*
X13355539Y-9881674D02*
X13355539Y-9929293D01*
X13355539Y-9929293D02*
X13346015Y-9967389D01*
X13346015Y-9967389D02*
X13336491Y-9986436D01*
X13336491Y-9986436D02*
X13326967Y-9995960D01*
X13326967Y-9995960D02*
X13307920Y-10005484D01*
X13307920Y-10005484D02*
X13288872Y-10005484D01*
X13288872Y-10005484D02*
X13269824Y-9995960D01*
X13269824Y-9995960D02*
X13260301Y-9986436D01*
X13260301Y-9986436D02*
X13250777Y-9967389D01*
X13250777Y-9967389D02*
X13241253Y-9929293D01*
X13241253Y-9929293D02*
X13241253Y-9881674D01*
X13241253Y-9881674D02*
X13250777Y-9843579D01*
X13250777Y-9843579D02*
X13260301Y-9824531D01*
X13260301Y-9824531D02*
X13269824Y-9815008D01*
X13269824Y-9815008D02*
X13288872Y-9805484D01*
X13441253Y-9986436D02*
X13450777Y-9995960D01*
X13450777Y-9995960D02*
X13441253Y-10005484D01*
X13441253Y-10005484D02*
X13431729Y-9995960D01*
X13431729Y-9995960D02*
X13441253Y-9986436D01*
X13441253Y-9986436D02*
X13441253Y-10005484D01*
X13517443Y-9805484D02*
X13650777Y-9805484D01*
X13650777Y-9805484D02*
X13565062Y-10005484D01*
X13765062Y-9805484D02*
X13784110Y-9805484D01*
X13784110Y-9805484D02*
X13803158Y-9815008D01*
X13803158Y-9815008D02*
X13812682Y-9824531D01*
X13812682Y-9824531D02*
X13822205Y-9843579D01*
X13822205Y-9843579D02*
X13831729Y-9881674D01*
X13831729Y-9881674D02*
X13831729Y-9929293D01*
X13831729Y-9929293D02*
X13822205Y-9967389D01*
X13822205Y-9967389D02*
X13812682Y-9986436D01*
X13812682Y-9986436D02*
X13803158Y-9995960D01*
X13803158Y-9995960D02*
X13784110Y-10005484D01*
X13784110Y-10005484D02*
X13765062Y-10005484D01*
X13765062Y-10005484D02*
X13746015Y-9995960D01*
X13746015Y-9995960D02*
X13736491Y-9986436D01*
X13736491Y-9986436D02*
X13726967Y-9967389D01*
X13726967Y-9967389D02*
X13717443Y-9929293D01*
X13717443Y-9929293D02*
X13717443Y-9881674D01*
X13717443Y-9881674D02*
X13726967Y-9843579D01*
X13726967Y-9843579D02*
X13736491Y-9824531D01*
X13736491Y-9824531D02*
X13746015Y-9815008D01*
X13746015Y-9815008D02*
X13765062Y-9805484D01*
X13955539Y-9805484D02*
X13974586Y-9805484D01*
X13974586Y-9805484D02*
X13993634Y-9815008D01*
X13993634Y-9815008D02*
X14003158Y-9824531D01*
X14003158Y-9824531D02*
X14012682Y-9843579D01*
X14012682Y-9843579D02*
X14022205Y-9881674D01*
X14022205Y-9881674D02*
X14022205Y-9929293D01*
X14022205Y-9929293D02*
X14012682Y-9967389D01*
X14012682Y-9967389D02*
X14003158Y-9986436D01*
X14003158Y-9986436D02*
X13993634Y-9995960D01*
X13993634Y-9995960D02*
X13974586Y-10005484D01*
X13974586Y-10005484D02*
X13955539Y-10005484D01*
X13955539Y-10005484D02*
X13936491Y-9995960D01*
X13936491Y-9995960D02*
X13926967Y-9986436D01*
X13926967Y-9986436D02*
X13917443Y-9967389D01*
X13917443Y-9967389D02*
X13907920Y-9929293D01*
X13907920Y-9929293D02*
X13907920Y-9881674D01*
X13907920Y-9881674D02*
X13917443Y-9843579D01*
X13917443Y-9843579D02*
X13926967Y-9824531D01*
X13926967Y-9824531D02*
X13936491Y-9815008D01*
X13936491Y-9815008D02*
X13955539Y-9805484D01*
X14107920Y-10005484D02*
X14107920Y-9872150D01*
X14107920Y-9891198D02*
X14117443Y-9881674D01*
X14117443Y-9881674D02*
X14136491Y-9872150D01*
X14136491Y-9872150D02*
X14165063Y-9872150D01*
X14165063Y-9872150D02*
X14184110Y-9881674D01*
X14184110Y-9881674D02*
X14193634Y-9900722D01*
X14193634Y-9900722D02*
X14193634Y-10005484D01*
X14193634Y-9900722D02*
X14203158Y-9881674D01*
X14203158Y-9881674D02*
X14222205Y-9872150D01*
X14222205Y-9872150D02*
X14250777Y-9872150D01*
X14250777Y-9872150D02*
X14269824Y-9881674D01*
X14269824Y-9881674D02*
X14279348Y-9900722D01*
X14279348Y-9900722D02*
X14279348Y-10005484D01*
X14374586Y-10005484D02*
X14374586Y-9872150D01*
X14374586Y-9891198D02*
X14384110Y-9881674D01*
X14384110Y-9881674D02*
X14403158Y-9872150D01*
X14403158Y-9872150D02*
X14431729Y-9872150D01*
X14431729Y-9872150D02*
X14450777Y-9881674D01*
X14450777Y-9881674D02*
X14460301Y-9900722D01*
X14460301Y-9900722D02*
X14460301Y-10005484D01*
X14460301Y-9900722D02*
X14469824Y-9881674D01*
X14469824Y-9881674D02*
X14488872Y-9872150D01*
X14488872Y-9872150D02*
X14517443Y-9872150D01*
X14517443Y-9872150D02*
X14536491Y-9881674D01*
X14536491Y-9881674D02*
X14546015Y-9900722D01*
X14546015Y-9900722D02*
X14546015Y-10005484D01*
X14936491Y-9795960D02*
X14765063Y-10053103D01*
X15193634Y-9805484D02*
X15212682Y-9805484D01*
X15212682Y-9805484D02*
X15231729Y-9815008D01*
X15231729Y-9815008D02*
X15241253Y-9824531D01*
X15241253Y-9824531D02*
X15250777Y-9843579D01*
X15250777Y-9843579D02*
X15260301Y-9881674D01*
X15260301Y-9881674D02*
X15260301Y-9929293D01*
X15260301Y-9929293D02*
X15250777Y-9967389D01*
X15250777Y-9967389D02*
X15241253Y-9986436D01*
X15241253Y-9986436D02*
X15231729Y-9995960D01*
X15231729Y-9995960D02*
X15212682Y-10005484D01*
X15212682Y-10005484D02*
X15193634Y-10005484D01*
X15193634Y-10005484D02*
X15174586Y-9995960D01*
X15174586Y-9995960D02*
X15165063Y-9986436D01*
X15165063Y-9986436D02*
X15155539Y-9967389D01*
X15155539Y-9967389D02*
X15146015Y-9929293D01*
X15146015Y-9929293D02*
X15146015Y-9881674D01*
X15146015Y-9881674D02*
X15155539Y-9843579D01*
X15155539Y-9843579D02*
X15165063Y-9824531D01*
X15165063Y-9824531D02*
X15174586Y-9815008D01*
X15174586Y-9815008D02*
X15193634Y-9805484D01*
X15346015Y-9986436D02*
X15355539Y-9995960D01*
X15355539Y-9995960D02*
X15346015Y-10005484D01*
X15346015Y-10005484D02*
X15336491Y-9995960D01*
X15336491Y-9995960D02*
X15346015Y-9986436D01*
X15346015Y-9986436D02*
X15346015Y-10005484D01*
X15479348Y-9805484D02*
X15498396Y-9805484D01*
X15498396Y-9805484D02*
X15517444Y-9815008D01*
X15517444Y-9815008D02*
X15526967Y-9824531D01*
X15526967Y-9824531D02*
X15536491Y-9843579D01*
X15536491Y-9843579D02*
X15546015Y-9881674D01*
X15546015Y-9881674D02*
X15546015Y-9929293D01*
X15546015Y-9929293D02*
X15536491Y-9967389D01*
X15536491Y-9967389D02*
X15526967Y-9986436D01*
X15526967Y-9986436D02*
X15517444Y-9995960D01*
X15517444Y-9995960D02*
X15498396Y-10005484D01*
X15498396Y-10005484D02*
X15479348Y-10005484D01*
X15479348Y-10005484D02*
X15460301Y-9995960D01*
X15460301Y-9995960D02*
X15450777Y-9986436D01*
X15450777Y-9986436D02*
X15441253Y-9967389D01*
X15441253Y-9967389D02*
X15431729Y-9929293D01*
X15431729Y-9929293D02*
X15431729Y-9881674D01*
X15431729Y-9881674D02*
X15441253Y-9843579D01*
X15441253Y-9843579D02*
X15450777Y-9824531D01*
X15450777Y-9824531D02*
X15460301Y-9815008D01*
X15460301Y-9815008D02*
X15479348Y-9805484D01*
X15622206Y-9824531D02*
X15631729Y-9815008D01*
X15631729Y-9815008D02*
X15650777Y-9805484D01*
X15650777Y-9805484D02*
X15698396Y-9805484D01*
X15698396Y-9805484D02*
X15717444Y-9815008D01*
X15717444Y-9815008D02*
X15726967Y-9824531D01*
X15726967Y-9824531D02*
X15736491Y-9843579D01*
X15736491Y-9843579D02*
X15736491Y-9862627D01*
X15736491Y-9862627D02*
X15726967Y-9891198D01*
X15726967Y-9891198D02*
X15612682Y-10005484D01*
X15612682Y-10005484D02*
X15736491Y-10005484D01*
X15803158Y-9805484D02*
X15936491Y-9805484D01*
X15936491Y-9805484D02*
X15850777Y-10005484D01*
X16098396Y-9805484D02*
X16060301Y-9805484D01*
X16060301Y-9805484D02*
X16041253Y-9815008D01*
X16041253Y-9815008D02*
X16031729Y-9824531D01*
X16031729Y-9824531D02*
X16012682Y-9853103D01*
X16012682Y-9853103D02*
X16003158Y-9891198D01*
X16003158Y-9891198D02*
X16003158Y-9967389D01*
X16003158Y-9967389D02*
X16012682Y-9986436D01*
X16012682Y-9986436D02*
X16022206Y-9995960D01*
X16022206Y-9995960D02*
X16041253Y-10005484D01*
X16041253Y-10005484D02*
X16079348Y-10005484D01*
X16079348Y-10005484D02*
X16098396Y-9995960D01*
X16098396Y-9995960D02*
X16107920Y-9986436D01*
X16107920Y-9986436D02*
X16117444Y-9967389D01*
X16117444Y-9967389D02*
X16117444Y-9919770D01*
X16117444Y-9919770D02*
X16107920Y-9900722D01*
X16107920Y-9900722D02*
X16098396Y-9891198D01*
X16098396Y-9891198D02*
X16079348Y-9881674D01*
X16079348Y-9881674D02*
X16041253Y-9881674D01*
X16041253Y-9881674D02*
X16022206Y-9891198D01*
X16022206Y-9891198D02*
X16012682Y-9900722D01*
X16012682Y-9900722D02*
X16003158Y-9919770D01*
X16193634Y-9805484D02*
X16193634Y-9843579D01*
X16269825Y-9805484D02*
X16269825Y-9843579D01*
X16565063Y-10081674D02*
X16555539Y-10072150D01*
X16555539Y-10072150D02*
X16536491Y-10043579D01*
X16536491Y-10043579D02*
X16526968Y-10024531D01*
X16526968Y-10024531D02*
X16517444Y-9995960D01*
X16517444Y-9995960D02*
X16507920Y-9948341D01*
X16507920Y-9948341D02*
X16507920Y-9910246D01*
X16507920Y-9910246D02*
X16517444Y-9862627D01*
X16517444Y-9862627D02*
X16526968Y-9834055D01*
X16526968Y-9834055D02*
X16536491Y-9815008D01*
X16536491Y-9815008D02*
X16555539Y-9786436D01*
X16555539Y-9786436D02*
X16565063Y-9776912D01*
X16679348Y-9805484D02*
X16698396Y-9805484D01*
X16698396Y-9805484D02*
X16717444Y-9815008D01*
X16717444Y-9815008D02*
X16726968Y-9824531D01*
X16726968Y-9824531D02*
X16736491Y-9843579D01*
X16736491Y-9843579D02*
X16746015Y-9881674D01*
X16746015Y-9881674D02*
X16746015Y-9929293D01*
X16746015Y-9929293D02*
X16736491Y-9967389D01*
X16736491Y-9967389D02*
X16726968Y-9986436D01*
X16726968Y-9986436D02*
X16717444Y-9995960D01*
X16717444Y-9995960D02*
X16698396Y-10005484D01*
X16698396Y-10005484D02*
X16679348Y-10005484D01*
X16679348Y-10005484D02*
X16660301Y-9995960D01*
X16660301Y-9995960D02*
X16650777Y-9986436D01*
X16650777Y-9986436D02*
X16641253Y-9967389D01*
X16641253Y-9967389D02*
X16631729Y-9929293D01*
X16631729Y-9929293D02*
X16631729Y-9881674D01*
X16631729Y-9881674D02*
X16641253Y-9843579D01*
X16641253Y-9843579D02*
X16650777Y-9824531D01*
X16650777Y-9824531D02*
X16660301Y-9815008D01*
X16660301Y-9815008D02*
X16679348Y-9805484D01*
X16984111Y-10005484D02*
X16984111Y-9805484D01*
X17069825Y-10005484D02*
X17069825Y-9900722D01*
X17069825Y-9900722D02*
X17060301Y-9881674D01*
X17060301Y-9881674D02*
X17041253Y-9872150D01*
X17041253Y-9872150D02*
X17012682Y-9872150D01*
X17012682Y-9872150D02*
X16993634Y-9881674D01*
X16993634Y-9881674D02*
X16984111Y-9891198D01*
X17193634Y-10005484D02*
X17174587Y-9995960D01*
X17174587Y-9995960D02*
X17165063Y-9986436D01*
X17165063Y-9986436D02*
X17155539Y-9967389D01*
X17155539Y-9967389D02*
X17155539Y-9910246D01*
X17155539Y-9910246D02*
X17165063Y-9891198D01*
X17165063Y-9891198D02*
X17174587Y-9881674D01*
X17174587Y-9881674D02*
X17193634Y-9872150D01*
X17193634Y-9872150D02*
X17222206Y-9872150D01*
X17222206Y-9872150D02*
X17241253Y-9881674D01*
X17241253Y-9881674D02*
X17250777Y-9891198D01*
X17250777Y-9891198D02*
X17260301Y-9910246D01*
X17260301Y-9910246D02*
X17260301Y-9967389D01*
X17260301Y-9967389D02*
X17250777Y-9986436D01*
X17250777Y-9986436D02*
X17241253Y-9995960D01*
X17241253Y-9995960D02*
X17222206Y-10005484D01*
X17222206Y-10005484D02*
X17193634Y-10005484D01*
X17374587Y-10005484D02*
X17355539Y-9995960D01*
X17355539Y-9995960D02*
X17346015Y-9976912D01*
X17346015Y-9976912D02*
X17346015Y-9805484D01*
X17526968Y-9995960D02*
X17507920Y-10005484D01*
X17507920Y-10005484D02*
X17469825Y-10005484D01*
X17469825Y-10005484D02*
X17450777Y-9995960D01*
X17450777Y-9995960D02*
X17441253Y-9976912D01*
X17441253Y-9976912D02*
X17441253Y-9900722D01*
X17441253Y-9900722D02*
X17450777Y-9881674D01*
X17450777Y-9881674D02*
X17469825Y-9872150D01*
X17469825Y-9872150D02*
X17507920Y-9872150D01*
X17507920Y-9872150D02*
X17526968Y-9881674D01*
X17526968Y-9881674D02*
X17536492Y-9900722D01*
X17536492Y-9900722D02*
X17536492Y-9919770D01*
X17536492Y-9919770D02*
X17441253Y-9938817D01*
X17612682Y-9995960D02*
X17631730Y-10005484D01*
X17631730Y-10005484D02*
X17669825Y-10005484D01*
X17669825Y-10005484D02*
X17688873Y-9995960D01*
X17688873Y-9995960D02*
X17698396Y-9976912D01*
X17698396Y-9976912D02*
X17698396Y-9967389D01*
X17698396Y-9967389D02*
X17688873Y-9948341D01*
X17688873Y-9948341D02*
X17669825Y-9938817D01*
X17669825Y-9938817D02*
X17641253Y-9938817D01*
X17641253Y-9938817D02*
X17622206Y-9929293D01*
X17622206Y-9929293D02*
X17612682Y-9910246D01*
X17612682Y-9910246D02*
X17612682Y-9900722D01*
X17612682Y-9900722D02*
X17622206Y-9881674D01*
X17622206Y-9881674D02*
X17641253Y-9872150D01*
X17641253Y-9872150D02*
X17669825Y-9872150D01*
X17669825Y-9872150D02*
X17688873Y-9881674D01*
X17936492Y-9929293D02*
X18088873Y-9929293D01*
X18012682Y-10005484D02*
X18012682Y-9853103D01*
X18422206Y-9872150D02*
X18422206Y-10005484D01*
X18374587Y-9795960D02*
X18326968Y-9938817D01*
X18326968Y-9938817D02*
X18450777Y-9938817D01*
X18669825Y-9995960D02*
X18688873Y-10005484D01*
X18688873Y-10005484D02*
X18726968Y-10005484D01*
X18726968Y-10005484D02*
X18746016Y-9995960D01*
X18746016Y-9995960D02*
X18755539Y-9976912D01*
X18755539Y-9976912D02*
X18755539Y-9967389D01*
X18755539Y-9967389D02*
X18746016Y-9948341D01*
X18746016Y-9948341D02*
X18726968Y-9938817D01*
X18726968Y-9938817D02*
X18698396Y-9938817D01*
X18698396Y-9938817D02*
X18679349Y-9929293D01*
X18679349Y-9929293D02*
X18669825Y-9910246D01*
X18669825Y-9910246D02*
X18669825Y-9900722D01*
X18669825Y-9900722D02*
X18679349Y-9881674D01*
X18679349Y-9881674D02*
X18698396Y-9872150D01*
X18698396Y-9872150D02*
X18726968Y-9872150D01*
X18726968Y-9872150D02*
X18746016Y-9881674D01*
X18869825Y-10005484D02*
X18850777Y-9995960D01*
X18850777Y-9995960D02*
X18841254Y-9976912D01*
X18841254Y-9976912D02*
X18841254Y-9805484D01*
X18974587Y-10005484D02*
X18955539Y-9995960D01*
X18955539Y-9995960D02*
X18946016Y-9986436D01*
X18946016Y-9986436D02*
X18936492Y-9967389D01*
X18936492Y-9967389D02*
X18936492Y-9910246D01*
X18936492Y-9910246D02*
X18946016Y-9891198D01*
X18946016Y-9891198D02*
X18955539Y-9881674D01*
X18955539Y-9881674D02*
X18974587Y-9872150D01*
X18974587Y-9872150D02*
X19003158Y-9872150D01*
X19003158Y-9872150D02*
X19022206Y-9881674D01*
X19022206Y-9881674D02*
X19031730Y-9891198D01*
X19031730Y-9891198D02*
X19041254Y-9910246D01*
X19041254Y-9910246D02*
X19041254Y-9967389D01*
X19041254Y-9967389D02*
X19031730Y-9986436D01*
X19031730Y-9986436D02*
X19022206Y-9995960D01*
X19022206Y-9995960D02*
X19003158Y-10005484D01*
X19003158Y-10005484D02*
X18974587Y-10005484D01*
X19098397Y-9872150D02*
X19174587Y-9872150D01*
X19126968Y-9805484D02*
X19126968Y-9976912D01*
X19126968Y-9976912D02*
X19136492Y-9995960D01*
X19136492Y-9995960D02*
X19155539Y-10005484D01*
X19155539Y-10005484D02*
X19174587Y-10005484D01*
X19231730Y-9995960D02*
X19250777Y-10005484D01*
X19250777Y-10005484D02*
X19288873Y-10005484D01*
X19288873Y-10005484D02*
X19307920Y-9995960D01*
X19307920Y-9995960D02*
X19317444Y-9976912D01*
X19317444Y-9976912D02*
X19317444Y-9967389D01*
X19317444Y-9967389D02*
X19307920Y-9948341D01*
X19307920Y-9948341D02*
X19288873Y-9938817D01*
X19288873Y-9938817D02*
X19260301Y-9938817D01*
X19260301Y-9938817D02*
X19241254Y-9929293D01*
X19241254Y-9929293D02*
X19231730Y-9910246D01*
X19231730Y-9910246D02*
X19231730Y-9900722D01*
X19231730Y-9900722D02*
X19241254Y-9881674D01*
X19241254Y-9881674D02*
X19260301Y-9872150D01*
X19260301Y-9872150D02*
X19288873Y-9872150D01*
X19288873Y-9872150D02*
X19307920Y-9881674D01*
X19384111Y-10081674D02*
X19393635Y-10072150D01*
X19393635Y-10072150D02*
X19412682Y-10043579D01*
X19412682Y-10043579D02*
X19422206Y-10024531D01*
X19422206Y-10024531D02*
X19431730Y-9995960D01*
X19431730Y-9995960D02*
X19441254Y-9948341D01*
X19441254Y-9948341D02*
X19441254Y-9910246D01*
X19441254Y-9910246D02*
X19431730Y-9862627D01*
X19431730Y-9862627D02*
X19422206Y-9834055D01*
X19422206Y-9834055D02*
X19412682Y-9815008D01*
X19412682Y-9815008D02*
X19393635Y-9786436D01*
X19393635Y-9786436D02*
X19384111Y-9776912D01*
D11*
X12950000Y-10138000D02*
X12950000Y-10218000D01*
X12910000Y-10178000D02*
X12990000Y-10178000D01*
D10*
X13288872Y-10069484D02*
X13307920Y-10069484D01*
X13307920Y-10069484D02*
X13326967Y-10079008D01*
X13326967Y-10079008D02*
X13336491Y-10088531D01*
X13336491Y-10088531D02*
X13346015Y-10107579D01*
X13346015Y-10107579D02*
X13355539Y-10145674D01*
X13355539Y-10145674D02*
X13355539Y-10193293D01*
X13355539Y-10193293D02*
X13346015Y-10231389D01*
X13346015Y-10231389D02*
X13336491Y-10250436D01*
X13336491Y-10250436D02*
X13326967Y-10259960D01*
X13326967Y-10259960D02*
X13307920Y-10269484D01*
X13307920Y-10269484D02*
X13288872Y-10269484D01*
X13288872Y-10269484D02*
X13269824Y-10259960D01*
X13269824Y-10259960D02*
X13260301Y-10250436D01*
X13260301Y-10250436D02*
X13250777Y-10231389D01*
X13250777Y-10231389D02*
X13241253Y-10193293D01*
X13241253Y-10193293D02*
X13241253Y-10145674D01*
X13241253Y-10145674D02*
X13250777Y-10107579D01*
X13250777Y-10107579D02*
X13260301Y-10088531D01*
X13260301Y-10088531D02*
X13269824Y-10079008D01*
X13269824Y-10079008D02*
X13288872Y-10069484D01*
X13441253Y-10250436D02*
X13450777Y-10259960D01*
X13450777Y-10259960D02*
X13441253Y-10269484D01*
X13441253Y-10269484D02*
X13431729Y-10259960D01*
X13431729Y-10259960D02*
X13441253Y-10250436D01*
X13441253Y-10250436D02*
X13441253Y-10269484D01*
X13565062Y-10155198D02*
X13546015Y-10145674D01*
X13546015Y-10145674D02*
X13536491Y-10136150D01*
X13536491Y-10136150D02*
X13526967Y-10117103D01*
X13526967Y-10117103D02*
X13526967Y-10107579D01*
X13526967Y-10107579D02*
X13536491Y-10088531D01*
X13536491Y-10088531D02*
X13546015Y-10079008D01*
X13546015Y-10079008D02*
X13565062Y-10069484D01*
X13565062Y-10069484D02*
X13603158Y-10069484D01*
X13603158Y-10069484D02*
X13622205Y-10079008D01*
X13622205Y-10079008D02*
X13631729Y-10088531D01*
X13631729Y-10088531D02*
X13641253Y-10107579D01*
X13641253Y-10107579D02*
X13641253Y-10117103D01*
X13641253Y-10117103D02*
X13631729Y-10136150D01*
X13631729Y-10136150D02*
X13622205Y-10145674D01*
X13622205Y-10145674D02*
X13603158Y-10155198D01*
X13603158Y-10155198D02*
X13565062Y-10155198D01*
X13565062Y-10155198D02*
X13546015Y-10164722D01*
X13546015Y-10164722D02*
X13536491Y-10174246D01*
X13536491Y-10174246D02*
X13526967Y-10193293D01*
X13526967Y-10193293D02*
X13526967Y-10231389D01*
X13526967Y-10231389D02*
X13536491Y-10250436D01*
X13536491Y-10250436D02*
X13546015Y-10259960D01*
X13546015Y-10259960D02*
X13565062Y-10269484D01*
X13565062Y-10269484D02*
X13603158Y-10269484D01*
X13603158Y-10269484D02*
X13622205Y-10259960D01*
X13622205Y-10259960D02*
X13631729Y-10250436D01*
X13631729Y-10250436D02*
X13641253Y-10231389D01*
X13641253Y-10231389D02*
X13641253Y-10193293D01*
X13641253Y-10193293D02*
X13631729Y-10174246D01*
X13631729Y-10174246D02*
X13622205Y-10164722D01*
X13622205Y-10164722D02*
X13603158Y-10155198D01*
X13765062Y-10069484D02*
X13784110Y-10069484D01*
X13784110Y-10069484D02*
X13803158Y-10079008D01*
X13803158Y-10079008D02*
X13812682Y-10088531D01*
X13812682Y-10088531D02*
X13822205Y-10107579D01*
X13822205Y-10107579D02*
X13831729Y-10145674D01*
X13831729Y-10145674D02*
X13831729Y-10193293D01*
X13831729Y-10193293D02*
X13822205Y-10231389D01*
X13822205Y-10231389D02*
X13812682Y-10250436D01*
X13812682Y-10250436D02*
X13803158Y-10259960D01*
X13803158Y-10259960D02*
X13784110Y-10269484D01*
X13784110Y-10269484D02*
X13765062Y-10269484D01*
X13765062Y-10269484D02*
X13746015Y-10259960D01*
X13746015Y-10259960D02*
X13736491Y-10250436D01*
X13736491Y-10250436D02*
X13726967Y-10231389D01*
X13726967Y-10231389D02*
X13717443Y-10193293D01*
X13717443Y-10193293D02*
X13717443Y-10145674D01*
X13717443Y-10145674D02*
X13726967Y-10107579D01*
X13726967Y-10107579D02*
X13736491Y-10088531D01*
X13736491Y-10088531D02*
X13746015Y-10079008D01*
X13746015Y-10079008D02*
X13765062Y-10069484D01*
X13955539Y-10069484D02*
X13974586Y-10069484D01*
X13974586Y-10069484D02*
X13993634Y-10079008D01*
X13993634Y-10079008D02*
X14003158Y-10088531D01*
X14003158Y-10088531D02*
X14012682Y-10107579D01*
X14012682Y-10107579D02*
X14022205Y-10145674D01*
X14022205Y-10145674D02*
X14022205Y-10193293D01*
X14022205Y-10193293D02*
X14012682Y-10231389D01*
X14012682Y-10231389D02*
X14003158Y-10250436D01*
X14003158Y-10250436D02*
X13993634Y-10259960D01*
X13993634Y-10259960D02*
X13974586Y-10269484D01*
X13974586Y-10269484D02*
X13955539Y-10269484D01*
X13955539Y-10269484D02*
X13936491Y-10259960D01*
X13936491Y-10259960D02*
X13926967Y-10250436D01*
X13926967Y-10250436D02*
X13917443Y-10231389D01*
X13917443Y-10231389D02*
X13907920Y-10193293D01*
X13907920Y-10193293D02*
X13907920Y-10145674D01*
X13907920Y-10145674D02*
X13917443Y-10107579D01*
X13917443Y-10107579D02*
X13926967Y-10088531D01*
X13926967Y-10088531D02*
X13936491Y-10079008D01*
X13936491Y-10079008D02*
X13955539Y-10069484D01*
X14107920Y-10269484D02*
X14107920Y-10136150D01*
X14107920Y-10155198D02*
X14117443Y-10145674D01*
X14117443Y-10145674D02*
X14136491Y-10136150D01*
X14136491Y-10136150D02*
X14165063Y-10136150D01*
X14165063Y-10136150D02*
X14184110Y-10145674D01*
X14184110Y-10145674D02*
X14193634Y-10164722D01*
X14193634Y-10164722D02*
X14193634Y-10269484D01*
X14193634Y-10164722D02*
X14203158Y-10145674D01*
X14203158Y-10145674D02*
X14222205Y-10136150D01*
X14222205Y-10136150D02*
X14250777Y-10136150D01*
X14250777Y-10136150D02*
X14269824Y-10145674D01*
X14269824Y-10145674D02*
X14279348Y-10164722D01*
X14279348Y-10164722D02*
X14279348Y-10269484D01*
X14374586Y-10269484D02*
X14374586Y-10136150D01*
X14374586Y-10155198D02*
X14384110Y-10145674D01*
X14384110Y-10145674D02*
X14403158Y-10136150D01*
X14403158Y-10136150D02*
X14431729Y-10136150D01*
X14431729Y-10136150D02*
X14450777Y-10145674D01*
X14450777Y-10145674D02*
X14460301Y-10164722D01*
X14460301Y-10164722D02*
X14460301Y-10269484D01*
X14460301Y-10164722D02*
X14469824Y-10145674D01*
X14469824Y-10145674D02*
X14488872Y-10136150D01*
X14488872Y-10136150D02*
X14517443Y-10136150D01*
X14517443Y-10136150D02*
X14536491Y-10145674D01*
X14536491Y-10145674D02*
X14546015Y-10164722D01*
X14546015Y-10164722D02*
X14546015Y-10269484D01*
X14936491Y-10059960D02*
X14765063Y-10317103D01*
X15193634Y-10069484D02*
X15212682Y-10069484D01*
X15212682Y-10069484D02*
X15231729Y-10079008D01*
X15231729Y-10079008D02*
X15241253Y-10088531D01*
X15241253Y-10088531D02*
X15250777Y-10107579D01*
X15250777Y-10107579D02*
X15260301Y-10145674D01*
X15260301Y-10145674D02*
X15260301Y-10193293D01*
X15260301Y-10193293D02*
X15250777Y-10231389D01*
X15250777Y-10231389D02*
X15241253Y-10250436D01*
X15241253Y-10250436D02*
X15231729Y-10259960D01*
X15231729Y-10259960D02*
X15212682Y-10269484D01*
X15212682Y-10269484D02*
X15193634Y-10269484D01*
X15193634Y-10269484D02*
X15174586Y-10259960D01*
X15174586Y-10259960D02*
X15165063Y-10250436D01*
X15165063Y-10250436D02*
X15155539Y-10231389D01*
X15155539Y-10231389D02*
X15146015Y-10193293D01*
X15146015Y-10193293D02*
X15146015Y-10145674D01*
X15146015Y-10145674D02*
X15155539Y-10107579D01*
X15155539Y-10107579D02*
X15165063Y-10088531D01*
X15165063Y-10088531D02*
X15174586Y-10079008D01*
X15174586Y-10079008D02*
X15193634Y-10069484D01*
X15346015Y-10250436D02*
X15355539Y-10259960D01*
X15355539Y-10259960D02*
X15346015Y-10269484D01*
X15346015Y-10269484D02*
X15336491Y-10259960D01*
X15336491Y-10259960D02*
X15346015Y-10250436D01*
X15346015Y-10250436D02*
X15346015Y-10269484D01*
X15479348Y-10069484D02*
X15498396Y-10069484D01*
X15498396Y-10069484D02*
X15517444Y-10079008D01*
X15517444Y-10079008D02*
X15526967Y-10088531D01*
X15526967Y-10088531D02*
X15536491Y-10107579D01*
X15536491Y-10107579D02*
X15546015Y-10145674D01*
X15546015Y-10145674D02*
X15546015Y-10193293D01*
X15546015Y-10193293D02*
X15536491Y-10231389D01*
X15536491Y-10231389D02*
X15526967Y-10250436D01*
X15526967Y-10250436D02*
X15517444Y-10259960D01*
X15517444Y-10259960D02*
X15498396Y-10269484D01*
X15498396Y-10269484D02*
X15479348Y-10269484D01*
X15479348Y-10269484D02*
X15460301Y-10259960D01*
X15460301Y-10259960D02*
X15450777Y-10250436D01*
X15450777Y-10250436D02*
X15441253Y-10231389D01*
X15441253Y-10231389D02*
X15431729Y-10193293D01*
X15431729Y-10193293D02*
X15431729Y-10145674D01*
X15431729Y-10145674D02*
X15441253Y-10107579D01*
X15441253Y-10107579D02*
X15450777Y-10088531D01*
X15450777Y-10088531D02*
X15460301Y-10079008D01*
X15460301Y-10079008D02*
X15479348Y-10069484D01*
X15612682Y-10069484D02*
X15736491Y-10069484D01*
X15736491Y-10069484D02*
X15669825Y-10145674D01*
X15669825Y-10145674D02*
X15698396Y-10145674D01*
X15698396Y-10145674D02*
X15717444Y-10155198D01*
X15717444Y-10155198D02*
X15726967Y-10164722D01*
X15726967Y-10164722D02*
X15736491Y-10183770D01*
X15736491Y-10183770D02*
X15736491Y-10231389D01*
X15736491Y-10231389D02*
X15726967Y-10250436D01*
X15726967Y-10250436D02*
X15717444Y-10259960D01*
X15717444Y-10259960D02*
X15698396Y-10269484D01*
X15698396Y-10269484D02*
X15641253Y-10269484D01*
X15641253Y-10269484D02*
X15622206Y-10259960D01*
X15622206Y-10259960D02*
X15612682Y-10250436D01*
X15926967Y-10269484D02*
X15812682Y-10269484D01*
X15869825Y-10269484D02*
X15869825Y-10069484D01*
X15869825Y-10069484D02*
X15850777Y-10098055D01*
X15850777Y-10098055D02*
X15831729Y-10117103D01*
X15831729Y-10117103D02*
X15812682Y-10126627D01*
X16107920Y-10069484D02*
X16012682Y-10069484D01*
X16012682Y-10069484D02*
X16003158Y-10164722D01*
X16003158Y-10164722D02*
X16012682Y-10155198D01*
X16012682Y-10155198D02*
X16031729Y-10145674D01*
X16031729Y-10145674D02*
X16079348Y-10145674D01*
X16079348Y-10145674D02*
X16098396Y-10155198D01*
X16098396Y-10155198D02*
X16107920Y-10164722D01*
X16107920Y-10164722D02*
X16117444Y-10183770D01*
X16117444Y-10183770D02*
X16117444Y-10231389D01*
X16117444Y-10231389D02*
X16107920Y-10250436D01*
X16107920Y-10250436D02*
X16098396Y-10259960D01*
X16098396Y-10259960D02*
X16079348Y-10269484D01*
X16079348Y-10269484D02*
X16031729Y-10269484D01*
X16031729Y-10269484D02*
X16012682Y-10259960D01*
X16012682Y-10259960D02*
X16003158Y-10250436D01*
X16193634Y-10069484D02*
X16193634Y-10107579D01*
X16269825Y-10069484D02*
X16269825Y-10107579D01*
X16565063Y-10345674D02*
X16555539Y-10336150D01*
X16555539Y-10336150D02*
X16536491Y-10307579D01*
X16536491Y-10307579D02*
X16526968Y-10288531D01*
X16526968Y-10288531D02*
X16517444Y-10259960D01*
X16517444Y-10259960D02*
X16507920Y-10212341D01*
X16507920Y-10212341D02*
X16507920Y-10174246D01*
X16507920Y-10174246D02*
X16517444Y-10126627D01*
X16517444Y-10126627D02*
X16526968Y-10098055D01*
X16526968Y-10098055D02*
X16536491Y-10079008D01*
X16536491Y-10079008D02*
X16555539Y-10050436D01*
X16555539Y-10050436D02*
X16565063Y-10040912D01*
X16622206Y-10069484D02*
X16755539Y-10069484D01*
X16755539Y-10069484D02*
X16669825Y-10269484D01*
X16984111Y-10269484D02*
X16984111Y-10069484D01*
X17069825Y-10269484D02*
X17069825Y-10164722D01*
X17069825Y-10164722D02*
X17060301Y-10145674D01*
X17060301Y-10145674D02*
X17041253Y-10136150D01*
X17041253Y-10136150D02*
X17012682Y-10136150D01*
X17012682Y-10136150D02*
X16993634Y-10145674D01*
X16993634Y-10145674D02*
X16984111Y-10155198D01*
X17193634Y-10269484D02*
X17174587Y-10259960D01*
X17174587Y-10259960D02*
X17165063Y-10250436D01*
X17165063Y-10250436D02*
X17155539Y-10231389D01*
X17155539Y-10231389D02*
X17155539Y-10174246D01*
X17155539Y-10174246D02*
X17165063Y-10155198D01*
X17165063Y-10155198D02*
X17174587Y-10145674D01*
X17174587Y-10145674D02*
X17193634Y-10136150D01*
X17193634Y-10136150D02*
X17222206Y-10136150D01*
X17222206Y-10136150D02*
X17241253Y-10145674D01*
X17241253Y-10145674D02*
X17250777Y-10155198D01*
X17250777Y-10155198D02*
X17260301Y-10174246D01*
X17260301Y-10174246D02*
X17260301Y-10231389D01*
X17260301Y-10231389D02*
X17250777Y-10250436D01*
X17250777Y-10250436D02*
X17241253Y-10259960D01*
X17241253Y-10259960D02*
X17222206Y-10269484D01*
X17222206Y-10269484D02*
X17193634Y-10269484D01*
X17374587Y-10269484D02*
X17355539Y-10259960D01*
X17355539Y-10259960D02*
X17346015Y-10240912D01*
X17346015Y-10240912D02*
X17346015Y-10069484D01*
X17526968Y-10259960D02*
X17507920Y-10269484D01*
X17507920Y-10269484D02*
X17469825Y-10269484D01*
X17469825Y-10269484D02*
X17450777Y-10259960D01*
X17450777Y-10259960D02*
X17441253Y-10240912D01*
X17441253Y-10240912D02*
X17441253Y-10164722D01*
X17441253Y-10164722D02*
X17450777Y-10145674D01*
X17450777Y-10145674D02*
X17469825Y-10136150D01*
X17469825Y-10136150D02*
X17507920Y-10136150D01*
X17507920Y-10136150D02*
X17526968Y-10145674D01*
X17526968Y-10145674D02*
X17536492Y-10164722D01*
X17536492Y-10164722D02*
X17536492Y-10183770D01*
X17536492Y-10183770D02*
X17441253Y-10202817D01*
X17612682Y-10259960D02*
X17631730Y-10269484D01*
X17631730Y-10269484D02*
X17669825Y-10269484D01*
X17669825Y-10269484D02*
X17688873Y-10259960D01*
X17688873Y-10259960D02*
X17698396Y-10240912D01*
X17698396Y-10240912D02*
X17698396Y-10231389D01*
X17698396Y-10231389D02*
X17688873Y-10212341D01*
X17688873Y-10212341D02*
X17669825Y-10202817D01*
X17669825Y-10202817D02*
X17641253Y-10202817D01*
X17641253Y-10202817D02*
X17622206Y-10193293D01*
X17622206Y-10193293D02*
X17612682Y-10174246D01*
X17612682Y-10174246D02*
X17612682Y-10164722D01*
X17612682Y-10164722D02*
X17622206Y-10145674D01*
X17622206Y-10145674D02*
X17641253Y-10136150D01*
X17641253Y-10136150D02*
X17669825Y-10136150D01*
X17669825Y-10136150D02*
X17688873Y-10145674D01*
X17765063Y-10345674D02*
X17774587Y-10336150D01*
X17774587Y-10336150D02*
X17793634Y-10307579D01*
X17793634Y-10307579D02*
X17803158Y-10288531D01*
X17803158Y-10288531D02*
X17812682Y-10259960D01*
X17812682Y-10259960D02*
X17822206Y-10212341D01*
X17822206Y-10212341D02*
X17822206Y-10174246D01*
X17822206Y-10174246D02*
X17812682Y-10126627D01*
X17812682Y-10126627D02*
X17803158Y-10098055D01*
X17803158Y-10098055D02*
X17793634Y-10079008D01*
X17793634Y-10079008D02*
X17774587Y-10050436D01*
X17774587Y-10050436D02*
X17765063Y-10040912D01*
D11*
X12976820Y-10473820D02*
X12976820Y-10410180D01*
X12913180Y-10410180D01*
X12913180Y-10473820D01*
X12976820Y-10473820D01*
D10*
X13288872Y-10333484D02*
X13307920Y-10333484D01*
X13307920Y-10333484D02*
X13326967Y-10343008D01*
X13326967Y-10343008D02*
X13336491Y-10352531D01*
X13336491Y-10352531D02*
X13346015Y-10371579D01*
X13346015Y-10371579D02*
X13355539Y-10409674D01*
X13355539Y-10409674D02*
X13355539Y-10457293D01*
X13355539Y-10457293D02*
X13346015Y-10495389D01*
X13346015Y-10495389D02*
X13336491Y-10514436D01*
X13336491Y-10514436D02*
X13326967Y-10523960D01*
X13326967Y-10523960D02*
X13307920Y-10533484D01*
X13307920Y-10533484D02*
X13288872Y-10533484D01*
X13288872Y-10533484D02*
X13269824Y-10523960D01*
X13269824Y-10523960D02*
X13260301Y-10514436D01*
X13260301Y-10514436D02*
X13250777Y-10495389D01*
X13250777Y-10495389D02*
X13241253Y-10457293D01*
X13241253Y-10457293D02*
X13241253Y-10409674D01*
X13241253Y-10409674D02*
X13250777Y-10371579D01*
X13250777Y-10371579D02*
X13260301Y-10352531D01*
X13260301Y-10352531D02*
X13269824Y-10343008D01*
X13269824Y-10343008D02*
X13288872Y-10333484D01*
X13441253Y-10514436D02*
X13450777Y-10523960D01*
X13450777Y-10523960D02*
X13441253Y-10533484D01*
X13441253Y-10533484D02*
X13431729Y-10523960D01*
X13431729Y-10523960D02*
X13441253Y-10514436D01*
X13441253Y-10514436D02*
X13441253Y-10533484D01*
X13546015Y-10533484D02*
X13584110Y-10533484D01*
X13584110Y-10533484D02*
X13603158Y-10523960D01*
X13603158Y-10523960D02*
X13612682Y-10514436D01*
X13612682Y-10514436D02*
X13631729Y-10485865D01*
X13631729Y-10485865D02*
X13641253Y-10447770D01*
X13641253Y-10447770D02*
X13641253Y-10371579D01*
X13641253Y-10371579D02*
X13631729Y-10352531D01*
X13631729Y-10352531D02*
X13622205Y-10343008D01*
X13622205Y-10343008D02*
X13603158Y-10333484D01*
X13603158Y-10333484D02*
X13565062Y-10333484D01*
X13565062Y-10333484D02*
X13546015Y-10343008D01*
X13546015Y-10343008D02*
X13536491Y-10352531D01*
X13536491Y-10352531D02*
X13526967Y-10371579D01*
X13526967Y-10371579D02*
X13526967Y-10419198D01*
X13526967Y-10419198D02*
X13536491Y-10438246D01*
X13536491Y-10438246D02*
X13546015Y-10447770D01*
X13546015Y-10447770D02*
X13565062Y-10457293D01*
X13565062Y-10457293D02*
X13603158Y-10457293D01*
X13603158Y-10457293D02*
X13622205Y-10447770D01*
X13622205Y-10447770D02*
X13631729Y-10438246D01*
X13631729Y-10438246D02*
X13641253Y-10419198D01*
X13765062Y-10333484D02*
X13784110Y-10333484D01*
X13784110Y-10333484D02*
X13803158Y-10343008D01*
X13803158Y-10343008D02*
X13812682Y-10352531D01*
X13812682Y-10352531D02*
X13822205Y-10371579D01*
X13822205Y-10371579D02*
X13831729Y-10409674D01*
X13831729Y-10409674D02*
X13831729Y-10457293D01*
X13831729Y-10457293D02*
X13822205Y-10495389D01*
X13822205Y-10495389D02*
X13812682Y-10514436D01*
X13812682Y-10514436D02*
X13803158Y-10523960D01*
X13803158Y-10523960D02*
X13784110Y-10533484D01*
X13784110Y-10533484D02*
X13765062Y-10533484D01*
X13765062Y-10533484D02*
X13746015Y-10523960D01*
X13746015Y-10523960D02*
X13736491Y-10514436D01*
X13736491Y-10514436D02*
X13726967Y-10495389D01*
X13726967Y-10495389D02*
X13717443Y-10457293D01*
X13717443Y-10457293D02*
X13717443Y-10409674D01*
X13717443Y-10409674D02*
X13726967Y-10371579D01*
X13726967Y-10371579D02*
X13736491Y-10352531D01*
X13736491Y-10352531D02*
X13746015Y-10343008D01*
X13746015Y-10343008D02*
X13765062Y-10333484D01*
X13955539Y-10333484D02*
X13974586Y-10333484D01*
X13974586Y-10333484D02*
X13993634Y-10343008D01*
X13993634Y-10343008D02*
X14003158Y-10352531D01*
X14003158Y-10352531D02*
X14012682Y-10371579D01*
X14012682Y-10371579D02*
X14022205Y-10409674D01*
X14022205Y-10409674D02*
X14022205Y-10457293D01*
X14022205Y-10457293D02*
X14012682Y-10495389D01*
X14012682Y-10495389D02*
X14003158Y-10514436D01*
X14003158Y-10514436D02*
X13993634Y-10523960D01*
X13993634Y-10523960D02*
X13974586Y-10533484D01*
X13974586Y-10533484D02*
X13955539Y-10533484D01*
X13955539Y-10533484D02*
X13936491Y-10523960D01*
X13936491Y-10523960D02*
X13926967Y-10514436D01*
X13926967Y-10514436D02*
X13917443Y-10495389D01*
X13917443Y-10495389D02*
X13907920Y-10457293D01*
X13907920Y-10457293D02*
X13907920Y-10409674D01*
X13907920Y-10409674D02*
X13917443Y-10371579D01*
X13917443Y-10371579D02*
X13926967Y-10352531D01*
X13926967Y-10352531D02*
X13936491Y-10343008D01*
X13936491Y-10343008D02*
X13955539Y-10333484D01*
X14107920Y-10533484D02*
X14107920Y-10400150D01*
X14107920Y-10419198D02*
X14117443Y-10409674D01*
X14117443Y-10409674D02*
X14136491Y-10400150D01*
X14136491Y-10400150D02*
X14165063Y-10400150D01*
X14165063Y-10400150D02*
X14184110Y-10409674D01*
X14184110Y-10409674D02*
X14193634Y-10428722D01*
X14193634Y-10428722D02*
X14193634Y-10533484D01*
X14193634Y-10428722D02*
X14203158Y-10409674D01*
X14203158Y-10409674D02*
X14222205Y-10400150D01*
X14222205Y-10400150D02*
X14250777Y-10400150D01*
X14250777Y-10400150D02*
X14269824Y-10409674D01*
X14269824Y-10409674D02*
X14279348Y-10428722D01*
X14279348Y-10428722D02*
X14279348Y-10533484D01*
X14374586Y-10533484D02*
X14374586Y-10400150D01*
X14374586Y-10419198D02*
X14384110Y-10409674D01*
X14384110Y-10409674D02*
X14403158Y-10400150D01*
X14403158Y-10400150D02*
X14431729Y-10400150D01*
X14431729Y-10400150D02*
X14450777Y-10409674D01*
X14450777Y-10409674D02*
X14460301Y-10428722D01*
X14460301Y-10428722D02*
X14460301Y-10533484D01*
X14460301Y-10428722D02*
X14469824Y-10409674D01*
X14469824Y-10409674D02*
X14488872Y-10400150D01*
X14488872Y-10400150D02*
X14517443Y-10400150D01*
X14517443Y-10400150D02*
X14536491Y-10409674D01*
X14536491Y-10409674D02*
X14546015Y-10428722D01*
X14546015Y-10428722D02*
X14546015Y-10533484D01*
X14936491Y-10323960D02*
X14765063Y-10581103D01*
X15193634Y-10333484D02*
X15212682Y-10333484D01*
X15212682Y-10333484D02*
X15231729Y-10343008D01*
X15231729Y-10343008D02*
X15241253Y-10352531D01*
X15241253Y-10352531D02*
X15250777Y-10371579D01*
X15250777Y-10371579D02*
X15260301Y-10409674D01*
X15260301Y-10409674D02*
X15260301Y-10457293D01*
X15260301Y-10457293D02*
X15250777Y-10495389D01*
X15250777Y-10495389D02*
X15241253Y-10514436D01*
X15241253Y-10514436D02*
X15231729Y-10523960D01*
X15231729Y-10523960D02*
X15212682Y-10533484D01*
X15212682Y-10533484D02*
X15193634Y-10533484D01*
X15193634Y-10533484D02*
X15174586Y-10523960D01*
X15174586Y-10523960D02*
X15165063Y-10514436D01*
X15165063Y-10514436D02*
X15155539Y-10495389D01*
X15155539Y-10495389D02*
X15146015Y-10457293D01*
X15146015Y-10457293D02*
X15146015Y-10409674D01*
X15146015Y-10409674D02*
X15155539Y-10371579D01*
X15155539Y-10371579D02*
X15165063Y-10352531D01*
X15165063Y-10352531D02*
X15174586Y-10343008D01*
X15174586Y-10343008D02*
X15193634Y-10333484D01*
X15346015Y-10514436D02*
X15355539Y-10523960D01*
X15355539Y-10523960D02*
X15346015Y-10533484D01*
X15346015Y-10533484D02*
X15336491Y-10523960D01*
X15336491Y-10523960D02*
X15346015Y-10514436D01*
X15346015Y-10514436D02*
X15346015Y-10533484D01*
X15479348Y-10333484D02*
X15498396Y-10333484D01*
X15498396Y-10333484D02*
X15517444Y-10343008D01*
X15517444Y-10343008D02*
X15526967Y-10352531D01*
X15526967Y-10352531D02*
X15536491Y-10371579D01*
X15536491Y-10371579D02*
X15546015Y-10409674D01*
X15546015Y-10409674D02*
X15546015Y-10457293D01*
X15546015Y-10457293D02*
X15536491Y-10495389D01*
X15536491Y-10495389D02*
X15526967Y-10514436D01*
X15526967Y-10514436D02*
X15517444Y-10523960D01*
X15517444Y-10523960D02*
X15498396Y-10533484D01*
X15498396Y-10533484D02*
X15479348Y-10533484D01*
X15479348Y-10533484D02*
X15460301Y-10523960D01*
X15460301Y-10523960D02*
X15450777Y-10514436D01*
X15450777Y-10514436D02*
X15441253Y-10495389D01*
X15441253Y-10495389D02*
X15431729Y-10457293D01*
X15431729Y-10457293D02*
X15431729Y-10409674D01*
X15431729Y-10409674D02*
X15441253Y-10371579D01*
X15441253Y-10371579D02*
X15450777Y-10352531D01*
X15450777Y-10352531D02*
X15460301Y-10343008D01*
X15460301Y-10343008D02*
X15479348Y-10333484D01*
X15612682Y-10333484D02*
X15736491Y-10333484D01*
X15736491Y-10333484D02*
X15669825Y-10409674D01*
X15669825Y-10409674D02*
X15698396Y-10409674D01*
X15698396Y-10409674D02*
X15717444Y-10419198D01*
X15717444Y-10419198D02*
X15726967Y-10428722D01*
X15726967Y-10428722D02*
X15736491Y-10447770D01*
X15736491Y-10447770D02*
X15736491Y-10495389D01*
X15736491Y-10495389D02*
X15726967Y-10514436D01*
X15726967Y-10514436D02*
X15717444Y-10523960D01*
X15717444Y-10523960D02*
X15698396Y-10533484D01*
X15698396Y-10533484D02*
X15641253Y-10533484D01*
X15641253Y-10533484D02*
X15622206Y-10523960D01*
X15622206Y-10523960D02*
X15612682Y-10514436D01*
X15917444Y-10333484D02*
X15822206Y-10333484D01*
X15822206Y-10333484D02*
X15812682Y-10428722D01*
X15812682Y-10428722D02*
X15822206Y-10419198D01*
X15822206Y-10419198D02*
X15841253Y-10409674D01*
X15841253Y-10409674D02*
X15888872Y-10409674D01*
X15888872Y-10409674D02*
X15907920Y-10419198D01*
X15907920Y-10419198D02*
X15917444Y-10428722D01*
X15917444Y-10428722D02*
X15926967Y-10447770D01*
X15926967Y-10447770D02*
X15926967Y-10495389D01*
X15926967Y-10495389D02*
X15917444Y-10514436D01*
X15917444Y-10514436D02*
X15907920Y-10523960D01*
X15907920Y-10523960D02*
X15888872Y-10533484D01*
X15888872Y-10533484D02*
X15841253Y-10533484D01*
X15841253Y-10533484D02*
X15822206Y-10523960D01*
X15822206Y-10523960D02*
X15812682Y-10514436D01*
X16098396Y-10400150D02*
X16098396Y-10533484D01*
X16050777Y-10323960D02*
X16003158Y-10466817D01*
X16003158Y-10466817D02*
X16126967Y-10466817D01*
X16193634Y-10333484D02*
X16193634Y-10371579D01*
X16269825Y-10333484D02*
X16269825Y-10371579D01*
X16565063Y-10609674D02*
X16555539Y-10600150D01*
X16555539Y-10600150D02*
X16536491Y-10571579D01*
X16536491Y-10571579D02*
X16526968Y-10552531D01*
X16526968Y-10552531D02*
X16517444Y-10523960D01*
X16517444Y-10523960D02*
X16507920Y-10476341D01*
X16507920Y-10476341D02*
X16507920Y-10438246D01*
X16507920Y-10438246D02*
X16517444Y-10390627D01*
X16517444Y-10390627D02*
X16526968Y-10362055D01*
X16526968Y-10362055D02*
X16536491Y-10343008D01*
X16536491Y-10343008D02*
X16555539Y-10314436D01*
X16555539Y-10314436D02*
X16565063Y-10304912D01*
X16622206Y-10333484D02*
X16746015Y-10333484D01*
X16746015Y-10333484D02*
X16679348Y-10409674D01*
X16679348Y-10409674D02*
X16707920Y-10409674D01*
X16707920Y-10409674D02*
X16726968Y-10419198D01*
X16726968Y-10419198D02*
X16736491Y-10428722D01*
X16736491Y-10428722D02*
X16746015Y-10447770D01*
X16746015Y-10447770D02*
X16746015Y-10495389D01*
X16746015Y-10495389D02*
X16736491Y-10514436D01*
X16736491Y-10514436D02*
X16726968Y-10523960D01*
X16726968Y-10523960D02*
X16707920Y-10533484D01*
X16707920Y-10533484D02*
X16650777Y-10533484D01*
X16650777Y-10533484D02*
X16631729Y-10523960D01*
X16631729Y-10523960D02*
X16622206Y-10514436D01*
X16841253Y-10533484D02*
X16879349Y-10533484D01*
X16879349Y-10533484D02*
X16898396Y-10523960D01*
X16898396Y-10523960D02*
X16907920Y-10514436D01*
X16907920Y-10514436D02*
X16926968Y-10485865D01*
X16926968Y-10485865D02*
X16936491Y-10447770D01*
X16936491Y-10447770D02*
X16936491Y-10371579D01*
X16936491Y-10371579D02*
X16926968Y-10352531D01*
X16926968Y-10352531D02*
X16917444Y-10343008D01*
X16917444Y-10343008D02*
X16898396Y-10333484D01*
X16898396Y-10333484D02*
X16860301Y-10333484D01*
X16860301Y-10333484D02*
X16841253Y-10343008D01*
X16841253Y-10343008D02*
X16831730Y-10352531D01*
X16831730Y-10352531D02*
X16822206Y-10371579D01*
X16822206Y-10371579D02*
X16822206Y-10419198D01*
X16822206Y-10419198D02*
X16831730Y-10438246D01*
X16831730Y-10438246D02*
X16841253Y-10447770D01*
X16841253Y-10447770D02*
X16860301Y-10457293D01*
X16860301Y-10457293D02*
X16898396Y-10457293D01*
X16898396Y-10457293D02*
X16917444Y-10447770D01*
X16917444Y-10447770D02*
X16926968Y-10438246D01*
X16926968Y-10438246D02*
X16936491Y-10419198D01*
X17174587Y-10533484D02*
X17174587Y-10333484D01*
X17260301Y-10533484D02*
X17260301Y-10428722D01*
X17260301Y-10428722D02*
X17250777Y-10409674D01*
X17250777Y-10409674D02*
X17231730Y-10400150D01*
X17231730Y-10400150D02*
X17203158Y-10400150D01*
X17203158Y-10400150D02*
X17184111Y-10409674D01*
X17184111Y-10409674D02*
X17174587Y-10419198D01*
X17384111Y-10533484D02*
X17365063Y-10523960D01*
X17365063Y-10523960D02*
X17355539Y-10514436D01*
X17355539Y-10514436D02*
X17346015Y-10495389D01*
X17346015Y-10495389D02*
X17346015Y-10438246D01*
X17346015Y-10438246D02*
X17355539Y-10419198D01*
X17355539Y-10419198D02*
X17365063Y-10409674D01*
X17365063Y-10409674D02*
X17384111Y-10400150D01*
X17384111Y-10400150D02*
X17412682Y-10400150D01*
X17412682Y-10400150D02*
X17431730Y-10409674D01*
X17431730Y-10409674D02*
X17441253Y-10419198D01*
X17441253Y-10419198D02*
X17450777Y-10438246D01*
X17450777Y-10438246D02*
X17450777Y-10495389D01*
X17450777Y-10495389D02*
X17441253Y-10514436D01*
X17441253Y-10514436D02*
X17431730Y-10523960D01*
X17431730Y-10523960D02*
X17412682Y-10533484D01*
X17412682Y-10533484D02*
X17384111Y-10533484D01*
X17565063Y-10533484D02*
X17546015Y-10523960D01*
X17546015Y-10523960D02*
X17536492Y-10504912D01*
X17536492Y-10504912D02*
X17536492Y-10333484D01*
X17717444Y-10523960D02*
X17698396Y-10533484D01*
X17698396Y-10533484D02*
X17660301Y-10533484D01*
X17660301Y-10533484D02*
X17641253Y-10523960D01*
X17641253Y-10523960D02*
X17631730Y-10504912D01*
X17631730Y-10504912D02*
X17631730Y-10428722D01*
X17631730Y-10428722D02*
X17641253Y-10409674D01*
X17641253Y-10409674D02*
X17660301Y-10400150D01*
X17660301Y-10400150D02*
X17698396Y-10400150D01*
X17698396Y-10400150D02*
X17717444Y-10409674D01*
X17717444Y-10409674D02*
X17726968Y-10428722D01*
X17726968Y-10428722D02*
X17726968Y-10447770D01*
X17726968Y-10447770D02*
X17631730Y-10466817D01*
X17803158Y-10523960D02*
X17822206Y-10533484D01*
X17822206Y-10533484D02*
X17860301Y-10533484D01*
X17860301Y-10533484D02*
X17879349Y-10523960D01*
X17879349Y-10523960D02*
X17888873Y-10504912D01*
X17888873Y-10504912D02*
X17888873Y-10495389D01*
X17888873Y-10495389D02*
X17879349Y-10476341D01*
X17879349Y-10476341D02*
X17860301Y-10466817D01*
X17860301Y-10466817D02*
X17831730Y-10466817D01*
X17831730Y-10466817D02*
X17812682Y-10457293D01*
X17812682Y-10457293D02*
X17803158Y-10438246D01*
X17803158Y-10438246D02*
X17803158Y-10428722D01*
X17803158Y-10428722D02*
X17812682Y-10409674D01*
X17812682Y-10409674D02*
X17831730Y-10400150D01*
X17831730Y-10400150D02*
X17860301Y-10400150D01*
X17860301Y-10400150D02*
X17879349Y-10409674D01*
X17955539Y-10609674D02*
X17965063Y-10600150D01*
X17965063Y-10600150D02*
X17984111Y-10571579D01*
X17984111Y-10571579D02*
X17993634Y-10552531D01*
X17993634Y-10552531D02*
X18003158Y-10523960D01*
X18003158Y-10523960D02*
X18012682Y-10476341D01*
X18012682Y-10476341D02*
X18012682Y-10438246D01*
X18012682Y-10438246D02*
X18003158Y-10390627D01*
X18003158Y-10390627D02*
X17993634Y-10362055D01*
X17993634Y-10362055D02*
X17984111Y-10343008D01*
X17984111Y-10343008D02*
X17965063Y-10314436D01*
X17965063Y-10314436D02*
X17955539Y-10304912D01*
D11*
X12940000Y-10756000D02*
X12990000Y-10706000D01*
X12940000Y-10656000D01*
X12890000Y-10706000D01*
X12940000Y-10756000D01*
D10*
X13355539Y-10797484D02*
X13241253Y-10797484D01*
X13298396Y-10797484D02*
X13298396Y-10597484D01*
X13298396Y-10597484D02*
X13279348Y-10626055D01*
X13279348Y-10626055D02*
X13260301Y-10645103D01*
X13260301Y-10645103D02*
X13241253Y-10654627D01*
X13441253Y-10778436D02*
X13450777Y-10787960D01*
X13450777Y-10787960D02*
X13441253Y-10797484D01*
X13441253Y-10797484D02*
X13431729Y-10787960D01*
X13431729Y-10787960D02*
X13441253Y-10778436D01*
X13441253Y-10778436D02*
X13441253Y-10797484D01*
X13574586Y-10597484D02*
X13593634Y-10597484D01*
X13593634Y-10597484D02*
X13612682Y-10607008D01*
X13612682Y-10607008D02*
X13622205Y-10616531D01*
X13622205Y-10616531D02*
X13631729Y-10635579D01*
X13631729Y-10635579D02*
X13641253Y-10673674D01*
X13641253Y-10673674D02*
X13641253Y-10721293D01*
X13641253Y-10721293D02*
X13631729Y-10759389D01*
X13631729Y-10759389D02*
X13622205Y-10778436D01*
X13622205Y-10778436D02*
X13612682Y-10787960D01*
X13612682Y-10787960D02*
X13593634Y-10797484D01*
X13593634Y-10797484D02*
X13574586Y-10797484D01*
X13574586Y-10797484D02*
X13555539Y-10787960D01*
X13555539Y-10787960D02*
X13546015Y-10778436D01*
X13546015Y-10778436D02*
X13536491Y-10759389D01*
X13536491Y-10759389D02*
X13526967Y-10721293D01*
X13526967Y-10721293D02*
X13526967Y-10673674D01*
X13526967Y-10673674D02*
X13536491Y-10635579D01*
X13536491Y-10635579D02*
X13546015Y-10616531D01*
X13546015Y-10616531D02*
X13555539Y-10607008D01*
X13555539Y-10607008D02*
X13574586Y-10597484D01*
X13765062Y-10597484D02*
X13784110Y-10597484D01*
X13784110Y-10597484D02*
X13803158Y-10607008D01*
X13803158Y-10607008D02*
X13812682Y-10616531D01*
X13812682Y-10616531D02*
X13822205Y-10635579D01*
X13822205Y-10635579D02*
X13831729Y-10673674D01*
X13831729Y-10673674D02*
X13831729Y-10721293D01*
X13831729Y-10721293D02*
X13822205Y-10759389D01*
X13822205Y-10759389D02*
X13812682Y-10778436D01*
X13812682Y-10778436D02*
X13803158Y-10787960D01*
X13803158Y-10787960D02*
X13784110Y-10797484D01*
X13784110Y-10797484D02*
X13765062Y-10797484D01*
X13765062Y-10797484D02*
X13746015Y-10787960D01*
X13746015Y-10787960D02*
X13736491Y-10778436D01*
X13736491Y-10778436D02*
X13726967Y-10759389D01*
X13726967Y-10759389D02*
X13717443Y-10721293D01*
X13717443Y-10721293D02*
X13717443Y-10673674D01*
X13717443Y-10673674D02*
X13726967Y-10635579D01*
X13726967Y-10635579D02*
X13736491Y-10616531D01*
X13736491Y-10616531D02*
X13746015Y-10607008D01*
X13746015Y-10607008D02*
X13765062Y-10597484D01*
X13955539Y-10597484D02*
X13974586Y-10597484D01*
X13974586Y-10597484D02*
X13993634Y-10607008D01*
X13993634Y-10607008D02*
X14003158Y-10616531D01*
X14003158Y-10616531D02*
X14012682Y-10635579D01*
X14012682Y-10635579D02*
X14022205Y-10673674D01*
X14022205Y-10673674D02*
X14022205Y-10721293D01*
X14022205Y-10721293D02*
X14012682Y-10759389D01*
X14012682Y-10759389D02*
X14003158Y-10778436D01*
X14003158Y-10778436D02*
X13993634Y-10787960D01*
X13993634Y-10787960D02*
X13974586Y-10797484D01*
X13974586Y-10797484D02*
X13955539Y-10797484D01*
X13955539Y-10797484D02*
X13936491Y-10787960D01*
X13936491Y-10787960D02*
X13926967Y-10778436D01*
X13926967Y-10778436D02*
X13917443Y-10759389D01*
X13917443Y-10759389D02*
X13907920Y-10721293D01*
X13907920Y-10721293D02*
X13907920Y-10673674D01*
X13907920Y-10673674D02*
X13917443Y-10635579D01*
X13917443Y-10635579D02*
X13926967Y-10616531D01*
X13926967Y-10616531D02*
X13936491Y-10607008D01*
X13936491Y-10607008D02*
X13955539Y-10597484D01*
X14107920Y-10797484D02*
X14107920Y-10664150D01*
X14107920Y-10683198D02*
X14117443Y-10673674D01*
X14117443Y-10673674D02*
X14136491Y-10664150D01*
X14136491Y-10664150D02*
X14165063Y-10664150D01*
X14165063Y-10664150D02*
X14184110Y-10673674D01*
X14184110Y-10673674D02*
X14193634Y-10692722D01*
X14193634Y-10692722D02*
X14193634Y-10797484D01*
X14193634Y-10692722D02*
X14203158Y-10673674D01*
X14203158Y-10673674D02*
X14222205Y-10664150D01*
X14222205Y-10664150D02*
X14250777Y-10664150D01*
X14250777Y-10664150D02*
X14269824Y-10673674D01*
X14269824Y-10673674D02*
X14279348Y-10692722D01*
X14279348Y-10692722D02*
X14279348Y-10797484D01*
X14374586Y-10797484D02*
X14374586Y-10664150D01*
X14374586Y-10683198D02*
X14384110Y-10673674D01*
X14384110Y-10673674D02*
X14403158Y-10664150D01*
X14403158Y-10664150D02*
X14431729Y-10664150D01*
X14431729Y-10664150D02*
X14450777Y-10673674D01*
X14450777Y-10673674D02*
X14460301Y-10692722D01*
X14460301Y-10692722D02*
X14460301Y-10797484D01*
X14460301Y-10692722D02*
X14469824Y-10673674D01*
X14469824Y-10673674D02*
X14488872Y-10664150D01*
X14488872Y-10664150D02*
X14517443Y-10664150D01*
X14517443Y-10664150D02*
X14536491Y-10673674D01*
X14536491Y-10673674D02*
X14546015Y-10692722D01*
X14546015Y-10692722D02*
X14546015Y-10797484D01*
X14936491Y-10587960D02*
X14765063Y-10845103D01*
X15193634Y-10597484D02*
X15212682Y-10597484D01*
X15212682Y-10597484D02*
X15231729Y-10607008D01*
X15231729Y-10607008D02*
X15241253Y-10616531D01*
X15241253Y-10616531D02*
X15250777Y-10635579D01*
X15250777Y-10635579D02*
X15260301Y-10673674D01*
X15260301Y-10673674D02*
X15260301Y-10721293D01*
X15260301Y-10721293D02*
X15250777Y-10759389D01*
X15250777Y-10759389D02*
X15241253Y-10778436D01*
X15241253Y-10778436D02*
X15231729Y-10787960D01*
X15231729Y-10787960D02*
X15212682Y-10797484D01*
X15212682Y-10797484D02*
X15193634Y-10797484D01*
X15193634Y-10797484D02*
X15174586Y-10787960D01*
X15174586Y-10787960D02*
X15165063Y-10778436D01*
X15165063Y-10778436D02*
X15155539Y-10759389D01*
X15155539Y-10759389D02*
X15146015Y-10721293D01*
X15146015Y-10721293D02*
X15146015Y-10673674D01*
X15146015Y-10673674D02*
X15155539Y-10635579D01*
X15155539Y-10635579D02*
X15165063Y-10616531D01*
X15165063Y-10616531D02*
X15174586Y-10607008D01*
X15174586Y-10607008D02*
X15193634Y-10597484D01*
X15346015Y-10778436D02*
X15355539Y-10787960D01*
X15355539Y-10787960D02*
X15346015Y-10797484D01*
X15346015Y-10797484D02*
X15336491Y-10787960D01*
X15336491Y-10787960D02*
X15346015Y-10778436D01*
X15346015Y-10778436D02*
X15346015Y-10797484D01*
X15479348Y-10597484D02*
X15498396Y-10597484D01*
X15498396Y-10597484D02*
X15517444Y-10607008D01*
X15517444Y-10607008D02*
X15526967Y-10616531D01*
X15526967Y-10616531D02*
X15536491Y-10635579D01*
X15536491Y-10635579D02*
X15546015Y-10673674D01*
X15546015Y-10673674D02*
X15546015Y-10721293D01*
X15546015Y-10721293D02*
X15536491Y-10759389D01*
X15536491Y-10759389D02*
X15526967Y-10778436D01*
X15526967Y-10778436D02*
X15517444Y-10787960D01*
X15517444Y-10787960D02*
X15498396Y-10797484D01*
X15498396Y-10797484D02*
X15479348Y-10797484D01*
X15479348Y-10797484D02*
X15460301Y-10787960D01*
X15460301Y-10787960D02*
X15450777Y-10778436D01*
X15450777Y-10778436D02*
X15441253Y-10759389D01*
X15441253Y-10759389D02*
X15431729Y-10721293D01*
X15431729Y-10721293D02*
X15431729Y-10673674D01*
X15431729Y-10673674D02*
X15441253Y-10635579D01*
X15441253Y-10635579D02*
X15450777Y-10616531D01*
X15450777Y-10616531D02*
X15460301Y-10607008D01*
X15460301Y-10607008D02*
X15479348Y-10597484D01*
X15612682Y-10597484D02*
X15736491Y-10597484D01*
X15736491Y-10597484D02*
X15669825Y-10673674D01*
X15669825Y-10673674D02*
X15698396Y-10673674D01*
X15698396Y-10673674D02*
X15717444Y-10683198D01*
X15717444Y-10683198D02*
X15726967Y-10692722D01*
X15726967Y-10692722D02*
X15736491Y-10711770D01*
X15736491Y-10711770D02*
X15736491Y-10759389D01*
X15736491Y-10759389D02*
X15726967Y-10778436D01*
X15726967Y-10778436D02*
X15717444Y-10787960D01*
X15717444Y-10787960D02*
X15698396Y-10797484D01*
X15698396Y-10797484D02*
X15641253Y-10797484D01*
X15641253Y-10797484D02*
X15622206Y-10787960D01*
X15622206Y-10787960D02*
X15612682Y-10778436D01*
X15831729Y-10797484D02*
X15869825Y-10797484D01*
X15869825Y-10797484D02*
X15888872Y-10787960D01*
X15888872Y-10787960D02*
X15898396Y-10778436D01*
X15898396Y-10778436D02*
X15917444Y-10749865D01*
X15917444Y-10749865D02*
X15926967Y-10711770D01*
X15926967Y-10711770D02*
X15926967Y-10635579D01*
X15926967Y-10635579D02*
X15917444Y-10616531D01*
X15917444Y-10616531D02*
X15907920Y-10607008D01*
X15907920Y-10607008D02*
X15888872Y-10597484D01*
X15888872Y-10597484D02*
X15850777Y-10597484D01*
X15850777Y-10597484D02*
X15831729Y-10607008D01*
X15831729Y-10607008D02*
X15822206Y-10616531D01*
X15822206Y-10616531D02*
X15812682Y-10635579D01*
X15812682Y-10635579D02*
X15812682Y-10683198D01*
X15812682Y-10683198D02*
X15822206Y-10702246D01*
X15822206Y-10702246D02*
X15831729Y-10711770D01*
X15831729Y-10711770D02*
X15850777Y-10721293D01*
X15850777Y-10721293D02*
X15888872Y-10721293D01*
X15888872Y-10721293D02*
X15907920Y-10711770D01*
X15907920Y-10711770D02*
X15917444Y-10702246D01*
X15917444Y-10702246D02*
X15926967Y-10683198D01*
X16098396Y-10664150D02*
X16098396Y-10797484D01*
X16050777Y-10587960D02*
X16003158Y-10730817D01*
X16003158Y-10730817D02*
X16126967Y-10730817D01*
X16193634Y-10597484D02*
X16193634Y-10635579D01*
X16269825Y-10597484D02*
X16269825Y-10635579D01*
X16565063Y-10873674D02*
X16555539Y-10864150D01*
X16555539Y-10864150D02*
X16536491Y-10835579D01*
X16536491Y-10835579D02*
X16526968Y-10816531D01*
X16526968Y-10816531D02*
X16517444Y-10787960D01*
X16517444Y-10787960D02*
X16507920Y-10740341D01*
X16507920Y-10740341D02*
X16507920Y-10702246D01*
X16507920Y-10702246D02*
X16517444Y-10654627D01*
X16517444Y-10654627D02*
X16526968Y-10626055D01*
X16526968Y-10626055D02*
X16536491Y-10607008D01*
X16536491Y-10607008D02*
X16555539Y-10578436D01*
X16555539Y-10578436D02*
X16565063Y-10568912D01*
X16631729Y-10616531D02*
X16641253Y-10607008D01*
X16641253Y-10607008D02*
X16660301Y-10597484D01*
X16660301Y-10597484D02*
X16707920Y-10597484D01*
X16707920Y-10597484D02*
X16726968Y-10607008D01*
X16726968Y-10607008D02*
X16736491Y-10616531D01*
X16736491Y-10616531D02*
X16746015Y-10635579D01*
X16746015Y-10635579D02*
X16746015Y-10654627D01*
X16746015Y-10654627D02*
X16736491Y-10683198D01*
X16736491Y-10683198D02*
X16622206Y-10797484D01*
X16622206Y-10797484D02*
X16746015Y-10797484D01*
X16984111Y-10797484D02*
X16984111Y-10597484D01*
X17069825Y-10797484D02*
X17069825Y-10692722D01*
X17069825Y-10692722D02*
X17060301Y-10673674D01*
X17060301Y-10673674D02*
X17041253Y-10664150D01*
X17041253Y-10664150D02*
X17012682Y-10664150D01*
X17012682Y-10664150D02*
X16993634Y-10673674D01*
X16993634Y-10673674D02*
X16984111Y-10683198D01*
X17193634Y-10797484D02*
X17174587Y-10787960D01*
X17174587Y-10787960D02*
X17165063Y-10778436D01*
X17165063Y-10778436D02*
X17155539Y-10759389D01*
X17155539Y-10759389D02*
X17155539Y-10702246D01*
X17155539Y-10702246D02*
X17165063Y-10683198D01*
X17165063Y-10683198D02*
X17174587Y-10673674D01*
X17174587Y-10673674D02*
X17193634Y-10664150D01*
X17193634Y-10664150D02*
X17222206Y-10664150D01*
X17222206Y-10664150D02*
X17241253Y-10673674D01*
X17241253Y-10673674D02*
X17250777Y-10683198D01*
X17250777Y-10683198D02*
X17260301Y-10702246D01*
X17260301Y-10702246D02*
X17260301Y-10759389D01*
X17260301Y-10759389D02*
X17250777Y-10778436D01*
X17250777Y-10778436D02*
X17241253Y-10787960D01*
X17241253Y-10787960D02*
X17222206Y-10797484D01*
X17222206Y-10797484D02*
X17193634Y-10797484D01*
X17374587Y-10797484D02*
X17355539Y-10787960D01*
X17355539Y-10787960D02*
X17346015Y-10768912D01*
X17346015Y-10768912D02*
X17346015Y-10597484D01*
X17526968Y-10787960D02*
X17507920Y-10797484D01*
X17507920Y-10797484D02*
X17469825Y-10797484D01*
X17469825Y-10797484D02*
X17450777Y-10787960D01*
X17450777Y-10787960D02*
X17441253Y-10768912D01*
X17441253Y-10768912D02*
X17441253Y-10692722D01*
X17441253Y-10692722D02*
X17450777Y-10673674D01*
X17450777Y-10673674D02*
X17469825Y-10664150D01*
X17469825Y-10664150D02*
X17507920Y-10664150D01*
X17507920Y-10664150D02*
X17526968Y-10673674D01*
X17526968Y-10673674D02*
X17536492Y-10692722D01*
X17536492Y-10692722D02*
X17536492Y-10711770D01*
X17536492Y-10711770D02*
X17441253Y-10730817D01*
X17612682Y-10787960D02*
X17631730Y-10797484D01*
X17631730Y-10797484D02*
X17669825Y-10797484D01*
X17669825Y-10797484D02*
X17688873Y-10787960D01*
X17688873Y-10787960D02*
X17698396Y-10768912D01*
X17698396Y-10768912D02*
X17698396Y-10759389D01*
X17698396Y-10759389D02*
X17688873Y-10740341D01*
X17688873Y-10740341D02*
X17669825Y-10730817D01*
X17669825Y-10730817D02*
X17641253Y-10730817D01*
X17641253Y-10730817D02*
X17622206Y-10721293D01*
X17622206Y-10721293D02*
X17612682Y-10702246D01*
X17612682Y-10702246D02*
X17612682Y-10692722D01*
X17612682Y-10692722D02*
X17622206Y-10673674D01*
X17622206Y-10673674D02*
X17641253Y-10664150D01*
X17641253Y-10664150D02*
X17669825Y-10664150D01*
X17669825Y-10664150D02*
X17688873Y-10673674D01*
X17765063Y-10873674D02*
X17774587Y-10864150D01*
X17774587Y-10864150D02*
X17793634Y-10835579D01*
X17793634Y-10835579D02*
X17803158Y-10816531D01*
X17803158Y-10816531D02*
X17812682Y-10787960D01*
X17812682Y-10787960D02*
X17822206Y-10740341D01*
X17822206Y-10740341D02*
X17822206Y-10702246D01*
X17822206Y-10702246D02*
X17812682Y-10654627D01*
X17812682Y-10654627D02*
X17803158Y-10626055D01*
X17803158Y-10626055D02*
X17793634Y-10607008D01*
X17793634Y-10607008D02*
X17774587Y-10578436D01*
X17774587Y-10578436D02*
X17765063Y-10568912D01*
D12*
X12880000Y-10915000D02*
X12990000Y-11025000D01*
X12990000Y-10915000D02*
X12880000Y-11025000D01*
X12990000Y-10970000D02*
G75*
G02*
X12880000Y-10970000I-55000J0D01*
G01*
X12880000Y-10970000D02*
G75*
G02*
X12990000Y-10970000I55000J0D01*
G01*
D10*
X13355539Y-11061484D02*
X13241253Y-11061484D01*
X13298396Y-11061484D02*
X13298396Y-10861484D01*
X13298396Y-10861484D02*
X13279348Y-10890055D01*
X13279348Y-10890055D02*
X13260301Y-10909103D01*
X13260301Y-10909103D02*
X13241253Y-10918627D01*
X13441253Y-11042436D02*
X13450777Y-11051960D01*
X13450777Y-11051960D02*
X13441253Y-11061484D01*
X13441253Y-11061484D02*
X13431729Y-11051960D01*
X13431729Y-11051960D02*
X13441253Y-11042436D01*
X13441253Y-11042436D02*
X13441253Y-11061484D01*
X13641253Y-11061484D02*
X13526967Y-11061484D01*
X13584110Y-11061484D02*
X13584110Y-10861484D01*
X13584110Y-10861484D02*
X13565062Y-10890055D01*
X13565062Y-10890055D02*
X13546015Y-10909103D01*
X13546015Y-10909103D02*
X13526967Y-10918627D01*
X13765062Y-10861484D02*
X13784110Y-10861484D01*
X13784110Y-10861484D02*
X13803158Y-10871008D01*
X13803158Y-10871008D02*
X13812682Y-10880531D01*
X13812682Y-10880531D02*
X13822205Y-10899579D01*
X13822205Y-10899579D02*
X13831729Y-10937674D01*
X13831729Y-10937674D02*
X13831729Y-10985293D01*
X13831729Y-10985293D02*
X13822205Y-11023389D01*
X13822205Y-11023389D02*
X13812682Y-11042436D01*
X13812682Y-11042436D02*
X13803158Y-11051960D01*
X13803158Y-11051960D02*
X13784110Y-11061484D01*
X13784110Y-11061484D02*
X13765062Y-11061484D01*
X13765062Y-11061484D02*
X13746015Y-11051960D01*
X13746015Y-11051960D02*
X13736491Y-11042436D01*
X13736491Y-11042436D02*
X13726967Y-11023389D01*
X13726967Y-11023389D02*
X13717443Y-10985293D01*
X13717443Y-10985293D02*
X13717443Y-10937674D01*
X13717443Y-10937674D02*
X13726967Y-10899579D01*
X13726967Y-10899579D02*
X13736491Y-10880531D01*
X13736491Y-10880531D02*
X13746015Y-10871008D01*
X13746015Y-10871008D02*
X13765062Y-10861484D01*
X13955539Y-10861484D02*
X13974586Y-10861484D01*
X13974586Y-10861484D02*
X13993634Y-10871008D01*
X13993634Y-10871008D02*
X14003158Y-10880531D01*
X14003158Y-10880531D02*
X14012682Y-10899579D01*
X14012682Y-10899579D02*
X14022205Y-10937674D01*
X14022205Y-10937674D02*
X14022205Y-10985293D01*
X14022205Y-10985293D02*
X14012682Y-11023389D01*
X14012682Y-11023389D02*
X14003158Y-11042436D01*
X14003158Y-11042436D02*
X13993634Y-11051960D01*
X13993634Y-11051960D02*
X13974586Y-11061484D01*
X13974586Y-11061484D02*
X13955539Y-11061484D01*
X13955539Y-11061484D02*
X13936491Y-11051960D01*
X13936491Y-11051960D02*
X13926967Y-11042436D01*
X13926967Y-11042436D02*
X13917443Y-11023389D01*
X13917443Y-11023389D02*
X13907920Y-10985293D01*
X13907920Y-10985293D02*
X13907920Y-10937674D01*
X13907920Y-10937674D02*
X13917443Y-10899579D01*
X13917443Y-10899579D02*
X13926967Y-10880531D01*
X13926967Y-10880531D02*
X13936491Y-10871008D01*
X13936491Y-10871008D02*
X13955539Y-10861484D01*
X14107920Y-11061484D02*
X14107920Y-10928150D01*
X14107920Y-10947198D02*
X14117443Y-10937674D01*
X14117443Y-10937674D02*
X14136491Y-10928150D01*
X14136491Y-10928150D02*
X14165063Y-10928150D01*
X14165063Y-10928150D02*
X14184110Y-10937674D01*
X14184110Y-10937674D02*
X14193634Y-10956722D01*
X14193634Y-10956722D02*
X14193634Y-11061484D01*
X14193634Y-10956722D02*
X14203158Y-10937674D01*
X14203158Y-10937674D02*
X14222205Y-10928150D01*
X14222205Y-10928150D02*
X14250777Y-10928150D01*
X14250777Y-10928150D02*
X14269824Y-10937674D01*
X14269824Y-10937674D02*
X14279348Y-10956722D01*
X14279348Y-10956722D02*
X14279348Y-11061484D01*
X14374586Y-11061484D02*
X14374586Y-10928150D01*
X14374586Y-10947198D02*
X14384110Y-10937674D01*
X14384110Y-10937674D02*
X14403158Y-10928150D01*
X14403158Y-10928150D02*
X14431729Y-10928150D01*
X14431729Y-10928150D02*
X14450777Y-10937674D01*
X14450777Y-10937674D02*
X14460301Y-10956722D01*
X14460301Y-10956722D02*
X14460301Y-11061484D01*
X14460301Y-10956722D02*
X14469824Y-10937674D01*
X14469824Y-10937674D02*
X14488872Y-10928150D01*
X14488872Y-10928150D02*
X14517443Y-10928150D01*
X14517443Y-10928150D02*
X14536491Y-10937674D01*
X14536491Y-10937674D02*
X14546015Y-10956722D01*
X14546015Y-10956722D02*
X14546015Y-11061484D01*
X14936491Y-10851960D02*
X14765063Y-11109103D01*
X15193634Y-10861484D02*
X15212682Y-10861484D01*
X15212682Y-10861484D02*
X15231729Y-10871008D01*
X15231729Y-10871008D02*
X15241253Y-10880531D01*
X15241253Y-10880531D02*
X15250777Y-10899579D01*
X15250777Y-10899579D02*
X15260301Y-10937674D01*
X15260301Y-10937674D02*
X15260301Y-10985293D01*
X15260301Y-10985293D02*
X15250777Y-11023389D01*
X15250777Y-11023389D02*
X15241253Y-11042436D01*
X15241253Y-11042436D02*
X15231729Y-11051960D01*
X15231729Y-11051960D02*
X15212682Y-11061484D01*
X15212682Y-11061484D02*
X15193634Y-11061484D01*
X15193634Y-11061484D02*
X15174586Y-11051960D01*
X15174586Y-11051960D02*
X15165063Y-11042436D01*
X15165063Y-11042436D02*
X15155539Y-11023389D01*
X15155539Y-11023389D02*
X15146015Y-10985293D01*
X15146015Y-10985293D02*
X15146015Y-10937674D01*
X15146015Y-10937674D02*
X15155539Y-10899579D01*
X15155539Y-10899579D02*
X15165063Y-10880531D01*
X15165063Y-10880531D02*
X15174586Y-10871008D01*
X15174586Y-10871008D02*
X15193634Y-10861484D01*
X15346015Y-11042436D02*
X15355539Y-11051960D01*
X15355539Y-11051960D02*
X15346015Y-11061484D01*
X15346015Y-11061484D02*
X15336491Y-11051960D01*
X15336491Y-11051960D02*
X15346015Y-11042436D01*
X15346015Y-11042436D02*
X15346015Y-11061484D01*
X15479348Y-10861484D02*
X15498396Y-10861484D01*
X15498396Y-10861484D02*
X15517444Y-10871008D01*
X15517444Y-10871008D02*
X15526967Y-10880531D01*
X15526967Y-10880531D02*
X15536491Y-10899579D01*
X15536491Y-10899579D02*
X15546015Y-10937674D01*
X15546015Y-10937674D02*
X15546015Y-10985293D01*
X15546015Y-10985293D02*
X15536491Y-11023389D01*
X15536491Y-11023389D02*
X15526967Y-11042436D01*
X15526967Y-11042436D02*
X15517444Y-11051960D01*
X15517444Y-11051960D02*
X15498396Y-11061484D01*
X15498396Y-11061484D02*
X15479348Y-11061484D01*
X15479348Y-11061484D02*
X15460301Y-11051960D01*
X15460301Y-11051960D02*
X15450777Y-11042436D01*
X15450777Y-11042436D02*
X15441253Y-11023389D01*
X15441253Y-11023389D02*
X15431729Y-10985293D01*
X15431729Y-10985293D02*
X15431729Y-10937674D01*
X15431729Y-10937674D02*
X15441253Y-10899579D01*
X15441253Y-10899579D02*
X15450777Y-10880531D01*
X15450777Y-10880531D02*
X15460301Y-10871008D01*
X15460301Y-10871008D02*
X15479348Y-10861484D01*
X15717444Y-10928150D02*
X15717444Y-11061484D01*
X15669825Y-10851960D02*
X15622206Y-10994817D01*
X15622206Y-10994817D02*
X15746015Y-10994817D01*
X15803158Y-10861484D02*
X15926967Y-10861484D01*
X15926967Y-10861484D02*
X15860301Y-10937674D01*
X15860301Y-10937674D02*
X15888872Y-10937674D01*
X15888872Y-10937674D02*
X15907920Y-10947198D01*
X15907920Y-10947198D02*
X15917444Y-10956722D01*
X15917444Y-10956722D02*
X15926967Y-10975770D01*
X15926967Y-10975770D02*
X15926967Y-11023389D01*
X15926967Y-11023389D02*
X15917444Y-11042436D01*
X15917444Y-11042436D02*
X15907920Y-11051960D01*
X15907920Y-11051960D02*
X15888872Y-11061484D01*
X15888872Y-11061484D02*
X15831729Y-11061484D01*
X15831729Y-11061484D02*
X15812682Y-11051960D01*
X15812682Y-11051960D02*
X15803158Y-11042436D01*
X15993634Y-10861484D02*
X16117444Y-10861484D01*
X16117444Y-10861484D02*
X16050777Y-10937674D01*
X16050777Y-10937674D02*
X16079348Y-10937674D01*
X16079348Y-10937674D02*
X16098396Y-10947198D01*
X16098396Y-10947198D02*
X16107920Y-10956722D01*
X16107920Y-10956722D02*
X16117444Y-10975770D01*
X16117444Y-10975770D02*
X16117444Y-11023389D01*
X16117444Y-11023389D02*
X16107920Y-11042436D01*
X16107920Y-11042436D02*
X16098396Y-11051960D01*
X16098396Y-11051960D02*
X16079348Y-11061484D01*
X16079348Y-11061484D02*
X16022206Y-11061484D01*
X16022206Y-11061484D02*
X16003158Y-11051960D01*
X16003158Y-11051960D02*
X15993634Y-11042436D01*
X16193634Y-10861484D02*
X16193634Y-10899579D01*
X16269825Y-10861484D02*
X16269825Y-10899579D01*
X16565063Y-11137674D02*
X16555539Y-11128150D01*
X16555539Y-11128150D02*
X16536491Y-11099579D01*
X16536491Y-11099579D02*
X16526968Y-11080531D01*
X16526968Y-11080531D02*
X16517444Y-11051960D01*
X16517444Y-11051960D02*
X16507920Y-11004341D01*
X16507920Y-11004341D02*
X16507920Y-10966246D01*
X16507920Y-10966246D02*
X16517444Y-10918627D01*
X16517444Y-10918627D02*
X16526968Y-10890055D01*
X16526968Y-10890055D02*
X16536491Y-10871008D01*
X16536491Y-10871008D02*
X16555539Y-10842436D01*
X16555539Y-10842436D02*
X16565063Y-10832912D01*
X16726968Y-10928150D02*
X16726968Y-11061484D01*
X16679348Y-10851960D02*
X16631729Y-10994817D01*
X16631729Y-10994817D02*
X16755539Y-10994817D01*
X16984111Y-11061484D02*
X16984111Y-10861484D01*
X17069825Y-11061484D02*
X17069825Y-10956722D01*
X17069825Y-10956722D02*
X17060301Y-10937674D01*
X17060301Y-10937674D02*
X17041253Y-10928150D01*
X17041253Y-10928150D02*
X17012682Y-10928150D01*
X17012682Y-10928150D02*
X16993634Y-10937674D01*
X16993634Y-10937674D02*
X16984111Y-10947198D01*
X17193634Y-11061484D02*
X17174587Y-11051960D01*
X17174587Y-11051960D02*
X17165063Y-11042436D01*
X17165063Y-11042436D02*
X17155539Y-11023389D01*
X17155539Y-11023389D02*
X17155539Y-10966246D01*
X17155539Y-10966246D02*
X17165063Y-10947198D01*
X17165063Y-10947198D02*
X17174587Y-10937674D01*
X17174587Y-10937674D02*
X17193634Y-10928150D01*
X17193634Y-10928150D02*
X17222206Y-10928150D01*
X17222206Y-10928150D02*
X17241253Y-10937674D01*
X17241253Y-10937674D02*
X17250777Y-10947198D01*
X17250777Y-10947198D02*
X17260301Y-10966246D01*
X17260301Y-10966246D02*
X17260301Y-11023389D01*
X17260301Y-11023389D02*
X17250777Y-11042436D01*
X17250777Y-11042436D02*
X17241253Y-11051960D01*
X17241253Y-11051960D02*
X17222206Y-11061484D01*
X17222206Y-11061484D02*
X17193634Y-11061484D01*
X17374587Y-11061484D02*
X17355539Y-11051960D01*
X17355539Y-11051960D02*
X17346015Y-11032912D01*
X17346015Y-11032912D02*
X17346015Y-10861484D01*
X17526968Y-11051960D02*
X17507920Y-11061484D01*
X17507920Y-11061484D02*
X17469825Y-11061484D01*
X17469825Y-11061484D02*
X17450777Y-11051960D01*
X17450777Y-11051960D02*
X17441253Y-11032912D01*
X17441253Y-11032912D02*
X17441253Y-10956722D01*
X17441253Y-10956722D02*
X17450777Y-10937674D01*
X17450777Y-10937674D02*
X17469825Y-10928150D01*
X17469825Y-10928150D02*
X17507920Y-10928150D01*
X17507920Y-10928150D02*
X17526968Y-10937674D01*
X17526968Y-10937674D02*
X17536492Y-10956722D01*
X17536492Y-10956722D02*
X17536492Y-10975770D01*
X17536492Y-10975770D02*
X17441253Y-10994817D01*
X17612682Y-11051960D02*
X17631730Y-11061484D01*
X17631730Y-11061484D02*
X17669825Y-11061484D01*
X17669825Y-11061484D02*
X17688873Y-11051960D01*
X17688873Y-11051960D02*
X17698396Y-11032912D01*
X17698396Y-11032912D02*
X17698396Y-11023389D01*
X17698396Y-11023389D02*
X17688873Y-11004341D01*
X17688873Y-11004341D02*
X17669825Y-10994817D01*
X17669825Y-10994817D02*
X17641253Y-10994817D01*
X17641253Y-10994817D02*
X17622206Y-10985293D01*
X17622206Y-10985293D02*
X17612682Y-10966246D01*
X17612682Y-10966246D02*
X17612682Y-10956722D01*
X17612682Y-10956722D02*
X17622206Y-10937674D01*
X17622206Y-10937674D02*
X17641253Y-10928150D01*
X17641253Y-10928150D02*
X17669825Y-10928150D01*
X17669825Y-10928150D02*
X17688873Y-10937674D01*
X17765063Y-11137674D02*
X17774587Y-11128150D01*
X17774587Y-11128150D02*
X17793634Y-11099579D01*
X17793634Y-11099579D02*
X17803158Y-11080531D01*
X17803158Y-11080531D02*
X17812682Y-11051960D01*
X17812682Y-11051960D02*
X17822206Y-11004341D01*
X17822206Y-11004341D02*
X17822206Y-10966246D01*
X17822206Y-10966246D02*
X17812682Y-10918627D01*
X17812682Y-10918627D02*
X17803158Y-10890055D01*
X17803158Y-10890055D02*
X17793634Y-10871008D01*
X17793634Y-10871008D02*
X17774587Y-10842436D01*
X17774587Y-10842436D02*
X17765063Y-10832912D01*
D13*
X12865000Y-11171500D02*
X12990000Y-11296500D01*
X12990000Y-11171500D02*
X12865000Y-11296500D01*
X12927500Y-11171500D02*
X12927500Y-11296500D01*
X12865000Y-11234000D02*
X12990000Y-11234000D01*
D10*
X13355539Y-11325484D02*
X13241253Y-11325484D01*
X13298396Y-11325484D02*
X13298396Y-11125484D01*
X13298396Y-11125484D02*
X13279348Y-11154055D01*
X13279348Y-11154055D02*
X13260301Y-11173103D01*
X13260301Y-11173103D02*
X13241253Y-11182627D01*
X13441253Y-11306436D02*
X13450777Y-11315960D01*
X13450777Y-11315960D02*
X13441253Y-11325484D01*
X13441253Y-11325484D02*
X13431729Y-11315960D01*
X13431729Y-11315960D02*
X13441253Y-11306436D01*
X13441253Y-11306436D02*
X13441253Y-11325484D01*
X13526967Y-11144531D02*
X13536491Y-11135008D01*
X13536491Y-11135008D02*
X13555539Y-11125484D01*
X13555539Y-11125484D02*
X13603158Y-11125484D01*
X13603158Y-11125484D02*
X13622205Y-11135008D01*
X13622205Y-11135008D02*
X13631729Y-11144531D01*
X13631729Y-11144531D02*
X13641253Y-11163579D01*
X13641253Y-11163579D02*
X13641253Y-11182627D01*
X13641253Y-11182627D02*
X13631729Y-11211198D01*
X13631729Y-11211198D02*
X13517443Y-11325484D01*
X13517443Y-11325484D02*
X13641253Y-11325484D01*
X13822205Y-11125484D02*
X13726967Y-11125484D01*
X13726967Y-11125484D02*
X13717443Y-11220722D01*
X13717443Y-11220722D02*
X13726967Y-11211198D01*
X13726967Y-11211198D02*
X13746015Y-11201674D01*
X13746015Y-11201674D02*
X13793634Y-11201674D01*
X13793634Y-11201674D02*
X13812682Y-11211198D01*
X13812682Y-11211198D02*
X13822205Y-11220722D01*
X13822205Y-11220722D02*
X13831729Y-11239769D01*
X13831729Y-11239769D02*
X13831729Y-11287388D01*
X13831729Y-11287388D02*
X13822205Y-11306436D01*
X13822205Y-11306436D02*
X13812682Y-11315960D01*
X13812682Y-11315960D02*
X13793634Y-11325484D01*
X13793634Y-11325484D02*
X13746015Y-11325484D01*
X13746015Y-11325484D02*
X13726967Y-11315960D01*
X13726967Y-11315960D02*
X13717443Y-11306436D01*
X13955539Y-11125484D02*
X13974586Y-11125484D01*
X13974586Y-11125484D02*
X13993634Y-11135008D01*
X13993634Y-11135008D02*
X14003158Y-11144531D01*
X14003158Y-11144531D02*
X14012682Y-11163579D01*
X14012682Y-11163579D02*
X14022205Y-11201674D01*
X14022205Y-11201674D02*
X14022205Y-11249293D01*
X14022205Y-11249293D02*
X14012682Y-11287388D01*
X14012682Y-11287388D02*
X14003158Y-11306436D01*
X14003158Y-11306436D02*
X13993634Y-11315960D01*
X13993634Y-11315960D02*
X13974586Y-11325484D01*
X13974586Y-11325484D02*
X13955539Y-11325484D01*
X13955539Y-11325484D02*
X13936491Y-11315960D01*
X13936491Y-11315960D02*
X13926967Y-11306436D01*
X13926967Y-11306436D02*
X13917443Y-11287388D01*
X13917443Y-11287388D02*
X13907920Y-11249293D01*
X13907920Y-11249293D02*
X13907920Y-11201674D01*
X13907920Y-11201674D02*
X13917443Y-11163579D01*
X13917443Y-11163579D02*
X13926967Y-11144531D01*
X13926967Y-11144531D02*
X13936491Y-11135008D01*
X13936491Y-11135008D02*
X13955539Y-11125484D01*
X14107920Y-11325484D02*
X14107920Y-11192150D01*
X14107920Y-11211198D02*
X14117443Y-11201674D01*
X14117443Y-11201674D02*
X14136491Y-11192150D01*
X14136491Y-11192150D02*
X14165063Y-11192150D01*
X14165063Y-11192150D02*
X14184110Y-11201674D01*
X14184110Y-11201674D02*
X14193634Y-11220722D01*
X14193634Y-11220722D02*
X14193634Y-11325484D01*
X14193634Y-11220722D02*
X14203158Y-11201674D01*
X14203158Y-11201674D02*
X14222205Y-11192150D01*
X14222205Y-11192150D02*
X14250777Y-11192150D01*
X14250777Y-11192150D02*
X14269824Y-11201674D01*
X14269824Y-11201674D02*
X14279348Y-11220722D01*
X14279348Y-11220722D02*
X14279348Y-11325484D01*
X14374586Y-11325484D02*
X14374586Y-11192150D01*
X14374586Y-11211198D02*
X14384110Y-11201674D01*
X14384110Y-11201674D02*
X14403158Y-11192150D01*
X14403158Y-11192150D02*
X14431729Y-11192150D01*
X14431729Y-11192150D02*
X14450777Y-11201674D01*
X14450777Y-11201674D02*
X14460301Y-11220722D01*
X14460301Y-11220722D02*
X14460301Y-11325484D01*
X14460301Y-11220722D02*
X14469824Y-11201674D01*
X14469824Y-11201674D02*
X14488872Y-11192150D01*
X14488872Y-11192150D02*
X14517443Y-11192150D01*
X14517443Y-11192150D02*
X14536491Y-11201674D01*
X14536491Y-11201674D02*
X14546015Y-11220722D01*
X14546015Y-11220722D02*
X14546015Y-11325484D01*
X14936491Y-11115960D02*
X14765063Y-11373103D01*
X15193634Y-11125484D02*
X15212682Y-11125484D01*
X15212682Y-11125484D02*
X15231729Y-11135008D01*
X15231729Y-11135008D02*
X15241253Y-11144531D01*
X15241253Y-11144531D02*
X15250777Y-11163579D01*
X15250777Y-11163579D02*
X15260301Y-11201674D01*
X15260301Y-11201674D02*
X15260301Y-11249293D01*
X15260301Y-11249293D02*
X15250777Y-11287388D01*
X15250777Y-11287388D02*
X15241253Y-11306436D01*
X15241253Y-11306436D02*
X15231729Y-11315960D01*
X15231729Y-11315960D02*
X15212682Y-11325484D01*
X15212682Y-11325484D02*
X15193634Y-11325484D01*
X15193634Y-11325484D02*
X15174586Y-11315960D01*
X15174586Y-11315960D02*
X15165063Y-11306436D01*
X15165063Y-11306436D02*
X15155539Y-11287388D01*
X15155539Y-11287388D02*
X15146015Y-11249293D01*
X15146015Y-11249293D02*
X15146015Y-11201674D01*
X15146015Y-11201674D02*
X15155539Y-11163579D01*
X15155539Y-11163579D02*
X15165063Y-11144531D01*
X15165063Y-11144531D02*
X15174586Y-11135008D01*
X15174586Y-11135008D02*
X15193634Y-11125484D01*
X15346015Y-11306436D02*
X15355539Y-11315960D01*
X15355539Y-11315960D02*
X15346015Y-11325484D01*
X15346015Y-11325484D02*
X15336491Y-11315960D01*
X15336491Y-11315960D02*
X15346015Y-11306436D01*
X15346015Y-11306436D02*
X15346015Y-11325484D01*
X15479348Y-11125484D02*
X15498396Y-11125484D01*
X15498396Y-11125484D02*
X15517444Y-11135008D01*
X15517444Y-11135008D02*
X15526967Y-11144531D01*
X15526967Y-11144531D02*
X15536491Y-11163579D01*
X15536491Y-11163579D02*
X15546015Y-11201674D01*
X15546015Y-11201674D02*
X15546015Y-11249293D01*
X15546015Y-11249293D02*
X15536491Y-11287388D01*
X15536491Y-11287388D02*
X15526967Y-11306436D01*
X15526967Y-11306436D02*
X15517444Y-11315960D01*
X15517444Y-11315960D02*
X15498396Y-11325484D01*
X15498396Y-11325484D02*
X15479348Y-11325484D01*
X15479348Y-11325484D02*
X15460301Y-11315960D01*
X15460301Y-11315960D02*
X15450777Y-11306436D01*
X15450777Y-11306436D02*
X15441253Y-11287388D01*
X15441253Y-11287388D02*
X15431729Y-11249293D01*
X15431729Y-11249293D02*
X15431729Y-11201674D01*
X15431729Y-11201674D02*
X15441253Y-11163579D01*
X15441253Y-11163579D02*
X15450777Y-11144531D01*
X15450777Y-11144531D02*
X15460301Y-11135008D01*
X15460301Y-11135008D02*
X15479348Y-11125484D01*
X15717444Y-11192150D02*
X15717444Y-11325484D01*
X15669825Y-11115960D02*
X15622206Y-11258817D01*
X15622206Y-11258817D02*
X15746015Y-11258817D01*
X15831729Y-11325484D02*
X15869825Y-11325484D01*
X15869825Y-11325484D02*
X15888872Y-11315960D01*
X15888872Y-11315960D02*
X15898396Y-11306436D01*
X15898396Y-11306436D02*
X15917444Y-11277865D01*
X15917444Y-11277865D02*
X15926967Y-11239769D01*
X15926967Y-11239769D02*
X15926967Y-11163579D01*
X15926967Y-11163579D02*
X15917444Y-11144531D01*
X15917444Y-11144531D02*
X15907920Y-11135008D01*
X15907920Y-11135008D02*
X15888872Y-11125484D01*
X15888872Y-11125484D02*
X15850777Y-11125484D01*
X15850777Y-11125484D02*
X15831729Y-11135008D01*
X15831729Y-11135008D02*
X15822206Y-11144531D01*
X15822206Y-11144531D02*
X15812682Y-11163579D01*
X15812682Y-11163579D02*
X15812682Y-11211198D01*
X15812682Y-11211198D02*
X15822206Y-11230246D01*
X15822206Y-11230246D02*
X15831729Y-11239769D01*
X15831729Y-11239769D02*
X15850777Y-11249293D01*
X15850777Y-11249293D02*
X15888872Y-11249293D01*
X15888872Y-11249293D02*
X15907920Y-11239769D01*
X15907920Y-11239769D02*
X15917444Y-11230246D01*
X15917444Y-11230246D02*
X15926967Y-11211198D01*
X16003158Y-11144531D02*
X16012682Y-11135008D01*
X16012682Y-11135008D02*
X16031729Y-11125484D01*
X16031729Y-11125484D02*
X16079348Y-11125484D01*
X16079348Y-11125484D02*
X16098396Y-11135008D01*
X16098396Y-11135008D02*
X16107920Y-11144531D01*
X16107920Y-11144531D02*
X16117444Y-11163579D01*
X16117444Y-11163579D02*
X16117444Y-11182627D01*
X16117444Y-11182627D02*
X16107920Y-11211198D01*
X16107920Y-11211198D02*
X15993634Y-11325484D01*
X15993634Y-11325484D02*
X16117444Y-11325484D01*
X16193634Y-11125484D02*
X16193634Y-11163579D01*
X16269825Y-11125484D02*
X16269825Y-11163579D01*
X16565063Y-11401674D02*
X16555539Y-11392150D01*
X16555539Y-11392150D02*
X16536491Y-11363579D01*
X16536491Y-11363579D02*
X16526968Y-11344531D01*
X16526968Y-11344531D02*
X16517444Y-11315960D01*
X16517444Y-11315960D02*
X16507920Y-11268341D01*
X16507920Y-11268341D02*
X16507920Y-11230246D01*
X16507920Y-11230246D02*
X16517444Y-11182627D01*
X16517444Y-11182627D02*
X16526968Y-11154055D01*
X16526968Y-11154055D02*
X16536491Y-11135008D01*
X16536491Y-11135008D02*
X16555539Y-11106436D01*
X16555539Y-11106436D02*
X16565063Y-11096912D01*
X16631729Y-11144531D02*
X16641253Y-11135008D01*
X16641253Y-11135008D02*
X16660301Y-11125484D01*
X16660301Y-11125484D02*
X16707920Y-11125484D01*
X16707920Y-11125484D02*
X16726968Y-11135008D01*
X16726968Y-11135008D02*
X16736491Y-11144531D01*
X16736491Y-11144531D02*
X16746015Y-11163579D01*
X16746015Y-11163579D02*
X16746015Y-11182627D01*
X16746015Y-11182627D02*
X16736491Y-11211198D01*
X16736491Y-11211198D02*
X16622206Y-11325484D01*
X16622206Y-11325484D02*
X16746015Y-11325484D01*
X16984111Y-11325484D02*
X16984111Y-11125484D01*
X17069825Y-11325484D02*
X17069825Y-11220722D01*
X17069825Y-11220722D02*
X17060301Y-11201674D01*
X17060301Y-11201674D02*
X17041253Y-11192150D01*
X17041253Y-11192150D02*
X17012682Y-11192150D01*
X17012682Y-11192150D02*
X16993634Y-11201674D01*
X16993634Y-11201674D02*
X16984111Y-11211198D01*
X17193634Y-11325484D02*
X17174587Y-11315960D01*
X17174587Y-11315960D02*
X17165063Y-11306436D01*
X17165063Y-11306436D02*
X17155539Y-11287388D01*
X17155539Y-11287388D02*
X17155539Y-11230246D01*
X17155539Y-11230246D02*
X17165063Y-11211198D01*
X17165063Y-11211198D02*
X17174587Y-11201674D01*
X17174587Y-11201674D02*
X17193634Y-11192150D01*
X17193634Y-11192150D02*
X17222206Y-11192150D01*
X17222206Y-11192150D02*
X17241253Y-11201674D01*
X17241253Y-11201674D02*
X17250777Y-11211198D01*
X17250777Y-11211198D02*
X17260301Y-11230246D01*
X17260301Y-11230246D02*
X17260301Y-11287388D01*
X17260301Y-11287388D02*
X17250777Y-11306436D01*
X17250777Y-11306436D02*
X17241253Y-11315960D01*
X17241253Y-11315960D02*
X17222206Y-11325484D01*
X17222206Y-11325484D02*
X17193634Y-11325484D01*
X17374587Y-11325484D02*
X17355539Y-11315960D01*
X17355539Y-11315960D02*
X17346015Y-11296912D01*
X17346015Y-11296912D02*
X17346015Y-11125484D01*
X17526968Y-11315960D02*
X17507920Y-11325484D01*
X17507920Y-11325484D02*
X17469825Y-11325484D01*
X17469825Y-11325484D02*
X17450777Y-11315960D01*
X17450777Y-11315960D02*
X17441253Y-11296912D01*
X17441253Y-11296912D02*
X17441253Y-11220722D01*
X17441253Y-11220722D02*
X17450777Y-11201674D01*
X17450777Y-11201674D02*
X17469825Y-11192150D01*
X17469825Y-11192150D02*
X17507920Y-11192150D01*
X17507920Y-11192150D02*
X17526968Y-11201674D01*
X17526968Y-11201674D02*
X17536492Y-11220722D01*
X17536492Y-11220722D02*
X17536492Y-11239769D01*
X17536492Y-11239769D02*
X17441253Y-11258817D01*
X17612682Y-11315960D02*
X17631730Y-11325484D01*
X17631730Y-11325484D02*
X17669825Y-11325484D01*
X17669825Y-11325484D02*
X17688873Y-11315960D01*
X17688873Y-11315960D02*
X17698396Y-11296912D01*
X17698396Y-11296912D02*
X17698396Y-11287388D01*
X17698396Y-11287388D02*
X17688873Y-11268341D01*
X17688873Y-11268341D02*
X17669825Y-11258817D01*
X17669825Y-11258817D02*
X17641253Y-11258817D01*
X17641253Y-11258817D02*
X17622206Y-11249293D01*
X17622206Y-11249293D02*
X17612682Y-11230246D01*
X17612682Y-11230246D02*
X17612682Y-11220722D01*
X17612682Y-11220722D02*
X17622206Y-11201674D01*
X17622206Y-11201674D02*
X17641253Y-11192150D01*
X17641253Y-11192150D02*
X17669825Y-11192150D01*
X17669825Y-11192150D02*
X17688873Y-11201674D01*
X17765063Y-11401674D02*
X17774587Y-11392150D01*
X17774587Y-11392150D02*
X17793634Y-11363579D01*
X17793634Y-11363579D02*
X17803158Y-11344531D01*
X17803158Y-11344531D02*
X17812682Y-11315960D01*
X17812682Y-11315960D02*
X17822206Y-11268341D01*
X17822206Y-11268341D02*
X17822206Y-11230246D01*
X17822206Y-11230246D02*
X17812682Y-11182627D01*
X17812682Y-11182627D02*
X17803158Y-11154055D01*
X17803158Y-11154055D02*
X17793634Y-11135008D01*
X17793634Y-11135008D02*
X17774587Y-11106436D01*
X17774587Y-11106436D02*
X17765063Y-11096912D01*
M02*
