G04 #@! TF.GenerationSoftware,KiCad,Pcbnew,9.0.2*
G04 #@! TF.CreationDate,2025-07-09T02:38:08-04:00*
G04 #@! TF.ProjectId,FBT,4642542e-6b69-4636-9164-5f7063625858,rev?*
G04 #@! TF.SameCoordinates,Original*
G04 #@! TF.FileFunction,Soldermask,Top*
G04 #@! TF.FilePolarity,Negative*
%FSLAX46Y46*%
G04 Gerber Fmt 4.6, Leading zero omitted, Abs format (unit mm)*
G04 Created by KiCad (PCBNEW 9.0.2) date 2025-07-09 02:38:08*
%MOMM*%
%LPD*%
G01*
G04 APERTURE LIST*
G04 Aperture macros list*
%AMRoundRect*
0 Rectangle with rounded corners*
0 $1 Rounding radius*
0 $2 $3 $4 $5 $6 $7 $8 $9 X,Y pos of 4 corners*
0 Add a 4 corners polygon primitive as box body*
4,1,4,$2,$3,$4,$5,$6,$7,$8,$9,$2,$3,0*
0 Add four circle primitives for the rounded corners*
1,1,$1+$1,$2,$3*
1,1,$1+$1,$4,$5*
1,1,$1+$1,$6,$7*
1,1,$1+$1,$8,$9*
0 Add four rect primitives between the rounded corners*
20,1,$1+$1,$2,$3,$4,$5,0*
20,1,$1+$1,$4,$5,$6,$7,0*
20,1,$1+$1,$6,$7,$8,$9,0*
20,1,$1+$1,$8,$9,$2,$3,0*%
G04 Aperture macros list end*
%ADD10C,1.524000*%
%ADD11RoundRect,0.249999X0.850001X-0.850001X0.850001X0.850001X-0.850001X0.850001X-0.850001X-0.850001X0*%
%ADD12C,2.200000*%
%ADD13RoundRect,0.249999X0.850001X0.850001X-0.850001X0.850001X-0.850001X-0.850001X0.850001X-0.850001X0*%
%ADD14O,2.000000X1.600000*%
%ADD15C,2.100000*%
%ADD16C,1.400000*%
%ADD17RoundRect,0.250000X0.600000X1.250000X-0.600000X1.250000X-0.600000X-1.250000X0.600000X-1.250000X0*%
%ADD18O,1.700000X3.000000*%
%ADD19C,1.600000*%
%ADD20C,3.000000*%
G04 APERTURE END LIST*
D10*
X159300000Y-56800000D03*
X148900000Y-56800000D03*
X149000000Y-66000000D03*
X151500000Y-66000000D03*
X156700000Y-66000000D03*
X159200000Y-66000000D03*
X131316004Y-51261392D03*
X131316004Y-53801392D03*
X131316004Y-56341392D03*
X131316004Y-58881392D03*
X131316004Y-61421392D03*
X131316004Y-63961392D03*
X131316004Y-66501392D03*
X131276004Y-69041392D03*
X146516004Y-69041392D03*
X146516004Y-66501392D03*
X146516004Y-63961392D03*
X146516004Y-61421392D03*
X146516004Y-58881392D03*
X146516004Y-56341392D03*
X146516004Y-53801392D03*
X146516004Y-51261392D03*
D11*
X162100000Y-65800000D03*
D12*
X162100000Y-58180000D03*
D13*
X162100000Y-68600000D03*
D12*
X154480000Y-68600000D03*
D14*
X159755000Y-88900000D03*
X163755000Y-88900000D03*
X166755000Y-88900000D03*
X158755000Y-84500000D03*
D15*
X167700000Y-66350000D03*
X167700000Y-58150000D03*
D16*
X167700000Y-64250000D03*
X167700000Y-62250000D03*
X167700000Y-60250000D03*
D17*
X154100000Y-87200000D03*
D18*
X151600000Y-87200000D03*
D10*
X147200000Y-88480000D03*
X147200000Y-85940000D03*
X147200000Y-83400000D03*
X147200000Y-80860000D03*
X147200000Y-78320000D03*
X168640000Y-71500000D03*
X166100000Y-71500000D03*
X163560000Y-71500000D03*
X161020000Y-71500000D03*
X158480000Y-71500000D03*
X155940000Y-71500000D03*
X153400000Y-71500000D03*
X155940000Y-81660000D03*
X158480000Y-81660000D03*
X161020000Y-81660000D03*
X163560000Y-81660000D03*
X166100000Y-81660000D03*
D19*
X168870000Y-55200000D03*
X161250000Y-55200000D03*
X161280000Y-52000000D03*
X168900000Y-52000000D03*
D20*
X150000000Y-74500000D03*
M02*
