G04 #@! TF.GenerationSoftware,KiCad,Pcbnew,9.0.2*
G04 #@! TF.CreationDate,2025-07-09T02:38:08-04:00*
G04 #@! TF.ProjectId,FBT,4642542e-6b69-4636-9164-5f7063625858,rev?*
G04 #@! TF.SameCoordinates,Original*
G04 #@! TF.FileFunction,Legend,Top*
G04 #@! TF.FilePolarity,Positive*
%FSLAX46Y46*%
G04 Gerber Fmt 4.6, Leading zero omitted, Abs format (unit mm)*
G04 Created by KiCad (PCBNEW 9.0.2) date 2025-07-09 02:38:08*
%MOMM*%
%LPD*%
G01*
G04 APERTURE LIST*
%ADD10C,0.100000*%
%ADD11C,0.150000*%
%ADD12C,0.120000*%
G04 APERTURE END LIST*
D10*
G36*
X154623094Y-85429724D02*
G01*
X153546579Y-85429724D01*
X153546579Y-84872332D01*
X153657690Y-84872332D01*
X153657690Y-84910600D01*
X153684750Y-84937660D01*
X153703884Y-84941466D01*
X154034836Y-84941466D01*
X154034836Y-85272419D01*
X154038642Y-85291553D01*
X154065702Y-85318613D01*
X154103970Y-85318613D01*
X154131030Y-85291553D01*
X154134836Y-85272419D01*
X154134836Y-84941466D01*
X154465789Y-84941466D01*
X154484923Y-84937660D01*
X154511983Y-84910600D01*
X154511983Y-84872332D01*
X154484923Y-84845272D01*
X154465789Y-84841466D01*
X154134836Y-84841466D01*
X154134836Y-84510514D01*
X154131030Y-84491380D01*
X154103970Y-84464320D01*
X154065702Y-84464320D01*
X154038642Y-84491380D01*
X154034836Y-84510514D01*
X154034836Y-84841466D01*
X153703884Y-84841466D01*
X153684750Y-84845272D01*
X153657690Y-84872332D01*
X153546579Y-84872332D01*
X153546579Y-84353209D01*
X154623094Y-84353209D01*
X154623094Y-85429724D01*
G37*
X152409523Y-57662180D02*
X152361904Y-57709800D01*
X152361904Y-57709800D02*
X152219047Y-57757419D01*
X152219047Y-57757419D02*
X152123809Y-57757419D01*
X152123809Y-57757419D02*
X151980952Y-57709800D01*
X151980952Y-57709800D02*
X151885714Y-57614561D01*
X151885714Y-57614561D02*
X151838095Y-57519323D01*
X151838095Y-57519323D02*
X151790476Y-57328847D01*
X151790476Y-57328847D02*
X151790476Y-57185990D01*
X151790476Y-57185990D02*
X151838095Y-56995514D01*
X151838095Y-56995514D02*
X151885714Y-56900276D01*
X151885714Y-56900276D02*
X151980952Y-56805038D01*
X151980952Y-56805038D02*
X152123809Y-56757419D01*
X152123809Y-56757419D02*
X152219047Y-56757419D01*
X152219047Y-56757419D02*
X152361904Y-56805038D01*
X152361904Y-56805038D02*
X152409523Y-56852657D01*
X152838095Y-57757419D02*
X152838095Y-56757419D01*
X152838095Y-57233609D02*
X153409523Y-57233609D01*
X153409523Y-57757419D02*
X153409523Y-56757419D01*
X154409523Y-56805038D02*
X154314285Y-56757419D01*
X154314285Y-56757419D02*
X154171428Y-56757419D01*
X154171428Y-56757419D02*
X154028571Y-56805038D01*
X154028571Y-56805038D02*
X153933333Y-56900276D01*
X153933333Y-56900276D02*
X153885714Y-56995514D01*
X153885714Y-56995514D02*
X153838095Y-57185990D01*
X153838095Y-57185990D02*
X153838095Y-57328847D01*
X153838095Y-57328847D02*
X153885714Y-57519323D01*
X153885714Y-57519323D02*
X153933333Y-57614561D01*
X153933333Y-57614561D02*
X154028571Y-57709800D01*
X154028571Y-57709800D02*
X154171428Y-57757419D01*
X154171428Y-57757419D02*
X154266666Y-57757419D01*
X154266666Y-57757419D02*
X154409523Y-57709800D01*
X154409523Y-57709800D02*
X154457142Y-57662180D01*
X154457142Y-57662180D02*
X154457142Y-57328847D01*
X154457142Y-57328847D02*
X154266666Y-57328847D01*
X155457142Y-57757419D02*
X155123809Y-57281228D01*
X154885714Y-57757419D02*
X154885714Y-56757419D01*
X154885714Y-56757419D02*
X155266666Y-56757419D01*
X155266666Y-56757419D02*
X155361904Y-56805038D01*
X155361904Y-56805038D02*
X155409523Y-56852657D01*
X155409523Y-56852657D02*
X155457142Y-56947895D01*
X155457142Y-56947895D02*
X155457142Y-57090752D01*
X155457142Y-57090752D02*
X155409523Y-57185990D01*
X155409523Y-57185990D02*
X155361904Y-57233609D01*
X155361904Y-57233609D02*
X155266666Y-57281228D01*
X155266666Y-57281228D02*
X154885714Y-57281228D01*
X156409523Y-57757419D02*
X155838095Y-57757419D01*
X156123809Y-57757419D02*
X156123809Y-56757419D01*
X156123809Y-56757419D02*
X156028571Y-56900276D01*
X156028571Y-56900276D02*
X155933333Y-56995514D01*
X155933333Y-56995514D02*
X155838095Y-57043133D01*
D11*
X137066667Y-60454819D02*
X137066667Y-59454819D01*
X137066667Y-59454819D02*
X137400000Y-60169104D01*
X137400000Y-60169104D02*
X137733333Y-59454819D01*
X137733333Y-59454819D02*
X137733333Y-60454819D01*
X138780952Y-60359580D02*
X138733333Y-60407200D01*
X138733333Y-60407200D02*
X138590476Y-60454819D01*
X138590476Y-60454819D02*
X138495238Y-60454819D01*
X138495238Y-60454819D02*
X138352381Y-60407200D01*
X138352381Y-60407200D02*
X138257143Y-60311961D01*
X138257143Y-60311961D02*
X138209524Y-60216723D01*
X138209524Y-60216723D02*
X138161905Y-60026247D01*
X138161905Y-60026247D02*
X138161905Y-59883390D01*
X138161905Y-59883390D02*
X138209524Y-59692914D01*
X138209524Y-59692914D02*
X138257143Y-59597676D01*
X138257143Y-59597676D02*
X138352381Y-59502438D01*
X138352381Y-59502438D02*
X138495238Y-59454819D01*
X138495238Y-59454819D02*
X138590476Y-59454819D01*
X138590476Y-59454819D02*
X138733333Y-59502438D01*
X138733333Y-59502438D02*
X138780952Y-59550057D01*
X139209524Y-59454819D02*
X139209524Y-60264342D01*
X139209524Y-60264342D02*
X139257143Y-60359580D01*
X139257143Y-60359580D02*
X139304762Y-60407200D01*
X139304762Y-60407200D02*
X139400000Y-60454819D01*
X139400000Y-60454819D02*
X139590476Y-60454819D01*
X139590476Y-60454819D02*
X139685714Y-60407200D01*
X139685714Y-60407200D02*
X139733333Y-60359580D01*
X139733333Y-60359580D02*
X139780952Y-60264342D01*
X139780952Y-60264342D02*
X139780952Y-59454819D01*
X140780952Y-60454819D02*
X140209524Y-60454819D01*
X140495238Y-60454819D02*
X140495238Y-59454819D01*
X140495238Y-59454819D02*
X140400000Y-59597676D01*
X140400000Y-59597676D02*
X140304762Y-59692914D01*
X140304762Y-59692914D02*
X140209524Y-59740533D01*
X162554819Y-62728094D02*
X161554819Y-62728094D01*
X161554819Y-62728094D02*
X161554819Y-62489999D01*
X161554819Y-62489999D02*
X161602438Y-62347142D01*
X161602438Y-62347142D02*
X161697676Y-62251904D01*
X161697676Y-62251904D02*
X161792914Y-62204285D01*
X161792914Y-62204285D02*
X161983390Y-62156666D01*
X161983390Y-62156666D02*
X162126247Y-62156666D01*
X162126247Y-62156666D02*
X162316723Y-62204285D01*
X162316723Y-62204285D02*
X162411961Y-62251904D01*
X162411961Y-62251904D02*
X162507200Y-62347142D01*
X162507200Y-62347142D02*
X162554819Y-62489999D01*
X162554819Y-62489999D02*
X162554819Y-62728094D01*
X162554819Y-61204285D02*
X162554819Y-61775713D01*
X162554819Y-61489999D02*
X161554819Y-61489999D01*
X161554819Y-61489999D02*
X161697676Y-61585237D01*
X161697676Y-61585237D02*
X161792914Y-61680475D01*
X161792914Y-61680475D02*
X161840533Y-61775713D01*
X163438095Y-66254819D02*
X163438095Y-65254819D01*
X164009523Y-66254819D02*
X163580952Y-65683390D01*
X164009523Y-65254819D02*
X163438095Y-65826247D01*
X157551905Y-69054819D02*
X157551905Y-68054819D01*
X157551905Y-68054819D02*
X157790000Y-68054819D01*
X157790000Y-68054819D02*
X157932857Y-68102438D01*
X157932857Y-68102438D02*
X158028095Y-68197676D01*
X158028095Y-68197676D02*
X158075714Y-68292914D01*
X158075714Y-68292914D02*
X158123333Y-68483390D01*
X158123333Y-68483390D02*
X158123333Y-68626247D01*
X158123333Y-68626247D02*
X158075714Y-68816723D01*
X158075714Y-68816723D02*
X158028095Y-68911961D01*
X158028095Y-68911961D02*
X157932857Y-69007200D01*
X157932857Y-69007200D02*
X157790000Y-69054819D01*
X157790000Y-69054819D02*
X157551905Y-69054819D01*
X158504286Y-68150057D02*
X158551905Y-68102438D01*
X158551905Y-68102438D02*
X158647143Y-68054819D01*
X158647143Y-68054819D02*
X158885238Y-68054819D01*
X158885238Y-68054819D02*
X158980476Y-68102438D01*
X158980476Y-68102438D02*
X159028095Y-68150057D01*
X159028095Y-68150057D02*
X159075714Y-68245295D01*
X159075714Y-68245295D02*
X159075714Y-68340533D01*
X159075714Y-68340533D02*
X159028095Y-68483390D01*
X159028095Y-68483390D02*
X158456667Y-69054819D01*
X158456667Y-69054819D02*
X159075714Y-69054819D01*
X163478095Y-69154819D02*
X163478095Y-68154819D01*
X164049523Y-69154819D02*
X163620952Y-68583390D01*
X164049523Y-68154819D02*
X163478095Y-68726247D01*
X162866666Y-84454819D02*
X162866666Y-85169104D01*
X162866666Y-85169104D02*
X162819047Y-85311961D01*
X162819047Y-85311961D02*
X162723809Y-85407200D01*
X162723809Y-85407200D02*
X162580952Y-85454819D01*
X162580952Y-85454819D02*
X162485714Y-85454819D01*
X163866666Y-85454819D02*
X163295238Y-85454819D01*
X163580952Y-85454819D02*
X163580952Y-84454819D01*
X163580952Y-84454819D02*
X163485714Y-84597676D01*
X163485714Y-84597676D02*
X163390476Y-84692914D01*
X163390476Y-84692914D02*
X163295238Y-84740533D01*
D10*
X166709800Y-63583332D02*
X166757419Y-63440475D01*
X166757419Y-63440475D02*
X166757419Y-63202380D01*
X166757419Y-63202380D02*
X166709800Y-63107142D01*
X166709800Y-63107142D02*
X166662180Y-63059523D01*
X166662180Y-63059523D02*
X166566942Y-63011904D01*
X166566942Y-63011904D02*
X166471704Y-63011904D01*
X166471704Y-63011904D02*
X166376466Y-63059523D01*
X166376466Y-63059523D02*
X166328847Y-63107142D01*
X166328847Y-63107142D02*
X166281228Y-63202380D01*
X166281228Y-63202380D02*
X166233609Y-63392856D01*
X166233609Y-63392856D02*
X166185990Y-63488094D01*
X166185990Y-63488094D02*
X166138371Y-63535713D01*
X166138371Y-63535713D02*
X166043133Y-63583332D01*
X166043133Y-63583332D02*
X165947895Y-63583332D01*
X165947895Y-63583332D02*
X165852657Y-63535713D01*
X165852657Y-63535713D02*
X165805038Y-63488094D01*
X165805038Y-63488094D02*
X165757419Y-63392856D01*
X165757419Y-63392856D02*
X165757419Y-63154761D01*
X165757419Y-63154761D02*
X165805038Y-63011904D01*
X165757419Y-62678570D02*
X166757419Y-62440475D01*
X166757419Y-62440475D02*
X166043133Y-62249999D01*
X166043133Y-62249999D02*
X166757419Y-62059523D01*
X166757419Y-62059523D02*
X165757419Y-61821428D01*
X166757419Y-60916666D02*
X166757419Y-61488094D01*
X166757419Y-61202380D02*
X165757419Y-61202380D01*
X165757419Y-61202380D02*
X165900276Y-61297618D01*
X165900276Y-61297618D02*
X165995514Y-61392856D01*
X165995514Y-61392856D02*
X166043133Y-61488094D01*
X140687142Y-82885038D02*
X140591904Y-82837419D01*
X140591904Y-82837419D02*
X140449047Y-82837419D01*
X140449047Y-82837419D02*
X140306190Y-82885038D01*
X140306190Y-82885038D02*
X140210952Y-82980276D01*
X140210952Y-82980276D02*
X140163333Y-83075514D01*
X140163333Y-83075514D02*
X140115714Y-83265990D01*
X140115714Y-83265990D02*
X140115714Y-83408847D01*
X140115714Y-83408847D02*
X140163333Y-83599323D01*
X140163333Y-83599323D02*
X140210952Y-83694561D01*
X140210952Y-83694561D02*
X140306190Y-83789800D01*
X140306190Y-83789800D02*
X140449047Y-83837419D01*
X140449047Y-83837419D02*
X140544285Y-83837419D01*
X140544285Y-83837419D02*
X140687142Y-83789800D01*
X140687142Y-83789800D02*
X140734761Y-83742180D01*
X140734761Y-83742180D02*
X140734761Y-83408847D01*
X140734761Y-83408847D02*
X140544285Y-83408847D01*
X141353809Y-83361228D02*
X141353809Y-83837419D01*
X141020476Y-82837419D02*
X141353809Y-83361228D01*
X141353809Y-83361228D02*
X141687142Y-82837419D01*
X142544285Y-83837419D02*
X141972857Y-83837419D01*
X142258571Y-83837419D02*
X142258571Y-82837419D01*
X142258571Y-82837419D02*
X142163333Y-82980276D01*
X142163333Y-82980276D02*
X142068095Y-83075514D01*
X142068095Y-83075514D02*
X141972857Y-83123133D01*
D11*
X159448572Y-75264819D02*
X159448572Y-74264819D01*
X159924762Y-75264819D02*
X159924762Y-74264819D01*
X159924762Y-74264819D02*
X160258095Y-74979104D01*
X160258095Y-74979104D02*
X160591428Y-74264819D01*
X160591428Y-74264819D02*
X160591428Y-75264819D01*
X161067619Y-74264819D02*
X161067619Y-75074342D01*
X161067619Y-75074342D02*
X161115238Y-75169580D01*
X161115238Y-75169580D02*
X161162857Y-75217200D01*
X161162857Y-75217200D02*
X161258095Y-75264819D01*
X161258095Y-75264819D02*
X161448571Y-75264819D01*
X161448571Y-75264819D02*
X161543809Y-75217200D01*
X161543809Y-75217200D02*
X161591428Y-75169580D01*
X161591428Y-75169580D02*
X161639047Y-75074342D01*
X161639047Y-75074342D02*
X161639047Y-74264819D01*
X162639047Y-75264819D02*
X162067619Y-75264819D01*
X162353333Y-75264819D02*
X162353333Y-74264819D01*
X162353333Y-74264819D02*
X162258095Y-74407676D01*
X162258095Y-74407676D02*
X162162857Y-74502914D01*
X162162857Y-74502914D02*
X162067619Y-74550533D01*
X164893333Y-55654819D02*
X164560000Y-55178628D01*
X164321905Y-55654819D02*
X164321905Y-54654819D01*
X164321905Y-54654819D02*
X164702857Y-54654819D01*
X164702857Y-54654819D02*
X164798095Y-54702438D01*
X164798095Y-54702438D02*
X164845714Y-54750057D01*
X164845714Y-54750057D02*
X164893333Y-54845295D01*
X164893333Y-54845295D02*
X164893333Y-54988152D01*
X164893333Y-54988152D02*
X164845714Y-55083390D01*
X164845714Y-55083390D02*
X164798095Y-55131009D01*
X164798095Y-55131009D02*
X164702857Y-55178628D01*
X164702857Y-55178628D02*
X164321905Y-55178628D01*
X165845714Y-55654819D02*
X165274286Y-55654819D01*
X165560000Y-55654819D02*
X165560000Y-54654819D01*
X165560000Y-54654819D02*
X165464762Y-54797676D01*
X165464762Y-54797676D02*
X165369524Y-54892914D01*
X165369524Y-54892914D02*
X165274286Y-54940533D01*
X164923333Y-52454819D02*
X164590000Y-51978628D01*
X164351905Y-52454819D02*
X164351905Y-51454819D01*
X164351905Y-51454819D02*
X164732857Y-51454819D01*
X164732857Y-51454819D02*
X164828095Y-51502438D01*
X164828095Y-51502438D02*
X164875714Y-51550057D01*
X164875714Y-51550057D02*
X164923333Y-51645295D01*
X164923333Y-51645295D02*
X164923333Y-51788152D01*
X164923333Y-51788152D02*
X164875714Y-51883390D01*
X164875714Y-51883390D02*
X164828095Y-51931009D01*
X164828095Y-51931009D02*
X164732857Y-51978628D01*
X164732857Y-51978628D02*
X164351905Y-51978628D01*
X165304286Y-51550057D02*
X165351905Y-51502438D01*
X165351905Y-51502438D02*
X165447143Y-51454819D01*
X165447143Y-51454819D02*
X165685238Y-51454819D01*
X165685238Y-51454819D02*
X165780476Y-51502438D01*
X165780476Y-51502438D02*
X165828095Y-51550057D01*
X165828095Y-51550057D02*
X165875714Y-51645295D01*
X165875714Y-51645295D02*
X165875714Y-51740533D01*
X165875714Y-51740533D02*
X165828095Y-51883390D01*
X165828095Y-51883390D02*
X165256667Y-52454819D01*
X165256667Y-52454819D02*
X165875714Y-52454819D01*
D10*
X160100000Y-50100000D02*
X148100000Y-50100000D01*
X148100000Y-66900000D01*
X160100000Y-66900000D01*
X160100000Y-50100000D01*
D12*
X130006004Y-49991392D02*
X147786004Y-49991392D01*
X147786004Y-72851392D01*
X130006004Y-72851392D01*
X130006004Y-49991392D01*
X160630000Y-59270000D02*
X160760000Y-59270000D01*
X160630000Y-63690000D02*
X163570000Y-63690000D01*
X160630000Y-63810000D02*
X163570000Y-63810000D01*
X160630000Y-63930000D02*
X163570000Y-63930000D01*
X160630000Y-64710000D02*
X160630000Y-59270000D01*
X160760000Y-64710000D02*
X160630000Y-64710000D01*
X163440000Y-64710000D02*
X163570000Y-64710000D01*
X163570000Y-59270000D02*
X163440000Y-59270000D01*
X163570000Y-64710000D02*
X163570000Y-59270000D01*
X155570000Y-67130000D02*
X155570000Y-67260000D01*
X155570000Y-70070000D02*
X155570000Y-69940000D01*
X159990000Y-70070000D02*
X159990000Y-67130000D01*
X160110000Y-70070000D02*
X160110000Y-67130000D01*
X160230000Y-70070000D02*
X160230000Y-67130000D01*
X161010000Y-67130000D02*
X155570000Y-67130000D01*
X161010000Y-67260000D02*
X161010000Y-67130000D01*
X161010000Y-69940000D02*
X161010000Y-70070000D01*
X161010000Y-70070000D02*
X155570000Y-70070000D01*
X156905000Y-90000000D02*
X156905000Y-83400000D01*
X169905000Y-83400000D02*
X156905000Y-83400000D01*
X169905000Y-84200000D02*
X169905000Y-83400000D01*
X169905000Y-89200000D02*
X169905000Y-90000000D01*
X169905000Y-90000000D02*
X156905000Y-90000000D01*
X171905000Y-84200000D02*
X169905000Y-84200000D01*
X171905000Y-88900000D02*
X171905000Y-84200000D01*
X171905000Y-88900000D02*
X171905000Y-89200000D01*
X171905000Y-89200000D02*
X169905000Y-89200000D01*
D10*
X165550000Y-57950000D02*
X165550000Y-58750000D01*
X165550000Y-57950000D02*
X166350000Y-57950000D01*
X165550000Y-62650000D02*
X165550000Y-61850000D01*
X165550000Y-66550000D02*
X165550000Y-65750000D01*
X165550000Y-66550000D02*
X166350000Y-66550000D01*
X169850000Y-57950000D02*
X169050000Y-57950000D01*
X169850000Y-57950000D02*
X169850000Y-58750000D01*
X169850000Y-61850000D02*
X169850000Y-62650000D01*
X169850000Y-66550000D02*
X169050000Y-66550000D01*
X169850000Y-66550000D02*
X169850000Y-65750000D01*
D12*
X149040000Y-83690000D02*
X149040000Y-89660000D01*
X149040000Y-89660000D02*
X156660000Y-89660000D01*
X149050000Y-87400000D02*
X149800000Y-87400000D01*
X149050000Y-88900000D02*
X149050000Y-89650000D01*
X149050000Y-89650000D02*
X150850000Y-89650000D01*
X149800000Y-84450000D02*
X152850000Y-84450000D01*
X149800000Y-87400000D02*
X149800000Y-84450000D01*
X150850000Y-88900000D02*
X149050000Y-88900000D01*
X150850000Y-89650000D02*
X150850000Y-88900000D01*
X152350000Y-88900000D02*
X152350000Y-89650000D01*
X152350000Y-89650000D02*
X153350000Y-89650000D01*
X153350000Y-88900000D02*
X152350000Y-88900000D01*
X153350000Y-89650000D02*
X153350000Y-88900000D01*
X154850000Y-88900000D02*
X154850000Y-89650000D01*
X154850000Y-89650000D02*
X156650000Y-89650000D01*
X155700000Y-89950000D02*
X156950000Y-89950000D01*
X155900000Y-84450000D02*
X152850000Y-84450000D01*
X155900000Y-87400000D02*
X155900000Y-84450000D01*
X156650000Y-87400000D02*
X155900000Y-87400000D01*
X156650000Y-88900000D02*
X154850000Y-88900000D01*
X156650000Y-89650000D02*
X156650000Y-88900000D01*
X156660000Y-83690000D02*
X149040000Y-83690000D01*
X156660000Y-89660000D02*
X156660000Y-83690000D01*
X156950000Y-89950000D02*
X156950000Y-88700000D01*
X148724000Y-90004000D02*
X133936000Y-90004000D01*
X133936000Y-76756000D01*
X148724000Y-76756000D01*
X148724000Y-90004000D01*
X169910000Y-70230000D02*
X152130000Y-70230000D01*
X152130000Y-82930000D01*
X169910000Y-82930000D01*
X169910000Y-70230000D01*
X155305000Y-79755000D02*
G75*
G02*
X152765000Y-79755000I-1270000J0D01*
G01*
X152765000Y-79755000D02*
G75*
G02*
X155305000Y-79755000I1270000J0D01*
G01*
X169275000Y-79755000D02*
G75*
G02*
X166735000Y-79755000I-1270000J0D01*
G01*
X166735000Y-79755000D02*
G75*
G02*
X169275000Y-79755000I1270000J0D01*
G01*
X161790000Y-53830000D02*
X161790000Y-54160000D01*
X161790000Y-56570000D02*
X161790000Y-56240000D01*
X168330000Y-53830000D02*
X161790000Y-53830000D01*
X168330000Y-54160000D02*
X168330000Y-53830000D01*
X168330000Y-56240000D02*
X168330000Y-56570000D01*
X168330000Y-56570000D02*
X161790000Y-56570000D01*
X161820000Y-50630000D02*
X168360000Y-50630000D01*
X161820000Y-50960000D02*
X161820000Y-50630000D01*
X161820000Y-53040000D02*
X161820000Y-53370000D01*
X161820000Y-53370000D02*
X168360000Y-53370000D01*
X168360000Y-50630000D02*
X168360000Y-50960000D01*
X168360000Y-53370000D02*
X168360000Y-53040000D01*
M02*
