%TF.GenerationSoftware,KiCad,Pcbnew,9.0.2*%
%TF.CreationDate,2025-07-09T02:38:07-04:00*%
%TF.ProjectId,FBT,4642542e-6b69-4636-9164-5f7063625858,rev?*%
%TF.SameCoordinates,Original*%
%TF.FileFunction,Drillmap*%
%TF.FilePolarity,Positive*%
%FSLAX45Y45*%
G04 Gerber Fmt 4.5, Leading zero omitted, Abs format (unit mm)*
G04 Created by KiCad (PCBNEW 9.0.2) date 2025-07-09 02:38:07*
%MOMM*%
%LPD*%
G01*
G04 APERTURE LIST*
%ADD10C,0.200000*%
%ADD11C,0.150000*%
%ADD12C,0.300000*%
G04 APERTURE END LIST*
D10*
X13000000Y-5000000D02*
X17000000Y-5000000D01*
X17000000Y-9000000D01*
X13000000Y-9000000D01*
X13000000Y-5000000D01*
D11*
X16045500Y-8595000D02*
X16195500Y-8745000D01*
X16195500Y-8595000D02*
X16045500Y-8745000D01*
X16745500Y-8595000D02*
X16895500Y-8745000D01*
X16895500Y-8595000D02*
X16745500Y-8745000D01*
D12*
X15150000Y-7450000D02*
G75*
G02*
X14850000Y-7450000I-150000J0D01*
G01*
X14850000Y-7450000D02*
G75*
G02*
X15150000Y-7450000I150000J0D01*
G01*
D10*
X13250777Y-9321484D02*
X13250777Y-9121484D01*
X13250777Y-9121484D02*
X13298396Y-9121484D01*
X13298396Y-9121484D02*
X13326967Y-9131008D01*
X13326967Y-9131008D02*
X13346015Y-9150055D01*
X13346015Y-9150055D02*
X13355539Y-9169103D01*
X13355539Y-9169103D02*
X13365062Y-9207198D01*
X13365062Y-9207198D02*
X13365062Y-9235770D01*
X13365062Y-9235770D02*
X13355539Y-9273865D01*
X13355539Y-9273865D02*
X13346015Y-9292912D01*
X13346015Y-9292912D02*
X13326967Y-9311960D01*
X13326967Y-9311960D02*
X13298396Y-9321484D01*
X13298396Y-9321484D02*
X13250777Y-9321484D01*
X13450777Y-9321484D02*
X13450777Y-9188150D01*
X13450777Y-9226246D02*
X13460301Y-9207198D01*
X13460301Y-9207198D02*
X13469824Y-9197674D01*
X13469824Y-9197674D02*
X13488872Y-9188150D01*
X13488872Y-9188150D02*
X13507920Y-9188150D01*
X13574586Y-9321484D02*
X13574586Y-9188150D01*
X13574586Y-9121484D02*
X13565062Y-9131008D01*
X13565062Y-9131008D02*
X13574586Y-9140531D01*
X13574586Y-9140531D02*
X13584110Y-9131008D01*
X13584110Y-9131008D02*
X13574586Y-9121484D01*
X13574586Y-9121484D02*
X13574586Y-9140531D01*
X13698396Y-9321484D02*
X13679348Y-9311960D01*
X13679348Y-9311960D02*
X13669824Y-9292912D01*
X13669824Y-9292912D02*
X13669824Y-9121484D01*
X13803158Y-9321484D02*
X13784110Y-9311960D01*
X13784110Y-9311960D02*
X13774586Y-9292912D01*
X13774586Y-9292912D02*
X13774586Y-9121484D01*
X14031729Y-9321484D02*
X14031729Y-9121484D01*
X14031729Y-9121484D02*
X14098396Y-9264341D01*
X14098396Y-9264341D02*
X14165062Y-9121484D01*
X14165062Y-9121484D02*
X14165062Y-9321484D01*
X14346015Y-9321484D02*
X14346015Y-9216722D01*
X14346015Y-9216722D02*
X14336491Y-9197674D01*
X14336491Y-9197674D02*
X14317443Y-9188150D01*
X14317443Y-9188150D02*
X14279348Y-9188150D01*
X14279348Y-9188150D02*
X14260301Y-9197674D01*
X14346015Y-9311960D02*
X14326967Y-9321484D01*
X14326967Y-9321484D02*
X14279348Y-9321484D01*
X14279348Y-9321484D02*
X14260301Y-9311960D01*
X14260301Y-9311960D02*
X14250777Y-9292912D01*
X14250777Y-9292912D02*
X14250777Y-9273865D01*
X14250777Y-9273865D02*
X14260301Y-9254817D01*
X14260301Y-9254817D02*
X14279348Y-9245293D01*
X14279348Y-9245293D02*
X14326967Y-9245293D01*
X14326967Y-9245293D02*
X14346015Y-9235770D01*
X14441253Y-9188150D02*
X14441253Y-9388150D01*
X14441253Y-9197674D02*
X14460301Y-9188150D01*
X14460301Y-9188150D02*
X14498396Y-9188150D01*
X14498396Y-9188150D02*
X14517443Y-9197674D01*
X14517443Y-9197674D02*
X14526967Y-9207198D01*
X14526967Y-9207198D02*
X14536491Y-9226246D01*
X14536491Y-9226246D02*
X14536491Y-9283389D01*
X14536491Y-9283389D02*
X14526967Y-9302436D01*
X14526967Y-9302436D02*
X14517443Y-9311960D01*
X14517443Y-9311960D02*
X14498396Y-9321484D01*
X14498396Y-9321484D02*
X14460301Y-9321484D01*
X14460301Y-9321484D02*
X14441253Y-9311960D01*
X14622205Y-9302436D02*
X14631729Y-9311960D01*
X14631729Y-9311960D02*
X14622205Y-9321484D01*
X14622205Y-9321484D02*
X14612682Y-9311960D01*
X14612682Y-9311960D02*
X14622205Y-9302436D01*
X14622205Y-9302436D02*
X14622205Y-9321484D01*
X14622205Y-9197674D02*
X14631729Y-9207198D01*
X14631729Y-9207198D02*
X14622205Y-9216722D01*
X14622205Y-9216722D02*
X14612682Y-9207198D01*
X14612682Y-9207198D02*
X14622205Y-9197674D01*
X14622205Y-9197674D02*
X14622205Y-9216722D01*
D11*
X12840000Y-9575000D02*
X12990000Y-9725000D01*
X12990000Y-9575000D02*
X12840000Y-9725000D01*
D10*
X13355539Y-9741484D02*
X13241253Y-9741484D01*
X13298396Y-9741484D02*
X13298396Y-9541484D01*
X13298396Y-9541484D02*
X13279348Y-9570055D01*
X13279348Y-9570055D02*
X13260301Y-9589103D01*
X13260301Y-9589103D02*
X13241253Y-9598627D01*
X13441253Y-9722436D02*
X13450777Y-9731960D01*
X13450777Y-9731960D02*
X13441253Y-9741484D01*
X13441253Y-9741484D02*
X13431729Y-9731960D01*
X13431729Y-9731960D02*
X13441253Y-9722436D01*
X13441253Y-9722436D02*
X13441253Y-9741484D01*
X13631729Y-9541484D02*
X13536491Y-9541484D01*
X13536491Y-9541484D02*
X13526967Y-9636722D01*
X13526967Y-9636722D02*
X13536491Y-9627198D01*
X13536491Y-9627198D02*
X13555539Y-9617674D01*
X13555539Y-9617674D02*
X13603158Y-9617674D01*
X13603158Y-9617674D02*
X13622205Y-9627198D01*
X13622205Y-9627198D02*
X13631729Y-9636722D01*
X13631729Y-9636722D02*
X13641253Y-9655770D01*
X13641253Y-9655770D02*
X13641253Y-9703389D01*
X13641253Y-9703389D02*
X13631729Y-9722436D01*
X13631729Y-9722436D02*
X13622205Y-9731960D01*
X13622205Y-9731960D02*
X13603158Y-9741484D01*
X13603158Y-9741484D02*
X13555539Y-9741484D01*
X13555539Y-9741484D02*
X13536491Y-9731960D01*
X13536491Y-9731960D02*
X13526967Y-9722436D01*
X13765062Y-9541484D02*
X13784110Y-9541484D01*
X13784110Y-9541484D02*
X13803158Y-9551008D01*
X13803158Y-9551008D02*
X13812682Y-9560531D01*
X13812682Y-9560531D02*
X13822205Y-9579579D01*
X13822205Y-9579579D02*
X13831729Y-9617674D01*
X13831729Y-9617674D02*
X13831729Y-9665293D01*
X13831729Y-9665293D02*
X13822205Y-9703389D01*
X13822205Y-9703389D02*
X13812682Y-9722436D01*
X13812682Y-9722436D02*
X13803158Y-9731960D01*
X13803158Y-9731960D02*
X13784110Y-9741484D01*
X13784110Y-9741484D02*
X13765062Y-9741484D01*
X13765062Y-9741484D02*
X13746015Y-9731960D01*
X13746015Y-9731960D02*
X13736491Y-9722436D01*
X13736491Y-9722436D02*
X13726967Y-9703389D01*
X13726967Y-9703389D02*
X13717443Y-9665293D01*
X13717443Y-9665293D02*
X13717443Y-9617674D01*
X13717443Y-9617674D02*
X13726967Y-9579579D01*
X13726967Y-9579579D02*
X13736491Y-9560531D01*
X13736491Y-9560531D02*
X13746015Y-9551008D01*
X13746015Y-9551008D02*
X13765062Y-9541484D01*
X13955539Y-9541484D02*
X13974586Y-9541484D01*
X13974586Y-9541484D02*
X13993634Y-9551008D01*
X13993634Y-9551008D02*
X14003158Y-9560531D01*
X14003158Y-9560531D02*
X14012682Y-9579579D01*
X14012682Y-9579579D02*
X14022205Y-9617674D01*
X14022205Y-9617674D02*
X14022205Y-9665293D01*
X14022205Y-9665293D02*
X14012682Y-9703389D01*
X14012682Y-9703389D02*
X14003158Y-9722436D01*
X14003158Y-9722436D02*
X13993634Y-9731960D01*
X13993634Y-9731960D02*
X13974586Y-9741484D01*
X13974586Y-9741484D02*
X13955539Y-9741484D01*
X13955539Y-9741484D02*
X13936491Y-9731960D01*
X13936491Y-9731960D02*
X13926967Y-9722436D01*
X13926967Y-9722436D02*
X13917443Y-9703389D01*
X13917443Y-9703389D02*
X13907920Y-9665293D01*
X13907920Y-9665293D02*
X13907920Y-9617674D01*
X13907920Y-9617674D02*
X13917443Y-9579579D01*
X13917443Y-9579579D02*
X13926967Y-9560531D01*
X13926967Y-9560531D02*
X13936491Y-9551008D01*
X13936491Y-9551008D02*
X13955539Y-9541484D01*
X14107920Y-9741484D02*
X14107920Y-9608150D01*
X14107920Y-9627198D02*
X14117443Y-9617674D01*
X14117443Y-9617674D02*
X14136491Y-9608150D01*
X14136491Y-9608150D02*
X14165063Y-9608150D01*
X14165063Y-9608150D02*
X14184110Y-9617674D01*
X14184110Y-9617674D02*
X14193634Y-9636722D01*
X14193634Y-9636722D02*
X14193634Y-9741484D01*
X14193634Y-9636722D02*
X14203158Y-9617674D01*
X14203158Y-9617674D02*
X14222205Y-9608150D01*
X14222205Y-9608150D02*
X14250777Y-9608150D01*
X14250777Y-9608150D02*
X14269824Y-9617674D01*
X14269824Y-9617674D02*
X14279348Y-9636722D01*
X14279348Y-9636722D02*
X14279348Y-9741484D01*
X14374586Y-9741484D02*
X14374586Y-9608150D01*
X14374586Y-9627198D02*
X14384110Y-9617674D01*
X14384110Y-9617674D02*
X14403158Y-9608150D01*
X14403158Y-9608150D02*
X14431729Y-9608150D01*
X14431729Y-9608150D02*
X14450777Y-9617674D01*
X14450777Y-9617674D02*
X14460301Y-9636722D01*
X14460301Y-9636722D02*
X14460301Y-9741484D01*
X14460301Y-9636722D02*
X14469824Y-9617674D01*
X14469824Y-9617674D02*
X14488872Y-9608150D01*
X14488872Y-9608150D02*
X14517443Y-9608150D01*
X14517443Y-9608150D02*
X14536491Y-9617674D01*
X14536491Y-9617674D02*
X14546015Y-9636722D01*
X14546015Y-9636722D02*
X14546015Y-9741484D01*
X14936491Y-9531960D02*
X14765063Y-9789103D01*
X15193634Y-9541484D02*
X15212682Y-9541484D01*
X15212682Y-9541484D02*
X15231729Y-9551008D01*
X15231729Y-9551008D02*
X15241253Y-9560531D01*
X15241253Y-9560531D02*
X15250777Y-9579579D01*
X15250777Y-9579579D02*
X15260301Y-9617674D01*
X15260301Y-9617674D02*
X15260301Y-9665293D01*
X15260301Y-9665293D02*
X15250777Y-9703389D01*
X15250777Y-9703389D02*
X15241253Y-9722436D01*
X15241253Y-9722436D02*
X15231729Y-9731960D01*
X15231729Y-9731960D02*
X15212682Y-9741484D01*
X15212682Y-9741484D02*
X15193634Y-9741484D01*
X15193634Y-9741484D02*
X15174586Y-9731960D01*
X15174586Y-9731960D02*
X15165063Y-9722436D01*
X15165063Y-9722436D02*
X15155539Y-9703389D01*
X15155539Y-9703389D02*
X15146015Y-9665293D01*
X15146015Y-9665293D02*
X15146015Y-9617674D01*
X15146015Y-9617674D02*
X15155539Y-9579579D01*
X15155539Y-9579579D02*
X15165063Y-9560531D01*
X15165063Y-9560531D02*
X15174586Y-9551008D01*
X15174586Y-9551008D02*
X15193634Y-9541484D01*
X15346015Y-9722436D02*
X15355539Y-9731960D01*
X15355539Y-9731960D02*
X15346015Y-9741484D01*
X15346015Y-9741484D02*
X15336491Y-9731960D01*
X15336491Y-9731960D02*
X15346015Y-9722436D01*
X15346015Y-9722436D02*
X15346015Y-9741484D01*
X15479348Y-9541484D02*
X15498396Y-9541484D01*
X15498396Y-9541484D02*
X15517444Y-9551008D01*
X15517444Y-9551008D02*
X15526967Y-9560531D01*
X15526967Y-9560531D02*
X15536491Y-9579579D01*
X15536491Y-9579579D02*
X15546015Y-9617674D01*
X15546015Y-9617674D02*
X15546015Y-9665293D01*
X15546015Y-9665293D02*
X15536491Y-9703389D01*
X15536491Y-9703389D02*
X15526967Y-9722436D01*
X15526967Y-9722436D02*
X15517444Y-9731960D01*
X15517444Y-9731960D02*
X15498396Y-9741484D01*
X15498396Y-9741484D02*
X15479348Y-9741484D01*
X15479348Y-9741484D02*
X15460301Y-9731960D01*
X15460301Y-9731960D02*
X15450777Y-9722436D01*
X15450777Y-9722436D02*
X15441253Y-9703389D01*
X15441253Y-9703389D02*
X15431729Y-9665293D01*
X15431729Y-9665293D02*
X15431729Y-9617674D01*
X15431729Y-9617674D02*
X15441253Y-9579579D01*
X15441253Y-9579579D02*
X15450777Y-9560531D01*
X15450777Y-9560531D02*
X15460301Y-9551008D01*
X15460301Y-9551008D02*
X15479348Y-9541484D01*
X15726967Y-9541484D02*
X15631729Y-9541484D01*
X15631729Y-9541484D02*
X15622206Y-9636722D01*
X15622206Y-9636722D02*
X15631729Y-9627198D01*
X15631729Y-9627198D02*
X15650777Y-9617674D01*
X15650777Y-9617674D02*
X15698396Y-9617674D01*
X15698396Y-9617674D02*
X15717444Y-9627198D01*
X15717444Y-9627198D02*
X15726967Y-9636722D01*
X15726967Y-9636722D02*
X15736491Y-9655770D01*
X15736491Y-9655770D02*
X15736491Y-9703389D01*
X15736491Y-9703389D02*
X15726967Y-9722436D01*
X15726967Y-9722436D02*
X15717444Y-9731960D01*
X15717444Y-9731960D02*
X15698396Y-9741484D01*
X15698396Y-9741484D02*
X15650777Y-9741484D01*
X15650777Y-9741484D02*
X15631729Y-9731960D01*
X15631729Y-9731960D02*
X15622206Y-9722436D01*
X15831729Y-9741484D02*
X15869825Y-9741484D01*
X15869825Y-9741484D02*
X15888872Y-9731960D01*
X15888872Y-9731960D02*
X15898396Y-9722436D01*
X15898396Y-9722436D02*
X15917444Y-9693865D01*
X15917444Y-9693865D02*
X15926967Y-9655770D01*
X15926967Y-9655770D02*
X15926967Y-9579579D01*
X15926967Y-9579579D02*
X15917444Y-9560531D01*
X15917444Y-9560531D02*
X15907920Y-9551008D01*
X15907920Y-9551008D02*
X15888872Y-9541484D01*
X15888872Y-9541484D02*
X15850777Y-9541484D01*
X15850777Y-9541484D02*
X15831729Y-9551008D01*
X15831729Y-9551008D02*
X15822206Y-9560531D01*
X15822206Y-9560531D02*
X15812682Y-9579579D01*
X15812682Y-9579579D02*
X15812682Y-9627198D01*
X15812682Y-9627198D02*
X15822206Y-9646246D01*
X15822206Y-9646246D02*
X15831729Y-9655770D01*
X15831729Y-9655770D02*
X15850777Y-9665293D01*
X15850777Y-9665293D02*
X15888872Y-9665293D01*
X15888872Y-9665293D02*
X15907920Y-9655770D01*
X15907920Y-9655770D02*
X15917444Y-9646246D01*
X15917444Y-9646246D02*
X15926967Y-9627198D01*
X16117444Y-9741484D02*
X16003158Y-9741484D01*
X16060301Y-9741484D02*
X16060301Y-9541484D01*
X16060301Y-9541484D02*
X16041253Y-9570055D01*
X16041253Y-9570055D02*
X16022206Y-9589103D01*
X16022206Y-9589103D02*
X16003158Y-9598627D01*
X16193634Y-9541484D02*
X16193634Y-9579579D01*
X16269825Y-9541484D02*
X16269825Y-9579579D01*
X16565063Y-9817674D02*
X16555539Y-9808150D01*
X16555539Y-9808150D02*
X16536491Y-9779579D01*
X16536491Y-9779579D02*
X16526968Y-9760531D01*
X16526968Y-9760531D02*
X16517444Y-9731960D01*
X16517444Y-9731960D02*
X16507920Y-9684341D01*
X16507920Y-9684341D02*
X16507920Y-9646246D01*
X16507920Y-9646246D02*
X16517444Y-9598627D01*
X16517444Y-9598627D02*
X16526968Y-9570055D01*
X16526968Y-9570055D02*
X16536491Y-9551008D01*
X16536491Y-9551008D02*
X16555539Y-9522436D01*
X16555539Y-9522436D02*
X16565063Y-9512912D01*
X16631729Y-9560531D02*
X16641253Y-9551008D01*
X16641253Y-9551008D02*
X16660301Y-9541484D01*
X16660301Y-9541484D02*
X16707920Y-9541484D01*
X16707920Y-9541484D02*
X16726968Y-9551008D01*
X16726968Y-9551008D02*
X16736491Y-9560531D01*
X16736491Y-9560531D02*
X16746015Y-9579579D01*
X16746015Y-9579579D02*
X16746015Y-9598627D01*
X16746015Y-9598627D02*
X16736491Y-9627198D01*
X16736491Y-9627198D02*
X16622206Y-9741484D01*
X16622206Y-9741484D02*
X16746015Y-9741484D01*
X16984111Y-9741484D02*
X16984111Y-9541484D01*
X17069825Y-9741484D02*
X17069825Y-9636722D01*
X17069825Y-9636722D02*
X17060301Y-9617674D01*
X17060301Y-9617674D02*
X17041253Y-9608150D01*
X17041253Y-9608150D02*
X17012682Y-9608150D01*
X17012682Y-9608150D02*
X16993634Y-9617674D01*
X16993634Y-9617674D02*
X16984111Y-9627198D01*
X17193634Y-9741484D02*
X17174587Y-9731960D01*
X17174587Y-9731960D02*
X17165063Y-9722436D01*
X17165063Y-9722436D02*
X17155539Y-9703389D01*
X17155539Y-9703389D02*
X17155539Y-9646246D01*
X17155539Y-9646246D02*
X17165063Y-9627198D01*
X17165063Y-9627198D02*
X17174587Y-9617674D01*
X17174587Y-9617674D02*
X17193634Y-9608150D01*
X17193634Y-9608150D02*
X17222206Y-9608150D01*
X17222206Y-9608150D02*
X17241253Y-9617674D01*
X17241253Y-9617674D02*
X17250777Y-9627198D01*
X17250777Y-9627198D02*
X17260301Y-9646246D01*
X17260301Y-9646246D02*
X17260301Y-9703389D01*
X17260301Y-9703389D02*
X17250777Y-9722436D01*
X17250777Y-9722436D02*
X17241253Y-9731960D01*
X17241253Y-9731960D02*
X17222206Y-9741484D01*
X17222206Y-9741484D02*
X17193634Y-9741484D01*
X17374587Y-9741484D02*
X17355539Y-9731960D01*
X17355539Y-9731960D02*
X17346015Y-9712912D01*
X17346015Y-9712912D02*
X17346015Y-9541484D01*
X17526968Y-9731960D02*
X17507920Y-9741484D01*
X17507920Y-9741484D02*
X17469825Y-9741484D01*
X17469825Y-9741484D02*
X17450777Y-9731960D01*
X17450777Y-9731960D02*
X17441253Y-9712912D01*
X17441253Y-9712912D02*
X17441253Y-9636722D01*
X17441253Y-9636722D02*
X17450777Y-9617674D01*
X17450777Y-9617674D02*
X17469825Y-9608150D01*
X17469825Y-9608150D02*
X17507920Y-9608150D01*
X17507920Y-9608150D02*
X17526968Y-9617674D01*
X17526968Y-9617674D02*
X17536492Y-9636722D01*
X17536492Y-9636722D02*
X17536492Y-9655770D01*
X17536492Y-9655770D02*
X17441253Y-9674817D01*
X17612682Y-9731960D02*
X17631730Y-9741484D01*
X17631730Y-9741484D02*
X17669825Y-9741484D01*
X17669825Y-9741484D02*
X17688873Y-9731960D01*
X17688873Y-9731960D02*
X17698396Y-9712912D01*
X17698396Y-9712912D02*
X17698396Y-9703389D01*
X17698396Y-9703389D02*
X17688873Y-9684341D01*
X17688873Y-9684341D02*
X17669825Y-9674817D01*
X17669825Y-9674817D02*
X17641253Y-9674817D01*
X17641253Y-9674817D02*
X17622206Y-9665293D01*
X17622206Y-9665293D02*
X17612682Y-9646246D01*
X17612682Y-9646246D02*
X17612682Y-9636722D01*
X17612682Y-9636722D02*
X17622206Y-9617674D01*
X17622206Y-9617674D02*
X17641253Y-9608150D01*
X17641253Y-9608150D02*
X17669825Y-9608150D01*
X17669825Y-9608150D02*
X17688873Y-9617674D01*
X17765063Y-9817674D02*
X17774587Y-9808150D01*
X17774587Y-9808150D02*
X17793634Y-9779579D01*
X17793634Y-9779579D02*
X17803158Y-9760531D01*
X17803158Y-9760531D02*
X17812682Y-9731960D01*
X17812682Y-9731960D02*
X17822206Y-9684341D01*
X17822206Y-9684341D02*
X17822206Y-9646246D01*
X17822206Y-9646246D02*
X17812682Y-9598627D01*
X17812682Y-9598627D02*
X17803158Y-9570055D01*
X17803158Y-9570055D02*
X17793634Y-9551008D01*
X17793634Y-9551008D02*
X17774587Y-9522436D01*
X17774587Y-9522436D02*
X17765063Y-9512912D01*
X18126968Y-9817674D02*
X18117444Y-9808150D01*
X18117444Y-9808150D02*
X18098396Y-9779579D01*
X18098396Y-9779579D02*
X18088873Y-9760531D01*
X18088873Y-9760531D02*
X18079349Y-9731960D01*
X18079349Y-9731960D02*
X18069825Y-9684341D01*
X18069825Y-9684341D02*
X18069825Y-9646246D01*
X18069825Y-9646246D02*
X18079349Y-9598627D01*
X18079349Y-9598627D02*
X18088873Y-9570055D01*
X18088873Y-9570055D02*
X18098396Y-9551008D01*
X18098396Y-9551008D02*
X18117444Y-9522436D01*
X18117444Y-9522436D02*
X18126968Y-9512912D01*
X18203158Y-9608150D02*
X18203158Y-9741484D01*
X18203158Y-9627198D02*
X18212682Y-9617674D01*
X18212682Y-9617674D02*
X18231730Y-9608150D01*
X18231730Y-9608150D02*
X18260301Y-9608150D01*
X18260301Y-9608150D02*
X18279349Y-9617674D01*
X18279349Y-9617674D02*
X18288873Y-9636722D01*
X18288873Y-9636722D02*
X18288873Y-9741484D01*
X18412682Y-9741484D02*
X18393634Y-9731960D01*
X18393634Y-9731960D02*
X18384111Y-9722436D01*
X18384111Y-9722436D02*
X18374587Y-9703389D01*
X18374587Y-9703389D02*
X18374587Y-9646246D01*
X18374587Y-9646246D02*
X18384111Y-9627198D01*
X18384111Y-9627198D02*
X18393634Y-9617674D01*
X18393634Y-9617674D02*
X18412682Y-9608150D01*
X18412682Y-9608150D02*
X18441254Y-9608150D01*
X18441254Y-9608150D02*
X18460301Y-9617674D01*
X18460301Y-9617674D02*
X18469825Y-9627198D01*
X18469825Y-9627198D02*
X18479349Y-9646246D01*
X18479349Y-9646246D02*
X18479349Y-9703389D01*
X18479349Y-9703389D02*
X18469825Y-9722436D01*
X18469825Y-9722436D02*
X18460301Y-9731960D01*
X18460301Y-9731960D02*
X18441254Y-9741484D01*
X18441254Y-9741484D02*
X18412682Y-9741484D01*
X18536492Y-9608150D02*
X18612682Y-9608150D01*
X18565063Y-9541484D02*
X18565063Y-9712912D01*
X18565063Y-9712912D02*
X18574587Y-9731960D01*
X18574587Y-9731960D02*
X18593634Y-9741484D01*
X18593634Y-9741484D02*
X18612682Y-9741484D01*
X18831730Y-9608150D02*
X18831730Y-9808150D01*
X18831730Y-9617674D02*
X18850777Y-9608150D01*
X18850777Y-9608150D02*
X18888873Y-9608150D01*
X18888873Y-9608150D02*
X18907920Y-9617674D01*
X18907920Y-9617674D02*
X18917444Y-9627198D01*
X18917444Y-9627198D02*
X18926968Y-9646246D01*
X18926968Y-9646246D02*
X18926968Y-9703389D01*
X18926968Y-9703389D02*
X18917444Y-9722436D01*
X18917444Y-9722436D02*
X18907920Y-9731960D01*
X18907920Y-9731960D02*
X18888873Y-9741484D01*
X18888873Y-9741484D02*
X18850777Y-9741484D01*
X18850777Y-9741484D02*
X18831730Y-9731960D01*
X19041254Y-9741484D02*
X19022206Y-9731960D01*
X19022206Y-9731960D02*
X19012682Y-9712912D01*
X19012682Y-9712912D02*
X19012682Y-9541484D01*
X19203158Y-9741484D02*
X19203158Y-9636722D01*
X19203158Y-9636722D02*
X19193635Y-9617674D01*
X19193635Y-9617674D02*
X19174587Y-9608150D01*
X19174587Y-9608150D02*
X19136492Y-9608150D01*
X19136492Y-9608150D02*
X19117444Y-9617674D01*
X19203158Y-9731960D02*
X19184111Y-9741484D01*
X19184111Y-9741484D02*
X19136492Y-9741484D01*
X19136492Y-9741484D02*
X19117444Y-9731960D01*
X19117444Y-9731960D02*
X19107920Y-9712912D01*
X19107920Y-9712912D02*
X19107920Y-9693865D01*
X19107920Y-9693865D02*
X19117444Y-9674817D01*
X19117444Y-9674817D02*
X19136492Y-9665293D01*
X19136492Y-9665293D02*
X19184111Y-9665293D01*
X19184111Y-9665293D02*
X19203158Y-9655770D01*
X19269825Y-9608150D02*
X19346015Y-9608150D01*
X19298396Y-9541484D02*
X19298396Y-9712912D01*
X19298396Y-9712912D02*
X19307920Y-9731960D01*
X19307920Y-9731960D02*
X19326968Y-9741484D01*
X19326968Y-9741484D02*
X19346015Y-9741484D01*
X19488873Y-9731960D02*
X19469825Y-9741484D01*
X19469825Y-9741484D02*
X19431730Y-9741484D01*
X19431730Y-9741484D02*
X19412682Y-9731960D01*
X19412682Y-9731960D02*
X19403158Y-9712912D01*
X19403158Y-9712912D02*
X19403158Y-9636722D01*
X19403158Y-9636722D02*
X19412682Y-9617674D01*
X19412682Y-9617674D02*
X19431730Y-9608150D01*
X19431730Y-9608150D02*
X19469825Y-9608150D01*
X19469825Y-9608150D02*
X19488873Y-9617674D01*
X19488873Y-9617674D02*
X19498396Y-9636722D01*
X19498396Y-9636722D02*
X19498396Y-9655770D01*
X19498396Y-9655770D02*
X19403158Y-9674817D01*
X19669825Y-9741484D02*
X19669825Y-9541484D01*
X19669825Y-9731960D02*
X19650777Y-9741484D01*
X19650777Y-9741484D02*
X19612682Y-9741484D01*
X19612682Y-9741484D02*
X19593635Y-9731960D01*
X19593635Y-9731960D02*
X19584111Y-9722436D01*
X19584111Y-9722436D02*
X19574587Y-9703389D01*
X19574587Y-9703389D02*
X19574587Y-9646246D01*
X19574587Y-9646246D02*
X19584111Y-9627198D01*
X19584111Y-9627198D02*
X19593635Y-9617674D01*
X19593635Y-9617674D02*
X19612682Y-9608150D01*
X19612682Y-9608150D02*
X19650777Y-9608150D01*
X19650777Y-9608150D02*
X19669825Y-9617674D01*
X19746016Y-9817674D02*
X19755539Y-9808150D01*
X19755539Y-9808150D02*
X19774587Y-9779579D01*
X19774587Y-9779579D02*
X19784111Y-9760531D01*
X19784111Y-9760531D02*
X19793635Y-9731960D01*
X19793635Y-9731960D02*
X19803158Y-9684341D01*
X19803158Y-9684341D02*
X19803158Y-9646246D01*
X19803158Y-9646246D02*
X19793635Y-9598627D01*
X19793635Y-9598627D02*
X19784111Y-9570055D01*
X19784111Y-9570055D02*
X19774587Y-9551008D01*
X19774587Y-9551008D02*
X19755539Y-9522436D01*
X19755539Y-9522436D02*
X19746016Y-9512912D01*
X12990000Y-9920000D02*
G75*
G02*
X12790000Y-9920000I-100000J0D01*
G01*
X12790000Y-9920000D02*
G75*
G02*
X12990000Y-9920000I100000J0D01*
G01*
X13231729Y-9811484D02*
X13355539Y-9811484D01*
X13355539Y-9811484D02*
X13288872Y-9887674D01*
X13288872Y-9887674D02*
X13317443Y-9887674D01*
X13317443Y-9887674D02*
X13336491Y-9897198D01*
X13336491Y-9897198D02*
X13346015Y-9906722D01*
X13346015Y-9906722D02*
X13355539Y-9925770D01*
X13355539Y-9925770D02*
X13355539Y-9973389D01*
X13355539Y-9973389D02*
X13346015Y-9992436D01*
X13346015Y-9992436D02*
X13336491Y-10001960D01*
X13336491Y-10001960D02*
X13317443Y-10011484D01*
X13317443Y-10011484D02*
X13260301Y-10011484D01*
X13260301Y-10011484D02*
X13241253Y-10001960D01*
X13241253Y-10001960D02*
X13231729Y-9992436D01*
X13441253Y-9992436D02*
X13450777Y-10001960D01*
X13450777Y-10001960D02*
X13441253Y-10011484D01*
X13441253Y-10011484D02*
X13431729Y-10001960D01*
X13431729Y-10001960D02*
X13441253Y-9992436D01*
X13441253Y-9992436D02*
X13441253Y-10011484D01*
X13574586Y-9811484D02*
X13593634Y-9811484D01*
X13593634Y-9811484D02*
X13612682Y-9821008D01*
X13612682Y-9821008D02*
X13622205Y-9830531D01*
X13622205Y-9830531D02*
X13631729Y-9849579D01*
X13631729Y-9849579D02*
X13641253Y-9887674D01*
X13641253Y-9887674D02*
X13641253Y-9935293D01*
X13641253Y-9935293D02*
X13631729Y-9973389D01*
X13631729Y-9973389D02*
X13622205Y-9992436D01*
X13622205Y-9992436D02*
X13612682Y-10001960D01*
X13612682Y-10001960D02*
X13593634Y-10011484D01*
X13593634Y-10011484D02*
X13574586Y-10011484D01*
X13574586Y-10011484D02*
X13555539Y-10001960D01*
X13555539Y-10001960D02*
X13546015Y-9992436D01*
X13546015Y-9992436D02*
X13536491Y-9973389D01*
X13536491Y-9973389D02*
X13526967Y-9935293D01*
X13526967Y-9935293D02*
X13526967Y-9887674D01*
X13526967Y-9887674D02*
X13536491Y-9849579D01*
X13536491Y-9849579D02*
X13546015Y-9830531D01*
X13546015Y-9830531D02*
X13555539Y-9821008D01*
X13555539Y-9821008D02*
X13574586Y-9811484D01*
X13765062Y-9811484D02*
X13784110Y-9811484D01*
X13784110Y-9811484D02*
X13803158Y-9821008D01*
X13803158Y-9821008D02*
X13812682Y-9830531D01*
X13812682Y-9830531D02*
X13822205Y-9849579D01*
X13822205Y-9849579D02*
X13831729Y-9887674D01*
X13831729Y-9887674D02*
X13831729Y-9935293D01*
X13831729Y-9935293D02*
X13822205Y-9973389D01*
X13822205Y-9973389D02*
X13812682Y-9992436D01*
X13812682Y-9992436D02*
X13803158Y-10001960D01*
X13803158Y-10001960D02*
X13784110Y-10011484D01*
X13784110Y-10011484D02*
X13765062Y-10011484D01*
X13765062Y-10011484D02*
X13746015Y-10001960D01*
X13746015Y-10001960D02*
X13736491Y-9992436D01*
X13736491Y-9992436D02*
X13726967Y-9973389D01*
X13726967Y-9973389D02*
X13717443Y-9935293D01*
X13717443Y-9935293D02*
X13717443Y-9887674D01*
X13717443Y-9887674D02*
X13726967Y-9849579D01*
X13726967Y-9849579D02*
X13736491Y-9830531D01*
X13736491Y-9830531D02*
X13746015Y-9821008D01*
X13746015Y-9821008D02*
X13765062Y-9811484D01*
X13955539Y-9811484D02*
X13974586Y-9811484D01*
X13974586Y-9811484D02*
X13993634Y-9821008D01*
X13993634Y-9821008D02*
X14003158Y-9830531D01*
X14003158Y-9830531D02*
X14012682Y-9849579D01*
X14012682Y-9849579D02*
X14022205Y-9887674D01*
X14022205Y-9887674D02*
X14022205Y-9935293D01*
X14022205Y-9935293D02*
X14012682Y-9973389D01*
X14012682Y-9973389D02*
X14003158Y-9992436D01*
X14003158Y-9992436D02*
X13993634Y-10001960D01*
X13993634Y-10001960D02*
X13974586Y-10011484D01*
X13974586Y-10011484D02*
X13955539Y-10011484D01*
X13955539Y-10011484D02*
X13936491Y-10001960D01*
X13936491Y-10001960D02*
X13926967Y-9992436D01*
X13926967Y-9992436D02*
X13917443Y-9973389D01*
X13917443Y-9973389D02*
X13907920Y-9935293D01*
X13907920Y-9935293D02*
X13907920Y-9887674D01*
X13907920Y-9887674D02*
X13917443Y-9849579D01*
X13917443Y-9849579D02*
X13926967Y-9830531D01*
X13926967Y-9830531D02*
X13936491Y-9821008D01*
X13936491Y-9821008D02*
X13955539Y-9811484D01*
X14107920Y-10011484D02*
X14107920Y-9878150D01*
X14107920Y-9897198D02*
X14117443Y-9887674D01*
X14117443Y-9887674D02*
X14136491Y-9878150D01*
X14136491Y-9878150D02*
X14165063Y-9878150D01*
X14165063Y-9878150D02*
X14184110Y-9887674D01*
X14184110Y-9887674D02*
X14193634Y-9906722D01*
X14193634Y-9906722D02*
X14193634Y-10011484D01*
X14193634Y-9906722D02*
X14203158Y-9887674D01*
X14203158Y-9887674D02*
X14222205Y-9878150D01*
X14222205Y-9878150D02*
X14250777Y-9878150D01*
X14250777Y-9878150D02*
X14269824Y-9887674D01*
X14269824Y-9887674D02*
X14279348Y-9906722D01*
X14279348Y-9906722D02*
X14279348Y-10011484D01*
X14374586Y-10011484D02*
X14374586Y-9878150D01*
X14374586Y-9897198D02*
X14384110Y-9887674D01*
X14384110Y-9887674D02*
X14403158Y-9878150D01*
X14403158Y-9878150D02*
X14431729Y-9878150D01*
X14431729Y-9878150D02*
X14450777Y-9887674D01*
X14450777Y-9887674D02*
X14460301Y-9906722D01*
X14460301Y-9906722D02*
X14460301Y-10011484D01*
X14460301Y-9906722D02*
X14469824Y-9887674D01*
X14469824Y-9887674D02*
X14488872Y-9878150D01*
X14488872Y-9878150D02*
X14517443Y-9878150D01*
X14517443Y-9878150D02*
X14536491Y-9887674D01*
X14536491Y-9887674D02*
X14546015Y-9906722D01*
X14546015Y-9906722D02*
X14546015Y-10011484D01*
X14936491Y-9801960D02*
X14765063Y-10059103D01*
X15193634Y-9811484D02*
X15212682Y-9811484D01*
X15212682Y-9811484D02*
X15231729Y-9821008D01*
X15231729Y-9821008D02*
X15241253Y-9830531D01*
X15241253Y-9830531D02*
X15250777Y-9849579D01*
X15250777Y-9849579D02*
X15260301Y-9887674D01*
X15260301Y-9887674D02*
X15260301Y-9935293D01*
X15260301Y-9935293D02*
X15250777Y-9973389D01*
X15250777Y-9973389D02*
X15241253Y-9992436D01*
X15241253Y-9992436D02*
X15231729Y-10001960D01*
X15231729Y-10001960D02*
X15212682Y-10011484D01*
X15212682Y-10011484D02*
X15193634Y-10011484D01*
X15193634Y-10011484D02*
X15174586Y-10001960D01*
X15174586Y-10001960D02*
X15165063Y-9992436D01*
X15165063Y-9992436D02*
X15155539Y-9973389D01*
X15155539Y-9973389D02*
X15146015Y-9935293D01*
X15146015Y-9935293D02*
X15146015Y-9887674D01*
X15146015Y-9887674D02*
X15155539Y-9849579D01*
X15155539Y-9849579D02*
X15165063Y-9830531D01*
X15165063Y-9830531D02*
X15174586Y-9821008D01*
X15174586Y-9821008D02*
X15193634Y-9811484D01*
X15346015Y-9992436D02*
X15355539Y-10001960D01*
X15355539Y-10001960D02*
X15346015Y-10011484D01*
X15346015Y-10011484D02*
X15336491Y-10001960D01*
X15336491Y-10001960D02*
X15346015Y-9992436D01*
X15346015Y-9992436D02*
X15346015Y-10011484D01*
X15546015Y-10011484D02*
X15431729Y-10011484D01*
X15488872Y-10011484D02*
X15488872Y-9811484D01*
X15488872Y-9811484D02*
X15469825Y-9840055D01*
X15469825Y-9840055D02*
X15450777Y-9859103D01*
X15450777Y-9859103D02*
X15431729Y-9868627D01*
X15736491Y-10011484D02*
X15622206Y-10011484D01*
X15679348Y-10011484D02*
X15679348Y-9811484D01*
X15679348Y-9811484D02*
X15660301Y-9840055D01*
X15660301Y-9840055D02*
X15641253Y-9859103D01*
X15641253Y-9859103D02*
X15622206Y-9868627D01*
X15850777Y-9897198D02*
X15831729Y-9887674D01*
X15831729Y-9887674D02*
X15822206Y-9878150D01*
X15822206Y-9878150D02*
X15812682Y-9859103D01*
X15812682Y-9859103D02*
X15812682Y-9849579D01*
X15812682Y-9849579D02*
X15822206Y-9830531D01*
X15822206Y-9830531D02*
X15831729Y-9821008D01*
X15831729Y-9821008D02*
X15850777Y-9811484D01*
X15850777Y-9811484D02*
X15888872Y-9811484D01*
X15888872Y-9811484D02*
X15907920Y-9821008D01*
X15907920Y-9821008D02*
X15917444Y-9830531D01*
X15917444Y-9830531D02*
X15926967Y-9849579D01*
X15926967Y-9849579D02*
X15926967Y-9859103D01*
X15926967Y-9859103D02*
X15917444Y-9878150D01*
X15917444Y-9878150D02*
X15907920Y-9887674D01*
X15907920Y-9887674D02*
X15888872Y-9897198D01*
X15888872Y-9897198D02*
X15850777Y-9897198D01*
X15850777Y-9897198D02*
X15831729Y-9906722D01*
X15831729Y-9906722D02*
X15822206Y-9916246D01*
X15822206Y-9916246D02*
X15812682Y-9935293D01*
X15812682Y-9935293D02*
X15812682Y-9973389D01*
X15812682Y-9973389D02*
X15822206Y-9992436D01*
X15822206Y-9992436D02*
X15831729Y-10001960D01*
X15831729Y-10001960D02*
X15850777Y-10011484D01*
X15850777Y-10011484D02*
X15888872Y-10011484D01*
X15888872Y-10011484D02*
X15907920Y-10001960D01*
X15907920Y-10001960D02*
X15917444Y-9992436D01*
X15917444Y-9992436D02*
X15926967Y-9973389D01*
X15926967Y-9973389D02*
X15926967Y-9935293D01*
X15926967Y-9935293D02*
X15917444Y-9916246D01*
X15917444Y-9916246D02*
X15907920Y-9906722D01*
X15907920Y-9906722D02*
X15888872Y-9897198D01*
X16117444Y-10011484D02*
X16003158Y-10011484D01*
X16060301Y-10011484D02*
X16060301Y-9811484D01*
X16060301Y-9811484D02*
X16041253Y-9840055D01*
X16041253Y-9840055D02*
X16022206Y-9859103D01*
X16022206Y-9859103D02*
X16003158Y-9868627D01*
X16193634Y-9811484D02*
X16193634Y-9849579D01*
X16269825Y-9811484D02*
X16269825Y-9849579D01*
X16565063Y-10087674D02*
X16555539Y-10078150D01*
X16555539Y-10078150D02*
X16536491Y-10049579D01*
X16536491Y-10049579D02*
X16526968Y-10030531D01*
X16526968Y-10030531D02*
X16517444Y-10001960D01*
X16517444Y-10001960D02*
X16507920Y-9954341D01*
X16507920Y-9954341D02*
X16507920Y-9916246D01*
X16507920Y-9916246D02*
X16517444Y-9868627D01*
X16517444Y-9868627D02*
X16526968Y-9840055D01*
X16526968Y-9840055D02*
X16536491Y-9821008D01*
X16536491Y-9821008D02*
X16555539Y-9792436D01*
X16555539Y-9792436D02*
X16565063Y-9782912D01*
X16746015Y-10011484D02*
X16631729Y-10011484D01*
X16688872Y-10011484D02*
X16688872Y-9811484D01*
X16688872Y-9811484D02*
X16669825Y-9840055D01*
X16669825Y-9840055D02*
X16650777Y-9859103D01*
X16650777Y-9859103D02*
X16631729Y-9868627D01*
X16984111Y-10011484D02*
X16984111Y-9811484D01*
X17069825Y-10011484D02*
X17069825Y-9906722D01*
X17069825Y-9906722D02*
X17060301Y-9887674D01*
X17060301Y-9887674D02*
X17041253Y-9878150D01*
X17041253Y-9878150D02*
X17012682Y-9878150D01*
X17012682Y-9878150D02*
X16993634Y-9887674D01*
X16993634Y-9887674D02*
X16984111Y-9897198D01*
X17193634Y-10011484D02*
X17174587Y-10001960D01*
X17174587Y-10001960D02*
X17165063Y-9992436D01*
X17165063Y-9992436D02*
X17155539Y-9973389D01*
X17155539Y-9973389D02*
X17155539Y-9916246D01*
X17155539Y-9916246D02*
X17165063Y-9897198D01*
X17165063Y-9897198D02*
X17174587Y-9887674D01*
X17174587Y-9887674D02*
X17193634Y-9878150D01*
X17193634Y-9878150D02*
X17222206Y-9878150D01*
X17222206Y-9878150D02*
X17241253Y-9887674D01*
X17241253Y-9887674D02*
X17250777Y-9897198D01*
X17250777Y-9897198D02*
X17260301Y-9916246D01*
X17260301Y-9916246D02*
X17260301Y-9973389D01*
X17260301Y-9973389D02*
X17250777Y-9992436D01*
X17250777Y-9992436D02*
X17241253Y-10001960D01*
X17241253Y-10001960D02*
X17222206Y-10011484D01*
X17222206Y-10011484D02*
X17193634Y-10011484D01*
X17374587Y-10011484D02*
X17355539Y-10001960D01*
X17355539Y-10001960D02*
X17346015Y-9982912D01*
X17346015Y-9982912D02*
X17346015Y-9811484D01*
X17526968Y-10001960D02*
X17507920Y-10011484D01*
X17507920Y-10011484D02*
X17469825Y-10011484D01*
X17469825Y-10011484D02*
X17450777Y-10001960D01*
X17450777Y-10001960D02*
X17441253Y-9982912D01*
X17441253Y-9982912D02*
X17441253Y-9906722D01*
X17441253Y-9906722D02*
X17450777Y-9887674D01*
X17450777Y-9887674D02*
X17469825Y-9878150D01*
X17469825Y-9878150D02*
X17507920Y-9878150D01*
X17507920Y-9878150D02*
X17526968Y-9887674D01*
X17526968Y-9887674D02*
X17536492Y-9906722D01*
X17536492Y-9906722D02*
X17536492Y-9925770D01*
X17536492Y-9925770D02*
X17441253Y-9944817D01*
X17603158Y-10087674D02*
X17612682Y-10078150D01*
X17612682Y-10078150D02*
X17631730Y-10049579D01*
X17631730Y-10049579D02*
X17641253Y-10030531D01*
X17641253Y-10030531D02*
X17650777Y-10001960D01*
X17650777Y-10001960D02*
X17660301Y-9954341D01*
X17660301Y-9954341D02*
X17660301Y-9916246D01*
X17660301Y-9916246D02*
X17650777Y-9868627D01*
X17650777Y-9868627D02*
X17641253Y-9840055D01*
X17641253Y-9840055D02*
X17631730Y-9821008D01*
X17631730Y-9821008D02*
X17612682Y-9792436D01*
X17612682Y-9792436D02*
X17603158Y-9782912D01*
X17965063Y-10087674D02*
X17955539Y-10078150D01*
X17955539Y-10078150D02*
X17936492Y-10049579D01*
X17936492Y-10049579D02*
X17926968Y-10030531D01*
X17926968Y-10030531D02*
X17917444Y-10001960D01*
X17917444Y-10001960D02*
X17907920Y-9954341D01*
X17907920Y-9954341D02*
X17907920Y-9916246D01*
X17907920Y-9916246D02*
X17917444Y-9868627D01*
X17917444Y-9868627D02*
X17926968Y-9840055D01*
X17926968Y-9840055D02*
X17936492Y-9821008D01*
X17936492Y-9821008D02*
X17955539Y-9792436D01*
X17955539Y-9792436D02*
X17965063Y-9782912D01*
X18041253Y-9878150D02*
X18041253Y-10011484D01*
X18041253Y-9897198D02*
X18050777Y-9887674D01*
X18050777Y-9887674D02*
X18069825Y-9878150D01*
X18069825Y-9878150D02*
X18098396Y-9878150D01*
X18098396Y-9878150D02*
X18117444Y-9887674D01*
X18117444Y-9887674D02*
X18126968Y-9906722D01*
X18126968Y-9906722D02*
X18126968Y-10011484D01*
X18250777Y-10011484D02*
X18231730Y-10001960D01*
X18231730Y-10001960D02*
X18222206Y-9992436D01*
X18222206Y-9992436D02*
X18212682Y-9973389D01*
X18212682Y-9973389D02*
X18212682Y-9916246D01*
X18212682Y-9916246D02*
X18222206Y-9897198D01*
X18222206Y-9897198D02*
X18231730Y-9887674D01*
X18231730Y-9887674D02*
X18250777Y-9878150D01*
X18250777Y-9878150D02*
X18279349Y-9878150D01*
X18279349Y-9878150D02*
X18298396Y-9887674D01*
X18298396Y-9887674D02*
X18307920Y-9897198D01*
X18307920Y-9897198D02*
X18317444Y-9916246D01*
X18317444Y-9916246D02*
X18317444Y-9973389D01*
X18317444Y-9973389D02*
X18307920Y-9992436D01*
X18307920Y-9992436D02*
X18298396Y-10001960D01*
X18298396Y-10001960D02*
X18279349Y-10011484D01*
X18279349Y-10011484D02*
X18250777Y-10011484D01*
X18374587Y-9878150D02*
X18450777Y-9878150D01*
X18403158Y-9811484D02*
X18403158Y-9982912D01*
X18403158Y-9982912D02*
X18412682Y-10001960D01*
X18412682Y-10001960D02*
X18431730Y-10011484D01*
X18431730Y-10011484D02*
X18450777Y-10011484D01*
X18669825Y-9878150D02*
X18669825Y-10078150D01*
X18669825Y-9887674D02*
X18688873Y-9878150D01*
X18688873Y-9878150D02*
X18726968Y-9878150D01*
X18726968Y-9878150D02*
X18746015Y-9887674D01*
X18746015Y-9887674D02*
X18755539Y-9897198D01*
X18755539Y-9897198D02*
X18765063Y-9916246D01*
X18765063Y-9916246D02*
X18765063Y-9973389D01*
X18765063Y-9973389D02*
X18755539Y-9992436D01*
X18755539Y-9992436D02*
X18746015Y-10001960D01*
X18746015Y-10001960D02*
X18726968Y-10011484D01*
X18726968Y-10011484D02*
X18688873Y-10011484D01*
X18688873Y-10011484D02*
X18669825Y-10001960D01*
X18879349Y-10011484D02*
X18860301Y-10001960D01*
X18860301Y-10001960D02*
X18850777Y-9982912D01*
X18850777Y-9982912D02*
X18850777Y-9811484D01*
X19041254Y-10011484D02*
X19041254Y-9906722D01*
X19041254Y-9906722D02*
X19031730Y-9887674D01*
X19031730Y-9887674D02*
X19012682Y-9878150D01*
X19012682Y-9878150D02*
X18974587Y-9878150D01*
X18974587Y-9878150D02*
X18955539Y-9887674D01*
X19041254Y-10001960D02*
X19022206Y-10011484D01*
X19022206Y-10011484D02*
X18974587Y-10011484D01*
X18974587Y-10011484D02*
X18955539Y-10001960D01*
X18955539Y-10001960D02*
X18946015Y-9982912D01*
X18946015Y-9982912D02*
X18946015Y-9963865D01*
X18946015Y-9963865D02*
X18955539Y-9944817D01*
X18955539Y-9944817D02*
X18974587Y-9935293D01*
X18974587Y-9935293D02*
X19022206Y-9935293D01*
X19022206Y-9935293D02*
X19041254Y-9925770D01*
X19107920Y-9878150D02*
X19184111Y-9878150D01*
X19136492Y-9811484D02*
X19136492Y-9982912D01*
X19136492Y-9982912D02*
X19146015Y-10001960D01*
X19146015Y-10001960D02*
X19165063Y-10011484D01*
X19165063Y-10011484D02*
X19184111Y-10011484D01*
X19326968Y-10001960D02*
X19307920Y-10011484D01*
X19307920Y-10011484D02*
X19269825Y-10011484D01*
X19269825Y-10011484D02*
X19250777Y-10001960D01*
X19250777Y-10001960D02*
X19241254Y-9982912D01*
X19241254Y-9982912D02*
X19241254Y-9906722D01*
X19241254Y-9906722D02*
X19250777Y-9887674D01*
X19250777Y-9887674D02*
X19269825Y-9878150D01*
X19269825Y-9878150D02*
X19307920Y-9878150D01*
X19307920Y-9878150D02*
X19326968Y-9887674D01*
X19326968Y-9887674D02*
X19336492Y-9906722D01*
X19336492Y-9906722D02*
X19336492Y-9925770D01*
X19336492Y-9925770D02*
X19241254Y-9944817D01*
X19507920Y-10011484D02*
X19507920Y-9811484D01*
X19507920Y-10001960D02*
X19488873Y-10011484D01*
X19488873Y-10011484D02*
X19450777Y-10011484D01*
X19450777Y-10011484D02*
X19431730Y-10001960D01*
X19431730Y-10001960D02*
X19422206Y-9992436D01*
X19422206Y-9992436D02*
X19412682Y-9973389D01*
X19412682Y-9973389D02*
X19412682Y-9916246D01*
X19412682Y-9916246D02*
X19422206Y-9897198D01*
X19422206Y-9897198D02*
X19431730Y-9887674D01*
X19431730Y-9887674D02*
X19450777Y-9878150D01*
X19450777Y-9878150D02*
X19488873Y-9878150D01*
X19488873Y-9878150D02*
X19507920Y-9887674D01*
X19584111Y-10087674D02*
X19593635Y-10078150D01*
X19593635Y-10078150D02*
X19612682Y-10049579D01*
X19612682Y-10049579D02*
X19622206Y-10030531D01*
X19622206Y-10030531D02*
X19631730Y-10001960D01*
X19631730Y-10001960D02*
X19641254Y-9954341D01*
X19641254Y-9954341D02*
X19641254Y-9916246D01*
X19641254Y-9916246D02*
X19631730Y-9868627D01*
X19631730Y-9868627D02*
X19622206Y-9840055D01*
X19622206Y-9840055D02*
X19612682Y-9821008D01*
X19612682Y-9821008D02*
X19593635Y-9792436D01*
X19593635Y-9792436D02*
X19584111Y-9782912D01*
M02*
