%TF.GenerationSoftware,KiCad,Pcbnew,9.0.2*%
%TF.CreationDate,2026-03-24T02:05:32-04:00*%
%TF.ProjectId,FBT,4642542e-6b69-4636-9164-5f7063625858,rev?*%
%TF.SameCoordinates,Original*%
%TF.FileFunction,Soldermask,Top*%
%TF.FilePolarity,Negative*%
%FSLAX46Y46*%
G04 Gerber Fmt 4.6, Leading zero omitted, Abs format (unit mm)*
G04 Created by KiCad (PCBNEW 9.0.2) date 2026-03-24 02:05:32*
%MOMM*%
%LPD*%
G01*
G04 APERTURE LIST*
%ADD10R,1.500000X1.050000*%
%ADD11O,1.500000X1.050000*%
%ADD12R,1.700000X1.700000*%
%ADD13C,2.100000*%
%ADD14C,1.400000*%
%ADD15C,1.524000*%
%ADD16O,1.600000X2.000000*%
%ADD17C,1.600000*%
%ADD18C,1.700000*%
G04 APERTURE END LIST*
D10*
%TO.C,U1*%
X117602000Y-80772000D03*
D11*
X117602000Y-79502000D03*
X117602000Y-78232000D03*
%TD*%
D12*
%TO.C,BT-2*%
X106553000Y-25908000D03*
%TD*%
D13*
%TO.C,SW1*%
X109700000Y-87600000D03*
X117900000Y-87600000D03*
D14*
X111800000Y-87600000D03*
X113800000Y-87600000D03*
X115800000Y-87600000D03*
%TD*%
D15*
%TO.C,IMU1*%
X124841000Y-50292000D03*
X122301000Y-50292000D03*
X119761000Y-50292000D03*
X117221000Y-50292000D03*
X114681000Y-50292000D03*
X112141000Y-50292000D03*
X109601000Y-50292000D03*
X112141000Y-60452000D03*
X114681000Y-60452000D03*
X117221000Y-60452000D03*
X119761000Y-60452000D03*
X122301000Y-60452000D03*
%TD*%
D16*
%TO.C,J1*%
X120494000Y-79700000D03*
X120494000Y-83700000D03*
X120494000Y-86700000D03*
X124894000Y-78700000D03*
%TD*%
D17*
%TO.C,R2*%
X106553000Y-38862000D03*
X106553000Y-46482000D03*
%TD*%
D15*
%TO.C,CHGR2*%
X122645980Y-75456462D03*
X122645980Y-63256462D03*
X108745980Y-63356462D03*
X108745980Y-65856462D03*
X108745980Y-72856462D03*
X108745980Y-75356462D03*
%TD*%
%TO.C,CHGR1*%
X119250000Y-74550000D03*
X119250000Y-64150000D03*
X110050000Y-64250000D03*
X110050000Y-66750000D03*
X110050000Y-71950000D03*
X110050000Y-74450000D03*
%TD*%
D12*
%TO.C,BT1*%
X107188000Y-84074000D03*
D18*
X107188000Y-81534000D03*
%TD*%
D17*
%TO.C,R1*%
X106553000Y-29083000D03*
X106553000Y-36703000D03*
%TD*%
D15*
%TO.C,MCU1*%
X109514000Y-25785000D03*
X109514000Y-28325000D03*
X109514000Y-30865000D03*
X109514000Y-33405000D03*
X109514000Y-35945000D03*
X109514000Y-38485000D03*
X109514000Y-41025000D03*
X109474000Y-43565000D03*
X124714000Y-43565000D03*
X124714000Y-41025000D03*
X124714000Y-38485000D03*
X124714000Y-35945000D03*
X124714000Y-33405000D03*
X124714000Y-30865000D03*
X124714000Y-28325000D03*
X124714000Y-25785000D03*
%TD*%
D17*
%TO.C,C1*%
X112014000Y-78232000D03*
X107014000Y-78232000D03*
%TD*%
D15*
%TO.C,GY1*%
X107036656Y-60457212D03*
X107036656Y-57917212D03*
X107036656Y-55377212D03*
X107036656Y-52837212D03*
X107036656Y-50297212D03*
%TD*%
M02*
