%TF.GenerationSoftware,KiCad,Pcbnew,9.0.2*%
%TF.CreationDate,2026-03-24T02:05:32-04:00*%
%TF.ProjectId,FBT,4642542e-6b69-4636-9164-5f7063625858,rev?*%
%TF.SameCoordinates,Original*%
%TF.FileFunction,Copper,L2,Bot*%
%TF.FilePolarity,Positive*%
%FSLAX46Y46*%
G04 Gerber Fmt 4.6, Leading zero omitted, Abs format (unit mm)*
G04 Created by KiCad (PCBNEW 9.0.2) date 2026-03-24 02:05:32*
%MOMM*%
%LPD*%
G01*
G04 APERTURE LIST*
G04 Aperture macros list*
%AMFreePoly0*
4,1,23,0.500000,-0.750000,0.000000,-0.750000,0.000000,-0.745722,-0.065263,-0.745722,-0.191342,-0.711940,-0.304381,-0.646677,-0.396677,-0.554381,-0.461940,-0.441342,-0.495722,-0.315263,-0.495722,-0.250000,-0.500000,-0.250000,-0.500000,0.250000,-0.495722,0.250000,-0.495722,0.315263,-0.461940,0.441342,-0.396677,0.554381,-0.304381,0.646677,-0.191342,0.711940,-0.065263,0.745722,0.000000,0.745722,
0.000000,0.750000,0.500000,0.750000,0.500000,-0.750000,0.500000,-0.750000,$1*%
%AMFreePoly1*
4,1,23,0.000000,0.745722,0.065263,0.745722,0.191342,0.711940,0.304381,0.646677,0.396677,0.554381,0.461940,0.441342,0.495722,0.315263,0.495722,0.250000,0.500000,0.250000,0.500000,-0.250000,0.495722,-0.250000,0.495722,-0.315263,0.461940,-0.441342,0.396677,-0.554381,0.304381,-0.646677,0.191342,-0.711940,0.065263,-0.745722,0.000000,-0.745722,0.000000,-0.750000,-0.500000,-0.750000,
-0.500000,0.750000,0.000000,0.750000,0.000000,0.745722,0.000000,0.745722,$1*%
%AMFreePoly2*
4,1,23,0.550000,-0.750000,0.000000,-0.750000,0.000000,-0.745722,-0.065263,-0.745722,-0.191342,-0.711940,-0.304381,-0.646677,-0.396677,-0.554381,-0.461940,-0.441342,-0.495722,-0.315263,-0.495722,-0.250000,-0.500000,-0.250000,-0.500000,0.250000,-0.495722,0.250000,-0.495722,0.315263,-0.461940,0.441342,-0.396677,0.554381,-0.304381,0.646677,-0.191342,0.711940,-0.065263,0.745722,0.000000,0.745722,
0.000000,0.750000,0.550000,0.750000,0.550000,-0.750000,0.550000,-0.750000,$1*%
%AMFreePoly3*
4,1,23,0.000000,0.745722,0.065263,0.745722,0.191342,0.711940,0.304381,0.646677,0.396677,0.554381,0.461940,0.441342,0.495722,0.315263,0.495722,0.250000,0.500000,0.250000,0.500000,-0.250000,0.495722,-0.250000,0.495722,-0.315263,0.461940,-0.441342,0.396677,-0.554381,0.304381,-0.646677,0.191342,-0.711940,0.065263,-0.745722,0.000000,-0.745722,0.000000,-0.750000,-0.550000,-0.750000,
-0.550000,0.750000,0.000000,0.750000,0.000000,0.745722,0.000000,0.745722,$1*%
G04 Aperture macros list end*
%TA.AperFunction,EtchedComponent*%
%ADD10C,0.000000*%
%TD*%
%TA.AperFunction,ComponentPad*%
%ADD11R,1.500000X1.050000*%
%TD*%
%TA.AperFunction,ComponentPad*%
%ADD12O,1.500000X1.050000*%
%TD*%
%TA.AperFunction,ComponentPad*%
%ADD13R,1.700000X1.700000*%
%TD*%
%TA.AperFunction,ComponentPad*%
%ADD14C,2.100000*%
%TD*%
%TA.AperFunction,ComponentPad*%
%ADD15C,1.400000*%
%TD*%
%TA.AperFunction,ComponentPad*%
%ADD16C,1.524000*%
%TD*%
%TA.AperFunction,ComponentPad*%
%ADD17O,1.600000X2.000000*%
%TD*%
%TA.AperFunction,ComponentPad*%
%ADD18C,1.600000*%
%TD*%
%TA.AperFunction,ComponentPad*%
%ADD19C,1.700000*%
%TD*%
%TA.AperFunction,SMDPad,CuDef*%
%ADD20FreePoly0,90.000000*%
%TD*%
%TA.AperFunction,SMDPad,CuDef*%
%ADD21FreePoly1,90.000000*%
%TD*%
%TA.AperFunction,SMDPad,CuDef*%
%ADD22FreePoly2,270.000000*%
%TD*%
%TA.AperFunction,SMDPad,CuDef*%
%ADD23R,1.500000X1.000000*%
%TD*%
%TA.AperFunction,SMDPad,CuDef*%
%ADD24FreePoly3,270.000000*%
%TD*%
%TA.AperFunction,SMDPad,CuDef*%
%ADD25FreePoly2,90.000000*%
%TD*%
%TA.AperFunction,SMDPad,CuDef*%
%ADD26FreePoly3,90.000000*%
%TD*%
%TA.AperFunction,SMDPad,CuDef*%
%ADD27FreePoly0,270.000000*%
%TD*%
%TA.AperFunction,SMDPad,CuDef*%
%ADD28FreePoly1,270.000000*%
%TD*%
%TA.AperFunction,ViaPad*%
%ADD29C,0.600000*%
%TD*%
%TA.AperFunction,Conductor*%
%ADD30C,0.400000*%
%TD*%
G04 APERTURE END LIST*
D10*
%TA.AperFunction,EtchedComponent*%
%TO.C,JP6*%
G36*
X118664000Y-68942000D02*
G01*
X118064000Y-68942000D01*
X118064000Y-68442000D01*
X118664000Y-68442000D01*
X118664000Y-68942000D01*
G37*
%TD.AperFunction*%
%TA.AperFunction,EtchedComponent*%
%TO.C,JP4*%
G36*
X121192000Y-70242000D02*
G01*
X120592000Y-70242000D01*
X120592000Y-69742000D01*
X121192000Y-69742000D01*
X121192000Y-70242000D01*
G37*
%TD.AperFunction*%
%TA.AperFunction,EtchedComponent*%
%TO.C,JP3*%
G36*
X113584000Y-68942000D02*
G01*
X112984000Y-68942000D01*
X112984000Y-68442000D01*
X113584000Y-68442000D01*
X113584000Y-68942000D01*
G37*
%TD.AperFunction*%
%TA.AperFunction,EtchedComponent*%
%TO.C,JP5*%
G36*
X116124000Y-70242000D02*
G01*
X115524000Y-70242000D01*
X115524000Y-69742000D01*
X116124000Y-69742000D01*
X116124000Y-70242000D01*
G37*
%TD.AperFunction*%
%TD*%
D11*
%TO.P,U1,1,GND*%
%TO.N,/ldo_gnd*%
X117602000Y-80772000D03*
D12*
%TO.P,U1,2,VIN*%
%TO.N,/vin*%
X117602000Y-79502000D03*
%TO.P,U1,3,VOUT*%
%TO.N,/vout*%
X117602000Y-78232000D03*
%TD*%
D13*
%TO.P,BT-2,1,Pin_1*%
%TO.N,GND*%
X106553000Y-25908000D03*
%TD*%
D14*
%TO.P,SW1,*%
%TO.N,*%
X109700000Y-87600000D03*
X117900000Y-87600000D03*
D15*
%TO.P,SW1,1,A*%
%TO.N,unconnected-(SW1-A-Pad1)*%
X111800000Y-87600000D03*
%TO.P,SW1,2,B*%
%TO.N,+BATT*%
X113800000Y-87600000D03*
%TO.P,SW1,3,C*%
%TO.N,BATT_SWITCHED*%
X115800000Y-87600000D03*
%TD*%
D16*
%TO.P,IMU1,1,VIN*%
%TO.N,Net-(IMU1-VIN)*%
X124841000Y-50292000D03*
%TO.P,IMU1,2,3v3*%
%TO.N,ESP32_3V3*%
X122301000Y-50292000D03*
%TO.P,IMU1,3,GND*%
%TO.N,GND*%
X119761000Y-50292000D03*
%TO.P,IMU1,4,SCL*%
%TO.N,SCL_1*%
X117221000Y-50292000D03*
%TO.P,IMU1,5,SDA*%
%TO.N,SDA_1*%
X114681000Y-50292000D03*
%TO.P,IMU1,6,CS*%
%TO.N,unconnected-(IMU1-CS-Pad6)*%
X112141000Y-50292000D03*
%TO.P,IMU1,7,SAO*%
%TO.N,GND*%
X109601000Y-50292000D03*
%TO.P,IMU1,8,SDX*%
%TO.N,Net-(GY1-SDA)*%
X112141000Y-60452000D03*
%TO.P,IMU1,9,SCX*%
%TO.N,Net-(GY1-SCL)*%
X114681000Y-60452000D03*
%TO.P,IMU1,10,INT1*%
%TO.N,unconnected-(IMU1-INT1-Pad10)*%
X117221000Y-60452000D03*
%TO.P,IMU1,11,INT2*%
%TO.N,unconnected-(IMU1-INT2-Pad11)*%
X119761000Y-60452000D03*
%TO.P,IMU1,12,OCS*%
%TO.N,unconnected-(IMU1-OCS-Pad12)*%
X122301000Y-60452000D03*
%TD*%
D17*
%TO.P,J1,R1*%
%TO.N,SDA_1*%
X120494000Y-79700000D03*
%TO.P,J1,R2*%
%TO.N,SCL_1*%
X120494000Y-83700000D03*
%TO.P,J1,S*%
%TO.N,GND*%
X120494000Y-86700000D03*
%TO.P,J1,T*%
%TO.N,ESP32_3V3*%
X124894000Y-78700000D03*
%TD*%
D18*
%TO.P,R2,1*%
%TO.N,BATTERY_READER*%
X106553000Y-38862000D03*
%TO.P,R2,2*%
%TO.N,BATT_SWITCHED*%
X106553000Y-46482000D03*
%TD*%
D16*
%TO.P,CHGR2,1,5_VIN*%
%TO.N,Net-(CHGR1-5_VIN)*%
X122645980Y-75456462D03*
%TO.P,CHGR2,2,GND*%
%TO.N,GND*%
X122645980Y-63256462D03*
%TO.P,CHGR2,3,2A_BAT_OUT-*%
%TO.N,unconnected-(CHGR2-2A_BAT_OUT--Pad3)*%
X108745980Y-63356462D03*
%TO.P,CHGR2,4,BAT-*%
%TO.N,GND*%
X108745980Y-65856462D03*
%TO.P,CHGR2,5,BAT+*%
%TO.N,+BATT*%
X108745980Y-72856462D03*
%TO.P,CHGR2,6,2A_BAT_OUT+*%
%TO.N,unconnected-(CHGR2-2A_BAT_OUT+-Pad6)*%
X108745980Y-75356462D03*
%TD*%
%TO.P,CHGR1,1,5_VIN*%
%TO.N,Net-(CHGR1-5_VIN)*%
X119250000Y-74550000D03*
%TO.P,CHGR1,2,GND*%
%TO.N,GND*%
X119250000Y-64150000D03*
%TO.P,CHGR1,3,2A_BAT_OUT-*%
%TO.N,unconnected-(CHGR1-2A_BAT_OUT--Pad3)*%
X110050000Y-64250000D03*
%TO.P,CHGR1,4,BAT-*%
%TO.N,GND*%
X110050000Y-66750000D03*
%TO.P,CHGR1,5,BAT+*%
%TO.N,+BATT*%
X110050000Y-71950000D03*
%TO.P,CHGR1,6,2A_BAT_OUT+*%
%TO.N,unconnected-(CHGR1-2A_BAT_OUT+-Pad6)*%
X110050000Y-74450000D03*
%TD*%
D13*
%TO.P,BT1,1,+*%
%TO.N,+BATT*%
X107188000Y-84074000D03*
D19*
%TO.P,BT1,2,-*%
%TO.N,GND*%
X107188000Y-81534000D03*
%TD*%
D18*
%TO.P,R1,1*%
%TO.N,GND*%
X106553000Y-29083000D03*
%TO.P,R1,2*%
%TO.N,BATTERY_READER*%
X106553000Y-36703000D03*
%TD*%
D16*
%TO.P,MCU1,1,D5*%
%TO.N,unconnected-(MCU1-D5-Pad1)*%
X109514000Y-25785000D03*
%TO.P,MCU1,2,D6*%
%TO.N,unconnected-(MCU1-D6-Pad2)*%
X109514000Y-28325000D03*
%TO.P,MCU1,3,D7*%
%TO.N,unconnected-(MCU1-D7-Pad3)*%
X109514000Y-30865000D03*
%TO.P,MCU1,4,D8*%
%TO.N,unconnected-(MCU1-D8-Pad4)*%
X109514000Y-33405000D03*
%TO.P,MCU1,5,D9*%
%TO.N,unconnected-(MCU1-D9-Pad5)*%
X109514000Y-35945000D03*
%TO.P,MCU1,6,D10*%
%TO.N,unconnected-(MCU1-D10-Pad6)*%
X109514000Y-38485000D03*
%TO.P,MCU1,7,D20/RX*%
%TO.N,unconnected-(MCU1-D20{slash}RX-Pad7)*%
X109514000Y-41025000D03*
%TO.P,MCU1,8,D21/TX*%
%TO.N,unconnected-(MCU1-D21{slash}TX-Pad8)*%
X109474000Y-43565000D03*
%TO.P,MCU1,9,D0*%
%TO.N,unconnected-(MCU1-D0-Pad9)*%
X124714000Y-43565000D03*
%TO.P,MCU1,10,D1*%
%TO.N,unconnected-(MCU1-D1-Pad10)*%
X124714000Y-41025000D03*
%TO.P,MCU1,11,D2*%
%TO.N,SDA_1*%
X124714000Y-38485000D03*
%TO.P,MCU1,12,D3*%
%TO.N,SCL_1*%
X124714000Y-35945000D03*
%TO.P,MCU1,13,D4*%
%TO.N,BATTERY_READER*%
X124714000Y-33405000D03*
%TO.P,MCU1,14,3v3*%
%TO.N,ESP32_3V3*%
X124714000Y-30865000D03*
%TO.P,MCU1,15,Gnd*%
%TO.N,GND*%
X124714000Y-28325000D03*
%TO.P,MCU1,16,5v5*%
%TO.N,ESP32_5V5*%
X124714000Y-25785000D03*
%TD*%
D18*
%TO.P,C1,1*%
%TO.N,ESP32_3V3*%
X112014000Y-78232000D03*
%TO.P,C1,2*%
%TO.N,GND*%
X107014000Y-78232000D03*
%TD*%
D20*
%TO.P,JP2,1,A*%
%TO.N,Net-(CHGR1-5_VIN)*%
X106650000Y-43450000D03*
D21*
%TO.P,JP2,2,B*%
%TO.N,ESP32_5V5*%
X106650000Y-42150000D03*
%TD*%
D22*
%TO.P,JP6,1,A*%
%TO.N,GND*%
X118364000Y-68042000D03*
D23*
%TO.P,JP6,2,C*%
%TO.N,/gnd_mid*%
X118364000Y-69342000D03*
D24*
%TO.P,JP6,3,B*%
%TO.N,ESP32_3V3*%
X118364000Y-70642000D03*
%TD*%
D16*
%TO.P,GY1,1,VIN*%
%TO.N,ESP32_3V3*%
X107036656Y-60457212D03*
%TO.P,GY1,2,GND*%
%TO.N,GND*%
X107036656Y-57917212D03*
%TO.P,GY1,3,SCL*%
%TO.N,Net-(GY1-SCL)*%
X107036656Y-55377212D03*
%TO.P,GY1,4,SDA*%
%TO.N,Net-(GY1-SDA)*%
X107036656Y-52837212D03*
%TO.P,GY1,5,DRDY*%
%TO.N,unconnected-(GY1-DRDY-Pad5)*%
X107036656Y-50297212D03*
%TD*%
D25*
%TO.P,JP4,1,A*%
%TO.N,ESP32_3V3*%
X120892000Y-70642000D03*
D23*
%TO.P,JP4,2,C*%
%TO.N,/vout*%
X120892000Y-69342000D03*
D26*
%TO.P,JP4,3,B*%
%TO.N,GND*%
X120892000Y-68042000D03*
%TD*%
D22*
%TO.P,JP3,1,A*%
%TO.N,/gnd_mid*%
X113284000Y-68042000D03*
D23*
%TO.P,JP3,2,C*%
%TO.N,/ldo_gnd*%
X113284000Y-69342000D03*
D24*
%TO.P,JP3,3,B*%
%TO.N,BATT_SWITCHED*%
X113284000Y-70642000D03*
%TD*%
D27*
%TO.P,JP1,1,A*%
%TO.N,Net-(IMU1-VIN)*%
X124206000Y-68296000D03*
D28*
%TO.P,JP1,2,B*%
%TO.N,BATT_SWITCHED*%
X124206000Y-69596000D03*
%TD*%
D25*
%TO.P,JP5,1,A*%
%TO.N,BATT_SWITCHED*%
X115824000Y-70642000D03*
D23*
%TO.P,JP5,2,C*%
%TO.N,/vin*%
X115824000Y-69342000D03*
D26*
%TO.P,JP5,3,B*%
%TO.N,/gnd_mid*%
X115824000Y-68042000D03*
%TD*%
D29*
%TO.N,SDA_1*%
X119888000Y-61976000D03*
%TO.N,ESP32_3V3*%
X116840000Y-83312000D03*
X124550000Y-48300000D03*
X115062000Y-77470000D03*
%TO.N,SCL_1*%
X121050000Y-61800000D03*
X122500000Y-48200000D03*
%TO.N,GND*%
X107150000Y-34050000D03*
%TO.N,ESP32_5V5*%
X108000000Y-30800000D03*
%TO.N,BATT_SWITCHED*%
X113284000Y-77470000D03*
X108966000Y-61976000D03*
X119380000Y-77724000D03*
%TO.N,Net-(CHGR1-5_VIN)*%
X116840000Y-61976000D03*
%TD*%
D30*
%TO.N,SDA_1*%
X114681000Y-51031000D02*
X114681000Y-50292000D01*
X118500000Y-61200000D02*
X118500000Y-54850000D01*
X118500000Y-54850000D02*
X114681000Y-51031000D01*
X119888000Y-61976000D02*
X119276000Y-61976000D01*
X119276000Y-61976000D02*
X118500000Y-61200000D01*
%TO.N,ESP32_3V3*%
X123785000Y-30865000D02*
X124714000Y-30865000D01*
X115824000Y-76708000D02*
X115824000Y-74168000D01*
X124894000Y-78700000D02*
X124894000Y-82116000D01*
X120892000Y-70642000D02*
X118364000Y-70642000D01*
X124550000Y-45650000D02*
X123000000Y-44100000D01*
X118827000Y-85299000D02*
X116840000Y-83312000D01*
X122558000Y-50292000D02*
X122301000Y-50292000D01*
X123000000Y-44100000D02*
X123000000Y-31650000D01*
X121711000Y-85299000D02*
X118827000Y-85299000D01*
X124894000Y-82116000D02*
X121711000Y-85299000D01*
X123000000Y-31650000D02*
X123785000Y-30865000D01*
X118364000Y-71628000D02*
X118364000Y-70642000D01*
X115062000Y-77470000D02*
X115824000Y-76708000D01*
X115824000Y-74168000D02*
X118364000Y-71628000D01*
X124550000Y-48300000D02*
X122558000Y-50292000D01*
X124550000Y-48300000D02*
X124550000Y-45650000D01*
%TO.N,SCL_1*%
X122500000Y-48200000D02*
X121650000Y-49050000D01*
X121050000Y-61800000D02*
X121050000Y-55300000D01*
X118450000Y-49050000D02*
X117221000Y-50279000D01*
X117221000Y-51471000D02*
X117221000Y-50292000D01*
X121050000Y-55300000D02*
X117221000Y-51471000D01*
X117221000Y-50279000D02*
X117221000Y-50292000D01*
X121650000Y-49050000D02*
X118450000Y-49050000D01*
%TO.N,GND*%
X107188000Y-78406000D02*
X107014000Y-78232000D01*
X107188000Y-81534000D02*
X107188000Y-78406000D01*
X107188000Y-62484000D02*
X107188000Y-64298482D01*
X119052024Y-86700000D02*
X115664024Y-83312000D01*
X107188000Y-64298482D02*
X108745980Y-65856462D01*
X107036656Y-57917212D02*
X108199656Y-59080212D01*
X106426000Y-68176442D02*
X108745980Y-65856462D01*
X106553000Y-25908000D02*
X106553000Y-29083000D01*
X108199656Y-59080212D02*
X108199656Y-61472344D01*
X116130000Y-66750000D02*
X110050000Y-66750000D01*
X108199656Y-61472344D02*
X107188000Y-62484000D01*
X115664024Y-83312000D02*
X110998000Y-83312000D01*
X109220000Y-81534000D02*
X107188000Y-81534000D01*
X120494000Y-86700000D02*
X119052024Y-86700000D01*
X108745980Y-65856462D02*
X109156462Y-65856462D01*
X110998000Y-83312000D02*
X109220000Y-81534000D01*
X106426000Y-77644000D02*
X106426000Y-68176442D01*
X119250000Y-64150000D02*
X121752442Y-64150000D01*
X121752442Y-64150000D02*
X122645980Y-63256462D01*
X119250000Y-64150000D02*
X118730000Y-64150000D01*
X124714000Y-28325000D02*
X123551000Y-27162000D01*
X106553000Y-33453000D02*
X106553000Y-29083000D01*
X120892000Y-68042000D02*
X118364000Y-68042000D01*
X118730000Y-64150000D02*
X116130000Y-66750000D01*
X123551000Y-27162000D02*
X108474000Y-27162000D01*
X107150000Y-34050000D02*
X106553000Y-33453000D01*
X109156462Y-65856462D02*
X110050000Y-66750000D01*
X107014000Y-78232000D02*
X106426000Y-77644000D01*
X108474000Y-27162000D02*
X106553000Y-29083000D01*
%TO.N,+BATT*%
X109143538Y-72856462D02*
X110050000Y-71950000D01*
X108745980Y-72856462D02*
X109143538Y-72856462D01*
X110274000Y-84074000D02*
X107188000Y-84074000D01*
X113800000Y-87600000D02*
X110274000Y-84074000D01*
%TO.N,ESP32_5V5*%
X108000000Y-40800000D02*
X106650000Y-42150000D01*
X108000000Y-30800000D02*
X108000000Y-40800000D01*
%TO.N,BATT_SWITCHED*%
X115824000Y-70642000D02*
X113284000Y-70642000D01*
X122682000Y-77724000D02*
X124206000Y-76200000D01*
X108199656Y-51557656D02*
X113304000Y-56662000D01*
X106553000Y-46482000D02*
X108199656Y-48128656D01*
X113284000Y-74422000D02*
X113284000Y-77470000D01*
X112542000Y-61976000D02*
X108966000Y-61976000D01*
X119380000Y-77724000D02*
X122682000Y-77724000D01*
X113304000Y-56662000D02*
X113304000Y-61214000D01*
X113304000Y-61214000D02*
X112542000Y-61976000D01*
X113284000Y-70642000D02*
X113284000Y-74422000D01*
X124206000Y-76200000D02*
X124206000Y-69596000D01*
X108199656Y-48128656D02*
X108199656Y-51557656D01*
%TO.N,Net-(GY1-SDA)*%
X112141000Y-57941556D02*
X107036656Y-52837212D01*
X112141000Y-60452000D02*
X112141000Y-57941556D01*
%TO.N,Net-(IMU1-VIN)*%
X124841000Y-52197000D02*
X124206000Y-52832000D01*
X124841000Y-50292000D02*
X124841000Y-52197000D01*
X124206000Y-52832000D02*
X124206000Y-68296000D01*
%TO.N,BATTERY_READER*%
X106553000Y-36703000D02*
X106600000Y-36656000D01*
X106553000Y-38862000D02*
X106553000Y-36703000D01*
%TO.N,/gnd_mid*%
X117124000Y-68587000D02*
X116579000Y-68042000D01*
X117408000Y-69342000D02*
X117124000Y-69058000D01*
X113284000Y-68042000D02*
X115824000Y-68042000D01*
X116579000Y-68042000D02*
X115824000Y-68042000D01*
X117124000Y-69058000D02*
X117124000Y-68587000D01*
X118364000Y-69342000D02*
X117408000Y-69342000D01*
%TO.N,/ldo_gnd*%
X109220000Y-80010000D02*
X109220000Y-78740000D01*
X111760000Y-71120000D02*
X111760000Y-69716000D01*
X111760000Y-69716000D02*
X112134000Y-69342000D01*
X112268000Y-71628000D02*
X111760000Y-71120000D01*
X117602000Y-80772000D02*
X109982000Y-80772000D01*
X109220000Y-78740000D02*
X112268000Y-75692000D01*
X112268000Y-75692000D02*
X112268000Y-71628000D01*
X112134000Y-69342000D02*
X113284000Y-69342000D01*
X109982000Y-80772000D02*
X109220000Y-80010000D01*
%TO.N,/vout*%
X122048000Y-71017278D02*
X122048000Y-69724000D01*
X120421278Y-72644000D02*
X122048000Y-71017278D01*
X117602000Y-73914000D02*
X118872000Y-72644000D01*
X118872000Y-72644000D02*
X120421278Y-72644000D01*
X122048000Y-69724000D02*
X121666000Y-69342000D01*
X117602000Y-78232000D02*
X117602000Y-73914000D01*
X121666000Y-69342000D02*
X120892000Y-69342000D01*
%TO.N,/vin*%
X114300000Y-78486000D02*
X114300000Y-73697278D01*
X116980000Y-71017278D02*
X116980000Y-69923828D01*
X117602000Y-79502000D02*
X115316000Y-79502000D01*
X116398172Y-69342000D02*
X115824000Y-69342000D01*
X115316000Y-79502000D02*
X114300000Y-78486000D01*
X116980000Y-69923828D02*
X116398172Y-69342000D01*
X114300000Y-73697278D02*
X116980000Y-71017278D01*
%TO.N,Net-(CHGR1-5_VIN)*%
X110850000Y-48500000D02*
X106650000Y-44300000D01*
X110850000Y-51000000D02*
X110850000Y-48500000D01*
X106650000Y-44300000D02*
X106650000Y-43450000D01*
X120156462Y-75456462D02*
X119250000Y-74550000D01*
X116840000Y-61976000D02*
X116058000Y-61194000D01*
X122645980Y-75456462D02*
X120156462Y-75456462D01*
X116058000Y-56208000D02*
X110850000Y-51000000D01*
X116058000Y-61194000D02*
X116058000Y-56208000D01*
%TD*%
%TA.AperFunction,Conductor*%
%TO.N,GND*%
G36*
X105783703Y-47128071D02*
G01*
X105790181Y-47134103D01*
X105915215Y-47259137D01*
X105915218Y-47259139D01*
X106027891Y-47334425D01*
X106072696Y-47388035D01*
X106083000Y-47437526D01*
X106083000Y-48795000D01*
X107675156Y-48795000D01*
X107742195Y-48814685D01*
X107787950Y-48867489D01*
X107799156Y-48919000D01*
X107799156Y-49417121D01*
X107779471Y-49484160D01*
X107726667Y-49529915D01*
X107657509Y-49539859D01*
X107606266Y-49520224D01*
X107511835Y-49457128D01*
X107492571Y-49444256D01*
X107492568Y-49444254D01*
X107492567Y-49444254D01*
X107317407Y-49371700D01*
X107317399Y-49371698D01*
X107131458Y-49334712D01*
X107131454Y-49334712D01*
X106941858Y-49334712D01*
X106941853Y-49334712D01*
X106755912Y-49371698D01*
X106755904Y-49371700D01*
X106580743Y-49444254D01*
X106423097Y-49549589D01*
X106289033Y-49683653D01*
X106183698Y-49841299D01*
X106111144Y-50016460D01*
X106111142Y-50016468D01*
X106074156Y-50202409D01*
X106074156Y-50392014D01*
X106111142Y-50577955D01*
X106111144Y-50577963D01*
X106183698Y-50753124D01*
X106289033Y-50910770D01*
X106423097Y-51044834D01*
X106527956Y-51114898D01*
X106580741Y-51150168D01*
X106580742Y-51150168D01*
X106580743Y-51150169D01*
X106607140Y-51161103D01*
X106755905Y-51222724D01*
X106941853Y-51259711D01*
X106941857Y-51259712D01*
X106941858Y-51259712D01*
X107131455Y-51259712D01*
X107131456Y-51259711D01*
X107317407Y-51222724D01*
X107492571Y-51150168D01*
X107606265Y-51074200D01*
X107672943Y-51053322D01*
X107740323Y-51071807D01*
X107787013Y-51123786D01*
X107799156Y-51177302D01*
X107799156Y-51504929D01*
X107799156Y-51610383D01*
X107812802Y-51661313D01*
X107826449Y-51712245D01*
X107852812Y-51757906D01*
X107879176Y-51803569D01*
X107879177Y-51803570D01*
X107879178Y-51803571D01*
X112867181Y-56791573D01*
X112900666Y-56852896D01*
X112903500Y-56879254D01*
X112903500Y-59571909D01*
X112900636Y-59581660D01*
X112901903Y-59591744D01*
X112890958Y-59614619D01*
X112883815Y-59638948D01*
X112876135Y-59645602D01*
X112871749Y-59654771D01*
X112850172Y-59668099D01*
X112831011Y-59684703D01*
X112820953Y-59686149D01*
X112812306Y-59691491D01*
X112786949Y-59691038D01*
X112761853Y-59694647D01*
X112750749Y-59690392D01*
X112742447Y-59690244D01*
X112710610Y-59675011D01*
X112596610Y-59598839D01*
X112551804Y-59545227D01*
X112541500Y-59495737D01*
X112541500Y-58004285D01*
X112541501Y-58004272D01*
X112541501Y-57888832D01*
X112541501Y-57888830D01*
X112514207Y-57786969D01*
X112461480Y-57695643D01*
X112386913Y-57621076D01*
X112386912Y-57621075D01*
X112382582Y-57616745D01*
X112382571Y-57616735D01*
X107996032Y-53230195D01*
X107962547Y-53168872D01*
X107962096Y-53118322D01*
X107962166Y-53117965D01*
X107962168Y-53117963D01*
X107999156Y-52932010D01*
X107999156Y-52742414D01*
X107962168Y-52556461D01*
X107889612Y-52381297D01*
X107830679Y-52293098D01*
X107784278Y-52223653D01*
X107650214Y-52089589D01*
X107492568Y-51984254D01*
X107317407Y-51911700D01*
X107317399Y-51911698D01*
X107131458Y-51874712D01*
X107131454Y-51874712D01*
X106941858Y-51874712D01*
X106941853Y-51874712D01*
X106755912Y-51911698D01*
X106755904Y-51911700D01*
X106580743Y-51984254D01*
X106423097Y-52089589D01*
X106289033Y-52223653D01*
X106183698Y-52381299D01*
X106111144Y-52556460D01*
X106111142Y-52556468D01*
X106074156Y-52742409D01*
X106074156Y-52932014D01*
X106111142Y-53117955D01*
X106111144Y-53117963D01*
X106183698Y-53293124D01*
X106289033Y-53450770D01*
X106423097Y-53584834D01*
X106527956Y-53654898D01*
X106580741Y-53690168D01*
X106755905Y-53762724D01*
X106941853Y-53799711D01*
X106941857Y-53799712D01*
X106941858Y-53799712D01*
X107131455Y-53799712D01*
X107131455Y-53799711D01*
X107317407Y-53762724D01*
X107317409Y-53762722D01*
X107317766Y-53762652D01*
X107387358Y-53768879D01*
X107429639Y-53796588D01*
X111704181Y-58071129D01*
X111737666Y-58132452D01*
X111740500Y-58158810D01*
X111740500Y-59495737D01*
X111720815Y-59562776D01*
X111685391Y-59598839D01*
X111527442Y-59704377D01*
X111527438Y-59704380D01*
X111393377Y-59838441D01*
X111288042Y-59996087D01*
X111215488Y-60171248D01*
X111215486Y-60171256D01*
X111178500Y-60357197D01*
X111178500Y-60546802D01*
X111215486Y-60732743D01*
X111215488Y-60732751D01*
X111288042Y-60907912D01*
X111393377Y-61065558D01*
X111527441Y-61199622D01*
X111606919Y-61252727D01*
X111685085Y-61304956D01*
X111685086Y-61304956D01*
X111685087Y-61304957D01*
X111762298Y-61336939D01*
X111816701Y-61380780D01*
X111838766Y-61447074D01*
X111821487Y-61514774D01*
X111770349Y-61562384D01*
X111714845Y-61575500D01*
X109306540Y-61575500D01*
X109244540Y-61558887D01*
X109159188Y-61509609D01*
X109159187Y-61509608D01*
X109159186Y-61509608D01*
X109031892Y-61475500D01*
X108900108Y-61475500D01*
X108772812Y-61509608D01*
X108658686Y-61575500D01*
X108658683Y-61575502D01*
X108565502Y-61668683D01*
X108565500Y-61668686D01*
X108499608Y-61782812D01*
X108465500Y-61910108D01*
X108465500Y-62041892D01*
X108498157Y-62163771D01*
X108499609Y-62169188D01*
X108499609Y-62169189D01*
X108545106Y-62247992D01*
X108561579Y-62315892D01*
X108538726Y-62381919D01*
X108483805Y-62425110D01*
X108470981Y-62428918D01*
X108471061Y-62429181D01*
X108465228Y-62430950D01*
X108290067Y-62503504D01*
X108132421Y-62608839D01*
X107998357Y-62742903D01*
X107893022Y-62900549D01*
X107820468Y-63075710D01*
X107820466Y-63075718D01*
X107783480Y-63261659D01*
X107783480Y-63451264D01*
X107820466Y-63637205D01*
X107820468Y-63637213D01*
X107893022Y-63812374D01*
X107998357Y-63970020D01*
X108132421Y-64104084D01*
X108208925Y-64155202D01*
X108290065Y-64209418D01*
X108465229Y-64281974D01*
X108651177Y-64318961D01*
X108651181Y-64318962D01*
X108651182Y-64318962D01*
X108840779Y-64318962D01*
X108840779Y-64318961D01*
X108920241Y-64303156D01*
X108951548Y-64296929D01*
X108960563Y-64297735D01*
X108969101Y-64294724D01*
X108994818Y-64300800D01*
X109021139Y-64303156D01*
X109028287Y-64308709D01*
X109037098Y-64310791D01*
X109055447Y-64329807D01*
X109076317Y-64346019D01*
X109080611Y-64355886D01*
X109085614Y-64361070D01*
X109097356Y-64394354D01*
X109111945Y-64467694D01*
X109105718Y-64537285D01*
X109062856Y-64592463D01*
X108996966Y-64615708D01*
X108970931Y-64614359D01*
X108845302Y-64594462D01*
X108646659Y-64594462D01*
X108450459Y-64625537D01*
X108450456Y-64625537D01*
X108261542Y-64686919D01*
X108084544Y-64777105D01*
X108047263Y-64804191D01*
X108047262Y-64804192D01*
X108657394Y-65414324D01*
X108572286Y-65437129D01*
X108469674Y-65496372D01*
X108385890Y-65580156D01*
X108326647Y-65682768D01*
X108303841Y-65767876D01*
X107693710Y-65157744D01*
X107693709Y-65157745D01*
X107666623Y-65195026D01*
X107576437Y-65372024D01*
X107515055Y-65560938D01*
X107515055Y-65560941D01*
X107483980Y-65757140D01*
X107483980Y-65955783D01*
X107515055Y-66151982D01*
X107515055Y-66151985D01*
X107576437Y-66340899D01*
X107666621Y-66517894D01*
X107693710Y-66555177D01*
X107693711Y-66555178D01*
X108303841Y-65945047D01*
X108326647Y-66030156D01*
X108385890Y-66132768D01*
X108469674Y-66216552D01*
X108572286Y-66275795D01*
X108657393Y-66298599D01*
X108047263Y-66908730D01*
X108047263Y-66908731D01*
X108084547Y-66935820D01*
X108261542Y-67026004D01*
X108450457Y-67087386D01*
X108646659Y-67118462D01*
X108752684Y-67118462D01*
X108819723Y-67138147D01*
X108865478Y-67190951D01*
X108870615Y-67204144D01*
X108880457Y-67234437D01*
X108880458Y-67234440D01*
X108970641Y-67411432D01*
X108997730Y-67448715D01*
X109607861Y-66838584D01*
X109630667Y-66923694D01*
X109689910Y-67026306D01*
X109773694Y-67110090D01*
X109876306Y-67169333D01*
X109961414Y-67192137D01*
X109351283Y-67802268D01*
X109351283Y-67802269D01*
X109388567Y-67829358D01*
X109565562Y-67919542D01*
X109754477Y-67980924D01*
X109950679Y-68012000D01*
X110149321Y-68012000D01*
X110345520Y-67980924D01*
X110345523Y-67980924D01*
X110534437Y-67919542D01*
X110711425Y-67829362D01*
X110748716Y-67802268D01*
X110138585Y-67192137D01*
X110223694Y-67169333D01*
X110326306Y-67110090D01*
X110410090Y-67026306D01*
X110469333Y-66923694D01*
X110492138Y-66838585D01*
X111102268Y-67448715D01*
X111129362Y-67411425D01*
X111219542Y-67234437D01*
X111280924Y-67045523D01*
X111280924Y-67045520D01*
X111312000Y-66849321D01*
X111312000Y-66650678D01*
X111280924Y-66454479D01*
X111280924Y-66454476D01*
X111219542Y-66265562D01*
X111129358Y-66088567D01*
X111102268Y-66051283D01*
X110492137Y-66661414D01*
X110469333Y-66576306D01*
X110410090Y-66473694D01*
X110326306Y-66389910D01*
X110223694Y-66330667D01*
X110138584Y-66307861D01*
X110748715Y-65697730D01*
X110711432Y-65670641D01*
X110534437Y-65580457D01*
X110345522Y-65519075D01*
X110149321Y-65488000D01*
X110043296Y-65488000D01*
X110019582Y-65481036D01*
X109995025Y-65478219D01*
X109986642Y-65471364D01*
X109976257Y-65468315D01*
X109960073Y-65449638D01*
X109940937Y-65433990D01*
X109933622Y-65419111D01*
X109930502Y-65415511D01*
X109925365Y-65402317D01*
X109916430Y-65374817D01*
X109914435Y-65304976D01*
X109950516Y-65245143D01*
X110013217Y-65214316D01*
X110034361Y-65212500D01*
X110144799Y-65212500D01*
X110144800Y-65212499D01*
X110330751Y-65175512D01*
X110505915Y-65102956D01*
X110663558Y-64997622D01*
X110797622Y-64863558D01*
X110902956Y-64705915D01*
X110975512Y-64530751D01*
X111012500Y-64344798D01*
X111012500Y-64155202D01*
X110991709Y-64050678D01*
X117988000Y-64050678D01*
X117988000Y-64249321D01*
X118019075Y-64445520D01*
X118019075Y-64445523D01*
X118080457Y-64634437D01*
X118170641Y-64811432D01*
X118197730Y-64848715D01*
X118197731Y-64848716D01*
X118807861Y-64238585D01*
X118830667Y-64323694D01*
X118889910Y-64426306D01*
X118973694Y-64510090D01*
X119076306Y-64569333D01*
X119161414Y-64592137D01*
X118551283Y-65202268D01*
X118551283Y-65202269D01*
X118588567Y-65229358D01*
X118765562Y-65319542D01*
X118954477Y-65380924D01*
X119150679Y-65412000D01*
X119349321Y-65412000D01*
X119545520Y-65380924D01*
X119545523Y-65380924D01*
X119734437Y-65319542D01*
X119911425Y-65229362D01*
X119948716Y-65202268D01*
X119338585Y-64592137D01*
X119423694Y-64569333D01*
X119526306Y-64510090D01*
X119610090Y-64426306D01*
X119669333Y-64323694D01*
X119692138Y-64238585D01*
X120302268Y-64848715D01*
X120329362Y-64811425D01*
X120419542Y-64634437D01*
X120480924Y-64445523D01*
X120480924Y-64445520D01*
X120512000Y-64249321D01*
X120512000Y-64050678D01*
X120480924Y-63854479D01*
X120480924Y-63854476D01*
X120419542Y-63665562D01*
X120329358Y-63488567D01*
X120302268Y-63451283D01*
X119692137Y-64061414D01*
X119669333Y-63976306D01*
X119610090Y-63873694D01*
X119526306Y-63789910D01*
X119423694Y-63730667D01*
X119338585Y-63707861D01*
X119948716Y-63097731D01*
X119948715Y-63097730D01*
X119911432Y-63070641D01*
X119734437Y-62980457D01*
X119545522Y-62919075D01*
X119349321Y-62888000D01*
X119150679Y-62888000D01*
X118954479Y-62919075D01*
X118954476Y-62919075D01*
X118765562Y-62980457D01*
X118588564Y-63070643D01*
X118551283Y-63097729D01*
X118551282Y-63097730D01*
X119161415Y-63707861D01*
X119076306Y-63730667D01*
X118973694Y-63789910D01*
X118889910Y-63873694D01*
X118830667Y-63976306D01*
X118807861Y-64061414D01*
X118197730Y-63451282D01*
X118197729Y-63451283D01*
X118170643Y-63488564D01*
X118080457Y-63665562D01*
X118019075Y-63854476D01*
X118019075Y-63854479D01*
X117988000Y-64050678D01*
X110991709Y-64050678D01*
X110975512Y-63969249D01*
X110902956Y-63794085D01*
X110823917Y-63675795D01*
X110797622Y-63636441D01*
X110663558Y-63502377D01*
X110505912Y-63397042D01*
X110330751Y-63324488D01*
X110330743Y-63324486D01*
X110144802Y-63287500D01*
X110144798Y-63287500D01*
X109955202Y-63287500D01*
X109930998Y-63292314D01*
X109844430Y-63309533D01*
X109835411Y-63308725D01*
X109826876Y-63311737D01*
X109801158Y-63305659D01*
X109774838Y-63303304D01*
X109767689Y-63297751D01*
X109758879Y-63295669D01*
X109740528Y-63276651D01*
X109719662Y-63260441D01*
X109715367Y-63250574D01*
X109710364Y-63245389D01*
X109698622Y-63212105D01*
X109690084Y-63169180D01*
X109690084Y-63169177D01*
X109675872Y-63097730D01*
X109671492Y-63075711D01*
X109598936Y-62900547D01*
X109536070Y-62806462D01*
X109493602Y-62742903D01*
X109359540Y-62608841D01*
X109351700Y-62603603D01*
X109306895Y-62549991D01*
X109298186Y-62480666D01*
X109328341Y-62417638D01*
X109387783Y-62380919D01*
X109420590Y-62376500D01*
X112594725Y-62376500D01*
X112594727Y-62376500D01*
X112696588Y-62349207D01*
X112787913Y-62296480D01*
X113539703Y-61544687D01*
X113539708Y-61544684D01*
X113549911Y-61534480D01*
X113549913Y-61534480D01*
X113624480Y-61459913D01*
X113677207Y-61368587D01*
X113682566Y-61348587D01*
X113704501Y-61266727D01*
X113704501Y-61161273D01*
X113704501Y-61153678D01*
X113704500Y-61153660D01*
X113704500Y-61131791D01*
X113724185Y-61064752D01*
X113776989Y-61018997D01*
X113846147Y-61009053D01*
X113909703Y-61038078D01*
X113931604Y-61062903D01*
X113933378Y-61065559D01*
X114067441Y-61199622D01*
X114146919Y-61252727D01*
X114225085Y-61304956D01*
X114225086Y-61304956D01*
X114225087Y-61304957D01*
X114237670Y-61310169D01*
X114400249Y-61377512D01*
X114586197Y-61414499D01*
X114586201Y-61414500D01*
X114586202Y-61414500D01*
X114775799Y-61414500D01*
X114775800Y-61414499D01*
X114961751Y-61377512D01*
X115136915Y-61304956D01*
X115294558Y-61199622D01*
X115428622Y-61065558D01*
X115430396Y-61062902D01*
X115431685Y-61061824D01*
X115432486Y-61060850D01*
X115432670Y-61061001D01*
X115484007Y-61018097D01*
X115553331Y-61009387D01*
X115616360Y-61039540D01*
X115653081Y-61098982D01*
X115657500Y-61131791D01*
X115657500Y-61141273D01*
X115657500Y-61246727D01*
X115673103Y-61304957D01*
X115684793Y-61348587D01*
X115684792Y-61348587D01*
X115701492Y-61377511D01*
X115737520Y-61439913D01*
X115737522Y-61439915D01*
X116316005Y-62018398D01*
X116348099Y-62073985D01*
X116373608Y-62169186D01*
X116439500Y-62283314D01*
X116532686Y-62376500D01*
X116623932Y-62429181D01*
X116646810Y-62442390D01*
X116646814Y-62442392D01*
X116774108Y-62476500D01*
X116774110Y-62476500D01*
X116905890Y-62476500D01*
X116905892Y-62476500D01*
X117033186Y-62442392D01*
X117147314Y-62376500D01*
X117240500Y-62283314D01*
X117306392Y-62169186D01*
X117340500Y-62041892D01*
X117340500Y-61910108D01*
X117306392Y-61782814D01*
X117240500Y-61668686D01*
X117197995Y-61626181D01*
X117164510Y-61564858D01*
X117169494Y-61495166D01*
X117211366Y-61439233D01*
X117276830Y-61414816D01*
X117285676Y-61414500D01*
X117315799Y-61414500D01*
X117315800Y-61414499D01*
X117501751Y-61377512D01*
X117676915Y-61304956D01*
X117834558Y-61199622D01*
X117859818Y-61174362D01*
X117887819Y-61146362D01*
X117949142Y-61112877D01*
X118018834Y-61117861D01*
X118074767Y-61159733D01*
X118099184Y-61225197D01*
X118099500Y-61234043D01*
X118099500Y-61252726D01*
X118126793Y-61354589D01*
X118140028Y-61377512D01*
X118179520Y-61445913D01*
X118179521Y-61445914D01*
X118179522Y-61445915D01*
X118951179Y-62217571D01*
X118951189Y-62217582D01*
X118955519Y-62221912D01*
X118955520Y-62221913D01*
X119030087Y-62296480D01*
X119121413Y-62349207D01*
X119223273Y-62376501D01*
X119223275Y-62376501D01*
X119336323Y-62376501D01*
X119336339Y-62376500D01*
X119547460Y-62376500D01*
X119609460Y-62393113D01*
X119694814Y-62442392D01*
X119822108Y-62476500D01*
X119822110Y-62476500D01*
X119953890Y-62476500D01*
X119953892Y-62476500D01*
X120081186Y-62442392D01*
X120195314Y-62376500D01*
X120288500Y-62283314D01*
X120354392Y-62169186D01*
X120381780Y-62066969D01*
X120418143Y-62007312D01*
X120480990Y-61976782D01*
X120550366Y-61985076D01*
X120604244Y-62029561D01*
X120608941Y-62037064D01*
X120649500Y-62107314D01*
X120742686Y-62200500D01*
X120856814Y-62266392D01*
X120984108Y-62300500D01*
X120984110Y-62300500D01*
X121115890Y-62300500D01*
X121115892Y-62300500D01*
X121243186Y-62266392D01*
X121357314Y-62200500D01*
X121450500Y-62107314D01*
X121516392Y-61993186D01*
X121550500Y-61865892D01*
X121550500Y-61734108D01*
X121516392Y-61606814D01*
X121490740Y-61562384D01*
X121467113Y-61521460D01*
X121462962Y-61505971D01*
X121455523Y-61494395D01*
X121450500Y-61459460D01*
X121450500Y-61262043D01*
X121470185Y-61195004D01*
X121522989Y-61149249D01*
X121592147Y-61139305D01*
X121655703Y-61168330D01*
X121662181Y-61174362D01*
X121687441Y-61199622D01*
X121766919Y-61252727D01*
X121845085Y-61304956D01*
X121845086Y-61304956D01*
X121845087Y-61304957D01*
X121857670Y-61310169D01*
X122020249Y-61377512D01*
X122206197Y-61414499D01*
X122206201Y-61414500D01*
X122206202Y-61414500D01*
X122395799Y-61414500D01*
X122395800Y-61414499D01*
X122581751Y-61377512D01*
X122756915Y-61304956D01*
X122914558Y-61199622D01*
X123048622Y-61065558D01*
X123153956Y-60907915D01*
X123226512Y-60732751D01*
X123263500Y-60546798D01*
X123263500Y-60357202D01*
X123226512Y-60171249D01*
X123153956Y-59996085D01*
X123080336Y-59885905D01*
X123048622Y-59838441D01*
X122914558Y-59704377D01*
X122756912Y-59599042D01*
X122581751Y-59526488D01*
X122581743Y-59526486D01*
X122395802Y-59489500D01*
X122395798Y-59489500D01*
X122206202Y-59489500D01*
X122206197Y-59489500D01*
X122020256Y-59526486D01*
X122020248Y-59526488D01*
X121845087Y-59599042D01*
X121687441Y-59704377D01*
X121687438Y-59704380D01*
X121662181Y-59729638D01*
X121600858Y-59763123D01*
X121531166Y-59758139D01*
X121475233Y-59716267D01*
X121450816Y-59650803D01*
X121450500Y-59641957D01*
X121450500Y-55362729D01*
X121450501Y-55362716D01*
X121450501Y-55247274D01*
X121450501Y-55247273D01*
X121423207Y-55145413D01*
X121370480Y-55054087D01*
X121295913Y-54979520D01*
X121295912Y-54979519D01*
X121291582Y-54975189D01*
X121291571Y-54975179D01*
X117701083Y-51384690D01*
X117657819Y-51341426D01*
X117624334Y-51280103D01*
X117621500Y-51253745D01*
X117621500Y-51248262D01*
X117628256Y-51225251D01*
X117629318Y-51210411D01*
X117634741Y-51203165D01*
X117641185Y-51181223D01*
X117676609Y-51145160D01*
X117676913Y-51144956D01*
X117676915Y-51144956D01*
X117834558Y-51039622D01*
X117968622Y-50905558D01*
X118073956Y-50747915D01*
X118146512Y-50572751D01*
X118183500Y-50386798D01*
X118183500Y-50197202D01*
X118167462Y-50116573D01*
X118145324Y-50005274D01*
X118146759Y-50004988D01*
X118146193Y-49942414D01*
X118177798Y-49888593D01*
X118386337Y-49680055D01*
X118447657Y-49646572D01*
X118517349Y-49651556D01*
X118573282Y-49693428D01*
X118597699Y-49758892D01*
X118591946Y-49806055D01*
X118530076Y-49996472D01*
X118530075Y-49996479D01*
X118499000Y-50192678D01*
X118499000Y-50391321D01*
X118530075Y-50587520D01*
X118530075Y-50587523D01*
X118591457Y-50776437D01*
X118681641Y-50953432D01*
X118708730Y-50990715D01*
X119318861Y-50380584D01*
X119341667Y-50465694D01*
X119400910Y-50568306D01*
X119484694Y-50652090D01*
X119587306Y-50711333D01*
X119672414Y-50734137D01*
X119062283Y-51344268D01*
X119062283Y-51344269D01*
X119099567Y-51371358D01*
X119276562Y-51461542D01*
X119465477Y-51522924D01*
X119661679Y-51554000D01*
X119860321Y-51554000D01*
X120056520Y-51522924D01*
X120056523Y-51522924D01*
X120245437Y-51461542D01*
X120422425Y-51371362D01*
X120459716Y-51344268D01*
X119849585Y-50734137D01*
X119934694Y-50711333D01*
X120037306Y-50652090D01*
X120121090Y-50568306D01*
X120180333Y-50465694D01*
X120203138Y-50380585D01*
X120813268Y-50990715D01*
X120840362Y-50953425D01*
X120930542Y-50776437D01*
X120991924Y-50587523D01*
X120991924Y-50587520D01*
X121023000Y-50391321D01*
X121023000Y-50192678D01*
X120991924Y-49996479D01*
X120991924Y-49996476D01*
X120930542Y-49807562D01*
X120840475Y-49630795D01*
X120827579Y-49562126D01*
X120853855Y-49497385D01*
X120910962Y-49457128D01*
X120950960Y-49450500D01*
X121481957Y-49450500D01*
X121548996Y-49470185D01*
X121594751Y-49522989D01*
X121604695Y-49592147D01*
X121575670Y-49655703D01*
X121569638Y-49662181D01*
X121553380Y-49678438D01*
X121553377Y-49678441D01*
X121448042Y-49836087D01*
X121375488Y-50011248D01*
X121375486Y-50011256D01*
X121338500Y-50197197D01*
X121338500Y-50386802D01*
X121375486Y-50572743D01*
X121375488Y-50572751D01*
X121448042Y-50747912D01*
X121553377Y-50905558D01*
X121687441Y-51039622D01*
X121735610Y-51071807D01*
X121845085Y-51144956D01*
X121845086Y-51144956D01*
X121845087Y-51144957D01*
X121857670Y-51150169D01*
X122020249Y-51217512D01*
X122202406Y-51253745D01*
X122206197Y-51254499D01*
X122206201Y-51254500D01*
X122206202Y-51254500D01*
X122395799Y-51254500D01*
X122395800Y-51254499D01*
X122581751Y-51217512D01*
X122756915Y-51144956D01*
X122914558Y-51039622D01*
X123048622Y-50905558D01*
X123153956Y-50747915D01*
X123226512Y-50572751D01*
X123263500Y-50386798D01*
X123263500Y-50204254D01*
X123283185Y-50137215D01*
X123299819Y-50116573D01*
X124585073Y-48831319D01*
X124646396Y-48797834D01*
X124672754Y-48795000D01*
X125469500Y-48795000D01*
X125536539Y-48814685D01*
X125582294Y-48867489D01*
X125593500Y-48919000D01*
X125593500Y-49405228D01*
X125573815Y-49472267D01*
X125521011Y-49518022D01*
X125451853Y-49527966D01*
X125400610Y-49508330D01*
X125296917Y-49439045D01*
X125296913Y-49439043D01*
X125121751Y-49366488D01*
X125121743Y-49366486D01*
X124935802Y-49329500D01*
X124935798Y-49329500D01*
X124746202Y-49329500D01*
X124746197Y-49329500D01*
X124560256Y-49366486D01*
X124560248Y-49366488D01*
X124385087Y-49439042D01*
X124227441Y-49544377D01*
X124093377Y-49678441D01*
X123988042Y-49836087D01*
X123915488Y-50011248D01*
X123915486Y-50011256D01*
X123878500Y-50197197D01*
X123878500Y-50386802D01*
X123915486Y-50572743D01*
X123915488Y-50572751D01*
X123988042Y-50747912D01*
X124093377Y-50905558D01*
X124227441Y-51039622D01*
X124275610Y-51071807D01*
X124385085Y-51144956D01*
X124385086Y-51144956D01*
X124385391Y-51145160D01*
X124430196Y-51198772D01*
X124440500Y-51248262D01*
X124440500Y-51979745D01*
X124420815Y-52046784D01*
X124404181Y-52067426D01*
X123885522Y-52586084D01*
X123885520Y-52586087D01*
X123832793Y-52677412D01*
X123815376Y-52742414D01*
X123815376Y-52742415D01*
X123815375Y-52742414D01*
X123805500Y-52779269D01*
X123805500Y-62432043D01*
X123785815Y-62499082D01*
X123733011Y-62544837D01*
X123706464Y-62549529D01*
X123088117Y-63167876D01*
X123065313Y-63082768D01*
X123006070Y-62980156D01*
X122922286Y-62896372D01*
X122819674Y-62837129D01*
X122734565Y-62814323D01*
X123344696Y-62204193D01*
X123344695Y-62204192D01*
X123307412Y-62177103D01*
X123130417Y-62086919D01*
X122941502Y-62025537D01*
X122745301Y-61994462D01*
X122546659Y-61994462D01*
X122350459Y-62025537D01*
X122350456Y-62025537D01*
X122161542Y-62086919D01*
X121984544Y-62177105D01*
X121947263Y-62204191D01*
X121947262Y-62204192D01*
X122557395Y-62814323D01*
X122472286Y-62837129D01*
X122369674Y-62896372D01*
X122285890Y-62980156D01*
X122226647Y-63082768D01*
X122203841Y-63167876D01*
X121593710Y-62557744D01*
X121593709Y-62557745D01*
X121566623Y-62595026D01*
X121476437Y-62772024D01*
X121415055Y-62960938D01*
X121415055Y-62960941D01*
X121383980Y-63157140D01*
X121383980Y-63355783D01*
X121415055Y-63551982D01*
X121415055Y-63551985D01*
X121476437Y-63740899D01*
X121566621Y-63917894D01*
X121593710Y-63955177D01*
X121593711Y-63955178D01*
X122203841Y-63345047D01*
X122226647Y-63430156D01*
X122285890Y-63532768D01*
X122369674Y-63616552D01*
X122472286Y-63675795D01*
X122557394Y-63698599D01*
X121947263Y-64308730D01*
X121947263Y-64308731D01*
X121984547Y-64335820D01*
X122161542Y-64426004D01*
X122350457Y-64487386D01*
X122546659Y-64518462D01*
X122745301Y-64518462D01*
X122941500Y-64487386D01*
X122941503Y-64487386D01*
X123130417Y-64426004D01*
X123307405Y-64335824D01*
X123344696Y-64308730D01*
X122734565Y-63698599D01*
X122819674Y-63675795D01*
X122922286Y-63616552D01*
X123006070Y-63532768D01*
X123065313Y-63430156D01*
X123088118Y-63345047D01*
X123707927Y-63964856D01*
X123740149Y-63971626D01*
X123789906Y-64020678D01*
X123805500Y-64080879D01*
X123805500Y-67510791D01*
X123785815Y-67577830D01*
X123733011Y-67623585D01*
X123713602Y-67630563D01*
X123709839Y-67631571D01*
X123709824Y-67631576D01*
X123660260Y-67652105D01*
X123660254Y-67652108D01*
X123546240Y-67717934D01*
X123503683Y-67750590D01*
X123410590Y-67843683D01*
X123377934Y-67886240D01*
X123312108Y-68000254D01*
X123312101Y-68000268D01*
X123291580Y-68049811D01*
X123257503Y-68176986D01*
X123257502Y-68176992D01*
X123250500Y-68230167D01*
X123250500Y-68796004D01*
X123255651Y-68841728D01*
X123277144Y-68886356D01*
X123288496Y-68955297D01*
X123272943Y-68992339D01*
X123276913Y-68994251D01*
X123270850Y-69006839D01*
X123250500Y-69095995D01*
X123250500Y-69661832D01*
X123257502Y-69715007D01*
X123257503Y-69715014D01*
X123291578Y-69842181D01*
X123291580Y-69842188D01*
X123312101Y-69891731D01*
X123312108Y-69891745D01*
X123377934Y-70005759D01*
X123410590Y-70048316D01*
X123503683Y-70141409D01*
X123528666Y-70160580D01*
X123546243Y-70174067D01*
X123660257Y-70239893D01*
X123660262Y-70239895D01*
X123660268Y-70239898D01*
X123709814Y-70260420D01*
X123709815Y-70260421D01*
X123713592Y-70261433D01*
X123773253Y-70297797D01*
X123803783Y-70360643D01*
X123805500Y-70381208D01*
X123805500Y-75117266D01*
X123785815Y-75184305D01*
X123733011Y-75230060D01*
X123663853Y-75240004D01*
X123600297Y-75210979D01*
X123566939Y-75164719D01*
X123498937Y-75000549D01*
X123393602Y-74842903D01*
X123259538Y-74708839D01*
X123101892Y-74603504D01*
X122926731Y-74530950D01*
X122926723Y-74530948D01*
X122740782Y-74493962D01*
X122740778Y-74493962D01*
X122551182Y-74493962D01*
X122551177Y-74493962D01*
X122365236Y-74530948D01*
X122365228Y-74530950D01*
X122190067Y-74603504D01*
X122032421Y-74708839D01*
X121898357Y-74842903D01*
X121792820Y-75000853D01*
X121739208Y-75045658D01*
X121689718Y-75055962D01*
X120373717Y-75055962D01*
X120344276Y-75047317D01*
X120314290Y-75040794D01*
X120309274Y-75037039D01*
X120306678Y-75036277D01*
X120286036Y-75019643D01*
X120209376Y-74942983D01*
X120175891Y-74881660D01*
X120175440Y-74831110D01*
X120175510Y-74830753D01*
X120175512Y-74830751D01*
X120212500Y-74644798D01*
X120212500Y-74455202D01*
X120175512Y-74269249D01*
X120118352Y-74131255D01*
X120102957Y-74094087D01*
X119997622Y-73936441D01*
X119863558Y-73802377D01*
X119705912Y-73697042D01*
X119530751Y-73624488D01*
X119530743Y-73624486D01*
X119344802Y-73587500D01*
X119344798Y-73587500D01*
X119155202Y-73587500D01*
X119155197Y-73587500D01*
X118969256Y-73624486D01*
X118969248Y-73624488D01*
X118794087Y-73697042D01*
X118636441Y-73802377D01*
X118502377Y-73936441D01*
X118397042Y-74094087D01*
X118324488Y-74269248D01*
X118324486Y-74269256D01*
X118287500Y-74455197D01*
X118287500Y-74644802D01*
X118324486Y-74830743D01*
X118324488Y-74830751D01*
X118397042Y-75005912D01*
X118502377Y-75163558D01*
X118636441Y-75297622D01*
X118715340Y-75350340D01*
X118794085Y-75402956D01*
X118794086Y-75402956D01*
X118794087Y-75402957D01*
X118817126Y-75412500D01*
X118969249Y-75475512D01*
X119155197Y-75512499D01*
X119155201Y-75512500D01*
X119155202Y-75512500D01*
X119344799Y-75512500D01*
X119344799Y-75512499D01*
X119530751Y-75475512D01*
X119530753Y-75475510D01*
X119531110Y-75475440D01*
X119600702Y-75481667D01*
X119642983Y-75509376D01*
X119910549Y-75776942D01*
X120001874Y-75829669D01*
X120103735Y-75856962D01*
X121689718Y-75856962D01*
X121756757Y-75876647D01*
X121792820Y-75912071D01*
X121898357Y-76070020D01*
X122032421Y-76204084D01*
X122105221Y-76252727D01*
X122190065Y-76309418D01*
X122190066Y-76309418D01*
X122190067Y-76309419D01*
X122213106Y-76318962D01*
X122365229Y-76381974D01*
X122551177Y-76418961D01*
X122551181Y-76418962D01*
X122551182Y-76418962D01*
X122740779Y-76418962D01*
X122740780Y-76418961D01*
X122926731Y-76381974D01*
X123101895Y-76309418D01*
X123259538Y-76204084D01*
X123393602Y-76070020D01*
X123498936Y-75912377D01*
X123566939Y-75748203D01*
X123610780Y-75693801D01*
X123677074Y-75671736D01*
X123744774Y-75689015D01*
X123792384Y-75740153D01*
X123805500Y-75795657D01*
X123805500Y-75982745D01*
X123785815Y-76049784D01*
X123769181Y-76070426D01*
X122552426Y-77287181D01*
X122491103Y-77320666D01*
X122464745Y-77323500D01*
X119720540Y-77323500D01*
X119658540Y-77306887D01*
X119573188Y-77257609D01*
X119573187Y-77257608D01*
X119573186Y-77257608D01*
X119445892Y-77223500D01*
X119314108Y-77223500D01*
X119186812Y-77257608D01*
X119072686Y-77323500D01*
X119072683Y-77323502D01*
X118979502Y-77416683D01*
X118979500Y-77416686D01*
X118913608Y-77530812D01*
X118885634Y-77635214D01*
X118879500Y-77658108D01*
X118879500Y-77789892D01*
X118886580Y-77816314D01*
X118913608Y-77917187D01*
X118935617Y-77955307D01*
X118979500Y-78031314D01*
X119072686Y-78124500D01*
X119135118Y-78160545D01*
X119186810Y-78190390D01*
X119186814Y-78190392D01*
X119314108Y-78224500D01*
X119314110Y-78224500D01*
X119445890Y-78224500D01*
X119445892Y-78224500D01*
X119573186Y-78190392D01*
X119658540Y-78141113D01*
X119720540Y-78124500D01*
X122734725Y-78124500D01*
X122734727Y-78124500D01*
X122836588Y-78097207D01*
X122927913Y-78044480D01*
X124526480Y-76445913D01*
X124579206Y-76354588D01*
X124579207Y-76354587D01*
X124606500Y-76252727D01*
X124606500Y-70381208D01*
X124626185Y-70314169D01*
X124678989Y-70268414D01*
X124698408Y-70261433D01*
X124698655Y-70261366D01*
X124702181Y-70260422D01*
X124702182Y-70260421D01*
X124702184Y-70260421D01*
X124702184Y-70260420D01*
X124751743Y-70239893D01*
X124865757Y-70174067D01*
X124908317Y-70141409D01*
X125001409Y-70048317D01*
X125034067Y-70005757D01*
X125099893Y-69891743D01*
X125120422Y-69842181D01*
X125154497Y-69715014D01*
X125161500Y-69661826D01*
X125161500Y-69096000D01*
X125156348Y-69050272D01*
X125142502Y-69021522D01*
X125134856Y-69005644D01*
X125123504Y-68936703D01*
X125139086Y-68899677D01*
X125135087Y-68897752D01*
X125141148Y-68885164D01*
X125141147Y-68885164D01*
X125141149Y-68885163D01*
X125161500Y-68796000D01*
X125161500Y-68230174D01*
X125154497Y-68176986D01*
X125120422Y-68049819D01*
X125099893Y-68000257D01*
X125034067Y-67886243D01*
X125001409Y-67843683D01*
X124908317Y-67750591D01*
X124908316Y-67750590D01*
X124865759Y-67717934D01*
X124751745Y-67652108D01*
X124751739Y-67652105D01*
X124726135Y-67641500D01*
X124702181Y-67631578D01*
X124702177Y-67631577D01*
X124702175Y-67631576D01*
X124702160Y-67631571D01*
X124698398Y-67630563D01*
X124638740Y-67594194D01*
X124608215Y-67531345D01*
X124606500Y-67510791D01*
X124606500Y-53049253D01*
X124626185Y-52982214D01*
X124642815Y-52961576D01*
X125076703Y-52527687D01*
X125076708Y-52527684D01*
X125086911Y-52517480D01*
X125086913Y-52517480D01*
X125161480Y-52442913D01*
X125214207Y-52351587D01*
X125229879Y-52293098D01*
X125241501Y-52249727D01*
X125241501Y-52144273D01*
X125241500Y-52144269D01*
X125241500Y-51248262D01*
X125261185Y-51181223D01*
X125296609Y-51145160D01*
X125296913Y-51144956D01*
X125296915Y-51144956D01*
X125400610Y-51075668D01*
X125467286Y-51054791D01*
X125534667Y-51073275D01*
X125581357Y-51125254D01*
X125593500Y-51178771D01*
X125593500Y-77532111D01*
X125573815Y-77599150D01*
X125521011Y-77644905D01*
X125451853Y-77654849D01*
X125400610Y-77635214D01*
X125367918Y-77613370D01*
X125367907Y-77613364D01*
X125185839Y-77537950D01*
X125185829Y-77537947D01*
X124992543Y-77499500D01*
X124992541Y-77499500D01*
X124795459Y-77499500D01*
X124795457Y-77499500D01*
X124602170Y-77537947D01*
X124602160Y-77537950D01*
X124420092Y-77613364D01*
X124420079Y-77613371D01*
X124256218Y-77722860D01*
X124256214Y-77722863D01*
X124116863Y-77862214D01*
X124116860Y-77862218D01*
X124007371Y-78026079D01*
X124007364Y-78026092D01*
X123931950Y-78208160D01*
X123931947Y-78208170D01*
X123893500Y-78401456D01*
X123893500Y-78401459D01*
X123893500Y-78998541D01*
X123893500Y-78998543D01*
X123893499Y-78998543D01*
X123931947Y-79191829D01*
X123931950Y-79191839D01*
X124007364Y-79373907D01*
X124007371Y-79373920D01*
X124116860Y-79537781D01*
X124116863Y-79537785D01*
X124256217Y-79677139D01*
X124385854Y-79763759D01*
X124420086Y-79786632D01*
X124420092Y-79786634D01*
X124425457Y-79789502D01*
X124424453Y-79791378D01*
X124471355Y-79829173D01*
X124493421Y-79895467D01*
X124493500Y-79899895D01*
X124493500Y-81898745D01*
X124473815Y-81965784D01*
X124457181Y-81986426D01*
X121581426Y-84862181D01*
X121520103Y-84895666D01*
X121493745Y-84898500D01*
X121208610Y-84898500D01*
X121141571Y-84878815D01*
X121095816Y-84826011D01*
X121085872Y-84756853D01*
X121114897Y-84693297D01*
X121129947Y-84678646D01*
X121131781Y-84677140D01*
X121271136Y-84537785D01*
X121271139Y-84537782D01*
X121380632Y-84373914D01*
X121456051Y-84191835D01*
X121494500Y-83998541D01*
X121494500Y-83401459D01*
X121494500Y-83401456D01*
X121456052Y-83208170D01*
X121456051Y-83208169D01*
X121456051Y-83208165D01*
X121454428Y-83204247D01*
X121380635Y-83026092D01*
X121380628Y-83026079D01*
X121271139Y-82862218D01*
X121271136Y-82862214D01*
X121131785Y-82722863D01*
X121131781Y-82722860D01*
X120967920Y-82613371D01*
X120967907Y-82613364D01*
X120785839Y-82537950D01*
X120785829Y-82537947D01*
X120592543Y-82499500D01*
X120592541Y-82499500D01*
X120395459Y-82499500D01*
X120395457Y-82499500D01*
X120202170Y-82537947D01*
X120202160Y-82537950D01*
X120020092Y-82613364D01*
X120020079Y-82613371D01*
X119856218Y-82722860D01*
X119856214Y-82722863D01*
X119716863Y-82862214D01*
X119716860Y-82862218D01*
X119607371Y-83026079D01*
X119607364Y-83026092D01*
X119531950Y-83208160D01*
X119531947Y-83208170D01*
X119493500Y-83401456D01*
X119493500Y-83401459D01*
X119493500Y-83998541D01*
X119493500Y-83998543D01*
X119493499Y-83998543D01*
X119531947Y-84191829D01*
X119531950Y-84191839D01*
X119607364Y-84373907D01*
X119607371Y-84373920D01*
X119716860Y-84537781D01*
X119716863Y-84537785D01*
X119856218Y-84677140D01*
X119858053Y-84678646D01*
X119858756Y-84679678D01*
X119860525Y-84681447D01*
X119860189Y-84681782D01*
X119897389Y-84736391D01*
X119899260Y-84806235D01*
X119863074Y-84866004D01*
X119800318Y-84896721D01*
X119779390Y-84898500D01*
X119044255Y-84898500D01*
X118977216Y-84878815D01*
X118956574Y-84862181D01*
X117363993Y-83269600D01*
X117331900Y-83214014D01*
X117306392Y-83118814D01*
X117240500Y-83004686D01*
X117147314Y-82911500D01*
X117090250Y-82878554D01*
X117033187Y-82845608D01*
X116969539Y-82828554D01*
X116905892Y-82811500D01*
X116774108Y-82811500D01*
X116646812Y-82845608D01*
X116532686Y-82911500D01*
X116532683Y-82911502D01*
X116439502Y-83004683D01*
X116439500Y-83004686D01*
X116373608Y-83118812D01*
X116339500Y-83246108D01*
X116339500Y-83377891D01*
X116373608Y-83505187D01*
X116399193Y-83549500D01*
X116439500Y-83619314D01*
X116532686Y-83712500D01*
X116646814Y-83778392D01*
X116742014Y-83803900D01*
X116797600Y-83835993D01*
X118506519Y-85544912D01*
X118506520Y-85544913D01*
X118581087Y-85619480D01*
X118672413Y-85672207D01*
X118774273Y-85699500D01*
X118774275Y-85699500D01*
X119240501Y-85699500D01*
X119307540Y-85719185D01*
X119353295Y-85771989D01*
X119363239Y-85841147D01*
X119350986Y-85879795D01*
X119289244Y-86000968D01*
X119226009Y-86195582D01*
X119194000Y-86397682D01*
X119194000Y-86450000D01*
X120144000Y-86450000D01*
X120144000Y-86950000D01*
X119194000Y-86950000D01*
X119167800Y-86976200D01*
X119106476Y-87009684D01*
X119036785Y-87004699D01*
X118980851Y-86962828D01*
X118972080Y-86948739D01*
X118972069Y-86948747D01*
X118971048Y-86947082D01*
X118969629Y-86944803D01*
X118969524Y-86944595D01*
X118853828Y-86785354D01*
X118714646Y-86646172D01*
X118555405Y-86530476D01*
X118536421Y-86520803D01*
X118380029Y-86441117D01*
X118192826Y-86380290D01*
X117998422Y-86349500D01*
X117998417Y-86349500D01*
X117801583Y-86349500D01*
X117801578Y-86349500D01*
X117607173Y-86380290D01*
X117419970Y-86441117D01*
X117244594Y-86530476D01*
X117173505Y-86582126D01*
X117085354Y-86646172D01*
X117085352Y-86646174D01*
X117085351Y-86646174D01*
X116946174Y-86785351D01*
X116946174Y-86785352D01*
X116946172Y-86785354D01*
X116896485Y-86853741D01*
X116830476Y-86944594D01*
X116759792Y-87083320D01*
X116711817Y-87134116D01*
X116643996Y-87150911D01*
X116577861Y-87128374D01*
X116546205Y-87095917D01*
X116499461Y-87025961D01*
X116374038Y-86900538D01*
X116374034Y-86900535D01*
X116226553Y-86801990D01*
X116226540Y-86801983D01*
X116062667Y-86734106D01*
X116062658Y-86734103D01*
X115888694Y-86699500D01*
X115888691Y-86699500D01*
X115711309Y-86699500D01*
X115711306Y-86699500D01*
X115537341Y-86734103D01*
X115537332Y-86734106D01*
X115373459Y-86801983D01*
X115373446Y-86801990D01*
X115225965Y-86900535D01*
X115225961Y-86900538D01*
X115100538Y-87025961D01*
X115100535Y-87025965D01*
X115001990Y-87173446D01*
X115001983Y-87173459D01*
X114934106Y-87337332D01*
X114934104Y-87337340D01*
X114921617Y-87400118D01*
X114889232Y-87462028D01*
X114828516Y-87496603D01*
X114758747Y-87492863D01*
X114702075Y-87451996D01*
X114678383Y-87400118D01*
X114665895Y-87337340D01*
X114665894Y-87337334D01*
X114604018Y-87187950D01*
X114598016Y-87173459D01*
X114598009Y-87173446D01*
X114499464Y-87025965D01*
X114499461Y-87025961D01*
X114374038Y-86900538D01*
X114374034Y-86900535D01*
X114226553Y-86801990D01*
X114226540Y-86801983D01*
X114062667Y-86734106D01*
X114062658Y-86734103D01*
X113888694Y-86699500D01*
X113888691Y-86699500D01*
X113711309Y-86699500D01*
X113711304Y-86699500D01*
X113571615Y-86727286D01*
X113502023Y-86721059D01*
X113459743Y-86693350D01*
X110519915Y-83753522D01*
X110519913Y-83753520D01*
X110448860Y-83712497D01*
X110428589Y-83700793D01*
X110377657Y-83687146D01*
X110326727Y-83673500D01*
X110326726Y-83673500D01*
X108362500Y-83673500D01*
X108295461Y-83653815D01*
X108249706Y-83601011D01*
X108238500Y-83549500D01*
X108238500Y-83204249D01*
X108238499Y-83204247D01*
X108226868Y-83145770D01*
X108226867Y-83145769D01*
X108182552Y-83079447D01*
X108116230Y-83035132D01*
X108116229Y-83035131D01*
X108057752Y-83023500D01*
X108057748Y-83023500D01*
X107754048Y-83023500D01*
X107687009Y-83003815D01*
X107641254Y-82951011D01*
X107631310Y-82881853D01*
X107660335Y-82818297D01*
X107702264Y-82788061D01*
X107701879Y-82787306D01*
X107895554Y-82688622D01*
X107949716Y-82649270D01*
X107949717Y-82649270D01*
X107317408Y-82016962D01*
X107380993Y-81999925D01*
X107495007Y-81934099D01*
X107588099Y-81841007D01*
X107653925Y-81726993D01*
X107670962Y-81663409D01*
X108303270Y-82295717D01*
X108303270Y-82295716D01*
X108342622Y-82241554D01*
X108439095Y-82052217D01*
X108504757Y-81850130D01*
X108504757Y-81850127D01*
X108538000Y-81640246D01*
X108538000Y-81427753D01*
X108504757Y-81217872D01*
X108504757Y-81217869D01*
X108439095Y-81015782D01*
X108342624Y-80826449D01*
X108303270Y-80772282D01*
X108303269Y-80772282D01*
X107670962Y-81404590D01*
X107653925Y-81341007D01*
X107588099Y-81226993D01*
X107495007Y-81133901D01*
X107380993Y-81068075D01*
X107317409Y-81051037D01*
X107949716Y-80418728D01*
X107895550Y-80379375D01*
X107706217Y-80282904D01*
X107504129Y-80217242D01*
X107294246Y-80184000D01*
X107081754Y-80184000D01*
X106871872Y-80217242D01*
X106871869Y-80217242D01*
X106669782Y-80282904D01*
X106480439Y-80379380D01*
X106426282Y-80418727D01*
X106426282Y-80418728D01*
X107058591Y-81051037D01*
X106995007Y-81068075D01*
X106880993Y-81133901D01*
X106787901Y-81226993D01*
X106722075Y-81341007D01*
X106705037Y-81404591D01*
X106072728Y-80772282D01*
X106072727Y-80772282D01*
X106033380Y-80826439D01*
X105936904Y-81015782D01*
X105871242Y-81217869D01*
X105871242Y-81217872D01*
X105838000Y-81427753D01*
X105838000Y-81640246D01*
X105871242Y-81850127D01*
X105871242Y-81850130D01*
X105936904Y-82052217D01*
X106033375Y-82241550D01*
X106072728Y-82295716D01*
X106705037Y-81663408D01*
X106722075Y-81726993D01*
X106787901Y-81841007D01*
X106880993Y-81934099D01*
X106995007Y-81999925D01*
X107058590Y-82016962D01*
X106426282Y-82649269D01*
X106426282Y-82649270D01*
X106480449Y-82688624D01*
X106674121Y-82787306D01*
X106673603Y-82788321D01*
X106723808Y-82828779D01*
X106745873Y-82895073D01*
X106728594Y-82962772D01*
X106677458Y-83010383D01*
X106621952Y-83023500D01*
X106318247Y-83023500D01*
X106259770Y-83035131D01*
X106259769Y-83035132D01*
X106193447Y-83079447D01*
X106149132Y-83145769D01*
X106149131Y-83145770D01*
X106137500Y-83204247D01*
X106137500Y-84943752D01*
X106149131Y-85002229D01*
X106149132Y-85002230D01*
X106193447Y-85068552D01*
X106259769Y-85112867D01*
X106259770Y-85112868D01*
X106318247Y-85124499D01*
X106318250Y-85124500D01*
X106318252Y-85124500D01*
X108057750Y-85124500D01*
X108057751Y-85124499D01*
X108072568Y-85121552D01*
X108116229Y-85112868D01*
X108116229Y-85112867D01*
X108116231Y-85112867D01*
X108182552Y-85068552D01*
X108226867Y-85002231D01*
X108226867Y-85002229D01*
X108226868Y-85002229D01*
X108238499Y-84943752D01*
X108238500Y-84943750D01*
X108238500Y-84598500D01*
X108258185Y-84531461D01*
X108310989Y-84485706D01*
X108362500Y-84474500D01*
X110056745Y-84474500D01*
X110123784Y-84494185D01*
X110144426Y-84510819D01*
X112154410Y-86520803D01*
X112187895Y-86582126D01*
X112182911Y-86651818D01*
X112141039Y-86707751D01*
X112075575Y-86732168D01*
X112042538Y-86730101D01*
X111888695Y-86699500D01*
X111888691Y-86699500D01*
X111711309Y-86699500D01*
X111711306Y-86699500D01*
X111537341Y-86734103D01*
X111537332Y-86734106D01*
X111373459Y-86801983D01*
X111373446Y-86801990D01*
X111225965Y-86900535D01*
X111225961Y-86900538D01*
X111100536Y-87025963D01*
X111053793Y-87095918D01*
X111000180Y-87140722D01*
X110930855Y-87149428D01*
X110867828Y-87119272D01*
X110840207Y-87083319D01*
X110769525Y-86944596D01*
X110752144Y-86920674D01*
X110653828Y-86785354D01*
X110514646Y-86646172D01*
X110355405Y-86530476D01*
X110336421Y-86520803D01*
X110180029Y-86441117D01*
X109992826Y-86380290D01*
X109798422Y-86349500D01*
X109798417Y-86349500D01*
X109601583Y-86349500D01*
X109601578Y-86349500D01*
X109407173Y-86380290D01*
X109219970Y-86441117D01*
X109044594Y-86530476D01*
X108973505Y-86582126D01*
X108885354Y-86646172D01*
X108885352Y-86646174D01*
X108885351Y-86646174D01*
X108746174Y-86785351D01*
X108746174Y-86785352D01*
X108746172Y-86785354D01*
X108696485Y-86853741D01*
X108630476Y-86944594D01*
X108541117Y-87119970D01*
X108480290Y-87307173D01*
X108449500Y-87501577D01*
X108449500Y-87698422D01*
X108480290Y-87892826D01*
X108541117Y-88080029D01*
X108626979Y-88248541D01*
X108630476Y-88255405D01*
X108746172Y-88414646D01*
X108885354Y-88553828D01*
X109044595Y-88669524D01*
X109127455Y-88711743D01*
X109219970Y-88758882D01*
X109219972Y-88758882D01*
X109219975Y-88758884D01*
X109308923Y-88787785D01*
X109407173Y-88819709D01*
X109601578Y-88850500D01*
X109601583Y-88850500D01*
X109798422Y-88850500D01*
X109992826Y-88819709D01*
X110180025Y-88758884D01*
X110355405Y-88669524D01*
X110514646Y-88553828D01*
X110653828Y-88414646D01*
X110769524Y-88255405D01*
X110840208Y-88116678D01*
X110888181Y-88065884D01*
X110956002Y-88049088D01*
X111022137Y-88071625D01*
X111053793Y-88104082D01*
X111100533Y-88174032D01*
X111100538Y-88174038D01*
X111225961Y-88299461D01*
X111225965Y-88299464D01*
X111373446Y-88398009D01*
X111373459Y-88398016D01*
X111479235Y-88441829D01*
X111537334Y-88465894D01*
X111537336Y-88465894D01*
X111537341Y-88465896D01*
X111711304Y-88500499D01*
X111711307Y-88500500D01*
X111711309Y-88500500D01*
X111888693Y-88500500D01*
X111888694Y-88500499D01*
X111946682Y-88488964D01*
X112062658Y-88465896D01*
X112062661Y-88465894D01*
X112062666Y-88465894D01*
X112226547Y-88398013D01*
X112374035Y-88299464D01*
X112499464Y-88174035D01*
X112598013Y-88026547D01*
X112665894Y-87862666D01*
X112666789Y-87858170D01*
X112678383Y-87799882D01*
X112710768Y-87737971D01*
X112771483Y-87703397D01*
X112841253Y-87707136D01*
X112897925Y-87748003D01*
X112921617Y-87799882D01*
X112934103Y-87862658D01*
X112934106Y-87862667D01*
X113001983Y-88026540D01*
X113001990Y-88026553D01*
X113100535Y-88174034D01*
X113100538Y-88174038D01*
X113225961Y-88299461D01*
X113225965Y-88299464D01*
X113373446Y-88398009D01*
X113373459Y-88398016D01*
X113479235Y-88441829D01*
X113537334Y-88465894D01*
X113537336Y-88465894D01*
X113537341Y-88465896D01*
X113711304Y-88500499D01*
X113711307Y-88500500D01*
X113711309Y-88500500D01*
X113888693Y-88500500D01*
X113888694Y-88500499D01*
X113946682Y-88488964D01*
X114062658Y-88465896D01*
X114062661Y-88465894D01*
X114062666Y-88465894D01*
X114226547Y-88398013D01*
X114374035Y-88299464D01*
X114499464Y-88174035D01*
X114598013Y-88026547D01*
X114665894Y-87862666D01*
X114666789Y-87858170D01*
X114678383Y-87799882D01*
X114710768Y-87737971D01*
X114771483Y-87703397D01*
X114841253Y-87707136D01*
X114897925Y-87748003D01*
X114921617Y-87799882D01*
X114934103Y-87862658D01*
X114934106Y-87862667D01*
X115001983Y-88026540D01*
X115001990Y-88026553D01*
X115100535Y-88174034D01*
X115100538Y-88174038D01*
X115225961Y-88299461D01*
X115225965Y-88299464D01*
X115373446Y-88398009D01*
X115373459Y-88398016D01*
X115479235Y-88441829D01*
X115537334Y-88465894D01*
X115537336Y-88465894D01*
X115537341Y-88465896D01*
X115711304Y-88500499D01*
X115711307Y-88500500D01*
X115711309Y-88500500D01*
X115888693Y-88500500D01*
X115888694Y-88500499D01*
X115946682Y-88488964D01*
X116062658Y-88465896D01*
X116062661Y-88465894D01*
X116062666Y-88465894D01*
X116226547Y-88398013D01*
X116374035Y-88299464D01*
X116499464Y-88174035D01*
X116537788Y-88116679D01*
X116546205Y-88104083D01*
X116599817Y-88059278D01*
X116669142Y-88050571D01*
X116732170Y-88080726D01*
X116759792Y-88116679D01*
X116830476Y-88255405D01*
X116946172Y-88414646D01*
X117085354Y-88553828D01*
X117244595Y-88669524D01*
X117327455Y-88711743D01*
X117419970Y-88758882D01*
X117419972Y-88758882D01*
X117419975Y-88758884D01*
X117508923Y-88787785D01*
X117607173Y-88819709D01*
X117801578Y-88850500D01*
X117801583Y-88850500D01*
X117998422Y-88850500D01*
X118192826Y-88819709D01*
X118380025Y-88758884D01*
X118555405Y-88669524D01*
X118714646Y-88553828D01*
X118853828Y-88414646D01*
X118969524Y-88255405D01*
X119058884Y-88080025D01*
X119119709Y-87892826D01*
X119125199Y-87858164D01*
X119150500Y-87698422D01*
X119150500Y-87643017D01*
X119170185Y-87575978D01*
X119222989Y-87530223D01*
X119292147Y-87520279D01*
X119355703Y-87549304D01*
X119380232Y-87578235D01*
X119382139Y-87581348D01*
X119502417Y-87746894D01*
X119502417Y-87746895D01*
X119647104Y-87891582D01*
X119812650Y-88011859D01*
X119994968Y-88104754D01*
X120189578Y-88167988D01*
X120244000Y-88176607D01*
X120244000Y-87344975D01*
X120279095Y-87380070D01*
X120358905Y-87426148D01*
X120447922Y-87450000D01*
X120540078Y-87450000D01*
X120629095Y-87426148D01*
X120708905Y-87380070D01*
X120744000Y-87344975D01*
X120744000Y-88176606D01*
X120798421Y-88167988D01*
X120993031Y-88104754D01*
X121175349Y-88011859D01*
X121340894Y-87891582D01*
X121340895Y-87891582D01*
X121485581Y-87746896D01*
X121550087Y-87658111D01*
X121605417Y-87615445D01*
X121675030Y-87609466D01*
X121736826Y-87642071D01*
X121771183Y-87702910D01*
X121767195Y-87772665D01*
X121764968Y-87778447D01*
X121731949Y-87858164D01*
X121731947Y-87858170D01*
X121693500Y-88051456D01*
X121693500Y-88051459D01*
X121693500Y-88248541D01*
X121693500Y-88248543D01*
X121693499Y-88248543D01*
X121731947Y-88441829D01*
X121731950Y-88441839D01*
X121807364Y-88623907D01*
X121807371Y-88623920D01*
X121916860Y-88787781D01*
X121916863Y-88787785D01*
X122056214Y-88927136D01*
X122056218Y-88927139D01*
X122220079Y-89036628D01*
X122225456Y-89039502D01*
X122224665Y-89040980D01*
X122272813Y-89079775D01*
X122294881Y-89146068D01*
X122277605Y-89213769D01*
X122226470Y-89261381D01*
X122170960Y-89274500D01*
X105702500Y-89274500D01*
X105635461Y-89254815D01*
X105589706Y-89202011D01*
X105578500Y-89150500D01*
X105578500Y-78794666D01*
X105598185Y-78727627D01*
X105650989Y-78681872D01*
X105720147Y-78671928D01*
X105783703Y-78700953D01*
X105812985Y-78738371D01*
X105902141Y-78913350D01*
X105902147Y-78913359D01*
X105934523Y-78957921D01*
X105934524Y-78957922D01*
X106614000Y-78278446D01*
X106614000Y-78284661D01*
X106641259Y-78386394D01*
X106693920Y-78477606D01*
X106768394Y-78552080D01*
X106859606Y-78604741D01*
X106961339Y-78632000D01*
X106967553Y-78632000D01*
X106288076Y-79311474D01*
X106332650Y-79343859D01*
X106514968Y-79436755D01*
X106709582Y-79499990D01*
X106911683Y-79532000D01*
X107116317Y-79532000D01*
X107318417Y-79499990D01*
X107513031Y-79436755D01*
X107695349Y-79343859D01*
X107739921Y-79311474D01*
X107060447Y-78632000D01*
X107066661Y-78632000D01*
X107168394Y-78604741D01*
X107259606Y-78552080D01*
X107334080Y-78477606D01*
X107386741Y-78386394D01*
X107414000Y-78284661D01*
X107414000Y-78278447D01*
X108093474Y-78957921D01*
X108125859Y-78913349D01*
X108218755Y-78731031D01*
X108232973Y-78687273D01*
X108819500Y-78687273D01*
X108819500Y-78693857D01*
X108819500Y-80062726D01*
X108846793Y-80164589D01*
X108873156Y-80210250D01*
X108899520Y-80255913D01*
X108899521Y-80255914D01*
X108899522Y-80255915D01*
X109657179Y-81013571D01*
X109657189Y-81013582D01*
X109661519Y-81017912D01*
X109661520Y-81017913D01*
X109736087Y-81092480D01*
X109827413Y-81145207D01*
X109929273Y-81172501D01*
X109929275Y-81172501D01*
X110042323Y-81172501D01*
X110042339Y-81172500D01*
X116527500Y-81172500D01*
X116594539Y-81192185D01*
X116640294Y-81244989D01*
X116651500Y-81296500D01*
X116651500Y-81316752D01*
X116663131Y-81375229D01*
X116663132Y-81375230D01*
X116707447Y-81441552D01*
X116773769Y-81485867D01*
X116773770Y-81485868D01*
X116832247Y-81497499D01*
X116832250Y-81497500D01*
X116832252Y-81497500D01*
X118371750Y-81497500D01*
X118371751Y-81497499D01*
X118386568Y-81494552D01*
X118430229Y-81485868D01*
X118430229Y-81485867D01*
X118430231Y-81485867D01*
X118496552Y-81441552D01*
X118540867Y-81375231D01*
X118540867Y-81375229D01*
X118540868Y-81375229D01*
X118552499Y-81316752D01*
X118552500Y-81316750D01*
X118552500Y-81248543D01*
X121693499Y-81248543D01*
X121731947Y-81441829D01*
X121731950Y-81441839D01*
X121807364Y-81623907D01*
X121807371Y-81623920D01*
X121916860Y-81787781D01*
X121916863Y-81787785D01*
X122056214Y-81927136D01*
X122056218Y-81927139D01*
X122220079Y-82036628D01*
X122220092Y-82036635D01*
X122402160Y-82112049D01*
X122402165Y-82112051D01*
X122402169Y-82112051D01*
X122402170Y-82112052D01*
X122595456Y-82150500D01*
X122595459Y-82150500D01*
X122792543Y-82150500D01*
X122922582Y-82124632D01*
X122985835Y-82112051D01*
X123167914Y-82036632D01*
X123331782Y-81927139D01*
X123471139Y-81787782D01*
X123580632Y-81623914D01*
X123590610Y-81599826D01*
X123656049Y-81441839D01*
X123656051Y-81441835D01*
X123680933Y-81316748D01*
X123694500Y-81248543D01*
X123694500Y-81051456D01*
X123656052Y-80858170D01*
X123656051Y-80858169D01*
X123656051Y-80858165D01*
X123626423Y-80786635D01*
X123580635Y-80676092D01*
X123580628Y-80676079D01*
X123471139Y-80512218D01*
X123471136Y-80512214D01*
X123331785Y-80372863D01*
X123331781Y-80372860D01*
X123167920Y-80263371D01*
X123167907Y-80263364D01*
X122985839Y-80187950D01*
X122985829Y-80187947D01*
X122792543Y-80149500D01*
X122792541Y-80149500D01*
X122595459Y-80149500D01*
X122595457Y-80149500D01*
X122402170Y-80187947D01*
X122402160Y-80187950D01*
X122220092Y-80263364D01*
X122220079Y-80263371D01*
X122056218Y-80372860D01*
X122056214Y-80372863D01*
X121916863Y-80512214D01*
X121916860Y-80512218D01*
X121807371Y-80676079D01*
X121807364Y-80676092D01*
X121731950Y-80858160D01*
X121731947Y-80858170D01*
X121693500Y-81051456D01*
X121693500Y-81051459D01*
X121693500Y-81248541D01*
X121693500Y-81248543D01*
X121693499Y-81248543D01*
X118552500Y-81248543D01*
X118552500Y-80227249D01*
X118552499Y-80227247D01*
X118540868Y-80168770D01*
X118540867Y-80168769D01*
X118496552Y-80102447D01*
X118462625Y-80079778D01*
X118417820Y-80026165D01*
X118414351Y-79998543D01*
X119493499Y-79998543D01*
X119531947Y-80191829D01*
X119531950Y-80191839D01*
X119607364Y-80373907D01*
X119607371Y-80373920D01*
X119716860Y-80537781D01*
X119716863Y-80537785D01*
X119856214Y-80677136D01*
X119856218Y-80677139D01*
X120020079Y-80786628D01*
X120020092Y-80786635D01*
X120116189Y-80826439D01*
X120202165Y-80862051D01*
X120202169Y-80862051D01*
X120202170Y-80862052D01*
X120395456Y-80900500D01*
X120395459Y-80900500D01*
X120592543Y-80900500D01*
X120722582Y-80874632D01*
X120785835Y-80862051D01*
X120967914Y-80786632D01*
X121131782Y-80677139D01*
X121271139Y-80537782D01*
X121380632Y-80373914D01*
X121456051Y-80191835D01*
X121480399Y-80069432D01*
X121494500Y-79998543D01*
X121494500Y-79401456D01*
X121456052Y-79208170D01*
X121456051Y-79208169D01*
X121456051Y-79208165D01*
X121449287Y-79191835D01*
X121380635Y-79026092D01*
X121380628Y-79026079D01*
X121271139Y-78862218D01*
X121271136Y-78862214D01*
X121131785Y-78722863D01*
X121131781Y-78722860D01*
X120967920Y-78613371D01*
X120967907Y-78613364D01*
X120785839Y-78537950D01*
X120785829Y-78537947D01*
X120592543Y-78499500D01*
X120592541Y-78499500D01*
X120395459Y-78499500D01*
X120395457Y-78499500D01*
X120202170Y-78537947D01*
X120202160Y-78537950D01*
X120020092Y-78613364D01*
X120020079Y-78613371D01*
X119856218Y-78722860D01*
X119856214Y-78722863D01*
X119716863Y-78862214D01*
X119716860Y-78862218D01*
X119607371Y-79026079D01*
X119607364Y-79026092D01*
X119531950Y-79208160D01*
X119531947Y-79208170D01*
X119493500Y-79401456D01*
X119493500Y-79401459D01*
X119493500Y-79998541D01*
X119493500Y-79998543D01*
X119493499Y-79998543D01*
X118414351Y-79998543D01*
X118409113Y-79956840D01*
X118428414Y-79907785D01*
X118469925Y-79845659D01*
X118469925Y-79845658D01*
X118469929Y-79845653D01*
X118524619Y-79713620D01*
X118533742Y-79667751D01*
X118552500Y-79573457D01*
X118552500Y-79430543D01*
X118550315Y-79419560D01*
X118550315Y-79419559D01*
X118524620Y-79290385D01*
X118524619Y-79290384D01*
X118524619Y-79290380D01*
X118469929Y-79158347D01*
X118469928Y-79158346D01*
X118469925Y-79158340D01*
X118390532Y-79039521D01*
X118390529Y-79039517D01*
X118305693Y-78954681D01*
X118272208Y-78893358D01*
X118277192Y-78823666D01*
X118305693Y-78779319D01*
X118390529Y-78694482D01*
X118390532Y-78694479D01*
X118469929Y-78575653D01*
X118524619Y-78443620D01*
X118552500Y-78303455D01*
X118552500Y-78160545D01*
X118552500Y-78160542D01*
X118524620Y-78020385D01*
X118524619Y-78020384D01*
X118524619Y-78020380D01*
X118469929Y-77888347D01*
X118469928Y-77888346D01*
X118469925Y-77888340D01*
X118390532Y-77769521D01*
X118390529Y-77769517D01*
X118289482Y-77668470D01*
X118289478Y-77668467D01*
X118170659Y-77589074D01*
X118170649Y-77589069D01*
X118079047Y-77551126D01*
X118024644Y-77507285D01*
X118002579Y-77440990D01*
X118002500Y-77436565D01*
X118002500Y-74131255D01*
X118022185Y-74064216D01*
X118038819Y-74043574D01*
X119001574Y-73080819D01*
X119062897Y-73047334D01*
X119089255Y-73044500D01*
X120474003Y-73044500D01*
X120474005Y-73044500D01*
X120575866Y-73017207D01*
X120667191Y-72964480D01*
X122368480Y-71263191D01*
X122389086Y-71227500D01*
X122421207Y-71171865D01*
X122448500Y-71070005D01*
X122448500Y-69786729D01*
X122448501Y-69786716D01*
X122448501Y-69671274D01*
X122445969Y-69661826D01*
X122421207Y-69569413D01*
X122421206Y-69569412D01*
X122421206Y-69569410D01*
X122421205Y-69569409D01*
X122405180Y-69541653D01*
X122405179Y-69541652D01*
X122368480Y-69478087D01*
X122293913Y-69403520D01*
X122293911Y-69403518D01*
X121911913Y-69021520D01*
X121904497Y-69017238D01*
X121856284Y-68966672D01*
X121842500Y-68909853D01*
X121842500Y-68822249D01*
X121842499Y-68822247D01*
X121830868Y-68763770D01*
X121830867Y-68763769D01*
X121786552Y-68697447D01*
X121720230Y-68653132D01*
X121720229Y-68653131D01*
X121661752Y-68641500D01*
X121661748Y-68641500D01*
X120122252Y-68641500D01*
X120122247Y-68641500D01*
X120063770Y-68653131D01*
X120063769Y-68653132D01*
X119997447Y-68697447D01*
X119953132Y-68763769D01*
X119953131Y-68763770D01*
X119941500Y-68822247D01*
X119941500Y-69861752D01*
X119955515Y-69932209D01*
X119954106Y-69932489D01*
X119954526Y-69936199D01*
X119961130Y-69951641D01*
X119959583Y-69980834D01*
X119960273Y-69986925D01*
X119957787Y-70001662D01*
X119956851Y-70002837D01*
X119936500Y-70092000D01*
X119936500Y-70127882D01*
X119934773Y-70138122D01*
X119923850Y-70160580D01*
X119916815Y-70184539D01*
X119908834Y-70191454D01*
X119904214Y-70200954D01*
X119882881Y-70213942D01*
X119864011Y-70230294D01*
X119851587Y-70232996D01*
X119844536Y-70237290D01*
X119833125Y-70237012D01*
X119812500Y-70241500D01*
X119443500Y-70241500D01*
X119376461Y-70221815D01*
X119330706Y-70169011D01*
X119319500Y-70117500D01*
X119319500Y-70091997D01*
X119319499Y-70091995D01*
X119314578Y-70048317D01*
X119314348Y-70046272D01*
X119304184Y-70025166D01*
X119292830Y-69956225D01*
X119301346Y-69923900D01*
X119302863Y-69920236D01*
X119302867Y-69920231D01*
X119314500Y-69861748D01*
X119314500Y-68822252D01*
X119314500Y-68822249D01*
X119314499Y-68822247D01*
X119302868Y-68763770D01*
X119302867Y-68763769D01*
X119258552Y-68697447D01*
X119192230Y-68653132D01*
X119192229Y-68653131D01*
X119133752Y-68641500D01*
X119133748Y-68641500D01*
X117647362Y-68641500D01*
X117580323Y-68621815D01*
X117534568Y-68569011D01*
X117526827Y-68542062D01*
X117526603Y-68542123D01*
X117520825Y-68520559D01*
X117497207Y-68432413D01*
X117444480Y-68341087D01*
X117369913Y-68266520D01*
X116824913Y-67721520D01*
X116733588Y-67668793D01*
X116706926Y-67661649D01*
X116647268Y-67625284D01*
X116640647Y-67617361D01*
X116619412Y-67589687D01*
X116619407Y-67589681D01*
X116526316Y-67496590D01*
X116483759Y-67463934D01*
X116369745Y-67398108D01*
X116369731Y-67398101D01*
X116320188Y-67377580D01*
X116320181Y-67377578D01*
X116193014Y-67343503D01*
X116193009Y-67343502D01*
X116193007Y-67343502D01*
X116139832Y-67336500D01*
X116139826Y-67336500D01*
X115508174Y-67336500D01*
X115508167Y-67336500D01*
X115454992Y-67343502D01*
X115454986Y-67343503D01*
X115327811Y-67377580D01*
X115278268Y-67398101D01*
X115278254Y-67398108D01*
X115164240Y-67463934D01*
X115121683Y-67496590D01*
X115028592Y-67589681D01*
X115028582Y-67589692D01*
X115026054Y-67592988D01*
X114969626Y-67634190D01*
X114927680Y-67641500D01*
X114180320Y-67641500D01*
X114113281Y-67621815D01*
X114081946Y-67592988D01*
X114079417Y-67589692D01*
X114079407Y-67589681D01*
X113986316Y-67496590D01*
X113943759Y-67463934D01*
X113829745Y-67398108D01*
X113829731Y-67398101D01*
X113780188Y-67377580D01*
X113780181Y-67377578D01*
X113653014Y-67343503D01*
X113653009Y-67343502D01*
X113653007Y-67343502D01*
X113599832Y-67336500D01*
X113599826Y-67336500D01*
X112968174Y-67336500D01*
X112968167Y-67336500D01*
X112914992Y-67343502D01*
X112914986Y-67343503D01*
X112787811Y-67377580D01*
X112738268Y-67398101D01*
X112738254Y-67398108D01*
X112624240Y-67463934D01*
X112581683Y-67496590D01*
X112488590Y-67589683D01*
X112455934Y-67632240D01*
X112390108Y-67746254D01*
X112390101Y-67746268D01*
X112369580Y-67795811D01*
X112335503Y-67922986D01*
X112335502Y-67922992D01*
X112328500Y-67976167D01*
X112328500Y-68592004D01*
X112333652Y-68637728D01*
X112333652Y-68637730D01*
X112343815Y-68658832D01*
X112355168Y-68727773D01*
X112353314Y-68738755D01*
X112349252Y-68757603D01*
X112345133Y-68763769D01*
X112333500Y-68822252D01*
X112333500Y-68830709D01*
X112330718Y-68843620D01*
X112320085Y-68863182D01*
X112313815Y-68884539D01*
X112303729Y-68893278D01*
X112297354Y-68905009D01*
X112277832Y-68915718D01*
X112261011Y-68930294D01*
X112244855Y-68933808D01*
X112236096Y-68938614D01*
X112225995Y-68937911D01*
X112209500Y-68941500D01*
X112081273Y-68941500D01*
X111979410Y-68968793D01*
X111888087Y-69021520D01*
X111888084Y-69021522D01*
X111439522Y-69470084D01*
X111439520Y-69470087D01*
X111386793Y-69561411D01*
X111362296Y-69652838D01*
X111359500Y-69663272D01*
X111359500Y-71172726D01*
X111386793Y-71274589D01*
X111405756Y-71307433D01*
X111439520Y-71365913D01*
X111439522Y-71365915D01*
X111831181Y-71757574D01*
X111864666Y-71818897D01*
X111867500Y-71845255D01*
X111867500Y-75474745D01*
X111847815Y-75541784D01*
X111831181Y-75562426D01*
X108899522Y-78494084D01*
X108899518Y-78494090D01*
X108846792Y-78585413D01*
X108846791Y-78585413D01*
X108835065Y-78629182D01*
X108835060Y-78629202D01*
X108834650Y-78630733D01*
X108819500Y-78687273D01*
X108232973Y-78687273D01*
X108248065Y-78640827D01*
X108281990Y-78536417D01*
X108314000Y-78334317D01*
X108314000Y-78129682D01*
X108281990Y-77927582D01*
X108218755Y-77732968D01*
X108125859Y-77550650D01*
X108093474Y-77506077D01*
X108093474Y-77506076D01*
X107414000Y-78185551D01*
X107414000Y-78179339D01*
X107386741Y-78077606D01*
X107334080Y-77986394D01*
X107259606Y-77911920D01*
X107168394Y-77859259D01*
X107066661Y-77832000D01*
X107060446Y-77832000D01*
X107739922Y-77152524D01*
X107739921Y-77152523D01*
X107695359Y-77120147D01*
X107695350Y-77120141D01*
X107513031Y-77027244D01*
X107318417Y-76964009D01*
X107116317Y-76932000D01*
X106911683Y-76932000D01*
X106709582Y-76964009D01*
X106514968Y-77027244D01*
X106332644Y-77120143D01*
X106288077Y-77152523D01*
X106288077Y-77152524D01*
X106967554Y-77832000D01*
X106961339Y-77832000D01*
X106859606Y-77859259D01*
X106768394Y-77911920D01*
X106693920Y-77986394D01*
X106641259Y-78077606D01*
X106614000Y-78179339D01*
X106614000Y-78185553D01*
X105934524Y-77506077D01*
X105934523Y-77506077D01*
X105902143Y-77550644D01*
X105812985Y-77725628D01*
X105765010Y-77776424D01*
X105697189Y-77793219D01*
X105631054Y-77770682D01*
X105587603Y-77715966D01*
X105578500Y-77669333D01*
X105578500Y-72761659D01*
X107783480Y-72761659D01*
X107783480Y-72951264D01*
X107820466Y-73137205D01*
X107820468Y-73137213D01*
X107893022Y-73312374D01*
X107998357Y-73470020D01*
X108132421Y-73604084D01*
X108167243Y-73627351D01*
X108290065Y-73709418D01*
X108465229Y-73781974D01*
X108651177Y-73818961D01*
X108651181Y-73818962D01*
X108651182Y-73818962D01*
X108840779Y-73818962D01*
X108840780Y-73818961D01*
X109026731Y-73781974D01*
X109080529Y-73759689D01*
X109149997Y-73752221D01*
X109212476Y-73783496D01*
X109248129Y-73843584D01*
X109245636Y-73913410D01*
X109231084Y-73943141D01*
X109197042Y-73994088D01*
X109124488Y-74169248D01*
X109124486Y-74169256D01*
X109094884Y-74318077D01*
X109062499Y-74379988D01*
X109001784Y-74414562D01*
X108949076Y-74415503D01*
X108840782Y-74393962D01*
X108840778Y-74393962D01*
X108651182Y-74393962D01*
X108651177Y-74393962D01*
X108465236Y-74430948D01*
X108465228Y-74430950D01*
X108290067Y-74503504D01*
X108132421Y-74608839D01*
X107998357Y-74742903D01*
X107893022Y-74900549D01*
X107820468Y-75075710D01*
X107820466Y-75075718D01*
X107783480Y-75261659D01*
X107783480Y-75451264D01*
X107820466Y-75637205D01*
X107820468Y-75637213D01*
X107893022Y-75812374D01*
X107998357Y-75970020D01*
X108132421Y-76104084D01*
X108237280Y-76174148D01*
X108290065Y-76209418D01*
X108465229Y-76281974D01*
X108603201Y-76309418D01*
X108651177Y-76318961D01*
X108651181Y-76318962D01*
X108651182Y-76318962D01*
X108840779Y-76318962D01*
X108840780Y-76318961D01*
X109026731Y-76281974D01*
X109201895Y-76209418D01*
X109359538Y-76104084D01*
X109493602Y-75970020D01*
X109598936Y-75812377D01*
X109671492Y-75637213D01*
X109701096Y-75488380D01*
X109733479Y-75426474D01*
X109794194Y-75391899D01*
X109846902Y-75390958D01*
X109955200Y-75412499D01*
X109955201Y-75412500D01*
X109955202Y-75412500D01*
X110144799Y-75412500D01*
X110144800Y-75412499D01*
X110330751Y-75375512D01*
X110505915Y-75302956D01*
X110663558Y-75197622D01*
X110797622Y-75063558D01*
X110902956Y-74905915D01*
X110975512Y-74730751D01*
X111012500Y-74544798D01*
X111012500Y-74355202D01*
X110975512Y-74169249D01*
X110902956Y-73994085D01*
X110814214Y-73861273D01*
X110797622Y-73836441D01*
X110663558Y-73702377D01*
X110505912Y-73597042D01*
X110330751Y-73524488D01*
X110330743Y-73524486D01*
X110144802Y-73487500D01*
X110144798Y-73487500D01*
X109955202Y-73487500D01*
X109955197Y-73487500D01*
X109769256Y-73524486D01*
X109769249Y-73524488D01*
X109715449Y-73546772D01*
X109645980Y-73554239D01*
X109583501Y-73522964D01*
X109547849Y-73462874D01*
X109550344Y-73393049D01*
X109564893Y-73363324D01*
X109598936Y-73312377D01*
X109671492Y-73137213D01*
X109701096Y-72988380D01*
X109733479Y-72926474D01*
X109794194Y-72891899D01*
X109846902Y-72890958D01*
X109955200Y-72912499D01*
X109955201Y-72912500D01*
X109955202Y-72912500D01*
X110144799Y-72912500D01*
X110144800Y-72912499D01*
X110330751Y-72875512D01*
X110505915Y-72802956D01*
X110663558Y-72697622D01*
X110797622Y-72563558D01*
X110902956Y-72405915D01*
X110975512Y-72230751D01*
X111012500Y-72044798D01*
X111012500Y-71855202D01*
X110975512Y-71669249D01*
X110902956Y-71494085D01*
X110858270Y-71427208D01*
X110797622Y-71336441D01*
X110663558Y-71202377D01*
X110505912Y-71097042D01*
X110330751Y-71024488D01*
X110330743Y-71024486D01*
X110144802Y-70987500D01*
X110144798Y-70987500D01*
X109955202Y-70987500D01*
X109955197Y-70987500D01*
X109769256Y-71024486D01*
X109769248Y-71024488D01*
X109594087Y-71097042D01*
X109436441Y-71202377D01*
X109302377Y-71336441D01*
X109197042Y-71494087D01*
X109124488Y-71669248D01*
X109124486Y-71669256D01*
X109094884Y-71818077D01*
X109062499Y-71879988D01*
X109001784Y-71914562D01*
X108949076Y-71915503D01*
X108840782Y-71893962D01*
X108840778Y-71893962D01*
X108651182Y-71893962D01*
X108651177Y-71893962D01*
X108465236Y-71930948D01*
X108465228Y-71930950D01*
X108290067Y-72003504D01*
X108132421Y-72108839D01*
X107998357Y-72242903D01*
X107893022Y-72400549D01*
X107820468Y-72575710D01*
X107820466Y-72575718D01*
X107783480Y-72761659D01*
X105578500Y-72761659D01*
X105578500Y-60362409D01*
X106074156Y-60362409D01*
X106074156Y-60552014D01*
X106111142Y-60737955D01*
X106111144Y-60737963D01*
X106183698Y-60913124D01*
X106289033Y-61070770D01*
X106423097Y-61204834D01*
X106508717Y-61262043D01*
X106580741Y-61310168D01*
X106755905Y-61382724D01*
X106917244Y-61414816D01*
X106941853Y-61419711D01*
X106941857Y-61419712D01*
X106941858Y-61419712D01*
X107131455Y-61419712D01*
X107131456Y-61419711D01*
X107317407Y-61382724D01*
X107492571Y-61310168D01*
X107650214Y-61204834D01*
X107784278Y-61070770D01*
X107889612Y-60913127D01*
X107962168Y-60737963D01*
X107999156Y-60552010D01*
X107999156Y-60362414D01*
X107962168Y-60176461D01*
X107889612Y-60001297D01*
X107854342Y-59948512D01*
X107784278Y-59843653D01*
X107650214Y-59709589D01*
X107492568Y-59604254D01*
X107317407Y-59531700D01*
X107317399Y-59531698D01*
X107131458Y-59494712D01*
X107131454Y-59494712D01*
X106941858Y-59494712D01*
X106941853Y-59494712D01*
X106755912Y-59531698D01*
X106755904Y-59531700D01*
X106580743Y-59604254D01*
X106423097Y-59709589D01*
X106289033Y-59843653D01*
X106183698Y-60001299D01*
X106111144Y-60176460D01*
X106111142Y-60176468D01*
X106074156Y-60362409D01*
X105578500Y-60362409D01*
X105578500Y-58296293D01*
X105598185Y-58229254D01*
X105650989Y-58183499D01*
X105720147Y-58173555D01*
X105783703Y-58202580D01*
X105820431Y-58257975D01*
X105867113Y-58401649D01*
X105957297Y-58578644D01*
X105984386Y-58615927D01*
X105984387Y-58615928D01*
X106594517Y-58005797D01*
X106617323Y-58090906D01*
X106676566Y-58193518D01*
X106760350Y-58277302D01*
X106862962Y-58336545D01*
X106948070Y-58359349D01*
X106337939Y-58969480D01*
X106337939Y-58969481D01*
X106375223Y-58996570D01*
X106552218Y-59086754D01*
X106741133Y-59148136D01*
X106937335Y-59179212D01*
X107135977Y-59179212D01*
X107332176Y-59148136D01*
X107332179Y-59148136D01*
X107521093Y-59086754D01*
X107698081Y-58996574D01*
X107735372Y-58969480D01*
X107125241Y-58359349D01*
X107210350Y-58336545D01*
X107312962Y-58277302D01*
X107396746Y-58193518D01*
X107455989Y-58090906D01*
X107478794Y-58005797D01*
X108088924Y-58615927D01*
X108116018Y-58578637D01*
X108206198Y-58401649D01*
X108267580Y-58212735D01*
X108267580Y-58212732D01*
X108298656Y-58016533D01*
X108298656Y-57817890D01*
X108267580Y-57621691D01*
X108267580Y-57621688D01*
X108206198Y-57432774D01*
X108116014Y-57255779D01*
X108088924Y-57218495D01*
X107478793Y-57828626D01*
X107455989Y-57743518D01*
X107396746Y-57640906D01*
X107312962Y-57557122D01*
X107210350Y-57497879D01*
X107125241Y-57475073D01*
X107735372Y-56864943D01*
X107735371Y-56864942D01*
X107698088Y-56837853D01*
X107521093Y-56747669D01*
X107332178Y-56686287D01*
X107135977Y-56655212D01*
X106937335Y-56655212D01*
X106741135Y-56686287D01*
X106741132Y-56686287D01*
X106552218Y-56747669D01*
X106375220Y-56837855D01*
X106337939Y-56864941D01*
X106337938Y-56864942D01*
X106948071Y-57475073D01*
X106862962Y-57497879D01*
X106760350Y-57557122D01*
X106676566Y-57640906D01*
X106617323Y-57743518D01*
X106594517Y-57828626D01*
X105984386Y-57218494D01*
X105984385Y-57218495D01*
X105957299Y-57255776D01*
X105867113Y-57432774D01*
X105820431Y-57576448D01*
X105780993Y-57634124D01*
X105716635Y-57661322D01*
X105647788Y-57649407D01*
X105596313Y-57602163D01*
X105578500Y-57538130D01*
X105578500Y-55282409D01*
X106074156Y-55282409D01*
X106074156Y-55472014D01*
X106111142Y-55657955D01*
X106111144Y-55657963D01*
X106183698Y-55833124D01*
X106289033Y-55990770D01*
X106423097Y-56124834D01*
X106527956Y-56194898D01*
X106580741Y-56230168D01*
X106755905Y-56302724D01*
X106941853Y-56339711D01*
X106941857Y-56339712D01*
X106941858Y-56339712D01*
X107131455Y-56339712D01*
X107131456Y-56339711D01*
X107317407Y-56302724D01*
X107492571Y-56230168D01*
X107650214Y-56124834D01*
X107784278Y-55990770D01*
X107889612Y-55833127D01*
X107962168Y-55657963D01*
X107999156Y-55472010D01*
X107999156Y-55282414D01*
X107962168Y-55096461D01*
X107889612Y-54921297D01*
X107854342Y-54868512D01*
X107784278Y-54763653D01*
X107650214Y-54629589D01*
X107492568Y-54524254D01*
X107317407Y-54451700D01*
X107317399Y-54451698D01*
X107131458Y-54414712D01*
X107131454Y-54414712D01*
X106941858Y-54414712D01*
X106941853Y-54414712D01*
X106755912Y-54451698D01*
X106755904Y-54451700D01*
X106580743Y-54524254D01*
X106423097Y-54629589D01*
X106423096Y-54629591D01*
X106289036Y-54763650D01*
X106289033Y-54763653D01*
X106183698Y-54921299D01*
X106111144Y-55096460D01*
X106111142Y-55096468D01*
X106074156Y-55282409D01*
X105578500Y-55282409D01*
X105578500Y-47221784D01*
X105598185Y-47154745D01*
X105650989Y-47108990D01*
X105720147Y-47099046D01*
X105783703Y-47128071D01*
G37*
%TD.AperFunction*%
%TA.AperFunction,Conductor*%
G36*
X125502620Y-79753600D02*
G01*
X125534665Y-79762391D01*
X125535894Y-79763759D01*
X125537654Y-79764297D01*
X125559146Y-79789645D01*
X125581356Y-79814369D01*
X125581811Y-79816374D01*
X125582840Y-79817588D01*
X125583904Y-79825599D01*
X125593500Y-79867887D01*
X125593500Y-89150500D01*
X125573815Y-89217539D01*
X125521011Y-89263294D01*
X125469500Y-89274500D01*
X123217040Y-89274500D01*
X123150001Y-89254815D01*
X123104246Y-89202011D01*
X123094302Y-89132853D01*
X123123327Y-89069297D01*
X123163129Y-89040597D01*
X123162544Y-89039502D01*
X123167907Y-89036634D01*
X123167914Y-89036632D01*
X123331782Y-88927139D01*
X123471139Y-88787782D01*
X123580632Y-88623914D01*
X123656051Y-88441835D01*
X123684371Y-88299464D01*
X123694500Y-88248543D01*
X123694500Y-88051456D01*
X123656052Y-87858170D01*
X123656051Y-87858169D01*
X123656051Y-87858165D01*
X123610421Y-87748003D01*
X123580635Y-87676092D01*
X123580628Y-87676079D01*
X123471139Y-87512218D01*
X123471136Y-87512214D01*
X123331785Y-87372863D01*
X123331781Y-87372860D01*
X123167920Y-87263371D01*
X123167907Y-87263364D01*
X122985839Y-87187950D01*
X122985829Y-87187947D01*
X122792543Y-87149500D01*
X122792541Y-87149500D01*
X122595459Y-87149500D01*
X122595457Y-87149500D01*
X122402170Y-87187947D01*
X122402160Y-87187950D01*
X122220092Y-87263364D01*
X122220079Y-87263371D01*
X122056218Y-87372860D01*
X122056214Y-87372863D01*
X121916863Y-87512214D01*
X121912997Y-87516926D01*
X121911344Y-87515569D01*
X121865130Y-87554168D01*
X121795802Y-87562853D01*
X121732784Y-87532678D01*
X121696084Y-87473223D01*
X121697353Y-87403365D01*
X121697745Y-87402137D01*
X121761990Y-87204417D01*
X121794000Y-87002317D01*
X121794000Y-86950000D01*
X120844000Y-86950000D01*
X120844000Y-86450000D01*
X121794000Y-86450000D01*
X121794000Y-86397682D01*
X121761990Y-86195582D01*
X121698755Y-86000968D01*
X121637014Y-85879795D01*
X121624118Y-85811126D01*
X121650394Y-85746385D01*
X121707501Y-85706128D01*
X121747499Y-85699500D01*
X121763725Y-85699500D01*
X121763727Y-85699500D01*
X121865588Y-85672207D01*
X121956913Y-85619480D01*
X125139910Y-82436481D01*
X125139913Y-82436480D01*
X125214480Y-82361913D01*
X125240843Y-82316250D01*
X125267207Y-82270588D01*
X125294500Y-82168727D01*
X125294500Y-82063273D01*
X125294500Y-79899895D01*
X125314185Y-79832856D01*
X125352583Y-79794866D01*
X125361410Y-79789325D01*
X125367914Y-79786632D01*
X125402122Y-79763774D01*
X125403583Y-79762858D01*
X125435589Y-79753831D01*
X125467285Y-79743907D01*
X125469058Y-79744393D01*
X125470830Y-79743894D01*
X125502620Y-79753600D01*
G37*
%TD.AperFunction*%
%TA.AperFunction,Conductor*%
G36*
X108829996Y-24895185D02*
G01*
X108875751Y-24947989D01*
X108885695Y-25017147D01*
X108856670Y-25080703D01*
X108850638Y-25087181D01*
X108766380Y-25171438D01*
X108766377Y-25171441D01*
X108661042Y-25329087D01*
X108588488Y-25504248D01*
X108588486Y-25504256D01*
X108551500Y-25690197D01*
X108551500Y-25879802D01*
X108588486Y-26065743D01*
X108588488Y-26065751D01*
X108661042Y-26240912D01*
X108766377Y-26398558D01*
X108900441Y-26532622D01*
X109005300Y-26602686D01*
X109058085Y-26637956D01*
X109233249Y-26710512D01*
X109419197Y-26747499D01*
X109419201Y-26747500D01*
X109419202Y-26747500D01*
X109608799Y-26747500D01*
X109608800Y-26747499D01*
X109794751Y-26710512D01*
X109969915Y-26637956D01*
X110127558Y-26532622D01*
X110261622Y-26398558D01*
X110366956Y-26240915D01*
X110439512Y-26065751D01*
X110476500Y-25879798D01*
X110476500Y-25690202D01*
X110439512Y-25504249D01*
X110366956Y-25329085D01*
X110331686Y-25276300D01*
X110261622Y-25171441D01*
X110177362Y-25087181D01*
X110143877Y-25025858D01*
X110148861Y-24956166D01*
X110190733Y-24900233D01*
X110256197Y-24875816D01*
X110265043Y-24875500D01*
X123962957Y-24875500D01*
X124029996Y-24895185D01*
X124075751Y-24947989D01*
X124085695Y-25017147D01*
X124056670Y-25080703D01*
X124050638Y-25087181D01*
X123966380Y-25171438D01*
X123966377Y-25171441D01*
X123861042Y-25329087D01*
X123788488Y-25504248D01*
X123788486Y-25504256D01*
X123751500Y-25690197D01*
X123751500Y-25879802D01*
X123788486Y-26065743D01*
X123788488Y-26065751D01*
X123861042Y-26240912D01*
X123966377Y-26398558D01*
X124100441Y-26532622D01*
X124205300Y-26602686D01*
X124258085Y-26637956D01*
X124433249Y-26710512D01*
X124619197Y-26747499D01*
X124619201Y-26747500D01*
X124619202Y-26747500D01*
X124808799Y-26747500D01*
X124808800Y-26747499D01*
X124994751Y-26710512D01*
X125169915Y-26637956D01*
X125327558Y-26532622D01*
X125327561Y-26532619D01*
X125381819Y-26478362D01*
X125443142Y-26444877D01*
X125512834Y-26449861D01*
X125568767Y-26491733D01*
X125593184Y-26557197D01*
X125593500Y-26566043D01*
X125593500Y-27160712D01*
X125573815Y-27227751D01*
X125521011Y-27273506D01*
X125451853Y-27283450D01*
X125396616Y-27261031D01*
X125375435Y-27245642D01*
X125198437Y-27155457D01*
X125009522Y-27094075D01*
X124813321Y-27063000D01*
X124614679Y-27063000D01*
X124418479Y-27094075D01*
X124418476Y-27094075D01*
X124229562Y-27155457D01*
X124052564Y-27245643D01*
X124015283Y-27272729D01*
X124015282Y-27272730D01*
X124625414Y-27882862D01*
X124540306Y-27905667D01*
X124437694Y-27964910D01*
X124353910Y-28048694D01*
X124294667Y-28151306D01*
X124271861Y-28236414D01*
X123661730Y-27626282D01*
X123661729Y-27626283D01*
X123634643Y-27663564D01*
X123544457Y-27840562D01*
X123483075Y-28029476D01*
X123483075Y-28029479D01*
X123452000Y-28225678D01*
X123452000Y-28424321D01*
X123483075Y-28620520D01*
X123483075Y-28620523D01*
X123544457Y-28809437D01*
X123634641Y-28986432D01*
X123661730Y-29023715D01*
X123661731Y-29023716D01*
X124271861Y-28413585D01*
X124294667Y-28498694D01*
X124353910Y-28601306D01*
X124437694Y-28685090D01*
X124540306Y-28744333D01*
X124625413Y-28767137D01*
X124015283Y-29377268D01*
X124015283Y-29377269D01*
X124052567Y-29404358D01*
X124229562Y-29494542D01*
X124418477Y-29555924D01*
X124614679Y-29587000D01*
X124813321Y-29587000D01*
X125009520Y-29555924D01*
X125009523Y-29555924D01*
X125198437Y-29494542D01*
X125375436Y-29404356D01*
X125396614Y-29388970D01*
X125462420Y-29365489D01*
X125530474Y-29381314D01*
X125579169Y-29431419D01*
X125593500Y-29489287D01*
X125593500Y-30083957D01*
X125573815Y-30150996D01*
X125521011Y-30196751D01*
X125451853Y-30206695D01*
X125388297Y-30177670D01*
X125381819Y-30171638D01*
X125327558Y-30117377D01*
X125169912Y-30012042D01*
X124994751Y-29939488D01*
X124994743Y-29939486D01*
X124808802Y-29902500D01*
X124808798Y-29902500D01*
X124619202Y-29902500D01*
X124619197Y-29902500D01*
X124433256Y-29939486D01*
X124433248Y-29939488D01*
X124258087Y-30012042D01*
X124100441Y-30117377D01*
X123966380Y-30251438D01*
X123966374Y-30251446D01*
X123860841Y-30409389D01*
X123807229Y-30454195D01*
X123757739Y-30464499D01*
X123732273Y-30464499D01*
X123664366Y-30482695D01*
X123630412Y-30491793D01*
X123539084Y-30544522D01*
X122679522Y-31404084D01*
X122679520Y-31404087D01*
X122647584Y-31459402D01*
X122626793Y-31495412D01*
X122609926Y-31558362D01*
X122608013Y-31565501D01*
X122599500Y-31597269D01*
X122599500Y-43271000D01*
X122579815Y-43338039D01*
X122527011Y-43383794D01*
X122475500Y-43395000D01*
X110523306Y-43395000D01*
X110456267Y-43375315D01*
X110410512Y-43322511D01*
X110401689Y-43295191D01*
X110399513Y-43284256D01*
X110399512Y-43284249D01*
X110326956Y-43109085D01*
X110291686Y-43056300D01*
X110221622Y-42951441D01*
X110087558Y-42817377D01*
X109929912Y-42712042D01*
X109754751Y-42639488D01*
X109754743Y-42639486D01*
X109568802Y-42602500D01*
X109568798Y-42602500D01*
X109379202Y-42602500D01*
X109379197Y-42602500D01*
X109193256Y-42639486D01*
X109193248Y-42639488D01*
X109018087Y-42712042D01*
X108860441Y-42817377D01*
X108726377Y-42951441D01*
X108621042Y-43109087D01*
X108548488Y-43284248D01*
X108548486Y-43284256D01*
X108546311Y-43295191D01*
X108513926Y-43357102D01*
X108453211Y-43391676D01*
X108424694Y-43395000D01*
X107729500Y-43395000D01*
X107662461Y-43375315D01*
X107616706Y-43322511D01*
X107605500Y-43271000D01*
X107605500Y-42949997D01*
X107605499Y-42949995D01*
X107600348Y-42904271D01*
X107578856Y-42859644D01*
X107567504Y-42790703D01*
X107583086Y-42753677D01*
X107579087Y-42751752D01*
X107585148Y-42739164D01*
X107585147Y-42739164D01*
X107585149Y-42739163D01*
X107605500Y-42650000D01*
X107605500Y-42084174D01*
X107598497Y-42030986D01*
X107564422Y-41903819D01*
X107564416Y-41903805D01*
X107563397Y-41900801D01*
X107560485Y-41830992D01*
X107593132Y-41773259D01*
X108320480Y-41045913D01*
X108320483Y-41045906D01*
X108325430Y-41039462D01*
X108326602Y-41040361D01*
X108370677Y-40998335D01*
X108439284Y-40985110D01*
X108504149Y-41011077D01*
X108544679Y-41067990D01*
X108551500Y-41108549D01*
X108551500Y-41119802D01*
X108588486Y-41305743D01*
X108588488Y-41305751D01*
X108661042Y-41480912D01*
X108766377Y-41638558D01*
X108900441Y-41772622D01*
X108992484Y-41834123D01*
X109058085Y-41877956D01*
X109233249Y-41950512D01*
X109419197Y-41987499D01*
X109419201Y-41987500D01*
X109419202Y-41987500D01*
X109608799Y-41987500D01*
X109608800Y-41987499D01*
X109794751Y-41950512D01*
X109969915Y-41877956D01*
X110127558Y-41772622D01*
X110261622Y-41638558D01*
X110366956Y-41480915D01*
X110439512Y-41305751D01*
X110476500Y-41119798D01*
X110476500Y-40930202D01*
X110439512Y-40744249D01*
X110366956Y-40569085D01*
X110331686Y-40516300D01*
X110261622Y-40411441D01*
X110127558Y-40277377D01*
X109969912Y-40172042D01*
X109794751Y-40099488D01*
X109794743Y-40099486D01*
X109608802Y-40062500D01*
X109608798Y-40062500D01*
X109419202Y-40062500D01*
X109419197Y-40062500D01*
X109233256Y-40099486D01*
X109233248Y-40099488D01*
X109058087Y-40172042D01*
X108900441Y-40277377D01*
X108766377Y-40411441D01*
X108661043Y-40569085D01*
X108639061Y-40622156D01*
X108595219Y-40676559D01*
X108528925Y-40698623D01*
X108461226Y-40681343D01*
X108413616Y-40630206D01*
X108400500Y-40574702D01*
X108400500Y-38935297D01*
X108420185Y-38868258D01*
X108472989Y-38822503D01*
X108542147Y-38812559D01*
X108605703Y-38841584D01*
X108639061Y-38887844D01*
X108661042Y-38940912D01*
X108766377Y-39098558D01*
X108900441Y-39232622D01*
X109005300Y-39302686D01*
X109058085Y-39337956D01*
X109233249Y-39410512D01*
X109364092Y-39436538D01*
X109419197Y-39447499D01*
X109419201Y-39447500D01*
X109419202Y-39447500D01*
X109608799Y-39447500D01*
X109608800Y-39447499D01*
X109794751Y-39410512D01*
X109969915Y-39337956D01*
X110127558Y-39232622D01*
X110261622Y-39098558D01*
X110366956Y-38940915D01*
X110439512Y-38765751D01*
X110476500Y-38579798D01*
X110476500Y-38390202D01*
X110439512Y-38204249D01*
X110366956Y-38029085D01*
X110310745Y-37944959D01*
X110261622Y-37871441D01*
X110127558Y-37737377D01*
X109969912Y-37632042D01*
X109794751Y-37559488D01*
X109794743Y-37559486D01*
X109608802Y-37522500D01*
X109608798Y-37522500D01*
X109419202Y-37522500D01*
X109419197Y-37522500D01*
X109233256Y-37559486D01*
X109233248Y-37559488D01*
X109058087Y-37632042D01*
X108900441Y-37737377D01*
X108766377Y-37871441D01*
X108661043Y-38029085D01*
X108639061Y-38082156D01*
X108595219Y-38136559D01*
X108528925Y-38158623D01*
X108461226Y-38141343D01*
X108413616Y-38090206D01*
X108400500Y-38034702D01*
X108400500Y-36395297D01*
X108420185Y-36328258D01*
X108472989Y-36282503D01*
X108542147Y-36272559D01*
X108605703Y-36301584D01*
X108639061Y-36347844D01*
X108661042Y-36400912D01*
X108766377Y-36558558D01*
X108900441Y-36692622D01*
X109005300Y-36762686D01*
X109058085Y-36797956D01*
X109233249Y-36870512D01*
X109419197Y-36907499D01*
X109419201Y-36907500D01*
X109419202Y-36907500D01*
X109608799Y-36907500D01*
X109608800Y-36907499D01*
X109794751Y-36870512D01*
X109969915Y-36797956D01*
X110127558Y-36692622D01*
X110261622Y-36558558D01*
X110366956Y-36400915D01*
X110439512Y-36225751D01*
X110476500Y-36039798D01*
X110476500Y-35850202D01*
X110439512Y-35664249D01*
X110366956Y-35489085D01*
X110331686Y-35436300D01*
X110261622Y-35331441D01*
X110127558Y-35197377D01*
X109969912Y-35092042D01*
X109794751Y-35019488D01*
X109794743Y-35019486D01*
X109608802Y-34982500D01*
X109608798Y-34982500D01*
X109419202Y-34982500D01*
X109419197Y-34982500D01*
X109233256Y-35019486D01*
X109233248Y-35019488D01*
X109058087Y-35092042D01*
X108900441Y-35197377D01*
X108766377Y-35331441D01*
X108661043Y-35489085D01*
X108639061Y-35542156D01*
X108595219Y-35596559D01*
X108528925Y-35618623D01*
X108461226Y-35601343D01*
X108413616Y-35550206D01*
X108400500Y-35494702D01*
X108400500Y-33855297D01*
X108420185Y-33788258D01*
X108472989Y-33742503D01*
X108542147Y-33732559D01*
X108605703Y-33761584D01*
X108639061Y-33807844D01*
X108661042Y-33860912D01*
X108766377Y-34018558D01*
X108900441Y-34152622D01*
X109005300Y-34222686D01*
X109058085Y-34257956D01*
X109233249Y-34330512D01*
X109419197Y-34367499D01*
X109419201Y-34367500D01*
X109419202Y-34367500D01*
X109608799Y-34367500D01*
X109608800Y-34367499D01*
X109794751Y-34330512D01*
X109969915Y-34257956D01*
X110127558Y-34152622D01*
X110261622Y-34018558D01*
X110366956Y-33860915D01*
X110439512Y-33685751D01*
X110476500Y-33499798D01*
X110476500Y-33310202D01*
X110439512Y-33124249D01*
X110366956Y-32949085D01*
X110331686Y-32896300D01*
X110261622Y-32791441D01*
X110127558Y-32657377D01*
X109969912Y-32552042D01*
X109794751Y-32479488D01*
X109794743Y-32479486D01*
X109608802Y-32442500D01*
X109608798Y-32442500D01*
X109419202Y-32442500D01*
X109419197Y-32442500D01*
X109233256Y-32479486D01*
X109233248Y-32479488D01*
X109058087Y-32552042D01*
X108900441Y-32657377D01*
X108766377Y-32791441D01*
X108661043Y-32949085D01*
X108639061Y-33002156D01*
X108595219Y-33056559D01*
X108528925Y-33078623D01*
X108461226Y-33061343D01*
X108413616Y-33010206D01*
X108400500Y-32954702D01*
X108400500Y-31315297D01*
X108420185Y-31248258D01*
X108472989Y-31202503D01*
X108542147Y-31192559D01*
X108605703Y-31221584D01*
X108639061Y-31267844D01*
X108661042Y-31320912D01*
X108766377Y-31478558D01*
X108900441Y-31612622D01*
X109005300Y-31682686D01*
X109058085Y-31717956D01*
X109233249Y-31790512D01*
X109419197Y-31827499D01*
X109419201Y-31827500D01*
X109419202Y-31827500D01*
X109608799Y-31827500D01*
X109608800Y-31827499D01*
X109794751Y-31790512D01*
X109969915Y-31717956D01*
X110127558Y-31612622D01*
X110261622Y-31478558D01*
X110366956Y-31320915D01*
X110439512Y-31145751D01*
X110476500Y-30959798D01*
X110476500Y-30770202D01*
X110439512Y-30584249D01*
X110366956Y-30409085D01*
X110316524Y-30333608D01*
X110261622Y-30251441D01*
X110127558Y-30117377D01*
X109969912Y-30012042D01*
X109794751Y-29939488D01*
X109794743Y-29939486D01*
X109608802Y-29902500D01*
X109608798Y-29902500D01*
X109419202Y-29902500D01*
X109419197Y-29902500D01*
X109233256Y-29939486D01*
X109233248Y-29939488D01*
X109058087Y-30012042D01*
X108900441Y-30117377D01*
X108766377Y-30251441D01*
X108661043Y-30409085D01*
X108628266Y-30488217D01*
X108584424Y-30542620D01*
X108518130Y-30564684D01*
X108450431Y-30547404D01*
X108406318Y-30502763D01*
X108406115Y-30502411D01*
X108400500Y-30492686D01*
X108307314Y-30399500D01*
X108250250Y-30366554D01*
X108193187Y-30333608D01*
X108129539Y-30316554D01*
X108065892Y-30299500D01*
X107934108Y-30299500D01*
X107806812Y-30333608D01*
X107692686Y-30399500D01*
X107692683Y-30399502D01*
X107599502Y-30492683D01*
X107599500Y-30492686D01*
X107533608Y-30606812D01*
X107499500Y-30734108D01*
X107499500Y-30865892D01*
X107533608Y-30993186D01*
X107582887Y-31078540D01*
X107599500Y-31140539D01*
X107599500Y-36059571D01*
X107579815Y-36126610D01*
X107527011Y-36172365D01*
X107457853Y-36182309D01*
X107394297Y-36153284D01*
X107372398Y-36128462D01*
X107330139Y-36065218D01*
X107330136Y-36065214D01*
X107190785Y-35925863D01*
X107190781Y-35925860D01*
X107026920Y-35816371D01*
X107026907Y-35816364D01*
X106844839Y-35740950D01*
X106844829Y-35740947D01*
X106651543Y-35702500D01*
X106651541Y-35702500D01*
X106454459Y-35702500D01*
X106454457Y-35702500D01*
X106261170Y-35740947D01*
X106261160Y-35740950D01*
X106079092Y-35816364D01*
X106079079Y-35816371D01*
X105915218Y-35925860D01*
X105915214Y-35925863D01*
X105790181Y-36050897D01*
X105728858Y-36084382D01*
X105659166Y-36079398D01*
X105603233Y-36037526D01*
X105578816Y-35972062D01*
X105578500Y-35963216D01*
X105578500Y-30225236D01*
X105598185Y-30158197D01*
X105650989Y-30112442D01*
X105720147Y-30102498D01*
X105775386Y-30124919D01*
X105871646Y-30194857D01*
X106053968Y-30287755D01*
X106248582Y-30350990D01*
X106450683Y-30383000D01*
X106655317Y-30383000D01*
X106857417Y-30350990D01*
X107052031Y-30287755D01*
X107234349Y-30194859D01*
X107278921Y-30162474D01*
X106599447Y-29483000D01*
X106605661Y-29483000D01*
X106707394Y-29455741D01*
X106798606Y-29403080D01*
X106873080Y-29328606D01*
X106925741Y-29237394D01*
X106953000Y-29135661D01*
X106953000Y-29129447D01*
X107632474Y-29808921D01*
X107664859Y-29764349D01*
X107757755Y-29582031D01*
X107820990Y-29387417D01*
X107853000Y-29185317D01*
X107853000Y-28980682D01*
X107820990Y-28778582D01*
X107757755Y-28583968D01*
X107664859Y-28401650D01*
X107632474Y-28357077D01*
X107632474Y-28357076D01*
X106953000Y-29036551D01*
X106953000Y-29030339D01*
X106925741Y-28928606D01*
X106873080Y-28837394D01*
X106798606Y-28762920D01*
X106707394Y-28710259D01*
X106605661Y-28683000D01*
X106599446Y-28683000D01*
X107052250Y-28230197D01*
X108551500Y-28230197D01*
X108551500Y-28419802D01*
X108588486Y-28605743D01*
X108588488Y-28605751D01*
X108661042Y-28780912D01*
X108766377Y-28938558D01*
X108900441Y-29072622D01*
X108994786Y-29135661D01*
X109058085Y-29177956D01*
X109233249Y-29250512D01*
X109412335Y-29286134D01*
X109419197Y-29287499D01*
X109419201Y-29287500D01*
X109419202Y-29287500D01*
X109608799Y-29287500D01*
X109608800Y-29287499D01*
X109794751Y-29250512D01*
X109969915Y-29177956D01*
X110127558Y-29072622D01*
X110261622Y-28938558D01*
X110366956Y-28780915D01*
X110439512Y-28605751D01*
X110476500Y-28419798D01*
X110476500Y-28230202D01*
X110476500Y-28230199D01*
X110442753Y-28060542D01*
X110439512Y-28044249D01*
X110366956Y-27869085D01*
X110309436Y-27783000D01*
X110261622Y-27711441D01*
X110127558Y-27577377D01*
X109969912Y-27472042D01*
X109794751Y-27399488D01*
X109794743Y-27399486D01*
X109608802Y-27362500D01*
X109608798Y-27362500D01*
X109419202Y-27362500D01*
X109419197Y-27362500D01*
X109233256Y-27399486D01*
X109233248Y-27399488D01*
X109058087Y-27472042D01*
X108900441Y-27577377D01*
X108766377Y-27711441D01*
X108661042Y-27869087D01*
X108588488Y-28044248D01*
X108588486Y-28044256D01*
X108551500Y-28230197D01*
X107052250Y-28230197D01*
X107146018Y-28136429D01*
X107278922Y-28003524D01*
X107278921Y-28003523D01*
X107234359Y-27971147D01*
X107234350Y-27971141D01*
X107052031Y-27878244D01*
X106857417Y-27815009D01*
X106655317Y-27783000D01*
X106450683Y-27783000D01*
X106248582Y-27815009D01*
X106053968Y-27878244D01*
X105871650Y-27971140D01*
X105775386Y-28041081D01*
X105709579Y-28064561D01*
X105641525Y-28048736D01*
X105592830Y-27998630D01*
X105578500Y-27940763D01*
X105578500Y-27382000D01*
X105598185Y-27314961D01*
X105650989Y-27269206D01*
X105702500Y-27258000D01*
X106303000Y-27258000D01*
X106303000Y-26341012D01*
X106360007Y-26373925D01*
X106487174Y-26408000D01*
X106618826Y-26408000D01*
X106745993Y-26373925D01*
X106803000Y-26341012D01*
X106803000Y-27258000D01*
X107450828Y-27258000D01*
X107450844Y-27257999D01*
X107510372Y-27251598D01*
X107510379Y-27251596D01*
X107645086Y-27201354D01*
X107645093Y-27201350D01*
X107760187Y-27115190D01*
X107760190Y-27115187D01*
X107846350Y-27000093D01*
X107846354Y-27000086D01*
X107896596Y-26865379D01*
X107896598Y-26865372D01*
X107902999Y-26805844D01*
X107903000Y-26805827D01*
X107903000Y-26158000D01*
X106986012Y-26158000D01*
X107018925Y-26100993D01*
X107053000Y-25973826D01*
X107053000Y-25842174D01*
X107018925Y-25715007D01*
X106986012Y-25658000D01*
X107903000Y-25658000D01*
X107903000Y-25010172D01*
X107902822Y-25006847D01*
X107904346Y-25006765D01*
X107915707Y-24943950D01*
X107963339Y-24892832D01*
X108026568Y-24875500D01*
X108762957Y-24875500D01*
X108829996Y-24895185D01*
G37*
%TD.AperFunction*%
%TD*%
M02*
