%TF.GenerationSoftware,KiCad,Pcbnew,9.0.2*%
%TF.CreationDate,2026-03-24T02:05:32-04:00*%
%TF.ProjectId,FBT,4642542e-6b69-4636-9164-5f7063625858,rev?*%
%TF.SameCoordinates,Original*%
%TF.FileFunction,Soldermask,Bot*%
%TF.FilePolarity,Negative*%
%FSLAX46Y46*%
G04 Gerber Fmt 4.6, Leading zero omitted, Abs format (unit mm)*
G04 Created by KiCad (PCBNEW 9.0.2) date 2026-03-24 02:05:32*
%MOMM*%
%LPD*%
G01*
G04 APERTURE LIST*
G04 Aperture macros list*
%AMFreePoly0*
4,1,23,0.500000,-0.750000,0.000000,-0.750000,0.000000,-0.745722,-0.065263,-0.745722,-0.191342,-0.711940,-0.304381,-0.646677,-0.396677,-0.554381,-0.461940,-0.441342,-0.495722,-0.315263,-0.495722,-0.250000,-0.500000,-0.250000,-0.500000,0.250000,-0.495722,0.250000,-0.495722,0.315263,-0.461940,0.441342,-0.396677,0.554381,-0.304381,0.646677,-0.191342,0.711940,-0.065263,0.745722,0.000000,0.745722,
0.000000,0.750000,0.500000,0.750000,0.500000,-0.750000,0.500000,-0.750000,$1*%
%AMFreePoly1*
4,1,23,0.000000,0.745722,0.065263,0.745722,0.191342,0.711940,0.304381,0.646677,0.396677,0.554381,0.461940,0.441342,0.495722,0.315263,0.495722,0.250000,0.500000,0.250000,0.500000,-0.250000,0.495722,-0.250000,0.495722,-0.315263,0.461940,-0.441342,0.396677,-0.554381,0.304381,-0.646677,0.191342,-0.711940,0.065263,-0.745722,0.000000,-0.745722,0.000000,-0.750000,-0.500000,-0.750000,
-0.500000,0.750000,0.000000,0.750000,0.000000,0.745722,0.000000,0.745722,$1*%
%AMFreePoly2*
4,1,23,0.550000,-0.750000,0.000000,-0.750000,0.000000,-0.745722,-0.065263,-0.745722,-0.191342,-0.711940,-0.304381,-0.646677,-0.396677,-0.554381,-0.461940,-0.441342,-0.495722,-0.315263,-0.495722,-0.250000,-0.500000,-0.250000,-0.500000,0.250000,-0.495722,0.250000,-0.495722,0.315263,-0.461940,0.441342,-0.396677,0.554381,-0.304381,0.646677,-0.191342,0.711940,-0.065263,0.745722,0.000000,0.745722,
0.000000,0.750000,0.550000,0.750000,0.550000,-0.750000,0.550000,-0.750000,$1*%
%AMFreePoly3*
4,1,23,0.000000,0.745722,0.065263,0.745722,0.191342,0.711940,0.304381,0.646677,0.396677,0.554381,0.461940,0.441342,0.495722,0.315263,0.495722,0.250000,0.500000,0.250000,0.500000,-0.250000,0.495722,-0.250000,0.495722,-0.315263,0.461940,-0.441342,0.396677,-0.554381,0.304381,-0.646677,0.191342,-0.711940,0.065263,-0.745722,0.000000,-0.745722,0.000000,-0.750000,-0.550000,-0.750000,
-0.550000,0.750000,0.000000,0.750000,0.000000,0.745722,0.000000,0.745722,$1*%
G04 Aperture macros list end*
%ADD10R,1.500000X1.050000*%
%ADD11O,1.500000X1.050000*%
%ADD12R,1.700000X1.700000*%
%ADD13C,2.100000*%
%ADD14C,1.400000*%
%ADD15C,1.524000*%
%ADD16O,1.600000X2.000000*%
%ADD17C,1.600000*%
%ADD18C,1.700000*%
%ADD19FreePoly0,90.000000*%
%ADD20FreePoly1,90.000000*%
%ADD21FreePoly2,270.000000*%
%ADD22R,1.500000X1.000000*%
%ADD23FreePoly3,270.000000*%
%ADD24FreePoly2,90.000000*%
%ADD25FreePoly3,90.000000*%
%ADD26FreePoly0,270.000000*%
%ADD27FreePoly1,270.000000*%
G04 APERTURE END LIST*
%TO.C,JP2*%
G36*
X107400000Y-42950000D02*
G01*
X105900000Y-42950000D01*
X105900000Y-42650000D01*
X107400000Y-42650000D01*
X107400000Y-42950000D01*
G37*
%TO.C,JP6*%
G36*
X117614000Y-68592000D02*
G01*
X119114000Y-68592000D01*
X119114000Y-70092000D01*
X117614000Y-70092000D01*
X117614000Y-68592000D01*
G37*
%TO.C,JP4*%
G36*
X121642000Y-70092000D02*
G01*
X120142000Y-70092000D01*
X120142000Y-68592000D01*
X121642000Y-68592000D01*
X121642000Y-70092000D01*
G37*
%TO.C,JP3*%
G36*
X112534000Y-68592000D02*
G01*
X114034000Y-68592000D01*
X114034000Y-70092000D01*
X112534000Y-70092000D01*
X112534000Y-68592000D01*
G37*
%TO.C,JP1*%
G36*
X123456000Y-68796000D02*
G01*
X124956000Y-68796000D01*
X124956000Y-69096000D01*
X123456000Y-69096000D01*
X123456000Y-68796000D01*
G37*
%TO.C,JP5*%
G36*
X116574000Y-70092000D02*
G01*
X115074000Y-70092000D01*
X115074000Y-68592000D01*
X116574000Y-68592000D01*
X116574000Y-70092000D01*
G37*
%TD*%
D10*
%TO.C,U1*%
X117602000Y-80772000D03*
D11*
X117602000Y-79502000D03*
X117602000Y-78232000D03*
%TD*%
D12*
%TO.C,BT-2*%
X106553000Y-25908000D03*
%TD*%
D13*
%TO.C,SW1*%
X109700000Y-87600000D03*
X117900000Y-87600000D03*
D14*
X111800000Y-87600000D03*
X113800000Y-87600000D03*
X115800000Y-87600000D03*
%TD*%
D15*
%TO.C,IMU1*%
X124841000Y-50292000D03*
X122301000Y-50292000D03*
X119761000Y-50292000D03*
X117221000Y-50292000D03*
X114681000Y-50292000D03*
X112141000Y-50292000D03*
X109601000Y-50292000D03*
X112141000Y-60452000D03*
X114681000Y-60452000D03*
X117221000Y-60452000D03*
X119761000Y-60452000D03*
X122301000Y-60452000D03*
%TD*%
D16*
%TO.C,J1*%
X120494000Y-79700000D03*
X120494000Y-83700000D03*
X120494000Y-86700000D03*
X124894000Y-78700000D03*
%TD*%
D17*
%TO.C,R2*%
X106553000Y-38862000D03*
X106553000Y-46482000D03*
%TD*%
D15*
%TO.C,CHGR2*%
X122645980Y-75456462D03*
X122645980Y-63256462D03*
X108745980Y-63356462D03*
X108745980Y-65856462D03*
X108745980Y-72856462D03*
X108745980Y-75356462D03*
%TD*%
%TO.C,CHGR1*%
X119250000Y-74550000D03*
X119250000Y-64150000D03*
X110050000Y-64250000D03*
X110050000Y-66750000D03*
X110050000Y-71950000D03*
X110050000Y-74450000D03*
%TD*%
D12*
%TO.C,BT1*%
X107188000Y-84074000D03*
D18*
X107188000Y-81534000D03*
%TD*%
D17*
%TO.C,R1*%
X106553000Y-29083000D03*
X106553000Y-36703000D03*
%TD*%
D15*
%TO.C,MCU1*%
X109514000Y-25785000D03*
X109514000Y-28325000D03*
X109514000Y-30865000D03*
X109514000Y-33405000D03*
X109514000Y-35945000D03*
X109514000Y-38485000D03*
X109514000Y-41025000D03*
X109474000Y-43565000D03*
X124714000Y-43565000D03*
X124714000Y-41025000D03*
X124714000Y-38485000D03*
X124714000Y-35945000D03*
X124714000Y-33405000D03*
X124714000Y-30865000D03*
X124714000Y-28325000D03*
X124714000Y-25785000D03*
%TD*%
D17*
%TO.C,C1*%
X112014000Y-78232000D03*
X107014000Y-78232000D03*
%TD*%
D19*
%TO.C,JP2*%
X106650000Y-43450000D03*
D20*
X106650000Y-42150000D03*
%TD*%
D21*
%TO.C,JP6*%
X118364000Y-68042000D03*
D22*
X118364000Y-69342000D03*
D23*
X118364000Y-70642000D03*
%TD*%
D15*
%TO.C,GY1*%
X107036656Y-60457212D03*
X107036656Y-57917212D03*
X107036656Y-55377212D03*
X107036656Y-52837212D03*
X107036656Y-50297212D03*
%TD*%
D24*
%TO.C,JP4*%
X120892000Y-70642000D03*
D22*
X120892000Y-69342000D03*
D25*
X120892000Y-68042000D03*
%TD*%
D21*
%TO.C,JP3*%
X113284000Y-68042000D03*
D22*
X113284000Y-69342000D03*
D23*
X113284000Y-70642000D03*
%TD*%
D26*
%TO.C,JP1*%
X124206000Y-68296000D03*
D27*
X124206000Y-69596000D03*
%TD*%
D24*
%TO.C,JP5*%
X115824000Y-70642000D03*
D22*
X115824000Y-69342000D03*
D25*
X115824000Y-68042000D03*
%TD*%
M02*
