%TF.GenerationSoftware,KiCad,Pcbnew,9.0.2*%
%TF.CreationDate,2026-03-24T02:05:32-04:00*%
%TF.ProjectId,FBT,4642542e-6b69-4636-9164-5f7063625858,rev?*%
%TF.SameCoordinates,Original*%
%TF.FileFunction,Legend,Top*%
%TF.FilePolarity,Positive*%
%FSLAX46Y46*%
G04 Gerber Fmt 4.6, Leading zero omitted, Abs format (unit mm)*
G04 Created by KiCad (PCBNEW 9.0.2) date 2026-03-24 02:05:32*
%MOMM*%
%LPD*%
G01*
G04 APERTURE LIST*
%ADD10C,0.100000*%
%ADD11C,0.125000*%
%ADD12C,0.150000*%
%ADD13C,0.120000*%
G04 APERTURE END LIST*
D10*
G36*
X107952577Y-26453420D02*
G01*
X107630355Y-26453420D01*
X107630355Y-25534211D01*
X107741466Y-25534211D01*
X107741466Y-26296115D01*
X107745272Y-26315249D01*
X107772332Y-26342309D01*
X107810600Y-26342309D01*
X107837660Y-26315249D01*
X107841466Y-26296115D01*
X107841466Y-25534211D01*
X107837660Y-25515077D01*
X107810600Y-25488017D01*
X107772332Y-25488017D01*
X107745272Y-25515077D01*
X107741466Y-25534211D01*
X107630355Y-25534211D01*
X107630355Y-25376906D01*
X107952577Y-25376906D01*
X107952577Y-26453420D01*
G37*
D11*
X115625880Y-70558240D02*
X115673500Y-70605859D01*
X115673500Y-70605859D02*
X115721119Y-70748716D01*
X115721119Y-70748716D02*
X115721119Y-70843954D01*
X115721119Y-70843954D02*
X115673500Y-70986811D01*
X115673500Y-70986811D02*
X115578261Y-71082049D01*
X115578261Y-71082049D02*
X115483023Y-71129668D01*
X115483023Y-71129668D02*
X115292547Y-71177287D01*
X115292547Y-71177287D02*
X115149690Y-71177287D01*
X115149690Y-71177287D02*
X114959214Y-71129668D01*
X114959214Y-71129668D02*
X114863976Y-71082049D01*
X114863976Y-71082049D02*
X114768738Y-70986811D01*
X114768738Y-70986811D02*
X114721119Y-70843954D01*
X114721119Y-70843954D02*
X114721119Y-70748716D01*
X114721119Y-70748716D02*
X114768738Y-70605859D01*
X114768738Y-70605859D02*
X114816357Y-70558240D01*
X115721119Y-70129668D02*
X114721119Y-70129668D01*
X115197309Y-70129668D02*
X115197309Y-69558240D01*
X115721119Y-69558240D02*
X114721119Y-69558240D01*
X114768738Y-68558240D02*
X114721119Y-68653478D01*
X114721119Y-68653478D02*
X114721119Y-68796335D01*
X114721119Y-68796335D02*
X114768738Y-68939192D01*
X114768738Y-68939192D02*
X114863976Y-69034430D01*
X114863976Y-69034430D02*
X114959214Y-69082049D01*
X114959214Y-69082049D02*
X115149690Y-69129668D01*
X115149690Y-69129668D02*
X115292547Y-69129668D01*
X115292547Y-69129668D02*
X115483023Y-69082049D01*
X115483023Y-69082049D02*
X115578261Y-69034430D01*
X115578261Y-69034430D02*
X115673500Y-68939192D01*
X115673500Y-68939192D02*
X115721119Y-68796335D01*
X115721119Y-68796335D02*
X115721119Y-68701097D01*
X115721119Y-68701097D02*
X115673500Y-68558240D01*
X115673500Y-68558240D02*
X115625880Y-68510621D01*
X115625880Y-68510621D02*
X115292547Y-68510621D01*
X115292547Y-68510621D02*
X115292547Y-68701097D01*
X115721119Y-67510621D02*
X115244928Y-67843954D01*
X115721119Y-68082049D02*
X114721119Y-68082049D01*
X114721119Y-68082049D02*
X114721119Y-67701097D01*
X114721119Y-67701097D02*
X114768738Y-67605859D01*
X114768738Y-67605859D02*
X114816357Y-67558240D01*
X114816357Y-67558240D02*
X114911595Y-67510621D01*
X114911595Y-67510621D02*
X115054452Y-67510621D01*
X115054452Y-67510621D02*
X115149690Y-67558240D01*
X115149690Y-67558240D02*
X115197309Y-67605859D01*
X115197309Y-67605859D02*
X115244928Y-67701097D01*
X115244928Y-67701097D02*
X115244928Y-68082049D01*
X115721119Y-66558240D02*
X115721119Y-67129668D01*
X115721119Y-66843954D02*
X114721119Y-66843954D01*
X114721119Y-66843954D02*
X114863976Y-66939192D01*
X114863976Y-66939192D02*
X114959214Y-67034430D01*
X114959214Y-67034430D02*
X115006833Y-67129668D01*
D10*
G36*
X107649094Y-86389724D02*
G01*
X106572579Y-86389724D01*
X106572579Y-85832332D01*
X106683690Y-85832332D01*
X106683690Y-85870600D01*
X106710750Y-85897660D01*
X106729884Y-85901466D01*
X107060836Y-85901466D01*
X107060836Y-86232419D01*
X107064642Y-86251553D01*
X107091702Y-86278613D01*
X107129970Y-86278613D01*
X107157030Y-86251553D01*
X107160836Y-86232419D01*
X107160836Y-85901466D01*
X107491789Y-85901466D01*
X107510923Y-85897660D01*
X107537983Y-85870600D01*
X107537983Y-85832332D01*
X107510923Y-85805272D01*
X107491789Y-85801466D01*
X107160836Y-85801466D01*
X107160836Y-85470514D01*
X107157030Y-85451380D01*
X107129970Y-85424320D01*
X107091702Y-85424320D01*
X107064642Y-85451380D01*
X107060836Y-85470514D01*
X107060836Y-85801466D01*
X106729884Y-85801466D01*
X106710750Y-85805272D01*
X106683690Y-85832332D01*
X106572579Y-85832332D01*
X106572579Y-85313209D01*
X107649094Y-85313209D01*
X107649094Y-86389724D01*
G37*
D12*
X113496819Y-80343904D02*
X114306342Y-80343904D01*
X114306342Y-80343904D02*
X114401580Y-80296285D01*
X114401580Y-80296285D02*
X114449200Y-80248666D01*
X114449200Y-80248666D02*
X114496819Y-80153428D01*
X114496819Y-80153428D02*
X114496819Y-79962952D01*
X114496819Y-79962952D02*
X114449200Y-79867714D01*
X114449200Y-79867714D02*
X114401580Y-79820095D01*
X114401580Y-79820095D02*
X114306342Y-79772476D01*
X114306342Y-79772476D02*
X113496819Y-79772476D01*
X114496819Y-78772476D02*
X114496819Y-79343904D01*
X114496819Y-79058190D02*
X113496819Y-79058190D01*
X113496819Y-79058190D02*
X113639676Y-79153428D01*
X113639676Y-79153428D02*
X113734914Y-79248666D01*
X113734914Y-79248666D02*
X113782533Y-79343904D01*
D10*
X112466667Y-86609800D02*
X112609524Y-86657419D01*
X112609524Y-86657419D02*
X112847619Y-86657419D01*
X112847619Y-86657419D02*
X112942857Y-86609800D01*
X112942857Y-86609800D02*
X112990476Y-86562180D01*
X112990476Y-86562180D02*
X113038095Y-86466942D01*
X113038095Y-86466942D02*
X113038095Y-86371704D01*
X113038095Y-86371704D02*
X112990476Y-86276466D01*
X112990476Y-86276466D02*
X112942857Y-86228847D01*
X112942857Y-86228847D02*
X112847619Y-86181228D01*
X112847619Y-86181228D02*
X112657143Y-86133609D01*
X112657143Y-86133609D02*
X112561905Y-86085990D01*
X112561905Y-86085990D02*
X112514286Y-86038371D01*
X112514286Y-86038371D02*
X112466667Y-85943133D01*
X112466667Y-85943133D02*
X112466667Y-85847895D01*
X112466667Y-85847895D02*
X112514286Y-85752657D01*
X112514286Y-85752657D02*
X112561905Y-85705038D01*
X112561905Y-85705038D02*
X112657143Y-85657419D01*
X112657143Y-85657419D02*
X112895238Y-85657419D01*
X112895238Y-85657419D02*
X113038095Y-85705038D01*
X113371429Y-85657419D02*
X113609524Y-86657419D01*
X113609524Y-86657419D02*
X113800000Y-85943133D01*
X113800000Y-85943133D02*
X113990476Y-86657419D01*
X113990476Y-86657419D02*
X114228572Y-85657419D01*
X115133333Y-86657419D02*
X114561905Y-86657419D01*
X114847619Y-86657419D02*
X114847619Y-85657419D01*
X114847619Y-85657419D02*
X114752381Y-85800276D01*
X114752381Y-85800276D02*
X114657143Y-85895514D01*
X114657143Y-85895514D02*
X114561905Y-85943133D01*
D12*
X115904819Y-56921427D02*
X114904819Y-56921427D01*
X115904819Y-56445237D02*
X114904819Y-56445237D01*
X114904819Y-56445237D02*
X115619104Y-56111904D01*
X115619104Y-56111904D02*
X114904819Y-55778571D01*
X114904819Y-55778571D02*
X115904819Y-55778571D01*
X114904819Y-55302380D02*
X115714342Y-55302380D01*
X115714342Y-55302380D02*
X115809580Y-55254761D01*
X115809580Y-55254761D02*
X115857200Y-55207142D01*
X115857200Y-55207142D02*
X115904819Y-55111904D01*
X115904819Y-55111904D02*
X115904819Y-54921428D01*
X115904819Y-54921428D02*
X115857200Y-54826190D01*
X115857200Y-54826190D02*
X115809580Y-54778571D01*
X115809580Y-54778571D02*
X115714342Y-54730952D01*
X115714342Y-54730952D02*
X114904819Y-54730952D01*
X115904819Y-53730952D02*
X115904819Y-54302380D01*
X115904819Y-54016666D02*
X114904819Y-54016666D01*
X114904819Y-54016666D02*
X115047676Y-54111904D01*
X115047676Y-54111904D02*
X115142914Y-54207142D01*
X115142914Y-54207142D02*
X115190533Y-54302380D01*
X122248819Y-84478333D02*
X122963104Y-84478333D01*
X122963104Y-84478333D02*
X123105961Y-84525952D01*
X123105961Y-84525952D02*
X123201200Y-84621190D01*
X123201200Y-84621190D02*
X123248819Y-84764047D01*
X123248819Y-84764047D02*
X123248819Y-84859285D01*
X123248819Y-83478333D02*
X123248819Y-84049761D01*
X123248819Y-83764047D02*
X122248819Y-83764047D01*
X122248819Y-83764047D02*
X122391676Y-83859285D01*
X122391676Y-83859285D02*
X122486914Y-83954523D01*
X122486914Y-83954523D02*
X122534533Y-84049761D01*
X107004819Y-42816666D02*
X106528628Y-43149999D01*
X107004819Y-43388094D02*
X106004819Y-43388094D01*
X106004819Y-43388094D02*
X106004819Y-43007142D01*
X106004819Y-43007142D02*
X106052438Y-42911904D01*
X106052438Y-42911904D02*
X106100057Y-42864285D01*
X106100057Y-42864285D02*
X106195295Y-42816666D01*
X106195295Y-42816666D02*
X106338152Y-42816666D01*
X106338152Y-42816666D02*
X106433390Y-42864285D01*
X106433390Y-42864285D02*
X106481009Y-42911904D01*
X106481009Y-42911904D02*
X106528628Y-43007142D01*
X106528628Y-43007142D02*
X106528628Y-43388094D01*
X106100057Y-42435713D02*
X106052438Y-42388094D01*
X106052438Y-42388094D02*
X106004819Y-42292856D01*
X106004819Y-42292856D02*
X106004819Y-42054761D01*
X106004819Y-42054761D02*
X106052438Y-41959523D01*
X106052438Y-41959523D02*
X106100057Y-41911904D01*
X106100057Y-41911904D02*
X106195295Y-41864285D01*
X106195295Y-41864285D02*
X106290533Y-41864285D01*
X106290533Y-41864285D02*
X106433390Y-41911904D01*
X106433390Y-41911904D02*
X107004819Y-42483332D01*
X107004819Y-42483332D02*
X107004819Y-41864285D01*
X109531009Y-83585714D02*
X109578628Y-83442857D01*
X109578628Y-83442857D02*
X109626247Y-83395238D01*
X109626247Y-83395238D02*
X109721485Y-83347619D01*
X109721485Y-83347619D02*
X109864342Y-83347619D01*
X109864342Y-83347619D02*
X109959580Y-83395238D01*
X109959580Y-83395238D02*
X110007200Y-83442857D01*
X110007200Y-83442857D02*
X110054819Y-83538095D01*
X110054819Y-83538095D02*
X110054819Y-83919047D01*
X110054819Y-83919047D02*
X109054819Y-83919047D01*
X109054819Y-83919047D02*
X109054819Y-83585714D01*
X109054819Y-83585714D02*
X109102438Y-83490476D01*
X109102438Y-83490476D02*
X109150057Y-83442857D01*
X109150057Y-83442857D02*
X109245295Y-83395238D01*
X109245295Y-83395238D02*
X109340533Y-83395238D01*
X109340533Y-83395238D02*
X109435771Y-83442857D01*
X109435771Y-83442857D02*
X109483390Y-83490476D01*
X109483390Y-83490476D02*
X109531009Y-83585714D01*
X109531009Y-83585714D02*
X109531009Y-83919047D01*
X109054819Y-83061904D02*
X109054819Y-82490476D01*
X110054819Y-82776190D02*
X109054819Y-82776190D01*
X110054819Y-81633333D02*
X110054819Y-82204761D01*
X110054819Y-81919047D02*
X109054819Y-81919047D01*
X109054819Y-81919047D02*
X109197676Y-82014285D01*
X109197676Y-82014285D02*
X109292914Y-82109523D01*
X109292914Y-82109523D02*
X109340533Y-82204761D01*
X107007819Y-33059666D02*
X106531628Y-33392999D01*
X107007819Y-33631094D02*
X106007819Y-33631094D01*
X106007819Y-33631094D02*
X106007819Y-33250142D01*
X106007819Y-33250142D02*
X106055438Y-33154904D01*
X106055438Y-33154904D02*
X106103057Y-33107285D01*
X106103057Y-33107285D02*
X106198295Y-33059666D01*
X106198295Y-33059666D02*
X106341152Y-33059666D01*
X106341152Y-33059666D02*
X106436390Y-33107285D01*
X106436390Y-33107285D02*
X106484009Y-33154904D01*
X106484009Y-33154904D02*
X106531628Y-33250142D01*
X106531628Y-33250142D02*
X106531628Y-33631094D01*
X107007819Y-32107285D02*
X107007819Y-32678713D01*
X107007819Y-32392999D02*
X106007819Y-32392999D01*
X106007819Y-32392999D02*
X106150676Y-32488237D01*
X106150676Y-32488237D02*
X106245914Y-32583475D01*
X106245914Y-32583475D02*
X106293533Y-32678713D01*
X116278819Y-41588332D02*
X115278819Y-41588332D01*
X115278819Y-41588332D02*
X115993104Y-41254999D01*
X115993104Y-41254999D02*
X115278819Y-40921666D01*
X115278819Y-40921666D02*
X116278819Y-40921666D01*
X116183580Y-39874047D02*
X116231200Y-39921666D01*
X116231200Y-39921666D02*
X116278819Y-40064523D01*
X116278819Y-40064523D02*
X116278819Y-40159761D01*
X116278819Y-40159761D02*
X116231200Y-40302618D01*
X116231200Y-40302618D02*
X116135961Y-40397856D01*
X116135961Y-40397856D02*
X116040723Y-40445475D01*
X116040723Y-40445475D02*
X115850247Y-40493094D01*
X115850247Y-40493094D02*
X115707390Y-40493094D01*
X115707390Y-40493094D02*
X115516914Y-40445475D01*
X115516914Y-40445475D02*
X115421676Y-40397856D01*
X115421676Y-40397856D02*
X115326438Y-40302618D01*
X115326438Y-40302618D02*
X115278819Y-40159761D01*
X115278819Y-40159761D02*
X115278819Y-40064523D01*
X115278819Y-40064523D02*
X115326438Y-39921666D01*
X115326438Y-39921666D02*
X115374057Y-39874047D01*
X115278819Y-39445475D02*
X116088342Y-39445475D01*
X116088342Y-39445475D02*
X116183580Y-39397856D01*
X116183580Y-39397856D02*
X116231200Y-39350237D01*
X116231200Y-39350237D02*
X116278819Y-39254999D01*
X116278819Y-39254999D02*
X116278819Y-39064523D01*
X116278819Y-39064523D02*
X116231200Y-38969285D01*
X116231200Y-38969285D02*
X116183580Y-38921666D01*
X116183580Y-38921666D02*
X116088342Y-38874047D01*
X116088342Y-38874047D02*
X115278819Y-38874047D01*
X116278819Y-37874047D02*
X116278819Y-38445475D01*
X116278819Y-38159761D02*
X115278819Y-38159761D01*
X115278819Y-38159761D02*
X115421676Y-38254999D01*
X115421676Y-38254999D02*
X115516914Y-38350237D01*
X115516914Y-38350237D02*
X115564533Y-38445475D01*
X109347333Y-78609580D02*
X109299714Y-78657200D01*
X109299714Y-78657200D02*
X109156857Y-78704819D01*
X109156857Y-78704819D02*
X109061619Y-78704819D01*
X109061619Y-78704819D02*
X108918762Y-78657200D01*
X108918762Y-78657200D02*
X108823524Y-78561961D01*
X108823524Y-78561961D02*
X108775905Y-78466723D01*
X108775905Y-78466723D02*
X108728286Y-78276247D01*
X108728286Y-78276247D02*
X108728286Y-78133390D01*
X108728286Y-78133390D02*
X108775905Y-77942914D01*
X108775905Y-77942914D02*
X108823524Y-77847676D01*
X108823524Y-77847676D02*
X108918762Y-77752438D01*
X108918762Y-77752438D02*
X109061619Y-77704819D01*
X109061619Y-77704819D02*
X109156857Y-77704819D01*
X109156857Y-77704819D02*
X109299714Y-77752438D01*
X109299714Y-77752438D02*
X109347333Y-77800057D01*
X110299714Y-78704819D02*
X109728286Y-78704819D01*
X110014000Y-78704819D02*
X110014000Y-77704819D01*
X110014000Y-77704819D02*
X109918762Y-77847676D01*
X109918762Y-77847676D02*
X109823524Y-77942914D01*
X109823524Y-77942914D02*
X109728286Y-77990533D01*
D13*
%TO.C,U1*%
X119302000Y-81522000D02*
X119302000Y-77672000D01*
X119302000Y-81522000D02*
G75*
G02*
X119292122Y-77633389I-1700000J1940000D01*
G01*
%TO.C,BT-2*%
X105173000Y-24528000D02*
X106553000Y-24528000D01*
X105173000Y-25908000D02*
X105173000Y-24528000D01*
X105173000Y-27178000D02*
X105173000Y-27288000D01*
X105173000Y-27178000D02*
X107933000Y-27178000D01*
X105173000Y-27288000D02*
X107933000Y-27288000D01*
X107933000Y-27178000D02*
X107933000Y-27288000D01*
D10*
%TO.C,SW1*%
X109500000Y-85450000D02*
X109500000Y-86250000D01*
X109500000Y-85450000D02*
X110300000Y-85450000D01*
X109500000Y-89750000D02*
X109500000Y-88950000D01*
X109500000Y-89750000D02*
X110300000Y-89750000D01*
X113400000Y-85450000D02*
X114200000Y-85450000D01*
X114200000Y-89750000D02*
X113400000Y-89750000D01*
X118100000Y-85450000D02*
X117300000Y-85450000D01*
X118100000Y-85450000D02*
X118100000Y-86250000D01*
X118100000Y-89750000D02*
X117300000Y-89750000D01*
X118100000Y-89750000D02*
X118100000Y-88950000D01*
%TO.C,IMU1*%
D13*
X126111000Y-49022000D02*
X108331000Y-49022000D01*
X108331000Y-61722000D01*
X126111000Y-61722000D01*
X126111000Y-49022000D01*
X111506000Y-58547000D02*
G75*
G02*
X108966000Y-58547000I-1270000J0D01*
G01*
X108966000Y-58547000D02*
G75*
G02*
X111506000Y-58547000I1270000J0D01*
G01*
X125476000Y-58547000D02*
G75*
G02*
X122936000Y-58547000I-1270000J0D01*
G01*
X122936000Y-58547000D02*
G75*
G02*
X125476000Y-58547000I1270000J0D01*
G01*
%TO.C,J1*%
X119394000Y-76850000D02*
X125994000Y-76850000D01*
X119394000Y-89850000D02*
X119394000Y-76850000D01*
X120194000Y-89850000D02*
X119394000Y-89850000D01*
X120194000Y-91850000D02*
X120194000Y-89850000D01*
X120494000Y-91850000D02*
X120194000Y-91850000D01*
X120494000Y-91850000D02*
X125194000Y-91850000D01*
X125194000Y-89850000D02*
X125994000Y-89850000D01*
X125194000Y-91850000D02*
X125194000Y-89850000D01*
X125994000Y-89850000D02*
X125994000Y-76850000D01*
%TO.C,R2*%
X105183000Y-39402000D02*
X105183000Y-45942000D01*
X105183000Y-45942000D02*
X105513000Y-45942000D01*
X105513000Y-39402000D02*
X105183000Y-39402000D01*
X107593000Y-39402000D02*
X107923000Y-39402000D01*
X107923000Y-39402000D02*
X107923000Y-45942000D01*
X107923000Y-45942000D02*
X107593000Y-45942000D01*
%TO.C,CHGR2*%
D10*
X125945980Y-76506462D02*
X107545980Y-76506462D01*
X107545980Y-62206462D01*
X125945980Y-62206462D01*
X125945980Y-76506462D01*
%TO.C,CHGR1*%
X125950000Y-75350000D02*
X109150000Y-75350000D01*
X109150000Y-63350000D01*
X125950000Y-63350000D01*
X125950000Y-75350000D01*
D13*
%TO.C,BT1*%
X105808000Y-82804000D02*
X105808000Y-80154000D01*
X108568000Y-80154000D02*
X105808000Y-80154000D01*
X108568000Y-82804000D02*
X105808000Y-82804000D01*
X108568000Y-82804000D02*
X108568000Y-80154000D01*
X108568000Y-84074000D02*
X108568000Y-85454000D01*
X108568000Y-85454000D02*
X107188000Y-85454000D01*
%TO.C,R1*%
X105183000Y-29623000D02*
X105183000Y-36163000D01*
X105183000Y-36163000D02*
X105513000Y-36163000D01*
X105513000Y-29623000D02*
X105183000Y-29623000D01*
X107593000Y-29623000D02*
X107923000Y-29623000D01*
X107923000Y-29623000D02*
X107923000Y-36163000D01*
X107923000Y-36163000D02*
X107593000Y-36163000D01*
%TO.C,MCU1*%
X108204000Y-24515000D02*
X125984000Y-24515000D01*
X125984000Y-47375000D01*
X108204000Y-47375000D01*
X108204000Y-24515000D01*
%TO.C,C1*%
X106894000Y-77199000D02*
X106894000Y-76862000D01*
X106894000Y-79602000D02*
X106894000Y-79265000D01*
X112134000Y-76862000D02*
X106894000Y-76862000D01*
X112134000Y-77199000D02*
X112134000Y-76862000D01*
X112134000Y-79602000D02*
X106894000Y-79602000D01*
X112134000Y-79602000D02*
X112134000Y-79265000D01*
%TD*%
M02*
