%TF.GenerationSoftware,KiCad,Pcbnew,9.0.2*%
%TF.CreationDate,2026-03-24T02:05:32-04:00*%
%TF.ProjectId,FBT,4642542e-6b69-4636-9164-5f7063625858,rev?*%
%TF.SameCoordinates,Original*%
%TF.FileFunction,Copper,L1,Top*%
%TF.FilePolarity,Positive*%
%FSLAX46Y46*%
G04 Gerber Fmt 4.6, Leading zero omitted, Abs format (unit mm)*
G04 Created by KiCad (PCBNEW 9.0.2) date 2026-03-24 02:05:32*
%MOMM*%
%LPD*%
G01*
G04 APERTURE LIST*
%TA.AperFunction,ComponentPad*%
%ADD10R,1.500000X1.050000*%
%TD*%
%TA.AperFunction,ComponentPad*%
%ADD11O,1.500000X1.050000*%
%TD*%
%TA.AperFunction,ComponentPad*%
%ADD12R,1.700000X1.700000*%
%TD*%
%TA.AperFunction,ComponentPad*%
%ADD13C,2.100000*%
%TD*%
%TA.AperFunction,ComponentPad*%
%ADD14C,1.400000*%
%TD*%
%TA.AperFunction,ComponentPad*%
%ADD15C,1.524000*%
%TD*%
%TA.AperFunction,ComponentPad*%
%ADD16O,1.600000X2.000000*%
%TD*%
%TA.AperFunction,ComponentPad*%
%ADD17C,1.600000*%
%TD*%
%TA.AperFunction,ComponentPad*%
%ADD18C,1.700000*%
%TD*%
%TA.AperFunction,ViaPad*%
%ADD19C,0.600000*%
%TD*%
%TA.AperFunction,Conductor*%
%ADD20C,0.400000*%
%TD*%
G04 APERTURE END LIST*
D10*
%TO.P,U1,1,GND*%
%TO.N,/ldo_gnd*%
X117602000Y-80772000D03*
D11*
%TO.P,U1,2,VIN*%
%TO.N,/vin*%
X117602000Y-79502000D03*
%TO.P,U1,3,VOUT*%
%TO.N,/vout*%
X117602000Y-78232000D03*
%TD*%
D12*
%TO.P,BT-2,1,Pin_1*%
%TO.N,GND*%
X106553000Y-25908000D03*
%TD*%
D13*
%TO.P,SW1,*%
%TO.N,*%
X109700000Y-87600000D03*
X117900000Y-87600000D03*
D14*
%TO.P,SW1,1,A*%
%TO.N,unconnected-(SW1-A-Pad1)*%
X111800000Y-87600000D03*
%TO.P,SW1,2,B*%
%TO.N,+BATT*%
X113800000Y-87600000D03*
%TO.P,SW1,3,C*%
%TO.N,BATT_SWITCHED*%
X115800000Y-87600000D03*
%TD*%
D15*
%TO.P,IMU1,1,VIN*%
%TO.N,Net-(IMU1-VIN)*%
X124841000Y-50292000D03*
%TO.P,IMU1,2,3v3*%
%TO.N,ESP32_3V3*%
X122301000Y-50292000D03*
%TO.P,IMU1,3,GND*%
%TO.N,GND*%
X119761000Y-50292000D03*
%TO.P,IMU1,4,SCL*%
%TO.N,SCL_1*%
X117221000Y-50292000D03*
%TO.P,IMU1,5,SDA*%
%TO.N,SDA_1*%
X114681000Y-50292000D03*
%TO.P,IMU1,6,CS*%
%TO.N,unconnected-(IMU1-CS-Pad6)*%
X112141000Y-50292000D03*
%TO.P,IMU1,7,SAO*%
%TO.N,GND*%
X109601000Y-50292000D03*
%TO.P,IMU1,8,SDX*%
%TO.N,Net-(GY1-SDA)*%
X112141000Y-60452000D03*
%TO.P,IMU1,9,SCX*%
%TO.N,Net-(GY1-SCL)*%
X114681000Y-60452000D03*
%TO.P,IMU1,10,INT1*%
%TO.N,unconnected-(IMU1-INT1-Pad10)*%
X117221000Y-60452000D03*
%TO.P,IMU1,11,INT2*%
%TO.N,unconnected-(IMU1-INT2-Pad11)*%
X119761000Y-60452000D03*
%TO.P,IMU1,12,OCS*%
%TO.N,unconnected-(IMU1-OCS-Pad12)*%
X122301000Y-60452000D03*
%TD*%
D16*
%TO.P,J1,R1*%
%TO.N,SDA_1*%
X120494000Y-79700000D03*
%TO.P,J1,R2*%
%TO.N,SCL_1*%
X120494000Y-83700000D03*
%TO.P,J1,S*%
%TO.N,GND*%
X120494000Y-86700000D03*
%TO.P,J1,T*%
%TO.N,ESP32_3V3*%
X124894000Y-78700000D03*
%TD*%
D17*
%TO.P,R2,1*%
%TO.N,BATTERY_READER*%
X106553000Y-38862000D03*
%TO.P,R2,2*%
%TO.N,BATT_SWITCHED*%
X106553000Y-46482000D03*
%TD*%
D15*
%TO.P,CHGR2,1,5_VIN*%
%TO.N,Net-(CHGR1-5_VIN)*%
X122645980Y-75456462D03*
%TO.P,CHGR2,2,GND*%
%TO.N,GND*%
X122645980Y-63256462D03*
%TO.P,CHGR2,3,2A_BAT_OUT-*%
%TO.N,unconnected-(CHGR2-2A_BAT_OUT--Pad3)*%
X108745980Y-63356462D03*
%TO.P,CHGR2,4,BAT-*%
%TO.N,GND*%
X108745980Y-65856462D03*
%TO.P,CHGR2,5,BAT+*%
%TO.N,+BATT*%
X108745980Y-72856462D03*
%TO.P,CHGR2,6,2A_BAT_OUT+*%
%TO.N,unconnected-(CHGR2-2A_BAT_OUT+-Pad6)*%
X108745980Y-75356462D03*
%TD*%
%TO.P,CHGR1,1,5_VIN*%
%TO.N,Net-(CHGR1-5_VIN)*%
X119250000Y-74550000D03*
%TO.P,CHGR1,2,GND*%
%TO.N,GND*%
X119250000Y-64150000D03*
%TO.P,CHGR1,3,2A_BAT_OUT-*%
%TO.N,unconnected-(CHGR1-2A_BAT_OUT--Pad3)*%
X110050000Y-64250000D03*
%TO.P,CHGR1,4,BAT-*%
%TO.N,GND*%
X110050000Y-66750000D03*
%TO.P,CHGR1,5,BAT+*%
%TO.N,+BATT*%
X110050000Y-71950000D03*
%TO.P,CHGR1,6,2A_BAT_OUT+*%
%TO.N,unconnected-(CHGR1-2A_BAT_OUT+-Pad6)*%
X110050000Y-74450000D03*
%TD*%
D12*
%TO.P,BT1,1,+*%
%TO.N,+BATT*%
X107188000Y-84074000D03*
D18*
%TO.P,BT1,2,-*%
%TO.N,GND*%
X107188000Y-81534000D03*
%TD*%
D17*
%TO.P,R1,1*%
%TO.N,GND*%
X106553000Y-29083000D03*
%TO.P,R1,2*%
%TO.N,BATTERY_READER*%
X106553000Y-36703000D03*
%TD*%
D15*
%TO.P,MCU1,1,D5*%
%TO.N,unconnected-(MCU1-D5-Pad1)*%
X109514000Y-25785000D03*
%TO.P,MCU1,2,D6*%
%TO.N,unconnected-(MCU1-D6-Pad2)*%
X109514000Y-28325000D03*
%TO.P,MCU1,3,D7*%
%TO.N,unconnected-(MCU1-D7-Pad3)*%
X109514000Y-30865000D03*
%TO.P,MCU1,4,D8*%
%TO.N,unconnected-(MCU1-D8-Pad4)*%
X109514000Y-33405000D03*
%TO.P,MCU1,5,D9*%
%TO.N,unconnected-(MCU1-D9-Pad5)*%
X109514000Y-35945000D03*
%TO.P,MCU1,6,D10*%
%TO.N,unconnected-(MCU1-D10-Pad6)*%
X109514000Y-38485000D03*
%TO.P,MCU1,7,D20/RX*%
%TO.N,unconnected-(MCU1-D20{slash}RX-Pad7)*%
X109514000Y-41025000D03*
%TO.P,MCU1,8,D21/TX*%
%TO.N,unconnected-(MCU1-D21{slash}TX-Pad8)*%
X109474000Y-43565000D03*
%TO.P,MCU1,9,D0*%
%TO.N,unconnected-(MCU1-D0-Pad9)*%
X124714000Y-43565000D03*
%TO.P,MCU1,10,D1*%
%TO.N,unconnected-(MCU1-D1-Pad10)*%
X124714000Y-41025000D03*
%TO.P,MCU1,11,D2*%
%TO.N,SDA_1*%
X124714000Y-38485000D03*
%TO.P,MCU1,12,D3*%
%TO.N,SCL_1*%
X124714000Y-35945000D03*
%TO.P,MCU1,13,D4*%
%TO.N,BATTERY_READER*%
X124714000Y-33405000D03*
%TO.P,MCU1,14,3v3*%
%TO.N,ESP32_3V3*%
X124714000Y-30865000D03*
%TO.P,MCU1,15,Gnd*%
%TO.N,GND*%
X124714000Y-28325000D03*
%TO.P,MCU1,16,5v5*%
%TO.N,ESP32_5V5*%
X124714000Y-25785000D03*
%TD*%
D17*
%TO.P,C1,1*%
%TO.N,ESP32_3V3*%
X112014000Y-78232000D03*
%TO.P,C1,2*%
%TO.N,GND*%
X107014000Y-78232000D03*
%TD*%
D15*
%TO.P,GY1,1,VIN*%
%TO.N,ESP32_3V3*%
X107036656Y-60457212D03*
%TO.P,GY1,2,GND*%
%TO.N,GND*%
X107036656Y-57917212D03*
%TO.P,GY1,3,SCL*%
%TO.N,Net-(GY1-SCL)*%
X107036656Y-55377212D03*
%TO.P,GY1,4,SDA*%
%TO.N,Net-(GY1-SDA)*%
X107036656Y-52837212D03*
%TO.P,GY1,5,DRDY*%
%TO.N,unconnected-(GY1-DRDY-Pad5)*%
X107036656Y-50297212D03*
%TD*%
D19*
%TO.N,SDA_1*%
X119888000Y-61976000D03*
%TO.N,ESP32_3V3*%
X116840000Y-83312000D03*
X124550000Y-48300000D03*
X115062000Y-77470000D03*
%TO.N,SCL_1*%
X121050000Y-61800000D03*
X122500000Y-48200000D03*
%TO.N,GND*%
X107150000Y-34050000D03*
%TO.N,ESP32_5V5*%
X108000000Y-30800000D03*
%TO.N,BATT_SWITCHED*%
X113284000Y-77470000D03*
X108966000Y-61976000D03*
X119380000Y-77724000D03*
%TO.N,Net-(CHGR1-5_VIN)*%
X116840000Y-61976000D03*
%TD*%
D20*
%TO.N,SDA_1*%
X119888000Y-61976000D02*
X120494000Y-62582000D01*
X123550000Y-39649000D02*
X123550000Y-48250000D01*
X116650000Y-49050000D02*
X115408000Y-50292000D01*
X123550000Y-48250000D02*
X122750000Y-49050000D01*
X120494000Y-62582000D02*
X120494000Y-79700000D01*
X115408000Y-50292000D02*
X114681000Y-50292000D01*
X124714000Y-38485000D02*
X123550000Y-39649000D01*
X122750000Y-49050000D02*
X116650000Y-49050000D01*
%TO.N,ESP32_3V3*%
X115000000Y-62100000D02*
X115913865Y-61186135D01*
X123600000Y-49250000D02*
X123600000Y-50950000D01*
X115062000Y-77470000D02*
X114300000Y-78232000D01*
X115913865Y-61186135D02*
X115913865Y-56679135D01*
X112014000Y-78486000D02*
X116840000Y-83312000D01*
X124550000Y-48300000D02*
X123600000Y-49250000D01*
X123600000Y-50950000D02*
X124894000Y-52244000D01*
X110350000Y-62100000D02*
X115000000Y-62100000D01*
X112014000Y-78232000D02*
X112014000Y-78486000D01*
X115913865Y-56679135D02*
X122301000Y-50292000D01*
X114300000Y-78232000D02*
X112014000Y-78232000D01*
X124894000Y-52244000D02*
X124894000Y-78700000D01*
X108707212Y-60457212D02*
X110350000Y-62100000D01*
X107036656Y-60457212D02*
X108707212Y-60457212D01*
%TO.N,SCL_1*%
X121700000Y-78100000D02*
X121700000Y-80450000D01*
X121050000Y-61800000D02*
X121250000Y-62000000D01*
X122500000Y-38159000D02*
X124714000Y-35945000D01*
X121250000Y-77650000D02*
X121700000Y-78100000D01*
X122500000Y-48200000D02*
X122500000Y-38159000D01*
X121700000Y-80450000D02*
X120494000Y-81656000D01*
X121250000Y-62000000D02*
X121250000Y-77650000D01*
X120494000Y-81656000D02*
X120494000Y-83700000D01*
%TO.N,GND*%
X105873656Y-52226344D02*
X105873656Y-56754212D01*
X106639788Y-51460212D02*
X105873656Y-52226344D01*
X107150000Y-34150000D02*
X107900000Y-34900000D01*
X109601000Y-50292000D02*
X108432788Y-51460212D01*
X118598000Y-51455000D02*
X110764000Y-51455000D01*
X105873656Y-56754212D02*
X107036656Y-57917212D01*
X119761000Y-50292000D02*
X118598000Y-51455000D01*
X107900000Y-34900000D02*
X107900000Y-48591000D01*
X107900000Y-48591000D02*
X109601000Y-50292000D01*
X107150000Y-34050000D02*
X107150000Y-34150000D01*
X110764000Y-51455000D02*
X109601000Y-50292000D01*
X108432788Y-51460212D02*
X106639788Y-51460212D01*
%TO.N,+BATT*%
X108458000Y-82804000D02*
X107188000Y-84074000D01*
X111600000Y-75150000D02*
X108458000Y-78292000D01*
X108458000Y-78292000D02*
X108458000Y-82804000D01*
X110050000Y-71950000D02*
X111600000Y-73500000D01*
X111600000Y-73500000D02*
X111600000Y-75150000D01*
%TO.N,ESP32_5V5*%
X124714000Y-25785000D02*
X123337000Y-27162000D01*
X108000000Y-27600000D02*
X108000000Y-30800000D01*
X123337000Y-27162000D02*
X108438000Y-27162000D01*
X108438000Y-27162000D02*
X108000000Y-27600000D01*
%TO.N,BATT_SWITCHED*%
X113284000Y-72644000D02*
X106934000Y-66294000D01*
X115800000Y-85876000D02*
X115800000Y-87600000D01*
X113284000Y-77470000D02*
X113284000Y-72644000D01*
X107442000Y-61976000D02*
X108966000Y-61976000D01*
X119293000Y-82383000D02*
X115800000Y-85876000D01*
X113985000Y-76769000D02*
X118425000Y-76769000D01*
X119380000Y-77724000D02*
X119293000Y-77811000D01*
X106934000Y-62484000D02*
X107442000Y-61976000D01*
X118425000Y-76769000D02*
X119380000Y-77724000D01*
X106934000Y-66294000D02*
X106934000Y-62484000D01*
X119293000Y-77811000D02*
X119293000Y-82383000D01*
X113284000Y-77470000D02*
X113985000Y-76769000D01*
%TO.N,Net-(GY1-SCL)*%
X109606212Y-55377212D02*
X107036656Y-55377212D01*
X114681000Y-60452000D02*
X109606212Y-55377212D01*
%TO.N,BATTERY_READER*%
X107500000Y-32200000D02*
X123509000Y-32200000D01*
X106553000Y-36703000D02*
X106150000Y-36300000D01*
X123509000Y-32200000D02*
X124714000Y-33405000D01*
X106150000Y-36300000D02*
X106150000Y-33550000D01*
X106150000Y-33550000D02*
X107500000Y-32200000D01*
%TO.N,Net-(CHGR1-5_VIN)*%
X119250000Y-67434000D02*
X116840000Y-65024000D01*
X119250000Y-74550000D02*
X119250000Y-67434000D01*
X116840000Y-65024000D02*
X116840000Y-61976000D01*
%TD*%
M02*
