%TF.GenerationSoftware,KiCad,Pcbnew,9.0.2*%
%TF.CreationDate,2025-07-09T03:39:21-04:00*%
%TF.ProjectId,FBT,4642542e-6b69-4636-9164-5f7063625858,rev?*%
%TF.SameCoordinates,Original*%
%TF.FileFunction,Drillmap*%
%TF.FilePolarity,Positive*%
%FSLAX45Y45*%
G04 Gerber Fmt 4.5, Leading zero omitted, Abs format (unit mm)*
G04 Created by KiCad (PCBNEW 9.0.2) date 2025-07-09 03:39:21*
%MOMM*%
%LPD*%
G01*
G04 APERTURE LIST*
%ADD10C,0.050000*%
%ADD11C,0.200000*%
%ADD12C,0.150000*%
G04 APERTURE END LIST*
D10*
X9150000Y-4710000D02*
X11150000Y-4710000D01*
X11150000Y-11210000D01*
X9150000Y-11210000D01*
X9150000Y-4710000D01*
D11*
D12*
X10735000Y-10255500D02*
X10885000Y-10405500D01*
X10885000Y-10255500D02*
X10735000Y-10405500D01*
X10735000Y-10955500D02*
X10885000Y-11105500D01*
X10885000Y-10955500D02*
X10735000Y-11105500D01*
D11*
X9408277Y-11523984D02*
X9408277Y-11323984D01*
X9408277Y-11323984D02*
X9455896Y-11323984D01*
X9455896Y-11323984D02*
X9484467Y-11333508D01*
X9484467Y-11333508D02*
X9503515Y-11352555D01*
X9503515Y-11352555D02*
X9513039Y-11371603D01*
X9513039Y-11371603D02*
X9522563Y-11409698D01*
X9522563Y-11409698D02*
X9522563Y-11438269D01*
X9522563Y-11438269D02*
X9513039Y-11476365D01*
X9513039Y-11476365D02*
X9503515Y-11495412D01*
X9503515Y-11495412D02*
X9484467Y-11514460D01*
X9484467Y-11514460D02*
X9455896Y-11523984D01*
X9455896Y-11523984D02*
X9408277Y-11523984D01*
X9608277Y-11523984D02*
X9608277Y-11390650D01*
X9608277Y-11428746D02*
X9617801Y-11409698D01*
X9617801Y-11409698D02*
X9627324Y-11400174D01*
X9627324Y-11400174D02*
X9646372Y-11390650D01*
X9646372Y-11390650D02*
X9665420Y-11390650D01*
X9732086Y-11523984D02*
X9732086Y-11390650D01*
X9732086Y-11323984D02*
X9722563Y-11333508D01*
X9722563Y-11333508D02*
X9732086Y-11343031D01*
X9732086Y-11343031D02*
X9741610Y-11333508D01*
X9741610Y-11333508D02*
X9732086Y-11323984D01*
X9732086Y-11323984D02*
X9732086Y-11343031D01*
X9855896Y-11523984D02*
X9836848Y-11514460D01*
X9836848Y-11514460D02*
X9827324Y-11495412D01*
X9827324Y-11495412D02*
X9827324Y-11323984D01*
X9960658Y-11523984D02*
X9941610Y-11514460D01*
X9941610Y-11514460D02*
X9932086Y-11495412D01*
X9932086Y-11495412D02*
X9932086Y-11323984D01*
X10189229Y-11523984D02*
X10189229Y-11323984D01*
X10189229Y-11323984D02*
X10255896Y-11466841D01*
X10255896Y-11466841D02*
X10322563Y-11323984D01*
X10322563Y-11323984D02*
X10322563Y-11523984D01*
X10503515Y-11523984D02*
X10503515Y-11419222D01*
X10503515Y-11419222D02*
X10493991Y-11400174D01*
X10493991Y-11400174D02*
X10474944Y-11390650D01*
X10474944Y-11390650D02*
X10436848Y-11390650D01*
X10436848Y-11390650D02*
X10417801Y-11400174D01*
X10503515Y-11514460D02*
X10484467Y-11523984D01*
X10484467Y-11523984D02*
X10436848Y-11523984D01*
X10436848Y-11523984D02*
X10417801Y-11514460D01*
X10417801Y-11514460D02*
X10408277Y-11495412D01*
X10408277Y-11495412D02*
X10408277Y-11476365D01*
X10408277Y-11476365D02*
X10417801Y-11457317D01*
X10417801Y-11457317D02*
X10436848Y-11447793D01*
X10436848Y-11447793D02*
X10484467Y-11447793D01*
X10484467Y-11447793D02*
X10503515Y-11438269D01*
X10598753Y-11390650D02*
X10598753Y-11590650D01*
X10598753Y-11400174D02*
X10617801Y-11390650D01*
X10617801Y-11390650D02*
X10655896Y-11390650D01*
X10655896Y-11390650D02*
X10674944Y-11400174D01*
X10674944Y-11400174D02*
X10684467Y-11409698D01*
X10684467Y-11409698D02*
X10693991Y-11428746D01*
X10693991Y-11428746D02*
X10693991Y-11485888D01*
X10693991Y-11485888D02*
X10684467Y-11504936D01*
X10684467Y-11504936D02*
X10674944Y-11514460D01*
X10674944Y-11514460D02*
X10655896Y-11523984D01*
X10655896Y-11523984D02*
X10617801Y-11523984D01*
X10617801Y-11523984D02*
X10598753Y-11514460D01*
X10779705Y-11504936D02*
X10789229Y-11514460D01*
X10789229Y-11514460D02*
X10779705Y-11523984D01*
X10779705Y-11523984D02*
X10770182Y-11514460D01*
X10770182Y-11514460D02*
X10779705Y-11504936D01*
X10779705Y-11504936D02*
X10779705Y-11523984D01*
X10779705Y-11400174D02*
X10789229Y-11409698D01*
X10789229Y-11409698D02*
X10779705Y-11419222D01*
X10779705Y-11419222D02*
X10770182Y-11409698D01*
X10770182Y-11409698D02*
X10779705Y-11400174D01*
X10779705Y-11400174D02*
X10779705Y-11419222D01*
D12*
X8997500Y-11777500D02*
X9147500Y-11927500D01*
X9147500Y-11777500D02*
X8997500Y-11927500D01*
D11*
X9513039Y-11943984D02*
X9398753Y-11943984D01*
X9455896Y-11943984D02*
X9455896Y-11743984D01*
X9455896Y-11743984D02*
X9436848Y-11772555D01*
X9436848Y-11772555D02*
X9417801Y-11791603D01*
X9417801Y-11791603D02*
X9398753Y-11801127D01*
X9598753Y-11924936D02*
X9608277Y-11934460D01*
X9608277Y-11934460D02*
X9598753Y-11943984D01*
X9598753Y-11943984D02*
X9589229Y-11934460D01*
X9589229Y-11934460D02*
X9598753Y-11924936D01*
X9598753Y-11924936D02*
X9598753Y-11943984D01*
X9789229Y-11743984D02*
X9693991Y-11743984D01*
X9693991Y-11743984D02*
X9684467Y-11839222D01*
X9684467Y-11839222D02*
X9693991Y-11829698D01*
X9693991Y-11829698D02*
X9713039Y-11820174D01*
X9713039Y-11820174D02*
X9760658Y-11820174D01*
X9760658Y-11820174D02*
X9779705Y-11829698D01*
X9779705Y-11829698D02*
X9789229Y-11839222D01*
X9789229Y-11839222D02*
X9798753Y-11858269D01*
X9798753Y-11858269D02*
X9798753Y-11905888D01*
X9798753Y-11905888D02*
X9789229Y-11924936D01*
X9789229Y-11924936D02*
X9779705Y-11934460D01*
X9779705Y-11934460D02*
X9760658Y-11943984D01*
X9760658Y-11943984D02*
X9713039Y-11943984D01*
X9713039Y-11943984D02*
X9693991Y-11934460D01*
X9693991Y-11934460D02*
X9684467Y-11924936D01*
X9922563Y-11743984D02*
X9941610Y-11743984D01*
X9941610Y-11743984D02*
X9960658Y-11753508D01*
X9960658Y-11753508D02*
X9970182Y-11763031D01*
X9970182Y-11763031D02*
X9979705Y-11782079D01*
X9979705Y-11782079D02*
X9989229Y-11820174D01*
X9989229Y-11820174D02*
X9989229Y-11867793D01*
X9989229Y-11867793D02*
X9979705Y-11905888D01*
X9979705Y-11905888D02*
X9970182Y-11924936D01*
X9970182Y-11924936D02*
X9960658Y-11934460D01*
X9960658Y-11934460D02*
X9941610Y-11943984D01*
X9941610Y-11943984D02*
X9922563Y-11943984D01*
X9922563Y-11943984D02*
X9903515Y-11934460D01*
X9903515Y-11934460D02*
X9893991Y-11924936D01*
X9893991Y-11924936D02*
X9884467Y-11905888D01*
X9884467Y-11905888D02*
X9874944Y-11867793D01*
X9874944Y-11867793D02*
X9874944Y-11820174D01*
X9874944Y-11820174D02*
X9884467Y-11782079D01*
X9884467Y-11782079D02*
X9893991Y-11763031D01*
X9893991Y-11763031D02*
X9903515Y-11753508D01*
X9903515Y-11753508D02*
X9922563Y-11743984D01*
X10113039Y-11743984D02*
X10132086Y-11743984D01*
X10132086Y-11743984D02*
X10151134Y-11753508D01*
X10151134Y-11753508D02*
X10160658Y-11763031D01*
X10160658Y-11763031D02*
X10170182Y-11782079D01*
X10170182Y-11782079D02*
X10179705Y-11820174D01*
X10179705Y-11820174D02*
X10179705Y-11867793D01*
X10179705Y-11867793D02*
X10170182Y-11905888D01*
X10170182Y-11905888D02*
X10160658Y-11924936D01*
X10160658Y-11924936D02*
X10151134Y-11934460D01*
X10151134Y-11934460D02*
X10132086Y-11943984D01*
X10132086Y-11943984D02*
X10113039Y-11943984D01*
X10113039Y-11943984D02*
X10093991Y-11934460D01*
X10093991Y-11934460D02*
X10084467Y-11924936D01*
X10084467Y-11924936D02*
X10074944Y-11905888D01*
X10074944Y-11905888D02*
X10065420Y-11867793D01*
X10065420Y-11867793D02*
X10065420Y-11820174D01*
X10065420Y-11820174D02*
X10074944Y-11782079D01*
X10074944Y-11782079D02*
X10084467Y-11763031D01*
X10084467Y-11763031D02*
X10093991Y-11753508D01*
X10093991Y-11753508D02*
X10113039Y-11743984D01*
X10265420Y-11943984D02*
X10265420Y-11810650D01*
X10265420Y-11829698D02*
X10274944Y-11820174D01*
X10274944Y-11820174D02*
X10293991Y-11810650D01*
X10293991Y-11810650D02*
X10322563Y-11810650D01*
X10322563Y-11810650D02*
X10341610Y-11820174D01*
X10341610Y-11820174D02*
X10351134Y-11839222D01*
X10351134Y-11839222D02*
X10351134Y-11943984D01*
X10351134Y-11839222D02*
X10360658Y-11820174D01*
X10360658Y-11820174D02*
X10379705Y-11810650D01*
X10379705Y-11810650D02*
X10408277Y-11810650D01*
X10408277Y-11810650D02*
X10427325Y-11820174D01*
X10427325Y-11820174D02*
X10436848Y-11839222D01*
X10436848Y-11839222D02*
X10436848Y-11943984D01*
X10532086Y-11943984D02*
X10532086Y-11810650D01*
X10532086Y-11829698D02*
X10541610Y-11820174D01*
X10541610Y-11820174D02*
X10560658Y-11810650D01*
X10560658Y-11810650D02*
X10589229Y-11810650D01*
X10589229Y-11810650D02*
X10608277Y-11820174D01*
X10608277Y-11820174D02*
X10617801Y-11839222D01*
X10617801Y-11839222D02*
X10617801Y-11943984D01*
X10617801Y-11839222D02*
X10627325Y-11820174D01*
X10627325Y-11820174D02*
X10646372Y-11810650D01*
X10646372Y-11810650D02*
X10674944Y-11810650D01*
X10674944Y-11810650D02*
X10693991Y-11820174D01*
X10693991Y-11820174D02*
X10703515Y-11839222D01*
X10703515Y-11839222D02*
X10703515Y-11943984D01*
X11093991Y-11734460D02*
X10922563Y-11991603D01*
X11351134Y-11743984D02*
X11370182Y-11743984D01*
X11370182Y-11743984D02*
X11389229Y-11753508D01*
X11389229Y-11753508D02*
X11398753Y-11763031D01*
X11398753Y-11763031D02*
X11408277Y-11782079D01*
X11408277Y-11782079D02*
X11417801Y-11820174D01*
X11417801Y-11820174D02*
X11417801Y-11867793D01*
X11417801Y-11867793D02*
X11408277Y-11905888D01*
X11408277Y-11905888D02*
X11398753Y-11924936D01*
X11398753Y-11924936D02*
X11389229Y-11934460D01*
X11389229Y-11934460D02*
X11370182Y-11943984D01*
X11370182Y-11943984D02*
X11351134Y-11943984D01*
X11351134Y-11943984D02*
X11332086Y-11934460D01*
X11332086Y-11934460D02*
X11322563Y-11924936D01*
X11322563Y-11924936D02*
X11313039Y-11905888D01*
X11313039Y-11905888D02*
X11303515Y-11867793D01*
X11303515Y-11867793D02*
X11303515Y-11820174D01*
X11303515Y-11820174D02*
X11313039Y-11782079D01*
X11313039Y-11782079D02*
X11322563Y-11763031D01*
X11322563Y-11763031D02*
X11332086Y-11753508D01*
X11332086Y-11753508D02*
X11351134Y-11743984D01*
X11503515Y-11924936D02*
X11513039Y-11934460D01*
X11513039Y-11934460D02*
X11503515Y-11943984D01*
X11503515Y-11943984D02*
X11493991Y-11934460D01*
X11493991Y-11934460D02*
X11503515Y-11924936D01*
X11503515Y-11924936D02*
X11503515Y-11943984D01*
X11636848Y-11743984D02*
X11655896Y-11743984D01*
X11655896Y-11743984D02*
X11674944Y-11753508D01*
X11674944Y-11753508D02*
X11684467Y-11763031D01*
X11684467Y-11763031D02*
X11693991Y-11782079D01*
X11693991Y-11782079D02*
X11703515Y-11820174D01*
X11703515Y-11820174D02*
X11703515Y-11867793D01*
X11703515Y-11867793D02*
X11693991Y-11905888D01*
X11693991Y-11905888D02*
X11684467Y-11924936D01*
X11684467Y-11924936D02*
X11674944Y-11934460D01*
X11674944Y-11934460D02*
X11655896Y-11943984D01*
X11655896Y-11943984D02*
X11636848Y-11943984D01*
X11636848Y-11943984D02*
X11617801Y-11934460D01*
X11617801Y-11934460D02*
X11608277Y-11924936D01*
X11608277Y-11924936D02*
X11598753Y-11905888D01*
X11598753Y-11905888D02*
X11589229Y-11867793D01*
X11589229Y-11867793D02*
X11589229Y-11820174D01*
X11589229Y-11820174D02*
X11598753Y-11782079D01*
X11598753Y-11782079D02*
X11608277Y-11763031D01*
X11608277Y-11763031D02*
X11617801Y-11753508D01*
X11617801Y-11753508D02*
X11636848Y-11743984D01*
X11884467Y-11743984D02*
X11789229Y-11743984D01*
X11789229Y-11743984D02*
X11779706Y-11839222D01*
X11779706Y-11839222D02*
X11789229Y-11829698D01*
X11789229Y-11829698D02*
X11808277Y-11820174D01*
X11808277Y-11820174D02*
X11855896Y-11820174D01*
X11855896Y-11820174D02*
X11874944Y-11829698D01*
X11874944Y-11829698D02*
X11884467Y-11839222D01*
X11884467Y-11839222D02*
X11893991Y-11858269D01*
X11893991Y-11858269D02*
X11893991Y-11905888D01*
X11893991Y-11905888D02*
X11884467Y-11924936D01*
X11884467Y-11924936D02*
X11874944Y-11934460D01*
X11874944Y-11934460D02*
X11855896Y-11943984D01*
X11855896Y-11943984D02*
X11808277Y-11943984D01*
X11808277Y-11943984D02*
X11789229Y-11934460D01*
X11789229Y-11934460D02*
X11779706Y-11924936D01*
X11989229Y-11943984D02*
X12027325Y-11943984D01*
X12027325Y-11943984D02*
X12046372Y-11934460D01*
X12046372Y-11934460D02*
X12055896Y-11924936D01*
X12055896Y-11924936D02*
X12074944Y-11896365D01*
X12074944Y-11896365D02*
X12084467Y-11858269D01*
X12084467Y-11858269D02*
X12084467Y-11782079D01*
X12084467Y-11782079D02*
X12074944Y-11763031D01*
X12074944Y-11763031D02*
X12065420Y-11753508D01*
X12065420Y-11753508D02*
X12046372Y-11743984D01*
X12046372Y-11743984D02*
X12008277Y-11743984D01*
X12008277Y-11743984D02*
X11989229Y-11753508D01*
X11989229Y-11753508D02*
X11979706Y-11763031D01*
X11979706Y-11763031D02*
X11970182Y-11782079D01*
X11970182Y-11782079D02*
X11970182Y-11829698D01*
X11970182Y-11829698D02*
X11979706Y-11848746D01*
X11979706Y-11848746D02*
X11989229Y-11858269D01*
X11989229Y-11858269D02*
X12008277Y-11867793D01*
X12008277Y-11867793D02*
X12046372Y-11867793D01*
X12046372Y-11867793D02*
X12065420Y-11858269D01*
X12065420Y-11858269D02*
X12074944Y-11848746D01*
X12074944Y-11848746D02*
X12084467Y-11829698D01*
X12274944Y-11943984D02*
X12160658Y-11943984D01*
X12217801Y-11943984D02*
X12217801Y-11743984D01*
X12217801Y-11743984D02*
X12198753Y-11772555D01*
X12198753Y-11772555D02*
X12179706Y-11791603D01*
X12179706Y-11791603D02*
X12160658Y-11801127D01*
X12351134Y-11743984D02*
X12351134Y-11782079D01*
X12427325Y-11743984D02*
X12427325Y-11782079D01*
X12722563Y-12020174D02*
X12713039Y-12010650D01*
X12713039Y-12010650D02*
X12693991Y-11982079D01*
X12693991Y-11982079D02*
X12684468Y-11963031D01*
X12684468Y-11963031D02*
X12674944Y-11934460D01*
X12674944Y-11934460D02*
X12665420Y-11886841D01*
X12665420Y-11886841D02*
X12665420Y-11848746D01*
X12665420Y-11848746D02*
X12674944Y-11801127D01*
X12674944Y-11801127D02*
X12684468Y-11772555D01*
X12684468Y-11772555D02*
X12693991Y-11753508D01*
X12693991Y-11753508D02*
X12713039Y-11724936D01*
X12713039Y-11724936D02*
X12722563Y-11715412D01*
X12789229Y-11763031D02*
X12798753Y-11753508D01*
X12798753Y-11753508D02*
X12817801Y-11743984D01*
X12817801Y-11743984D02*
X12865420Y-11743984D01*
X12865420Y-11743984D02*
X12884468Y-11753508D01*
X12884468Y-11753508D02*
X12893991Y-11763031D01*
X12893991Y-11763031D02*
X12903515Y-11782079D01*
X12903515Y-11782079D02*
X12903515Y-11801127D01*
X12903515Y-11801127D02*
X12893991Y-11829698D01*
X12893991Y-11829698D02*
X12779706Y-11943984D01*
X12779706Y-11943984D02*
X12903515Y-11943984D01*
X13141610Y-11943984D02*
X13141610Y-11743984D01*
X13227325Y-11943984D02*
X13227325Y-11839222D01*
X13227325Y-11839222D02*
X13217801Y-11820174D01*
X13217801Y-11820174D02*
X13198753Y-11810650D01*
X13198753Y-11810650D02*
X13170182Y-11810650D01*
X13170182Y-11810650D02*
X13151134Y-11820174D01*
X13151134Y-11820174D02*
X13141610Y-11829698D01*
X13351134Y-11943984D02*
X13332087Y-11934460D01*
X13332087Y-11934460D02*
X13322563Y-11924936D01*
X13322563Y-11924936D02*
X13313039Y-11905888D01*
X13313039Y-11905888D02*
X13313039Y-11848746D01*
X13313039Y-11848746D02*
X13322563Y-11829698D01*
X13322563Y-11829698D02*
X13332087Y-11820174D01*
X13332087Y-11820174D02*
X13351134Y-11810650D01*
X13351134Y-11810650D02*
X13379706Y-11810650D01*
X13379706Y-11810650D02*
X13398753Y-11820174D01*
X13398753Y-11820174D02*
X13408277Y-11829698D01*
X13408277Y-11829698D02*
X13417801Y-11848746D01*
X13417801Y-11848746D02*
X13417801Y-11905888D01*
X13417801Y-11905888D02*
X13408277Y-11924936D01*
X13408277Y-11924936D02*
X13398753Y-11934460D01*
X13398753Y-11934460D02*
X13379706Y-11943984D01*
X13379706Y-11943984D02*
X13351134Y-11943984D01*
X13532087Y-11943984D02*
X13513039Y-11934460D01*
X13513039Y-11934460D02*
X13503515Y-11915412D01*
X13503515Y-11915412D02*
X13503515Y-11743984D01*
X13684468Y-11934460D02*
X13665420Y-11943984D01*
X13665420Y-11943984D02*
X13627325Y-11943984D01*
X13627325Y-11943984D02*
X13608277Y-11934460D01*
X13608277Y-11934460D02*
X13598753Y-11915412D01*
X13598753Y-11915412D02*
X13598753Y-11839222D01*
X13598753Y-11839222D02*
X13608277Y-11820174D01*
X13608277Y-11820174D02*
X13627325Y-11810650D01*
X13627325Y-11810650D02*
X13665420Y-11810650D01*
X13665420Y-11810650D02*
X13684468Y-11820174D01*
X13684468Y-11820174D02*
X13693991Y-11839222D01*
X13693991Y-11839222D02*
X13693991Y-11858269D01*
X13693991Y-11858269D02*
X13598753Y-11877317D01*
X13770182Y-11934460D02*
X13789230Y-11943984D01*
X13789230Y-11943984D02*
X13827325Y-11943984D01*
X13827325Y-11943984D02*
X13846372Y-11934460D01*
X13846372Y-11934460D02*
X13855896Y-11915412D01*
X13855896Y-11915412D02*
X13855896Y-11905888D01*
X13855896Y-11905888D02*
X13846372Y-11886841D01*
X13846372Y-11886841D02*
X13827325Y-11877317D01*
X13827325Y-11877317D02*
X13798753Y-11877317D01*
X13798753Y-11877317D02*
X13779706Y-11867793D01*
X13779706Y-11867793D02*
X13770182Y-11848746D01*
X13770182Y-11848746D02*
X13770182Y-11839222D01*
X13770182Y-11839222D02*
X13779706Y-11820174D01*
X13779706Y-11820174D02*
X13798753Y-11810650D01*
X13798753Y-11810650D02*
X13827325Y-11810650D01*
X13827325Y-11810650D02*
X13846372Y-11820174D01*
X13922563Y-12020174D02*
X13932087Y-12010650D01*
X13932087Y-12010650D02*
X13951134Y-11982079D01*
X13951134Y-11982079D02*
X13960658Y-11963031D01*
X13960658Y-11963031D02*
X13970182Y-11934460D01*
X13970182Y-11934460D02*
X13979706Y-11886841D01*
X13979706Y-11886841D02*
X13979706Y-11848746D01*
X13979706Y-11848746D02*
X13970182Y-11801127D01*
X13970182Y-11801127D02*
X13960658Y-11772555D01*
X13960658Y-11772555D02*
X13951134Y-11753508D01*
X13951134Y-11753508D02*
X13932087Y-11724936D01*
X13932087Y-11724936D02*
X13922563Y-11715412D01*
X14284468Y-12020174D02*
X14274944Y-12010650D01*
X14274944Y-12010650D02*
X14255896Y-11982079D01*
X14255896Y-11982079D02*
X14246372Y-11963031D01*
X14246372Y-11963031D02*
X14236849Y-11934460D01*
X14236849Y-11934460D02*
X14227325Y-11886841D01*
X14227325Y-11886841D02*
X14227325Y-11848746D01*
X14227325Y-11848746D02*
X14236849Y-11801127D01*
X14236849Y-11801127D02*
X14246372Y-11772555D01*
X14246372Y-11772555D02*
X14255896Y-11753508D01*
X14255896Y-11753508D02*
X14274944Y-11724936D01*
X14274944Y-11724936D02*
X14284468Y-11715412D01*
X14360658Y-11810650D02*
X14360658Y-11943984D01*
X14360658Y-11829698D02*
X14370182Y-11820174D01*
X14370182Y-11820174D02*
X14389230Y-11810650D01*
X14389230Y-11810650D02*
X14417801Y-11810650D01*
X14417801Y-11810650D02*
X14436849Y-11820174D01*
X14436849Y-11820174D02*
X14446372Y-11839222D01*
X14446372Y-11839222D02*
X14446372Y-11943984D01*
X14570182Y-11943984D02*
X14551134Y-11934460D01*
X14551134Y-11934460D02*
X14541611Y-11924936D01*
X14541611Y-11924936D02*
X14532087Y-11905888D01*
X14532087Y-11905888D02*
X14532087Y-11848746D01*
X14532087Y-11848746D02*
X14541611Y-11829698D01*
X14541611Y-11829698D02*
X14551134Y-11820174D01*
X14551134Y-11820174D02*
X14570182Y-11810650D01*
X14570182Y-11810650D02*
X14598753Y-11810650D01*
X14598753Y-11810650D02*
X14617801Y-11820174D01*
X14617801Y-11820174D02*
X14627325Y-11829698D01*
X14627325Y-11829698D02*
X14636849Y-11848746D01*
X14636849Y-11848746D02*
X14636849Y-11905888D01*
X14636849Y-11905888D02*
X14627325Y-11924936D01*
X14627325Y-11924936D02*
X14617801Y-11934460D01*
X14617801Y-11934460D02*
X14598753Y-11943984D01*
X14598753Y-11943984D02*
X14570182Y-11943984D01*
X14693992Y-11810650D02*
X14770182Y-11810650D01*
X14722563Y-11743984D02*
X14722563Y-11915412D01*
X14722563Y-11915412D02*
X14732087Y-11934460D01*
X14732087Y-11934460D02*
X14751134Y-11943984D01*
X14751134Y-11943984D02*
X14770182Y-11943984D01*
X14989230Y-11810650D02*
X14989230Y-12010650D01*
X14989230Y-11820174D02*
X15008277Y-11810650D01*
X15008277Y-11810650D02*
X15046373Y-11810650D01*
X15046373Y-11810650D02*
X15065420Y-11820174D01*
X15065420Y-11820174D02*
X15074944Y-11829698D01*
X15074944Y-11829698D02*
X15084468Y-11848746D01*
X15084468Y-11848746D02*
X15084468Y-11905888D01*
X15084468Y-11905888D02*
X15074944Y-11924936D01*
X15074944Y-11924936D02*
X15065420Y-11934460D01*
X15065420Y-11934460D02*
X15046373Y-11943984D01*
X15046373Y-11943984D02*
X15008277Y-11943984D01*
X15008277Y-11943984D02*
X14989230Y-11934460D01*
X15198753Y-11943984D02*
X15179706Y-11934460D01*
X15179706Y-11934460D02*
X15170182Y-11915412D01*
X15170182Y-11915412D02*
X15170182Y-11743984D01*
X15360658Y-11943984D02*
X15360658Y-11839222D01*
X15360658Y-11839222D02*
X15351134Y-11820174D01*
X15351134Y-11820174D02*
X15332087Y-11810650D01*
X15332087Y-11810650D02*
X15293992Y-11810650D01*
X15293992Y-11810650D02*
X15274944Y-11820174D01*
X15360658Y-11934460D02*
X15341611Y-11943984D01*
X15341611Y-11943984D02*
X15293992Y-11943984D01*
X15293992Y-11943984D02*
X15274944Y-11934460D01*
X15274944Y-11934460D02*
X15265420Y-11915412D01*
X15265420Y-11915412D02*
X15265420Y-11896365D01*
X15265420Y-11896365D02*
X15274944Y-11877317D01*
X15274944Y-11877317D02*
X15293992Y-11867793D01*
X15293992Y-11867793D02*
X15341611Y-11867793D01*
X15341611Y-11867793D02*
X15360658Y-11858269D01*
X15427325Y-11810650D02*
X15503515Y-11810650D01*
X15455896Y-11743984D02*
X15455896Y-11915412D01*
X15455896Y-11915412D02*
X15465420Y-11934460D01*
X15465420Y-11934460D02*
X15484468Y-11943984D01*
X15484468Y-11943984D02*
X15503515Y-11943984D01*
X15646373Y-11934460D02*
X15627325Y-11943984D01*
X15627325Y-11943984D02*
X15589230Y-11943984D01*
X15589230Y-11943984D02*
X15570182Y-11934460D01*
X15570182Y-11934460D02*
X15560658Y-11915412D01*
X15560658Y-11915412D02*
X15560658Y-11839222D01*
X15560658Y-11839222D02*
X15570182Y-11820174D01*
X15570182Y-11820174D02*
X15589230Y-11810650D01*
X15589230Y-11810650D02*
X15627325Y-11810650D01*
X15627325Y-11810650D02*
X15646373Y-11820174D01*
X15646373Y-11820174D02*
X15655896Y-11839222D01*
X15655896Y-11839222D02*
X15655896Y-11858269D01*
X15655896Y-11858269D02*
X15560658Y-11877317D01*
X15827325Y-11943984D02*
X15827325Y-11743984D01*
X15827325Y-11934460D02*
X15808277Y-11943984D01*
X15808277Y-11943984D02*
X15770182Y-11943984D01*
X15770182Y-11943984D02*
X15751134Y-11934460D01*
X15751134Y-11934460D02*
X15741611Y-11924936D01*
X15741611Y-11924936D02*
X15732087Y-11905888D01*
X15732087Y-11905888D02*
X15732087Y-11848746D01*
X15732087Y-11848746D02*
X15741611Y-11829698D01*
X15741611Y-11829698D02*
X15751134Y-11820174D01*
X15751134Y-11820174D02*
X15770182Y-11810650D01*
X15770182Y-11810650D02*
X15808277Y-11810650D01*
X15808277Y-11810650D02*
X15827325Y-11820174D01*
X15903515Y-12020174D02*
X15913039Y-12010650D01*
X15913039Y-12010650D02*
X15932087Y-11982079D01*
X15932087Y-11982079D02*
X15941611Y-11963031D01*
X15941611Y-11963031D02*
X15951134Y-11934460D01*
X15951134Y-11934460D02*
X15960658Y-11886841D01*
X15960658Y-11886841D02*
X15960658Y-11848746D01*
X15960658Y-11848746D02*
X15951134Y-11801127D01*
X15951134Y-11801127D02*
X15941611Y-11772555D01*
X15941611Y-11772555D02*
X15932087Y-11753508D01*
X15932087Y-11753508D02*
X15913039Y-11724936D01*
X15913039Y-11724936D02*
X15903515Y-11715412D01*
M02*
