%TF.GenerationSoftware,KiCad,Pcbnew,9.0.2*%
%TF.CreationDate,2026-03-24T02:08:03-04:00*%
%TF.ProjectId,FBT,4642542e-6b69-4636-9164-5f7063625858,3.0*%
%TF.SameCoordinates,Original*%
%TF.FileFunction,Soldermask,Bot*%
%TF.FilePolarity,Negative*%
%FSLAX46Y46*%
G04 Gerber Fmt 4.6, Leading zero omitted, Abs format (unit mm)*
G04 Created by KiCad (PCBNEW 9.0.2) date 2026-03-24 02:08:03*
%MOMM*%
%LPD*%
G01*
G04 APERTURE LIST*
G04 Aperture macros list*
%AMRoundRect*
0 Rectangle with rounded corners*
0 $1 Rounding radius*
0 $2 $3 $4 $5 $6 $7 $8 $9 X,Y pos of 4 corners*
0 Add a 4 corners polygon primitive as box body*
4,1,4,$2,$3,$4,$5,$6,$7,$8,$9,$2,$3,0*
0 Add four circle primitives for the rounded corners*
1,1,$1+$1,$2,$3*
1,1,$1+$1,$4,$5*
1,1,$1+$1,$6,$7*
1,1,$1+$1,$8,$9*
0 Add four rect primitives between the rounded corners*
20,1,$1+$1,$2,$3,$4,$5,0*
20,1,$1+$1,$4,$5,$6,$7,0*
20,1,$1+$1,$6,$7,$8,$9,0*
20,1,$1+$1,$8,$9,$2,$3,0*%
%AMFreePoly0*
4,1,23,0.550000,-0.750000,0.000000,-0.750000,0.000000,-0.745722,-0.065263,-0.745722,-0.191342,-0.711940,-0.304381,-0.646677,-0.396677,-0.554381,-0.461940,-0.441342,-0.495722,-0.315263,-0.495722,-0.250000,-0.500000,-0.250000,-0.500000,0.250000,-0.495722,0.250000,-0.495722,0.315263,-0.461940,0.441342,-0.396677,0.554381,-0.304381,0.646677,-0.191342,0.711940,-0.065263,0.745722,0.000000,0.745722,
0.000000,0.750000,0.550000,0.750000,0.550000,-0.750000,0.550000,-0.750000,$1*%
%AMFreePoly1*
4,1,23,0.000000,0.745722,0.065263,0.745722,0.191342,0.711940,0.304381,0.646677,0.396677,0.554381,0.461940,0.441342,0.495722,0.315263,0.495722,0.250000,0.500000,0.250000,0.500000,-0.250000,0.495722,-0.250000,0.495722,-0.315263,0.461940,-0.441342,0.396677,-0.554381,0.304381,-0.646677,0.191342,-0.711940,0.065263,-0.745722,0.000000,-0.745722,0.000000,-0.750000,-0.550000,-0.750000,
-0.550000,0.750000,0.000000,0.750000,0.000000,0.745722,0.000000,0.745722,$1*%
%AMFreePoly2*
4,1,23,0.500000,-0.750000,0.000000,-0.750000,0.000000,-0.745722,-0.065263,-0.745722,-0.191342,-0.711940,-0.304381,-0.646677,-0.396677,-0.554381,-0.461940,-0.441342,-0.495722,-0.315263,-0.495722,-0.250000,-0.500000,-0.250000,-0.500000,0.250000,-0.495722,0.250000,-0.495722,0.315263,-0.461940,0.441342,-0.396677,0.554381,-0.304381,0.646677,-0.191342,0.711940,-0.065263,0.745722,0.000000,0.745722,
0.000000,0.750000,0.500000,0.750000,0.500000,-0.750000,0.500000,-0.750000,$1*%
%AMFreePoly3*
4,1,23,0.000000,0.745722,0.065263,0.745722,0.191342,0.711940,0.304381,0.646677,0.396677,0.554381,0.461940,0.441342,0.495722,0.315263,0.495722,0.250000,0.500000,0.250000,0.500000,-0.250000,0.495722,-0.250000,0.495722,-0.315263,0.461940,-0.441342,0.396677,-0.554381,0.304381,-0.646677,0.191342,-0.711940,0.065263,-0.745722,0.000000,-0.745722,0.000000,-0.750000,-0.500000,-0.750000,
-0.500000,0.750000,0.000000,0.750000,0.000000,0.745722,0.000000,0.745722,$1*%
G04 Aperture macros list end*
%ADD10C,1.524000*%
%ADD11C,1.600000*%
%ADD12O,1.600000X2.000000*%
%ADD13C,2.100000*%
%ADD14C,1.400000*%
%ADD15RoundRect,0.250000X-1.250000X0.600000X-1.250000X-0.600000X1.250000X-0.600000X1.250000X0.600000X0*%
%ADD16O,3.000000X1.700000*%
%ADD17R,1.500000X1.050000*%
%ADD18O,1.500000X1.050000*%
%ADD19FreePoly0,270.000000*%
%ADD20R,1.500000X1.000000*%
%ADD21FreePoly1,270.000000*%
%ADD22FreePoly0,90.000000*%
%ADD23FreePoly1,90.000000*%
%ADD24FreePoly2,0.000000*%
%ADD25FreePoly3,0.000000*%
%ADD26FreePoly2,180.000000*%
%ADD27FreePoly3,180.000000*%
%ADD28C,3.000000*%
G04 APERTURE END LIST*
%TO.C,JP5*%
G36*
X129298000Y-124756000D02*
G01*
X130798000Y-124756000D01*
X130798000Y-126256000D01*
X129298000Y-126256000D01*
X129298000Y-124756000D01*
G37*
%TO.C,JP3*%
G36*
X133338000Y-126256000D02*
G01*
X131838000Y-126256000D01*
X131838000Y-124756000D01*
X133338000Y-124756000D01*
X133338000Y-126256000D01*
G37*
%TO.C,JP1*%
G36*
X114008000Y-121400000D02*
G01*
X114308000Y-121400000D01*
X114308000Y-119900000D01*
X114008000Y-119900000D01*
X114008000Y-121400000D01*
G37*
%TO.C,JP2*%
G36*
X120500000Y-96450000D02*
G01*
X120200000Y-96450000D01*
X120200000Y-97950000D01*
X120500000Y-97950000D01*
X120500000Y-96450000D01*
G37*
%TO.C,JP4*%
G36*
X124218000Y-124786000D02*
G01*
X125718000Y-124786000D01*
X125718000Y-126286000D01*
X124218000Y-126286000D01*
X124218000Y-124786000D01*
G37*
%TO.C,JP6*%
G36*
X128258000Y-126256000D02*
G01*
X126758000Y-126256000D01*
X126758000Y-124756000D01*
X128258000Y-124756000D01*
X128258000Y-126256000D01*
G37*
%TD*%
D10*
%TO.C,CHGR1*%
X127418024Y-102400000D03*
X117018024Y-102400000D03*
X117118024Y-111600000D03*
X119618024Y-111600000D03*
X124818024Y-111600000D03*
X127318024Y-111600000D03*
%TD*%
%TO.C,MCU1*%
X98316004Y-96981392D03*
X98316004Y-99521392D03*
X98316004Y-102061392D03*
X98316004Y-104601392D03*
X98316004Y-107141392D03*
X98316004Y-109681392D03*
X98316004Y-112221392D03*
X98276004Y-114761392D03*
X113516004Y-114761392D03*
X113516004Y-112221392D03*
X113516004Y-109681392D03*
X113516004Y-107141392D03*
X113516004Y-104601392D03*
X113516004Y-102061392D03*
X113516004Y-99521392D03*
X113516004Y-96981392D03*
%TD*%
D11*
%TO.C,C1*%
X123230000Y-117856000D03*
X128230000Y-117856000D03*
%TD*%
D12*
%TO.C,J1*%
X135320000Y-106050000D03*
X135320000Y-102050000D03*
X135320000Y-99050000D03*
X130920000Y-107050000D03*
%TD*%
D13*
%TO.C,SW1*%
X134700000Y-118400000D03*
X134700000Y-110200000D03*
D14*
X134700000Y-116300000D03*
X134700000Y-114300000D03*
X134700000Y-112300000D03*
%TD*%
D15*
%TO.C,BT1*%
X119120000Y-130300000D03*
D16*
X119120000Y-132800000D03*
%TD*%
D10*
%TO.C,CHGR2*%
X128320000Y-99050000D03*
X116120000Y-99050000D03*
X116220000Y-112950000D03*
X118720000Y-112950000D03*
X125720000Y-112950000D03*
X128220000Y-112950000D03*
%TD*%
D17*
%TO.C,U1*%
X116840000Y-116078000D03*
D18*
X116840000Y-117348000D03*
X116840000Y-118618000D03*
%TD*%
D10*
%TO.C,GY1*%
X135520000Y-134280000D03*
X135520000Y-131740000D03*
X135520000Y-129200000D03*
X135520000Y-126660000D03*
X135520000Y-124120000D03*
%TD*%
%TO.C,IMU1*%
X113640000Y-124220000D03*
X111100000Y-124220000D03*
X108560000Y-124220000D03*
X106020000Y-124220000D03*
X103480000Y-124220000D03*
X100940000Y-124220000D03*
X98400000Y-124220000D03*
X100940000Y-134380000D03*
X103480000Y-134380000D03*
X106020000Y-134380000D03*
X108560000Y-134380000D03*
X111100000Y-134380000D03*
%TD*%
D11*
%TO.C,R1*%
X135220000Y-121050000D03*
X127600000Y-121050000D03*
%TD*%
%TO.C,R2*%
X131000000Y-117920000D03*
X131000000Y-110300000D03*
%TD*%
D19*
%TO.C,JP5*%
X130048000Y-124206000D03*
D20*
X130048000Y-125506000D03*
D21*
X130048000Y-126806000D03*
%TD*%
D22*
%TO.C,JP3*%
X132588000Y-126806000D03*
D20*
X132588000Y-125506000D03*
D23*
X132588000Y-124206000D03*
%TD*%
D24*
%TO.C,JP1*%
X113508000Y-120650000D03*
D25*
X114808000Y-120650000D03*
%TD*%
D26*
%TO.C,JP2*%
X121000000Y-97200000D03*
D27*
X119700000Y-97200000D03*
%TD*%
D28*
%TO.C,REF\u002A\u002A*%
X118520000Y-124200000D03*
%TD*%
D19*
%TO.C,JP4*%
X124968000Y-124236000D03*
D20*
X124968000Y-125536000D03*
D21*
X124968000Y-126836000D03*
%TD*%
D22*
%TO.C,JP6*%
X127508000Y-126806000D03*
D20*
X127508000Y-125506000D03*
D23*
X127508000Y-124206000D03*
%TD*%
M02*
