<?xml version="1.0" encoding="UTF-8" standalone="no"?>
<svg
   height="2253"
   viewBox=".29 .01 798.93 719.78"
   width="2500"
   version="1.1"
   id="svg1"
   sodipodi:docname="all_graphics.svg"
   inkscape:version="1.4.2 (f4327f4, 2025-05-13)"
   xml:space="preserve"
   xmlns:inkscape="http://www.inkscape.org/namespaces/inkscape"
   xmlns:sodipodi="http://sodipodi.sourceforge.net/DTD/sodipodi-0.dtd"
   xmlns="http://www.w3.org/2000/svg"
   xmlns:svg="http://www.w3.org/2000/svg"><defs
     id="defs1"><inkscape:path-effect
       effect="mirror_symmetry"
       start_point="27.100611,15.611061"
       end_point="27.100611,20.211631"
       center_point="27.100611,17.911346"
       id="path-effect4"
       is_visible="true"
       lpeversion="1.2"
       lpesatellites=""
       mode="free"
       discard_orig_path="false"
       fuse_paths="false"
       oposite_fuse="false"
       split_items="false"
       split_open="false"
       link_styles="false" /><inkscape:path-effect
       effect="simplify"
       id="path-effect3"
       is_visible="true"
       lpeversion="1.3"
       threshold="100"
       steps="50"
       smooth_angles="360"
       helper_size="10"
       simplify_individual_paths="false"
       simplify_just_coalesce="false" /><inkscape:path-effect
       effect="mirror_symmetry"
       start_point="27.100611,15.611061"
       end_point="27.100611,20.211631"
       center_point="27.100611,17.911346"
       id="path-effect4-4"
       is_visible="true"
       lpeversion="1.2"
       lpesatellites=""
       mode="free"
       discard_orig_path="false"
       fuse_paths="false"
       oposite_fuse="false"
       split_items="false"
       split_open="false"
       link_styles="false" /></defs><sodipodi:namedview
     id="namedview1"
     pagecolor="#ffffff"
     bordercolor="#000000"
     borderopacity="0.25"
     inkscape:showpageshadow="2"
     inkscape:pageopacity="0.0"
     inkscape:pagecheckerboard="0"
     inkscape:deskcolor="#d1d1d1"
     inkscape:document-units="mm"
     inkscape:zoom="4.4954423"
     inkscape:cx="71.961773"
     inkscape:cy="26.137584"
     inkscape:window-width="1920"
     inkscape:window-height="1009"
     inkscape:window-x="-8"
     inkscape:window-y="-8"
     inkscape:window-maximized="1"
     inkscape:current-layer="svg1" /><g
     style="clip-rule:evenodd;fill-rule:evenodd;stroke-miterlimit:10"
     id="g1"
     transform="matrix(0.05045874,0,0,0.05045874,4.1798508,4.5689768)"
     inkscape:groupmode="layer"
     inkscape:label="SVR"><g
       fill="none"
       id="g3"
       transform="matrix(0.58844527,0,0,0.58844527,-68.158765,8.8113058)"><path
         stroke-width="13.62"
         d="m 72.867,191.74 37,-39 39,36"
         id="path1-0"
         style="stroke:#000000;stroke-opacity:1" /><path
         stroke-width="13.62"
         d="m 208.87,187.74 38,-35 36,38"
         id="path2-9"
         style="stroke:#000000;stroke-opacity:1" /><path
         stroke-linecap="square"
         stroke-width="17"
         d="m 56.867,253.74 c 0,0 130.61,-31.182 248,5 13.45,4.146 20.244,2.975 20,-8 -0.244,-10.975 1.909,-126.06 -46,-131"
         id="path3-4"
         style="fill:none;fill-opacity:1;stroke:#000000;stroke-opacity:1" /></g></g><g
     inkscape:groupmode="layer"
     id="layer1"
     inkscape:label="FOSS"
     transform="translate(1.24404,0.46207199)"><path
       d="m 7.8339266,3.262591 c 0.021623,0.00408 0.039354,0.025331 0.039264,0.047496 l -9.04e-5,0.913556 c 0,0.021985 -0.017734,0.043516 -0.039354,0.047405 L 6.9681381,4.4321743 c -0.021712,0.00398 -0.044691,0.024518 -0.051387,0.045505 L 6.6465208,5.152941 c -0.00959,0.019811 -0.00732,0.050754 0.00507,0.068937 L 7.143292,5.9384833 c 0.012486,0.018184 0.00995,0.045777 -0.00569,0.061429 L 6.491645,6.6458604 c -0.015471,0.015471 -0.043063,0.018004 -0.061247,0.0057 L 5.7265447,6.1683665 c -0.018095,-0.012485 -0.048492,-0.01339 -0.06749,-0.00227 l -0.3103989,0.165739 c -0.019724,0.00995 -0.042611,0.00164 -0.051025,-0.018729 L 4.6576531,4.76618 c -0.00842,-0.020357 9.07e-5,-0.04632 0.018816,-0.057809 L 4.7541821,4.660785 C 4.7684761,4.652005 4.7880171,4.6369 4.8032161,4.623151 5.083489,4.4436601 5.2694029,4.1297329 5.2694029,3.7721088 c 0,-0.5580129 -0.4522546,-1.0103579 -1.0100864,-1.0103579 -0.557832,0 -1.0100865,0.452345 -1.0100865,1.0103579 0,0.3576241 0.1859138,0.6715513 0.4661869,0.8510422 0.015289,0.013842 0.03474,0.028861 0.049124,0.037634 l 0.077713,0.047586 c 0.018816,0.011494 0.027233,0.037454 0.018816,0.057809 L 3.2210028,6.3130188 c -0.00842,0.020357 -0.031393,0.028861 -0.051025,0.018729 L 2.8595785,6.1660128 c -0.018909,-0.011036 -0.049305,-0.010131 -0.06749,0.00237 L 2.0882397,6.6515701 c -0.018185,0.012394 -0.045777,0.00987 -0.061338,-0.0057 L 1.380953,5.9999119 C 1.365392,5.9842609 1.362859,5.9566679 1.375253,5.9384829 l 0.4916997,-0.716695 c 0.012484,-0.018096 0.014746,-0.049125 0.00507,-0.068937 L 1.6017879,4.4775898 c -0.00661,-0.020989 -0.029765,-0.041616 -0.051387,-0.045505 L 0.68479402,4.2709584 C 0.66317193,4.2669778 0.64544,4.2456273 0.64544,4.2235528 V 3.3099969 c 0,-0.021984 0.0176414,-0.043335 0.039354,-0.047405 L 1.5722045,3.0974851 c 0.021713,-0.00408 0.045234,-0.024336 0.052472,-0.045144 L 1.8967171,2.4176107 c 0.010131,-0.019632 0.00814,-0.050392 -0.00426,-0.068665 L 1.3753442,1.5951569 c -0.012485,-0.018094 -0.00986,-0.045687 0.0057,-0.061338 L 2.0269018,0.88786999 c 0.01556,-0.0155606 0.043153,-0.0180939 0.061338,-0.005699 L 2.8550551,1.408519 c 0.018094,0.012485 0.049124,0.014656 0.068937,0.00498 L 3.5392725,1.1616319 c 0.020899,-0.00687 0.041254,-0.030307 0.045325,-0.051929 L 3.7554028,0.19153002 c 0.00398,-0.0216221 0.025331,-0.039354 0.047315,-0.039354 H 4.716093 c 0.021985,0 0.043335,0.0177319 0.047315,0.0394445 L 4.9343039,1.1097 c 0.00406,0.021622 0.024426,0.045054 0.045325,0.051929 l 0.6151897,0.2518656 c 0.019723,0.00977 0.050754,0.00751 0.068937,-0.00498 L 6.4305713,0.88217031 c 0.018096,-0.0124845 0.045687,-0.009952 0.061248,0.005699 L 7.1376771,1.5338185 c 0.01556,0.015651 0.018003,0.043244 0.00569,0.061338 L 6.6263446,2.3490347 c -0.012574,0.018275 -0.014476,0.049034 -0.00434,0.068665 l 0.2720411,0.6347306 c 0.00734,0.020808 0.03094,0.041163 0.052563,0.045144 l 0.8874105,0.165106"
       fill="#0099b0"
       id="path1"
       style="fill:#000000;fill-opacity:1;stroke-width:0.00904688" /></g><g
     inkscape:groupmode="layer"
     id="layer2"
     inkscape:label="MR_TRACKER"
     transform="matrix(0.43144254,0,0,0.43144254,2.8153929,-1.0668499)"><rect
       style="fill:none;stroke:#000000;stroke-width:0.59256466;stroke-opacity:1;stroke-dasharray:none"
       id="rect1"
       width="12.183942"
       height="12.183942"
       x="0.79099315"
       y="25.413286"
       transform="rotate(-45)"
       ry="1.15518" /><path
       style="fill:#000000;fill-opacity:1;stroke:#000000;stroke-width:0.319572;stroke-opacity:1"
       d="m 32.365979,21.277837 c 0.146835,0.340413 4.128706,0.890823 4.114683,1.756856 -0.0146,0.901595 -3.381287,1.517696 -6.062847,1.812563 -0.216209,0.02377 -0.883455,0.155109 -1.067169,-0.01051 -0.375623,-0.338632 -0.921087,-0.592305 -1.395633,-0.584125 -0.561532,0.0097 -1.575903,0.297423 -1.825718,0.670263 -0.04671,0.06971 -1.483854,-0.04987 -2.045132,-0.116035 -2.771674,-0.326737 -5.647734,-0.9268 -5.621944,-1.421474 0.05385,-1.032795 4.489285,-2.213036 4.61706,-2.529177 0.898374,-2.22276 0.239956,-4.321797 -1.132229,-6.608791 -1.440784,-2.401325 13.268428,-1.879179 11.912343,-0.09458 -1.822788,2.398778 -2.237849,5.399163 -1.493414,7.125013 z"
       id="path3-2"
       sodipodi:nodetypes="ssssssssssss"
       transform="translate(-0.67398303,-9.0672783)" /><circle
       style="fill:none;fill-opacity:1;stroke:#000000;stroke-width:0.59256466;stroke-opacity:1;stroke-dasharray:none"
       id="path2"
       cx="27.144571"
       cy="17.410591"
       r="2.1866059" /><path
       style="fill:#000000;fill-opacity:1;stroke:#000000;stroke-width:0.319572;stroke-opacity:1"
       d="m 31.611977,17.130826 c 1.798294,2.831751 5.661018,-1.469595 5.145152,-0.480018 -0.948138,2.70143 -3.05894,4.377724 -5.386597,4.448813 -1.124785,0.03435 -3.166325,-1.391211 -2.729285,-1.986928 0.481114,-0.655793 0.610518,-0.83615 0.796783,-1.724908 0.03926,-0.187338 1.765356,-0.900362 2.173947,-0.256959 z m -9.022732,0 c -1.798294,2.831751 -5.661018,-1.469595 -5.145152,-0.480018 0.948138,2.70143 3.05894,4.377724 5.386597,4.448813 1.124785,0.03435 3.166325,-1.391211 2.729285,-1.986928 -0.481114,-0.655793 -0.610518,-0.83615 -0.796783,-1.724908 -0.03926,-0.187338 -1.765356,-0.900362 -2.173947,-0.256959 z"
       id="path3"
       sodipodi:nodetypes="ssasss"
       inkscape:path-effect="#path-effect4"
       inkscape:original-d="m 31.611977,17.130826 c 1.798294,2.831751 5.661018,-1.469595 5.145152,-0.480018 -0.948138,2.70143 -3.05894,4.377724 -5.386597,4.448813 -1.124785,0.03435 -3.166325,-1.391211 -2.729285,-1.986928 0.481114,-0.655793 0.610518,-0.83615 0.796783,-1.724908 0.03926,-0.187338 1.765356,-0.900362 2.173947,-0.256959 z" /></g><g
     inkscape:groupmode="layer"
     id="layer3"
     inkscape:label="TXT" /></svg>
