G04 #@! TF.GenerationSoftware,KiCad,Pcbnew,9.0.2*
G04 #@! TF.CreationDate,2025-07-15T04:36:50-04:00*
G04 #@! TF.ProjectId,FBT,4642542e-6b69-4636-9164-5f7063625858,rev?*
G04 #@! TF.SameCoordinates,Original*
G04 #@! TF.FileFunction,Soldermask,Top*
G04 #@! TF.FilePolarity,Negative*
%FSLAX46Y46*%
G04 Gerber Fmt 4.6, Leading zero omitted, Abs format (unit mm)*
G04 Created by KiCad (PCBNEW 9.0.2) date 2025-07-15 04:36:50*
%MOMM*%
%LPD*%
G01*
G04 APERTURE LIST*
G04 Aperture macros list*
%AMRoundRect*
0 Rectangle with rounded corners*
0 $1 Rounding radius*
0 $2 $3 $4 $5 $6 $7 $8 $9 X,Y pos of 4 corners*
0 Add a 4 corners polygon primitive as box body*
4,1,4,$2,$3,$4,$5,$6,$7,$8,$9,$2,$3,0*
0 Add four circle primitives for the rounded corners*
1,1,$1+$1,$2,$3*
1,1,$1+$1,$4,$5*
1,1,$1+$1,$6,$7*
1,1,$1+$1,$8,$9*
0 Add four rect primitives between the rounded corners*
20,1,$1+$1,$2,$3,$4,$5,0*
20,1,$1+$1,$4,$5,$6,$7,0*
20,1,$1+$1,$6,$7,$8,$9,0*
20,1,$1+$1,$8,$9,$2,$3,0*%
G04 Aperture macros list end*
%ADD10C,1.524000*%
%ADD11RoundRect,0.249999X-0.850001X-0.850001X0.850001X-0.850001X0.850001X0.850001X-0.850001X0.850001X0*%
%ADD12C,2.200000*%
%ADD13O,1.600000X2.000000*%
%ADD14C,2.100000*%
%ADD15C,1.400000*%
%ADD16RoundRect,0.250000X-1.250000X0.600000X-1.250000X-0.600000X1.250000X-0.600000X1.250000X0.600000X0*%
%ADD17O,3.000000X1.700000*%
%ADD18C,1.600000*%
%ADD19C,3.000000*%
G04 APERTURE END LIST*
D10*
X113516004Y-96981392D03*
X113516004Y-99521392D03*
X113516004Y-102061392D03*
X113516004Y-104601392D03*
X113516004Y-107141392D03*
X113516004Y-109681392D03*
X113516004Y-112221392D03*
X113516004Y-114761392D03*
X98276004Y-114761392D03*
X98316004Y-112221392D03*
X98316004Y-109681392D03*
X98316004Y-107141392D03*
X98316004Y-104601392D03*
X98316004Y-102061392D03*
X98316004Y-99521392D03*
X98316004Y-96981392D03*
X127418024Y-102400000D03*
X117018024Y-102400000D03*
X117118024Y-111600000D03*
X119618024Y-111600000D03*
X124818024Y-111600000D03*
X127318024Y-111600000D03*
D11*
X117510000Y-119300000D03*
D12*
X125130000Y-119300000D03*
D11*
X120290000Y-116000000D03*
D12*
X127910000Y-116000000D03*
D13*
X135320000Y-106050000D03*
X135320000Y-102050000D03*
X135320000Y-99050000D03*
X130920000Y-107050000D03*
D14*
X134700000Y-118400000D03*
X134700000Y-110200000D03*
D15*
X134700000Y-116300000D03*
X134700000Y-114300000D03*
X134700000Y-112300000D03*
D16*
X119120000Y-130300000D03*
D17*
X119120000Y-132800000D03*
D10*
X128320000Y-99050000D03*
X116120000Y-99050000D03*
X116220000Y-112950000D03*
X118720000Y-112950000D03*
X125720000Y-112950000D03*
X128220000Y-112950000D03*
X135520000Y-134280000D03*
X135520000Y-131740000D03*
X135520000Y-129200000D03*
X135520000Y-126660000D03*
X135520000Y-124120000D03*
X113640000Y-124220000D03*
X111100000Y-124220000D03*
X108560000Y-124220000D03*
X106020000Y-124220000D03*
X103480000Y-124220000D03*
X100940000Y-124220000D03*
X98400000Y-124220000D03*
X100940000Y-134380000D03*
X103480000Y-134380000D03*
X106020000Y-134380000D03*
X108560000Y-134380000D03*
X111100000Y-134380000D03*
D18*
X135220000Y-121050000D03*
X127600000Y-121050000D03*
X131000000Y-117920000D03*
X131000000Y-110300000D03*
D19*
X118520000Y-124200000D03*
M02*
