G04 #@! TF.GenerationSoftware,KiCad,Pcbnew,9.0.2*
G04 #@! TF.CreationDate,2025-07-15T04:36:50-04:00*
G04 #@! TF.ProjectId,FBT,4642542e-6b69-4636-9164-5f7063625858,rev?*
G04 #@! TF.SameCoordinates,Original*
G04 #@! TF.FileFunction,Legend,Top*
G04 #@! TF.FilePolarity,Positive*
%FSLAX46Y46*%
G04 Gerber Fmt 4.6, Leading zero omitted, Abs format (unit mm)*
G04 Created by KiCad (PCBNEW 9.0.2) date 2025-07-15 04:36:50*
%MOMM*%
%LPD*%
G01*
G04 APERTURE LIST*
%ADD10C,0.100000*%
%ADD11C,0.150000*%
%ADD12C,0.120000*%
G04 APERTURE END LIST*
D10*
G36*
X117243094Y-130729724D02*
G01*
X116166579Y-130729724D01*
X116166579Y-130172332D01*
X116277690Y-130172332D01*
X116277690Y-130210600D01*
X116304750Y-130237660D01*
X116323884Y-130241466D01*
X116654836Y-130241466D01*
X116654836Y-130572419D01*
X116658642Y-130591553D01*
X116685702Y-130618613D01*
X116723970Y-130618613D01*
X116751030Y-130591553D01*
X116754836Y-130572419D01*
X116754836Y-130241466D01*
X117085789Y-130241466D01*
X117104923Y-130237660D01*
X117131983Y-130210600D01*
X117131983Y-130172332D01*
X117104923Y-130145272D01*
X117085789Y-130141466D01*
X116754836Y-130141466D01*
X116754836Y-129810514D01*
X116751030Y-129791380D01*
X116723970Y-129764320D01*
X116685702Y-129764320D01*
X116658642Y-129791380D01*
X116654836Y-129810514D01*
X116654836Y-130141466D01*
X116323884Y-130141466D01*
X116304750Y-130145272D01*
X116277690Y-130172332D01*
X116166579Y-130172332D01*
X116166579Y-129653209D01*
X117243094Y-129653209D01*
X117243094Y-130729724D01*
G37*
D11*
X106350823Y-108974724D02*
X105350823Y-108974724D01*
X105350823Y-108974724D02*
X106065108Y-108641391D01*
X106065108Y-108641391D02*
X105350823Y-108308058D01*
X105350823Y-108308058D02*
X106350823Y-108308058D01*
X106255584Y-107260439D02*
X106303204Y-107308058D01*
X106303204Y-107308058D02*
X106350823Y-107450915D01*
X106350823Y-107450915D02*
X106350823Y-107546153D01*
X106350823Y-107546153D02*
X106303204Y-107689010D01*
X106303204Y-107689010D02*
X106207965Y-107784248D01*
X106207965Y-107784248D02*
X106112727Y-107831867D01*
X106112727Y-107831867D02*
X105922251Y-107879486D01*
X105922251Y-107879486D02*
X105779394Y-107879486D01*
X105779394Y-107879486D02*
X105588918Y-107831867D01*
X105588918Y-107831867D02*
X105493680Y-107784248D01*
X105493680Y-107784248D02*
X105398442Y-107689010D01*
X105398442Y-107689010D02*
X105350823Y-107546153D01*
X105350823Y-107546153D02*
X105350823Y-107450915D01*
X105350823Y-107450915D02*
X105398442Y-107308058D01*
X105398442Y-107308058D02*
X105446061Y-107260439D01*
X105350823Y-106831867D02*
X106160346Y-106831867D01*
X106160346Y-106831867D02*
X106255584Y-106784248D01*
X106255584Y-106784248D02*
X106303204Y-106736629D01*
X106303204Y-106736629D02*
X106350823Y-106641391D01*
X106350823Y-106641391D02*
X106350823Y-106450915D01*
X106350823Y-106450915D02*
X106303204Y-106355677D01*
X106303204Y-106355677D02*
X106255584Y-106308058D01*
X106255584Y-106308058D02*
X106160346Y-106260439D01*
X106160346Y-106260439D02*
X105350823Y-106260439D01*
X106350823Y-105260439D02*
X106350823Y-105831867D01*
X106350823Y-105546153D02*
X105350823Y-105546153D01*
X105350823Y-105546153D02*
X105493680Y-105641391D01*
X105493680Y-105641391D02*
X105588918Y-105736629D01*
X105588918Y-105736629D02*
X105636537Y-105831867D01*
D10*
X120662600Y-100763445D02*
X120614981Y-100811065D01*
X120614981Y-100811065D02*
X120472124Y-100858684D01*
X120472124Y-100858684D02*
X120376886Y-100858684D01*
X120376886Y-100858684D02*
X120234029Y-100811065D01*
X120234029Y-100811065D02*
X120138791Y-100715826D01*
X120138791Y-100715826D02*
X120091172Y-100620588D01*
X120091172Y-100620588D02*
X120043553Y-100430112D01*
X120043553Y-100430112D02*
X120043553Y-100287255D01*
X120043553Y-100287255D02*
X120091172Y-100096779D01*
X120091172Y-100096779D02*
X120138791Y-100001541D01*
X120138791Y-100001541D02*
X120234029Y-99906303D01*
X120234029Y-99906303D02*
X120376886Y-99858684D01*
X120376886Y-99858684D02*
X120472124Y-99858684D01*
X120472124Y-99858684D02*
X120614981Y-99906303D01*
X120614981Y-99906303D02*
X120662600Y-99953922D01*
X121091172Y-100858684D02*
X121091172Y-99858684D01*
X121091172Y-100334874D02*
X121662600Y-100334874D01*
X121662600Y-100858684D02*
X121662600Y-99858684D01*
X122662600Y-99906303D02*
X122567362Y-99858684D01*
X122567362Y-99858684D02*
X122424505Y-99858684D01*
X122424505Y-99858684D02*
X122281648Y-99906303D01*
X122281648Y-99906303D02*
X122186410Y-100001541D01*
X122186410Y-100001541D02*
X122138791Y-100096779D01*
X122138791Y-100096779D02*
X122091172Y-100287255D01*
X122091172Y-100287255D02*
X122091172Y-100430112D01*
X122091172Y-100430112D02*
X122138791Y-100620588D01*
X122138791Y-100620588D02*
X122186410Y-100715826D01*
X122186410Y-100715826D02*
X122281648Y-100811065D01*
X122281648Y-100811065D02*
X122424505Y-100858684D01*
X122424505Y-100858684D02*
X122519743Y-100858684D01*
X122519743Y-100858684D02*
X122662600Y-100811065D01*
X122662600Y-100811065D02*
X122710219Y-100763445D01*
X122710219Y-100763445D02*
X122710219Y-100430112D01*
X122710219Y-100430112D02*
X122519743Y-100430112D01*
X123710219Y-100858684D02*
X123376886Y-100382493D01*
X123138791Y-100858684D02*
X123138791Y-99858684D01*
X123138791Y-99858684D02*
X123519743Y-99858684D01*
X123519743Y-99858684D02*
X123614981Y-99906303D01*
X123614981Y-99906303D02*
X123662600Y-99953922D01*
X123662600Y-99953922D02*
X123710219Y-100049160D01*
X123710219Y-100049160D02*
X123710219Y-100192017D01*
X123710219Y-100192017D02*
X123662600Y-100287255D01*
X123662600Y-100287255D02*
X123614981Y-100334874D01*
X123614981Y-100334874D02*
X123519743Y-100382493D01*
X123519743Y-100382493D02*
X123138791Y-100382493D01*
X124662600Y-100858684D02*
X124091172Y-100858684D01*
X124376886Y-100858684D02*
X124376886Y-99858684D01*
X124376886Y-99858684D02*
X124281648Y-100001541D01*
X124281648Y-100001541D02*
X124186410Y-100096779D01*
X124186410Y-100096779D02*
X124091172Y-100144398D01*
D11*
X120581905Y-119754819D02*
X120581905Y-118754819D01*
X120581905Y-118754819D02*
X120820000Y-118754819D01*
X120820000Y-118754819D02*
X120962857Y-118802438D01*
X120962857Y-118802438D02*
X121058095Y-118897676D01*
X121058095Y-118897676D02*
X121105714Y-118992914D01*
X121105714Y-118992914D02*
X121153333Y-119183390D01*
X121153333Y-119183390D02*
X121153333Y-119326247D01*
X121153333Y-119326247D02*
X121105714Y-119516723D01*
X121105714Y-119516723D02*
X121058095Y-119611961D01*
X121058095Y-119611961D02*
X120962857Y-119707200D01*
X120962857Y-119707200D02*
X120820000Y-119754819D01*
X120820000Y-119754819D02*
X120581905Y-119754819D01*
X122105714Y-119754819D02*
X121534286Y-119754819D01*
X121820000Y-119754819D02*
X121820000Y-118754819D01*
X121820000Y-118754819D02*
X121724762Y-118897676D01*
X121724762Y-118897676D02*
X121629524Y-118992914D01*
X121629524Y-118992914D02*
X121534286Y-119040533D01*
X123361905Y-116454819D02*
X123361905Y-115454819D01*
X123361905Y-115454819D02*
X123600000Y-115454819D01*
X123600000Y-115454819D02*
X123742857Y-115502438D01*
X123742857Y-115502438D02*
X123838095Y-115597676D01*
X123838095Y-115597676D02*
X123885714Y-115692914D01*
X123885714Y-115692914D02*
X123933333Y-115883390D01*
X123933333Y-115883390D02*
X123933333Y-116026247D01*
X123933333Y-116026247D02*
X123885714Y-116216723D01*
X123885714Y-116216723D02*
X123838095Y-116311961D01*
X123838095Y-116311961D02*
X123742857Y-116407200D01*
X123742857Y-116407200D02*
X123600000Y-116454819D01*
X123600000Y-116454819D02*
X123361905Y-116454819D01*
X124314286Y-115550057D02*
X124361905Y-115502438D01*
X124361905Y-115502438D02*
X124457143Y-115454819D01*
X124457143Y-115454819D02*
X124695238Y-115454819D01*
X124695238Y-115454819D02*
X124790476Y-115502438D01*
X124790476Y-115502438D02*
X124838095Y-115550057D01*
X124838095Y-115550057D02*
X124885714Y-115645295D01*
X124885714Y-115645295D02*
X124885714Y-115740533D01*
X124885714Y-115740533D02*
X124838095Y-115883390D01*
X124838095Y-115883390D02*
X124266667Y-116454819D01*
X124266667Y-116454819D02*
X124885714Y-116454819D01*
X116928095Y-116554819D02*
X116928095Y-115554819D01*
X117499523Y-116554819D02*
X117070952Y-115983390D01*
X117499523Y-115554819D02*
X116928095Y-116126247D01*
X130874819Y-102938333D02*
X131589104Y-102938333D01*
X131589104Y-102938333D02*
X131731961Y-102985952D01*
X131731961Y-102985952D02*
X131827200Y-103081190D01*
X131827200Y-103081190D02*
X131874819Y-103224047D01*
X131874819Y-103224047D02*
X131874819Y-103319285D01*
X131874819Y-101938333D02*
X131874819Y-102509761D01*
X131874819Y-102224047D02*
X130874819Y-102224047D01*
X130874819Y-102224047D02*
X131017676Y-102319285D01*
X131017676Y-102319285D02*
X131112914Y-102414523D01*
X131112914Y-102414523D02*
X131160533Y-102509761D01*
D10*
X133709800Y-115633332D02*
X133757419Y-115490475D01*
X133757419Y-115490475D02*
X133757419Y-115252380D01*
X133757419Y-115252380D02*
X133709800Y-115157142D01*
X133709800Y-115157142D02*
X133662180Y-115109523D01*
X133662180Y-115109523D02*
X133566942Y-115061904D01*
X133566942Y-115061904D02*
X133471704Y-115061904D01*
X133471704Y-115061904D02*
X133376466Y-115109523D01*
X133376466Y-115109523D02*
X133328847Y-115157142D01*
X133328847Y-115157142D02*
X133281228Y-115252380D01*
X133281228Y-115252380D02*
X133233609Y-115442856D01*
X133233609Y-115442856D02*
X133185990Y-115538094D01*
X133185990Y-115538094D02*
X133138371Y-115585713D01*
X133138371Y-115585713D02*
X133043133Y-115633332D01*
X133043133Y-115633332D02*
X132947895Y-115633332D01*
X132947895Y-115633332D02*
X132852657Y-115585713D01*
X132852657Y-115585713D02*
X132805038Y-115538094D01*
X132805038Y-115538094D02*
X132757419Y-115442856D01*
X132757419Y-115442856D02*
X132757419Y-115204761D01*
X132757419Y-115204761D02*
X132805038Y-115061904D01*
X132757419Y-114728570D02*
X133757419Y-114490475D01*
X133757419Y-114490475D02*
X133043133Y-114299999D01*
X133043133Y-114299999D02*
X133757419Y-114109523D01*
X133757419Y-114109523D02*
X132757419Y-113871428D01*
X133757419Y-112966666D02*
X133757419Y-113538094D01*
X133757419Y-113252380D02*
X132757419Y-113252380D01*
X132757419Y-113252380D02*
X132900276Y-113347618D01*
X132900276Y-113347618D02*
X132995514Y-113442856D01*
X132995514Y-113442856D02*
X133043133Y-113538094D01*
X129007142Y-128685038D02*
X128911904Y-128637419D01*
X128911904Y-128637419D02*
X128769047Y-128637419D01*
X128769047Y-128637419D02*
X128626190Y-128685038D01*
X128626190Y-128685038D02*
X128530952Y-128780276D01*
X128530952Y-128780276D02*
X128483333Y-128875514D01*
X128483333Y-128875514D02*
X128435714Y-129065990D01*
X128435714Y-129065990D02*
X128435714Y-129208847D01*
X128435714Y-129208847D02*
X128483333Y-129399323D01*
X128483333Y-129399323D02*
X128530952Y-129494561D01*
X128530952Y-129494561D02*
X128626190Y-129589800D01*
X128626190Y-129589800D02*
X128769047Y-129637419D01*
X128769047Y-129637419D02*
X128864285Y-129637419D01*
X128864285Y-129637419D02*
X129007142Y-129589800D01*
X129007142Y-129589800D02*
X129054761Y-129542180D01*
X129054761Y-129542180D02*
X129054761Y-129208847D01*
X129054761Y-129208847D02*
X128864285Y-129208847D01*
X129673809Y-129161228D02*
X129673809Y-129637419D01*
X129340476Y-128637419D02*
X129673809Y-129161228D01*
X129673809Y-129161228D02*
X130007142Y-128637419D01*
X130864285Y-129637419D02*
X130292857Y-129637419D01*
X130578571Y-129637419D02*
X130578571Y-128637419D01*
X130578571Y-128637419D02*
X130483333Y-128780276D01*
X130483333Y-128780276D02*
X130388095Y-128875514D01*
X130388095Y-128875514D02*
X130292857Y-128923133D01*
D11*
X104448572Y-127984819D02*
X104448572Y-126984819D01*
X104924762Y-127984819D02*
X104924762Y-126984819D01*
X104924762Y-126984819D02*
X105258095Y-127699104D01*
X105258095Y-127699104D02*
X105591428Y-126984819D01*
X105591428Y-126984819D02*
X105591428Y-127984819D01*
X106067619Y-126984819D02*
X106067619Y-127794342D01*
X106067619Y-127794342D02*
X106115238Y-127889580D01*
X106115238Y-127889580D02*
X106162857Y-127937200D01*
X106162857Y-127937200D02*
X106258095Y-127984819D01*
X106258095Y-127984819D02*
X106448571Y-127984819D01*
X106448571Y-127984819D02*
X106543809Y-127937200D01*
X106543809Y-127937200D02*
X106591428Y-127889580D01*
X106591428Y-127889580D02*
X106639047Y-127794342D01*
X106639047Y-127794342D02*
X106639047Y-126984819D01*
X107639047Y-127984819D02*
X107067619Y-127984819D01*
X107353333Y-127984819D02*
X107353333Y-126984819D01*
X107353333Y-126984819D02*
X107258095Y-127127676D01*
X107258095Y-127127676D02*
X107162857Y-127222914D01*
X107162857Y-127222914D02*
X107067619Y-127270533D01*
X131243333Y-121504819D02*
X130910000Y-121028628D01*
X130671905Y-121504819D02*
X130671905Y-120504819D01*
X130671905Y-120504819D02*
X131052857Y-120504819D01*
X131052857Y-120504819D02*
X131148095Y-120552438D01*
X131148095Y-120552438D02*
X131195714Y-120600057D01*
X131195714Y-120600057D02*
X131243333Y-120695295D01*
X131243333Y-120695295D02*
X131243333Y-120838152D01*
X131243333Y-120838152D02*
X131195714Y-120933390D01*
X131195714Y-120933390D02*
X131148095Y-120981009D01*
X131148095Y-120981009D02*
X131052857Y-121028628D01*
X131052857Y-121028628D02*
X130671905Y-121028628D01*
X132195714Y-121504819D02*
X131624286Y-121504819D01*
X131910000Y-121504819D02*
X131910000Y-120504819D01*
X131910000Y-120504819D02*
X131814762Y-120647676D01*
X131814762Y-120647676D02*
X131719524Y-120742914D01*
X131719524Y-120742914D02*
X131624286Y-120790533D01*
X131454819Y-114276666D02*
X130978628Y-114609999D01*
X131454819Y-114848094D02*
X130454819Y-114848094D01*
X130454819Y-114848094D02*
X130454819Y-114467142D01*
X130454819Y-114467142D02*
X130502438Y-114371904D01*
X130502438Y-114371904D02*
X130550057Y-114324285D01*
X130550057Y-114324285D02*
X130645295Y-114276666D01*
X130645295Y-114276666D02*
X130788152Y-114276666D01*
X130788152Y-114276666D02*
X130883390Y-114324285D01*
X130883390Y-114324285D02*
X130931009Y-114371904D01*
X130931009Y-114371904D02*
X130978628Y-114467142D01*
X130978628Y-114467142D02*
X130978628Y-114848094D01*
X130550057Y-113895713D02*
X130502438Y-113848094D01*
X130502438Y-113848094D02*
X130454819Y-113752856D01*
X130454819Y-113752856D02*
X130454819Y-113514761D01*
X130454819Y-113514761D02*
X130502438Y-113419523D01*
X130502438Y-113419523D02*
X130550057Y-113371904D01*
X130550057Y-113371904D02*
X130645295Y-113324285D01*
X130645295Y-113324285D02*
X130740533Y-113324285D01*
X130740533Y-113324285D02*
X130883390Y-113371904D01*
X130883390Y-113371904D02*
X131454819Y-113943332D01*
X131454819Y-113943332D02*
X131454819Y-113324285D01*
D12*
X97006004Y-95711392D02*
X114786004Y-95711392D01*
X114786004Y-119971392D01*
X97006004Y-119971392D01*
X97006004Y-95711392D01*
D10*
X128218024Y-95700000D02*
X116218024Y-95700000D01*
X116218024Y-112500000D01*
X128218024Y-112500000D01*
X128218024Y-95700000D01*
D12*
X118600000Y-117830000D02*
X124040000Y-117830000D01*
X118600000Y-117960000D02*
X118600000Y-117830000D01*
X118600000Y-120640000D02*
X118600000Y-120770000D01*
X118600000Y-120770000D02*
X124040000Y-120770000D01*
X119380000Y-117830000D02*
X119380000Y-120770000D01*
X119500000Y-117830000D02*
X119500000Y-120770000D01*
X119620000Y-117830000D02*
X119620000Y-120770000D01*
X124040000Y-117830000D02*
X124040000Y-117960000D01*
X124040000Y-120770000D02*
X124040000Y-120640000D01*
X121380000Y-114530000D02*
X126820000Y-114530000D01*
X121380000Y-114660000D02*
X121380000Y-114530000D01*
X121380000Y-117340000D02*
X121380000Y-117470000D01*
X121380000Y-117470000D02*
X126820000Y-117470000D01*
X122160000Y-114530000D02*
X122160000Y-117470000D01*
X122280000Y-114530000D02*
X122280000Y-117470000D01*
X122400000Y-114530000D02*
X122400000Y-117470000D01*
X126820000Y-114530000D02*
X126820000Y-114660000D01*
X126820000Y-117470000D02*
X126820000Y-117340000D01*
X129820000Y-95900000D02*
X129820000Y-108900000D01*
X130620000Y-93900000D02*
X130620000Y-95900000D01*
X130620000Y-95900000D02*
X129820000Y-95900000D01*
X135320000Y-93900000D02*
X130620000Y-93900000D01*
X135320000Y-93900000D02*
X135620000Y-93900000D01*
X135620000Y-93900000D02*
X135620000Y-95900000D01*
X135620000Y-95900000D02*
X136420000Y-95900000D01*
X136420000Y-95900000D02*
X136420000Y-108900000D01*
X136420000Y-108900000D02*
X129820000Y-108900000D01*
D10*
X132550000Y-110000000D02*
X132550000Y-110800000D01*
X132550000Y-110000000D02*
X133350000Y-110000000D01*
X132550000Y-114700000D02*
X132550000Y-113900000D01*
X132550000Y-118600000D02*
X132550000Y-117800000D01*
X132550000Y-118600000D02*
X133350000Y-118600000D01*
X136850000Y-110000000D02*
X136050000Y-110000000D01*
X136850000Y-110000000D02*
X136850000Y-110800000D01*
X136850000Y-113900000D02*
X136850000Y-114700000D01*
X136850000Y-118600000D02*
X136050000Y-118600000D01*
X136850000Y-118600000D02*
X136850000Y-117800000D01*
D12*
X115610000Y-127740000D02*
X115610000Y-135360000D01*
X115610000Y-135360000D02*
X121580000Y-135360000D01*
X116370000Y-128500000D02*
X116370000Y-131550000D01*
X116370000Y-134600000D02*
X116370000Y-131550000D01*
X119320000Y-127750000D02*
X119320000Y-128500000D01*
X119320000Y-128500000D02*
X116370000Y-128500000D01*
X119320000Y-134600000D02*
X116370000Y-134600000D01*
X119320000Y-135350000D02*
X119320000Y-134600000D01*
X120820000Y-127750000D02*
X120820000Y-129550000D01*
X120820000Y-129550000D02*
X121570000Y-129550000D01*
X120820000Y-131050000D02*
X120820000Y-132050000D01*
X120820000Y-132050000D02*
X121570000Y-132050000D01*
X120820000Y-133550000D02*
X120820000Y-135350000D01*
X120820000Y-135350000D02*
X121570000Y-135350000D01*
X121570000Y-127750000D02*
X120820000Y-127750000D01*
X121570000Y-129550000D02*
X121570000Y-127750000D01*
X121570000Y-131050000D02*
X120820000Y-131050000D01*
X121570000Y-132050000D02*
X121570000Y-131050000D01*
X121570000Y-133550000D02*
X120820000Y-133550000D01*
X121570000Y-135350000D02*
X121570000Y-133550000D01*
X121580000Y-127740000D02*
X115610000Y-127740000D01*
X121580000Y-135360000D02*
X121580000Y-127740000D01*
X121870000Y-127450000D02*
X120620000Y-127450000D01*
X121870000Y-128700000D02*
X121870000Y-127450000D01*
D10*
X129370000Y-95750000D02*
X115070000Y-95750000D01*
X115070000Y-114150000D01*
X129370000Y-114150000D01*
X129370000Y-95750000D01*
D12*
X137044000Y-135804000D02*
X122256000Y-135804000D01*
X122256000Y-122556000D01*
X137044000Y-122556000D01*
X137044000Y-135804000D01*
X114910000Y-122950000D02*
X97130000Y-122950000D01*
X97130000Y-135650000D01*
X114910000Y-135650000D01*
X114910000Y-122950000D01*
X100305000Y-132475000D02*
G75*
G02*
X97765000Y-132475000I-1270000J0D01*
G01*
X97765000Y-132475000D02*
G75*
G02*
X100305000Y-132475000I1270000J0D01*
G01*
X114275000Y-132475000D02*
G75*
G02*
X111735000Y-132475000I-1270000J0D01*
G01*
X111735000Y-132475000D02*
G75*
G02*
X114275000Y-132475000I1270000J0D01*
G01*
X128140000Y-119680000D02*
X128140000Y-120010000D01*
X128140000Y-122420000D02*
X128140000Y-122090000D01*
X134680000Y-119680000D02*
X128140000Y-119680000D01*
X134680000Y-120010000D02*
X134680000Y-119680000D01*
X134680000Y-122090000D02*
X134680000Y-122420000D01*
X134680000Y-122420000D02*
X128140000Y-122420000D01*
X129630000Y-110840000D02*
X129960000Y-110840000D01*
X129630000Y-117380000D02*
X129630000Y-110840000D01*
X129960000Y-117380000D02*
X129630000Y-117380000D01*
X132040000Y-117380000D02*
X132370000Y-117380000D01*
X132370000Y-110840000D02*
X132040000Y-110840000D01*
X132370000Y-117380000D02*
X132370000Y-110840000D01*
M02*
