G04 #@! TF.GenerationSoftware,KiCad,Pcbnew,9.0.2*
G04 #@! TF.CreationDate,2025-07-15T04:36:50-04:00*
G04 #@! TF.ProjectId,FBT,4642542e-6b69-4636-9164-5f7063625858,rev?*
G04 #@! TF.SameCoordinates,Original*
G04 #@! TF.FileFunction,Copper,L1,Top*
G04 #@! TF.FilePolarity,Positive*
%FSLAX46Y46*%
G04 Gerber Fmt 4.6, Leading zero omitted, Abs format (unit mm)*
G04 Created by KiCad (PCBNEW 9.0.2) date 2025-07-15 04:36:50*
%MOMM*%
%LPD*%
G01*
G04 APERTURE LIST*
G04 Aperture macros list*
%AMRoundRect*
0 Rectangle with rounded corners*
0 $1 Rounding radius*
0 $2 $3 $4 $5 $6 $7 $8 $9 X,Y pos of 4 corners*
0 Add a 4 corners polygon primitive as box body*
4,1,4,$2,$3,$4,$5,$6,$7,$8,$9,$2,$3,0*
0 Add four circle primitives for the rounded corners*
1,1,$1+$1,$2,$3*
1,1,$1+$1,$4,$5*
1,1,$1+$1,$6,$7*
1,1,$1+$1,$8,$9*
0 Add four rect primitives between the rounded corners*
20,1,$1+$1,$2,$3,$4,$5,0*
20,1,$1+$1,$4,$5,$6,$7,0*
20,1,$1+$1,$6,$7,$8,$9,0*
20,1,$1+$1,$8,$9,$2,$3,0*%
G04 Aperture macros list end*
G04 #@! TA.AperFunction,ComponentPad*
%ADD10C,1.524000*%
G04 #@! TD*
G04 #@! TA.AperFunction,ComponentPad*
%ADD11RoundRect,0.249999X-0.850001X-0.850001X0.850001X-0.850001X0.850001X0.850001X-0.850001X0.850001X0*%
G04 #@! TD*
G04 #@! TA.AperFunction,ComponentPad*
%ADD12C,2.200000*%
G04 #@! TD*
G04 #@! TA.AperFunction,ComponentPad*
%ADD13O,1.600000X2.000000*%
G04 #@! TD*
G04 #@! TA.AperFunction,ComponentPad*
%ADD14C,2.100000*%
G04 #@! TD*
G04 #@! TA.AperFunction,ComponentPad*
%ADD15C,1.400000*%
G04 #@! TD*
G04 #@! TA.AperFunction,ComponentPad*
%ADD16RoundRect,0.250000X-1.250000X0.600000X-1.250000X-0.600000X1.250000X-0.600000X1.250000X0.600000X0*%
G04 #@! TD*
G04 #@! TA.AperFunction,ComponentPad*
%ADD17O,3.000000X1.700000*%
G04 #@! TD*
G04 #@! TA.AperFunction,ComponentPad*
%ADD18C,1.600000*%
G04 #@! TD*
G04 #@! TA.AperFunction,ViaPad*
%ADD19C,0.600000*%
G04 #@! TD*
G04 #@! TA.AperFunction,Conductor*
%ADD20C,0.400000*%
G04 #@! TD*
G04 APERTURE END LIST*
D10*
X113516004Y-96981392D03*
X113516004Y-99521392D03*
X113516004Y-102061392D03*
X113516004Y-104601392D03*
X113516004Y-107141392D03*
X113516004Y-109681392D03*
X113516004Y-112221392D03*
X113516004Y-114761392D03*
X98276004Y-114761392D03*
X98316004Y-112221392D03*
X98316004Y-109681392D03*
X98316004Y-107141392D03*
X98316004Y-104601392D03*
X98316004Y-102061392D03*
X98316004Y-99521392D03*
X98316004Y-96981392D03*
X127418024Y-102400000D03*
X117018024Y-102400000D03*
X117118024Y-111600000D03*
X119618024Y-111600000D03*
X124818024Y-111600000D03*
X127318024Y-111600000D03*
D11*
X117510000Y-119300000D03*
D12*
X125130000Y-119300000D03*
D11*
X120290000Y-116000000D03*
D12*
X127910000Y-116000000D03*
D13*
X135320000Y-106050000D03*
X135320000Y-102050000D03*
X135320000Y-99050000D03*
X130920000Y-107050000D03*
D14*
X134700000Y-118400000D03*
X134700000Y-110200000D03*
D15*
X134700000Y-116300000D03*
X134700000Y-114300000D03*
X134700000Y-112300000D03*
D16*
X119120000Y-130300000D03*
D17*
X119120000Y-132800000D03*
D10*
X128320000Y-99050000D03*
X116120000Y-99050000D03*
X116220000Y-112950000D03*
X118720000Y-112950000D03*
X125720000Y-112950000D03*
X128220000Y-112950000D03*
X135520000Y-134280000D03*
X135520000Y-131740000D03*
X135520000Y-129200000D03*
X135520000Y-126660000D03*
X135520000Y-124120000D03*
X113640000Y-124220000D03*
X111100000Y-124220000D03*
X108560000Y-124220000D03*
X106020000Y-124220000D03*
X103480000Y-124220000D03*
X100940000Y-124220000D03*
X98400000Y-124220000D03*
X100940000Y-134380000D03*
X103480000Y-134380000D03*
X106020000Y-134380000D03*
X108560000Y-134380000D03*
X111100000Y-134380000D03*
D18*
X135220000Y-121050000D03*
X127600000Y-121050000D03*
X131000000Y-117920000D03*
X131000000Y-110300000D03*
D19*
X133600000Y-107350000D03*
X130420000Y-101500000D03*
X117920000Y-116600000D03*
X131120000Y-112700000D03*
D20*
X114597396Y-108600000D02*
X113516004Y-109681392D01*
X114920000Y-119600000D02*
X114857000Y-119537000D01*
X103480000Y-124220000D02*
X104760000Y-125500000D01*
X132350000Y-108600000D02*
X114597396Y-108600000D01*
X107300000Y-124820000D02*
X107300000Y-123620000D01*
X111720000Y-122800000D02*
X114920000Y-119600000D01*
X114857000Y-111022388D02*
X113516004Y-109681392D01*
X114857000Y-119537000D02*
X114857000Y-111022388D01*
X104760000Y-125500000D02*
X106620000Y-125500000D01*
X108120000Y-122800000D02*
X111720000Y-122800000D01*
X107300000Y-123620000D02*
X108120000Y-122800000D01*
X106620000Y-125500000D02*
X107300000Y-124820000D01*
X133600000Y-107350000D02*
X132350000Y-108600000D01*
X129570000Y-100650000D02*
X130420000Y-101500000D01*
X114927396Y-100650000D02*
X129570000Y-100650000D01*
X113516004Y-102061392D02*
X114927396Y-100650000D01*
X127600000Y-121100000D02*
X130780000Y-117920000D01*
X117920000Y-116600000D02*
X119220000Y-117900000D01*
X124010000Y-121100000D02*
X127600000Y-121100000D01*
X120810000Y-117900000D02*
X124010000Y-121100000D01*
X130780000Y-117920000D02*
X130920000Y-117920000D01*
X119220000Y-117900000D02*
X120810000Y-117900000D01*
X106020000Y-124220000D02*
X106020000Y-123700000D01*
X107820000Y-121900000D02*
X110920000Y-121900000D01*
X112220000Y-120600000D02*
X112220000Y-108437396D01*
X106020000Y-123700000D02*
X107820000Y-121900000D01*
X135320000Y-102050000D02*
X132670000Y-102050000D01*
X112220000Y-108437396D02*
X113516004Y-107141392D01*
X127578608Y-107141392D02*
X113516004Y-107141392D01*
X132670000Y-102050000D02*
X127578608Y-107141392D01*
X110920000Y-121900000D02*
X112220000Y-120600000D01*
X130020000Y-113800000D02*
X130620000Y-114400000D01*
X130620000Y-114400000D02*
X134620000Y-114400000D01*
X128420000Y-110300000D02*
X130020000Y-111900000D01*
X124818024Y-111600000D02*
X126118024Y-110300000D01*
X130020000Y-111900000D02*
X130020000Y-113800000D01*
X126118024Y-110300000D02*
X128420000Y-110300000D01*
X135220000Y-121100000D02*
X128120000Y-128200000D01*
X132720000Y-119500000D02*
X134270000Y-121050000D01*
X135320000Y-99050000D02*
X132270000Y-99050000D01*
X132720000Y-117800000D02*
X132720000Y-119500000D01*
X132270000Y-99050000D02*
X129920000Y-96700000D01*
X128120000Y-128200000D02*
X112540000Y-128200000D01*
X122070000Y-99050000D02*
X116120000Y-99050000D01*
X125200000Y-117600000D02*
X128920000Y-117600000D01*
X131420000Y-116500000D02*
X132720000Y-117800000D01*
X119664947Y-112064947D02*
X125200000Y-117600000D01*
X129920000Y-96700000D02*
X124420000Y-96700000D01*
X112540000Y-128200000D02*
X108560000Y-124220000D01*
X119664947Y-111698735D02*
X119664947Y-112064947D01*
X135220000Y-121050000D02*
X135220000Y-121100000D01*
X128920000Y-117600000D02*
X130020000Y-116500000D01*
X134270000Y-121050000D02*
X135220000Y-121050000D01*
X124420000Y-96700000D02*
X122070000Y-99050000D01*
X130020000Y-116500000D02*
X131420000Y-116500000D01*
X131420000Y-112400000D02*
X134620000Y-112400000D01*
X131120000Y-112700000D02*
X131420000Y-112400000D01*
X133960000Y-126660000D02*
X135520000Y-126660000D01*
X131720000Y-128900000D02*
X133960000Y-126660000D01*
X106420000Y-128900000D02*
X131720000Y-128900000D01*
X100940000Y-134380000D02*
X106420000Y-128900000D01*
X125320000Y-130400000D02*
X132720000Y-130400000D01*
X116420000Y-134200000D02*
X121520000Y-134200000D01*
X132720000Y-130400000D02*
X133920000Y-129200000D01*
X103480000Y-134380000D02*
X106019591Y-131840409D01*
X106019591Y-131840409D02*
X114060409Y-131840409D01*
X121520000Y-134200000D02*
X125320000Y-130400000D01*
X133920000Y-129200000D02*
X135520000Y-129200000D01*
X114060409Y-131840409D02*
X116420000Y-134200000D01*
M02*
