%TF.GenerationSoftware,KiCad,Pcbnew,9.0.2*%
%TF.CreationDate,2025-07-15T04:36:49-04:00*%
%TF.ProjectId,FBT,4642542e-6b69-4636-9164-5f7063625858,rev?*%
%TF.SameCoordinates,Original*%
%TF.FileFunction,Drillmap*%
%TF.FilePolarity,Positive*%
%FSLAX45Y45*%
G04 Gerber Fmt 4.5, Leading zero omitted, Abs format (unit mm)*
G04 Created by KiCad (PCBNEW 9.0.2) date 2025-07-15 04:36:49*
%MOMM*%
%LPD*%
G01*
G04 APERTURE LIST*
%ADD10C,0.200000*%
%ADD11C,0.150000*%
%ADD12C,0.300000*%
G04 APERTURE END LIST*
D10*
X9700000Y-9572000D02*
X13700000Y-9572000D01*
X13700000Y-13572000D01*
X9700000Y-13572000D01*
X9700000Y-9572000D01*
D11*
X13237000Y-9685000D02*
X13387000Y-9835000D01*
X13387000Y-9685000D02*
X13237000Y-9835000D01*
X13237000Y-10385000D02*
X13387000Y-10535000D01*
X13387000Y-10385000D02*
X13237000Y-10535000D01*
D12*
X12002000Y-12420000D02*
G75*
G02*
X11702000Y-12420000I-150000J0D01*
G01*
X11702000Y-12420000D02*
G75*
G02*
X12002000Y-12420000I150000J0D01*
G01*
D10*
X9950777Y-13893484D02*
X9950777Y-13693484D01*
X9950777Y-13693484D02*
X9998396Y-13693484D01*
X9998396Y-13693484D02*
X10026967Y-13703008D01*
X10026967Y-13703008D02*
X10046015Y-13722055D01*
X10046015Y-13722055D02*
X10055539Y-13741103D01*
X10055539Y-13741103D02*
X10065063Y-13779198D01*
X10065063Y-13779198D02*
X10065063Y-13807769D01*
X10065063Y-13807769D02*
X10055539Y-13845865D01*
X10055539Y-13845865D02*
X10046015Y-13864912D01*
X10046015Y-13864912D02*
X10026967Y-13883960D01*
X10026967Y-13883960D02*
X9998396Y-13893484D01*
X9998396Y-13893484D02*
X9950777Y-13893484D01*
X10150777Y-13893484D02*
X10150777Y-13760150D01*
X10150777Y-13798246D02*
X10160301Y-13779198D01*
X10160301Y-13779198D02*
X10169824Y-13769674D01*
X10169824Y-13769674D02*
X10188872Y-13760150D01*
X10188872Y-13760150D02*
X10207920Y-13760150D01*
X10274586Y-13893484D02*
X10274586Y-13760150D01*
X10274586Y-13693484D02*
X10265063Y-13703008D01*
X10265063Y-13703008D02*
X10274586Y-13712531D01*
X10274586Y-13712531D02*
X10284110Y-13703008D01*
X10284110Y-13703008D02*
X10274586Y-13693484D01*
X10274586Y-13693484D02*
X10274586Y-13712531D01*
X10398396Y-13893484D02*
X10379348Y-13883960D01*
X10379348Y-13883960D02*
X10369824Y-13864912D01*
X10369824Y-13864912D02*
X10369824Y-13693484D01*
X10503158Y-13893484D02*
X10484110Y-13883960D01*
X10484110Y-13883960D02*
X10474586Y-13864912D01*
X10474586Y-13864912D02*
X10474586Y-13693484D01*
X10731729Y-13893484D02*
X10731729Y-13693484D01*
X10731729Y-13693484D02*
X10798396Y-13836341D01*
X10798396Y-13836341D02*
X10865063Y-13693484D01*
X10865063Y-13693484D02*
X10865063Y-13893484D01*
X11046015Y-13893484D02*
X11046015Y-13788722D01*
X11046015Y-13788722D02*
X11036491Y-13769674D01*
X11036491Y-13769674D02*
X11017444Y-13760150D01*
X11017444Y-13760150D02*
X10979348Y-13760150D01*
X10979348Y-13760150D02*
X10960301Y-13769674D01*
X11046015Y-13883960D02*
X11026967Y-13893484D01*
X11026967Y-13893484D02*
X10979348Y-13893484D01*
X10979348Y-13893484D02*
X10960301Y-13883960D01*
X10960301Y-13883960D02*
X10950777Y-13864912D01*
X10950777Y-13864912D02*
X10950777Y-13845865D01*
X10950777Y-13845865D02*
X10960301Y-13826817D01*
X10960301Y-13826817D02*
X10979348Y-13817293D01*
X10979348Y-13817293D02*
X11026967Y-13817293D01*
X11026967Y-13817293D02*
X11046015Y-13807769D01*
X11141253Y-13760150D02*
X11141253Y-13960150D01*
X11141253Y-13769674D02*
X11160301Y-13760150D01*
X11160301Y-13760150D02*
X11198396Y-13760150D01*
X11198396Y-13760150D02*
X11217443Y-13769674D01*
X11217443Y-13769674D02*
X11226967Y-13779198D01*
X11226967Y-13779198D02*
X11236491Y-13798246D01*
X11236491Y-13798246D02*
X11236491Y-13855388D01*
X11236491Y-13855388D02*
X11226967Y-13874436D01*
X11226967Y-13874436D02*
X11217443Y-13883960D01*
X11217443Y-13883960D02*
X11198396Y-13893484D01*
X11198396Y-13893484D02*
X11160301Y-13893484D01*
X11160301Y-13893484D02*
X11141253Y-13883960D01*
X11322205Y-13874436D02*
X11331729Y-13883960D01*
X11331729Y-13883960D02*
X11322205Y-13893484D01*
X11322205Y-13893484D02*
X11312682Y-13883960D01*
X11312682Y-13883960D02*
X11322205Y-13874436D01*
X11322205Y-13874436D02*
X11322205Y-13893484D01*
X11322205Y-13769674D02*
X11331729Y-13779198D01*
X11331729Y-13779198D02*
X11322205Y-13788722D01*
X11322205Y-13788722D02*
X11312682Y-13779198D01*
X11312682Y-13779198D02*
X11322205Y-13769674D01*
X11322205Y-13769674D02*
X11322205Y-13788722D01*
D11*
X9540000Y-14147000D02*
X9690000Y-14297000D01*
X9690000Y-14147000D02*
X9540000Y-14297000D01*
D10*
X10055539Y-14313484D02*
X9941253Y-14313484D01*
X9998396Y-14313484D02*
X9998396Y-14113484D01*
X9998396Y-14113484D02*
X9979348Y-14142055D01*
X9979348Y-14142055D02*
X9960301Y-14161103D01*
X9960301Y-14161103D02*
X9941253Y-14170627D01*
X10141253Y-14294436D02*
X10150777Y-14303960D01*
X10150777Y-14303960D02*
X10141253Y-14313484D01*
X10141253Y-14313484D02*
X10131729Y-14303960D01*
X10131729Y-14303960D02*
X10141253Y-14294436D01*
X10141253Y-14294436D02*
X10141253Y-14313484D01*
X10331729Y-14113484D02*
X10236491Y-14113484D01*
X10236491Y-14113484D02*
X10226967Y-14208722D01*
X10226967Y-14208722D02*
X10236491Y-14199198D01*
X10236491Y-14199198D02*
X10255539Y-14189674D01*
X10255539Y-14189674D02*
X10303158Y-14189674D01*
X10303158Y-14189674D02*
X10322205Y-14199198D01*
X10322205Y-14199198D02*
X10331729Y-14208722D01*
X10331729Y-14208722D02*
X10341253Y-14227769D01*
X10341253Y-14227769D02*
X10341253Y-14275388D01*
X10341253Y-14275388D02*
X10331729Y-14294436D01*
X10331729Y-14294436D02*
X10322205Y-14303960D01*
X10322205Y-14303960D02*
X10303158Y-14313484D01*
X10303158Y-14313484D02*
X10255539Y-14313484D01*
X10255539Y-14313484D02*
X10236491Y-14303960D01*
X10236491Y-14303960D02*
X10226967Y-14294436D01*
X10465063Y-14113484D02*
X10484110Y-14113484D01*
X10484110Y-14113484D02*
X10503158Y-14123008D01*
X10503158Y-14123008D02*
X10512682Y-14132531D01*
X10512682Y-14132531D02*
X10522205Y-14151579D01*
X10522205Y-14151579D02*
X10531729Y-14189674D01*
X10531729Y-14189674D02*
X10531729Y-14237293D01*
X10531729Y-14237293D02*
X10522205Y-14275388D01*
X10522205Y-14275388D02*
X10512682Y-14294436D01*
X10512682Y-14294436D02*
X10503158Y-14303960D01*
X10503158Y-14303960D02*
X10484110Y-14313484D01*
X10484110Y-14313484D02*
X10465063Y-14313484D01*
X10465063Y-14313484D02*
X10446015Y-14303960D01*
X10446015Y-14303960D02*
X10436491Y-14294436D01*
X10436491Y-14294436D02*
X10426967Y-14275388D01*
X10426967Y-14275388D02*
X10417444Y-14237293D01*
X10417444Y-14237293D02*
X10417444Y-14189674D01*
X10417444Y-14189674D02*
X10426967Y-14151579D01*
X10426967Y-14151579D02*
X10436491Y-14132531D01*
X10436491Y-14132531D02*
X10446015Y-14123008D01*
X10446015Y-14123008D02*
X10465063Y-14113484D01*
X10655539Y-14113484D02*
X10674586Y-14113484D01*
X10674586Y-14113484D02*
X10693634Y-14123008D01*
X10693634Y-14123008D02*
X10703158Y-14132531D01*
X10703158Y-14132531D02*
X10712682Y-14151579D01*
X10712682Y-14151579D02*
X10722205Y-14189674D01*
X10722205Y-14189674D02*
X10722205Y-14237293D01*
X10722205Y-14237293D02*
X10712682Y-14275388D01*
X10712682Y-14275388D02*
X10703158Y-14294436D01*
X10703158Y-14294436D02*
X10693634Y-14303960D01*
X10693634Y-14303960D02*
X10674586Y-14313484D01*
X10674586Y-14313484D02*
X10655539Y-14313484D01*
X10655539Y-14313484D02*
X10636491Y-14303960D01*
X10636491Y-14303960D02*
X10626967Y-14294436D01*
X10626967Y-14294436D02*
X10617444Y-14275388D01*
X10617444Y-14275388D02*
X10607920Y-14237293D01*
X10607920Y-14237293D02*
X10607920Y-14189674D01*
X10607920Y-14189674D02*
X10617444Y-14151579D01*
X10617444Y-14151579D02*
X10626967Y-14132531D01*
X10626967Y-14132531D02*
X10636491Y-14123008D01*
X10636491Y-14123008D02*
X10655539Y-14113484D01*
X10807920Y-14313484D02*
X10807920Y-14180150D01*
X10807920Y-14199198D02*
X10817444Y-14189674D01*
X10817444Y-14189674D02*
X10836491Y-14180150D01*
X10836491Y-14180150D02*
X10865063Y-14180150D01*
X10865063Y-14180150D02*
X10884110Y-14189674D01*
X10884110Y-14189674D02*
X10893634Y-14208722D01*
X10893634Y-14208722D02*
X10893634Y-14313484D01*
X10893634Y-14208722D02*
X10903158Y-14189674D01*
X10903158Y-14189674D02*
X10922205Y-14180150D01*
X10922205Y-14180150D02*
X10950777Y-14180150D01*
X10950777Y-14180150D02*
X10969825Y-14189674D01*
X10969825Y-14189674D02*
X10979348Y-14208722D01*
X10979348Y-14208722D02*
X10979348Y-14313484D01*
X11074586Y-14313484D02*
X11074586Y-14180150D01*
X11074586Y-14199198D02*
X11084110Y-14189674D01*
X11084110Y-14189674D02*
X11103158Y-14180150D01*
X11103158Y-14180150D02*
X11131729Y-14180150D01*
X11131729Y-14180150D02*
X11150777Y-14189674D01*
X11150777Y-14189674D02*
X11160301Y-14208722D01*
X11160301Y-14208722D02*
X11160301Y-14313484D01*
X11160301Y-14208722D02*
X11169825Y-14189674D01*
X11169825Y-14189674D02*
X11188872Y-14180150D01*
X11188872Y-14180150D02*
X11217443Y-14180150D01*
X11217443Y-14180150D02*
X11236491Y-14189674D01*
X11236491Y-14189674D02*
X11246015Y-14208722D01*
X11246015Y-14208722D02*
X11246015Y-14313484D01*
X11636491Y-14103960D02*
X11465063Y-14361103D01*
X11893634Y-14113484D02*
X11912682Y-14113484D01*
X11912682Y-14113484D02*
X11931729Y-14123008D01*
X11931729Y-14123008D02*
X11941253Y-14132531D01*
X11941253Y-14132531D02*
X11950777Y-14151579D01*
X11950777Y-14151579D02*
X11960301Y-14189674D01*
X11960301Y-14189674D02*
X11960301Y-14237293D01*
X11960301Y-14237293D02*
X11950777Y-14275388D01*
X11950777Y-14275388D02*
X11941253Y-14294436D01*
X11941253Y-14294436D02*
X11931729Y-14303960D01*
X11931729Y-14303960D02*
X11912682Y-14313484D01*
X11912682Y-14313484D02*
X11893634Y-14313484D01*
X11893634Y-14313484D02*
X11874586Y-14303960D01*
X11874586Y-14303960D02*
X11865063Y-14294436D01*
X11865063Y-14294436D02*
X11855539Y-14275388D01*
X11855539Y-14275388D02*
X11846015Y-14237293D01*
X11846015Y-14237293D02*
X11846015Y-14189674D01*
X11846015Y-14189674D02*
X11855539Y-14151579D01*
X11855539Y-14151579D02*
X11865063Y-14132531D01*
X11865063Y-14132531D02*
X11874586Y-14123008D01*
X11874586Y-14123008D02*
X11893634Y-14113484D01*
X12046015Y-14294436D02*
X12055539Y-14303960D01*
X12055539Y-14303960D02*
X12046015Y-14313484D01*
X12046015Y-14313484D02*
X12036491Y-14303960D01*
X12036491Y-14303960D02*
X12046015Y-14294436D01*
X12046015Y-14294436D02*
X12046015Y-14313484D01*
X12179348Y-14113484D02*
X12198396Y-14113484D01*
X12198396Y-14113484D02*
X12217444Y-14123008D01*
X12217444Y-14123008D02*
X12226967Y-14132531D01*
X12226967Y-14132531D02*
X12236491Y-14151579D01*
X12236491Y-14151579D02*
X12246015Y-14189674D01*
X12246015Y-14189674D02*
X12246015Y-14237293D01*
X12246015Y-14237293D02*
X12236491Y-14275388D01*
X12236491Y-14275388D02*
X12226967Y-14294436D01*
X12226967Y-14294436D02*
X12217444Y-14303960D01*
X12217444Y-14303960D02*
X12198396Y-14313484D01*
X12198396Y-14313484D02*
X12179348Y-14313484D01*
X12179348Y-14313484D02*
X12160301Y-14303960D01*
X12160301Y-14303960D02*
X12150777Y-14294436D01*
X12150777Y-14294436D02*
X12141253Y-14275388D01*
X12141253Y-14275388D02*
X12131729Y-14237293D01*
X12131729Y-14237293D02*
X12131729Y-14189674D01*
X12131729Y-14189674D02*
X12141253Y-14151579D01*
X12141253Y-14151579D02*
X12150777Y-14132531D01*
X12150777Y-14132531D02*
X12160301Y-14123008D01*
X12160301Y-14123008D02*
X12179348Y-14113484D01*
X12426967Y-14113484D02*
X12331729Y-14113484D01*
X12331729Y-14113484D02*
X12322206Y-14208722D01*
X12322206Y-14208722D02*
X12331729Y-14199198D01*
X12331729Y-14199198D02*
X12350777Y-14189674D01*
X12350777Y-14189674D02*
X12398396Y-14189674D01*
X12398396Y-14189674D02*
X12417444Y-14199198D01*
X12417444Y-14199198D02*
X12426967Y-14208722D01*
X12426967Y-14208722D02*
X12436491Y-14227769D01*
X12436491Y-14227769D02*
X12436491Y-14275388D01*
X12436491Y-14275388D02*
X12426967Y-14294436D01*
X12426967Y-14294436D02*
X12417444Y-14303960D01*
X12417444Y-14303960D02*
X12398396Y-14313484D01*
X12398396Y-14313484D02*
X12350777Y-14313484D01*
X12350777Y-14313484D02*
X12331729Y-14303960D01*
X12331729Y-14303960D02*
X12322206Y-14294436D01*
X12531729Y-14313484D02*
X12569825Y-14313484D01*
X12569825Y-14313484D02*
X12588872Y-14303960D01*
X12588872Y-14303960D02*
X12598396Y-14294436D01*
X12598396Y-14294436D02*
X12617444Y-14265865D01*
X12617444Y-14265865D02*
X12626967Y-14227769D01*
X12626967Y-14227769D02*
X12626967Y-14151579D01*
X12626967Y-14151579D02*
X12617444Y-14132531D01*
X12617444Y-14132531D02*
X12607920Y-14123008D01*
X12607920Y-14123008D02*
X12588872Y-14113484D01*
X12588872Y-14113484D02*
X12550777Y-14113484D01*
X12550777Y-14113484D02*
X12531729Y-14123008D01*
X12531729Y-14123008D02*
X12522206Y-14132531D01*
X12522206Y-14132531D02*
X12512682Y-14151579D01*
X12512682Y-14151579D02*
X12512682Y-14199198D01*
X12512682Y-14199198D02*
X12522206Y-14218246D01*
X12522206Y-14218246D02*
X12531729Y-14227769D01*
X12531729Y-14227769D02*
X12550777Y-14237293D01*
X12550777Y-14237293D02*
X12588872Y-14237293D01*
X12588872Y-14237293D02*
X12607920Y-14227769D01*
X12607920Y-14227769D02*
X12617444Y-14218246D01*
X12617444Y-14218246D02*
X12626967Y-14199198D01*
X12817444Y-14313484D02*
X12703158Y-14313484D01*
X12760301Y-14313484D02*
X12760301Y-14113484D01*
X12760301Y-14113484D02*
X12741253Y-14142055D01*
X12741253Y-14142055D02*
X12722206Y-14161103D01*
X12722206Y-14161103D02*
X12703158Y-14170627D01*
X12893634Y-14113484D02*
X12893634Y-14151579D01*
X12969825Y-14113484D02*
X12969825Y-14151579D01*
X13265063Y-14389674D02*
X13255539Y-14380150D01*
X13255539Y-14380150D02*
X13236491Y-14351579D01*
X13236491Y-14351579D02*
X13226968Y-14332531D01*
X13226968Y-14332531D02*
X13217444Y-14303960D01*
X13217444Y-14303960D02*
X13207920Y-14256341D01*
X13207920Y-14256341D02*
X13207920Y-14218246D01*
X13207920Y-14218246D02*
X13217444Y-14170627D01*
X13217444Y-14170627D02*
X13226968Y-14142055D01*
X13226968Y-14142055D02*
X13236491Y-14123008D01*
X13236491Y-14123008D02*
X13255539Y-14094436D01*
X13255539Y-14094436D02*
X13265063Y-14084912D01*
X13331729Y-14132531D02*
X13341253Y-14123008D01*
X13341253Y-14123008D02*
X13360301Y-14113484D01*
X13360301Y-14113484D02*
X13407920Y-14113484D01*
X13407920Y-14113484D02*
X13426968Y-14123008D01*
X13426968Y-14123008D02*
X13436491Y-14132531D01*
X13436491Y-14132531D02*
X13446015Y-14151579D01*
X13446015Y-14151579D02*
X13446015Y-14170627D01*
X13446015Y-14170627D02*
X13436491Y-14199198D01*
X13436491Y-14199198D02*
X13322206Y-14313484D01*
X13322206Y-14313484D02*
X13446015Y-14313484D01*
X13684110Y-14313484D02*
X13684110Y-14113484D01*
X13769825Y-14313484D02*
X13769825Y-14208722D01*
X13769825Y-14208722D02*
X13760301Y-14189674D01*
X13760301Y-14189674D02*
X13741253Y-14180150D01*
X13741253Y-14180150D02*
X13712682Y-14180150D01*
X13712682Y-14180150D02*
X13693634Y-14189674D01*
X13693634Y-14189674D02*
X13684110Y-14199198D01*
X13893634Y-14313484D02*
X13874587Y-14303960D01*
X13874587Y-14303960D02*
X13865063Y-14294436D01*
X13865063Y-14294436D02*
X13855539Y-14275388D01*
X13855539Y-14275388D02*
X13855539Y-14218246D01*
X13855539Y-14218246D02*
X13865063Y-14199198D01*
X13865063Y-14199198D02*
X13874587Y-14189674D01*
X13874587Y-14189674D02*
X13893634Y-14180150D01*
X13893634Y-14180150D02*
X13922206Y-14180150D01*
X13922206Y-14180150D02*
X13941253Y-14189674D01*
X13941253Y-14189674D02*
X13950777Y-14199198D01*
X13950777Y-14199198D02*
X13960301Y-14218246D01*
X13960301Y-14218246D02*
X13960301Y-14275388D01*
X13960301Y-14275388D02*
X13950777Y-14294436D01*
X13950777Y-14294436D02*
X13941253Y-14303960D01*
X13941253Y-14303960D02*
X13922206Y-14313484D01*
X13922206Y-14313484D02*
X13893634Y-14313484D01*
X14074587Y-14313484D02*
X14055539Y-14303960D01*
X14055539Y-14303960D02*
X14046015Y-14284912D01*
X14046015Y-14284912D02*
X14046015Y-14113484D01*
X14226968Y-14303960D02*
X14207920Y-14313484D01*
X14207920Y-14313484D02*
X14169825Y-14313484D01*
X14169825Y-14313484D02*
X14150777Y-14303960D01*
X14150777Y-14303960D02*
X14141253Y-14284912D01*
X14141253Y-14284912D02*
X14141253Y-14208722D01*
X14141253Y-14208722D02*
X14150777Y-14189674D01*
X14150777Y-14189674D02*
X14169825Y-14180150D01*
X14169825Y-14180150D02*
X14207920Y-14180150D01*
X14207920Y-14180150D02*
X14226968Y-14189674D01*
X14226968Y-14189674D02*
X14236491Y-14208722D01*
X14236491Y-14208722D02*
X14236491Y-14227769D01*
X14236491Y-14227769D02*
X14141253Y-14246817D01*
X14312682Y-14303960D02*
X14331730Y-14313484D01*
X14331730Y-14313484D02*
X14369825Y-14313484D01*
X14369825Y-14313484D02*
X14388872Y-14303960D01*
X14388872Y-14303960D02*
X14398396Y-14284912D01*
X14398396Y-14284912D02*
X14398396Y-14275388D01*
X14398396Y-14275388D02*
X14388872Y-14256341D01*
X14388872Y-14256341D02*
X14369825Y-14246817D01*
X14369825Y-14246817D02*
X14341253Y-14246817D01*
X14341253Y-14246817D02*
X14322206Y-14237293D01*
X14322206Y-14237293D02*
X14312682Y-14218246D01*
X14312682Y-14218246D02*
X14312682Y-14208722D01*
X14312682Y-14208722D02*
X14322206Y-14189674D01*
X14322206Y-14189674D02*
X14341253Y-14180150D01*
X14341253Y-14180150D02*
X14369825Y-14180150D01*
X14369825Y-14180150D02*
X14388872Y-14189674D01*
X14465063Y-14389674D02*
X14474587Y-14380150D01*
X14474587Y-14380150D02*
X14493634Y-14351579D01*
X14493634Y-14351579D02*
X14503158Y-14332531D01*
X14503158Y-14332531D02*
X14512682Y-14303960D01*
X14512682Y-14303960D02*
X14522206Y-14256341D01*
X14522206Y-14256341D02*
X14522206Y-14218246D01*
X14522206Y-14218246D02*
X14512682Y-14170627D01*
X14512682Y-14170627D02*
X14503158Y-14142055D01*
X14503158Y-14142055D02*
X14493634Y-14123008D01*
X14493634Y-14123008D02*
X14474587Y-14094436D01*
X14474587Y-14094436D02*
X14465063Y-14084912D01*
X14826968Y-14389674D02*
X14817444Y-14380150D01*
X14817444Y-14380150D02*
X14798396Y-14351579D01*
X14798396Y-14351579D02*
X14788872Y-14332531D01*
X14788872Y-14332531D02*
X14779349Y-14303960D01*
X14779349Y-14303960D02*
X14769825Y-14256341D01*
X14769825Y-14256341D02*
X14769825Y-14218246D01*
X14769825Y-14218246D02*
X14779349Y-14170627D01*
X14779349Y-14170627D02*
X14788872Y-14142055D01*
X14788872Y-14142055D02*
X14798396Y-14123008D01*
X14798396Y-14123008D02*
X14817444Y-14094436D01*
X14817444Y-14094436D02*
X14826968Y-14084912D01*
X14903158Y-14180150D02*
X14903158Y-14313484D01*
X14903158Y-14199198D02*
X14912682Y-14189674D01*
X14912682Y-14189674D02*
X14931730Y-14180150D01*
X14931730Y-14180150D02*
X14960301Y-14180150D01*
X14960301Y-14180150D02*
X14979349Y-14189674D01*
X14979349Y-14189674D02*
X14988872Y-14208722D01*
X14988872Y-14208722D02*
X14988872Y-14313484D01*
X15112682Y-14313484D02*
X15093634Y-14303960D01*
X15093634Y-14303960D02*
X15084111Y-14294436D01*
X15084111Y-14294436D02*
X15074587Y-14275388D01*
X15074587Y-14275388D02*
X15074587Y-14218246D01*
X15074587Y-14218246D02*
X15084111Y-14199198D01*
X15084111Y-14199198D02*
X15093634Y-14189674D01*
X15093634Y-14189674D02*
X15112682Y-14180150D01*
X15112682Y-14180150D02*
X15141253Y-14180150D01*
X15141253Y-14180150D02*
X15160301Y-14189674D01*
X15160301Y-14189674D02*
X15169825Y-14199198D01*
X15169825Y-14199198D02*
X15179349Y-14218246D01*
X15179349Y-14218246D02*
X15179349Y-14275388D01*
X15179349Y-14275388D02*
X15169825Y-14294436D01*
X15169825Y-14294436D02*
X15160301Y-14303960D01*
X15160301Y-14303960D02*
X15141253Y-14313484D01*
X15141253Y-14313484D02*
X15112682Y-14313484D01*
X15236492Y-14180150D02*
X15312682Y-14180150D01*
X15265063Y-14113484D02*
X15265063Y-14284912D01*
X15265063Y-14284912D02*
X15274587Y-14303960D01*
X15274587Y-14303960D02*
X15293634Y-14313484D01*
X15293634Y-14313484D02*
X15312682Y-14313484D01*
X15531730Y-14180150D02*
X15531730Y-14380150D01*
X15531730Y-14189674D02*
X15550777Y-14180150D01*
X15550777Y-14180150D02*
X15588873Y-14180150D01*
X15588873Y-14180150D02*
X15607920Y-14189674D01*
X15607920Y-14189674D02*
X15617444Y-14199198D01*
X15617444Y-14199198D02*
X15626968Y-14218246D01*
X15626968Y-14218246D02*
X15626968Y-14275388D01*
X15626968Y-14275388D02*
X15617444Y-14294436D01*
X15617444Y-14294436D02*
X15607920Y-14303960D01*
X15607920Y-14303960D02*
X15588873Y-14313484D01*
X15588873Y-14313484D02*
X15550777Y-14313484D01*
X15550777Y-14313484D02*
X15531730Y-14303960D01*
X15741253Y-14313484D02*
X15722206Y-14303960D01*
X15722206Y-14303960D02*
X15712682Y-14284912D01*
X15712682Y-14284912D02*
X15712682Y-14113484D01*
X15903158Y-14313484D02*
X15903158Y-14208722D01*
X15903158Y-14208722D02*
X15893634Y-14189674D01*
X15893634Y-14189674D02*
X15874587Y-14180150D01*
X15874587Y-14180150D02*
X15836492Y-14180150D01*
X15836492Y-14180150D02*
X15817444Y-14189674D01*
X15903158Y-14303960D02*
X15884111Y-14313484D01*
X15884111Y-14313484D02*
X15836492Y-14313484D01*
X15836492Y-14313484D02*
X15817444Y-14303960D01*
X15817444Y-14303960D02*
X15807920Y-14284912D01*
X15807920Y-14284912D02*
X15807920Y-14265865D01*
X15807920Y-14265865D02*
X15817444Y-14246817D01*
X15817444Y-14246817D02*
X15836492Y-14237293D01*
X15836492Y-14237293D02*
X15884111Y-14237293D01*
X15884111Y-14237293D02*
X15903158Y-14227769D01*
X15969825Y-14180150D02*
X16046015Y-14180150D01*
X15998396Y-14113484D02*
X15998396Y-14284912D01*
X15998396Y-14284912D02*
X16007920Y-14303960D01*
X16007920Y-14303960D02*
X16026968Y-14313484D01*
X16026968Y-14313484D02*
X16046015Y-14313484D01*
X16188873Y-14303960D02*
X16169825Y-14313484D01*
X16169825Y-14313484D02*
X16131730Y-14313484D01*
X16131730Y-14313484D02*
X16112682Y-14303960D01*
X16112682Y-14303960D02*
X16103158Y-14284912D01*
X16103158Y-14284912D02*
X16103158Y-14208722D01*
X16103158Y-14208722D02*
X16112682Y-14189674D01*
X16112682Y-14189674D02*
X16131730Y-14180150D01*
X16131730Y-14180150D02*
X16169825Y-14180150D01*
X16169825Y-14180150D02*
X16188873Y-14189674D01*
X16188873Y-14189674D02*
X16198396Y-14208722D01*
X16198396Y-14208722D02*
X16198396Y-14227769D01*
X16198396Y-14227769D02*
X16103158Y-14246817D01*
X16369825Y-14313484D02*
X16369825Y-14113484D01*
X16369825Y-14303960D02*
X16350777Y-14313484D01*
X16350777Y-14313484D02*
X16312682Y-14313484D01*
X16312682Y-14313484D02*
X16293634Y-14303960D01*
X16293634Y-14303960D02*
X16284111Y-14294436D01*
X16284111Y-14294436D02*
X16274587Y-14275388D01*
X16274587Y-14275388D02*
X16274587Y-14218246D01*
X16274587Y-14218246D02*
X16284111Y-14199198D01*
X16284111Y-14199198D02*
X16293634Y-14189674D01*
X16293634Y-14189674D02*
X16312682Y-14180150D01*
X16312682Y-14180150D02*
X16350777Y-14180150D01*
X16350777Y-14180150D02*
X16369825Y-14189674D01*
X16446015Y-14389674D02*
X16455539Y-14380150D01*
X16455539Y-14380150D02*
X16474587Y-14351579D01*
X16474587Y-14351579D02*
X16484111Y-14332531D01*
X16484111Y-14332531D02*
X16493634Y-14303960D01*
X16493634Y-14303960D02*
X16503158Y-14256341D01*
X16503158Y-14256341D02*
X16503158Y-14218246D01*
X16503158Y-14218246D02*
X16493634Y-14170627D01*
X16493634Y-14170627D02*
X16484111Y-14142055D01*
X16484111Y-14142055D02*
X16474587Y-14123008D01*
X16474587Y-14123008D02*
X16455539Y-14094436D01*
X16455539Y-14094436D02*
X16446015Y-14084912D01*
X9690000Y-14492000D02*
G75*
G02*
X9490000Y-14492000I-100000J0D01*
G01*
X9490000Y-14492000D02*
G75*
G02*
X9690000Y-14492000I100000J0D01*
G01*
X9931729Y-14383484D02*
X10055539Y-14383484D01*
X10055539Y-14383484D02*
X9988872Y-14459674D01*
X9988872Y-14459674D02*
X10017444Y-14459674D01*
X10017444Y-14459674D02*
X10036491Y-14469198D01*
X10036491Y-14469198D02*
X10046015Y-14478722D01*
X10046015Y-14478722D02*
X10055539Y-14497769D01*
X10055539Y-14497769D02*
X10055539Y-14545388D01*
X10055539Y-14545388D02*
X10046015Y-14564436D01*
X10046015Y-14564436D02*
X10036491Y-14573960D01*
X10036491Y-14573960D02*
X10017444Y-14583484D01*
X10017444Y-14583484D02*
X9960301Y-14583484D01*
X9960301Y-14583484D02*
X9941253Y-14573960D01*
X9941253Y-14573960D02*
X9931729Y-14564436D01*
X10141253Y-14564436D02*
X10150777Y-14573960D01*
X10150777Y-14573960D02*
X10141253Y-14583484D01*
X10141253Y-14583484D02*
X10131729Y-14573960D01*
X10131729Y-14573960D02*
X10141253Y-14564436D01*
X10141253Y-14564436D02*
X10141253Y-14583484D01*
X10274586Y-14383484D02*
X10293634Y-14383484D01*
X10293634Y-14383484D02*
X10312682Y-14393008D01*
X10312682Y-14393008D02*
X10322205Y-14402531D01*
X10322205Y-14402531D02*
X10331729Y-14421579D01*
X10331729Y-14421579D02*
X10341253Y-14459674D01*
X10341253Y-14459674D02*
X10341253Y-14507293D01*
X10341253Y-14507293D02*
X10331729Y-14545388D01*
X10331729Y-14545388D02*
X10322205Y-14564436D01*
X10322205Y-14564436D02*
X10312682Y-14573960D01*
X10312682Y-14573960D02*
X10293634Y-14583484D01*
X10293634Y-14583484D02*
X10274586Y-14583484D01*
X10274586Y-14583484D02*
X10255539Y-14573960D01*
X10255539Y-14573960D02*
X10246015Y-14564436D01*
X10246015Y-14564436D02*
X10236491Y-14545388D01*
X10236491Y-14545388D02*
X10226967Y-14507293D01*
X10226967Y-14507293D02*
X10226967Y-14459674D01*
X10226967Y-14459674D02*
X10236491Y-14421579D01*
X10236491Y-14421579D02*
X10246015Y-14402531D01*
X10246015Y-14402531D02*
X10255539Y-14393008D01*
X10255539Y-14393008D02*
X10274586Y-14383484D01*
X10465063Y-14383484D02*
X10484110Y-14383484D01*
X10484110Y-14383484D02*
X10503158Y-14393008D01*
X10503158Y-14393008D02*
X10512682Y-14402531D01*
X10512682Y-14402531D02*
X10522205Y-14421579D01*
X10522205Y-14421579D02*
X10531729Y-14459674D01*
X10531729Y-14459674D02*
X10531729Y-14507293D01*
X10531729Y-14507293D02*
X10522205Y-14545388D01*
X10522205Y-14545388D02*
X10512682Y-14564436D01*
X10512682Y-14564436D02*
X10503158Y-14573960D01*
X10503158Y-14573960D02*
X10484110Y-14583484D01*
X10484110Y-14583484D02*
X10465063Y-14583484D01*
X10465063Y-14583484D02*
X10446015Y-14573960D01*
X10446015Y-14573960D02*
X10436491Y-14564436D01*
X10436491Y-14564436D02*
X10426967Y-14545388D01*
X10426967Y-14545388D02*
X10417444Y-14507293D01*
X10417444Y-14507293D02*
X10417444Y-14459674D01*
X10417444Y-14459674D02*
X10426967Y-14421579D01*
X10426967Y-14421579D02*
X10436491Y-14402531D01*
X10436491Y-14402531D02*
X10446015Y-14393008D01*
X10446015Y-14393008D02*
X10465063Y-14383484D01*
X10655539Y-14383484D02*
X10674586Y-14383484D01*
X10674586Y-14383484D02*
X10693634Y-14393008D01*
X10693634Y-14393008D02*
X10703158Y-14402531D01*
X10703158Y-14402531D02*
X10712682Y-14421579D01*
X10712682Y-14421579D02*
X10722205Y-14459674D01*
X10722205Y-14459674D02*
X10722205Y-14507293D01*
X10722205Y-14507293D02*
X10712682Y-14545388D01*
X10712682Y-14545388D02*
X10703158Y-14564436D01*
X10703158Y-14564436D02*
X10693634Y-14573960D01*
X10693634Y-14573960D02*
X10674586Y-14583484D01*
X10674586Y-14583484D02*
X10655539Y-14583484D01*
X10655539Y-14583484D02*
X10636491Y-14573960D01*
X10636491Y-14573960D02*
X10626967Y-14564436D01*
X10626967Y-14564436D02*
X10617444Y-14545388D01*
X10617444Y-14545388D02*
X10607920Y-14507293D01*
X10607920Y-14507293D02*
X10607920Y-14459674D01*
X10607920Y-14459674D02*
X10617444Y-14421579D01*
X10617444Y-14421579D02*
X10626967Y-14402531D01*
X10626967Y-14402531D02*
X10636491Y-14393008D01*
X10636491Y-14393008D02*
X10655539Y-14383484D01*
X10807920Y-14583484D02*
X10807920Y-14450150D01*
X10807920Y-14469198D02*
X10817444Y-14459674D01*
X10817444Y-14459674D02*
X10836491Y-14450150D01*
X10836491Y-14450150D02*
X10865063Y-14450150D01*
X10865063Y-14450150D02*
X10884110Y-14459674D01*
X10884110Y-14459674D02*
X10893634Y-14478722D01*
X10893634Y-14478722D02*
X10893634Y-14583484D01*
X10893634Y-14478722D02*
X10903158Y-14459674D01*
X10903158Y-14459674D02*
X10922205Y-14450150D01*
X10922205Y-14450150D02*
X10950777Y-14450150D01*
X10950777Y-14450150D02*
X10969825Y-14459674D01*
X10969825Y-14459674D02*
X10979348Y-14478722D01*
X10979348Y-14478722D02*
X10979348Y-14583484D01*
X11074586Y-14583484D02*
X11074586Y-14450150D01*
X11074586Y-14469198D02*
X11084110Y-14459674D01*
X11084110Y-14459674D02*
X11103158Y-14450150D01*
X11103158Y-14450150D02*
X11131729Y-14450150D01*
X11131729Y-14450150D02*
X11150777Y-14459674D01*
X11150777Y-14459674D02*
X11160301Y-14478722D01*
X11160301Y-14478722D02*
X11160301Y-14583484D01*
X11160301Y-14478722D02*
X11169825Y-14459674D01*
X11169825Y-14459674D02*
X11188872Y-14450150D01*
X11188872Y-14450150D02*
X11217443Y-14450150D01*
X11217443Y-14450150D02*
X11236491Y-14459674D01*
X11236491Y-14459674D02*
X11246015Y-14478722D01*
X11246015Y-14478722D02*
X11246015Y-14583484D01*
X11636491Y-14373960D02*
X11465063Y-14631103D01*
X11893634Y-14383484D02*
X11912682Y-14383484D01*
X11912682Y-14383484D02*
X11931729Y-14393008D01*
X11931729Y-14393008D02*
X11941253Y-14402531D01*
X11941253Y-14402531D02*
X11950777Y-14421579D01*
X11950777Y-14421579D02*
X11960301Y-14459674D01*
X11960301Y-14459674D02*
X11960301Y-14507293D01*
X11960301Y-14507293D02*
X11950777Y-14545388D01*
X11950777Y-14545388D02*
X11941253Y-14564436D01*
X11941253Y-14564436D02*
X11931729Y-14573960D01*
X11931729Y-14573960D02*
X11912682Y-14583484D01*
X11912682Y-14583484D02*
X11893634Y-14583484D01*
X11893634Y-14583484D02*
X11874586Y-14573960D01*
X11874586Y-14573960D02*
X11865063Y-14564436D01*
X11865063Y-14564436D02*
X11855539Y-14545388D01*
X11855539Y-14545388D02*
X11846015Y-14507293D01*
X11846015Y-14507293D02*
X11846015Y-14459674D01*
X11846015Y-14459674D02*
X11855539Y-14421579D01*
X11855539Y-14421579D02*
X11865063Y-14402531D01*
X11865063Y-14402531D02*
X11874586Y-14393008D01*
X11874586Y-14393008D02*
X11893634Y-14383484D01*
X12046015Y-14564436D02*
X12055539Y-14573960D01*
X12055539Y-14573960D02*
X12046015Y-14583484D01*
X12046015Y-14583484D02*
X12036491Y-14573960D01*
X12036491Y-14573960D02*
X12046015Y-14564436D01*
X12046015Y-14564436D02*
X12046015Y-14583484D01*
X12246015Y-14583484D02*
X12131729Y-14583484D01*
X12188872Y-14583484D02*
X12188872Y-14383484D01*
X12188872Y-14383484D02*
X12169825Y-14412055D01*
X12169825Y-14412055D02*
X12150777Y-14431103D01*
X12150777Y-14431103D02*
X12131729Y-14440627D01*
X12436491Y-14583484D02*
X12322206Y-14583484D01*
X12379348Y-14583484D02*
X12379348Y-14383484D01*
X12379348Y-14383484D02*
X12360301Y-14412055D01*
X12360301Y-14412055D02*
X12341253Y-14431103D01*
X12341253Y-14431103D02*
X12322206Y-14440627D01*
X12550777Y-14469198D02*
X12531729Y-14459674D01*
X12531729Y-14459674D02*
X12522206Y-14450150D01*
X12522206Y-14450150D02*
X12512682Y-14431103D01*
X12512682Y-14431103D02*
X12512682Y-14421579D01*
X12512682Y-14421579D02*
X12522206Y-14402531D01*
X12522206Y-14402531D02*
X12531729Y-14393008D01*
X12531729Y-14393008D02*
X12550777Y-14383484D01*
X12550777Y-14383484D02*
X12588872Y-14383484D01*
X12588872Y-14383484D02*
X12607920Y-14393008D01*
X12607920Y-14393008D02*
X12617444Y-14402531D01*
X12617444Y-14402531D02*
X12626967Y-14421579D01*
X12626967Y-14421579D02*
X12626967Y-14431103D01*
X12626967Y-14431103D02*
X12617444Y-14450150D01*
X12617444Y-14450150D02*
X12607920Y-14459674D01*
X12607920Y-14459674D02*
X12588872Y-14469198D01*
X12588872Y-14469198D02*
X12550777Y-14469198D01*
X12550777Y-14469198D02*
X12531729Y-14478722D01*
X12531729Y-14478722D02*
X12522206Y-14488246D01*
X12522206Y-14488246D02*
X12512682Y-14507293D01*
X12512682Y-14507293D02*
X12512682Y-14545388D01*
X12512682Y-14545388D02*
X12522206Y-14564436D01*
X12522206Y-14564436D02*
X12531729Y-14573960D01*
X12531729Y-14573960D02*
X12550777Y-14583484D01*
X12550777Y-14583484D02*
X12588872Y-14583484D01*
X12588872Y-14583484D02*
X12607920Y-14573960D01*
X12607920Y-14573960D02*
X12617444Y-14564436D01*
X12617444Y-14564436D02*
X12626967Y-14545388D01*
X12626967Y-14545388D02*
X12626967Y-14507293D01*
X12626967Y-14507293D02*
X12617444Y-14488246D01*
X12617444Y-14488246D02*
X12607920Y-14478722D01*
X12607920Y-14478722D02*
X12588872Y-14469198D01*
X12817444Y-14583484D02*
X12703158Y-14583484D01*
X12760301Y-14583484D02*
X12760301Y-14383484D01*
X12760301Y-14383484D02*
X12741253Y-14412055D01*
X12741253Y-14412055D02*
X12722206Y-14431103D01*
X12722206Y-14431103D02*
X12703158Y-14440627D01*
X12893634Y-14383484D02*
X12893634Y-14421579D01*
X12969825Y-14383484D02*
X12969825Y-14421579D01*
X13265063Y-14659674D02*
X13255539Y-14650150D01*
X13255539Y-14650150D02*
X13236491Y-14621579D01*
X13236491Y-14621579D02*
X13226968Y-14602531D01*
X13226968Y-14602531D02*
X13217444Y-14573960D01*
X13217444Y-14573960D02*
X13207920Y-14526341D01*
X13207920Y-14526341D02*
X13207920Y-14488246D01*
X13207920Y-14488246D02*
X13217444Y-14440627D01*
X13217444Y-14440627D02*
X13226968Y-14412055D01*
X13226968Y-14412055D02*
X13236491Y-14393008D01*
X13236491Y-14393008D02*
X13255539Y-14364436D01*
X13255539Y-14364436D02*
X13265063Y-14354912D01*
X13446015Y-14583484D02*
X13331729Y-14583484D01*
X13388872Y-14583484D02*
X13388872Y-14383484D01*
X13388872Y-14383484D02*
X13369825Y-14412055D01*
X13369825Y-14412055D02*
X13350777Y-14431103D01*
X13350777Y-14431103D02*
X13331729Y-14440627D01*
X13684110Y-14583484D02*
X13684110Y-14383484D01*
X13769825Y-14583484D02*
X13769825Y-14478722D01*
X13769825Y-14478722D02*
X13760301Y-14459674D01*
X13760301Y-14459674D02*
X13741253Y-14450150D01*
X13741253Y-14450150D02*
X13712682Y-14450150D01*
X13712682Y-14450150D02*
X13693634Y-14459674D01*
X13693634Y-14459674D02*
X13684110Y-14469198D01*
X13893634Y-14583484D02*
X13874587Y-14573960D01*
X13874587Y-14573960D02*
X13865063Y-14564436D01*
X13865063Y-14564436D02*
X13855539Y-14545388D01*
X13855539Y-14545388D02*
X13855539Y-14488246D01*
X13855539Y-14488246D02*
X13865063Y-14469198D01*
X13865063Y-14469198D02*
X13874587Y-14459674D01*
X13874587Y-14459674D02*
X13893634Y-14450150D01*
X13893634Y-14450150D02*
X13922206Y-14450150D01*
X13922206Y-14450150D02*
X13941253Y-14459674D01*
X13941253Y-14459674D02*
X13950777Y-14469198D01*
X13950777Y-14469198D02*
X13960301Y-14488246D01*
X13960301Y-14488246D02*
X13960301Y-14545388D01*
X13960301Y-14545388D02*
X13950777Y-14564436D01*
X13950777Y-14564436D02*
X13941253Y-14573960D01*
X13941253Y-14573960D02*
X13922206Y-14583484D01*
X13922206Y-14583484D02*
X13893634Y-14583484D01*
X14074587Y-14583484D02*
X14055539Y-14573960D01*
X14055539Y-14573960D02*
X14046015Y-14554912D01*
X14046015Y-14554912D02*
X14046015Y-14383484D01*
X14226968Y-14573960D02*
X14207920Y-14583484D01*
X14207920Y-14583484D02*
X14169825Y-14583484D01*
X14169825Y-14583484D02*
X14150777Y-14573960D01*
X14150777Y-14573960D02*
X14141253Y-14554912D01*
X14141253Y-14554912D02*
X14141253Y-14478722D01*
X14141253Y-14478722D02*
X14150777Y-14459674D01*
X14150777Y-14459674D02*
X14169825Y-14450150D01*
X14169825Y-14450150D02*
X14207920Y-14450150D01*
X14207920Y-14450150D02*
X14226968Y-14459674D01*
X14226968Y-14459674D02*
X14236491Y-14478722D01*
X14236491Y-14478722D02*
X14236491Y-14497769D01*
X14236491Y-14497769D02*
X14141253Y-14516817D01*
X14303158Y-14659674D02*
X14312682Y-14650150D01*
X14312682Y-14650150D02*
X14331730Y-14621579D01*
X14331730Y-14621579D02*
X14341253Y-14602531D01*
X14341253Y-14602531D02*
X14350777Y-14573960D01*
X14350777Y-14573960D02*
X14360301Y-14526341D01*
X14360301Y-14526341D02*
X14360301Y-14488246D01*
X14360301Y-14488246D02*
X14350777Y-14440627D01*
X14350777Y-14440627D02*
X14341253Y-14412055D01*
X14341253Y-14412055D02*
X14331730Y-14393008D01*
X14331730Y-14393008D02*
X14312682Y-14364436D01*
X14312682Y-14364436D02*
X14303158Y-14354912D01*
X14665063Y-14659674D02*
X14655539Y-14650150D01*
X14655539Y-14650150D02*
X14636491Y-14621579D01*
X14636491Y-14621579D02*
X14626968Y-14602531D01*
X14626968Y-14602531D02*
X14617444Y-14573960D01*
X14617444Y-14573960D02*
X14607920Y-14526341D01*
X14607920Y-14526341D02*
X14607920Y-14488246D01*
X14607920Y-14488246D02*
X14617444Y-14440627D01*
X14617444Y-14440627D02*
X14626968Y-14412055D01*
X14626968Y-14412055D02*
X14636491Y-14393008D01*
X14636491Y-14393008D02*
X14655539Y-14364436D01*
X14655539Y-14364436D02*
X14665063Y-14354912D01*
X14741253Y-14450150D02*
X14741253Y-14583484D01*
X14741253Y-14469198D02*
X14750777Y-14459674D01*
X14750777Y-14459674D02*
X14769825Y-14450150D01*
X14769825Y-14450150D02*
X14798396Y-14450150D01*
X14798396Y-14450150D02*
X14817444Y-14459674D01*
X14817444Y-14459674D02*
X14826968Y-14478722D01*
X14826968Y-14478722D02*
X14826968Y-14583484D01*
X14950777Y-14583484D02*
X14931730Y-14573960D01*
X14931730Y-14573960D02*
X14922206Y-14564436D01*
X14922206Y-14564436D02*
X14912682Y-14545388D01*
X14912682Y-14545388D02*
X14912682Y-14488246D01*
X14912682Y-14488246D02*
X14922206Y-14469198D01*
X14922206Y-14469198D02*
X14931730Y-14459674D01*
X14931730Y-14459674D02*
X14950777Y-14450150D01*
X14950777Y-14450150D02*
X14979349Y-14450150D01*
X14979349Y-14450150D02*
X14998396Y-14459674D01*
X14998396Y-14459674D02*
X15007920Y-14469198D01*
X15007920Y-14469198D02*
X15017444Y-14488246D01*
X15017444Y-14488246D02*
X15017444Y-14545388D01*
X15017444Y-14545388D02*
X15007920Y-14564436D01*
X15007920Y-14564436D02*
X14998396Y-14573960D01*
X14998396Y-14573960D02*
X14979349Y-14583484D01*
X14979349Y-14583484D02*
X14950777Y-14583484D01*
X15074587Y-14450150D02*
X15150777Y-14450150D01*
X15103158Y-14383484D02*
X15103158Y-14554912D01*
X15103158Y-14554912D02*
X15112682Y-14573960D01*
X15112682Y-14573960D02*
X15131730Y-14583484D01*
X15131730Y-14583484D02*
X15150777Y-14583484D01*
X15369825Y-14450150D02*
X15369825Y-14650150D01*
X15369825Y-14459674D02*
X15388872Y-14450150D01*
X15388872Y-14450150D02*
X15426968Y-14450150D01*
X15426968Y-14450150D02*
X15446015Y-14459674D01*
X15446015Y-14459674D02*
X15455539Y-14469198D01*
X15455539Y-14469198D02*
X15465063Y-14488246D01*
X15465063Y-14488246D02*
X15465063Y-14545388D01*
X15465063Y-14545388D02*
X15455539Y-14564436D01*
X15455539Y-14564436D02*
X15446015Y-14573960D01*
X15446015Y-14573960D02*
X15426968Y-14583484D01*
X15426968Y-14583484D02*
X15388872Y-14583484D01*
X15388872Y-14583484D02*
X15369825Y-14573960D01*
X15579349Y-14583484D02*
X15560301Y-14573960D01*
X15560301Y-14573960D02*
X15550777Y-14554912D01*
X15550777Y-14554912D02*
X15550777Y-14383484D01*
X15741253Y-14583484D02*
X15741253Y-14478722D01*
X15741253Y-14478722D02*
X15731730Y-14459674D01*
X15731730Y-14459674D02*
X15712682Y-14450150D01*
X15712682Y-14450150D02*
X15674587Y-14450150D01*
X15674587Y-14450150D02*
X15655539Y-14459674D01*
X15741253Y-14573960D02*
X15722206Y-14583484D01*
X15722206Y-14583484D02*
X15674587Y-14583484D01*
X15674587Y-14583484D02*
X15655539Y-14573960D01*
X15655539Y-14573960D02*
X15646015Y-14554912D01*
X15646015Y-14554912D02*
X15646015Y-14535865D01*
X15646015Y-14535865D02*
X15655539Y-14516817D01*
X15655539Y-14516817D02*
X15674587Y-14507293D01*
X15674587Y-14507293D02*
X15722206Y-14507293D01*
X15722206Y-14507293D02*
X15741253Y-14497769D01*
X15807920Y-14450150D02*
X15884111Y-14450150D01*
X15836492Y-14383484D02*
X15836492Y-14554912D01*
X15836492Y-14554912D02*
X15846015Y-14573960D01*
X15846015Y-14573960D02*
X15865063Y-14583484D01*
X15865063Y-14583484D02*
X15884111Y-14583484D01*
X16026968Y-14573960D02*
X16007920Y-14583484D01*
X16007920Y-14583484D02*
X15969825Y-14583484D01*
X15969825Y-14583484D02*
X15950777Y-14573960D01*
X15950777Y-14573960D02*
X15941253Y-14554912D01*
X15941253Y-14554912D02*
X15941253Y-14478722D01*
X15941253Y-14478722D02*
X15950777Y-14459674D01*
X15950777Y-14459674D02*
X15969825Y-14450150D01*
X15969825Y-14450150D02*
X16007920Y-14450150D01*
X16007920Y-14450150D02*
X16026968Y-14459674D01*
X16026968Y-14459674D02*
X16036492Y-14478722D01*
X16036492Y-14478722D02*
X16036492Y-14497769D01*
X16036492Y-14497769D02*
X15941253Y-14516817D01*
X16207920Y-14583484D02*
X16207920Y-14383484D01*
X16207920Y-14573960D02*
X16188873Y-14583484D01*
X16188873Y-14583484D02*
X16150777Y-14583484D01*
X16150777Y-14583484D02*
X16131730Y-14573960D01*
X16131730Y-14573960D02*
X16122206Y-14564436D01*
X16122206Y-14564436D02*
X16112682Y-14545388D01*
X16112682Y-14545388D02*
X16112682Y-14488246D01*
X16112682Y-14488246D02*
X16122206Y-14469198D01*
X16122206Y-14469198D02*
X16131730Y-14459674D01*
X16131730Y-14459674D02*
X16150777Y-14450150D01*
X16150777Y-14450150D02*
X16188873Y-14450150D01*
X16188873Y-14450150D02*
X16207920Y-14459674D01*
X16284111Y-14659674D02*
X16293634Y-14650150D01*
X16293634Y-14650150D02*
X16312682Y-14621579D01*
X16312682Y-14621579D02*
X16322206Y-14602531D01*
X16322206Y-14602531D02*
X16331730Y-14573960D01*
X16331730Y-14573960D02*
X16341253Y-14526341D01*
X16341253Y-14526341D02*
X16341253Y-14488246D01*
X16341253Y-14488246D02*
X16331730Y-14440627D01*
X16331730Y-14440627D02*
X16322206Y-14412055D01*
X16322206Y-14412055D02*
X16312682Y-14393008D01*
X16312682Y-14393008D02*
X16293634Y-14364436D01*
X16293634Y-14364436D02*
X16284111Y-14354912D01*
M02*
