M48
; DRILL file {KiCad 9.0.2} date 2025-07-15T04:36:49-0400
; FORMAT={-:-/ absolute / metric / decimal}
; #@! TF.CreationDate,2025-07-15T04:36:49-04:00
; #@! TF.GenerationSoftware,Kicad,Pcbnew,9.0.2
; #@! TF.FileFunction,Plated,1,2,PTH
FMAT,2
METRIC
; #@! TA.AperFunction,Plated,PTH,ViaDrill
T1C0.300
; #@! TA.AperFunction,Plated,PTH,ComponentDrill
T2C0.700
; #@! TA.AperFunction,Plated,PTH,ComponentDrill
T3C0.800
; #@! TA.AperFunction,Plated,PTH,ComponentDrill
T4C0.900
; #@! TA.AperFunction,Plated,PTH,ComponentDrill
T5C1.000
; #@! TA.AperFunction,Plated,PTH,ComponentDrill
T6C1.100
; #@! TA.AperFunction,Plated,PTH,ComponentDrill
T7C1.250
%
G90
G05
T1
X117.92Y-116.6
X130.42Y-101.5
X131.12Y-112.7
X133.6Y-107.35
T3
X127.6Y-121.05
X131.0Y-110.3
X131.0Y-117.92
X134.7Y-112.3
X134.7Y-114.3
X134.7Y-116.3
X135.22Y-121.05
T4
X98.276Y-114.761
X98.316Y-96.981
X98.316Y-99.521
X98.316Y-102.061
X98.316Y-104.601
X98.316Y-107.141
X98.316Y-109.681
X98.316Y-112.221
X98.4Y-124.22
X100.94Y-124.22
X100.94Y-134.38
X103.48Y-124.22
X103.48Y-134.38
X106.02Y-124.22
X106.02Y-134.38
X108.56Y-124.22
X108.56Y-134.38
X111.1Y-124.22
X111.1Y-134.38
X113.516Y-96.981
X113.516Y-99.521
X113.516Y-102.061
X113.516Y-104.601
X113.516Y-107.141
X113.516Y-109.681
X113.516Y-112.221
X113.516Y-114.761
X113.64Y-124.22
X116.12Y-99.05
X116.22Y-112.95
X117.018Y-102.4
X117.118Y-111.6
X118.72Y-112.95
X119.618Y-111.6
X124.818Y-111.6
X125.72Y-112.95
X127.318Y-111.6
X127.418Y-102.4
X128.22Y-112.95
X128.32Y-99.05
X135.52Y-124.12
X135.52Y-126.66
X135.52Y-129.2
X135.52Y-131.74
X135.52Y-134.28
T5
X119.12Y-130.3
X119.12Y-132.8
T6
X117.51Y-119.3
X120.29Y-116.0
X125.13Y-119.3
X127.91Y-116.0
T7
X134.7Y-110.2
X134.7Y-118.4
T2
X130.92Y-106.65G85X130.92Y-107.45
G05
X135.32Y-98.65G85X135.32Y-99.45
G05
X135.32Y-101.65G85X135.32Y-102.45
G05
X135.32Y-105.65G85X135.32Y-106.45
G05
M30
