%TF.GenerationSoftware,KiCad,Pcbnew,9.0.2*%
%TF.CreationDate,2025-07-15T04:36:49-04:00*%
%TF.ProjectId,FBT,4642542e-6b69-4636-9164-5f7063625858,rev?*%
%TF.SameCoordinates,Original*%
%TF.FileFunction,Drillmap*%
%TF.FilePolarity,Positive*%
%FSLAX45Y45*%
G04 Gerber Fmt 4.5, Leading zero omitted, Abs format (unit mm)*
G04 Created by KiCad (PCBNEW 9.0.2) date 2025-07-15 04:36:49*
%MOMM*%
%LPD*%
G01*
G04 APERTURE LIST*
%ADD10C,0.200000*%
%ADD11C,0.100000*%
%ADD12C,0.110000*%
%ADD13C,0.125000*%
G04 APERTURE END LIST*
D10*
X9700000Y-9572000D02*
X13700000Y-9572000D01*
X13700000Y-13572000D01*
X9700000Y-13572000D01*
X9700000Y-9572000D01*
D11*
X11777000Y-11645000D02*
X11807000Y-11675000D01*
X11807000Y-11645000D02*
X11777000Y-11675000D01*
X13027000Y-10135000D02*
X13057000Y-10165000D01*
X13057000Y-10135000D02*
X13027000Y-10165000D01*
X13097000Y-11255000D02*
X13127000Y-11285000D01*
X13127000Y-11255000D02*
X13097000Y-11285000D01*
X13345000Y-10720000D02*
X13375000Y-10750000D01*
X13375000Y-10720000D02*
X13345000Y-10750000D01*
X13127000Y-10705000D02*
G75*
G02*
X13057000Y-10705000I-35000J0D01*
G01*
X13057000Y-10705000D02*
G75*
G02*
X13127000Y-10705000I35000J0D01*
G01*
X13057000Y-10665000D02*
X13057000Y-10745000D01*
X13127000Y-10745000D02*
G75*
G02*
X13057000Y-10745000I-35000J0D01*
G01*
X13127000Y-10745000D02*
X13127000Y-10665000D01*
X13127000Y-10665000D02*
G75*
G03*
X13057000Y-10665000I-35000J0D01*
G01*
X13567000Y-9905000D02*
G75*
G02*
X13497000Y-9905000I-35000J0D01*
G01*
X13497000Y-9905000D02*
G75*
G02*
X13567000Y-9905000I35000J0D01*
G01*
X13497000Y-9865000D02*
X13497000Y-9945000D01*
X13567000Y-9945000D02*
G75*
G02*
X13497000Y-9945000I-35000J0D01*
G01*
X13567000Y-9945000D02*
X13567000Y-9865000D01*
X13567000Y-9865000D02*
G75*
G03*
X13497000Y-9865000I-35000J0D01*
G01*
X13567000Y-10205000D02*
G75*
G02*
X13497000Y-10205000I-35000J0D01*
G01*
X13497000Y-10205000D02*
G75*
G02*
X13567000Y-10205000I35000J0D01*
G01*
X13497000Y-10165000D02*
X13497000Y-10245000D01*
X13567000Y-10245000D02*
G75*
G02*
X13497000Y-10245000I-35000J0D01*
G01*
X13567000Y-10245000D02*
X13567000Y-10165000D01*
X13567000Y-10165000D02*
G75*
G03*
X13497000Y-10165000I-35000J0D01*
G01*
X13567000Y-10605000D02*
G75*
G02*
X13497000Y-10605000I-35000J0D01*
G01*
X13497000Y-10605000D02*
G75*
G02*
X13567000Y-10605000I35000J0D01*
G01*
X13497000Y-10565000D02*
X13497000Y-10645000D01*
X13567000Y-10645000D02*
G75*
G02*
X13497000Y-10645000I-35000J0D01*
G01*
X13567000Y-10645000D02*
X13567000Y-10565000D01*
X13567000Y-10565000D02*
G75*
G03*
X13497000Y-10565000I-35000J0D01*
G01*
X12760000Y-12065000D02*
X12760000Y-12145000D01*
X12720000Y-12105000D02*
X12800000Y-12105000D01*
X13100000Y-10990000D02*
X13100000Y-11070000D01*
X13060000Y-11030000D02*
X13140000Y-11030000D01*
X13100000Y-11752000D02*
X13100000Y-11832000D01*
X13060000Y-11792000D02*
X13140000Y-11792000D01*
X13470000Y-11190000D02*
X13470000Y-11270000D01*
X13430000Y-11230000D02*
X13510000Y-11230000D01*
X13470000Y-11390000D02*
X13470000Y-11470000D01*
X13430000Y-11430000D02*
X13510000Y-11430000D01*
X13470000Y-11590000D02*
X13470000Y-11670000D01*
X13430000Y-11630000D02*
X13510000Y-11630000D01*
X13522000Y-12065000D02*
X13522000Y-12145000D01*
X13482000Y-12105000D02*
X13562000Y-12105000D01*
X9859421Y-11507959D02*
X9859421Y-11444319D01*
X9795780Y-11444319D01*
X9795780Y-11507959D01*
X9859421Y-11507959D01*
X9863421Y-9729959D02*
X9863421Y-9666319D01*
X9799780Y-9666319D01*
X9799780Y-9729959D01*
X9863421Y-9729959D01*
X9863421Y-9983959D02*
X9863421Y-9920319D01*
X9799780Y-9920319D01*
X9799780Y-9983959D01*
X9863421Y-9983959D01*
X9863421Y-10237959D02*
X9863421Y-10174319D01*
X9799780Y-10174319D01*
X9799780Y-10237959D01*
X9863421Y-10237959D01*
X9863421Y-10491959D02*
X9863421Y-10428319D01*
X9799780Y-10428319D01*
X9799780Y-10491959D01*
X9863421Y-10491959D01*
X9863421Y-10745959D02*
X9863421Y-10682319D01*
X9799780Y-10682319D01*
X9799780Y-10745959D01*
X9863421Y-10745959D01*
X9863421Y-10999959D02*
X9863421Y-10936319D01*
X9799780Y-10936319D01*
X9799780Y-10999959D01*
X9863421Y-10999959D01*
X9863421Y-11253959D02*
X9863421Y-11190319D01*
X9799780Y-11190319D01*
X9799780Y-11253959D01*
X9863421Y-11253959D01*
X9871820Y-12453820D02*
X9871820Y-12390180D01*
X9808180Y-12390180D01*
X9808180Y-12453820D01*
X9871820Y-12453820D01*
X10125820Y-12453820D02*
X10125820Y-12390180D01*
X10062180Y-12390180D01*
X10062180Y-12453820D01*
X10125820Y-12453820D01*
X10125820Y-13469820D02*
X10125820Y-13406180D01*
X10062180Y-13406180D01*
X10062180Y-13469820D01*
X10125820Y-13469820D01*
X10379820Y-12453820D02*
X10379820Y-12390180D01*
X10316180Y-12390180D01*
X10316180Y-12453820D01*
X10379820Y-12453820D01*
X10379820Y-13469820D02*
X10379820Y-13406180D01*
X10316180Y-13406180D01*
X10316180Y-13469820D01*
X10379820Y-13469820D01*
X10633820Y-12453820D02*
X10633820Y-12390180D01*
X10570180Y-12390180D01*
X10570180Y-12453820D01*
X10633820Y-12453820D01*
X10633820Y-13469820D02*
X10633820Y-13406180D01*
X10570180Y-13406180D01*
X10570180Y-13469820D01*
X10633820Y-13469820D01*
X10887820Y-12453820D02*
X10887820Y-12390180D01*
X10824180Y-12390180D01*
X10824180Y-12453820D01*
X10887820Y-12453820D01*
X10887820Y-13469820D02*
X10887820Y-13406180D01*
X10824180Y-13406180D01*
X10824180Y-13469820D01*
X10887820Y-13469820D01*
X11141820Y-12453820D02*
X11141820Y-12390180D01*
X11078180Y-12390180D01*
X11078180Y-12453820D01*
X11141820Y-12453820D01*
X11141820Y-13469820D02*
X11141820Y-13406180D01*
X11078180Y-13406180D01*
X11078180Y-13469820D01*
X11141820Y-13469820D01*
X11383420Y-9729959D02*
X11383420Y-9666319D01*
X11319780Y-9666319D01*
X11319780Y-9729959D01*
X11383420Y-9729959D01*
X11383420Y-9983959D02*
X11383420Y-9920319D01*
X11319780Y-9920319D01*
X11319780Y-9983959D01*
X11383420Y-9983959D01*
X11383420Y-10237959D02*
X11383420Y-10174319D01*
X11319780Y-10174319D01*
X11319780Y-10237959D01*
X11383420Y-10237959D01*
X11383420Y-10491959D02*
X11383420Y-10428319D01*
X11319780Y-10428319D01*
X11319780Y-10491959D01*
X11383420Y-10491959D01*
X11383420Y-10745959D02*
X11383420Y-10682319D01*
X11319780Y-10682319D01*
X11319780Y-10745959D01*
X11383420Y-10745959D01*
X11383420Y-10999959D02*
X11383420Y-10936319D01*
X11319780Y-10936319D01*
X11319780Y-10999959D01*
X11383420Y-10999959D01*
X11383420Y-11253959D02*
X11383420Y-11190319D01*
X11319780Y-11190319D01*
X11319780Y-11253959D01*
X11383420Y-11253959D01*
X11383420Y-11507959D02*
X11383420Y-11444319D01*
X11319780Y-11444319D01*
X11319780Y-11507959D01*
X11383420Y-11507959D01*
X11395820Y-12453820D02*
X11395820Y-12390180D01*
X11332180Y-12390180D01*
X11332180Y-12453820D01*
X11395820Y-12453820D01*
X11643820Y-9936820D02*
X11643820Y-9873180D01*
X11580180Y-9873180D01*
X11580180Y-9936820D01*
X11643820Y-9936820D01*
X11653820Y-11326820D02*
X11653820Y-11263180D01*
X11590180Y-11263180D01*
X11590180Y-11326820D01*
X11653820Y-11326820D01*
X11733622Y-10271820D02*
X11733622Y-10208180D01*
X11669982Y-10208180D01*
X11669982Y-10271820D01*
X11733622Y-10271820D01*
X11743622Y-11191820D02*
X11743622Y-11128180D01*
X11679982Y-11128180D01*
X11679982Y-11191820D01*
X11743622Y-11191820D01*
X11903820Y-11326820D02*
X11903820Y-11263180D01*
X11840180Y-11263180D01*
X11840180Y-11326820D01*
X11903820Y-11326820D01*
X11993622Y-11191820D02*
X11993622Y-11128180D01*
X11929982Y-11128180D01*
X11929982Y-11191820D01*
X11993622Y-11191820D01*
X12513622Y-11191820D02*
X12513622Y-11128180D01*
X12449982Y-11128180D01*
X12449982Y-11191820D01*
X12513622Y-11191820D01*
X12603820Y-11326820D02*
X12603820Y-11263180D01*
X12540180Y-11263180D01*
X12540180Y-11326820D01*
X12603820Y-11326820D01*
X12763622Y-11191820D02*
X12763622Y-11128180D01*
X12699982Y-11128180D01*
X12699982Y-11191820D01*
X12763622Y-11191820D01*
X12773622Y-10271820D02*
X12773622Y-10208180D01*
X12709982Y-10208180D01*
X12709982Y-10271820D01*
X12773622Y-10271820D01*
X12853820Y-11326820D02*
X12853820Y-11263180D01*
X12790180Y-11263180D01*
X12790180Y-11326820D01*
X12853820Y-11326820D01*
X12863820Y-9936820D02*
X12863820Y-9873180D01*
X12800180Y-9873180D01*
X12800180Y-9936820D01*
X12863820Y-9936820D01*
X13583820Y-12443820D02*
X13583820Y-12380180D01*
X13520180Y-12380180D01*
X13520180Y-12443820D01*
X13583820Y-12443820D01*
X13583820Y-12697820D02*
X13583820Y-12634180D01*
X13520180Y-12634180D01*
X13520180Y-12697820D01*
X13583820Y-12697820D01*
X13583820Y-12951820D02*
X13583820Y-12888180D01*
X13520180Y-12888180D01*
X13520180Y-12951820D01*
X13583820Y-12951820D01*
X13583820Y-13205820D02*
X13583820Y-13142180D01*
X13520180Y-13142180D01*
X13520180Y-13205820D01*
X13583820Y-13205820D01*
X13583820Y-13459820D02*
X13583820Y-13396180D01*
X13520180Y-13396180D01*
X13520180Y-13459820D01*
X13583820Y-13459820D01*
X11912000Y-13080000D02*
X11962000Y-13030000D01*
X11912000Y-12980000D01*
X11862000Y-13030000D01*
X11912000Y-13080000D01*
X11912000Y-13330000D02*
X11962000Y-13280000D01*
X11912000Y-13230000D01*
X11862000Y-13280000D01*
X11912000Y-13330000D01*
D12*
X11696000Y-11875000D02*
X11806000Y-11985000D01*
X11806000Y-11875000D02*
X11696000Y-11985000D01*
X11806000Y-11930000D02*
G75*
G02*
X11696000Y-11930000I-55000J0D01*
G01*
X11696000Y-11930000D02*
G75*
G02*
X11806000Y-11930000I55000J0D01*
G01*
X11974000Y-11545000D02*
X12084000Y-11655000D01*
X12084000Y-11545000D02*
X11974000Y-11655000D01*
X12084000Y-11600000D02*
G75*
G02*
X11974000Y-11600000I-55000J0D01*
G01*
X11974000Y-11600000D02*
G75*
G02*
X12084000Y-11600000I55000J0D01*
G01*
X12458000Y-11875000D02*
X12568000Y-11985000D01*
X12568000Y-11875000D02*
X12458000Y-11985000D01*
X12568000Y-11930000D02*
G75*
G02*
X12458000Y-11930000I-55000J0D01*
G01*
X12458000Y-11930000D02*
G75*
G02*
X12568000Y-11930000I55000J0D01*
G01*
X12736000Y-11545000D02*
X12846000Y-11655000D01*
X12846000Y-11545000D02*
X12736000Y-11655000D01*
X12846000Y-11600000D02*
G75*
G02*
X12736000Y-11600000I-55000J0D01*
G01*
X12736000Y-11600000D02*
G75*
G02*
X12846000Y-11600000I55000J0D01*
G01*
D13*
X13407500Y-10957500D02*
X13532500Y-11082500D01*
X13532500Y-10957500D02*
X13407500Y-11082500D01*
X13470000Y-10957500D02*
X13470000Y-11082500D01*
X13407500Y-11020000D02*
X13532500Y-11020000D01*
X13407500Y-11777500D02*
X13532500Y-11902500D01*
X13532500Y-11777500D02*
X13407500Y-11902500D01*
X13470000Y-11777500D02*
X13470000Y-11902500D01*
X13407500Y-11840000D02*
X13532500Y-11840000D01*
D10*
X9950777Y-13893484D02*
X9950777Y-13693484D01*
X9950777Y-13693484D02*
X9998396Y-13693484D01*
X9998396Y-13693484D02*
X10026967Y-13703008D01*
X10026967Y-13703008D02*
X10046015Y-13722055D01*
X10046015Y-13722055D02*
X10055539Y-13741103D01*
X10055539Y-13741103D02*
X10065063Y-13779198D01*
X10065063Y-13779198D02*
X10065063Y-13807769D01*
X10065063Y-13807769D02*
X10055539Y-13845865D01*
X10055539Y-13845865D02*
X10046015Y-13864912D01*
X10046015Y-13864912D02*
X10026967Y-13883960D01*
X10026967Y-13883960D02*
X9998396Y-13893484D01*
X9998396Y-13893484D02*
X9950777Y-13893484D01*
X10150777Y-13893484D02*
X10150777Y-13760150D01*
X10150777Y-13798246D02*
X10160301Y-13779198D01*
X10160301Y-13779198D02*
X10169824Y-13769674D01*
X10169824Y-13769674D02*
X10188872Y-13760150D01*
X10188872Y-13760150D02*
X10207920Y-13760150D01*
X10274586Y-13893484D02*
X10274586Y-13760150D01*
X10274586Y-13693484D02*
X10265063Y-13703008D01*
X10265063Y-13703008D02*
X10274586Y-13712531D01*
X10274586Y-13712531D02*
X10284110Y-13703008D01*
X10284110Y-13703008D02*
X10274586Y-13693484D01*
X10274586Y-13693484D02*
X10274586Y-13712531D01*
X10398396Y-13893484D02*
X10379348Y-13883960D01*
X10379348Y-13883960D02*
X10369824Y-13864912D01*
X10369824Y-13864912D02*
X10369824Y-13693484D01*
X10503158Y-13893484D02*
X10484110Y-13883960D01*
X10484110Y-13883960D02*
X10474586Y-13864912D01*
X10474586Y-13864912D02*
X10474586Y-13693484D01*
X10731729Y-13893484D02*
X10731729Y-13693484D01*
X10731729Y-13693484D02*
X10798396Y-13836341D01*
X10798396Y-13836341D02*
X10865063Y-13693484D01*
X10865063Y-13693484D02*
X10865063Y-13893484D01*
X11046015Y-13893484D02*
X11046015Y-13788722D01*
X11046015Y-13788722D02*
X11036491Y-13769674D01*
X11036491Y-13769674D02*
X11017444Y-13760150D01*
X11017444Y-13760150D02*
X10979348Y-13760150D01*
X10979348Y-13760150D02*
X10960301Y-13769674D01*
X11046015Y-13883960D02*
X11026967Y-13893484D01*
X11026967Y-13893484D02*
X10979348Y-13893484D01*
X10979348Y-13893484D02*
X10960301Y-13883960D01*
X10960301Y-13883960D02*
X10950777Y-13864912D01*
X10950777Y-13864912D02*
X10950777Y-13845865D01*
X10950777Y-13845865D02*
X10960301Y-13826817D01*
X10960301Y-13826817D02*
X10979348Y-13817293D01*
X10979348Y-13817293D02*
X11026967Y-13817293D01*
X11026967Y-13817293D02*
X11046015Y-13807769D01*
X11141253Y-13760150D02*
X11141253Y-13960150D01*
X11141253Y-13769674D02*
X11160301Y-13760150D01*
X11160301Y-13760150D02*
X11198396Y-13760150D01*
X11198396Y-13760150D02*
X11217443Y-13769674D01*
X11217443Y-13769674D02*
X11226967Y-13779198D01*
X11226967Y-13779198D02*
X11236491Y-13798246D01*
X11236491Y-13798246D02*
X11236491Y-13855388D01*
X11236491Y-13855388D02*
X11226967Y-13874436D01*
X11226967Y-13874436D02*
X11217443Y-13883960D01*
X11217443Y-13883960D02*
X11198396Y-13893484D01*
X11198396Y-13893484D02*
X11160301Y-13893484D01*
X11160301Y-13893484D02*
X11141253Y-13883960D01*
X11322205Y-13874436D02*
X11331729Y-13883960D01*
X11331729Y-13883960D02*
X11322205Y-13893484D01*
X11322205Y-13893484D02*
X11312682Y-13883960D01*
X11312682Y-13883960D02*
X11322205Y-13874436D01*
X11322205Y-13874436D02*
X11322205Y-13893484D01*
X11322205Y-13769674D02*
X11331729Y-13779198D01*
X11331729Y-13779198D02*
X11322205Y-13788722D01*
X11322205Y-13788722D02*
X11312682Y-13779198D01*
X11312682Y-13779198D02*
X11322205Y-13769674D01*
X11322205Y-13769674D02*
X11322205Y-13788722D01*
D11*
X9660000Y-14207000D02*
X9690000Y-14237000D01*
X9690000Y-14207000D02*
X9660000Y-14237000D01*
D10*
X9988872Y-14113484D02*
X10007920Y-14113484D01*
X10007920Y-14113484D02*
X10026967Y-14123008D01*
X10026967Y-14123008D02*
X10036491Y-14132531D01*
X10036491Y-14132531D02*
X10046015Y-14151579D01*
X10046015Y-14151579D02*
X10055539Y-14189674D01*
X10055539Y-14189674D02*
X10055539Y-14237293D01*
X10055539Y-14237293D02*
X10046015Y-14275388D01*
X10046015Y-14275388D02*
X10036491Y-14294436D01*
X10036491Y-14294436D02*
X10026967Y-14303960D01*
X10026967Y-14303960D02*
X10007920Y-14313484D01*
X10007920Y-14313484D02*
X9988872Y-14313484D01*
X9988872Y-14313484D02*
X9969824Y-14303960D01*
X9969824Y-14303960D02*
X9960301Y-14294436D01*
X9960301Y-14294436D02*
X9950777Y-14275388D01*
X9950777Y-14275388D02*
X9941253Y-14237293D01*
X9941253Y-14237293D02*
X9941253Y-14189674D01*
X9941253Y-14189674D02*
X9950777Y-14151579D01*
X9950777Y-14151579D02*
X9960301Y-14132531D01*
X9960301Y-14132531D02*
X9969824Y-14123008D01*
X9969824Y-14123008D02*
X9988872Y-14113484D01*
X10141253Y-14294436D02*
X10150777Y-14303960D01*
X10150777Y-14303960D02*
X10141253Y-14313484D01*
X10141253Y-14313484D02*
X10131729Y-14303960D01*
X10131729Y-14303960D02*
X10141253Y-14294436D01*
X10141253Y-14294436D02*
X10141253Y-14313484D01*
X10217444Y-14113484D02*
X10341253Y-14113484D01*
X10341253Y-14113484D02*
X10274586Y-14189674D01*
X10274586Y-14189674D02*
X10303158Y-14189674D01*
X10303158Y-14189674D02*
X10322205Y-14199198D01*
X10322205Y-14199198D02*
X10331729Y-14208722D01*
X10331729Y-14208722D02*
X10341253Y-14227769D01*
X10341253Y-14227769D02*
X10341253Y-14275388D01*
X10341253Y-14275388D02*
X10331729Y-14294436D01*
X10331729Y-14294436D02*
X10322205Y-14303960D01*
X10322205Y-14303960D02*
X10303158Y-14313484D01*
X10303158Y-14313484D02*
X10246015Y-14313484D01*
X10246015Y-14313484D02*
X10226967Y-14303960D01*
X10226967Y-14303960D02*
X10217444Y-14294436D01*
X10465063Y-14113484D02*
X10484110Y-14113484D01*
X10484110Y-14113484D02*
X10503158Y-14123008D01*
X10503158Y-14123008D02*
X10512682Y-14132531D01*
X10512682Y-14132531D02*
X10522205Y-14151579D01*
X10522205Y-14151579D02*
X10531729Y-14189674D01*
X10531729Y-14189674D02*
X10531729Y-14237293D01*
X10531729Y-14237293D02*
X10522205Y-14275388D01*
X10522205Y-14275388D02*
X10512682Y-14294436D01*
X10512682Y-14294436D02*
X10503158Y-14303960D01*
X10503158Y-14303960D02*
X10484110Y-14313484D01*
X10484110Y-14313484D02*
X10465063Y-14313484D01*
X10465063Y-14313484D02*
X10446015Y-14303960D01*
X10446015Y-14303960D02*
X10436491Y-14294436D01*
X10436491Y-14294436D02*
X10426967Y-14275388D01*
X10426967Y-14275388D02*
X10417444Y-14237293D01*
X10417444Y-14237293D02*
X10417444Y-14189674D01*
X10417444Y-14189674D02*
X10426967Y-14151579D01*
X10426967Y-14151579D02*
X10436491Y-14132531D01*
X10436491Y-14132531D02*
X10446015Y-14123008D01*
X10446015Y-14123008D02*
X10465063Y-14113484D01*
X10655539Y-14113484D02*
X10674586Y-14113484D01*
X10674586Y-14113484D02*
X10693634Y-14123008D01*
X10693634Y-14123008D02*
X10703158Y-14132531D01*
X10703158Y-14132531D02*
X10712682Y-14151579D01*
X10712682Y-14151579D02*
X10722205Y-14189674D01*
X10722205Y-14189674D02*
X10722205Y-14237293D01*
X10722205Y-14237293D02*
X10712682Y-14275388D01*
X10712682Y-14275388D02*
X10703158Y-14294436D01*
X10703158Y-14294436D02*
X10693634Y-14303960D01*
X10693634Y-14303960D02*
X10674586Y-14313484D01*
X10674586Y-14313484D02*
X10655539Y-14313484D01*
X10655539Y-14313484D02*
X10636491Y-14303960D01*
X10636491Y-14303960D02*
X10626967Y-14294436D01*
X10626967Y-14294436D02*
X10617444Y-14275388D01*
X10617444Y-14275388D02*
X10607920Y-14237293D01*
X10607920Y-14237293D02*
X10607920Y-14189674D01*
X10607920Y-14189674D02*
X10617444Y-14151579D01*
X10617444Y-14151579D02*
X10626967Y-14132531D01*
X10626967Y-14132531D02*
X10636491Y-14123008D01*
X10636491Y-14123008D02*
X10655539Y-14113484D01*
X10807920Y-14313484D02*
X10807920Y-14180150D01*
X10807920Y-14199198D02*
X10817444Y-14189674D01*
X10817444Y-14189674D02*
X10836491Y-14180150D01*
X10836491Y-14180150D02*
X10865063Y-14180150D01*
X10865063Y-14180150D02*
X10884110Y-14189674D01*
X10884110Y-14189674D02*
X10893634Y-14208722D01*
X10893634Y-14208722D02*
X10893634Y-14313484D01*
X10893634Y-14208722D02*
X10903158Y-14189674D01*
X10903158Y-14189674D02*
X10922205Y-14180150D01*
X10922205Y-14180150D02*
X10950777Y-14180150D01*
X10950777Y-14180150D02*
X10969825Y-14189674D01*
X10969825Y-14189674D02*
X10979348Y-14208722D01*
X10979348Y-14208722D02*
X10979348Y-14313484D01*
X11074586Y-14313484D02*
X11074586Y-14180150D01*
X11074586Y-14199198D02*
X11084110Y-14189674D01*
X11084110Y-14189674D02*
X11103158Y-14180150D01*
X11103158Y-14180150D02*
X11131729Y-14180150D01*
X11131729Y-14180150D02*
X11150777Y-14189674D01*
X11150777Y-14189674D02*
X11160301Y-14208722D01*
X11160301Y-14208722D02*
X11160301Y-14313484D01*
X11160301Y-14208722D02*
X11169825Y-14189674D01*
X11169825Y-14189674D02*
X11188872Y-14180150D01*
X11188872Y-14180150D02*
X11217443Y-14180150D01*
X11217443Y-14180150D02*
X11236491Y-14189674D01*
X11236491Y-14189674D02*
X11246015Y-14208722D01*
X11246015Y-14208722D02*
X11246015Y-14313484D01*
X11636491Y-14103960D02*
X11465063Y-14361103D01*
X11893634Y-14113484D02*
X11912682Y-14113484D01*
X11912682Y-14113484D02*
X11931729Y-14123008D01*
X11931729Y-14123008D02*
X11941253Y-14132531D01*
X11941253Y-14132531D02*
X11950777Y-14151579D01*
X11950777Y-14151579D02*
X11960301Y-14189674D01*
X11960301Y-14189674D02*
X11960301Y-14237293D01*
X11960301Y-14237293D02*
X11950777Y-14275388D01*
X11950777Y-14275388D02*
X11941253Y-14294436D01*
X11941253Y-14294436D02*
X11931729Y-14303960D01*
X11931729Y-14303960D02*
X11912682Y-14313484D01*
X11912682Y-14313484D02*
X11893634Y-14313484D01*
X11893634Y-14313484D02*
X11874586Y-14303960D01*
X11874586Y-14303960D02*
X11865063Y-14294436D01*
X11865063Y-14294436D02*
X11855539Y-14275388D01*
X11855539Y-14275388D02*
X11846015Y-14237293D01*
X11846015Y-14237293D02*
X11846015Y-14189674D01*
X11846015Y-14189674D02*
X11855539Y-14151579D01*
X11855539Y-14151579D02*
X11865063Y-14132531D01*
X11865063Y-14132531D02*
X11874586Y-14123008D01*
X11874586Y-14123008D02*
X11893634Y-14113484D01*
X12046015Y-14294436D02*
X12055539Y-14303960D01*
X12055539Y-14303960D02*
X12046015Y-14313484D01*
X12046015Y-14313484D02*
X12036491Y-14303960D01*
X12036491Y-14303960D02*
X12046015Y-14294436D01*
X12046015Y-14294436D02*
X12046015Y-14313484D01*
X12179348Y-14113484D02*
X12198396Y-14113484D01*
X12198396Y-14113484D02*
X12217444Y-14123008D01*
X12217444Y-14123008D02*
X12226967Y-14132531D01*
X12226967Y-14132531D02*
X12236491Y-14151579D01*
X12236491Y-14151579D02*
X12246015Y-14189674D01*
X12246015Y-14189674D02*
X12246015Y-14237293D01*
X12246015Y-14237293D02*
X12236491Y-14275388D01*
X12236491Y-14275388D02*
X12226967Y-14294436D01*
X12226967Y-14294436D02*
X12217444Y-14303960D01*
X12217444Y-14303960D02*
X12198396Y-14313484D01*
X12198396Y-14313484D02*
X12179348Y-14313484D01*
X12179348Y-14313484D02*
X12160301Y-14303960D01*
X12160301Y-14303960D02*
X12150777Y-14294436D01*
X12150777Y-14294436D02*
X12141253Y-14275388D01*
X12141253Y-14275388D02*
X12131729Y-14237293D01*
X12131729Y-14237293D02*
X12131729Y-14189674D01*
X12131729Y-14189674D02*
X12141253Y-14151579D01*
X12141253Y-14151579D02*
X12150777Y-14132531D01*
X12150777Y-14132531D02*
X12160301Y-14123008D01*
X12160301Y-14123008D02*
X12179348Y-14113484D01*
X12436491Y-14313484D02*
X12322206Y-14313484D01*
X12379348Y-14313484D02*
X12379348Y-14113484D01*
X12379348Y-14113484D02*
X12360301Y-14142055D01*
X12360301Y-14142055D02*
X12341253Y-14161103D01*
X12341253Y-14161103D02*
X12322206Y-14170627D01*
X12626967Y-14313484D02*
X12512682Y-14313484D01*
X12569825Y-14313484D02*
X12569825Y-14113484D01*
X12569825Y-14113484D02*
X12550777Y-14142055D01*
X12550777Y-14142055D02*
X12531729Y-14161103D01*
X12531729Y-14161103D02*
X12512682Y-14170627D01*
X12741253Y-14199198D02*
X12722206Y-14189674D01*
X12722206Y-14189674D02*
X12712682Y-14180150D01*
X12712682Y-14180150D02*
X12703158Y-14161103D01*
X12703158Y-14161103D02*
X12703158Y-14151579D01*
X12703158Y-14151579D02*
X12712682Y-14132531D01*
X12712682Y-14132531D02*
X12722206Y-14123008D01*
X12722206Y-14123008D02*
X12741253Y-14113484D01*
X12741253Y-14113484D02*
X12779348Y-14113484D01*
X12779348Y-14113484D02*
X12798396Y-14123008D01*
X12798396Y-14123008D02*
X12807920Y-14132531D01*
X12807920Y-14132531D02*
X12817444Y-14151579D01*
X12817444Y-14151579D02*
X12817444Y-14161103D01*
X12817444Y-14161103D02*
X12807920Y-14180150D01*
X12807920Y-14180150D02*
X12798396Y-14189674D01*
X12798396Y-14189674D02*
X12779348Y-14199198D01*
X12779348Y-14199198D02*
X12741253Y-14199198D01*
X12741253Y-14199198D02*
X12722206Y-14208722D01*
X12722206Y-14208722D02*
X12712682Y-14218246D01*
X12712682Y-14218246D02*
X12703158Y-14237293D01*
X12703158Y-14237293D02*
X12703158Y-14275388D01*
X12703158Y-14275388D02*
X12712682Y-14294436D01*
X12712682Y-14294436D02*
X12722206Y-14303960D01*
X12722206Y-14303960D02*
X12741253Y-14313484D01*
X12741253Y-14313484D02*
X12779348Y-14313484D01*
X12779348Y-14313484D02*
X12798396Y-14303960D01*
X12798396Y-14303960D02*
X12807920Y-14294436D01*
X12807920Y-14294436D02*
X12817444Y-14275388D01*
X12817444Y-14275388D02*
X12817444Y-14237293D01*
X12817444Y-14237293D02*
X12807920Y-14218246D01*
X12807920Y-14218246D02*
X12798396Y-14208722D01*
X12798396Y-14208722D02*
X12779348Y-14199198D01*
X12893634Y-14113484D02*
X12893634Y-14151579D01*
X12969825Y-14113484D02*
X12969825Y-14151579D01*
X13265063Y-14389674D02*
X13255539Y-14380150D01*
X13255539Y-14380150D02*
X13236491Y-14351579D01*
X13236491Y-14351579D02*
X13226968Y-14332531D01*
X13226968Y-14332531D02*
X13217444Y-14303960D01*
X13217444Y-14303960D02*
X13207920Y-14256341D01*
X13207920Y-14256341D02*
X13207920Y-14218246D01*
X13207920Y-14218246D02*
X13217444Y-14170627D01*
X13217444Y-14170627D02*
X13226968Y-14142055D01*
X13226968Y-14142055D02*
X13236491Y-14123008D01*
X13236491Y-14123008D02*
X13255539Y-14094436D01*
X13255539Y-14094436D02*
X13265063Y-14084912D01*
X13426968Y-14180150D02*
X13426968Y-14313484D01*
X13379348Y-14103960D02*
X13331729Y-14246817D01*
X13331729Y-14246817D02*
X13455539Y-14246817D01*
X13684110Y-14313484D02*
X13684110Y-14113484D01*
X13769825Y-14313484D02*
X13769825Y-14208722D01*
X13769825Y-14208722D02*
X13760301Y-14189674D01*
X13760301Y-14189674D02*
X13741253Y-14180150D01*
X13741253Y-14180150D02*
X13712682Y-14180150D01*
X13712682Y-14180150D02*
X13693634Y-14189674D01*
X13693634Y-14189674D02*
X13684110Y-14199198D01*
X13893634Y-14313484D02*
X13874587Y-14303960D01*
X13874587Y-14303960D02*
X13865063Y-14294436D01*
X13865063Y-14294436D02*
X13855539Y-14275388D01*
X13855539Y-14275388D02*
X13855539Y-14218246D01*
X13855539Y-14218246D02*
X13865063Y-14199198D01*
X13865063Y-14199198D02*
X13874587Y-14189674D01*
X13874587Y-14189674D02*
X13893634Y-14180150D01*
X13893634Y-14180150D02*
X13922206Y-14180150D01*
X13922206Y-14180150D02*
X13941253Y-14189674D01*
X13941253Y-14189674D02*
X13950777Y-14199198D01*
X13950777Y-14199198D02*
X13960301Y-14218246D01*
X13960301Y-14218246D02*
X13960301Y-14275388D01*
X13960301Y-14275388D02*
X13950777Y-14294436D01*
X13950777Y-14294436D02*
X13941253Y-14303960D01*
X13941253Y-14303960D02*
X13922206Y-14313484D01*
X13922206Y-14313484D02*
X13893634Y-14313484D01*
X14074587Y-14313484D02*
X14055539Y-14303960D01*
X14055539Y-14303960D02*
X14046015Y-14284912D01*
X14046015Y-14284912D02*
X14046015Y-14113484D01*
X14226968Y-14303960D02*
X14207920Y-14313484D01*
X14207920Y-14313484D02*
X14169825Y-14313484D01*
X14169825Y-14313484D02*
X14150777Y-14303960D01*
X14150777Y-14303960D02*
X14141253Y-14284912D01*
X14141253Y-14284912D02*
X14141253Y-14208722D01*
X14141253Y-14208722D02*
X14150777Y-14189674D01*
X14150777Y-14189674D02*
X14169825Y-14180150D01*
X14169825Y-14180150D02*
X14207920Y-14180150D01*
X14207920Y-14180150D02*
X14226968Y-14189674D01*
X14226968Y-14189674D02*
X14236491Y-14208722D01*
X14236491Y-14208722D02*
X14236491Y-14227769D01*
X14236491Y-14227769D02*
X14141253Y-14246817D01*
X14312682Y-14303960D02*
X14331730Y-14313484D01*
X14331730Y-14313484D02*
X14369825Y-14313484D01*
X14369825Y-14313484D02*
X14388872Y-14303960D01*
X14388872Y-14303960D02*
X14398396Y-14284912D01*
X14398396Y-14284912D02*
X14398396Y-14275388D01*
X14398396Y-14275388D02*
X14388872Y-14256341D01*
X14388872Y-14256341D02*
X14369825Y-14246817D01*
X14369825Y-14246817D02*
X14341253Y-14246817D01*
X14341253Y-14246817D02*
X14322206Y-14237293D01*
X14322206Y-14237293D02*
X14312682Y-14218246D01*
X14312682Y-14218246D02*
X14312682Y-14208722D01*
X14312682Y-14208722D02*
X14322206Y-14189674D01*
X14322206Y-14189674D02*
X14341253Y-14180150D01*
X14341253Y-14180150D02*
X14369825Y-14180150D01*
X14369825Y-14180150D02*
X14388872Y-14189674D01*
X14465063Y-14389674D02*
X14474587Y-14380150D01*
X14474587Y-14380150D02*
X14493634Y-14351579D01*
X14493634Y-14351579D02*
X14503158Y-14332531D01*
X14503158Y-14332531D02*
X14512682Y-14303960D01*
X14512682Y-14303960D02*
X14522206Y-14256341D01*
X14522206Y-14256341D02*
X14522206Y-14218246D01*
X14522206Y-14218246D02*
X14512682Y-14170627D01*
X14512682Y-14170627D02*
X14503158Y-14142055D01*
X14503158Y-14142055D02*
X14493634Y-14123008D01*
X14493634Y-14123008D02*
X14474587Y-14094436D01*
X14474587Y-14094436D02*
X14465063Y-14084912D01*
D11*
X9690000Y-14486000D02*
G75*
G02*
X9620000Y-14486000I-35000J0D01*
G01*
X9620000Y-14486000D02*
G75*
G02*
X9690000Y-14486000I35000J0D01*
G01*
D10*
X9988872Y-14377484D02*
X10007920Y-14377484D01*
X10007920Y-14377484D02*
X10026967Y-14387008D01*
X10026967Y-14387008D02*
X10036491Y-14396531D01*
X10036491Y-14396531D02*
X10046015Y-14415579D01*
X10046015Y-14415579D02*
X10055539Y-14453674D01*
X10055539Y-14453674D02*
X10055539Y-14501293D01*
X10055539Y-14501293D02*
X10046015Y-14539388D01*
X10046015Y-14539388D02*
X10036491Y-14558436D01*
X10036491Y-14558436D02*
X10026967Y-14567960D01*
X10026967Y-14567960D02*
X10007920Y-14577484D01*
X10007920Y-14577484D02*
X9988872Y-14577484D01*
X9988872Y-14577484D02*
X9969824Y-14567960D01*
X9969824Y-14567960D02*
X9960301Y-14558436D01*
X9960301Y-14558436D02*
X9950777Y-14539388D01*
X9950777Y-14539388D02*
X9941253Y-14501293D01*
X9941253Y-14501293D02*
X9941253Y-14453674D01*
X9941253Y-14453674D02*
X9950777Y-14415579D01*
X9950777Y-14415579D02*
X9960301Y-14396531D01*
X9960301Y-14396531D02*
X9969824Y-14387008D01*
X9969824Y-14387008D02*
X9988872Y-14377484D01*
X10141253Y-14558436D02*
X10150777Y-14567960D01*
X10150777Y-14567960D02*
X10141253Y-14577484D01*
X10141253Y-14577484D02*
X10131729Y-14567960D01*
X10131729Y-14567960D02*
X10141253Y-14558436D01*
X10141253Y-14558436D02*
X10141253Y-14577484D01*
X10217444Y-14377484D02*
X10350777Y-14377484D01*
X10350777Y-14377484D02*
X10265063Y-14577484D01*
X10465063Y-14377484D02*
X10484110Y-14377484D01*
X10484110Y-14377484D02*
X10503158Y-14387008D01*
X10503158Y-14387008D02*
X10512682Y-14396531D01*
X10512682Y-14396531D02*
X10522205Y-14415579D01*
X10522205Y-14415579D02*
X10531729Y-14453674D01*
X10531729Y-14453674D02*
X10531729Y-14501293D01*
X10531729Y-14501293D02*
X10522205Y-14539388D01*
X10522205Y-14539388D02*
X10512682Y-14558436D01*
X10512682Y-14558436D02*
X10503158Y-14567960D01*
X10503158Y-14567960D02*
X10484110Y-14577484D01*
X10484110Y-14577484D02*
X10465063Y-14577484D01*
X10465063Y-14577484D02*
X10446015Y-14567960D01*
X10446015Y-14567960D02*
X10436491Y-14558436D01*
X10436491Y-14558436D02*
X10426967Y-14539388D01*
X10426967Y-14539388D02*
X10417444Y-14501293D01*
X10417444Y-14501293D02*
X10417444Y-14453674D01*
X10417444Y-14453674D02*
X10426967Y-14415579D01*
X10426967Y-14415579D02*
X10436491Y-14396531D01*
X10436491Y-14396531D02*
X10446015Y-14387008D01*
X10446015Y-14387008D02*
X10465063Y-14377484D01*
X10655539Y-14377484D02*
X10674586Y-14377484D01*
X10674586Y-14377484D02*
X10693634Y-14387008D01*
X10693634Y-14387008D02*
X10703158Y-14396531D01*
X10703158Y-14396531D02*
X10712682Y-14415579D01*
X10712682Y-14415579D02*
X10722205Y-14453674D01*
X10722205Y-14453674D02*
X10722205Y-14501293D01*
X10722205Y-14501293D02*
X10712682Y-14539388D01*
X10712682Y-14539388D02*
X10703158Y-14558436D01*
X10703158Y-14558436D02*
X10693634Y-14567960D01*
X10693634Y-14567960D02*
X10674586Y-14577484D01*
X10674586Y-14577484D02*
X10655539Y-14577484D01*
X10655539Y-14577484D02*
X10636491Y-14567960D01*
X10636491Y-14567960D02*
X10626967Y-14558436D01*
X10626967Y-14558436D02*
X10617444Y-14539388D01*
X10617444Y-14539388D02*
X10607920Y-14501293D01*
X10607920Y-14501293D02*
X10607920Y-14453674D01*
X10607920Y-14453674D02*
X10617444Y-14415579D01*
X10617444Y-14415579D02*
X10626967Y-14396531D01*
X10626967Y-14396531D02*
X10636491Y-14387008D01*
X10636491Y-14387008D02*
X10655539Y-14377484D01*
X10807920Y-14577484D02*
X10807920Y-14444150D01*
X10807920Y-14463198D02*
X10817444Y-14453674D01*
X10817444Y-14453674D02*
X10836491Y-14444150D01*
X10836491Y-14444150D02*
X10865063Y-14444150D01*
X10865063Y-14444150D02*
X10884110Y-14453674D01*
X10884110Y-14453674D02*
X10893634Y-14472722D01*
X10893634Y-14472722D02*
X10893634Y-14577484D01*
X10893634Y-14472722D02*
X10903158Y-14453674D01*
X10903158Y-14453674D02*
X10922205Y-14444150D01*
X10922205Y-14444150D02*
X10950777Y-14444150D01*
X10950777Y-14444150D02*
X10969825Y-14453674D01*
X10969825Y-14453674D02*
X10979348Y-14472722D01*
X10979348Y-14472722D02*
X10979348Y-14577484D01*
X11074586Y-14577484D02*
X11074586Y-14444150D01*
X11074586Y-14463198D02*
X11084110Y-14453674D01*
X11084110Y-14453674D02*
X11103158Y-14444150D01*
X11103158Y-14444150D02*
X11131729Y-14444150D01*
X11131729Y-14444150D02*
X11150777Y-14453674D01*
X11150777Y-14453674D02*
X11160301Y-14472722D01*
X11160301Y-14472722D02*
X11160301Y-14577484D01*
X11160301Y-14472722D02*
X11169825Y-14453674D01*
X11169825Y-14453674D02*
X11188872Y-14444150D01*
X11188872Y-14444150D02*
X11217443Y-14444150D01*
X11217443Y-14444150D02*
X11236491Y-14453674D01*
X11236491Y-14453674D02*
X11246015Y-14472722D01*
X11246015Y-14472722D02*
X11246015Y-14577484D01*
X11636491Y-14367960D02*
X11465063Y-14625103D01*
X11893634Y-14377484D02*
X11912682Y-14377484D01*
X11912682Y-14377484D02*
X11931729Y-14387008D01*
X11931729Y-14387008D02*
X11941253Y-14396531D01*
X11941253Y-14396531D02*
X11950777Y-14415579D01*
X11950777Y-14415579D02*
X11960301Y-14453674D01*
X11960301Y-14453674D02*
X11960301Y-14501293D01*
X11960301Y-14501293D02*
X11950777Y-14539388D01*
X11950777Y-14539388D02*
X11941253Y-14558436D01*
X11941253Y-14558436D02*
X11931729Y-14567960D01*
X11931729Y-14567960D02*
X11912682Y-14577484D01*
X11912682Y-14577484D02*
X11893634Y-14577484D01*
X11893634Y-14577484D02*
X11874586Y-14567960D01*
X11874586Y-14567960D02*
X11865063Y-14558436D01*
X11865063Y-14558436D02*
X11855539Y-14539388D01*
X11855539Y-14539388D02*
X11846015Y-14501293D01*
X11846015Y-14501293D02*
X11846015Y-14453674D01*
X11846015Y-14453674D02*
X11855539Y-14415579D01*
X11855539Y-14415579D02*
X11865063Y-14396531D01*
X11865063Y-14396531D02*
X11874586Y-14387008D01*
X11874586Y-14387008D02*
X11893634Y-14377484D01*
X12046015Y-14558436D02*
X12055539Y-14567960D01*
X12055539Y-14567960D02*
X12046015Y-14577484D01*
X12046015Y-14577484D02*
X12036491Y-14567960D01*
X12036491Y-14567960D02*
X12046015Y-14558436D01*
X12046015Y-14558436D02*
X12046015Y-14577484D01*
X12179348Y-14377484D02*
X12198396Y-14377484D01*
X12198396Y-14377484D02*
X12217444Y-14387008D01*
X12217444Y-14387008D02*
X12226967Y-14396531D01*
X12226967Y-14396531D02*
X12236491Y-14415579D01*
X12236491Y-14415579D02*
X12246015Y-14453674D01*
X12246015Y-14453674D02*
X12246015Y-14501293D01*
X12246015Y-14501293D02*
X12236491Y-14539388D01*
X12236491Y-14539388D02*
X12226967Y-14558436D01*
X12226967Y-14558436D02*
X12217444Y-14567960D01*
X12217444Y-14567960D02*
X12198396Y-14577484D01*
X12198396Y-14577484D02*
X12179348Y-14577484D01*
X12179348Y-14577484D02*
X12160301Y-14567960D01*
X12160301Y-14567960D02*
X12150777Y-14558436D01*
X12150777Y-14558436D02*
X12141253Y-14539388D01*
X12141253Y-14539388D02*
X12131729Y-14501293D01*
X12131729Y-14501293D02*
X12131729Y-14453674D01*
X12131729Y-14453674D02*
X12141253Y-14415579D01*
X12141253Y-14415579D02*
X12150777Y-14396531D01*
X12150777Y-14396531D02*
X12160301Y-14387008D01*
X12160301Y-14387008D02*
X12179348Y-14377484D01*
X12322206Y-14396531D02*
X12331729Y-14387008D01*
X12331729Y-14387008D02*
X12350777Y-14377484D01*
X12350777Y-14377484D02*
X12398396Y-14377484D01*
X12398396Y-14377484D02*
X12417444Y-14387008D01*
X12417444Y-14387008D02*
X12426967Y-14396531D01*
X12426967Y-14396531D02*
X12436491Y-14415579D01*
X12436491Y-14415579D02*
X12436491Y-14434627D01*
X12436491Y-14434627D02*
X12426967Y-14463198D01*
X12426967Y-14463198D02*
X12312682Y-14577484D01*
X12312682Y-14577484D02*
X12436491Y-14577484D01*
X12503158Y-14377484D02*
X12636491Y-14377484D01*
X12636491Y-14377484D02*
X12550777Y-14577484D01*
X12798396Y-14377484D02*
X12760301Y-14377484D01*
X12760301Y-14377484D02*
X12741253Y-14387008D01*
X12741253Y-14387008D02*
X12731729Y-14396531D01*
X12731729Y-14396531D02*
X12712682Y-14425103D01*
X12712682Y-14425103D02*
X12703158Y-14463198D01*
X12703158Y-14463198D02*
X12703158Y-14539388D01*
X12703158Y-14539388D02*
X12712682Y-14558436D01*
X12712682Y-14558436D02*
X12722206Y-14567960D01*
X12722206Y-14567960D02*
X12741253Y-14577484D01*
X12741253Y-14577484D02*
X12779348Y-14577484D01*
X12779348Y-14577484D02*
X12798396Y-14567960D01*
X12798396Y-14567960D02*
X12807920Y-14558436D01*
X12807920Y-14558436D02*
X12817444Y-14539388D01*
X12817444Y-14539388D02*
X12817444Y-14491769D01*
X12817444Y-14491769D02*
X12807920Y-14472722D01*
X12807920Y-14472722D02*
X12798396Y-14463198D01*
X12798396Y-14463198D02*
X12779348Y-14453674D01*
X12779348Y-14453674D02*
X12741253Y-14453674D01*
X12741253Y-14453674D02*
X12722206Y-14463198D01*
X12722206Y-14463198D02*
X12712682Y-14472722D01*
X12712682Y-14472722D02*
X12703158Y-14491769D01*
X12893634Y-14377484D02*
X12893634Y-14415579D01*
X12969825Y-14377484D02*
X12969825Y-14415579D01*
X13265063Y-14653674D02*
X13255539Y-14644150D01*
X13255539Y-14644150D02*
X13236491Y-14615579D01*
X13236491Y-14615579D02*
X13226968Y-14596531D01*
X13226968Y-14596531D02*
X13217444Y-14567960D01*
X13217444Y-14567960D02*
X13207920Y-14520341D01*
X13207920Y-14520341D02*
X13207920Y-14482246D01*
X13207920Y-14482246D02*
X13217444Y-14434627D01*
X13217444Y-14434627D02*
X13226968Y-14406055D01*
X13226968Y-14406055D02*
X13236491Y-14387008D01*
X13236491Y-14387008D02*
X13255539Y-14358436D01*
X13255539Y-14358436D02*
X13265063Y-14348912D01*
X13379348Y-14377484D02*
X13398396Y-14377484D01*
X13398396Y-14377484D02*
X13417444Y-14387008D01*
X13417444Y-14387008D02*
X13426968Y-14396531D01*
X13426968Y-14396531D02*
X13436491Y-14415579D01*
X13436491Y-14415579D02*
X13446015Y-14453674D01*
X13446015Y-14453674D02*
X13446015Y-14501293D01*
X13446015Y-14501293D02*
X13436491Y-14539388D01*
X13436491Y-14539388D02*
X13426968Y-14558436D01*
X13426968Y-14558436D02*
X13417444Y-14567960D01*
X13417444Y-14567960D02*
X13398396Y-14577484D01*
X13398396Y-14577484D02*
X13379348Y-14577484D01*
X13379348Y-14577484D02*
X13360301Y-14567960D01*
X13360301Y-14567960D02*
X13350777Y-14558436D01*
X13350777Y-14558436D02*
X13341253Y-14539388D01*
X13341253Y-14539388D02*
X13331729Y-14501293D01*
X13331729Y-14501293D02*
X13331729Y-14453674D01*
X13331729Y-14453674D02*
X13341253Y-14415579D01*
X13341253Y-14415579D02*
X13350777Y-14396531D01*
X13350777Y-14396531D02*
X13360301Y-14387008D01*
X13360301Y-14387008D02*
X13379348Y-14377484D01*
X13684110Y-14577484D02*
X13684110Y-14377484D01*
X13769825Y-14577484D02*
X13769825Y-14472722D01*
X13769825Y-14472722D02*
X13760301Y-14453674D01*
X13760301Y-14453674D02*
X13741253Y-14444150D01*
X13741253Y-14444150D02*
X13712682Y-14444150D01*
X13712682Y-14444150D02*
X13693634Y-14453674D01*
X13693634Y-14453674D02*
X13684110Y-14463198D01*
X13893634Y-14577484D02*
X13874587Y-14567960D01*
X13874587Y-14567960D02*
X13865063Y-14558436D01*
X13865063Y-14558436D02*
X13855539Y-14539388D01*
X13855539Y-14539388D02*
X13855539Y-14482246D01*
X13855539Y-14482246D02*
X13865063Y-14463198D01*
X13865063Y-14463198D02*
X13874587Y-14453674D01*
X13874587Y-14453674D02*
X13893634Y-14444150D01*
X13893634Y-14444150D02*
X13922206Y-14444150D01*
X13922206Y-14444150D02*
X13941253Y-14453674D01*
X13941253Y-14453674D02*
X13950777Y-14463198D01*
X13950777Y-14463198D02*
X13960301Y-14482246D01*
X13960301Y-14482246D02*
X13960301Y-14539388D01*
X13960301Y-14539388D02*
X13950777Y-14558436D01*
X13950777Y-14558436D02*
X13941253Y-14567960D01*
X13941253Y-14567960D02*
X13922206Y-14577484D01*
X13922206Y-14577484D02*
X13893634Y-14577484D01*
X14074587Y-14577484D02*
X14055539Y-14567960D01*
X14055539Y-14567960D02*
X14046015Y-14548912D01*
X14046015Y-14548912D02*
X14046015Y-14377484D01*
X14226968Y-14567960D02*
X14207920Y-14577484D01*
X14207920Y-14577484D02*
X14169825Y-14577484D01*
X14169825Y-14577484D02*
X14150777Y-14567960D01*
X14150777Y-14567960D02*
X14141253Y-14548912D01*
X14141253Y-14548912D02*
X14141253Y-14472722D01*
X14141253Y-14472722D02*
X14150777Y-14453674D01*
X14150777Y-14453674D02*
X14169825Y-14444150D01*
X14169825Y-14444150D02*
X14207920Y-14444150D01*
X14207920Y-14444150D02*
X14226968Y-14453674D01*
X14226968Y-14453674D02*
X14236491Y-14472722D01*
X14236491Y-14472722D02*
X14236491Y-14491769D01*
X14236491Y-14491769D02*
X14141253Y-14510817D01*
X14312682Y-14567960D02*
X14331730Y-14577484D01*
X14331730Y-14577484D02*
X14369825Y-14577484D01*
X14369825Y-14577484D02*
X14388872Y-14567960D01*
X14388872Y-14567960D02*
X14398396Y-14548912D01*
X14398396Y-14548912D02*
X14398396Y-14539388D01*
X14398396Y-14539388D02*
X14388872Y-14520341D01*
X14388872Y-14520341D02*
X14369825Y-14510817D01*
X14369825Y-14510817D02*
X14341253Y-14510817D01*
X14341253Y-14510817D02*
X14322206Y-14501293D01*
X14322206Y-14501293D02*
X14312682Y-14482246D01*
X14312682Y-14482246D02*
X14312682Y-14472722D01*
X14312682Y-14472722D02*
X14322206Y-14453674D01*
X14322206Y-14453674D02*
X14341253Y-14444150D01*
X14341253Y-14444150D02*
X14369825Y-14444150D01*
X14369825Y-14444150D02*
X14388872Y-14453674D01*
X14636492Y-14501293D02*
X14788873Y-14501293D01*
X14712682Y-14577484D02*
X14712682Y-14425103D01*
X15122206Y-14444150D02*
X15122206Y-14577484D01*
X15074587Y-14367960D02*
X15026968Y-14510817D01*
X15026968Y-14510817D02*
X15150777Y-14510817D01*
X15369825Y-14567960D02*
X15388873Y-14577484D01*
X15388873Y-14577484D02*
X15426968Y-14577484D01*
X15426968Y-14577484D02*
X15446015Y-14567960D01*
X15446015Y-14567960D02*
X15455539Y-14548912D01*
X15455539Y-14548912D02*
X15455539Y-14539388D01*
X15455539Y-14539388D02*
X15446015Y-14520341D01*
X15446015Y-14520341D02*
X15426968Y-14510817D01*
X15426968Y-14510817D02*
X15398396Y-14510817D01*
X15398396Y-14510817D02*
X15379349Y-14501293D01*
X15379349Y-14501293D02*
X15369825Y-14482246D01*
X15369825Y-14482246D02*
X15369825Y-14472722D01*
X15369825Y-14472722D02*
X15379349Y-14453674D01*
X15379349Y-14453674D02*
X15398396Y-14444150D01*
X15398396Y-14444150D02*
X15426968Y-14444150D01*
X15426968Y-14444150D02*
X15446015Y-14453674D01*
X15569825Y-14577484D02*
X15550777Y-14567960D01*
X15550777Y-14567960D02*
X15541254Y-14548912D01*
X15541254Y-14548912D02*
X15541254Y-14377484D01*
X15674587Y-14577484D02*
X15655539Y-14567960D01*
X15655539Y-14567960D02*
X15646015Y-14558436D01*
X15646015Y-14558436D02*
X15636492Y-14539388D01*
X15636492Y-14539388D02*
X15636492Y-14482246D01*
X15636492Y-14482246D02*
X15646015Y-14463198D01*
X15646015Y-14463198D02*
X15655539Y-14453674D01*
X15655539Y-14453674D02*
X15674587Y-14444150D01*
X15674587Y-14444150D02*
X15703158Y-14444150D01*
X15703158Y-14444150D02*
X15722206Y-14453674D01*
X15722206Y-14453674D02*
X15731730Y-14463198D01*
X15731730Y-14463198D02*
X15741254Y-14482246D01*
X15741254Y-14482246D02*
X15741254Y-14539388D01*
X15741254Y-14539388D02*
X15731730Y-14558436D01*
X15731730Y-14558436D02*
X15722206Y-14567960D01*
X15722206Y-14567960D02*
X15703158Y-14577484D01*
X15703158Y-14577484D02*
X15674587Y-14577484D01*
X15798396Y-14444150D02*
X15874587Y-14444150D01*
X15826968Y-14377484D02*
X15826968Y-14548912D01*
X15826968Y-14548912D02*
X15836492Y-14567960D01*
X15836492Y-14567960D02*
X15855539Y-14577484D01*
X15855539Y-14577484D02*
X15874587Y-14577484D01*
X15931730Y-14567960D02*
X15950777Y-14577484D01*
X15950777Y-14577484D02*
X15988873Y-14577484D01*
X15988873Y-14577484D02*
X16007920Y-14567960D01*
X16007920Y-14567960D02*
X16017444Y-14548912D01*
X16017444Y-14548912D02*
X16017444Y-14539388D01*
X16017444Y-14539388D02*
X16007920Y-14520341D01*
X16007920Y-14520341D02*
X15988873Y-14510817D01*
X15988873Y-14510817D02*
X15960301Y-14510817D01*
X15960301Y-14510817D02*
X15941254Y-14501293D01*
X15941254Y-14501293D02*
X15931730Y-14482246D01*
X15931730Y-14482246D02*
X15931730Y-14472722D01*
X15931730Y-14472722D02*
X15941254Y-14453674D01*
X15941254Y-14453674D02*
X15960301Y-14444150D01*
X15960301Y-14444150D02*
X15988873Y-14444150D01*
X15988873Y-14444150D02*
X16007920Y-14453674D01*
X16084111Y-14653674D02*
X16093635Y-14644150D01*
X16093635Y-14644150D02*
X16112682Y-14615579D01*
X16112682Y-14615579D02*
X16122206Y-14596531D01*
X16122206Y-14596531D02*
X16131730Y-14567960D01*
X16131730Y-14567960D02*
X16141254Y-14520341D01*
X16141254Y-14520341D02*
X16141254Y-14482246D01*
X16141254Y-14482246D02*
X16131730Y-14434627D01*
X16131730Y-14434627D02*
X16122206Y-14406055D01*
X16122206Y-14406055D02*
X16112682Y-14387008D01*
X16112682Y-14387008D02*
X16093635Y-14358436D01*
X16093635Y-14358436D02*
X16084111Y-14348912D01*
D11*
X9650000Y-14710000D02*
X9650000Y-14790000D01*
X9610000Y-14750000D02*
X9690000Y-14750000D01*
D10*
X9988872Y-14641484D02*
X10007920Y-14641484D01*
X10007920Y-14641484D02*
X10026967Y-14651008D01*
X10026967Y-14651008D02*
X10036491Y-14660531D01*
X10036491Y-14660531D02*
X10046015Y-14679579D01*
X10046015Y-14679579D02*
X10055539Y-14717674D01*
X10055539Y-14717674D02*
X10055539Y-14765293D01*
X10055539Y-14765293D02*
X10046015Y-14803388D01*
X10046015Y-14803388D02*
X10036491Y-14822436D01*
X10036491Y-14822436D02*
X10026967Y-14831960D01*
X10026967Y-14831960D02*
X10007920Y-14841484D01*
X10007920Y-14841484D02*
X9988872Y-14841484D01*
X9988872Y-14841484D02*
X9969824Y-14831960D01*
X9969824Y-14831960D02*
X9960301Y-14822436D01*
X9960301Y-14822436D02*
X9950777Y-14803388D01*
X9950777Y-14803388D02*
X9941253Y-14765293D01*
X9941253Y-14765293D02*
X9941253Y-14717674D01*
X9941253Y-14717674D02*
X9950777Y-14679579D01*
X9950777Y-14679579D02*
X9960301Y-14660531D01*
X9960301Y-14660531D02*
X9969824Y-14651008D01*
X9969824Y-14651008D02*
X9988872Y-14641484D01*
X10141253Y-14822436D02*
X10150777Y-14831960D01*
X10150777Y-14831960D02*
X10141253Y-14841484D01*
X10141253Y-14841484D02*
X10131729Y-14831960D01*
X10131729Y-14831960D02*
X10141253Y-14822436D01*
X10141253Y-14822436D02*
X10141253Y-14841484D01*
X10265063Y-14727198D02*
X10246015Y-14717674D01*
X10246015Y-14717674D02*
X10236491Y-14708150D01*
X10236491Y-14708150D02*
X10226967Y-14689103D01*
X10226967Y-14689103D02*
X10226967Y-14679579D01*
X10226967Y-14679579D02*
X10236491Y-14660531D01*
X10236491Y-14660531D02*
X10246015Y-14651008D01*
X10246015Y-14651008D02*
X10265063Y-14641484D01*
X10265063Y-14641484D02*
X10303158Y-14641484D01*
X10303158Y-14641484D02*
X10322205Y-14651008D01*
X10322205Y-14651008D02*
X10331729Y-14660531D01*
X10331729Y-14660531D02*
X10341253Y-14679579D01*
X10341253Y-14679579D02*
X10341253Y-14689103D01*
X10341253Y-14689103D02*
X10331729Y-14708150D01*
X10331729Y-14708150D02*
X10322205Y-14717674D01*
X10322205Y-14717674D02*
X10303158Y-14727198D01*
X10303158Y-14727198D02*
X10265063Y-14727198D01*
X10265063Y-14727198D02*
X10246015Y-14736722D01*
X10246015Y-14736722D02*
X10236491Y-14746246D01*
X10236491Y-14746246D02*
X10226967Y-14765293D01*
X10226967Y-14765293D02*
X10226967Y-14803388D01*
X10226967Y-14803388D02*
X10236491Y-14822436D01*
X10236491Y-14822436D02*
X10246015Y-14831960D01*
X10246015Y-14831960D02*
X10265063Y-14841484D01*
X10265063Y-14841484D02*
X10303158Y-14841484D01*
X10303158Y-14841484D02*
X10322205Y-14831960D01*
X10322205Y-14831960D02*
X10331729Y-14822436D01*
X10331729Y-14822436D02*
X10341253Y-14803388D01*
X10341253Y-14803388D02*
X10341253Y-14765293D01*
X10341253Y-14765293D02*
X10331729Y-14746246D01*
X10331729Y-14746246D02*
X10322205Y-14736722D01*
X10322205Y-14736722D02*
X10303158Y-14727198D01*
X10465063Y-14641484D02*
X10484110Y-14641484D01*
X10484110Y-14641484D02*
X10503158Y-14651008D01*
X10503158Y-14651008D02*
X10512682Y-14660531D01*
X10512682Y-14660531D02*
X10522205Y-14679579D01*
X10522205Y-14679579D02*
X10531729Y-14717674D01*
X10531729Y-14717674D02*
X10531729Y-14765293D01*
X10531729Y-14765293D02*
X10522205Y-14803388D01*
X10522205Y-14803388D02*
X10512682Y-14822436D01*
X10512682Y-14822436D02*
X10503158Y-14831960D01*
X10503158Y-14831960D02*
X10484110Y-14841484D01*
X10484110Y-14841484D02*
X10465063Y-14841484D01*
X10465063Y-14841484D02*
X10446015Y-14831960D01*
X10446015Y-14831960D02*
X10436491Y-14822436D01*
X10436491Y-14822436D02*
X10426967Y-14803388D01*
X10426967Y-14803388D02*
X10417444Y-14765293D01*
X10417444Y-14765293D02*
X10417444Y-14717674D01*
X10417444Y-14717674D02*
X10426967Y-14679579D01*
X10426967Y-14679579D02*
X10436491Y-14660531D01*
X10436491Y-14660531D02*
X10446015Y-14651008D01*
X10446015Y-14651008D02*
X10465063Y-14641484D01*
X10655539Y-14641484D02*
X10674586Y-14641484D01*
X10674586Y-14641484D02*
X10693634Y-14651008D01*
X10693634Y-14651008D02*
X10703158Y-14660531D01*
X10703158Y-14660531D02*
X10712682Y-14679579D01*
X10712682Y-14679579D02*
X10722205Y-14717674D01*
X10722205Y-14717674D02*
X10722205Y-14765293D01*
X10722205Y-14765293D02*
X10712682Y-14803388D01*
X10712682Y-14803388D02*
X10703158Y-14822436D01*
X10703158Y-14822436D02*
X10693634Y-14831960D01*
X10693634Y-14831960D02*
X10674586Y-14841484D01*
X10674586Y-14841484D02*
X10655539Y-14841484D01*
X10655539Y-14841484D02*
X10636491Y-14831960D01*
X10636491Y-14831960D02*
X10626967Y-14822436D01*
X10626967Y-14822436D02*
X10617444Y-14803388D01*
X10617444Y-14803388D02*
X10607920Y-14765293D01*
X10607920Y-14765293D02*
X10607920Y-14717674D01*
X10607920Y-14717674D02*
X10617444Y-14679579D01*
X10617444Y-14679579D02*
X10626967Y-14660531D01*
X10626967Y-14660531D02*
X10636491Y-14651008D01*
X10636491Y-14651008D02*
X10655539Y-14641484D01*
X10807920Y-14841484D02*
X10807920Y-14708150D01*
X10807920Y-14727198D02*
X10817444Y-14717674D01*
X10817444Y-14717674D02*
X10836491Y-14708150D01*
X10836491Y-14708150D02*
X10865063Y-14708150D01*
X10865063Y-14708150D02*
X10884110Y-14717674D01*
X10884110Y-14717674D02*
X10893634Y-14736722D01*
X10893634Y-14736722D02*
X10893634Y-14841484D01*
X10893634Y-14736722D02*
X10903158Y-14717674D01*
X10903158Y-14717674D02*
X10922205Y-14708150D01*
X10922205Y-14708150D02*
X10950777Y-14708150D01*
X10950777Y-14708150D02*
X10969825Y-14717674D01*
X10969825Y-14717674D02*
X10979348Y-14736722D01*
X10979348Y-14736722D02*
X10979348Y-14841484D01*
X11074586Y-14841484D02*
X11074586Y-14708150D01*
X11074586Y-14727198D02*
X11084110Y-14717674D01*
X11084110Y-14717674D02*
X11103158Y-14708150D01*
X11103158Y-14708150D02*
X11131729Y-14708150D01*
X11131729Y-14708150D02*
X11150777Y-14717674D01*
X11150777Y-14717674D02*
X11160301Y-14736722D01*
X11160301Y-14736722D02*
X11160301Y-14841484D01*
X11160301Y-14736722D02*
X11169825Y-14717674D01*
X11169825Y-14717674D02*
X11188872Y-14708150D01*
X11188872Y-14708150D02*
X11217443Y-14708150D01*
X11217443Y-14708150D02*
X11236491Y-14717674D01*
X11236491Y-14717674D02*
X11246015Y-14736722D01*
X11246015Y-14736722D02*
X11246015Y-14841484D01*
X11636491Y-14631960D02*
X11465063Y-14889103D01*
X11893634Y-14641484D02*
X11912682Y-14641484D01*
X11912682Y-14641484D02*
X11931729Y-14651008D01*
X11931729Y-14651008D02*
X11941253Y-14660531D01*
X11941253Y-14660531D02*
X11950777Y-14679579D01*
X11950777Y-14679579D02*
X11960301Y-14717674D01*
X11960301Y-14717674D02*
X11960301Y-14765293D01*
X11960301Y-14765293D02*
X11950777Y-14803388D01*
X11950777Y-14803388D02*
X11941253Y-14822436D01*
X11941253Y-14822436D02*
X11931729Y-14831960D01*
X11931729Y-14831960D02*
X11912682Y-14841484D01*
X11912682Y-14841484D02*
X11893634Y-14841484D01*
X11893634Y-14841484D02*
X11874586Y-14831960D01*
X11874586Y-14831960D02*
X11865063Y-14822436D01*
X11865063Y-14822436D02*
X11855539Y-14803388D01*
X11855539Y-14803388D02*
X11846015Y-14765293D01*
X11846015Y-14765293D02*
X11846015Y-14717674D01*
X11846015Y-14717674D02*
X11855539Y-14679579D01*
X11855539Y-14679579D02*
X11865063Y-14660531D01*
X11865063Y-14660531D02*
X11874586Y-14651008D01*
X11874586Y-14651008D02*
X11893634Y-14641484D01*
X12046015Y-14822436D02*
X12055539Y-14831960D01*
X12055539Y-14831960D02*
X12046015Y-14841484D01*
X12046015Y-14841484D02*
X12036491Y-14831960D01*
X12036491Y-14831960D02*
X12046015Y-14822436D01*
X12046015Y-14822436D02*
X12046015Y-14841484D01*
X12179348Y-14641484D02*
X12198396Y-14641484D01*
X12198396Y-14641484D02*
X12217444Y-14651008D01*
X12217444Y-14651008D02*
X12226967Y-14660531D01*
X12226967Y-14660531D02*
X12236491Y-14679579D01*
X12236491Y-14679579D02*
X12246015Y-14717674D01*
X12246015Y-14717674D02*
X12246015Y-14765293D01*
X12246015Y-14765293D02*
X12236491Y-14803388D01*
X12236491Y-14803388D02*
X12226967Y-14822436D01*
X12226967Y-14822436D02*
X12217444Y-14831960D01*
X12217444Y-14831960D02*
X12198396Y-14841484D01*
X12198396Y-14841484D02*
X12179348Y-14841484D01*
X12179348Y-14841484D02*
X12160301Y-14831960D01*
X12160301Y-14831960D02*
X12150777Y-14822436D01*
X12150777Y-14822436D02*
X12141253Y-14803388D01*
X12141253Y-14803388D02*
X12131729Y-14765293D01*
X12131729Y-14765293D02*
X12131729Y-14717674D01*
X12131729Y-14717674D02*
X12141253Y-14679579D01*
X12141253Y-14679579D02*
X12150777Y-14660531D01*
X12150777Y-14660531D02*
X12160301Y-14651008D01*
X12160301Y-14651008D02*
X12179348Y-14641484D01*
X12312682Y-14641484D02*
X12436491Y-14641484D01*
X12436491Y-14641484D02*
X12369825Y-14717674D01*
X12369825Y-14717674D02*
X12398396Y-14717674D01*
X12398396Y-14717674D02*
X12417444Y-14727198D01*
X12417444Y-14727198D02*
X12426967Y-14736722D01*
X12426967Y-14736722D02*
X12436491Y-14755769D01*
X12436491Y-14755769D02*
X12436491Y-14803388D01*
X12436491Y-14803388D02*
X12426967Y-14822436D01*
X12426967Y-14822436D02*
X12417444Y-14831960D01*
X12417444Y-14831960D02*
X12398396Y-14841484D01*
X12398396Y-14841484D02*
X12341253Y-14841484D01*
X12341253Y-14841484D02*
X12322206Y-14831960D01*
X12322206Y-14831960D02*
X12312682Y-14822436D01*
X12626967Y-14841484D02*
X12512682Y-14841484D01*
X12569825Y-14841484D02*
X12569825Y-14641484D01*
X12569825Y-14641484D02*
X12550777Y-14670055D01*
X12550777Y-14670055D02*
X12531729Y-14689103D01*
X12531729Y-14689103D02*
X12512682Y-14698627D01*
X12807920Y-14641484D02*
X12712682Y-14641484D01*
X12712682Y-14641484D02*
X12703158Y-14736722D01*
X12703158Y-14736722D02*
X12712682Y-14727198D01*
X12712682Y-14727198D02*
X12731729Y-14717674D01*
X12731729Y-14717674D02*
X12779348Y-14717674D01*
X12779348Y-14717674D02*
X12798396Y-14727198D01*
X12798396Y-14727198D02*
X12807920Y-14736722D01*
X12807920Y-14736722D02*
X12817444Y-14755769D01*
X12817444Y-14755769D02*
X12817444Y-14803388D01*
X12817444Y-14803388D02*
X12807920Y-14822436D01*
X12807920Y-14822436D02*
X12798396Y-14831960D01*
X12798396Y-14831960D02*
X12779348Y-14841484D01*
X12779348Y-14841484D02*
X12731729Y-14841484D01*
X12731729Y-14841484D02*
X12712682Y-14831960D01*
X12712682Y-14831960D02*
X12703158Y-14822436D01*
X12893634Y-14641484D02*
X12893634Y-14679579D01*
X12969825Y-14641484D02*
X12969825Y-14679579D01*
X13265063Y-14917674D02*
X13255539Y-14908150D01*
X13255539Y-14908150D02*
X13236491Y-14879579D01*
X13236491Y-14879579D02*
X13226968Y-14860531D01*
X13226968Y-14860531D02*
X13217444Y-14831960D01*
X13217444Y-14831960D02*
X13207920Y-14784341D01*
X13207920Y-14784341D02*
X13207920Y-14746246D01*
X13207920Y-14746246D02*
X13217444Y-14698627D01*
X13217444Y-14698627D02*
X13226968Y-14670055D01*
X13226968Y-14670055D02*
X13236491Y-14651008D01*
X13236491Y-14651008D02*
X13255539Y-14622436D01*
X13255539Y-14622436D02*
X13265063Y-14612912D01*
X13322206Y-14641484D02*
X13455539Y-14641484D01*
X13455539Y-14641484D02*
X13369825Y-14841484D01*
X13684110Y-14841484D02*
X13684110Y-14641484D01*
X13769825Y-14841484D02*
X13769825Y-14736722D01*
X13769825Y-14736722D02*
X13760301Y-14717674D01*
X13760301Y-14717674D02*
X13741253Y-14708150D01*
X13741253Y-14708150D02*
X13712682Y-14708150D01*
X13712682Y-14708150D02*
X13693634Y-14717674D01*
X13693634Y-14717674D02*
X13684110Y-14727198D01*
X13893634Y-14841484D02*
X13874587Y-14831960D01*
X13874587Y-14831960D02*
X13865063Y-14822436D01*
X13865063Y-14822436D02*
X13855539Y-14803388D01*
X13855539Y-14803388D02*
X13855539Y-14746246D01*
X13855539Y-14746246D02*
X13865063Y-14727198D01*
X13865063Y-14727198D02*
X13874587Y-14717674D01*
X13874587Y-14717674D02*
X13893634Y-14708150D01*
X13893634Y-14708150D02*
X13922206Y-14708150D01*
X13922206Y-14708150D02*
X13941253Y-14717674D01*
X13941253Y-14717674D02*
X13950777Y-14727198D01*
X13950777Y-14727198D02*
X13960301Y-14746246D01*
X13960301Y-14746246D02*
X13960301Y-14803388D01*
X13960301Y-14803388D02*
X13950777Y-14822436D01*
X13950777Y-14822436D02*
X13941253Y-14831960D01*
X13941253Y-14831960D02*
X13922206Y-14841484D01*
X13922206Y-14841484D02*
X13893634Y-14841484D01*
X14074587Y-14841484D02*
X14055539Y-14831960D01*
X14055539Y-14831960D02*
X14046015Y-14812912D01*
X14046015Y-14812912D02*
X14046015Y-14641484D01*
X14226968Y-14831960D02*
X14207920Y-14841484D01*
X14207920Y-14841484D02*
X14169825Y-14841484D01*
X14169825Y-14841484D02*
X14150777Y-14831960D01*
X14150777Y-14831960D02*
X14141253Y-14812912D01*
X14141253Y-14812912D02*
X14141253Y-14736722D01*
X14141253Y-14736722D02*
X14150777Y-14717674D01*
X14150777Y-14717674D02*
X14169825Y-14708150D01*
X14169825Y-14708150D02*
X14207920Y-14708150D01*
X14207920Y-14708150D02*
X14226968Y-14717674D01*
X14226968Y-14717674D02*
X14236491Y-14736722D01*
X14236491Y-14736722D02*
X14236491Y-14755769D01*
X14236491Y-14755769D02*
X14141253Y-14774817D01*
X14312682Y-14831960D02*
X14331730Y-14841484D01*
X14331730Y-14841484D02*
X14369825Y-14841484D01*
X14369825Y-14841484D02*
X14388872Y-14831960D01*
X14388872Y-14831960D02*
X14398396Y-14812912D01*
X14398396Y-14812912D02*
X14398396Y-14803388D01*
X14398396Y-14803388D02*
X14388872Y-14784341D01*
X14388872Y-14784341D02*
X14369825Y-14774817D01*
X14369825Y-14774817D02*
X14341253Y-14774817D01*
X14341253Y-14774817D02*
X14322206Y-14765293D01*
X14322206Y-14765293D02*
X14312682Y-14746246D01*
X14312682Y-14746246D02*
X14312682Y-14736722D01*
X14312682Y-14736722D02*
X14322206Y-14717674D01*
X14322206Y-14717674D02*
X14341253Y-14708150D01*
X14341253Y-14708150D02*
X14369825Y-14708150D01*
X14369825Y-14708150D02*
X14388872Y-14717674D01*
X14465063Y-14917674D02*
X14474587Y-14908150D01*
X14474587Y-14908150D02*
X14493634Y-14879579D01*
X14493634Y-14879579D02*
X14503158Y-14860531D01*
X14503158Y-14860531D02*
X14512682Y-14831960D01*
X14512682Y-14831960D02*
X14522206Y-14784341D01*
X14522206Y-14784341D02*
X14522206Y-14746246D01*
X14522206Y-14746246D02*
X14512682Y-14698627D01*
X14512682Y-14698627D02*
X14503158Y-14670055D01*
X14503158Y-14670055D02*
X14493634Y-14651008D01*
X14493634Y-14651008D02*
X14474587Y-14622436D01*
X14474587Y-14622436D02*
X14465063Y-14612912D01*
D11*
X9676820Y-15045820D02*
X9676820Y-14982180D01*
X9613180Y-14982180D01*
X9613180Y-15045820D01*
X9676820Y-15045820D01*
D10*
X9988872Y-14905484D02*
X10007920Y-14905484D01*
X10007920Y-14905484D02*
X10026967Y-14915008D01*
X10026967Y-14915008D02*
X10036491Y-14924531D01*
X10036491Y-14924531D02*
X10046015Y-14943579D01*
X10046015Y-14943579D02*
X10055539Y-14981674D01*
X10055539Y-14981674D02*
X10055539Y-15029293D01*
X10055539Y-15029293D02*
X10046015Y-15067388D01*
X10046015Y-15067388D02*
X10036491Y-15086436D01*
X10036491Y-15086436D02*
X10026967Y-15095960D01*
X10026967Y-15095960D02*
X10007920Y-15105484D01*
X10007920Y-15105484D02*
X9988872Y-15105484D01*
X9988872Y-15105484D02*
X9969824Y-15095960D01*
X9969824Y-15095960D02*
X9960301Y-15086436D01*
X9960301Y-15086436D02*
X9950777Y-15067388D01*
X9950777Y-15067388D02*
X9941253Y-15029293D01*
X9941253Y-15029293D02*
X9941253Y-14981674D01*
X9941253Y-14981674D02*
X9950777Y-14943579D01*
X9950777Y-14943579D02*
X9960301Y-14924531D01*
X9960301Y-14924531D02*
X9969824Y-14915008D01*
X9969824Y-14915008D02*
X9988872Y-14905484D01*
X10141253Y-15086436D02*
X10150777Y-15095960D01*
X10150777Y-15095960D02*
X10141253Y-15105484D01*
X10141253Y-15105484D02*
X10131729Y-15095960D01*
X10131729Y-15095960D02*
X10141253Y-15086436D01*
X10141253Y-15086436D02*
X10141253Y-15105484D01*
X10246015Y-15105484D02*
X10284110Y-15105484D01*
X10284110Y-15105484D02*
X10303158Y-15095960D01*
X10303158Y-15095960D02*
X10312682Y-15086436D01*
X10312682Y-15086436D02*
X10331729Y-15057865D01*
X10331729Y-15057865D02*
X10341253Y-15019769D01*
X10341253Y-15019769D02*
X10341253Y-14943579D01*
X10341253Y-14943579D02*
X10331729Y-14924531D01*
X10331729Y-14924531D02*
X10322205Y-14915008D01*
X10322205Y-14915008D02*
X10303158Y-14905484D01*
X10303158Y-14905484D02*
X10265063Y-14905484D01*
X10265063Y-14905484D02*
X10246015Y-14915008D01*
X10246015Y-14915008D02*
X10236491Y-14924531D01*
X10236491Y-14924531D02*
X10226967Y-14943579D01*
X10226967Y-14943579D02*
X10226967Y-14991198D01*
X10226967Y-14991198D02*
X10236491Y-15010246D01*
X10236491Y-15010246D02*
X10246015Y-15019769D01*
X10246015Y-15019769D02*
X10265063Y-15029293D01*
X10265063Y-15029293D02*
X10303158Y-15029293D01*
X10303158Y-15029293D02*
X10322205Y-15019769D01*
X10322205Y-15019769D02*
X10331729Y-15010246D01*
X10331729Y-15010246D02*
X10341253Y-14991198D01*
X10465063Y-14905484D02*
X10484110Y-14905484D01*
X10484110Y-14905484D02*
X10503158Y-14915008D01*
X10503158Y-14915008D02*
X10512682Y-14924531D01*
X10512682Y-14924531D02*
X10522205Y-14943579D01*
X10522205Y-14943579D02*
X10531729Y-14981674D01*
X10531729Y-14981674D02*
X10531729Y-15029293D01*
X10531729Y-15029293D02*
X10522205Y-15067388D01*
X10522205Y-15067388D02*
X10512682Y-15086436D01*
X10512682Y-15086436D02*
X10503158Y-15095960D01*
X10503158Y-15095960D02*
X10484110Y-15105484D01*
X10484110Y-15105484D02*
X10465063Y-15105484D01*
X10465063Y-15105484D02*
X10446015Y-15095960D01*
X10446015Y-15095960D02*
X10436491Y-15086436D01*
X10436491Y-15086436D02*
X10426967Y-15067388D01*
X10426967Y-15067388D02*
X10417444Y-15029293D01*
X10417444Y-15029293D02*
X10417444Y-14981674D01*
X10417444Y-14981674D02*
X10426967Y-14943579D01*
X10426967Y-14943579D02*
X10436491Y-14924531D01*
X10436491Y-14924531D02*
X10446015Y-14915008D01*
X10446015Y-14915008D02*
X10465063Y-14905484D01*
X10655539Y-14905484D02*
X10674586Y-14905484D01*
X10674586Y-14905484D02*
X10693634Y-14915008D01*
X10693634Y-14915008D02*
X10703158Y-14924531D01*
X10703158Y-14924531D02*
X10712682Y-14943579D01*
X10712682Y-14943579D02*
X10722205Y-14981674D01*
X10722205Y-14981674D02*
X10722205Y-15029293D01*
X10722205Y-15029293D02*
X10712682Y-15067388D01*
X10712682Y-15067388D02*
X10703158Y-15086436D01*
X10703158Y-15086436D02*
X10693634Y-15095960D01*
X10693634Y-15095960D02*
X10674586Y-15105484D01*
X10674586Y-15105484D02*
X10655539Y-15105484D01*
X10655539Y-15105484D02*
X10636491Y-15095960D01*
X10636491Y-15095960D02*
X10626967Y-15086436D01*
X10626967Y-15086436D02*
X10617444Y-15067388D01*
X10617444Y-15067388D02*
X10607920Y-15029293D01*
X10607920Y-15029293D02*
X10607920Y-14981674D01*
X10607920Y-14981674D02*
X10617444Y-14943579D01*
X10617444Y-14943579D02*
X10626967Y-14924531D01*
X10626967Y-14924531D02*
X10636491Y-14915008D01*
X10636491Y-14915008D02*
X10655539Y-14905484D01*
X10807920Y-15105484D02*
X10807920Y-14972150D01*
X10807920Y-14991198D02*
X10817444Y-14981674D01*
X10817444Y-14981674D02*
X10836491Y-14972150D01*
X10836491Y-14972150D02*
X10865063Y-14972150D01*
X10865063Y-14972150D02*
X10884110Y-14981674D01*
X10884110Y-14981674D02*
X10893634Y-15000722D01*
X10893634Y-15000722D02*
X10893634Y-15105484D01*
X10893634Y-15000722D02*
X10903158Y-14981674D01*
X10903158Y-14981674D02*
X10922205Y-14972150D01*
X10922205Y-14972150D02*
X10950777Y-14972150D01*
X10950777Y-14972150D02*
X10969825Y-14981674D01*
X10969825Y-14981674D02*
X10979348Y-15000722D01*
X10979348Y-15000722D02*
X10979348Y-15105484D01*
X11074586Y-15105484D02*
X11074586Y-14972150D01*
X11074586Y-14991198D02*
X11084110Y-14981674D01*
X11084110Y-14981674D02*
X11103158Y-14972150D01*
X11103158Y-14972150D02*
X11131729Y-14972150D01*
X11131729Y-14972150D02*
X11150777Y-14981674D01*
X11150777Y-14981674D02*
X11160301Y-15000722D01*
X11160301Y-15000722D02*
X11160301Y-15105484D01*
X11160301Y-15000722D02*
X11169825Y-14981674D01*
X11169825Y-14981674D02*
X11188872Y-14972150D01*
X11188872Y-14972150D02*
X11217443Y-14972150D01*
X11217443Y-14972150D02*
X11236491Y-14981674D01*
X11236491Y-14981674D02*
X11246015Y-15000722D01*
X11246015Y-15000722D02*
X11246015Y-15105484D01*
X11636491Y-14895960D02*
X11465063Y-15153103D01*
X11893634Y-14905484D02*
X11912682Y-14905484D01*
X11912682Y-14905484D02*
X11931729Y-14915008D01*
X11931729Y-14915008D02*
X11941253Y-14924531D01*
X11941253Y-14924531D02*
X11950777Y-14943579D01*
X11950777Y-14943579D02*
X11960301Y-14981674D01*
X11960301Y-14981674D02*
X11960301Y-15029293D01*
X11960301Y-15029293D02*
X11950777Y-15067388D01*
X11950777Y-15067388D02*
X11941253Y-15086436D01*
X11941253Y-15086436D02*
X11931729Y-15095960D01*
X11931729Y-15095960D02*
X11912682Y-15105484D01*
X11912682Y-15105484D02*
X11893634Y-15105484D01*
X11893634Y-15105484D02*
X11874586Y-15095960D01*
X11874586Y-15095960D02*
X11865063Y-15086436D01*
X11865063Y-15086436D02*
X11855539Y-15067388D01*
X11855539Y-15067388D02*
X11846015Y-15029293D01*
X11846015Y-15029293D02*
X11846015Y-14981674D01*
X11846015Y-14981674D02*
X11855539Y-14943579D01*
X11855539Y-14943579D02*
X11865063Y-14924531D01*
X11865063Y-14924531D02*
X11874586Y-14915008D01*
X11874586Y-14915008D02*
X11893634Y-14905484D01*
X12046015Y-15086436D02*
X12055539Y-15095960D01*
X12055539Y-15095960D02*
X12046015Y-15105484D01*
X12046015Y-15105484D02*
X12036491Y-15095960D01*
X12036491Y-15095960D02*
X12046015Y-15086436D01*
X12046015Y-15086436D02*
X12046015Y-15105484D01*
X12179348Y-14905484D02*
X12198396Y-14905484D01*
X12198396Y-14905484D02*
X12217444Y-14915008D01*
X12217444Y-14915008D02*
X12226967Y-14924531D01*
X12226967Y-14924531D02*
X12236491Y-14943579D01*
X12236491Y-14943579D02*
X12246015Y-14981674D01*
X12246015Y-14981674D02*
X12246015Y-15029293D01*
X12246015Y-15029293D02*
X12236491Y-15067388D01*
X12236491Y-15067388D02*
X12226967Y-15086436D01*
X12226967Y-15086436D02*
X12217444Y-15095960D01*
X12217444Y-15095960D02*
X12198396Y-15105484D01*
X12198396Y-15105484D02*
X12179348Y-15105484D01*
X12179348Y-15105484D02*
X12160301Y-15095960D01*
X12160301Y-15095960D02*
X12150777Y-15086436D01*
X12150777Y-15086436D02*
X12141253Y-15067388D01*
X12141253Y-15067388D02*
X12131729Y-15029293D01*
X12131729Y-15029293D02*
X12131729Y-14981674D01*
X12131729Y-14981674D02*
X12141253Y-14943579D01*
X12141253Y-14943579D02*
X12150777Y-14924531D01*
X12150777Y-14924531D02*
X12160301Y-14915008D01*
X12160301Y-14915008D02*
X12179348Y-14905484D01*
X12312682Y-14905484D02*
X12436491Y-14905484D01*
X12436491Y-14905484D02*
X12369825Y-14981674D01*
X12369825Y-14981674D02*
X12398396Y-14981674D01*
X12398396Y-14981674D02*
X12417444Y-14991198D01*
X12417444Y-14991198D02*
X12426967Y-15000722D01*
X12426967Y-15000722D02*
X12436491Y-15019769D01*
X12436491Y-15019769D02*
X12436491Y-15067388D01*
X12436491Y-15067388D02*
X12426967Y-15086436D01*
X12426967Y-15086436D02*
X12417444Y-15095960D01*
X12417444Y-15095960D02*
X12398396Y-15105484D01*
X12398396Y-15105484D02*
X12341253Y-15105484D01*
X12341253Y-15105484D02*
X12322206Y-15095960D01*
X12322206Y-15095960D02*
X12312682Y-15086436D01*
X12617444Y-14905484D02*
X12522206Y-14905484D01*
X12522206Y-14905484D02*
X12512682Y-15000722D01*
X12512682Y-15000722D02*
X12522206Y-14991198D01*
X12522206Y-14991198D02*
X12541253Y-14981674D01*
X12541253Y-14981674D02*
X12588872Y-14981674D01*
X12588872Y-14981674D02*
X12607920Y-14991198D01*
X12607920Y-14991198D02*
X12617444Y-15000722D01*
X12617444Y-15000722D02*
X12626967Y-15019769D01*
X12626967Y-15019769D02*
X12626967Y-15067388D01*
X12626967Y-15067388D02*
X12617444Y-15086436D01*
X12617444Y-15086436D02*
X12607920Y-15095960D01*
X12607920Y-15095960D02*
X12588872Y-15105484D01*
X12588872Y-15105484D02*
X12541253Y-15105484D01*
X12541253Y-15105484D02*
X12522206Y-15095960D01*
X12522206Y-15095960D02*
X12512682Y-15086436D01*
X12798396Y-14972150D02*
X12798396Y-15105484D01*
X12750777Y-14895960D02*
X12703158Y-15038817D01*
X12703158Y-15038817D02*
X12826967Y-15038817D01*
X12893634Y-14905484D02*
X12893634Y-14943579D01*
X12969825Y-14905484D02*
X12969825Y-14943579D01*
X13265063Y-15181674D02*
X13255539Y-15172150D01*
X13255539Y-15172150D02*
X13236491Y-15143579D01*
X13236491Y-15143579D02*
X13226968Y-15124531D01*
X13226968Y-15124531D02*
X13217444Y-15095960D01*
X13217444Y-15095960D02*
X13207920Y-15048341D01*
X13207920Y-15048341D02*
X13207920Y-15010246D01*
X13207920Y-15010246D02*
X13217444Y-14962627D01*
X13217444Y-14962627D02*
X13226968Y-14934055D01*
X13226968Y-14934055D02*
X13236491Y-14915008D01*
X13236491Y-14915008D02*
X13255539Y-14886436D01*
X13255539Y-14886436D02*
X13265063Y-14876912D01*
X13426968Y-14972150D02*
X13426968Y-15105484D01*
X13379348Y-14895960D02*
X13331729Y-15038817D01*
X13331729Y-15038817D02*
X13455539Y-15038817D01*
X13626968Y-14905484D02*
X13531729Y-14905484D01*
X13531729Y-14905484D02*
X13522206Y-15000722D01*
X13522206Y-15000722D02*
X13531729Y-14991198D01*
X13531729Y-14991198D02*
X13550777Y-14981674D01*
X13550777Y-14981674D02*
X13598396Y-14981674D01*
X13598396Y-14981674D02*
X13617444Y-14991198D01*
X13617444Y-14991198D02*
X13626968Y-15000722D01*
X13626968Y-15000722D02*
X13636491Y-15019769D01*
X13636491Y-15019769D02*
X13636491Y-15067388D01*
X13636491Y-15067388D02*
X13626968Y-15086436D01*
X13626968Y-15086436D02*
X13617444Y-15095960D01*
X13617444Y-15095960D02*
X13598396Y-15105484D01*
X13598396Y-15105484D02*
X13550777Y-15105484D01*
X13550777Y-15105484D02*
X13531729Y-15095960D01*
X13531729Y-15095960D02*
X13522206Y-15086436D01*
X13874587Y-15105484D02*
X13874587Y-14905484D01*
X13960301Y-15105484D02*
X13960301Y-15000722D01*
X13960301Y-15000722D02*
X13950777Y-14981674D01*
X13950777Y-14981674D02*
X13931730Y-14972150D01*
X13931730Y-14972150D02*
X13903158Y-14972150D01*
X13903158Y-14972150D02*
X13884110Y-14981674D01*
X13884110Y-14981674D02*
X13874587Y-14991198D01*
X14084110Y-15105484D02*
X14065063Y-15095960D01*
X14065063Y-15095960D02*
X14055539Y-15086436D01*
X14055539Y-15086436D02*
X14046015Y-15067388D01*
X14046015Y-15067388D02*
X14046015Y-15010246D01*
X14046015Y-15010246D02*
X14055539Y-14991198D01*
X14055539Y-14991198D02*
X14065063Y-14981674D01*
X14065063Y-14981674D02*
X14084110Y-14972150D01*
X14084110Y-14972150D02*
X14112682Y-14972150D01*
X14112682Y-14972150D02*
X14131730Y-14981674D01*
X14131730Y-14981674D02*
X14141253Y-14991198D01*
X14141253Y-14991198D02*
X14150777Y-15010246D01*
X14150777Y-15010246D02*
X14150777Y-15067388D01*
X14150777Y-15067388D02*
X14141253Y-15086436D01*
X14141253Y-15086436D02*
X14131730Y-15095960D01*
X14131730Y-15095960D02*
X14112682Y-15105484D01*
X14112682Y-15105484D02*
X14084110Y-15105484D01*
X14265063Y-15105484D02*
X14246015Y-15095960D01*
X14246015Y-15095960D02*
X14236491Y-15076912D01*
X14236491Y-15076912D02*
X14236491Y-14905484D01*
X14417444Y-15095960D02*
X14398396Y-15105484D01*
X14398396Y-15105484D02*
X14360301Y-15105484D01*
X14360301Y-15105484D02*
X14341253Y-15095960D01*
X14341253Y-15095960D02*
X14331730Y-15076912D01*
X14331730Y-15076912D02*
X14331730Y-15000722D01*
X14331730Y-15000722D02*
X14341253Y-14981674D01*
X14341253Y-14981674D02*
X14360301Y-14972150D01*
X14360301Y-14972150D02*
X14398396Y-14972150D01*
X14398396Y-14972150D02*
X14417444Y-14981674D01*
X14417444Y-14981674D02*
X14426968Y-15000722D01*
X14426968Y-15000722D02*
X14426968Y-15019769D01*
X14426968Y-15019769D02*
X14331730Y-15038817D01*
X14503158Y-15095960D02*
X14522206Y-15105484D01*
X14522206Y-15105484D02*
X14560301Y-15105484D01*
X14560301Y-15105484D02*
X14579349Y-15095960D01*
X14579349Y-15095960D02*
X14588872Y-15076912D01*
X14588872Y-15076912D02*
X14588872Y-15067388D01*
X14588872Y-15067388D02*
X14579349Y-15048341D01*
X14579349Y-15048341D02*
X14560301Y-15038817D01*
X14560301Y-15038817D02*
X14531730Y-15038817D01*
X14531730Y-15038817D02*
X14512682Y-15029293D01*
X14512682Y-15029293D02*
X14503158Y-15010246D01*
X14503158Y-15010246D02*
X14503158Y-15000722D01*
X14503158Y-15000722D02*
X14512682Y-14981674D01*
X14512682Y-14981674D02*
X14531730Y-14972150D01*
X14531730Y-14972150D02*
X14560301Y-14972150D01*
X14560301Y-14972150D02*
X14579349Y-14981674D01*
X14655539Y-15181674D02*
X14665063Y-15172150D01*
X14665063Y-15172150D02*
X14684111Y-15143579D01*
X14684111Y-15143579D02*
X14693634Y-15124531D01*
X14693634Y-15124531D02*
X14703158Y-15095960D01*
X14703158Y-15095960D02*
X14712682Y-15048341D01*
X14712682Y-15048341D02*
X14712682Y-15010246D01*
X14712682Y-15010246D02*
X14703158Y-14962627D01*
X14703158Y-14962627D02*
X14693634Y-14934055D01*
X14693634Y-14934055D02*
X14684111Y-14915008D01*
X14684111Y-14915008D02*
X14665063Y-14886436D01*
X14665063Y-14886436D02*
X14655539Y-14876912D01*
D11*
X9640000Y-15328000D02*
X9690000Y-15278000D01*
X9640000Y-15228000D01*
X9590000Y-15278000D01*
X9640000Y-15328000D01*
D10*
X10055539Y-15369484D02*
X9941253Y-15369484D01*
X9998396Y-15369484D02*
X9998396Y-15169484D01*
X9998396Y-15169484D02*
X9979348Y-15198055D01*
X9979348Y-15198055D02*
X9960301Y-15217103D01*
X9960301Y-15217103D02*
X9941253Y-15226627D01*
X10141253Y-15350436D02*
X10150777Y-15359960D01*
X10150777Y-15359960D02*
X10141253Y-15369484D01*
X10141253Y-15369484D02*
X10131729Y-15359960D01*
X10131729Y-15359960D02*
X10141253Y-15350436D01*
X10141253Y-15350436D02*
X10141253Y-15369484D01*
X10274586Y-15169484D02*
X10293634Y-15169484D01*
X10293634Y-15169484D02*
X10312682Y-15179008D01*
X10312682Y-15179008D02*
X10322205Y-15188531D01*
X10322205Y-15188531D02*
X10331729Y-15207579D01*
X10331729Y-15207579D02*
X10341253Y-15245674D01*
X10341253Y-15245674D02*
X10341253Y-15293293D01*
X10341253Y-15293293D02*
X10331729Y-15331388D01*
X10331729Y-15331388D02*
X10322205Y-15350436D01*
X10322205Y-15350436D02*
X10312682Y-15359960D01*
X10312682Y-15359960D02*
X10293634Y-15369484D01*
X10293634Y-15369484D02*
X10274586Y-15369484D01*
X10274586Y-15369484D02*
X10255539Y-15359960D01*
X10255539Y-15359960D02*
X10246015Y-15350436D01*
X10246015Y-15350436D02*
X10236491Y-15331388D01*
X10236491Y-15331388D02*
X10226967Y-15293293D01*
X10226967Y-15293293D02*
X10226967Y-15245674D01*
X10226967Y-15245674D02*
X10236491Y-15207579D01*
X10236491Y-15207579D02*
X10246015Y-15188531D01*
X10246015Y-15188531D02*
X10255539Y-15179008D01*
X10255539Y-15179008D02*
X10274586Y-15169484D01*
X10465063Y-15169484D02*
X10484110Y-15169484D01*
X10484110Y-15169484D02*
X10503158Y-15179008D01*
X10503158Y-15179008D02*
X10512682Y-15188531D01*
X10512682Y-15188531D02*
X10522205Y-15207579D01*
X10522205Y-15207579D02*
X10531729Y-15245674D01*
X10531729Y-15245674D02*
X10531729Y-15293293D01*
X10531729Y-15293293D02*
X10522205Y-15331388D01*
X10522205Y-15331388D02*
X10512682Y-15350436D01*
X10512682Y-15350436D02*
X10503158Y-15359960D01*
X10503158Y-15359960D02*
X10484110Y-15369484D01*
X10484110Y-15369484D02*
X10465063Y-15369484D01*
X10465063Y-15369484D02*
X10446015Y-15359960D01*
X10446015Y-15359960D02*
X10436491Y-15350436D01*
X10436491Y-15350436D02*
X10426967Y-15331388D01*
X10426967Y-15331388D02*
X10417444Y-15293293D01*
X10417444Y-15293293D02*
X10417444Y-15245674D01*
X10417444Y-15245674D02*
X10426967Y-15207579D01*
X10426967Y-15207579D02*
X10436491Y-15188531D01*
X10436491Y-15188531D02*
X10446015Y-15179008D01*
X10446015Y-15179008D02*
X10465063Y-15169484D01*
X10655539Y-15169484D02*
X10674586Y-15169484D01*
X10674586Y-15169484D02*
X10693634Y-15179008D01*
X10693634Y-15179008D02*
X10703158Y-15188531D01*
X10703158Y-15188531D02*
X10712682Y-15207579D01*
X10712682Y-15207579D02*
X10722205Y-15245674D01*
X10722205Y-15245674D02*
X10722205Y-15293293D01*
X10722205Y-15293293D02*
X10712682Y-15331388D01*
X10712682Y-15331388D02*
X10703158Y-15350436D01*
X10703158Y-15350436D02*
X10693634Y-15359960D01*
X10693634Y-15359960D02*
X10674586Y-15369484D01*
X10674586Y-15369484D02*
X10655539Y-15369484D01*
X10655539Y-15369484D02*
X10636491Y-15359960D01*
X10636491Y-15359960D02*
X10626967Y-15350436D01*
X10626967Y-15350436D02*
X10617444Y-15331388D01*
X10617444Y-15331388D02*
X10607920Y-15293293D01*
X10607920Y-15293293D02*
X10607920Y-15245674D01*
X10607920Y-15245674D02*
X10617444Y-15207579D01*
X10617444Y-15207579D02*
X10626967Y-15188531D01*
X10626967Y-15188531D02*
X10636491Y-15179008D01*
X10636491Y-15179008D02*
X10655539Y-15169484D01*
X10807920Y-15369484D02*
X10807920Y-15236150D01*
X10807920Y-15255198D02*
X10817444Y-15245674D01*
X10817444Y-15245674D02*
X10836491Y-15236150D01*
X10836491Y-15236150D02*
X10865063Y-15236150D01*
X10865063Y-15236150D02*
X10884110Y-15245674D01*
X10884110Y-15245674D02*
X10893634Y-15264722D01*
X10893634Y-15264722D02*
X10893634Y-15369484D01*
X10893634Y-15264722D02*
X10903158Y-15245674D01*
X10903158Y-15245674D02*
X10922205Y-15236150D01*
X10922205Y-15236150D02*
X10950777Y-15236150D01*
X10950777Y-15236150D02*
X10969825Y-15245674D01*
X10969825Y-15245674D02*
X10979348Y-15264722D01*
X10979348Y-15264722D02*
X10979348Y-15369484D01*
X11074586Y-15369484D02*
X11074586Y-15236150D01*
X11074586Y-15255198D02*
X11084110Y-15245674D01*
X11084110Y-15245674D02*
X11103158Y-15236150D01*
X11103158Y-15236150D02*
X11131729Y-15236150D01*
X11131729Y-15236150D02*
X11150777Y-15245674D01*
X11150777Y-15245674D02*
X11160301Y-15264722D01*
X11160301Y-15264722D02*
X11160301Y-15369484D01*
X11160301Y-15264722D02*
X11169825Y-15245674D01*
X11169825Y-15245674D02*
X11188872Y-15236150D01*
X11188872Y-15236150D02*
X11217443Y-15236150D01*
X11217443Y-15236150D02*
X11236491Y-15245674D01*
X11236491Y-15245674D02*
X11246015Y-15264722D01*
X11246015Y-15264722D02*
X11246015Y-15369484D01*
X11636491Y-15159960D02*
X11465063Y-15417103D01*
X11893634Y-15169484D02*
X11912682Y-15169484D01*
X11912682Y-15169484D02*
X11931729Y-15179008D01*
X11931729Y-15179008D02*
X11941253Y-15188531D01*
X11941253Y-15188531D02*
X11950777Y-15207579D01*
X11950777Y-15207579D02*
X11960301Y-15245674D01*
X11960301Y-15245674D02*
X11960301Y-15293293D01*
X11960301Y-15293293D02*
X11950777Y-15331388D01*
X11950777Y-15331388D02*
X11941253Y-15350436D01*
X11941253Y-15350436D02*
X11931729Y-15359960D01*
X11931729Y-15359960D02*
X11912682Y-15369484D01*
X11912682Y-15369484D02*
X11893634Y-15369484D01*
X11893634Y-15369484D02*
X11874586Y-15359960D01*
X11874586Y-15359960D02*
X11865063Y-15350436D01*
X11865063Y-15350436D02*
X11855539Y-15331388D01*
X11855539Y-15331388D02*
X11846015Y-15293293D01*
X11846015Y-15293293D02*
X11846015Y-15245674D01*
X11846015Y-15245674D02*
X11855539Y-15207579D01*
X11855539Y-15207579D02*
X11865063Y-15188531D01*
X11865063Y-15188531D02*
X11874586Y-15179008D01*
X11874586Y-15179008D02*
X11893634Y-15169484D01*
X12046015Y-15350436D02*
X12055539Y-15359960D01*
X12055539Y-15359960D02*
X12046015Y-15369484D01*
X12046015Y-15369484D02*
X12036491Y-15359960D01*
X12036491Y-15359960D02*
X12046015Y-15350436D01*
X12046015Y-15350436D02*
X12046015Y-15369484D01*
X12179348Y-15169484D02*
X12198396Y-15169484D01*
X12198396Y-15169484D02*
X12217444Y-15179008D01*
X12217444Y-15179008D02*
X12226967Y-15188531D01*
X12226967Y-15188531D02*
X12236491Y-15207579D01*
X12236491Y-15207579D02*
X12246015Y-15245674D01*
X12246015Y-15245674D02*
X12246015Y-15293293D01*
X12246015Y-15293293D02*
X12236491Y-15331388D01*
X12236491Y-15331388D02*
X12226967Y-15350436D01*
X12226967Y-15350436D02*
X12217444Y-15359960D01*
X12217444Y-15359960D02*
X12198396Y-15369484D01*
X12198396Y-15369484D02*
X12179348Y-15369484D01*
X12179348Y-15369484D02*
X12160301Y-15359960D01*
X12160301Y-15359960D02*
X12150777Y-15350436D01*
X12150777Y-15350436D02*
X12141253Y-15331388D01*
X12141253Y-15331388D02*
X12131729Y-15293293D01*
X12131729Y-15293293D02*
X12131729Y-15245674D01*
X12131729Y-15245674D02*
X12141253Y-15207579D01*
X12141253Y-15207579D02*
X12150777Y-15188531D01*
X12150777Y-15188531D02*
X12160301Y-15179008D01*
X12160301Y-15179008D02*
X12179348Y-15169484D01*
X12312682Y-15169484D02*
X12436491Y-15169484D01*
X12436491Y-15169484D02*
X12369825Y-15245674D01*
X12369825Y-15245674D02*
X12398396Y-15245674D01*
X12398396Y-15245674D02*
X12417444Y-15255198D01*
X12417444Y-15255198D02*
X12426967Y-15264722D01*
X12426967Y-15264722D02*
X12436491Y-15283769D01*
X12436491Y-15283769D02*
X12436491Y-15331388D01*
X12436491Y-15331388D02*
X12426967Y-15350436D01*
X12426967Y-15350436D02*
X12417444Y-15359960D01*
X12417444Y-15359960D02*
X12398396Y-15369484D01*
X12398396Y-15369484D02*
X12341253Y-15369484D01*
X12341253Y-15369484D02*
X12322206Y-15359960D01*
X12322206Y-15359960D02*
X12312682Y-15350436D01*
X12531729Y-15369484D02*
X12569825Y-15369484D01*
X12569825Y-15369484D02*
X12588872Y-15359960D01*
X12588872Y-15359960D02*
X12598396Y-15350436D01*
X12598396Y-15350436D02*
X12617444Y-15321865D01*
X12617444Y-15321865D02*
X12626967Y-15283769D01*
X12626967Y-15283769D02*
X12626967Y-15207579D01*
X12626967Y-15207579D02*
X12617444Y-15188531D01*
X12617444Y-15188531D02*
X12607920Y-15179008D01*
X12607920Y-15179008D02*
X12588872Y-15169484D01*
X12588872Y-15169484D02*
X12550777Y-15169484D01*
X12550777Y-15169484D02*
X12531729Y-15179008D01*
X12531729Y-15179008D02*
X12522206Y-15188531D01*
X12522206Y-15188531D02*
X12512682Y-15207579D01*
X12512682Y-15207579D02*
X12512682Y-15255198D01*
X12512682Y-15255198D02*
X12522206Y-15274246D01*
X12522206Y-15274246D02*
X12531729Y-15283769D01*
X12531729Y-15283769D02*
X12550777Y-15293293D01*
X12550777Y-15293293D02*
X12588872Y-15293293D01*
X12588872Y-15293293D02*
X12607920Y-15283769D01*
X12607920Y-15283769D02*
X12617444Y-15274246D01*
X12617444Y-15274246D02*
X12626967Y-15255198D01*
X12798396Y-15236150D02*
X12798396Y-15369484D01*
X12750777Y-15159960D02*
X12703158Y-15302817D01*
X12703158Y-15302817D02*
X12826967Y-15302817D01*
X12893634Y-15169484D02*
X12893634Y-15207579D01*
X12969825Y-15169484D02*
X12969825Y-15207579D01*
X13265063Y-15445674D02*
X13255539Y-15436150D01*
X13255539Y-15436150D02*
X13236491Y-15407579D01*
X13236491Y-15407579D02*
X13226968Y-15388531D01*
X13226968Y-15388531D02*
X13217444Y-15359960D01*
X13217444Y-15359960D02*
X13207920Y-15312341D01*
X13207920Y-15312341D02*
X13207920Y-15274246D01*
X13207920Y-15274246D02*
X13217444Y-15226627D01*
X13217444Y-15226627D02*
X13226968Y-15198055D01*
X13226968Y-15198055D02*
X13236491Y-15179008D01*
X13236491Y-15179008D02*
X13255539Y-15150436D01*
X13255539Y-15150436D02*
X13265063Y-15140912D01*
X13331729Y-15188531D02*
X13341253Y-15179008D01*
X13341253Y-15179008D02*
X13360301Y-15169484D01*
X13360301Y-15169484D02*
X13407920Y-15169484D01*
X13407920Y-15169484D02*
X13426968Y-15179008D01*
X13426968Y-15179008D02*
X13436491Y-15188531D01*
X13436491Y-15188531D02*
X13446015Y-15207579D01*
X13446015Y-15207579D02*
X13446015Y-15226627D01*
X13446015Y-15226627D02*
X13436491Y-15255198D01*
X13436491Y-15255198D02*
X13322206Y-15369484D01*
X13322206Y-15369484D02*
X13446015Y-15369484D01*
X13684110Y-15369484D02*
X13684110Y-15169484D01*
X13769825Y-15369484D02*
X13769825Y-15264722D01*
X13769825Y-15264722D02*
X13760301Y-15245674D01*
X13760301Y-15245674D02*
X13741253Y-15236150D01*
X13741253Y-15236150D02*
X13712682Y-15236150D01*
X13712682Y-15236150D02*
X13693634Y-15245674D01*
X13693634Y-15245674D02*
X13684110Y-15255198D01*
X13893634Y-15369484D02*
X13874587Y-15359960D01*
X13874587Y-15359960D02*
X13865063Y-15350436D01*
X13865063Y-15350436D02*
X13855539Y-15331388D01*
X13855539Y-15331388D02*
X13855539Y-15274246D01*
X13855539Y-15274246D02*
X13865063Y-15255198D01*
X13865063Y-15255198D02*
X13874587Y-15245674D01*
X13874587Y-15245674D02*
X13893634Y-15236150D01*
X13893634Y-15236150D02*
X13922206Y-15236150D01*
X13922206Y-15236150D02*
X13941253Y-15245674D01*
X13941253Y-15245674D02*
X13950777Y-15255198D01*
X13950777Y-15255198D02*
X13960301Y-15274246D01*
X13960301Y-15274246D02*
X13960301Y-15331388D01*
X13960301Y-15331388D02*
X13950777Y-15350436D01*
X13950777Y-15350436D02*
X13941253Y-15359960D01*
X13941253Y-15359960D02*
X13922206Y-15369484D01*
X13922206Y-15369484D02*
X13893634Y-15369484D01*
X14074587Y-15369484D02*
X14055539Y-15359960D01*
X14055539Y-15359960D02*
X14046015Y-15340912D01*
X14046015Y-15340912D02*
X14046015Y-15169484D01*
X14226968Y-15359960D02*
X14207920Y-15369484D01*
X14207920Y-15369484D02*
X14169825Y-15369484D01*
X14169825Y-15369484D02*
X14150777Y-15359960D01*
X14150777Y-15359960D02*
X14141253Y-15340912D01*
X14141253Y-15340912D02*
X14141253Y-15264722D01*
X14141253Y-15264722D02*
X14150777Y-15245674D01*
X14150777Y-15245674D02*
X14169825Y-15236150D01*
X14169825Y-15236150D02*
X14207920Y-15236150D01*
X14207920Y-15236150D02*
X14226968Y-15245674D01*
X14226968Y-15245674D02*
X14236491Y-15264722D01*
X14236491Y-15264722D02*
X14236491Y-15283769D01*
X14236491Y-15283769D02*
X14141253Y-15302817D01*
X14312682Y-15359960D02*
X14331730Y-15369484D01*
X14331730Y-15369484D02*
X14369825Y-15369484D01*
X14369825Y-15369484D02*
X14388872Y-15359960D01*
X14388872Y-15359960D02*
X14398396Y-15340912D01*
X14398396Y-15340912D02*
X14398396Y-15331388D01*
X14398396Y-15331388D02*
X14388872Y-15312341D01*
X14388872Y-15312341D02*
X14369825Y-15302817D01*
X14369825Y-15302817D02*
X14341253Y-15302817D01*
X14341253Y-15302817D02*
X14322206Y-15293293D01*
X14322206Y-15293293D02*
X14312682Y-15274246D01*
X14312682Y-15274246D02*
X14312682Y-15264722D01*
X14312682Y-15264722D02*
X14322206Y-15245674D01*
X14322206Y-15245674D02*
X14341253Y-15236150D01*
X14341253Y-15236150D02*
X14369825Y-15236150D01*
X14369825Y-15236150D02*
X14388872Y-15245674D01*
X14465063Y-15445674D02*
X14474587Y-15436150D01*
X14474587Y-15436150D02*
X14493634Y-15407579D01*
X14493634Y-15407579D02*
X14503158Y-15388531D01*
X14503158Y-15388531D02*
X14512682Y-15359960D01*
X14512682Y-15359960D02*
X14522206Y-15312341D01*
X14522206Y-15312341D02*
X14522206Y-15274246D01*
X14522206Y-15274246D02*
X14512682Y-15226627D01*
X14512682Y-15226627D02*
X14503158Y-15198055D01*
X14503158Y-15198055D02*
X14493634Y-15179008D01*
X14493634Y-15179008D02*
X14474587Y-15150436D01*
X14474587Y-15150436D02*
X14465063Y-15140912D01*
D12*
X9580000Y-15487000D02*
X9690000Y-15597000D01*
X9690000Y-15487000D02*
X9580000Y-15597000D01*
X9690000Y-15542000D02*
G75*
G02*
X9580000Y-15542000I-55000J0D01*
G01*
X9580000Y-15542000D02*
G75*
G02*
X9690000Y-15542000I55000J0D01*
G01*
D10*
X10055539Y-15633484D02*
X9941253Y-15633484D01*
X9998396Y-15633484D02*
X9998396Y-15433484D01*
X9998396Y-15433484D02*
X9979348Y-15462055D01*
X9979348Y-15462055D02*
X9960301Y-15481103D01*
X9960301Y-15481103D02*
X9941253Y-15490627D01*
X10141253Y-15614436D02*
X10150777Y-15623960D01*
X10150777Y-15623960D02*
X10141253Y-15633484D01*
X10141253Y-15633484D02*
X10131729Y-15623960D01*
X10131729Y-15623960D02*
X10141253Y-15614436D01*
X10141253Y-15614436D02*
X10141253Y-15633484D01*
X10341253Y-15633484D02*
X10226967Y-15633484D01*
X10284110Y-15633484D02*
X10284110Y-15433484D01*
X10284110Y-15433484D02*
X10265063Y-15462055D01*
X10265063Y-15462055D02*
X10246015Y-15481103D01*
X10246015Y-15481103D02*
X10226967Y-15490627D01*
X10465063Y-15433484D02*
X10484110Y-15433484D01*
X10484110Y-15433484D02*
X10503158Y-15443008D01*
X10503158Y-15443008D02*
X10512682Y-15452531D01*
X10512682Y-15452531D02*
X10522205Y-15471579D01*
X10522205Y-15471579D02*
X10531729Y-15509674D01*
X10531729Y-15509674D02*
X10531729Y-15557293D01*
X10531729Y-15557293D02*
X10522205Y-15595388D01*
X10522205Y-15595388D02*
X10512682Y-15614436D01*
X10512682Y-15614436D02*
X10503158Y-15623960D01*
X10503158Y-15623960D02*
X10484110Y-15633484D01*
X10484110Y-15633484D02*
X10465063Y-15633484D01*
X10465063Y-15633484D02*
X10446015Y-15623960D01*
X10446015Y-15623960D02*
X10436491Y-15614436D01*
X10436491Y-15614436D02*
X10426967Y-15595388D01*
X10426967Y-15595388D02*
X10417444Y-15557293D01*
X10417444Y-15557293D02*
X10417444Y-15509674D01*
X10417444Y-15509674D02*
X10426967Y-15471579D01*
X10426967Y-15471579D02*
X10436491Y-15452531D01*
X10436491Y-15452531D02*
X10446015Y-15443008D01*
X10446015Y-15443008D02*
X10465063Y-15433484D01*
X10655539Y-15433484D02*
X10674586Y-15433484D01*
X10674586Y-15433484D02*
X10693634Y-15443008D01*
X10693634Y-15443008D02*
X10703158Y-15452531D01*
X10703158Y-15452531D02*
X10712682Y-15471579D01*
X10712682Y-15471579D02*
X10722205Y-15509674D01*
X10722205Y-15509674D02*
X10722205Y-15557293D01*
X10722205Y-15557293D02*
X10712682Y-15595388D01*
X10712682Y-15595388D02*
X10703158Y-15614436D01*
X10703158Y-15614436D02*
X10693634Y-15623960D01*
X10693634Y-15623960D02*
X10674586Y-15633484D01*
X10674586Y-15633484D02*
X10655539Y-15633484D01*
X10655539Y-15633484D02*
X10636491Y-15623960D01*
X10636491Y-15623960D02*
X10626967Y-15614436D01*
X10626967Y-15614436D02*
X10617444Y-15595388D01*
X10617444Y-15595388D02*
X10607920Y-15557293D01*
X10607920Y-15557293D02*
X10607920Y-15509674D01*
X10607920Y-15509674D02*
X10617444Y-15471579D01*
X10617444Y-15471579D02*
X10626967Y-15452531D01*
X10626967Y-15452531D02*
X10636491Y-15443008D01*
X10636491Y-15443008D02*
X10655539Y-15433484D01*
X10807920Y-15633484D02*
X10807920Y-15500150D01*
X10807920Y-15519198D02*
X10817444Y-15509674D01*
X10817444Y-15509674D02*
X10836491Y-15500150D01*
X10836491Y-15500150D02*
X10865063Y-15500150D01*
X10865063Y-15500150D02*
X10884110Y-15509674D01*
X10884110Y-15509674D02*
X10893634Y-15528722D01*
X10893634Y-15528722D02*
X10893634Y-15633484D01*
X10893634Y-15528722D02*
X10903158Y-15509674D01*
X10903158Y-15509674D02*
X10922205Y-15500150D01*
X10922205Y-15500150D02*
X10950777Y-15500150D01*
X10950777Y-15500150D02*
X10969825Y-15509674D01*
X10969825Y-15509674D02*
X10979348Y-15528722D01*
X10979348Y-15528722D02*
X10979348Y-15633484D01*
X11074586Y-15633484D02*
X11074586Y-15500150D01*
X11074586Y-15519198D02*
X11084110Y-15509674D01*
X11084110Y-15509674D02*
X11103158Y-15500150D01*
X11103158Y-15500150D02*
X11131729Y-15500150D01*
X11131729Y-15500150D02*
X11150777Y-15509674D01*
X11150777Y-15509674D02*
X11160301Y-15528722D01*
X11160301Y-15528722D02*
X11160301Y-15633484D01*
X11160301Y-15528722D02*
X11169825Y-15509674D01*
X11169825Y-15509674D02*
X11188872Y-15500150D01*
X11188872Y-15500150D02*
X11217443Y-15500150D01*
X11217443Y-15500150D02*
X11236491Y-15509674D01*
X11236491Y-15509674D02*
X11246015Y-15528722D01*
X11246015Y-15528722D02*
X11246015Y-15633484D01*
X11636491Y-15423960D02*
X11465063Y-15681103D01*
X11893634Y-15433484D02*
X11912682Y-15433484D01*
X11912682Y-15433484D02*
X11931729Y-15443008D01*
X11931729Y-15443008D02*
X11941253Y-15452531D01*
X11941253Y-15452531D02*
X11950777Y-15471579D01*
X11950777Y-15471579D02*
X11960301Y-15509674D01*
X11960301Y-15509674D02*
X11960301Y-15557293D01*
X11960301Y-15557293D02*
X11950777Y-15595388D01*
X11950777Y-15595388D02*
X11941253Y-15614436D01*
X11941253Y-15614436D02*
X11931729Y-15623960D01*
X11931729Y-15623960D02*
X11912682Y-15633484D01*
X11912682Y-15633484D02*
X11893634Y-15633484D01*
X11893634Y-15633484D02*
X11874586Y-15623960D01*
X11874586Y-15623960D02*
X11865063Y-15614436D01*
X11865063Y-15614436D02*
X11855539Y-15595388D01*
X11855539Y-15595388D02*
X11846015Y-15557293D01*
X11846015Y-15557293D02*
X11846015Y-15509674D01*
X11846015Y-15509674D02*
X11855539Y-15471579D01*
X11855539Y-15471579D02*
X11865063Y-15452531D01*
X11865063Y-15452531D02*
X11874586Y-15443008D01*
X11874586Y-15443008D02*
X11893634Y-15433484D01*
X12046015Y-15614436D02*
X12055539Y-15623960D01*
X12055539Y-15623960D02*
X12046015Y-15633484D01*
X12046015Y-15633484D02*
X12036491Y-15623960D01*
X12036491Y-15623960D02*
X12046015Y-15614436D01*
X12046015Y-15614436D02*
X12046015Y-15633484D01*
X12179348Y-15433484D02*
X12198396Y-15433484D01*
X12198396Y-15433484D02*
X12217444Y-15443008D01*
X12217444Y-15443008D02*
X12226967Y-15452531D01*
X12226967Y-15452531D02*
X12236491Y-15471579D01*
X12236491Y-15471579D02*
X12246015Y-15509674D01*
X12246015Y-15509674D02*
X12246015Y-15557293D01*
X12246015Y-15557293D02*
X12236491Y-15595388D01*
X12236491Y-15595388D02*
X12226967Y-15614436D01*
X12226967Y-15614436D02*
X12217444Y-15623960D01*
X12217444Y-15623960D02*
X12198396Y-15633484D01*
X12198396Y-15633484D02*
X12179348Y-15633484D01*
X12179348Y-15633484D02*
X12160301Y-15623960D01*
X12160301Y-15623960D02*
X12150777Y-15614436D01*
X12150777Y-15614436D02*
X12141253Y-15595388D01*
X12141253Y-15595388D02*
X12131729Y-15557293D01*
X12131729Y-15557293D02*
X12131729Y-15509674D01*
X12131729Y-15509674D02*
X12141253Y-15471579D01*
X12141253Y-15471579D02*
X12150777Y-15452531D01*
X12150777Y-15452531D02*
X12160301Y-15443008D01*
X12160301Y-15443008D02*
X12179348Y-15433484D01*
X12417444Y-15500150D02*
X12417444Y-15633484D01*
X12369825Y-15423960D02*
X12322206Y-15566817D01*
X12322206Y-15566817D02*
X12446015Y-15566817D01*
X12503158Y-15433484D02*
X12626967Y-15433484D01*
X12626967Y-15433484D02*
X12560301Y-15509674D01*
X12560301Y-15509674D02*
X12588872Y-15509674D01*
X12588872Y-15509674D02*
X12607920Y-15519198D01*
X12607920Y-15519198D02*
X12617444Y-15528722D01*
X12617444Y-15528722D02*
X12626967Y-15547769D01*
X12626967Y-15547769D02*
X12626967Y-15595388D01*
X12626967Y-15595388D02*
X12617444Y-15614436D01*
X12617444Y-15614436D02*
X12607920Y-15623960D01*
X12607920Y-15623960D02*
X12588872Y-15633484D01*
X12588872Y-15633484D02*
X12531729Y-15633484D01*
X12531729Y-15633484D02*
X12512682Y-15623960D01*
X12512682Y-15623960D02*
X12503158Y-15614436D01*
X12693634Y-15433484D02*
X12817444Y-15433484D01*
X12817444Y-15433484D02*
X12750777Y-15509674D01*
X12750777Y-15509674D02*
X12779348Y-15509674D01*
X12779348Y-15509674D02*
X12798396Y-15519198D01*
X12798396Y-15519198D02*
X12807920Y-15528722D01*
X12807920Y-15528722D02*
X12817444Y-15547769D01*
X12817444Y-15547769D02*
X12817444Y-15595388D01*
X12817444Y-15595388D02*
X12807920Y-15614436D01*
X12807920Y-15614436D02*
X12798396Y-15623960D01*
X12798396Y-15623960D02*
X12779348Y-15633484D01*
X12779348Y-15633484D02*
X12722206Y-15633484D01*
X12722206Y-15633484D02*
X12703158Y-15623960D01*
X12703158Y-15623960D02*
X12693634Y-15614436D01*
X12893634Y-15433484D02*
X12893634Y-15471579D01*
X12969825Y-15433484D02*
X12969825Y-15471579D01*
X13265063Y-15709674D02*
X13255539Y-15700150D01*
X13255539Y-15700150D02*
X13236491Y-15671579D01*
X13236491Y-15671579D02*
X13226968Y-15652531D01*
X13226968Y-15652531D02*
X13217444Y-15623960D01*
X13217444Y-15623960D02*
X13207920Y-15576341D01*
X13207920Y-15576341D02*
X13207920Y-15538246D01*
X13207920Y-15538246D02*
X13217444Y-15490627D01*
X13217444Y-15490627D02*
X13226968Y-15462055D01*
X13226968Y-15462055D02*
X13236491Y-15443008D01*
X13236491Y-15443008D02*
X13255539Y-15414436D01*
X13255539Y-15414436D02*
X13265063Y-15404912D01*
X13426968Y-15500150D02*
X13426968Y-15633484D01*
X13379348Y-15423960D02*
X13331729Y-15566817D01*
X13331729Y-15566817D02*
X13455539Y-15566817D01*
X13684110Y-15633484D02*
X13684110Y-15433484D01*
X13769825Y-15633484D02*
X13769825Y-15528722D01*
X13769825Y-15528722D02*
X13760301Y-15509674D01*
X13760301Y-15509674D02*
X13741253Y-15500150D01*
X13741253Y-15500150D02*
X13712682Y-15500150D01*
X13712682Y-15500150D02*
X13693634Y-15509674D01*
X13693634Y-15509674D02*
X13684110Y-15519198D01*
X13893634Y-15633484D02*
X13874587Y-15623960D01*
X13874587Y-15623960D02*
X13865063Y-15614436D01*
X13865063Y-15614436D02*
X13855539Y-15595388D01*
X13855539Y-15595388D02*
X13855539Y-15538246D01*
X13855539Y-15538246D02*
X13865063Y-15519198D01*
X13865063Y-15519198D02*
X13874587Y-15509674D01*
X13874587Y-15509674D02*
X13893634Y-15500150D01*
X13893634Y-15500150D02*
X13922206Y-15500150D01*
X13922206Y-15500150D02*
X13941253Y-15509674D01*
X13941253Y-15509674D02*
X13950777Y-15519198D01*
X13950777Y-15519198D02*
X13960301Y-15538246D01*
X13960301Y-15538246D02*
X13960301Y-15595388D01*
X13960301Y-15595388D02*
X13950777Y-15614436D01*
X13950777Y-15614436D02*
X13941253Y-15623960D01*
X13941253Y-15623960D02*
X13922206Y-15633484D01*
X13922206Y-15633484D02*
X13893634Y-15633484D01*
X14074587Y-15633484D02*
X14055539Y-15623960D01*
X14055539Y-15623960D02*
X14046015Y-15604912D01*
X14046015Y-15604912D02*
X14046015Y-15433484D01*
X14226968Y-15623960D02*
X14207920Y-15633484D01*
X14207920Y-15633484D02*
X14169825Y-15633484D01*
X14169825Y-15633484D02*
X14150777Y-15623960D01*
X14150777Y-15623960D02*
X14141253Y-15604912D01*
X14141253Y-15604912D02*
X14141253Y-15528722D01*
X14141253Y-15528722D02*
X14150777Y-15509674D01*
X14150777Y-15509674D02*
X14169825Y-15500150D01*
X14169825Y-15500150D02*
X14207920Y-15500150D01*
X14207920Y-15500150D02*
X14226968Y-15509674D01*
X14226968Y-15509674D02*
X14236491Y-15528722D01*
X14236491Y-15528722D02*
X14236491Y-15547769D01*
X14236491Y-15547769D02*
X14141253Y-15566817D01*
X14312682Y-15623960D02*
X14331730Y-15633484D01*
X14331730Y-15633484D02*
X14369825Y-15633484D01*
X14369825Y-15633484D02*
X14388872Y-15623960D01*
X14388872Y-15623960D02*
X14398396Y-15604912D01*
X14398396Y-15604912D02*
X14398396Y-15595388D01*
X14398396Y-15595388D02*
X14388872Y-15576341D01*
X14388872Y-15576341D02*
X14369825Y-15566817D01*
X14369825Y-15566817D02*
X14341253Y-15566817D01*
X14341253Y-15566817D02*
X14322206Y-15557293D01*
X14322206Y-15557293D02*
X14312682Y-15538246D01*
X14312682Y-15538246D02*
X14312682Y-15528722D01*
X14312682Y-15528722D02*
X14322206Y-15509674D01*
X14322206Y-15509674D02*
X14341253Y-15500150D01*
X14341253Y-15500150D02*
X14369825Y-15500150D01*
X14369825Y-15500150D02*
X14388872Y-15509674D01*
X14465063Y-15709674D02*
X14474587Y-15700150D01*
X14474587Y-15700150D02*
X14493634Y-15671579D01*
X14493634Y-15671579D02*
X14503158Y-15652531D01*
X14503158Y-15652531D02*
X14512682Y-15623960D01*
X14512682Y-15623960D02*
X14522206Y-15576341D01*
X14522206Y-15576341D02*
X14522206Y-15538246D01*
X14522206Y-15538246D02*
X14512682Y-15490627D01*
X14512682Y-15490627D02*
X14503158Y-15462055D01*
X14503158Y-15462055D02*
X14493634Y-15443008D01*
X14493634Y-15443008D02*
X14474587Y-15414436D01*
X14474587Y-15414436D02*
X14465063Y-15404912D01*
D13*
X9565000Y-15743500D02*
X9690000Y-15868500D01*
X9690000Y-15743500D02*
X9565000Y-15868500D01*
X9627500Y-15743500D02*
X9627500Y-15868500D01*
X9565000Y-15806000D02*
X9690000Y-15806000D01*
D10*
X10055539Y-15897484D02*
X9941253Y-15897484D01*
X9998396Y-15897484D02*
X9998396Y-15697484D01*
X9998396Y-15697484D02*
X9979348Y-15726055D01*
X9979348Y-15726055D02*
X9960301Y-15745103D01*
X9960301Y-15745103D02*
X9941253Y-15754627D01*
X10141253Y-15878436D02*
X10150777Y-15887960D01*
X10150777Y-15887960D02*
X10141253Y-15897484D01*
X10141253Y-15897484D02*
X10131729Y-15887960D01*
X10131729Y-15887960D02*
X10141253Y-15878436D01*
X10141253Y-15878436D02*
X10141253Y-15897484D01*
X10226967Y-15716531D02*
X10236491Y-15707008D01*
X10236491Y-15707008D02*
X10255539Y-15697484D01*
X10255539Y-15697484D02*
X10303158Y-15697484D01*
X10303158Y-15697484D02*
X10322205Y-15707008D01*
X10322205Y-15707008D02*
X10331729Y-15716531D01*
X10331729Y-15716531D02*
X10341253Y-15735579D01*
X10341253Y-15735579D02*
X10341253Y-15754627D01*
X10341253Y-15754627D02*
X10331729Y-15783198D01*
X10331729Y-15783198D02*
X10217444Y-15897484D01*
X10217444Y-15897484D02*
X10341253Y-15897484D01*
X10522205Y-15697484D02*
X10426967Y-15697484D01*
X10426967Y-15697484D02*
X10417444Y-15792722D01*
X10417444Y-15792722D02*
X10426967Y-15783198D01*
X10426967Y-15783198D02*
X10446015Y-15773674D01*
X10446015Y-15773674D02*
X10493634Y-15773674D01*
X10493634Y-15773674D02*
X10512682Y-15783198D01*
X10512682Y-15783198D02*
X10522205Y-15792722D01*
X10522205Y-15792722D02*
X10531729Y-15811769D01*
X10531729Y-15811769D02*
X10531729Y-15859388D01*
X10531729Y-15859388D02*
X10522205Y-15878436D01*
X10522205Y-15878436D02*
X10512682Y-15887960D01*
X10512682Y-15887960D02*
X10493634Y-15897484D01*
X10493634Y-15897484D02*
X10446015Y-15897484D01*
X10446015Y-15897484D02*
X10426967Y-15887960D01*
X10426967Y-15887960D02*
X10417444Y-15878436D01*
X10655539Y-15697484D02*
X10674586Y-15697484D01*
X10674586Y-15697484D02*
X10693634Y-15707008D01*
X10693634Y-15707008D02*
X10703158Y-15716531D01*
X10703158Y-15716531D02*
X10712682Y-15735579D01*
X10712682Y-15735579D02*
X10722205Y-15773674D01*
X10722205Y-15773674D02*
X10722205Y-15821293D01*
X10722205Y-15821293D02*
X10712682Y-15859388D01*
X10712682Y-15859388D02*
X10703158Y-15878436D01*
X10703158Y-15878436D02*
X10693634Y-15887960D01*
X10693634Y-15887960D02*
X10674586Y-15897484D01*
X10674586Y-15897484D02*
X10655539Y-15897484D01*
X10655539Y-15897484D02*
X10636491Y-15887960D01*
X10636491Y-15887960D02*
X10626967Y-15878436D01*
X10626967Y-15878436D02*
X10617444Y-15859388D01*
X10617444Y-15859388D02*
X10607920Y-15821293D01*
X10607920Y-15821293D02*
X10607920Y-15773674D01*
X10607920Y-15773674D02*
X10617444Y-15735579D01*
X10617444Y-15735579D02*
X10626967Y-15716531D01*
X10626967Y-15716531D02*
X10636491Y-15707008D01*
X10636491Y-15707008D02*
X10655539Y-15697484D01*
X10807920Y-15897484D02*
X10807920Y-15764150D01*
X10807920Y-15783198D02*
X10817444Y-15773674D01*
X10817444Y-15773674D02*
X10836491Y-15764150D01*
X10836491Y-15764150D02*
X10865063Y-15764150D01*
X10865063Y-15764150D02*
X10884110Y-15773674D01*
X10884110Y-15773674D02*
X10893634Y-15792722D01*
X10893634Y-15792722D02*
X10893634Y-15897484D01*
X10893634Y-15792722D02*
X10903158Y-15773674D01*
X10903158Y-15773674D02*
X10922205Y-15764150D01*
X10922205Y-15764150D02*
X10950777Y-15764150D01*
X10950777Y-15764150D02*
X10969825Y-15773674D01*
X10969825Y-15773674D02*
X10979348Y-15792722D01*
X10979348Y-15792722D02*
X10979348Y-15897484D01*
X11074586Y-15897484D02*
X11074586Y-15764150D01*
X11074586Y-15783198D02*
X11084110Y-15773674D01*
X11084110Y-15773674D02*
X11103158Y-15764150D01*
X11103158Y-15764150D02*
X11131729Y-15764150D01*
X11131729Y-15764150D02*
X11150777Y-15773674D01*
X11150777Y-15773674D02*
X11160301Y-15792722D01*
X11160301Y-15792722D02*
X11160301Y-15897484D01*
X11160301Y-15792722D02*
X11169825Y-15773674D01*
X11169825Y-15773674D02*
X11188872Y-15764150D01*
X11188872Y-15764150D02*
X11217443Y-15764150D01*
X11217443Y-15764150D02*
X11236491Y-15773674D01*
X11236491Y-15773674D02*
X11246015Y-15792722D01*
X11246015Y-15792722D02*
X11246015Y-15897484D01*
X11636491Y-15687960D02*
X11465063Y-15945103D01*
X11893634Y-15697484D02*
X11912682Y-15697484D01*
X11912682Y-15697484D02*
X11931729Y-15707008D01*
X11931729Y-15707008D02*
X11941253Y-15716531D01*
X11941253Y-15716531D02*
X11950777Y-15735579D01*
X11950777Y-15735579D02*
X11960301Y-15773674D01*
X11960301Y-15773674D02*
X11960301Y-15821293D01*
X11960301Y-15821293D02*
X11950777Y-15859388D01*
X11950777Y-15859388D02*
X11941253Y-15878436D01*
X11941253Y-15878436D02*
X11931729Y-15887960D01*
X11931729Y-15887960D02*
X11912682Y-15897484D01*
X11912682Y-15897484D02*
X11893634Y-15897484D01*
X11893634Y-15897484D02*
X11874586Y-15887960D01*
X11874586Y-15887960D02*
X11865063Y-15878436D01*
X11865063Y-15878436D02*
X11855539Y-15859388D01*
X11855539Y-15859388D02*
X11846015Y-15821293D01*
X11846015Y-15821293D02*
X11846015Y-15773674D01*
X11846015Y-15773674D02*
X11855539Y-15735579D01*
X11855539Y-15735579D02*
X11865063Y-15716531D01*
X11865063Y-15716531D02*
X11874586Y-15707008D01*
X11874586Y-15707008D02*
X11893634Y-15697484D01*
X12046015Y-15878436D02*
X12055539Y-15887960D01*
X12055539Y-15887960D02*
X12046015Y-15897484D01*
X12046015Y-15897484D02*
X12036491Y-15887960D01*
X12036491Y-15887960D02*
X12046015Y-15878436D01*
X12046015Y-15878436D02*
X12046015Y-15897484D01*
X12179348Y-15697484D02*
X12198396Y-15697484D01*
X12198396Y-15697484D02*
X12217444Y-15707008D01*
X12217444Y-15707008D02*
X12226967Y-15716531D01*
X12226967Y-15716531D02*
X12236491Y-15735579D01*
X12236491Y-15735579D02*
X12246015Y-15773674D01*
X12246015Y-15773674D02*
X12246015Y-15821293D01*
X12246015Y-15821293D02*
X12236491Y-15859388D01*
X12236491Y-15859388D02*
X12226967Y-15878436D01*
X12226967Y-15878436D02*
X12217444Y-15887960D01*
X12217444Y-15887960D02*
X12198396Y-15897484D01*
X12198396Y-15897484D02*
X12179348Y-15897484D01*
X12179348Y-15897484D02*
X12160301Y-15887960D01*
X12160301Y-15887960D02*
X12150777Y-15878436D01*
X12150777Y-15878436D02*
X12141253Y-15859388D01*
X12141253Y-15859388D02*
X12131729Y-15821293D01*
X12131729Y-15821293D02*
X12131729Y-15773674D01*
X12131729Y-15773674D02*
X12141253Y-15735579D01*
X12141253Y-15735579D02*
X12150777Y-15716531D01*
X12150777Y-15716531D02*
X12160301Y-15707008D01*
X12160301Y-15707008D02*
X12179348Y-15697484D01*
X12417444Y-15764150D02*
X12417444Y-15897484D01*
X12369825Y-15687960D02*
X12322206Y-15830817D01*
X12322206Y-15830817D02*
X12446015Y-15830817D01*
X12531729Y-15897484D02*
X12569825Y-15897484D01*
X12569825Y-15897484D02*
X12588872Y-15887960D01*
X12588872Y-15887960D02*
X12598396Y-15878436D01*
X12598396Y-15878436D02*
X12617444Y-15849865D01*
X12617444Y-15849865D02*
X12626967Y-15811769D01*
X12626967Y-15811769D02*
X12626967Y-15735579D01*
X12626967Y-15735579D02*
X12617444Y-15716531D01*
X12617444Y-15716531D02*
X12607920Y-15707008D01*
X12607920Y-15707008D02*
X12588872Y-15697484D01*
X12588872Y-15697484D02*
X12550777Y-15697484D01*
X12550777Y-15697484D02*
X12531729Y-15707008D01*
X12531729Y-15707008D02*
X12522206Y-15716531D01*
X12522206Y-15716531D02*
X12512682Y-15735579D01*
X12512682Y-15735579D02*
X12512682Y-15783198D01*
X12512682Y-15783198D02*
X12522206Y-15802246D01*
X12522206Y-15802246D02*
X12531729Y-15811769D01*
X12531729Y-15811769D02*
X12550777Y-15821293D01*
X12550777Y-15821293D02*
X12588872Y-15821293D01*
X12588872Y-15821293D02*
X12607920Y-15811769D01*
X12607920Y-15811769D02*
X12617444Y-15802246D01*
X12617444Y-15802246D02*
X12626967Y-15783198D01*
X12703158Y-15716531D02*
X12712682Y-15707008D01*
X12712682Y-15707008D02*
X12731729Y-15697484D01*
X12731729Y-15697484D02*
X12779348Y-15697484D01*
X12779348Y-15697484D02*
X12798396Y-15707008D01*
X12798396Y-15707008D02*
X12807920Y-15716531D01*
X12807920Y-15716531D02*
X12817444Y-15735579D01*
X12817444Y-15735579D02*
X12817444Y-15754627D01*
X12817444Y-15754627D02*
X12807920Y-15783198D01*
X12807920Y-15783198D02*
X12693634Y-15897484D01*
X12693634Y-15897484D02*
X12817444Y-15897484D01*
X12893634Y-15697484D02*
X12893634Y-15735579D01*
X12969825Y-15697484D02*
X12969825Y-15735579D01*
X13265063Y-15973674D02*
X13255539Y-15964150D01*
X13255539Y-15964150D02*
X13236491Y-15935579D01*
X13236491Y-15935579D02*
X13226968Y-15916531D01*
X13226968Y-15916531D02*
X13217444Y-15887960D01*
X13217444Y-15887960D02*
X13207920Y-15840341D01*
X13207920Y-15840341D02*
X13207920Y-15802246D01*
X13207920Y-15802246D02*
X13217444Y-15754627D01*
X13217444Y-15754627D02*
X13226968Y-15726055D01*
X13226968Y-15726055D02*
X13236491Y-15707008D01*
X13236491Y-15707008D02*
X13255539Y-15678436D01*
X13255539Y-15678436D02*
X13265063Y-15668912D01*
X13331729Y-15716531D02*
X13341253Y-15707008D01*
X13341253Y-15707008D02*
X13360301Y-15697484D01*
X13360301Y-15697484D02*
X13407920Y-15697484D01*
X13407920Y-15697484D02*
X13426968Y-15707008D01*
X13426968Y-15707008D02*
X13436491Y-15716531D01*
X13436491Y-15716531D02*
X13446015Y-15735579D01*
X13446015Y-15735579D02*
X13446015Y-15754627D01*
X13446015Y-15754627D02*
X13436491Y-15783198D01*
X13436491Y-15783198D02*
X13322206Y-15897484D01*
X13322206Y-15897484D02*
X13446015Y-15897484D01*
X13684110Y-15897484D02*
X13684110Y-15697484D01*
X13769825Y-15897484D02*
X13769825Y-15792722D01*
X13769825Y-15792722D02*
X13760301Y-15773674D01*
X13760301Y-15773674D02*
X13741253Y-15764150D01*
X13741253Y-15764150D02*
X13712682Y-15764150D01*
X13712682Y-15764150D02*
X13693634Y-15773674D01*
X13693634Y-15773674D02*
X13684110Y-15783198D01*
X13893634Y-15897484D02*
X13874587Y-15887960D01*
X13874587Y-15887960D02*
X13865063Y-15878436D01*
X13865063Y-15878436D02*
X13855539Y-15859388D01*
X13855539Y-15859388D02*
X13855539Y-15802246D01*
X13855539Y-15802246D02*
X13865063Y-15783198D01*
X13865063Y-15783198D02*
X13874587Y-15773674D01*
X13874587Y-15773674D02*
X13893634Y-15764150D01*
X13893634Y-15764150D02*
X13922206Y-15764150D01*
X13922206Y-15764150D02*
X13941253Y-15773674D01*
X13941253Y-15773674D02*
X13950777Y-15783198D01*
X13950777Y-15783198D02*
X13960301Y-15802246D01*
X13960301Y-15802246D02*
X13960301Y-15859388D01*
X13960301Y-15859388D02*
X13950777Y-15878436D01*
X13950777Y-15878436D02*
X13941253Y-15887960D01*
X13941253Y-15887960D02*
X13922206Y-15897484D01*
X13922206Y-15897484D02*
X13893634Y-15897484D01*
X14074587Y-15897484D02*
X14055539Y-15887960D01*
X14055539Y-15887960D02*
X14046015Y-15868912D01*
X14046015Y-15868912D02*
X14046015Y-15697484D01*
X14226968Y-15887960D02*
X14207920Y-15897484D01*
X14207920Y-15897484D02*
X14169825Y-15897484D01*
X14169825Y-15897484D02*
X14150777Y-15887960D01*
X14150777Y-15887960D02*
X14141253Y-15868912D01*
X14141253Y-15868912D02*
X14141253Y-15792722D01*
X14141253Y-15792722D02*
X14150777Y-15773674D01*
X14150777Y-15773674D02*
X14169825Y-15764150D01*
X14169825Y-15764150D02*
X14207920Y-15764150D01*
X14207920Y-15764150D02*
X14226968Y-15773674D01*
X14226968Y-15773674D02*
X14236491Y-15792722D01*
X14236491Y-15792722D02*
X14236491Y-15811769D01*
X14236491Y-15811769D02*
X14141253Y-15830817D01*
X14312682Y-15887960D02*
X14331730Y-15897484D01*
X14331730Y-15897484D02*
X14369825Y-15897484D01*
X14369825Y-15897484D02*
X14388872Y-15887960D01*
X14388872Y-15887960D02*
X14398396Y-15868912D01*
X14398396Y-15868912D02*
X14398396Y-15859388D01*
X14398396Y-15859388D02*
X14388872Y-15840341D01*
X14388872Y-15840341D02*
X14369825Y-15830817D01*
X14369825Y-15830817D02*
X14341253Y-15830817D01*
X14341253Y-15830817D02*
X14322206Y-15821293D01*
X14322206Y-15821293D02*
X14312682Y-15802246D01*
X14312682Y-15802246D02*
X14312682Y-15792722D01*
X14312682Y-15792722D02*
X14322206Y-15773674D01*
X14322206Y-15773674D02*
X14341253Y-15764150D01*
X14341253Y-15764150D02*
X14369825Y-15764150D01*
X14369825Y-15764150D02*
X14388872Y-15773674D01*
X14465063Y-15973674D02*
X14474587Y-15964150D01*
X14474587Y-15964150D02*
X14493634Y-15935579D01*
X14493634Y-15935579D02*
X14503158Y-15916531D01*
X14503158Y-15916531D02*
X14512682Y-15887960D01*
X14512682Y-15887960D02*
X14522206Y-15840341D01*
X14522206Y-15840341D02*
X14522206Y-15802246D01*
X14522206Y-15802246D02*
X14512682Y-15754627D01*
X14512682Y-15754627D02*
X14503158Y-15726055D01*
X14503158Y-15726055D02*
X14493634Y-15707008D01*
X14493634Y-15707008D02*
X14474587Y-15678436D01*
X14474587Y-15678436D02*
X14465063Y-15668912D01*
M02*
