G04 #@! TF.GenerationSoftware,KiCad,Pcbnew,9.0.2*
G04 #@! TF.CreationDate,2025-07-15T04:36:50-04:00*
G04 #@! TF.ProjectId,FBT,4642542e-6b69-4636-9164-5f7063625858,rev?*
G04 #@! TF.SameCoordinates,Original*
G04 #@! TF.FileFunction,Legend,Bot*
G04 #@! TF.FilePolarity,Positive*
%FSLAX46Y46*%
G04 Gerber Fmt 4.6, Leading zero omitted, Abs format (unit mm)*
G04 Created by KiCad (PCBNEW 9.0.2) date 2025-07-15 04:36:50*
%MOMM*%
%LPD*%
G01*
G04 APERTURE LIST*
%ADD10C,0.000000*%
%ADD11C,0.211666*%
%ADD12C,0.417912*%
%ADD13C,0.334821*%
%ADD14C,0.114152*%
%ADD15C,0.100000*%
%ADD16C,0.150000*%
%ADD17C,0.120000*%
G04 APERTURE END LIST*
D10*
G36*
X109090694Y-104523436D02*
G01*
X109092405Y-104523557D01*
X109094107Y-104523759D01*
X109095796Y-104524042D01*
X109097472Y-104524402D01*
X109099131Y-104524839D01*
X109100770Y-104525349D01*
X109102388Y-104525931D01*
X109103981Y-104526582D01*
X109105548Y-104527301D01*
X109107086Y-104528086D01*
X109108593Y-104528933D01*
X109110065Y-104529842D01*
X109111501Y-104530809D01*
X109112898Y-104531834D01*
X109114253Y-104532913D01*
X109115565Y-104534045D01*
X109116830Y-104535228D01*
X109118047Y-104536459D01*
X109119212Y-104537736D01*
X109120324Y-104539057D01*
X109121379Y-104540421D01*
X109122376Y-104541825D01*
X109123311Y-104543266D01*
X109124183Y-104544744D01*
X109124989Y-104546254D01*
X109125727Y-104547797D01*
X109126393Y-104549369D01*
X109126986Y-104550968D01*
X109127503Y-104552593D01*
X109127942Y-104554240D01*
X109128300Y-104555909D01*
X109128226Y-104555832D01*
X109264922Y-105290546D01*
X109265270Y-105292229D01*
X109265696Y-105293918D01*
X109266196Y-105295612D01*
X109266768Y-105297307D01*
X109268119Y-105300689D01*
X109269730Y-105304044D01*
X109271582Y-105307349D01*
X109273654Y-105310581D01*
X109275929Y-105313719D01*
X109278386Y-105316740D01*
X109281006Y-105319623D01*
X109283771Y-105322345D01*
X109286660Y-105324884D01*
X109289654Y-105327218D01*
X109292734Y-105329326D01*
X109295881Y-105331184D01*
X109299076Y-105332771D01*
X109300685Y-105333456D01*
X109302298Y-105334064D01*
X109827811Y-105559296D01*
X109830962Y-105560753D01*
X109834299Y-105561978D01*
X109837796Y-105562972D01*
X109841423Y-105563739D01*
X109845151Y-105564278D01*
X109848952Y-105564592D01*
X109852796Y-105564682D01*
X109856657Y-105564550D01*
X109860504Y-105564198D01*
X109864309Y-105563627D01*
X109868044Y-105562839D01*
X109871680Y-105561836D01*
X109875189Y-105560619D01*
X109878541Y-105559190D01*
X109881708Y-105557551D01*
X109884661Y-105555702D01*
X110508819Y-105127644D01*
X110510246Y-105126724D01*
X110511716Y-105125875D01*
X110513225Y-105125098D01*
X110514771Y-105124391D01*
X110516350Y-105123755D01*
X110517958Y-105123189D01*
X110519593Y-105122693D01*
X110521252Y-105122267D01*
X110524626Y-105121624D01*
X110528054Y-105121258D01*
X110531511Y-105121165D01*
X110534970Y-105121345D01*
X110538405Y-105121796D01*
X110541790Y-105122515D01*
X110545100Y-105123500D01*
X110546718Y-105124092D01*
X110548308Y-105124750D01*
X110549866Y-105125473D01*
X110551388Y-105126262D01*
X110552873Y-105127116D01*
X110554315Y-105128035D01*
X110555713Y-105129019D01*
X110557062Y-105130067D01*
X110558360Y-105131179D01*
X110559603Y-105132354D01*
X111094404Y-105667081D01*
X111095587Y-105668317D01*
X111096706Y-105669608D01*
X111097761Y-105670952D01*
X111098751Y-105672344D01*
X111099676Y-105673781D01*
X111100537Y-105675260D01*
X111102061Y-105678332D01*
X111103322Y-105681533D01*
X111104317Y-105684836D01*
X111105043Y-105688217D01*
X111105498Y-105691648D01*
X111105681Y-105695103D01*
X111105588Y-105698558D01*
X111105218Y-105701984D01*
X111104568Y-105705357D01*
X111103635Y-105708650D01*
X111103063Y-105710259D01*
X111102419Y-105711837D01*
X111101703Y-105713383D01*
X111100915Y-105714892D01*
X111100055Y-105716362D01*
X111099122Y-105717789D01*
X110663346Y-106352659D01*
X110661507Y-106355602D01*
X110659868Y-106358764D01*
X110658432Y-106362118D01*
X110657202Y-106365632D01*
X110656178Y-106369279D01*
X110655364Y-106373028D01*
X110654762Y-106376851D01*
X110654373Y-106380719D01*
X110654200Y-106384601D01*
X110654246Y-106388469D01*
X110654512Y-106392293D01*
X110655000Y-106396045D01*
X110655713Y-106399694D01*
X110656653Y-106403211D01*
X110657822Y-106406568D01*
X110659223Y-106409734D01*
X110867750Y-106919069D01*
X110868974Y-106922304D01*
X110870497Y-106925511D01*
X110872297Y-106928669D01*
X110874352Y-106931759D01*
X110876638Y-106934762D01*
X110879135Y-106937659D01*
X110881819Y-106940431D01*
X110884668Y-106943059D01*
X110887661Y-106945524D01*
X110890774Y-106947806D01*
X110893986Y-106949886D01*
X110897274Y-106951746D01*
X110900616Y-106953366D01*
X110903990Y-106954726D01*
X110907373Y-106955809D01*
X110910743Y-106956594D01*
X111670849Y-107098084D01*
X111672525Y-107098434D01*
X111674178Y-107098867D01*
X111675809Y-107099378D01*
X111677414Y-107099967D01*
X111678991Y-107100629D01*
X111680538Y-107101363D01*
X111682054Y-107102166D01*
X111683536Y-107103035D01*
X111684981Y-107103969D01*
X111686389Y-107104963D01*
X111689082Y-107107127D01*
X111691597Y-107109506D01*
X111693919Y-107112081D01*
X111696030Y-107114829D01*
X111697913Y-107117733D01*
X111699553Y-107120770D01*
X111700276Y-107122332D01*
X111700932Y-107123921D01*
X111701518Y-107125533D01*
X111702033Y-107127166D01*
X111702475Y-107128817D01*
X111702841Y-107130483D01*
X111703129Y-107132163D01*
X111703337Y-107133854D01*
X111703464Y-107135553D01*
X111703506Y-107137257D01*
X111703506Y-107893469D01*
X111703464Y-107895173D01*
X111703337Y-107896872D01*
X111703129Y-107898562D01*
X111702841Y-107900242D01*
X111702475Y-107901909D01*
X111702034Y-107903560D01*
X111701519Y-107905193D01*
X111700933Y-107906805D01*
X111700278Y-107908393D01*
X111699555Y-107909956D01*
X111698768Y-107911490D01*
X111697917Y-107912993D01*
X111697006Y-107914463D01*
X111696036Y-107915896D01*
X111695010Y-107917291D01*
X111693928Y-107918645D01*
X111692795Y-107919955D01*
X111691611Y-107921219D01*
X111690379Y-107922434D01*
X111689100Y-107923598D01*
X111687778Y-107924708D01*
X111686413Y-107925762D01*
X111685009Y-107926757D01*
X111683567Y-107927690D01*
X111682090Y-107928560D01*
X111680578Y-107929363D01*
X111679036Y-107930097D01*
X111677464Y-107930759D01*
X111675865Y-107931347D01*
X111674240Y-107931859D01*
X111672593Y-107932291D01*
X111670924Y-107932642D01*
X110910741Y-108074057D01*
X110909059Y-108074412D01*
X110907371Y-108074844D01*
X110903987Y-108075927D01*
X110900613Y-108077289D01*
X110897271Y-108078909D01*
X110893983Y-108080769D01*
X110890770Y-108082849D01*
X110887657Y-108085131D01*
X110884664Y-108087595D01*
X110881815Y-108090222D01*
X110879130Y-108092994D01*
X110876634Y-108095891D01*
X110874347Y-108098893D01*
X110872293Y-108101983D01*
X110870494Y-108105141D01*
X110869696Y-108106739D01*
X110868971Y-108108347D01*
X110868320Y-108109962D01*
X110867747Y-108111582D01*
X110659219Y-108620992D01*
X110657832Y-108624172D01*
X110656672Y-108627540D01*
X110655739Y-108631067D01*
X110655030Y-108634724D01*
X110654544Y-108638481D01*
X110654278Y-108642310D01*
X110654230Y-108646180D01*
X110654400Y-108650063D01*
X110654785Y-108653929D01*
X110655383Y-108657750D01*
X110656192Y-108661495D01*
X110657211Y-108665136D01*
X110658437Y-108668643D01*
X110659869Y-108671986D01*
X110661504Y-108675137D01*
X110663342Y-108678067D01*
X111099122Y-109312937D01*
X111100048Y-109314371D01*
X111100901Y-109315847D01*
X111101683Y-109317362D01*
X111102394Y-109318913D01*
X111103033Y-109320497D01*
X111103601Y-109322110D01*
X111104098Y-109323750D01*
X111104525Y-109325412D01*
X111104882Y-109327094D01*
X111105169Y-109328792D01*
X111105535Y-109332225D01*
X111105625Y-109335684D01*
X111105442Y-109339143D01*
X111104987Y-109342578D01*
X111104264Y-109345961D01*
X111103273Y-109349266D01*
X111102679Y-109350881D01*
X111102019Y-109352468D01*
X111101293Y-109354022D01*
X111100502Y-109355540D01*
X111099646Y-109357020D01*
X111098726Y-109358457D01*
X111097741Y-109359849D01*
X111096692Y-109361192D01*
X111095579Y-109362484D01*
X111094403Y-109363720D01*
X110559603Y-109898445D01*
X110558359Y-109899622D01*
X110557061Y-109900735D01*
X110555712Y-109901785D01*
X110554315Y-109902771D01*
X110552872Y-109903693D01*
X110551388Y-109904550D01*
X110548308Y-109906071D01*
X110545100Y-109907330D01*
X110541790Y-109908325D01*
X110538404Y-109909053D01*
X110534969Y-109909512D01*
X110531510Y-109909699D01*
X110528054Y-109909610D01*
X110524626Y-109909245D01*
X110521252Y-109908599D01*
X110517958Y-109907671D01*
X110516349Y-109907100D01*
X110514771Y-109906458D01*
X110513225Y-109905743D01*
X110511716Y-109904956D01*
X110510246Y-109904097D01*
X110508819Y-109903164D01*
X109884735Y-109475031D01*
X109881781Y-109473207D01*
X109878615Y-109471588D01*
X109875263Y-109470174D01*
X109871755Y-109468969D01*
X109868119Y-109467974D01*
X109864384Y-109467192D01*
X109860579Y-109466624D01*
X109856732Y-109466272D01*
X109852871Y-109466139D01*
X109849026Y-109466227D01*
X109845225Y-109466538D01*
X109841497Y-109467073D01*
X109837870Y-109467835D01*
X109834374Y-109468826D01*
X109831036Y-109470049D01*
X109827885Y-109471504D01*
X109302372Y-109696735D01*
X109299151Y-109698013D01*
X109295959Y-109699585D01*
X109292815Y-109701429D01*
X109289739Y-109703523D01*
X109286750Y-109705845D01*
X109283866Y-109708374D01*
X109281107Y-109711087D01*
X109278491Y-109713962D01*
X109276037Y-109716978D01*
X109273764Y-109720112D01*
X109271692Y-109723343D01*
X109269839Y-109726649D01*
X109268224Y-109730007D01*
X109266865Y-109733396D01*
X109265783Y-109736793D01*
X109264996Y-109740178D01*
X109128299Y-110474892D01*
X109127942Y-110476567D01*
X109127503Y-110478220D01*
X109126986Y-110479850D01*
X109126392Y-110481453D01*
X109125724Y-110483029D01*
X109124986Y-110484574D01*
X109124178Y-110486087D01*
X109123305Y-110487567D01*
X109122368Y-110489010D01*
X109121369Y-110490414D01*
X109119199Y-110493101D01*
X109116815Y-110495610D01*
X109114237Y-110497924D01*
X109111485Y-110500028D01*
X109108580Y-110501905D01*
X109105541Y-110503538D01*
X109103977Y-110504258D01*
X109102388Y-110504911D01*
X109100776Y-110505495D01*
X109099143Y-110506008D01*
X109097492Y-110506447D01*
X109095825Y-110506811D01*
X109094145Y-110507098D01*
X109092454Y-110507306D01*
X109090756Y-110507432D01*
X109089051Y-110507474D01*
X108332691Y-110507474D01*
X108330980Y-110507431D01*
X108329274Y-110507305D01*
X108327578Y-110507097D01*
X108325892Y-110506808D01*
X108324220Y-110506443D01*
X108322565Y-110506001D01*
X108320927Y-110505487D01*
X108319311Y-110504901D01*
X108317719Y-110504245D01*
X108316153Y-110503523D01*
X108314616Y-110502735D01*
X108313110Y-110501885D01*
X108311638Y-110500974D01*
X108310202Y-110500004D01*
X108308805Y-110498977D01*
X108307449Y-110497896D01*
X108306137Y-110496762D01*
X108304872Y-110495578D01*
X108303655Y-110494346D01*
X108302490Y-110493068D01*
X108301379Y-110491746D01*
X108300325Y-110490381D01*
X108299329Y-110488977D01*
X108298395Y-110487535D01*
X108297525Y-110486057D01*
X108296722Y-110484546D01*
X108295988Y-110483004D01*
X108295325Y-110481432D01*
X108294737Y-110479832D01*
X108294225Y-110478208D01*
X108293793Y-110476560D01*
X108293442Y-110474892D01*
X108160041Y-109758230D01*
X108159699Y-109756548D01*
X108159278Y-109754862D01*
X108158781Y-109753174D01*
X108158211Y-109751486D01*
X108156858Y-109748125D01*
X108155240Y-109744799D01*
X108153376Y-109741532D01*
X108151288Y-109738344D01*
X108148993Y-109735258D01*
X108146513Y-109732296D01*
X108143867Y-109729480D01*
X108141074Y-109726831D01*
X108138156Y-109724372D01*
X108135131Y-109722124D01*
X108132020Y-109720109D01*
X108128842Y-109718350D01*
X108127235Y-109717573D01*
X108125618Y-109716868D01*
X108123994Y-109716237D01*
X108122366Y-109715685D01*
X107563297Y-109491949D01*
X107560117Y-109490563D01*
X107556749Y-109489406D01*
X107553222Y-109488476D01*
X107549566Y-109487772D01*
X107545808Y-109487291D01*
X107541980Y-109487032D01*
X107538110Y-109486991D01*
X107534226Y-109487168D01*
X107530360Y-109487560D01*
X107526540Y-109488164D01*
X107522794Y-109488980D01*
X107519154Y-109490004D01*
X107515647Y-109491235D01*
X107512303Y-109492670D01*
X107509151Y-109494308D01*
X107506222Y-109496147D01*
X106912848Y-109903240D01*
X106911415Y-109904166D01*
X106909938Y-109905019D01*
X106908423Y-109905801D01*
X106906872Y-109906512D01*
X106905288Y-109907151D01*
X106903675Y-109907719D01*
X106902035Y-109908216D01*
X106900372Y-109908643D01*
X106898690Y-109909000D01*
X106896991Y-109909287D01*
X106893557Y-109909653D01*
X106890095Y-109909743D01*
X106886632Y-109909560D01*
X106883194Y-109909105D01*
X106879806Y-109908381D01*
X106876495Y-109907391D01*
X106874876Y-109906796D01*
X106873286Y-109906136D01*
X106871727Y-109905411D01*
X106870205Y-109904620D01*
X106868720Y-109903764D01*
X106867278Y-109902843D01*
X106865880Y-109901859D01*
X106864531Y-109900810D01*
X106863233Y-109899697D01*
X106861989Y-109898521D01*
X106327181Y-109363720D01*
X106326004Y-109362484D01*
X106324891Y-109361192D01*
X106323842Y-109359849D01*
X106322856Y-109358457D01*
X106321936Y-109357019D01*
X106321079Y-109355540D01*
X106319562Y-109352467D01*
X106318308Y-109349266D01*
X106317317Y-109345960D01*
X106316594Y-109342577D01*
X106316139Y-109339143D01*
X106315956Y-109335684D01*
X106316047Y-109332224D01*
X106316413Y-109328792D01*
X106317057Y-109325412D01*
X106317982Y-109322110D01*
X106318551Y-109320497D01*
X106319190Y-109318913D01*
X106319900Y-109317362D01*
X106320682Y-109315847D01*
X106321536Y-109314371D01*
X106322462Y-109312937D01*
X106722507Y-108730199D01*
X106724335Y-108727262D01*
X106725938Y-108724117D01*
X106727315Y-108720793D01*
X106728465Y-108717318D01*
X106729389Y-108713721D01*
X106730086Y-108710031D01*
X106730555Y-108706276D01*
X106730796Y-108702485D01*
X106730809Y-108698688D01*
X106730593Y-108694912D01*
X106730148Y-108691186D01*
X106729473Y-108687540D01*
X106728568Y-108684002D01*
X106727433Y-108680600D01*
X106726067Y-108677364D01*
X106724470Y-108674322D01*
X106587253Y-108417333D01*
X106586511Y-108415802D01*
X106585859Y-108414257D01*
X106585295Y-108412701D01*
X106584819Y-108411137D01*
X106584429Y-108409568D01*
X106584124Y-108407996D01*
X106583904Y-108406424D01*
X106583766Y-108404855D01*
X106583711Y-108403292D01*
X106583737Y-108401737D01*
X106583843Y-108400192D01*
X106584028Y-108398662D01*
X106584292Y-108397147D01*
X106584632Y-108395652D01*
X106585048Y-108394178D01*
X106585540Y-108392729D01*
X106586105Y-108391307D01*
X106586743Y-108389915D01*
X106587453Y-108388556D01*
X106588234Y-108387232D01*
X106589085Y-108385946D01*
X106590004Y-108384701D01*
X106590992Y-108383499D01*
X106592046Y-108382344D01*
X106593166Y-108381237D01*
X106594350Y-108380182D01*
X106595599Y-108379181D01*
X106596909Y-108378238D01*
X106598282Y-108377354D01*
X106599715Y-108376532D01*
X106601208Y-108375776D01*
X106602759Y-108375088D01*
X107883434Y-107845157D01*
X107885027Y-107844544D01*
X107886644Y-107844012D01*
X107888282Y-107843560D01*
X107889938Y-107843187D01*
X107891610Y-107842891D01*
X107893293Y-107842672D01*
X107894985Y-107842529D01*
X107896683Y-107842460D01*
X107898384Y-107842466D01*
X107900085Y-107842544D01*
X107901783Y-107842695D01*
X107903474Y-107842916D01*
X107905156Y-107843207D01*
X107906826Y-107843568D01*
X107908480Y-107843996D01*
X107910116Y-107844491D01*
X107911730Y-107845052D01*
X107913320Y-107845679D01*
X107914882Y-107846369D01*
X107916413Y-107847123D01*
X107917911Y-107847939D01*
X107919372Y-107848815D01*
X107920794Y-107849753D01*
X107922172Y-107850749D01*
X107923505Y-107851804D01*
X107924789Y-107852916D01*
X107926021Y-107854084D01*
X107927198Y-107855307D01*
X107928317Y-107856585D01*
X107929375Y-107857916D01*
X107930369Y-107859300D01*
X107931295Y-107860735D01*
X107970693Y-107925076D01*
X107973648Y-107929724D01*
X107977014Y-107934675D01*
X107980722Y-107939841D01*
X107984699Y-107945131D01*
X107988872Y-107950456D01*
X107993170Y-107955727D01*
X107997520Y-107960854D01*
X108001851Y-107965748D01*
X108031001Y-108008322D01*
X108062649Y-108048955D01*
X108096686Y-108087535D01*
X108133001Y-108123950D01*
X108171485Y-108158090D01*
X108212028Y-108189844D01*
X108254518Y-108219101D01*
X108298847Y-108245750D01*
X108344905Y-108269680D01*
X108392580Y-108290779D01*
X108441764Y-108308936D01*
X108492346Y-108324042D01*
X108544216Y-108335983D01*
X108597264Y-108344651D01*
X108651381Y-108349933D01*
X108706455Y-108351718D01*
X108749502Y-108350630D01*
X108791984Y-108347400D01*
X108833848Y-108342082D01*
X108875042Y-108334727D01*
X108915513Y-108325388D01*
X108955208Y-108314119D01*
X108994076Y-108300970D01*
X109032063Y-108285996D01*
X109069117Y-108269248D01*
X109105186Y-108250779D01*
X109140216Y-108230642D01*
X109174156Y-108208889D01*
X109206952Y-108185573D01*
X109238553Y-108160746D01*
X109268905Y-108134460D01*
X109297956Y-108106770D01*
X109325654Y-108077726D01*
X109351945Y-108047381D01*
X109376778Y-108015789D01*
X109400100Y-107983001D01*
X109421858Y-107949070D01*
X109442000Y-107914049D01*
X109460473Y-107877991D01*
X109477225Y-107840947D01*
X109492202Y-107802971D01*
X109505353Y-107764114D01*
X109516626Y-107724430D01*
X109525966Y-107683971D01*
X109533322Y-107642790D01*
X109538642Y-107600939D01*
X109541872Y-107558470D01*
X109542961Y-107515437D01*
X109541872Y-107472404D01*
X109538642Y-107429935D01*
X109533322Y-107388084D01*
X109525966Y-107346903D01*
X109516626Y-107306444D01*
X109505353Y-107266760D01*
X109492202Y-107227903D01*
X109477225Y-107189927D01*
X109460473Y-107152883D01*
X109442000Y-107116824D01*
X109421858Y-107081803D01*
X109400100Y-107047873D01*
X109376778Y-107015085D01*
X109351945Y-106983492D01*
X109325654Y-106953148D01*
X109297956Y-106924104D01*
X109268905Y-106896413D01*
X109238553Y-106870128D01*
X109206952Y-106845301D01*
X109174156Y-106821984D01*
X109140216Y-106800231D01*
X109105186Y-106780094D01*
X109069117Y-106761625D01*
X109032063Y-106744877D01*
X108994076Y-106729903D01*
X108955208Y-106716755D01*
X108915513Y-106705485D01*
X108875042Y-106696147D01*
X108833848Y-106688792D01*
X108791984Y-106683473D01*
X108749502Y-106680244D01*
X108706455Y-106679156D01*
X108678805Y-106679604D01*
X108651381Y-106680941D01*
X108624196Y-106683152D01*
X108597264Y-106686223D01*
X108570600Y-106690140D01*
X108544216Y-106694890D01*
X108518127Y-106700459D01*
X108492346Y-106706832D01*
X108466887Y-106713996D01*
X108441764Y-106721937D01*
X108416991Y-106730641D01*
X108392580Y-106740095D01*
X108368547Y-106750284D01*
X108344905Y-106761194D01*
X108298847Y-106785123D01*
X108254518Y-106811772D01*
X108212028Y-106841029D01*
X108171485Y-106872783D01*
X108133001Y-106906923D01*
X108096686Y-106943339D01*
X108062649Y-106981918D01*
X108031001Y-107022551D01*
X108001851Y-107065126D01*
X107997543Y-107069998D01*
X107993203Y-107075113D01*
X107988907Y-107080380D01*
X107984730Y-107085705D01*
X107980745Y-107090995D01*
X107977028Y-107096156D01*
X107973652Y-107101097D01*
X107970693Y-107105723D01*
X107931295Y-107170063D01*
X107930369Y-107171492D01*
X107929375Y-107172870D01*
X107928318Y-107174196D01*
X107927199Y-107175470D01*
X107926022Y-107176690D01*
X107924790Y-107177855D01*
X107922174Y-107180018D01*
X107919374Y-107181950D01*
X107916415Y-107183643D01*
X107913322Y-107185090D01*
X107910117Y-107186280D01*
X107906827Y-107187208D01*
X107903476Y-107187864D01*
X107900086Y-107188240D01*
X107896684Y-107188329D01*
X107893294Y-107188121D01*
X107891610Y-107187904D01*
X107889939Y-107187610D01*
X107888282Y-107187237D01*
X107886644Y-107186786D01*
X107885026Y-107186254D01*
X107883433Y-107185641D01*
X106602687Y-106655785D01*
X106601135Y-106655097D01*
X106599643Y-106654342D01*
X106598211Y-106653522D01*
X106596841Y-106652639D01*
X106595532Y-106651697D01*
X106594287Y-106650699D01*
X106593107Y-106649646D01*
X106591991Y-106648542D01*
X106590941Y-106647388D01*
X106589958Y-106646189D01*
X106589043Y-106644946D01*
X106588197Y-106643663D01*
X106587421Y-106642341D01*
X106586715Y-106640984D01*
X106586081Y-106639594D01*
X106585520Y-106638174D01*
X106585032Y-106636726D01*
X106584619Y-106635254D01*
X106584281Y-106633760D01*
X106584020Y-106632246D01*
X106583835Y-106630715D01*
X106583730Y-106629171D01*
X106583703Y-106627615D01*
X106583756Y-106626050D01*
X106583890Y-106624479D01*
X106584107Y-106622905D01*
X106584406Y-106621331D01*
X106584789Y-106619758D01*
X106585258Y-106618190D01*
X106585811Y-106616629D01*
X106586452Y-106615078D01*
X106587180Y-106613540D01*
X106724400Y-106356551D01*
X106726010Y-106353496D01*
X106727387Y-106350248D01*
X106728531Y-106346837D01*
X106729444Y-106343291D01*
X106730126Y-106339639D01*
X106730577Y-106335909D01*
X106730798Y-106332131D01*
X106730789Y-106328332D01*
X106730552Y-106324542D01*
X106730085Y-106320790D01*
X106729391Y-106317104D01*
X106728470Y-106313513D01*
X106727322Y-106310046D01*
X106725947Y-106306731D01*
X106724346Y-106303597D01*
X106722521Y-106300674D01*
X106322470Y-105717932D01*
X106321551Y-105716499D01*
X106320704Y-105715023D01*
X106319928Y-105713508D01*
X106319223Y-105711957D01*
X106318589Y-105710373D01*
X106318025Y-105708760D01*
X106317532Y-105707121D01*
X106317109Y-105705459D01*
X106316471Y-105702081D01*
X106316109Y-105698650D01*
X106316022Y-105695193D01*
X106316206Y-105691736D01*
X106316660Y-105688306D01*
X106317381Y-105684928D01*
X106318367Y-105681629D01*
X106318959Y-105680017D01*
X106319616Y-105678434D01*
X106320338Y-105676884D01*
X106321125Y-105675370D01*
X106321976Y-105673896D01*
X106322891Y-105672464D01*
X106323871Y-105671077D01*
X106324914Y-105669740D01*
X106326020Y-105668454D01*
X106327189Y-105667225D01*
X106861989Y-105132417D01*
X106863233Y-105131235D01*
X106864531Y-105130117D01*
X106865880Y-105129063D01*
X106867278Y-105128073D01*
X106868720Y-105127148D01*
X106870205Y-105126288D01*
X106873286Y-105124765D01*
X106876495Y-105123505D01*
X106879806Y-105122511D01*
X106883194Y-105121785D01*
X106886632Y-105121329D01*
X106890095Y-105121147D01*
X106893557Y-105121240D01*
X106896991Y-105121610D01*
X106900372Y-105122260D01*
X106903674Y-105123193D01*
X106905288Y-105123765D01*
X106906872Y-105124409D01*
X106908423Y-105125125D01*
X106909938Y-105125913D01*
X106911414Y-105126773D01*
X106912848Y-105127706D01*
X107506147Y-105534800D01*
X107509089Y-105536625D01*
X107512249Y-105538252D01*
X107515599Y-105539677D01*
X107519109Y-105540900D01*
X107522752Y-105541919D01*
X107526497Y-105542730D01*
X107530316Y-105543332D01*
X107534179Y-105543724D01*
X107538058Y-105543901D01*
X107541925Y-105543864D01*
X107545749Y-105543609D01*
X107549502Y-105543135D01*
X107553154Y-105542438D01*
X107556678Y-105541518D01*
X107560044Y-105540372D01*
X107563222Y-105538998D01*
X108122292Y-105315266D01*
X108125542Y-105314072D01*
X108128764Y-105312583D01*
X108131939Y-105310821D01*
X108135046Y-105308807D01*
X108138066Y-105306563D01*
X108140980Y-105304108D01*
X108143767Y-105301465D01*
X108146410Y-105298656D01*
X108148887Y-105295700D01*
X108151180Y-105292621D01*
X108153268Y-105289438D01*
X108155133Y-105286173D01*
X108156755Y-105282848D01*
X108158115Y-105279483D01*
X108159192Y-105276101D01*
X108159618Y-105274409D01*
X108159967Y-105272721D01*
X108293368Y-104556058D01*
X108293713Y-104554390D01*
X108294140Y-104552742D01*
X108294647Y-104551118D01*
X108295233Y-104549519D01*
X108295893Y-104547947D01*
X108296626Y-104546405D01*
X108297429Y-104544893D01*
X108298300Y-104543416D01*
X108299235Y-104541974D01*
X108300232Y-104540570D01*
X108302402Y-104537883D01*
X108304790Y-104535372D01*
X108307374Y-104533055D01*
X108310134Y-104530947D01*
X108313048Y-104529066D01*
X108316096Y-104527428D01*
X108319258Y-104526050D01*
X108320874Y-104525464D01*
X108322511Y-104524949D01*
X108324166Y-104524508D01*
X108325836Y-104524142D01*
X108327519Y-104523854D01*
X108329211Y-104523646D01*
X108330911Y-104523519D01*
X108332616Y-104523476D01*
X109088977Y-104523401D01*
X109090694Y-104523436D01*
G37*
D11*
X106895995Y-97138678D02*
X106915752Y-97140094D01*
X106935437Y-97142455D01*
X106955011Y-97145759D01*
X106974439Y-97150008D01*
X106993683Y-97155201D01*
X107012708Y-97161339D01*
X107031475Y-97168420D01*
X107049950Y-97176446D01*
X107068094Y-97185416D01*
X107085872Y-97195330D01*
X107103247Y-97206188D01*
X107120181Y-97217991D01*
X107136639Y-97230738D01*
X107152583Y-97244429D01*
X107167978Y-97259064D01*
X109661863Y-99752948D01*
X109676498Y-99768343D01*
X109690189Y-99784287D01*
X109702935Y-99800745D01*
X109714738Y-99817679D01*
X109725596Y-99835054D01*
X109735510Y-99852831D01*
X109744480Y-99870976D01*
X109752506Y-99889450D01*
X109759588Y-99908218D01*
X109765725Y-99927242D01*
X109770918Y-99946487D01*
X109775167Y-99965914D01*
X109778472Y-99985489D01*
X109780832Y-100005173D01*
X109782249Y-100024931D01*
X109782721Y-100044725D01*
X109782249Y-100064520D01*
X109780832Y-100084277D01*
X109778472Y-100103962D01*
X109775167Y-100123536D01*
X109770918Y-100142964D01*
X109765725Y-100162208D01*
X109759588Y-100181232D01*
X109752506Y-100200000D01*
X109744480Y-100218475D01*
X109735510Y-100236619D01*
X109725596Y-100254397D01*
X109714738Y-100271771D01*
X109702935Y-100288706D01*
X109690189Y-100305163D01*
X109676498Y-100321108D01*
X109661863Y-100336502D01*
X107167978Y-102830387D01*
X107152583Y-102845022D01*
X107136639Y-102858713D01*
X107120181Y-102871460D01*
X107103247Y-102883263D01*
X107085872Y-102894121D01*
X107068094Y-102904035D01*
X107049950Y-102913005D01*
X107031475Y-102921031D01*
X107012708Y-102928112D01*
X106993683Y-102934250D01*
X106974439Y-102939443D01*
X106955011Y-102943692D01*
X106935437Y-102946997D01*
X106915752Y-102949357D01*
X106895995Y-102950773D01*
X106876200Y-102951246D01*
X106856406Y-102950773D01*
X106836648Y-102949357D01*
X106816964Y-102946997D01*
X106797389Y-102943692D01*
X106777962Y-102939443D01*
X106758717Y-102934250D01*
X106739693Y-102928112D01*
X106720925Y-102921031D01*
X106702451Y-102913005D01*
X106684306Y-102904035D01*
X106666529Y-102894121D01*
X106649154Y-102883263D01*
X106632220Y-102871460D01*
X106615762Y-102858713D01*
X106599817Y-102845022D01*
X106584423Y-102830387D01*
X104090538Y-100336502D01*
X104075903Y-100321108D01*
X104062212Y-100305163D01*
X104049465Y-100288706D01*
X104037662Y-100271771D01*
X104026804Y-100254397D01*
X104016890Y-100236619D01*
X104007920Y-100218475D01*
X103999894Y-100200000D01*
X103992813Y-100181232D01*
X103986675Y-100162208D01*
X103981482Y-100142964D01*
X103977233Y-100123536D01*
X103973929Y-100103962D01*
X103971568Y-100084277D01*
X103970152Y-100064520D01*
X103969680Y-100044725D01*
X103970152Y-100024931D01*
X103971568Y-100005173D01*
X103973929Y-99985489D01*
X103977233Y-99965914D01*
X103981482Y-99946487D01*
X103986675Y-99927242D01*
X103992813Y-99908218D01*
X103999894Y-99889450D01*
X104007920Y-99870976D01*
X104016890Y-99852831D01*
X104026804Y-99835054D01*
X104037662Y-99817679D01*
X104049465Y-99800745D01*
X104062212Y-99784287D01*
X104075903Y-99768343D01*
X104090538Y-99752948D01*
X106584423Y-97259064D01*
X106599817Y-97244429D01*
X106615762Y-97230738D01*
X106632220Y-97217991D01*
X106649154Y-97206188D01*
X106666529Y-97195330D01*
X106684306Y-97185416D01*
X106702451Y-97176446D01*
X106720925Y-97168420D01*
X106739693Y-97161339D01*
X106758717Y-97155201D01*
X106777962Y-97150008D01*
X106797389Y-97145759D01*
X106816964Y-97142455D01*
X106836648Y-97140094D01*
X106856406Y-97138678D01*
X106876200Y-97138206D01*
X106895995Y-97138678D01*
D12*
X101700539Y-103964062D02*
X101698540Y-103957545D01*
X101696576Y-103951070D01*
X101694677Y-103944741D01*
X101692812Y-103938453D01*
X101691008Y-103932304D01*
X101689237Y-103926195D01*
X101687526Y-103920218D01*
X101685847Y-103914281D01*
X101684225Y-103908470D01*
X101682634Y-103902697D01*
X101681098Y-103897046D01*
X101679592Y-103891431D01*
X101678138Y-103885933D01*
X101676715Y-103880471D01*
X101675342Y-103875120D01*
X101673998Y-103869804D01*
X101672702Y-103864595D01*
X101671436Y-103859421D01*
X101670215Y-103854349D01*
X101669023Y-103849310D01*
X101667876Y-103844371D01*
X101666756Y-103839464D01*
X101665679Y-103834652D01*
X101664629Y-103829872D01*
X101663620Y-103825184D01*
X101662639Y-103820526D01*
X101661697Y-103815958D01*
X101660781Y-103811419D01*
X101659903Y-103806966D01*
X101659052Y-103802542D01*
X101658237Y-103798201D01*
X101657447Y-103793888D01*
X101656693Y-103789655D01*
X101655964Y-103785450D01*
X101655269Y-103781322D01*
X101654599Y-103777222D01*
X101653961Y-103773196D01*
X101653349Y-103769197D01*
X101652767Y-103765270D01*
X101652210Y-103761369D01*
X101651682Y-103757537D01*
X101651179Y-103753732D01*
X101650705Y-103749994D01*
X101650254Y-103746280D01*
X101649832Y-103742633D01*
X101649432Y-103739009D01*
X101649060Y-103735449D01*
X101648711Y-103731913D01*
X101648387Y-103728439D01*
X101648087Y-103724987D01*
X101647811Y-103721596D01*
X101647557Y-103718227D01*
X101647328Y-103714916D01*
X101647121Y-103711627D01*
X101646937Y-103708394D01*
X101646775Y-103705183D01*
X101646635Y-103702027D01*
X101646517Y-103698891D01*
X101646421Y-103695809D01*
X101646345Y-103692748D01*
X101646291Y-103689737D01*
X101646257Y-103686747D01*
X101646244Y-103683807D01*
X101646251Y-103680887D01*
X101646278Y-103678015D01*
X101646324Y-103675163D01*
X101646391Y-103672357D01*
X101646476Y-103669571D01*
X101646581Y-103666830D01*
X101646705Y-103664109D01*
X101646847Y-103661431D01*
X101647008Y-103658771D01*
X101647186Y-103656155D01*
X101647384Y-103653556D01*
X101647598Y-103650999D01*
X101647831Y-103648460D01*
X101648081Y-103645961D01*
X101648349Y-103643480D01*
X101648633Y-103641037D01*
X101648935Y-103638612D01*
X101649252Y-103636225D01*
X101649588Y-103633855D01*
X101649939Y-103631521D01*
X101650307Y-103629204D01*
X101650690Y-103626922D01*
X101651091Y-103624657D01*
X101651506Y-103622426D01*
X101651939Y-103620212D01*
X101652385Y-103618030D01*
X101652849Y-103615865D01*
X101653326Y-103613732D01*
X101653820Y-103611615D01*
X101654327Y-103609528D01*
X101654852Y-103607458D01*
X101655389Y-103605417D01*
X101655943Y-103603392D01*
X101656510Y-103601397D01*
X101657094Y-103599416D01*
X101657690Y-103597463D01*
X101658302Y-103595526D01*
X101658927Y-103593616D01*
X101659568Y-103591720D01*
X101660222Y-103589851D01*
X101660891Y-103587997D01*
X101661573Y-103586168D01*
X101662270Y-103584354D01*
X101662980Y-103582564D01*
X101663705Y-103580788D01*
X101664443Y-103579037D01*
X101665196Y-103577299D01*
X101665961Y-103575585D01*
X101666741Y-103573884D01*
X101667534Y-103572206D01*
X101668342Y-103570542D01*
X101669162Y-103568899D01*
X101669998Y-103567270D01*
X101670845Y-103565662D01*
X101671708Y-103564067D01*
X101672583Y-103562492D01*
X101673473Y-103560931D01*
X101674375Y-103559390D01*
X101675293Y-103557861D01*
X101676223Y-103556352D01*
X101677168Y-103554855D01*
X101678125Y-103553377D01*
X101679098Y-103551912D01*
X101680083Y-103550464D01*
X101681083Y-103549030D01*
X101682096Y-103547613D01*
X101683124Y-103546208D01*
X101684166Y-103544820D01*
X101685222Y-103543445D01*
X101686292Y-103542086D01*
X101687376Y-103540739D01*
X101688475Y-103539408D01*
X101689588Y-103538090D01*
X101690715Y-103536787D01*
X101691858Y-103535496D01*
X101693015Y-103534220D01*
X101694187Y-103532957D01*
X101695373Y-103531707D01*
X101696575Y-103530471D01*
X101697791Y-103529247D01*
X101699023Y-103528037D01*
X101700271Y-103526840D01*
X101701534Y-103525655D01*
X101704106Y-103523325D01*
X101706743Y-103521045D01*
X101709444Y-103518815D01*
X101712211Y-103516634D01*
X101715045Y-103514503D01*
X101717948Y-103512420D01*
X101720921Y-103510385D01*
X101723966Y-103508399D01*
X101727084Y-103506460D01*
X101730277Y-103504569D01*
X101733546Y-103502727D01*
X101736894Y-103500932D01*
X101740322Y-103499185D01*
X101743832Y-103497487D01*
X101747425Y-103495837D01*
X101751105Y-103494235D01*
X101754873Y-103492683D01*
X101758731Y-103491181D01*
X101762681Y-103489729D01*
X101766726Y-103488328D01*
X101770868Y-103486978D01*
X101775109Y-103485680D01*
X101779452Y-103484434D01*
X101783899Y-103483243D01*
X101788453Y-103482106D01*
X101793116Y-103481025D01*
X101797891Y-103480000D01*
X101802781Y-103479032D01*
X101807788Y-103478123D01*
X101812916Y-103477274D01*
X101818167Y-103476486D01*
X101823544Y-103475760D01*
X101829050Y-103475098D01*
X101834689Y-103474501D01*
X101840464Y-103473970D01*
X101846377Y-103473507D01*
X101852432Y-103473113D01*
X101858633Y-103472791D01*
X101864984Y-103472541D01*
X101871486Y-103472366D01*
X101878145Y-103472266D01*
X101884964Y-103472245D01*
X101891947Y-103472304D01*
X101897203Y-103472399D01*
D13*
X103347605Y-109667335D02*
X104306344Y-108757761D01*
D12*
X101823454Y-110060664D02*
X101825626Y-110051365D01*
X101828257Y-110039863D01*
X101831846Y-110023901D01*
X101833981Y-110014272D01*
X101836335Y-110003559D01*
X101838900Y-109991770D01*
X101841670Y-109978918D01*
X101844637Y-109965011D01*
X101847795Y-109950059D01*
X101851136Y-109934074D01*
X101854654Y-109917064D01*
X101858343Y-109899040D01*
X101862193Y-109880012D01*
X101866200Y-109859991D01*
X101870356Y-109838986D01*
X101874654Y-109817008D01*
X101879088Y-109794066D01*
X101883649Y-109770171D01*
X101888332Y-109745333D01*
X101893129Y-109719561D01*
X101898034Y-109692867D01*
X101903039Y-109665260D01*
X101908137Y-109636750D01*
X101913323Y-109607348D01*
X101918588Y-109577063D01*
X101923926Y-109545906D01*
X101926620Y-109530003D01*
X101929329Y-109513886D01*
X101932054Y-109497557D01*
X101934792Y-109481015D01*
X101937543Y-109464263D01*
X101940307Y-109447301D01*
X101943081Y-109430132D01*
X101945866Y-109412756D01*
X101948661Y-109395174D01*
X101951464Y-109377389D01*
X101954275Y-109359400D01*
X101957093Y-109341210D01*
X101959917Y-109322819D01*
X101962746Y-109304230D01*
X101965580Y-109285442D01*
X101968417Y-109266458D01*
X101971257Y-109247278D01*
X101974098Y-109227905D01*
X101976940Y-109208338D01*
X101979783Y-109188580D01*
X101982624Y-109168632D01*
X101985464Y-109148495D01*
X101988301Y-109128170D01*
X101991134Y-109107659D01*
X101993964Y-109086962D01*
X101996788Y-109066082D01*
X101999606Y-109045018D01*
X102002417Y-109023774D01*
X102005220Y-109002349D01*
X102008015Y-108980745D01*
X102010800Y-108958964D01*
X102013575Y-108937006D01*
X102016338Y-108914873D01*
X102019090Y-108892567D01*
X102021828Y-108870088D01*
X102024552Y-108847437D01*
X102027262Y-108824617D01*
X102029956Y-108801628D01*
X102032634Y-108778471D01*
X102035294Y-108755148D01*
X102037937Y-108731660D01*
X102040560Y-108708008D01*
X102043163Y-108684194D01*
X102045745Y-108660218D01*
X102048306Y-108636083D01*
X102050844Y-108611789D01*
X102053359Y-108587338D01*
X102055850Y-108562730D01*
X102058315Y-108537968D01*
X102060755Y-108513052D01*
X102063168Y-108487984D01*
X102065552Y-108462765D01*
X102067909Y-108437396D01*
X102070236Y-108411878D01*
X102072532Y-108386213D01*
X102074798Y-108360402D01*
X102077031Y-108334446D01*
X102079231Y-108308347D01*
X102081398Y-108282106D01*
X102083530Y-108255724D01*
X102085626Y-108229201D01*
X102087686Y-108202541D01*
X102089709Y-108175743D01*
X102091694Y-108148810D01*
X102093640Y-108121742D01*
X102095546Y-108094540D01*
X102097411Y-108067207D01*
X102099234Y-108039742D01*
X102101015Y-108012148D01*
X102102753Y-107984426D01*
X102104447Y-107956576D01*
X102106095Y-107928601D01*
X102107698Y-107900502D01*
X102109254Y-107872279D01*
X102110762Y-107843934D01*
X102112222Y-107815468D01*
X102113632Y-107786883D01*
X102114992Y-107758180D01*
X102116301Y-107729360D01*
X102117558Y-107700424D01*
X102118762Y-107671374D01*
X102119913Y-107642210D01*
X102121009Y-107612935D01*
X102122049Y-107583549D01*
X102123033Y-107554054D01*
X102123960Y-107524451D01*
X102124829Y-107494740D01*
X102125639Y-107464925D01*
X102126389Y-107435005D01*
X102127079Y-107404982D01*
X102127707Y-107374857D01*
X102128272Y-107344632D01*
X102128775Y-107314308D01*
X102129213Y-107283885D01*
X102129586Y-107253366D01*
X102129894Y-107222752D01*
X102130135Y-107192043D01*
X102130308Y-107161241D01*
X102130413Y-107130348D01*
X102130448Y-107099365D01*
X102130413Y-107068292D01*
X102130308Y-107037131D01*
X102130130Y-107005884D01*
X102129880Y-106974552D01*
X102129555Y-106943135D01*
X102129157Y-106911636D01*
X102128683Y-106880055D01*
X102128133Y-106848394D01*
X102127505Y-106816654D01*
X102126800Y-106784836D01*
X102126016Y-106752942D01*
X102125152Y-106720973D01*
X102124208Y-106688929D01*
X102123182Y-106656813D01*
X102122638Y-106640729D01*
X102122074Y-106624626D01*
X102121489Y-106608506D01*
X102120883Y-106592368D01*
X102120256Y-106576214D01*
X102119607Y-106560042D01*
X102118938Y-106543853D01*
X102118247Y-106527648D01*
X102117535Y-106511426D01*
X102116801Y-106495187D01*
X102116046Y-106478933D01*
X102115269Y-106462662D01*
X102114470Y-106446375D01*
X102113649Y-106430073D01*
X102112805Y-106413754D01*
X102111940Y-106397421D01*
X102111052Y-106381072D01*
X102110142Y-106364708D01*
X102109210Y-106348328D01*
X102108255Y-106331934D01*
X102107277Y-106315526D01*
X102106276Y-106299102D01*
X102105252Y-106282665D01*
X102104205Y-106266213D01*
X102103135Y-106249747D01*
X102102042Y-106233267D01*
X102100925Y-106216774D01*
X102099785Y-106200267D01*
X102098621Y-106183746D01*
X102097434Y-106167212D01*
X102096222Y-106150665D01*
X102094987Y-106134105D01*
X102093728Y-106117533D01*
X102092444Y-106100948D01*
X102091137Y-106084350D01*
X102089805Y-106067740D01*
X102088448Y-106051117D01*
X102087067Y-106034483D01*
X102085661Y-106017837D01*
X102084230Y-106001179D01*
X102082775Y-105984510D01*
X102081294Y-105967829D01*
X102079789Y-105951137D01*
X102078258Y-105934434D01*
X102076701Y-105917720D01*
X102075120Y-105900996D01*
X102073512Y-105884261D01*
X102071880Y-105867515D01*
X102070221Y-105850759D01*
X102068536Y-105833993D01*
X102066826Y-105817217D01*
X102065089Y-105800432D01*
X102063326Y-105783636D01*
X102061537Y-105766831D01*
X102059721Y-105750017D01*
X102057879Y-105733194D01*
X102056010Y-105716362D01*
X102054115Y-105699521D01*
X102052193Y-105682671D01*
X102050243Y-105665812D01*
X102048267Y-105648946D01*
X102046263Y-105632071D01*
X102044232Y-105615188D01*
X102042174Y-105598297D01*
X102040088Y-105581398D01*
X102037975Y-105564492D01*
X102035834Y-105547579D01*
X102033665Y-105530658D01*
X102031468Y-105513730D01*
X102029243Y-105496795D01*
X102026990Y-105479853D01*
X102024708Y-105462905D01*
X102022398Y-105445950D01*
X102020060Y-105428989D01*
X102017693Y-105412022D01*
X102015298Y-105395048D01*
X102012873Y-105378069D01*
X102010420Y-105361085D01*
X102007938Y-105344094D01*
X102005427Y-105327099D01*
X102002886Y-105310098D01*
X102000316Y-105293092D01*
X101997717Y-105276081D01*
X101995087Y-105259065D01*
X101992429Y-105242045D01*
X101989740Y-105225021D01*
X101987022Y-105207992D01*
X101984274Y-105190959D01*
X101981495Y-105173922D01*
X101978687Y-105156882D01*
X101975848Y-105139837D01*
X101972978Y-105122790D01*
X101970078Y-105105739D01*
X101967148Y-105088684D01*
X101964186Y-105071627D01*
X101961194Y-105054567D01*
X101958171Y-105037505D01*
X101955116Y-105020439D01*
X101952031Y-105003372D01*
X101948914Y-104986302D01*
X101945766Y-104969230D01*
X101942586Y-104952157D01*
X101939375Y-104935081D01*
X101936132Y-104918004D01*
X101932857Y-104900926D01*
X101929550Y-104883846D01*
X101926211Y-104866765D01*
X101922840Y-104849684D01*
X101919437Y-104832601D01*
X101916001Y-104815518D01*
X101912533Y-104798434D01*
X101909032Y-104781351D01*
X101905499Y-104764267D01*
X101901933Y-104747183D01*
X101898333Y-104730099D01*
X101894701Y-104713015D01*
X101891036Y-104695932D01*
X101887337Y-104678850D01*
X101883605Y-104661768D01*
X101879840Y-104644688D01*
X101876041Y-104627608D01*
X101872208Y-104610530D01*
X101868342Y-104593453D01*
X101864441Y-104576378D01*
X101860507Y-104559304D01*
X101856538Y-104542233D01*
X101852536Y-104525163D01*
X101848499Y-104508096D01*
X101844427Y-104491031D01*
X101840321Y-104473969D01*
X101836180Y-104456909D01*
X101832005Y-104439852D01*
X101827795Y-104422798D01*
X101823549Y-104405748D01*
X101819269Y-104388700D01*
X101814953Y-104371657D01*
X101810602Y-104354616D01*
X101806216Y-104337580D01*
X101801794Y-104320548D01*
X101797337Y-104303519D01*
X101792844Y-104286495D01*
X101788315Y-104269476D01*
X101783750Y-104252461D01*
X101779149Y-104235451D01*
X101774511Y-104218445D01*
X101769838Y-104201445D01*
X101765128Y-104184450D01*
X101760382Y-104167460D01*
X101755599Y-104150476D01*
X101750779Y-104133498D01*
X101745922Y-104116525D01*
X101741029Y-104099559D01*
X101736098Y-104082598D01*
X101731131Y-104065644D01*
X101726126Y-104048697D01*
X101721084Y-104031756D01*
X101716004Y-104014822D01*
X101710887Y-103997895D01*
X101705732Y-103980975D01*
X101700539Y-103964062D01*
D13*
X103445936Y-106323963D02*
X104306344Y-105389806D01*
X104306344Y-105389806D02*
X103372187Y-104504815D01*
X104306344Y-108757761D02*
X103421354Y-107799020D01*
D14*
X108134790Y-96954211D02*
X108162808Y-96965689D01*
X108190180Y-96984506D01*
X108216912Y-97010150D01*
X108243012Y-97042108D01*
X108268485Y-97079869D01*
X108317580Y-97170749D01*
X108364255Y-97278692D01*
X108408563Y-97399602D01*
X108450561Y-97529379D01*
X108490303Y-97663928D01*
X108627822Y-98167880D01*
X108657115Y-98264821D01*
X108684485Y-98341947D01*
X108709986Y-98395161D01*
X108722053Y-98411520D01*
X108733673Y-98420366D01*
X108733673Y-98420367D01*
X108733672Y-98420367D01*
X108854434Y-98465351D01*
X108984884Y-98500498D01*
X109124042Y-98525677D01*
X109270925Y-98540760D01*
X109424551Y-98545615D01*
X109583939Y-98540115D01*
X109748108Y-98524127D01*
X109916075Y-98497523D01*
X110086859Y-98460173D01*
X110259478Y-98411946D01*
X110432951Y-98352714D01*
X110606296Y-98282345D01*
X110778530Y-98200711D01*
X110948673Y-98107680D01*
X111115743Y-98003124D01*
X111278758Y-97886913D01*
X111337181Y-97857961D01*
X111392853Y-97860527D01*
X111445666Y-97892504D01*
X111495510Y-97951784D01*
X111542278Y-98036260D01*
X111585860Y-98143826D01*
X111663033Y-98419796D01*
X111726160Y-98762838D01*
X111774373Y-99156095D01*
X111806801Y-99582711D01*
X111822577Y-100025828D01*
X111820830Y-100468592D01*
X111800692Y-100894144D01*
X111761293Y-101285628D01*
X111701765Y-101626188D01*
X111664181Y-101772104D01*
X111621238Y-101898967D01*
X111572828Y-102004671D01*
X111518843Y-102087109D01*
X111459174Y-102144173D01*
X111393711Y-102173756D01*
X111322347Y-102173752D01*
X111244973Y-102142053D01*
X111092559Y-102053211D01*
X110941556Y-101970786D01*
X110791800Y-101895219D01*
X110643129Y-101826951D01*
X110495379Y-101766422D01*
X110348386Y-101714075D01*
X110201989Y-101670351D01*
X110056024Y-101635690D01*
X109910328Y-101610533D01*
X109764738Y-101595322D01*
X109619090Y-101590498D01*
X109473222Y-101596501D01*
X109326971Y-101613774D01*
X109180173Y-101642756D01*
X109032665Y-101683890D01*
X108884285Y-101737616D01*
X108872805Y-101746308D01*
X108859582Y-101763448D01*
X108828175Y-101820797D01*
X108790591Y-101905116D01*
X108747362Y-102011859D01*
X108528565Y-102572135D01*
X108465043Y-102722797D01*
X108399050Y-102868603D01*
X108331116Y-103005006D01*
X108261770Y-103127460D01*
X108191542Y-103231418D01*
X108156262Y-103275040D01*
X108120959Y-103312333D01*
X108085701Y-103342729D01*
X108050553Y-103365659D01*
X108015581Y-103380556D01*
X107980852Y-103386850D01*
X107964180Y-103384709D01*
X107947312Y-103376692D01*
X107913089Y-103343813D01*
X107878379Y-103289786D01*
X107843382Y-103216184D01*
X107808295Y-103124579D01*
X107773316Y-103016546D01*
X107704478Y-102757483D01*
X107638451Y-102451580D01*
X107576821Y-102111420D01*
X107521175Y-101749588D01*
X107473095Y-101378667D01*
X107463507Y-101290399D01*
X107453146Y-101182286D01*
X107443029Y-101063816D01*
X107434170Y-100944474D01*
X107427587Y-100833749D01*
X107424294Y-100741127D01*
X107424200Y-100704569D01*
X107425309Y-100676094D01*
X107427749Y-100656888D01*
X107429507Y-100651132D01*
X107431646Y-100648137D01*
X107444041Y-100638985D01*
X107456245Y-100628312D01*
X107480029Y-100602722D01*
X107502900Y-100572006D01*
X107524754Y-100536799D01*
X107545493Y-100497740D01*
X107565014Y-100455465D01*
X107583217Y-100410611D01*
X107600000Y-100363815D01*
X107615264Y-100315715D01*
X107628907Y-100266946D01*
X107640827Y-100218147D01*
X107650925Y-100169954D01*
X107659099Y-100123004D01*
X107665248Y-100077934D01*
X107669271Y-100035381D01*
X107671068Y-99995982D01*
X107670535Y-99963924D01*
X107667903Y-99931397D01*
X107663263Y-99898529D01*
X107656709Y-99865444D01*
X107648332Y-99832270D01*
X107638227Y-99799133D01*
X107626484Y-99766157D01*
X107613198Y-99733469D01*
X107598459Y-99701196D01*
X107582362Y-99669462D01*
X107564997Y-99638394D01*
X107546459Y-99608119D01*
X107526839Y-99578761D01*
X107506230Y-99550448D01*
X107484725Y-99523304D01*
X107462416Y-99497457D01*
X107457176Y-99490809D01*
X107452531Y-99483210D01*
X107448455Y-99474721D01*
X107444921Y-99465404D01*
X107441902Y-99455319D01*
X107439373Y-99444528D01*
X107435677Y-99421070D01*
X107433620Y-99395521D01*
X107432991Y-99368368D01*
X107433578Y-99340102D01*
X107435170Y-99311210D01*
X107440519Y-99253508D01*
X107447347Y-99199174D01*
X107458662Y-99116259D01*
X107503513Y-98748404D01*
X107529926Y-98561155D01*
X107558973Y-98374506D01*
X107590634Y-98190572D01*
X107624890Y-98011464D01*
X107661724Y-97839295D01*
X107701117Y-97676178D01*
X107743049Y-97524224D01*
X107787502Y-97385547D01*
X107834458Y-97262259D01*
X107858868Y-97207045D01*
X107883897Y-97156471D01*
X107909543Y-97110801D01*
X107935802Y-97070298D01*
X107962672Y-97035227D01*
X107990152Y-97005851D01*
X108018239Y-96982435D01*
X108046930Y-96965242D01*
X108076224Y-96954537D01*
X108106117Y-96950585D01*
X108134790Y-96954211D01*
G36*
X108134790Y-96954211D02*
G01*
X108162808Y-96965689D01*
X108190180Y-96984506D01*
X108216912Y-97010150D01*
X108243012Y-97042108D01*
X108268485Y-97079869D01*
X108317580Y-97170749D01*
X108364255Y-97278692D01*
X108408563Y-97399602D01*
X108450561Y-97529379D01*
X108490303Y-97663928D01*
X108627822Y-98167880D01*
X108657115Y-98264821D01*
X108684485Y-98341947D01*
X108709986Y-98395161D01*
X108722053Y-98411520D01*
X108733673Y-98420366D01*
X108733673Y-98420367D01*
X108733672Y-98420367D01*
X108854434Y-98465351D01*
X108984884Y-98500498D01*
X109124042Y-98525677D01*
X109270925Y-98540760D01*
X109424551Y-98545615D01*
X109583939Y-98540115D01*
X109748108Y-98524127D01*
X109916075Y-98497523D01*
X110086859Y-98460173D01*
X110259478Y-98411946D01*
X110432951Y-98352714D01*
X110606296Y-98282345D01*
X110778530Y-98200711D01*
X110948673Y-98107680D01*
X111115743Y-98003124D01*
X111278758Y-97886913D01*
X111337181Y-97857961D01*
X111392853Y-97860527D01*
X111445666Y-97892504D01*
X111495510Y-97951784D01*
X111542278Y-98036260D01*
X111585860Y-98143826D01*
X111663033Y-98419796D01*
X111726160Y-98762838D01*
X111774373Y-99156095D01*
X111806801Y-99582711D01*
X111822577Y-100025828D01*
X111820830Y-100468592D01*
X111800692Y-100894144D01*
X111761293Y-101285628D01*
X111701765Y-101626188D01*
X111664181Y-101772104D01*
X111621238Y-101898967D01*
X111572828Y-102004671D01*
X111518843Y-102087109D01*
X111459174Y-102144173D01*
X111393711Y-102173756D01*
X111322347Y-102173752D01*
X111244973Y-102142053D01*
X111092559Y-102053211D01*
X110941556Y-101970786D01*
X110791800Y-101895219D01*
X110643129Y-101826951D01*
X110495379Y-101766422D01*
X110348386Y-101714075D01*
X110201989Y-101670351D01*
X110056024Y-101635690D01*
X109910328Y-101610533D01*
X109764738Y-101595322D01*
X109619090Y-101590498D01*
X109473222Y-101596501D01*
X109326971Y-101613774D01*
X109180173Y-101642756D01*
X109032665Y-101683890D01*
X108884285Y-101737616D01*
X108872805Y-101746308D01*
X108859582Y-101763448D01*
X108828175Y-101820797D01*
X108790591Y-101905116D01*
X108747362Y-102011859D01*
X108528565Y-102572135D01*
X108465043Y-102722797D01*
X108399050Y-102868603D01*
X108331116Y-103005006D01*
X108261770Y-103127460D01*
X108191542Y-103231418D01*
X108156262Y-103275040D01*
X108120959Y-103312333D01*
X108085701Y-103342729D01*
X108050553Y-103365659D01*
X108015581Y-103380556D01*
X107980852Y-103386850D01*
X107964180Y-103384709D01*
X107947312Y-103376692D01*
X107913089Y-103343813D01*
X107878379Y-103289786D01*
X107843382Y-103216184D01*
X107808295Y-103124579D01*
X107773316Y-103016546D01*
X107704478Y-102757483D01*
X107638451Y-102451580D01*
X107576821Y-102111420D01*
X107521175Y-101749588D01*
X107473095Y-101378667D01*
X107463507Y-101290399D01*
X107453146Y-101182286D01*
X107443029Y-101063816D01*
X107434170Y-100944474D01*
X107427587Y-100833749D01*
X107424294Y-100741127D01*
X107424200Y-100704569D01*
X107425309Y-100676094D01*
X107427749Y-100656888D01*
X107429507Y-100651132D01*
X107431646Y-100648137D01*
X107444041Y-100638985D01*
X107456245Y-100628312D01*
X107480029Y-100602722D01*
X107502900Y-100572006D01*
X107524754Y-100536799D01*
X107545493Y-100497740D01*
X107565014Y-100455465D01*
X107583217Y-100410611D01*
X107600000Y-100363815D01*
X107615264Y-100315715D01*
X107628907Y-100266946D01*
X107640827Y-100218147D01*
X107650925Y-100169954D01*
X107659099Y-100123004D01*
X107665248Y-100077934D01*
X107669271Y-100035381D01*
X107671068Y-99995982D01*
X107670535Y-99963924D01*
X107667903Y-99931397D01*
X107663263Y-99898529D01*
X107656709Y-99865444D01*
X107648332Y-99832270D01*
X107638227Y-99799133D01*
X107626484Y-99766157D01*
X107613198Y-99733469D01*
X107598459Y-99701196D01*
X107582362Y-99669462D01*
X107564997Y-99638394D01*
X107546459Y-99608119D01*
X107526839Y-99578761D01*
X107506230Y-99550448D01*
X107484725Y-99523304D01*
X107462416Y-99497457D01*
X107457176Y-99490809D01*
X107452531Y-99483210D01*
X107448455Y-99474721D01*
X107444921Y-99465404D01*
X107441902Y-99455319D01*
X107439373Y-99444528D01*
X107435677Y-99421070D01*
X107433620Y-99395521D01*
X107432991Y-99368368D01*
X107433578Y-99340102D01*
X107435170Y-99311210D01*
X107440519Y-99253508D01*
X107447347Y-99199174D01*
X107458662Y-99116259D01*
X107503513Y-98748404D01*
X107529926Y-98561155D01*
X107558973Y-98374506D01*
X107590634Y-98190572D01*
X107624890Y-98011464D01*
X107661724Y-97839295D01*
X107701117Y-97676178D01*
X107743049Y-97524224D01*
X107787502Y-97385547D01*
X107834458Y-97262259D01*
X107858868Y-97207045D01*
X107883897Y-97156471D01*
X107909543Y-97110801D01*
X107935802Y-97070298D01*
X107962672Y-97035227D01*
X107990152Y-97005851D01*
X108018239Y-96982435D01*
X108046930Y-96965242D01*
X108076224Y-96954537D01*
X108106117Y-96950585D01*
X108134790Y-96954211D01*
G37*
X106225029Y-100591558D02*
X106247409Y-100598672D01*
X106268202Y-100610750D01*
X106348911Y-100669592D01*
X106384844Y-100695131D01*
X106418655Y-100718367D01*
X106450964Y-100739513D01*
X106482389Y-100758783D01*
X106513551Y-100776392D01*
X106545068Y-100792553D01*
X106577560Y-100807479D01*
X106611647Y-100821385D01*
X106647949Y-100834485D01*
X106687083Y-100846991D01*
X106729671Y-100859119D01*
X106776331Y-100871081D01*
X106827683Y-100883091D01*
X106884346Y-100895364D01*
X106891150Y-100898411D01*
X106898930Y-100904793D01*
X106907564Y-100914312D01*
X106916930Y-100926772D01*
X106937361Y-100959728D01*
X106959239Y-101002091D01*
X106981578Y-101052288D01*
X107003395Y-101108747D01*
X107023703Y-101169897D01*
X107041519Y-101234164D01*
X107055858Y-101299977D01*
X107065734Y-101365764D01*
X107068691Y-101398157D01*
X107070163Y-101429953D01*
X107070027Y-101460957D01*
X107068160Y-101490972D01*
X107064439Y-101519802D01*
X107058741Y-101547249D01*
X107050942Y-101573118D01*
X107040920Y-101597212D01*
X107028551Y-101619334D01*
X107013712Y-101639289D01*
X106996281Y-101656879D01*
X106976134Y-101671908D01*
X106976133Y-101671908D01*
X106888633Y-101734219D01*
X106815250Y-101800430D01*
X106755171Y-101870118D01*
X106707584Y-101942863D01*
X106671676Y-102018244D01*
X106646634Y-102095838D01*
X106631647Y-102175225D01*
X106625900Y-102255982D01*
X106628583Y-102337690D01*
X106638881Y-102419925D01*
X106655983Y-102502267D01*
X106679076Y-102584294D01*
X106707347Y-102665585D01*
X106739983Y-102745719D01*
X106815103Y-102900828D01*
X106897934Y-103046250D01*
X106981976Y-103178614D01*
X107127687Y-103390681D01*
X107176355Y-103463642D01*
X107200230Y-103510059D01*
X107200839Y-103522261D01*
X107192811Y-103526562D01*
X107175335Y-103522541D01*
X107147598Y-103509778D01*
X106971009Y-103441492D01*
X106803307Y-103363966D01*
X106644793Y-103277696D01*
X106495773Y-103183178D01*
X106356549Y-103080905D01*
X106227425Y-102971372D01*
X106108705Y-102855075D01*
X106000692Y-102732509D01*
X105903689Y-102604168D01*
X105818001Y-102470547D01*
X105779494Y-102401912D01*
X105743930Y-102332142D01*
X105711346Y-102261299D01*
X105681780Y-102189446D01*
X105655271Y-102116644D01*
X105631855Y-102042955D01*
X105611572Y-101968442D01*
X105594458Y-101893165D01*
X105580553Y-101817186D01*
X105569893Y-101740568D01*
X105562517Y-101663373D01*
X105558463Y-101585662D01*
X105558816Y-101547073D01*
X105562074Y-101506787D01*
X105568088Y-101465027D01*
X105576709Y-101422014D01*
X105601170Y-101333119D01*
X105634259Y-101241879D01*
X105674778Y-101150070D01*
X105721529Y-101059469D01*
X105773314Y-100971853D01*
X105828934Y-100888998D01*
X105887192Y-100812680D01*
X105946888Y-100744677D01*
X106006827Y-100686765D01*
X106036512Y-100662148D01*
X106065808Y-100640720D01*
X106094565Y-100622704D01*
X106122634Y-100608320D01*
X106149865Y-100597792D01*
X106176107Y-100591341D01*
X106201212Y-100589189D01*
X106225029Y-100591558D01*
G36*
X106225029Y-100591558D02*
G01*
X106247409Y-100598672D01*
X106268202Y-100610750D01*
X106348911Y-100669592D01*
X106384844Y-100695131D01*
X106418655Y-100718367D01*
X106450964Y-100739513D01*
X106482389Y-100758783D01*
X106513551Y-100776392D01*
X106545068Y-100792553D01*
X106577560Y-100807479D01*
X106611647Y-100821385D01*
X106647949Y-100834485D01*
X106687083Y-100846991D01*
X106729671Y-100859119D01*
X106776331Y-100871081D01*
X106827683Y-100883091D01*
X106884346Y-100895364D01*
X106891150Y-100898411D01*
X106898930Y-100904793D01*
X106907564Y-100914312D01*
X106916930Y-100926772D01*
X106937361Y-100959728D01*
X106959239Y-101002091D01*
X106981578Y-101052288D01*
X107003395Y-101108747D01*
X107023703Y-101169897D01*
X107041519Y-101234164D01*
X107055858Y-101299977D01*
X107065734Y-101365764D01*
X107068691Y-101398157D01*
X107070163Y-101429953D01*
X107070027Y-101460957D01*
X107068160Y-101490972D01*
X107064439Y-101519802D01*
X107058741Y-101547249D01*
X107050942Y-101573118D01*
X107040920Y-101597212D01*
X107028551Y-101619334D01*
X107013712Y-101639289D01*
X106996281Y-101656879D01*
X106976134Y-101671908D01*
X106976133Y-101671908D01*
X106888633Y-101734219D01*
X106815250Y-101800430D01*
X106755171Y-101870118D01*
X106707584Y-101942863D01*
X106671676Y-102018244D01*
X106646634Y-102095838D01*
X106631647Y-102175225D01*
X106625900Y-102255982D01*
X106628583Y-102337690D01*
X106638881Y-102419925D01*
X106655983Y-102502267D01*
X106679076Y-102584294D01*
X106707347Y-102665585D01*
X106739983Y-102745719D01*
X106815103Y-102900828D01*
X106897934Y-103046250D01*
X106981976Y-103178614D01*
X107127687Y-103390681D01*
X107176355Y-103463642D01*
X107200230Y-103510059D01*
X107200839Y-103522261D01*
X107192811Y-103526562D01*
X107175335Y-103522541D01*
X107147598Y-103509778D01*
X106971009Y-103441492D01*
X106803307Y-103363966D01*
X106644793Y-103277696D01*
X106495773Y-103183178D01*
X106356549Y-103080905D01*
X106227425Y-102971372D01*
X106108705Y-102855075D01*
X106000692Y-102732509D01*
X105903689Y-102604168D01*
X105818001Y-102470547D01*
X105779494Y-102401912D01*
X105743930Y-102332142D01*
X105711346Y-102261299D01*
X105681780Y-102189446D01*
X105655271Y-102116644D01*
X105631855Y-102042955D01*
X105611572Y-101968442D01*
X105594458Y-101893165D01*
X105580553Y-101817186D01*
X105569893Y-101740568D01*
X105562517Y-101663373D01*
X105558463Y-101585662D01*
X105558816Y-101547073D01*
X105562074Y-101506787D01*
X105568088Y-101465027D01*
X105576709Y-101422014D01*
X105601170Y-101333119D01*
X105634259Y-101241879D01*
X105674778Y-101150070D01*
X105721529Y-101059469D01*
X105773314Y-100971853D01*
X105828934Y-100888998D01*
X105887192Y-100812680D01*
X105946888Y-100744677D01*
X106006827Y-100686765D01*
X106036512Y-100662148D01*
X106065808Y-100640720D01*
X106094565Y-100622704D01*
X106122634Y-100608320D01*
X106149865Y-100597792D01*
X106176107Y-100591341D01*
X106201212Y-100589189D01*
X106225029Y-100591558D01*
G37*
D15*
X115620000Y-127700000D02*
X121820000Y-127700000D01*
X121820000Y-135600000D01*
X115620000Y-135600000D01*
X115620000Y-127700000D01*
D11*
X106916394Y-99264677D02*
X106956060Y-99267693D01*
X106995149Y-99272660D01*
X107033612Y-99279529D01*
X107071401Y-99288251D01*
X107108465Y-99298776D01*
X107144757Y-99311055D01*
X107180226Y-99325041D01*
X107214824Y-99340682D01*
X107248502Y-99357931D01*
X107281211Y-99376738D01*
X107312901Y-99397054D01*
X107343524Y-99418831D01*
X107373030Y-99442018D01*
X107401371Y-99466567D01*
X107428497Y-99492429D01*
X107454359Y-99519555D01*
X107478908Y-99547896D01*
X107502095Y-99577402D01*
X107523872Y-99608025D01*
X107544188Y-99639715D01*
X107562995Y-99672424D01*
X107580244Y-99706102D01*
X107595885Y-99740700D01*
X107609870Y-99776169D01*
X107622150Y-99812460D01*
X107632675Y-99849525D01*
X107641397Y-99887313D01*
X107648265Y-99925777D01*
X107653233Y-99964866D01*
X107656249Y-100004531D01*
X107657265Y-100044725D01*
X107656249Y-100084918D01*
X107653233Y-100124584D01*
X107648265Y-100163673D01*
X107641397Y-100202137D01*
X107632675Y-100239925D01*
X107622150Y-100276990D01*
X107609870Y-100313281D01*
X107595885Y-100348751D01*
X107580244Y-100383349D01*
X107562995Y-100417027D01*
X107544188Y-100449736D01*
X107523872Y-100481426D01*
X107502095Y-100512049D01*
X107478908Y-100541555D01*
X107454359Y-100569896D01*
X107428497Y-100597022D01*
X107401371Y-100622884D01*
X107373030Y-100647433D01*
X107343524Y-100670620D01*
X107312901Y-100692397D01*
X107281211Y-100712713D01*
X107248502Y-100731520D01*
X107214824Y-100748769D01*
X107180226Y-100764411D01*
X107144757Y-100778396D01*
X107108465Y-100790675D01*
X107071401Y-100801201D01*
X107033612Y-100809922D01*
X106995149Y-100816791D01*
X106956060Y-100821758D01*
X106916394Y-100824774D01*
X106876201Y-100825791D01*
X106836007Y-100824774D01*
X106796341Y-100821758D01*
X106757252Y-100816791D01*
X106718788Y-100809922D01*
X106681000Y-100801201D01*
X106643935Y-100790675D01*
X106607644Y-100778396D01*
X106572174Y-100764411D01*
X106537576Y-100748769D01*
X106503898Y-100731520D01*
X106471189Y-100712713D01*
X106439499Y-100692397D01*
X106408876Y-100670620D01*
X106379370Y-100647433D01*
X106351030Y-100622884D01*
X106323904Y-100597022D01*
X106298042Y-100569896D01*
X106273492Y-100541555D01*
X106250305Y-100512049D01*
X106228529Y-100481426D01*
X106208213Y-100449736D01*
X106189406Y-100417027D01*
X106172157Y-100383349D01*
X106156515Y-100348751D01*
X106142530Y-100313281D01*
X106130251Y-100276990D01*
X106119725Y-100239925D01*
X106111004Y-100202137D01*
X106104135Y-100163673D01*
X106099168Y-100124584D01*
X106096152Y-100084918D01*
X106095136Y-100044725D01*
X106096152Y-100004531D01*
X106099168Y-99964866D01*
X106104135Y-99925777D01*
X106111004Y-99887313D01*
X106119725Y-99849525D01*
X106130251Y-99812460D01*
X106142530Y-99776169D01*
X106156515Y-99740700D01*
X106172157Y-99706102D01*
X106189406Y-99672424D01*
X106208213Y-99639715D01*
X106228529Y-99608025D01*
X106250305Y-99577402D01*
X106273492Y-99547896D01*
X106298042Y-99519555D01*
X106323904Y-99492429D01*
X106351030Y-99466567D01*
X106379370Y-99442018D01*
X106408876Y-99418831D01*
X106439499Y-99397054D01*
X106471189Y-99376738D01*
X106503898Y-99357931D01*
X106537576Y-99340682D01*
X106572174Y-99325041D01*
X106607644Y-99311055D01*
X106643935Y-99298776D01*
X106681000Y-99288251D01*
X106718788Y-99279529D01*
X106757252Y-99272660D01*
X106796341Y-99267693D01*
X106836007Y-99264677D01*
X106876201Y-99263661D01*
X106916394Y-99264677D01*
D12*
X101897203Y-103472399D02*
X101906766Y-103472573D01*
X101920306Y-103472740D01*
X101940412Y-103472910D01*
X101967084Y-103473088D01*
X101992582Y-103473254D01*
X102020924Y-103473465D01*
X102052007Y-103473743D01*
X102068546Y-103473916D01*
X102085732Y-103474115D01*
X102103553Y-103474343D01*
X102121997Y-103474604D01*
X102141050Y-103474901D01*
X102160701Y-103475237D01*
X102180935Y-103475614D01*
X102201742Y-103476036D01*
X102223108Y-103476506D01*
X102245020Y-103477027D01*
X102267466Y-103477603D01*
X102290434Y-103478236D01*
X102313910Y-103478929D01*
X102337882Y-103479686D01*
X102362337Y-103480509D01*
X102387263Y-103481402D01*
X102412647Y-103482368D01*
X102438476Y-103483410D01*
X102464738Y-103484530D01*
X102491420Y-103485733D01*
X102518509Y-103487021D01*
X102545994Y-103488397D01*
X102573860Y-103489865D01*
X102602096Y-103491427D01*
X102630689Y-103493086D01*
X102645116Y-103493954D01*
X102659626Y-103494847D01*
X102674220Y-103495765D01*
X102688895Y-103496711D01*
X102703650Y-103497682D01*
X102718483Y-103498681D01*
X102733392Y-103499708D01*
X102748377Y-103500762D01*
X102763435Y-103501845D01*
X102778565Y-103502956D01*
X102793765Y-103504096D01*
X102809033Y-103505266D01*
X102824369Y-103506465D01*
X102839770Y-103507695D01*
X102855236Y-103508955D01*
X102870763Y-103510246D01*
X102886352Y-103511569D01*
X102901999Y-103512923D01*
X102917704Y-103514309D01*
X102933466Y-103515728D01*
X102949281Y-103517180D01*
X102965150Y-103518665D01*
X102981070Y-103520184D01*
X102997039Y-103521737D01*
X103013057Y-103523324D01*
X103029121Y-103524946D01*
X103045231Y-103526604D01*
X103061383Y-103528297D01*
X103077578Y-103530026D01*
X103093812Y-103531791D01*
X103110086Y-103533593D01*
X103126396Y-103535432D01*
X103142742Y-103537309D01*
X103159122Y-103539224D01*
X103175534Y-103541177D01*
X103191977Y-103543169D01*
X103208449Y-103545199D01*
X103224948Y-103547270D01*
X103241474Y-103549380D01*
X103258024Y-103551530D01*
X103274597Y-103553721D01*
X103291191Y-103555953D01*
X103307805Y-103558227D01*
X103324437Y-103560542D01*
X103341086Y-103562900D01*
X103357749Y-103565300D01*
X103374426Y-103567743D01*
X103391115Y-103570229D01*
X103407814Y-103572759D01*
X103424521Y-103575334D01*
X103441236Y-103577952D01*
X103457956Y-103580616D01*
X103474679Y-103583325D01*
X103491406Y-103586079D01*
X103508133Y-103588880D01*
X103524859Y-103591727D01*
X103541582Y-103594621D01*
X103558302Y-103597562D01*
X103575016Y-103600551D01*
X103591723Y-103603588D01*
X103608421Y-103606673D01*
X103625109Y-103609806D01*
X103641784Y-103612989D01*
X103658447Y-103616222D01*
X103675094Y-103619504D01*
X103691725Y-103622837D01*
X103708337Y-103626221D01*
X103724930Y-103629655D01*
X103741501Y-103633141D01*
X103758049Y-103636679D01*
X103774573Y-103640269D01*
X103791070Y-103643912D01*
X103807540Y-103647608D01*
X103823980Y-103651357D01*
X103840390Y-103655160D01*
X103856767Y-103659017D01*
X103873110Y-103662929D01*
X103889418Y-103666895D01*
X103905688Y-103670917D01*
X103921920Y-103674995D01*
X103938111Y-103679129D01*
X103954260Y-103683319D01*
X103970366Y-103687567D01*
X103986426Y-103691871D01*
X104002440Y-103696233D01*
X104018406Y-103700654D01*
X104034322Y-103705132D01*
X104050186Y-103709670D01*
X104065997Y-103714267D01*
X104081754Y-103718923D01*
X104097455Y-103723639D01*
X104113098Y-103728416D01*
X104128681Y-103733253D01*
X104144204Y-103738152D01*
X104159664Y-103743112D01*
X104175060Y-103748134D01*
X104182734Y-103750668D01*
X104190391Y-103753218D01*
X104198031Y-103755784D01*
X104205654Y-103758365D01*
X104213260Y-103760962D01*
X104220849Y-103763575D01*
X104228419Y-103766204D01*
X104235973Y-103768849D01*
X104243508Y-103771510D01*
X104251025Y-103774186D01*
X104258523Y-103776879D01*
X104266003Y-103779588D01*
X104273464Y-103782313D01*
X104280907Y-103785054D01*
X104288330Y-103787812D01*
X104295733Y-103790585D01*
X104303118Y-103793376D01*
X104310482Y-103796182D01*
X104317826Y-103799005D01*
X104325151Y-103801845D01*
X104332454Y-103804701D01*
X104339738Y-103807573D01*
X104347000Y-103810462D01*
X104354242Y-103813368D01*
X104361462Y-103816291D01*
X104368661Y-103819231D01*
X104375839Y-103822187D01*
X104382995Y-103825160D01*
X104390128Y-103828150D01*
X104397240Y-103831157D01*
X104404330Y-103834181D01*
X104411396Y-103837223D01*
X104418440Y-103840281D01*
X104425462Y-103843356D01*
X104432460Y-103846449D01*
X104439434Y-103849559D01*
X104446386Y-103852686D01*
X104453313Y-103855831D01*
X104460217Y-103858993D01*
X104467096Y-103862173D01*
X104473951Y-103865370D01*
X104480782Y-103868584D01*
X104487588Y-103871817D01*
X104494369Y-103875066D01*
X104501125Y-103878334D01*
X104507855Y-103881619D01*
X104514560Y-103884923D01*
X104521240Y-103888244D01*
X104527893Y-103891582D01*
X104534521Y-103894939D01*
X104541122Y-103898314D01*
X104547697Y-103901707D01*
X104554245Y-103905118D01*
X104560766Y-103908547D01*
X104567260Y-103911994D01*
X104573727Y-103915460D01*
X104580166Y-103918944D01*
X104586577Y-103922446D01*
X104592961Y-103925966D01*
X104599317Y-103929505D01*
X104605644Y-103933063D01*
X104611943Y-103936639D01*
X104618214Y-103940233D01*
X104624455Y-103943846D01*
X104630667Y-103947478D01*
X104636851Y-103951129D01*
X104643004Y-103954798D01*
X104649128Y-103958486D01*
X104655223Y-103962193D01*
X104661287Y-103965919D01*
X104667321Y-103969664D01*
X104673324Y-103973428D01*
X104679297Y-103977211D01*
X104685239Y-103981013D01*
X104691150Y-103984834D01*
X104697030Y-103988674D01*
X104702878Y-103992534D01*
X104708695Y-103996413D01*
X104714480Y-104000311D01*
X104720233Y-104004229D01*
X104725953Y-104008166D01*
X104731642Y-104012123D01*
X104737297Y-104016099D01*
X104742920Y-104020095D01*
X104748510Y-104024110D01*
X104754067Y-104028145D01*
X104759590Y-104032200D01*
X104765080Y-104036275D01*
X104770535Y-104040369D01*
X104775957Y-104044483D01*
X104781345Y-104048618D01*
X104786698Y-104052772D01*
X104792017Y-104056946D01*
X104797301Y-104061141D01*
X104802550Y-104065355D01*
X104807764Y-104069590D01*
X104812942Y-104073844D01*
X104818085Y-104078120D01*
X104823192Y-104082415D01*
X104828263Y-104086731D01*
X104833298Y-104091067D01*
X104838297Y-104095424D01*
X104843259Y-104099801D01*
X104848184Y-104104199D01*
X104853072Y-104108617D01*
X104857923Y-104113056D01*
X104862737Y-104117516D01*
X104867513Y-104121996D01*
X104872252Y-104126497D01*
X104876953Y-104131020D01*
X104881615Y-104135563D01*
X104886239Y-104140126D01*
X104890825Y-104144711D01*
X104895371Y-104149317D01*
X104899879Y-104153944D01*
X104904348Y-104158593D01*
X104908778Y-104163262D01*
X104913168Y-104167953D01*
X104917518Y-104172665D01*
X104921828Y-104177398D01*
X104926098Y-104182152D01*
X104930328Y-104186929D01*
X104934517Y-104191726D01*
X104938666Y-104196545D01*
X104942774Y-104201386D01*
X104946840Y-104206248D01*
X104950866Y-104211132D01*
X104954850Y-104216038D01*
X104958792Y-104220965D01*
X104962692Y-104225914D01*
X104966550Y-104230885D01*
X104970366Y-104235878D01*
X104974139Y-104240893D01*
X104977870Y-104245930D01*
X104981558Y-104250989D01*
X104985203Y-104256070D01*
X104988804Y-104261174D01*
X104992362Y-104266299D01*
X104995877Y-104271447D01*
X104999347Y-104276617D01*
X105002774Y-104281809D01*
X105006156Y-104287024D01*
X105009493Y-104292261D01*
X105012786Y-104297521D01*
X105016035Y-104302803D01*
X105019238Y-104308108D01*
X105022396Y-104313435D01*
X105025508Y-104318786D01*
X105028575Y-104324159D01*
X105031596Y-104329554D01*
X105034571Y-104334973D01*
X105037499Y-104340414D01*
X105040381Y-104345878D01*
X105043217Y-104351366D01*
X105046006Y-104356876D01*
X105048748Y-104362409D01*
X105051442Y-104367966D01*
X105054089Y-104373546D01*
X105056689Y-104379149D01*
X105059240Y-104384775D01*
X105061744Y-104390424D01*
X105064199Y-104396097D01*
X105066606Y-104401793D01*
X105068965Y-104407513D01*
X105071274Y-104413256D01*
X105073535Y-104419023D01*
X105075746Y-104424813D01*
X105077908Y-104430627D01*
X105080021Y-104436465D01*
X105082083Y-104442327D01*
X105084096Y-104448212D01*
X105086058Y-104454121D01*
X105087970Y-104460054D01*
X105089832Y-104466011D01*
X105091642Y-104471992D01*
X105093402Y-104477997D01*
X105095110Y-104484026D01*
X105096768Y-104490079D01*
X105098373Y-104496157D01*
X105099927Y-104502258D01*
X105101429Y-104508384D01*
X105102878Y-104514535D01*
X105104276Y-104520709D01*
X105105621Y-104526908D01*
X105106913Y-104533132D01*
X105108152Y-104539380D01*
X105109337Y-104545653D01*
X105110470Y-104551950D01*
X105111549Y-104558272D01*
X105112574Y-104564618D01*
X105113546Y-104570990D01*
X105114463Y-104577386D01*
X105115326Y-104583807D01*
X105116134Y-104590253D01*
X105116887Y-104596724D01*
X105117586Y-104603220D01*
D14*
X107200839Y-96598596D02*
X107200230Y-96610797D01*
X107176355Y-96657214D01*
X107127687Y-96730175D01*
X106981976Y-96942242D01*
X106897934Y-97074606D01*
X106815103Y-97220028D01*
X106739983Y-97375137D01*
X106707347Y-97455271D01*
X106679076Y-97536562D01*
X106655983Y-97618590D01*
X106638881Y-97700932D01*
X106628583Y-97783167D01*
X106625900Y-97864874D01*
X106631647Y-97945632D01*
X106646634Y-98025019D01*
X106671676Y-98102613D01*
X106707584Y-98177994D01*
X106755171Y-98250739D01*
X106815250Y-98320428D01*
X106888633Y-98386639D01*
X106976133Y-98448950D01*
X106976134Y-98448948D01*
X106996281Y-98463977D01*
X107013712Y-98481567D01*
X107028551Y-98501521D01*
X107040920Y-98523643D01*
X107050942Y-98547737D01*
X107058741Y-98573606D01*
X107064439Y-98601054D01*
X107068160Y-98629883D01*
X107070027Y-98659898D01*
X107070163Y-98690902D01*
X107068691Y-98722699D01*
X107065734Y-98755091D01*
X107055858Y-98820878D01*
X107041519Y-98886691D01*
X107023703Y-98950958D01*
X107003395Y-99012107D01*
X106981578Y-99068566D01*
X106959239Y-99118763D01*
X106937361Y-99161126D01*
X106916930Y-99194083D01*
X106907564Y-99206543D01*
X106898930Y-99216062D01*
X106891150Y-99222443D01*
X106884346Y-99225491D01*
X106827683Y-99237764D01*
X106776331Y-99249775D01*
X106729671Y-99261737D01*
X106687083Y-99273865D01*
X106647949Y-99286371D01*
X106611647Y-99299471D01*
X106577560Y-99313377D01*
X106545068Y-99328304D01*
X106513551Y-99344464D01*
X106482389Y-99362073D01*
X106450964Y-99381344D01*
X106418655Y-99402490D01*
X106384844Y-99425726D01*
X106348911Y-99451264D01*
X106268202Y-99510106D01*
X106247409Y-99522185D01*
X106225029Y-99529298D01*
X106201212Y-99531668D01*
X106176107Y-99529516D01*
X106149865Y-99523065D01*
X106122634Y-99512536D01*
X106094565Y-99498153D01*
X106065808Y-99480136D01*
X106036512Y-99458708D01*
X106006827Y-99434091D01*
X105946888Y-99376179D01*
X105887192Y-99308176D01*
X105828934Y-99231859D01*
X105773314Y-99149003D01*
X105721529Y-99061387D01*
X105674778Y-98970786D01*
X105634259Y-98878977D01*
X105601170Y-98787737D01*
X105576709Y-98698842D01*
X105568088Y-98655829D01*
X105562074Y-98614068D01*
X105558816Y-98573783D01*
X105558463Y-98535194D01*
X105562517Y-98457483D01*
X105569893Y-98380287D01*
X105580553Y-98303670D01*
X105594458Y-98227691D01*
X105611572Y-98152414D01*
X105631855Y-98077901D01*
X105655271Y-98004212D01*
X105681780Y-97931410D01*
X105711346Y-97859557D01*
X105743930Y-97788715D01*
X105779494Y-97718945D01*
X105818001Y-97650309D01*
X105903689Y-97516689D01*
X106000692Y-97388348D01*
X106108705Y-97265782D01*
X106227425Y-97149485D01*
X106356549Y-97039953D01*
X106495773Y-96937680D01*
X106644793Y-96843161D01*
X106803307Y-96756891D01*
X106971009Y-96679365D01*
X107147598Y-96611078D01*
X107175335Y-96598315D01*
X107192811Y-96594295D01*
X107200839Y-96598596D01*
G36*
X107200839Y-96598596D02*
G01*
X107200230Y-96610797D01*
X107176355Y-96657214D01*
X107127687Y-96730175D01*
X106981976Y-96942242D01*
X106897934Y-97074606D01*
X106815103Y-97220028D01*
X106739983Y-97375137D01*
X106707347Y-97455271D01*
X106679076Y-97536562D01*
X106655983Y-97618590D01*
X106638881Y-97700932D01*
X106628583Y-97783167D01*
X106625900Y-97864874D01*
X106631647Y-97945632D01*
X106646634Y-98025019D01*
X106671676Y-98102613D01*
X106707584Y-98177994D01*
X106755171Y-98250739D01*
X106815250Y-98320428D01*
X106888633Y-98386639D01*
X106976133Y-98448950D01*
X106976134Y-98448948D01*
X106996281Y-98463977D01*
X107013712Y-98481567D01*
X107028551Y-98501521D01*
X107040920Y-98523643D01*
X107050942Y-98547737D01*
X107058741Y-98573606D01*
X107064439Y-98601054D01*
X107068160Y-98629883D01*
X107070027Y-98659898D01*
X107070163Y-98690902D01*
X107068691Y-98722699D01*
X107065734Y-98755091D01*
X107055858Y-98820878D01*
X107041519Y-98886691D01*
X107023703Y-98950958D01*
X107003395Y-99012107D01*
X106981578Y-99068566D01*
X106959239Y-99118763D01*
X106937361Y-99161126D01*
X106916930Y-99194083D01*
X106907564Y-99206543D01*
X106898930Y-99216062D01*
X106891150Y-99222443D01*
X106884346Y-99225491D01*
X106827683Y-99237764D01*
X106776331Y-99249775D01*
X106729671Y-99261737D01*
X106687083Y-99273865D01*
X106647949Y-99286371D01*
X106611647Y-99299471D01*
X106577560Y-99313377D01*
X106545068Y-99328304D01*
X106513551Y-99344464D01*
X106482389Y-99362073D01*
X106450964Y-99381344D01*
X106418655Y-99402490D01*
X106384844Y-99425726D01*
X106348911Y-99451264D01*
X106268202Y-99510106D01*
X106247409Y-99522185D01*
X106225029Y-99529298D01*
X106201212Y-99531668D01*
X106176107Y-99529516D01*
X106149865Y-99523065D01*
X106122634Y-99512536D01*
X106094565Y-99498153D01*
X106065808Y-99480136D01*
X106036512Y-99458708D01*
X106006827Y-99434091D01*
X105946888Y-99376179D01*
X105887192Y-99308176D01*
X105828934Y-99231859D01*
X105773314Y-99149003D01*
X105721529Y-99061387D01*
X105674778Y-98970786D01*
X105634259Y-98878977D01*
X105601170Y-98787737D01*
X105576709Y-98698842D01*
X105568088Y-98655829D01*
X105562074Y-98614068D01*
X105558816Y-98573783D01*
X105558463Y-98535194D01*
X105562517Y-98457483D01*
X105569893Y-98380287D01*
X105580553Y-98303670D01*
X105594458Y-98227691D01*
X105611572Y-98152414D01*
X105631855Y-98077901D01*
X105655271Y-98004212D01*
X105681780Y-97931410D01*
X105711346Y-97859557D01*
X105743930Y-97788715D01*
X105779494Y-97718945D01*
X105818001Y-97650309D01*
X105903689Y-97516689D01*
X106000692Y-97388348D01*
X106108705Y-97265782D01*
X106227425Y-97149485D01*
X106356549Y-97039953D01*
X106495773Y-96937680D01*
X106644793Y-96843161D01*
X106803307Y-96756891D01*
X106971009Y-96679365D01*
X107147598Y-96611078D01*
X107175335Y-96598315D01*
X107192811Y-96594295D01*
X107200839Y-96598596D01*
G37*
D15*
X100494247Y-119167544D02*
X99684723Y-119167544D01*
X99684723Y-119167544D02*
X99589485Y-119215163D01*
X99589485Y-119215163D02*
X99541866Y-119262782D01*
X99541866Y-119262782D02*
X99494247Y-119358020D01*
X99494247Y-119358020D02*
X99494247Y-119500877D01*
X99494247Y-119500877D02*
X99541866Y-119596115D01*
X99875200Y-119167544D02*
X99827580Y-119262782D01*
X99827580Y-119262782D02*
X99827580Y-119453258D01*
X99827580Y-119453258D02*
X99875200Y-119548496D01*
X99875200Y-119548496D02*
X99922819Y-119596115D01*
X99922819Y-119596115D02*
X100018057Y-119643734D01*
X100018057Y-119643734D02*
X100303771Y-119643734D01*
X100303771Y-119643734D02*
X100399009Y-119596115D01*
X100399009Y-119596115D02*
X100446628Y-119548496D01*
X100446628Y-119548496D02*
X100494247Y-119453258D01*
X100494247Y-119453258D02*
X100494247Y-119262782D01*
X100494247Y-119262782D02*
X100446628Y-119167544D01*
X99827580Y-118691353D02*
X100494247Y-118691353D01*
X100827580Y-118691353D02*
X100779961Y-118738972D01*
X100779961Y-118738972D02*
X100732342Y-118691353D01*
X100732342Y-118691353D02*
X100779961Y-118643734D01*
X100779961Y-118643734D02*
X100827580Y-118691353D01*
X100827580Y-118691353D02*
X100732342Y-118691353D01*
X100494247Y-118358020D02*
X100494247Y-117977068D01*
X100827580Y-118215163D02*
X99970438Y-118215163D01*
X99970438Y-118215163D02*
X99875200Y-118167544D01*
X99875200Y-118167544D02*
X99827580Y-118072306D01*
X99827580Y-118072306D02*
X99827580Y-117977068D01*
X99827580Y-117643734D02*
X100827580Y-117643734D01*
X99827580Y-117215163D02*
X100351390Y-117215163D01*
X100351390Y-117215163D02*
X100446628Y-117262782D01*
X100446628Y-117262782D02*
X100494247Y-117358020D01*
X100494247Y-117358020D02*
X100494247Y-117500877D01*
X100494247Y-117500877D02*
X100446628Y-117596115D01*
X100446628Y-117596115D02*
X100399009Y-117643734D01*
X100494247Y-116310401D02*
X99827580Y-116310401D01*
X100494247Y-116738972D02*
X99970438Y-116738972D01*
X99970438Y-116738972D02*
X99875200Y-116691353D01*
X99875200Y-116691353D02*
X99827580Y-116596115D01*
X99827580Y-116596115D02*
X99827580Y-116453258D01*
X99827580Y-116453258D02*
X99875200Y-116358020D01*
X99875200Y-116358020D02*
X99922819Y-116310401D01*
X99827580Y-115834210D02*
X100827580Y-115834210D01*
X100446628Y-115834210D02*
X100494247Y-115738972D01*
X100494247Y-115738972D02*
X100494247Y-115548496D01*
X100494247Y-115548496D02*
X100446628Y-115453258D01*
X100446628Y-115453258D02*
X100399009Y-115405639D01*
X100399009Y-115405639D02*
X100303771Y-115358020D01*
X100303771Y-115358020D02*
X100018057Y-115358020D01*
X100018057Y-115358020D02*
X99922819Y-115405639D01*
X99922819Y-115405639D02*
X99875200Y-115453258D01*
X99875200Y-115453258D02*
X99827580Y-115548496D01*
X99827580Y-115548496D02*
X99827580Y-115738972D01*
X99827580Y-115738972D02*
X99875200Y-115834210D01*
X99922819Y-114929448D02*
X99875200Y-114881829D01*
X99875200Y-114881829D02*
X99827580Y-114929448D01*
X99827580Y-114929448D02*
X99875200Y-114977067D01*
X99875200Y-114977067D02*
X99922819Y-114929448D01*
X99922819Y-114929448D02*
X99827580Y-114929448D01*
X99875200Y-114024687D02*
X99827580Y-114119925D01*
X99827580Y-114119925D02*
X99827580Y-114310401D01*
X99827580Y-114310401D02*
X99875200Y-114405639D01*
X99875200Y-114405639D02*
X99922819Y-114453258D01*
X99922819Y-114453258D02*
X100018057Y-114500877D01*
X100018057Y-114500877D02*
X100303771Y-114500877D01*
X100303771Y-114500877D02*
X100399009Y-114453258D01*
X100399009Y-114453258D02*
X100446628Y-114405639D01*
X100446628Y-114405639D02*
X100494247Y-114310401D01*
X100494247Y-114310401D02*
X100494247Y-114119925D01*
X100494247Y-114119925D02*
X100446628Y-114024687D01*
X99827580Y-113453258D02*
X99875200Y-113548496D01*
X99875200Y-113548496D02*
X99922819Y-113596115D01*
X99922819Y-113596115D02*
X100018057Y-113643734D01*
X100018057Y-113643734D02*
X100303771Y-113643734D01*
X100303771Y-113643734D02*
X100399009Y-113596115D01*
X100399009Y-113596115D02*
X100446628Y-113548496D01*
X100446628Y-113548496D02*
X100494247Y-113453258D01*
X100494247Y-113453258D02*
X100494247Y-113310401D01*
X100494247Y-113310401D02*
X100446628Y-113215163D01*
X100446628Y-113215163D02*
X100399009Y-113167544D01*
X100399009Y-113167544D02*
X100303771Y-113119925D01*
X100303771Y-113119925D02*
X100018057Y-113119925D01*
X100018057Y-113119925D02*
X99922819Y-113167544D01*
X99922819Y-113167544D02*
X99875200Y-113215163D01*
X99875200Y-113215163D02*
X99827580Y-113310401D01*
X99827580Y-113310401D02*
X99827580Y-113453258D01*
X99827580Y-112691353D02*
X100494247Y-112691353D01*
X100399009Y-112691353D02*
X100446628Y-112643734D01*
X100446628Y-112643734D02*
X100494247Y-112548496D01*
X100494247Y-112548496D02*
X100494247Y-112405639D01*
X100494247Y-112405639D02*
X100446628Y-112310401D01*
X100446628Y-112310401D02*
X100351390Y-112262782D01*
X100351390Y-112262782D02*
X99827580Y-112262782D01*
X100351390Y-112262782D02*
X100446628Y-112215163D01*
X100446628Y-112215163D02*
X100494247Y-112119925D01*
X100494247Y-112119925D02*
X100494247Y-111977068D01*
X100494247Y-111977068D02*
X100446628Y-111881829D01*
X100446628Y-111881829D02*
X100351390Y-111834210D01*
X100351390Y-111834210D02*
X99827580Y-111834210D01*
X100875200Y-110643735D02*
X99589485Y-111500877D01*
X99827580Y-110310401D02*
X100827580Y-110310401D01*
X100827580Y-110310401D02*
X100827580Y-110072306D01*
X100827580Y-110072306D02*
X100779961Y-109929449D01*
X100779961Y-109929449D02*
X100684723Y-109834211D01*
X100684723Y-109834211D02*
X100589485Y-109786592D01*
X100589485Y-109786592D02*
X100399009Y-109738973D01*
X100399009Y-109738973D02*
X100256152Y-109738973D01*
X100256152Y-109738973D02*
X100065676Y-109786592D01*
X100065676Y-109786592D02*
X99970438Y-109834211D01*
X99970438Y-109834211D02*
X99875200Y-109929449D01*
X99875200Y-109929449D02*
X99827580Y-110072306D01*
X99827580Y-110072306D02*
X99827580Y-110310401D01*
X99827580Y-109310401D02*
X100494247Y-109310401D01*
X100303771Y-109310401D02*
X100399009Y-109262782D01*
X100399009Y-109262782D02*
X100446628Y-109215163D01*
X100446628Y-109215163D02*
X100494247Y-109119925D01*
X100494247Y-109119925D02*
X100494247Y-109024687D01*
X100779961Y-108167544D02*
X100827580Y-108262782D01*
X100827580Y-108262782D02*
X100827580Y-108405639D01*
X100827580Y-108405639D02*
X100779961Y-108548496D01*
X100779961Y-108548496D02*
X100684723Y-108643734D01*
X100684723Y-108643734D02*
X100589485Y-108691353D01*
X100589485Y-108691353D02*
X100399009Y-108738972D01*
X100399009Y-108738972D02*
X100256152Y-108738972D01*
X100256152Y-108738972D02*
X100065676Y-108691353D01*
X100065676Y-108691353D02*
X99970438Y-108643734D01*
X99970438Y-108643734D02*
X99875200Y-108548496D01*
X99875200Y-108548496D02*
X99827580Y-108405639D01*
X99827580Y-108405639D02*
X99827580Y-108310401D01*
X99827580Y-108310401D02*
X99875200Y-108167544D01*
X99875200Y-108167544D02*
X99922819Y-108119925D01*
X99922819Y-108119925D02*
X100256152Y-108119925D01*
X100256152Y-108119925D02*
X100256152Y-108310401D01*
X99827580Y-107548496D02*
X99875200Y-107643734D01*
X99875200Y-107643734D02*
X99970438Y-107691353D01*
X99970438Y-107691353D02*
X100827580Y-107691353D01*
X99827580Y-106738972D02*
X100351390Y-106738972D01*
X100351390Y-106738972D02*
X100446628Y-106786591D01*
X100446628Y-106786591D02*
X100494247Y-106881829D01*
X100494247Y-106881829D02*
X100494247Y-107072305D01*
X100494247Y-107072305D02*
X100446628Y-107167543D01*
X99875200Y-106738972D02*
X99827580Y-106834210D01*
X99827580Y-106834210D02*
X99827580Y-107072305D01*
X99827580Y-107072305D02*
X99875200Y-107167543D01*
X99875200Y-107167543D02*
X99970438Y-107215162D01*
X99970438Y-107215162D02*
X100065676Y-107215162D01*
X100065676Y-107215162D02*
X100160914Y-107167543D01*
X100160914Y-107167543D02*
X100208533Y-107072305D01*
X100208533Y-107072305D02*
X100208533Y-106834210D01*
X100208533Y-106834210D02*
X100256152Y-106738972D01*
X100494247Y-105834210D02*
X99827580Y-105834210D01*
X100494247Y-106262781D02*
X99970438Y-106262781D01*
X99970438Y-106262781D02*
X99875200Y-106215162D01*
X99875200Y-106215162D02*
X99827580Y-106119924D01*
X99827580Y-106119924D02*
X99827580Y-105977067D01*
X99827580Y-105977067D02*
X99875200Y-105881829D01*
X99875200Y-105881829D02*
X99922819Y-105834210D01*
X99875200Y-104929448D02*
X99827580Y-105024686D01*
X99827580Y-105024686D02*
X99827580Y-105215162D01*
X99827580Y-105215162D02*
X99875200Y-105310400D01*
X99875200Y-105310400D02*
X99922819Y-105358019D01*
X99922819Y-105358019D02*
X100018057Y-105405638D01*
X100018057Y-105405638D02*
X100303771Y-105405638D01*
X100303771Y-105405638D02*
X100399009Y-105358019D01*
X100399009Y-105358019D02*
X100446628Y-105310400D01*
X100446628Y-105310400D02*
X100494247Y-105215162D01*
X100494247Y-105215162D02*
X100494247Y-105024686D01*
X100494247Y-105024686D02*
X100446628Y-104929448D01*
X99827580Y-104358019D02*
X99875200Y-104453257D01*
X99875200Y-104453257D02*
X99922819Y-104500876D01*
X99922819Y-104500876D02*
X100018057Y-104548495D01*
X100018057Y-104548495D02*
X100303771Y-104548495D01*
X100303771Y-104548495D02*
X100399009Y-104500876D01*
X100399009Y-104500876D02*
X100446628Y-104453257D01*
X100446628Y-104453257D02*
X100494247Y-104358019D01*
X100494247Y-104358019D02*
X100494247Y-104215162D01*
X100494247Y-104215162D02*
X100446628Y-104119924D01*
X100446628Y-104119924D02*
X100399009Y-104072305D01*
X100399009Y-104072305D02*
X100303771Y-104024686D01*
X100303771Y-104024686D02*
X100018057Y-104024686D01*
X100018057Y-104024686D02*
X99922819Y-104072305D01*
X99922819Y-104072305D02*
X99875200Y-104119924D01*
X99875200Y-104119924D02*
X99827580Y-104215162D01*
X99827580Y-104215162D02*
X99827580Y-104358019D01*
X100494247Y-103167543D02*
X99827580Y-103167543D01*
X100494247Y-103596114D02*
X99970438Y-103596114D01*
X99970438Y-103596114D02*
X99875200Y-103548495D01*
X99875200Y-103548495D02*
X99827580Y-103453257D01*
X99827580Y-103453257D02*
X99827580Y-103310400D01*
X99827580Y-103310400D02*
X99875200Y-103215162D01*
X99875200Y-103215162D02*
X99922819Y-103167543D01*
X99875200Y-102738971D02*
X99827580Y-102643733D01*
X99827580Y-102643733D02*
X99827580Y-102453257D01*
X99827580Y-102453257D02*
X99875200Y-102358019D01*
X99875200Y-102358019D02*
X99970438Y-102310400D01*
X99970438Y-102310400D02*
X100018057Y-102310400D01*
X100018057Y-102310400D02*
X100113295Y-102358019D01*
X100113295Y-102358019D02*
X100160914Y-102453257D01*
X100160914Y-102453257D02*
X100160914Y-102596114D01*
X100160914Y-102596114D02*
X100208533Y-102691352D01*
X100208533Y-102691352D02*
X100303771Y-102738971D01*
X100303771Y-102738971D02*
X100351390Y-102738971D01*
X100351390Y-102738971D02*
X100446628Y-102691352D01*
X100446628Y-102691352D02*
X100494247Y-102596114D01*
X100494247Y-102596114D02*
X100494247Y-102453257D01*
X100494247Y-102453257D02*
X100446628Y-102358019D01*
X100875200Y-101167543D02*
X99589485Y-102024685D01*
X100827580Y-100834209D02*
X100018057Y-100834209D01*
X100018057Y-100834209D02*
X99922819Y-100786590D01*
X99922819Y-100786590D02*
X99875200Y-100738971D01*
X99875200Y-100738971D02*
X99827580Y-100643733D01*
X99827580Y-100643733D02*
X99827580Y-100453257D01*
X99827580Y-100453257D02*
X99875200Y-100358019D01*
X99875200Y-100358019D02*
X99922819Y-100310400D01*
X99922819Y-100310400D02*
X100018057Y-100262781D01*
X100018057Y-100262781D02*
X100827580Y-100262781D01*
X100351390Y-99453257D02*
X100351390Y-99786590D01*
X99827580Y-99786590D02*
X100827580Y-99786590D01*
X100827580Y-99786590D02*
X100827580Y-99310400D01*
X100351390Y-98596114D02*
X100303771Y-98453257D01*
X100303771Y-98453257D02*
X100256152Y-98405638D01*
X100256152Y-98405638D02*
X100160914Y-98358019D01*
X100160914Y-98358019D02*
X100018057Y-98358019D01*
X100018057Y-98358019D02*
X99922819Y-98405638D01*
X99922819Y-98405638D02*
X99875200Y-98453257D01*
X99875200Y-98453257D02*
X99827580Y-98548495D01*
X99827580Y-98548495D02*
X99827580Y-98929447D01*
X99827580Y-98929447D02*
X100827580Y-98929447D01*
X100827580Y-98929447D02*
X100827580Y-98596114D01*
X100827580Y-98596114D02*
X100779961Y-98500876D01*
X100779961Y-98500876D02*
X100732342Y-98453257D01*
X100732342Y-98453257D02*
X100637104Y-98405638D01*
X100637104Y-98405638D02*
X100541866Y-98405638D01*
X100541866Y-98405638D02*
X100446628Y-98453257D01*
X100446628Y-98453257D02*
X100399009Y-98500876D01*
X100399009Y-98500876D02*
X100351390Y-98596114D01*
X100351390Y-98596114D02*
X100351390Y-98929447D01*
X100827580Y-98072304D02*
X100827580Y-97500876D01*
X99827580Y-97786590D02*
X100827580Y-97786590D01*
X99827580Y-97167542D02*
X100827580Y-97167542D01*
X100827580Y-97167542D02*
X100113295Y-96834209D01*
X100113295Y-96834209D02*
X100827580Y-96500876D01*
X100827580Y-96500876D02*
X99827580Y-96500876D01*
X116751390Y-133662782D02*
X116703771Y-133519925D01*
X116703771Y-133519925D02*
X116656152Y-133472306D01*
X116656152Y-133472306D02*
X116560914Y-133424687D01*
X116560914Y-133424687D02*
X116418057Y-133424687D01*
X116418057Y-133424687D02*
X116322819Y-133472306D01*
X116322819Y-133472306D02*
X116275200Y-133519925D01*
X116275200Y-133519925D02*
X116227580Y-133615163D01*
X116227580Y-133615163D02*
X116227580Y-133996115D01*
X116227580Y-133996115D02*
X117227580Y-133996115D01*
X117227580Y-133996115D02*
X117227580Y-133662782D01*
X117227580Y-133662782D02*
X117179961Y-133567544D01*
X117179961Y-133567544D02*
X117132342Y-133519925D01*
X117132342Y-133519925D02*
X117037104Y-133472306D01*
X117037104Y-133472306D02*
X116941866Y-133472306D01*
X116941866Y-133472306D02*
X116846628Y-133519925D01*
X116846628Y-133519925D02*
X116799009Y-133567544D01*
X116799009Y-133567544D02*
X116751390Y-133662782D01*
X116751390Y-133662782D02*
X116751390Y-133996115D01*
X116513295Y-133043734D02*
X116513295Y-132567544D01*
X116227580Y-133138972D02*
X117227580Y-132805639D01*
X117227580Y-132805639D02*
X116227580Y-132472306D01*
X117227580Y-132281829D02*
X117227580Y-131710401D01*
X116227580Y-131996115D02*
X117227580Y-131996115D01*
X117227580Y-131519924D02*
X117227580Y-130948496D01*
X116227580Y-131234210D02*
X117227580Y-131234210D01*
X110310401Y-125872419D02*
X110310401Y-126586704D01*
X110310401Y-126586704D02*
X110358020Y-126729561D01*
X110358020Y-126729561D02*
X110453258Y-126824800D01*
X110453258Y-126824800D02*
X110596115Y-126872419D01*
X110596115Y-126872419D02*
X110691353Y-126872419D01*
X109358020Y-126872419D02*
X109834210Y-126872419D01*
X109834210Y-126872419D02*
X109834210Y-125872419D01*
X108453258Y-126777180D02*
X108500877Y-126824800D01*
X108500877Y-126824800D02*
X108643734Y-126872419D01*
X108643734Y-126872419D02*
X108738972Y-126872419D01*
X108738972Y-126872419D02*
X108881829Y-126824800D01*
X108881829Y-126824800D02*
X108977067Y-126729561D01*
X108977067Y-126729561D02*
X109024686Y-126634323D01*
X109024686Y-126634323D02*
X109072305Y-126443847D01*
X109072305Y-126443847D02*
X109072305Y-126300990D01*
X109072305Y-126300990D02*
X109024686Y-126110514D01*
X109024686Y-126110514D02*
X108977067Y-126015276D01*
X108977067Y-126015276D02*
X108881829Y-125920038D01*
X108881829Y-125920038D02*
X108738972Y-125872419D01*
X108738972Y-125872419D02*
X108643734Y-125872419D01*
X108643734Y-125872419D02*
X108500877Y-125920038D01*
X108500877Y-125920038D02*
X108453258Y-125967657D01*
X107738972Y-125872419D02*
X107738972Y-126586704D01*
X107738972Y-126586704D02*
X107786591Y-126729561D01*
X107786591Y-126729561D02*
X107881829Y-126824800D01*
X107881829Y-126824800D02*
X108024686Y-126872419D01*
X108024686Y-126872419D02*
X108119924Y-126872419D01*
X106786591Y-126872419D02*
X107262781Y-126872419D01*
X107262781Y-126872419D02*
X107262781Y-125872419D01*
X105881829Y-126777180D02*
X105929448Y-126824800D01*
X105929448Y-126824800D02*
X106072305Y-126872419D01*
X106072305Y-126872419D02*
X106167543Y-126872419D01*
X106167543Y-126872419D02*
X106310400Y-126824800D01*
X106310400Y-126824800D02*
X106405638Y-126729561D01*
X106405638Y-126729561D02*
X106453257Y-126634323D01*
X106453257Y-126634323D02*
X106500876Y-126443847D01*
X106500876Y-126443847D02*
X106500876Y-126300990D01*
X106500876Y-126300990D02*
X106453257Y-126110514D01*
X106453257Y-126110514D02*
X106405638Y-126015276D01*
X106405638Y-126015276D02*
X106310400Y-125920038D01*
X106310400Y-125920038D02*
X106167543Y-125872419D01*
X106167543Y-125872419D02*
X106072305Y-125872419D01*
X106072305Y-125872419D02*
X105929448Y-125920038D01*
X105929448Y-125920038D02*
X105881829Y-125967657D01*
X105167543Y-125872419D02*
X105167543Y-126586704D01*
X105167543Y-126586704D02*
X105215162Y-126729561D01*
X105215162Y-126729561D02*
X105310400Y-126824800D01*
X105310400Y-126824800D02*
X105453257Y-126872419D01*
X105453257Y-126872419D02*
X105548495Y-126872419D01*
X104215162Y-126872419D02*
X104691352Y-126872419D01*
X104691352Y-126872419D02*
X104691352Y-125872419D01*
X103310400Y-126777180D02*
X103358019Y-126824800D01*
X103358019Y-126824800D02*
X103500876Y-126872419D01*
X103500876Y-126872419D02*
X103596114Y-126872419D01*
X103596114Y-126872419D02*
X103738971Y-126824800D01*
X103738971Y-126824800D02*
X103834209Y-126729561D01*
X103834209Y-126729561D02*
X103881828Y-126634323D01*
X103881828Y-126634323D02*
X103929447Y-126443847D01*
X103929447Y-126443847D02*
X103929447Y-126300990D01*
X103929447Y-126300990D02*
X103881828Y-126110514D01*
X103881828Y-126110514D02*
X103834209Y-126015276D01*
X103834209Y-126015276D02*
X103738971Y-125920038D01*
X103738971Y-125920038D02*
X103596114Y-125872419D01*
X103596114Y-125872419D02*
X103500876Y-125872419D01*
X103500876Y-125872419D02*
X103358019Y-125920038D01*
X103358019Y-125920038D02*
X103310400Y-125967657D01*
X102596114Y-125872419D02*
X102596114Y-126586704D01*
X102596114Y-126586704D02*
X102643733Y-126729561D01*
X102643733Y-126729561D02*
X102738971Y-126824800D01*
X102738971Y-126824800D02*
X102881828Y-126872419D01*
X102881828Y-126872419D02*
X102977066Y-126872419D01*
X101643733Y-126872419D02*
X102119923Y-126872419D01*
X102119923Y-126872419D02*
X102119923Y-125872419D01*
X100738971Y-126777180D02*
X100786590Y-126824800D01*
X100786590Y-126824800D02*
X100929447Y-126872419D01*
X100929447Y-126872419D02*
X101024685Y-126872419D01*
X101024685Y-126872419D02*
X101167542Y-126824800D01*
X101167542Y-126824800D02*
X101262780Y-126729561D01*
X101262780Y-126729561D02*
X101310399Y-126634323D01*
X101310399Y-126634323D02*
X101358018Y-126443847D01*
X101358018Y-126443847D02*
X101358018Y-126300990D01*
X101358018Y-126300990D02*
X101310399Y-126110514D01*
X101310399Y-126110514D02*
X101262780Y-126015276D01*
X101262780Y-126015276D02*
X101167542Y-125920038D01*
X101167542Y-125920038D02*
X101024685Y-125872419D01*
X101024685Y-125872419D02*
X100929447Y-125872419D01*
X100929447Y-125872419D02*
X100786590Y-125920038D01*
X100786590Y-125920038D02*
X100738971Y-125967657D01*
X106637524Y-117838972D02*
X106637524Y-117267544D01*
X105637524Y-117553258D02*
X106637524Y-117553258D01*
X106304191Y-117029448D02*
X105637524Y-116791353D01*
X106304191Y-116553258D02*
X105637524Y-116791353D01*
X105637524Y-116791353D02*
X105399429Y-116886591D01*
X105399429Y-116886591D02*
X105351810Y-116934210D01*
X105351810Y-116934210D02*
X105304191Y-117029448D01*
X106304191Y-116172305D02*
X105304191Y-116172305D01*
X106256572Y-116172305D02*
X106304191Y-116077067D01*
X106304191Y-116077067D02*
X106304191Y-115886591D01*
X106304191Y-115886591D02*
X106256572Y-115791353D01*
X106256572Y-115791353D02*
X106208953Y-115743734D01*
X106208953Y-115743734D02*
X106113715Y-115696115D01*
X106113715Y-115696115D02*
X105828001Y-115696115D01*
X105828001Y-115696115D02*
X105732763Y-115743734D01*
X105732763Y-115743734D02*
X105685144Y-115791353D01*
X105685144Y-115791353D02*
X105637524Y-115886591D01*
X105637524Y-115886591D02*
X105637524Y-116077067D01*
X105637524Y-116077067D02*
X105685144Y-116172305D01*
X105685144Y-114886591D02*
X105637524Y-114981829D01*
X105637524Y-114981829D02*
X105637524Y-115172305D01*
X105637524Y-115172305D02*
X105685144Y-115267543D01*
X105685144Y-115267543D02*
X105780382Y-115315162D01*
X105780382Y-115315162D02*
X106161334Y-115315162D01*
X106161334Y-115315162D02*
X106256572Y-115267543D01*
X106256572Y-115267543D02*
X106304191Y-115172305D01*
X106304191Y-115172305D02*
X106304191Y-114981829D01*
X106304191Y-114981829D02*
X106256572Y-114886591D01*
X106256572Y-114886591D02*
X106161334Y-114838972D01*
X106161334Y-114838972D02*
X106066096Y-114838972D01*
X106066096Y-114838972D02*
X105970858Y-115315162D01*
X105923239Y-113696114D02*
X105923239Y-113219924D01*
X105637524Y-113791352D02*
X106637524Y-113458019D01*
X106637524Y-113458019D02*
X105637524Y-113124686D01*
X104027580Y-117124687D02*
X104503771Y-117458020D01*
X104027580Y-117696115D02*
X105027580Y-117696115D01*
X105027580Y-117696115D02*
X105027580Y-117315163D01*
X105027580Y-117315163D02*
X104979961Y-117219925D01*
X104979961Y-117219925D02*
X104932342Y-117172306D01*
X104932342Y-117172306D02*
X104837104Y-117124687D01*
X104837104Y-117124687D02*
X104694247Y-117124687D01*
X104694247Y-117124687D02*
X104599009Y-117172306D01*
X104599009Y-117172306D02*
X104551390Y-117219925D01*
X104551390Y-117219925D02*
X104503771Y-117315163D01*
X104503771Y-117315163D02*
X104503771Y-117696115D01*
X104075200Y-116315163D02*
X104027580Y-116410401D01*
X104027580Y-116410401D02*
X104027580Y-116600877D01*
X104027580Y-116600877D02*
X104075200Y-116696115D01*
X104075200Y-116696115D02*
X104170438Y-116743734D01*
X104170438Y-116743734D02*
X104551390Y-116743734D01*
X104551390Y-116743734D02*
X104646628Y-116696115D01*
X104646628Y-116696115D02*
X104694247Y-116600877D01*
X104694247Y-116600877D02*
X104694247Y-116410401D01*
X104694247Y-116410401D02*
X104646628Y-116315163D01*
X104646628Y-116315163D02*
X104551390Y-116267544D01*
X104551390Y-116267544D02*
X104456152Y-116267544D01*
X104456152Y-116267544D02*
X104360914Y-116743734D01*
X104694247Y-115934210D02*
X104027580Y-115696115D01*
X104027580Y-115696115D02*
X104694247Y-115458020D01*
X104122819Y-115077067D02*
X104075200Y-115029448D01*
X104075200Y-115029448D02*
X104027580Y-115077067D01*
X104027580Y-115077067D02*
X104075200Y-115124686D01*
X104075200Y-115124686D02*
X104122819Y-115077067D01*
X104122819Y-115077067D02*
X104027580Y-115077067D01*
X104932342Y-113886591D02*
X104979961Y-113838972D01*
X104979961Y-113838972D02*
X105027580Y-113743734D01*
X105027580Y-113743734D02*
X105027580Y-113505639D01*
X105027580Y-113505639D02*
X104979961Y-113410401D01*
X104979961Y-113410401D02*
X104932342Y-113362782D01*
X104932342Y-113362782D02*
X104837104Y-113315163D01*
X104837104Y-113315163D02*
X104741866Y-113315163D01*
X104741866Y-113315163D02*
X104599009Y-113362782D01*
X104599009Y-113362782D02*
X104027580Y-113934210D01*
X104027580Y-113934210D02*
X104027580Y-113315163D01*
X104122819Y-112886591D02*
X104075200Y-112838972D01*
X104075200Y-112838972D02*
X104027580Y-112886591D01*
X104027580Y-112886591D02*
X104075200Y-112934210D01*
X104075200Y-112934210D02*
X104122819Y-112886591D01*
X104122819Y-112886591D02*
X104027580Y-112886591D01*
X105027580Y-112219925D02*
X105027580Y-112124687D01*
X105027580Y-112124687D02*
X104979961Y-112029449D01*
X104979961Y-112029449D02*
X104932342Y-111981830D01*
X104932342Y-111981830D02*
X104837104Y-111934211D01*
X104837104Y-111934211D02*
X104646628Y-111886592D01*
X104646628Y-111886592D02*
X104408533Y-111886592D01*
X104408533Y-111886592D02*
X104218057Y-111934211D01*
X104218057Y-111934211D02*
X104122819Y-111981830D01*
X104122819Y-111981830D02*
X104075200Y-112029449D01*
X104075200Y-112029449D02*
X104027580Y-112124687D01*
X104027580Y-112124687D02*
X104027580Y-112219925D01*
X104027580Y-112219925D02*
X104075200Y-112315163D01*
X104075200Y-112315163D02*
X104122819Y-112362782D01*
X104122819Y-112362782D02*
X104218057Y-112410401D01*
X104218057Y-112410401D02*
X104408533Y-112458020D01*
X104408533Y-112458020D02*
X104646628Y-112458020D01*
X104646628Y-112458020D02*
X104837104Y-112410401D01*
X104837104Y-112410401D02*
X104932342Y-112362782D01*
X104932342Y-112362782D02*
X104979961Y-112315163D01*
X104979961Y-112315163D02*
X105027580Y-112219925D01*
G36*
X117243094Y-130729724D02*
G01*
X116166579Y-130729724D01*
X116166579Y-130172332D01*
X116277690Y-130172332D01*
X116277690Y-130210600D01*
X116304750Y-130237660D01*
X116323884Y-130241466D01*
X116654836Y-130241466D01*
X116654836Y-130572419D01*
X116658642Y-130591553D01*
X116685702Y-130618613D01*
X116723970Y-130618613D01*
X116751030Y-130591553D01*
X116754836Y-130572419D01*
X116754836Y-130241466D01*
X117085789Y-130241466D01*
X117104923Y-130237660D01*
X117131983Y-130210600D01*
X117131983Y-130172332D01*
X117104923Y-130145272D01*
X117085789Y-130141466D01*
X116754836Y-130141466D01*
X116754836Y-129810514D01*
X116751030Y-129791380D01*
X116723970Y-129764320D01*
X116685702Y-129764320D01*
X116658642Y-129791380D01*
X116654836Y-129810514D01*
X116654836Y-130141466D01*
X116323884Y-130141466D01*
X116304750Y-130145272D01*
X116277690Y-130172332D01*
X116166579Y-130172332D01*
X116166579Y-129653209D01*
X117243094Y-129653209D01*
X117243094Y-130729724D01*
G37*
D16*
X113545180Y-118533333D02*
X112830895Y-118533333D01*
X112830895Y-118533333D02*
X112688038Y-118580952D01*
X112688038Y-118580952D02*
X112592800Y-118676190D01*
X112592800Y-118676190D02*
X112545180Y-118819047D01*
X112545180Y-118819047D02*
X112545180Y-118914285D01*
X112545180Y-118057142D02*
X113545180Y-118057142D01*
X113545180Y-118057142D02*
X113545180Y-117676190D01*
X113545180Y-117676190D02*
X113497561Y-117580952D01*
X113497561Y-117580952D02*
X113449942Y-117533333D01*
X113449942Y-117533333D02*
X113354704Y-117485714D01*
X113354704Y-117485714D02*
X113211847Y-117485714D01*
X113211847Y-117485714D02*
X113116609Y-117533333D01*
X113116609Y-117533333D02*
X113068990Y-117580952D01*
X113068990Y-117580952D02*
X113021371Y-117676190D01*
X113021371Y-117676190D02*
X113021371Y-118057142D01*
X112545180Y-116533333D02*
X112545180Y-117104761D01*
X112545180Y-116819047D02*
X113545180Y-116819047D01*
X113545180Y-116819047D02*
X113402323Y-116914285D01*
X113402323Y-116914285D02*
X113307085Y-117009523D01*
X113307085Y-117009523D02*
X113259466Y-117104761D01*
X111045180Y-122083333D02*
X110330895Y-122083333D01*
X110330895Y-122083333D02*
X110188038Y-122130952D01*
X110188038Y-122130952D02*
X110092800Y-122226190D01*
X110092800Y-122226190D02*
X110045180Y-122369047D01*
X110045180Y-122369047D02*
X110045180Y-122464285D01*
X110045180Y-121607142D02*
X111045180Y-121607142D01*
X111045180Y-121607142D02*
X111045180Y-121226190D01*
X111045180Y-121226190D02*
X110997561Y-121130952D01*
X110997561Y-121130952D02*
X110949942Y-121083333D01*
X110949942Y-121083333D02*
X110854704Y-121035714D01*
X110854704Y-121035714D02*
X110711847Y-121035714D01*
X110711847Y-121035714D02*
X110616609Y-121083333D01*
X110616609Y-121083333D02*
X110568990Y-121130952D01*
X110568990Y-121130952D02*
X110521371Y-121226190D01*
X110521371Y-121226190D02*
X110521371Y-121607142D01*
X110949942Y-120654761D02*
X110997561Y-120607142D01*
X110997561Y-120607142D02*
X111045180Y-120511904D01*
X111045180Y-120511904D02*
X111045180Y-120273809D01*
X111045180Y-120273809D02*
X110997561Y-120178571D01*
X110997561Y-120178571D02*
X110949942Y-120130952D01*
X110949942Y-120130952D02*
X110854704Y-120083333D01*
X110854704Y-120083333D02*
X110759466Y-120083333D01*
X110759466Y-120083333D02*
X110616609Y-120130952D01*
X110616609Y-120130952D02*
X110045180Y-120702380D01*
X110045180Y-120702380D02*
X110045180Y-120083333D01*
D17*
X114120000Y-117250000D02*
X114120000Y-118650000D01*
X114820000Y-119350000D02*
X115420000Y-119350000D01*
X115420000Y-116550000D02*
X114820000Y-116550000D01*
X116120000Y-118650000D02*
X116120000Y-117250000D01*
X114120000Y-117250000D02*
G75*
G02*
X114820000Y-116550000I700000J0D01*
G01*
X114820000Y-119350000D02*
G75*
G02*
X114120000Y-118650000I-1J699999D01*
G01*
X115420000Y-116550000D02*
G75*
G02*
X116120000Y-117250000I0J-700000D01*
G01*
X116120000Y-118650000D02*
G75*
G02*
X115420000Y-119350000I-699999J-1D01*
G01*
X111620000Y-120550000D02*
X111620000Y-121950000D01*
X112320000Y-122650000D02*
X112920000Y-122650000D01*
X112920000Y-119850000D02*
X112320000Y-119850000D01*
X113620000Y-121950000D02*
X113620000Y-120550000D01*
X111620000Y-120550000D02*
G75*
G02*
X112320000Y-119850000I699999J1D01*
G01*
X112320000Y-122650000D02*
G75*
G02*
X111620000Y-121950000I0J700000D01*
G01*
X112920000Y-119850000D02*
G75*
G02*
X113620000Y-120550000I1J-699999D01*
G01*
X113620000Y-121950000D02*
G75*
G02*
X112920000Y-122650000I-700000J0D01*
G01*
M02*
