G04 #@! TF.GenerationSoftware,KiCad,Pcbnew,9.0.2*
G04 #@! TF.CreationDate,2025-07-09T02:03:57-04:00*
G04 #@! TF.ProjectId,FBT,4642542e-6b69-4636-9164-5f7063625858,rev?*
G04 #@! TF.SameCoordinates,Original*
G04 #@! TF.FileFunction,Copper,L2,Bot*
G04 #@! TF.FilePolarity,Positive*
%FSLAX46Y46*%
G04 Gerber Fmt 4.6, Leading zero omitted, Abs format (unit mm)*
G04 Created by KiCad (PCBNEW 9.0.2) date 2025-07-09 02:03:57*
%MOMM*%
%LPD*%
G01*
G04 APERTURE LIST*
G04 Aperture macros list*
%AMRoundRect*
0 Rectangle with rounded corners*
0 $1 Rounding radius*
0 $2 $3 $4 $5 $6 $7 $8 $9 X,Y pos of 4 corners*
0 Add a 4 corners polygon primitive as box body*
4,1,4,$2,$3,$4,$5,$6,$7,$8,$9,$2,$3,0*
0 Add four circle primitives for the rounded corners*
1,1,$1+$1,$2,$3*
1,1,$1+$1,$4,$5*
1,1,$1+$1,$6,$7*
1,1,$1+$1,$8,$9*
0 Add four rect primitives between the rounded corners*
20,1,$1+$1,$2,$3,$4,$5,0*
20,1,$1+$1,$4,$5,$6,$7,0*
20,1,$1+$1,$6,$7,$8,$9,0*
20,1,$1+$1,$8,$9,$2,$3,0*%
%AMFreePoly0*
4,1,23,0.500000,-0.750000,0.000000,-0.750000,0.000000,-0.745722,-0.065263,-0.745722,-0.191342,-0.711940,-0.304381,-0.646677,-0.396677,-0.554381,-0.461940,-0.441342,-0.495722,-0.315263,-0.495722,-0.250000,-0.500000,-0.250000,-0.500000,0.250000,-0.495722,0.250000,-0.495722,0.315263,-0.461940,0.441342,-0.396677,0.554381,-0.304381,0.646677,-0.191342,0.711940,-0.065263,0.745722,0.000000,0.745722,
0.000000,0.750000,0.500000,0.750000,0.500000,-0.750000,0.500000,-0.750000,$1*%
%AMFreePoly1*
4,1,23,0.000000,0.745722,0.065263,0.745722,0.191342,0.711940,0.304381,0.646677,0.396677,0.554381,0.461940,0.441342,0.495722,0.315263,0.495722,0.250000,0.500000,0.250000,0.500000,-0.250000,0.495722,-0.250000,0.495722,-0.315263,0.461940,-0.441342,0.396677,-0.554381,0.304381,-0.646677,0.191342,-0.711940,0.065263,-0.745722,0.000000,-0.745722,0.000000,-0.750000,-0.500000,-0.750000,
-0.500000,0.750000,0.000000,0.750000,0.000000,0.745722,0.000000,0.745722,$1*%
G04 Aperture macros list end*
G04 #@! TA.AperFunction,EtchedComponent*
%ADD10C,0.000000*%
G04 #@! TD*
G04 #@! TA.AperFunction,ComponentPad*
%ADD11C,1.524000*%
G04 #@! TD*
G04 #@! TA.AperFunction,ComponentPad*
%ADD12RoundRect,0.249999X0.850001X-0.850001X0.850001X0.850001X-0.850001X0.850001X-0.850001X-0.850001X0*%
G04 #@! TD*
G04 #@! TA.AperFunction,ComponentPad*
%ADD13C,2.200000*%
G04 #@! TD*
G04 #@! TA.AperFunction,ComponentPad*
%ADD14O,2.000000X1.600000*%
G04 #@! TD*
G04 #@! TA.AperFunction,ComponentPad*
%ADD15RoundRect,0.249999X0.850001X0.850001X-0.850001X0.850001X-0.850001X-0.850001X0.850001X-0.850001X0*%
G04 #@! TD*
G04 #@! TA.AperFunction,ComponentPad*
%ADD16C,2.100000*%
G04 #@! TD*
G04 #@! TA.AperFunction,ComponentPad*
%ADD17C,1.400000*%
G04 #@! TD*
G04 #@! TA.AperFunction,ComponentPad*
%ADD18RoundRect,0.250000X0.600000X1.250000X-0.600000X1.250000X-0.600000X-1.250000X0.600000X-1.250000X0*%
G04 #@! TD*
G04 #@! TA.AperFunction,ComponentPad*
%ADD19O,1.700000X3.000000*%
G04 #@! TD*
G04 #@! TA.AperFunction,ComponentPad*
%ADD20C,1.600000*%
G04 #@! TD*
G04 #@! TA.AperFunction,SMDPad,CuDef*
%ADD21FreePoly0,180.000000*%
G04 #@! TD*
G04 #@! TA.AperFunction,SMDPad,CuDef*
%ADD22FreePoly1,180.000000*%
G04 #@! TD*
G04 #@! TA.AperFunction,SMDPad,CuDef*
%ADD23FreePoly0,270.000000*%
G04 #@! TD*
G04 #@! TA.AperFunction,SMDPad,CuDef*
%ADD24FreePoly1,270.000000*%
G04 #@! TD*
G04 #@! TA.AperFunction,ViaPad*
%ADD25C,0.600000*%
G04 #@! TD*
G04 #@! TA.AperFunction,Conductor*
%ADD26C,0.400000*%
G04 #@! TD*
G04 #@! TA.AperFunction,Conductor*
%ADD27C,0.200000*%
G04 #@! TD*
G04 APERTURE END LIST*
D10*
G04 #@! TA.AperFunction,EtchedComponent*
G36*
X160000000Y-77750000D02*
G01*
X159400000Y-77750000D01*
X159400000Y-77250000D01*
X160000000Y-77250000D01*
X160000000Y-77750000D01*
G37*
G04 #@! TD.AperFunction*
D11*
X159300000Y-56800000D03*
X148900000Y-56800000D03*
X149000000Y-66000000D03*
X151500000Y-66000000D03*
X156700000Y-66000000D03*
X159200000Y-66000000D03*
X131316004Y-51261392D03*
X131316004Y-53801392D03*
X131316004Y-56341392D03*
X131316004Y-58881392D03*
X131316004Y-61421392D03*
X131316004Y-63961392D03*
X131316004Y-66501392D03*
X131276004Y-69041392D03*
X146516004Y-69041392D03*
X146516004Y-66501392D03*
X146516004Y-63961392D03*
X146516004Y-61421392D03*
X146516004Y-58881392D03*
X146516004Y-56341392D03*
X146516004Y-53801392D03*
X146516004Y-51261392D03*
D12*
X162100000Y-65800000D03*
D13*
X162100000Y-58180000D03*
D14*
X175850000Y-111000000D03*
X171850000Y-111000000D03*
X168850000Y-111000000D03*
X176850000Y-115400000D03*
D15*
X162100000Y-68600000D03*
D13*
X154480000Y-68600000D03*
D14*
X159755000Y-88900000D03*
X163755000Y-88900000D03*
X166755000Y-88900000D03*
X158755000Y-84500000D03*
D16*
X167700000Y-66350000D03*
X167700000Y-58150000D03*
D17*
X167700000Y-64250000D03*
X167700000Y-62250000D03*
X167700000Y-60250000D03*
D18*
X154100000Y-87200000D03*
D19*
X151600000Y-87200000D03*
D11*
X147200000Y-88480000D03*
X147200000Y-85940000D03*
X147200000Y-83400000D03*
X147200000Y-80860000D03*
X147200000Y-78320000D03*
X182260000Y-118100000D03*
X179720000Y-118100000D03*
X177180000Y-118100000D03*
X174640000Y-118100000D03*
X172100000Y-118100000D03*
X169560000Y-118100000D03*
X167020000Y-118100000D03*
X169560000Y-128260000D03*
X172100000Y-128260000D03*
X174640000Y-128260000D03*
X177180000Y-128260000D03*
X179720000Y-128260000D03*
X154524000Y-130476000D03*
X151984000Y-130476000D03*
X149444000Y-130476000D03*
X146904000Y-130476000D03*
X144364000Y-130476000D03*
X168640000Y-71500000D03*
X166100000Y-71500000D03*
X163560000Y-71500000D03*
X161020000Y-71500000D03*
X158480000Y-71500000D03*
X155940000Y-71500000D03*
X153400000Y-71500000D03*
X155940000Y-81660000D03*
X158480000Y-81660000D03*
X161020000Y-81660000D03*
X163560000Y-81660000D03*
X166100000Y-81660000D03*
D20*
X168870000Y-55200000D03*
X161250000Y-55200000D03*
X161280000Y-52000000D03*
X168900000Y-52000000D03*
D21*
X165650000Y-69050000D03*
D22*
X164350000Y-69050000D03*
D23*
X159700000Y-76850000D03*
D24*
X159700000Y-78150000D03*
D11*
X179720000Y-131180000D03*
X177180000Y-131180000D03*
X174640000Y-131180000D03*
X172100000Y-131180000D03*
X169560000Y-131180000D03*
D25*
X165000000Y-58000000D03*
X164577500Y-86722500D03*
X164900000Y-65900000D03*
X159700000Y-83000000D03*
X166050000Y-83850000D03*
D26*
X161200000Y-88900000D02*
X159755000Y-88900000D01*
X154521392Y-61421392D02*
X146516004Y-61421392D01*
X164800000Y-85300000D02*
X161200000Y-88900000D01*
X157900000Y-68200000D02*
X157900000Y-64800000D01*
X158480000Y-68780000D02*
X157900000Y-68200000D01*
D27*
X159300000Y-88900000D02*
X159755000Y-88900000D01*
D26*
X164800000Y-77820000D02*
X164800000Y-85300000D01*
X163800000Y-76820000D02*
X164800000Y-77820000D01*
X157900000Y-64800000D02*
X154521392Y-61421392D01*
X163800000Y-76820000D02*
X158480000Y-71500000D01*
X158480000Y-71500000D02*
X158480000Y-68780000D01*
X154700000Y-71050000D02*
X151528392Y-67878392D01*
X145778392Y-67878392D02*
X145000000Y-67100000D01*
X145000000Y-67100000D02*
X145000000Y-57857396D01*
X159550000Y-77000000D02*
X159700000Y-76850000D01*
X157300000Y-83045000D02*
X158755000Y-84500000D01*
X159700000Y-76850000D02*
X159700000Y-77100000D01*
X145000000Y-57857396D02*
X146516004Y-56341392D01*
X151528392Y-67878392D02*
X145778392Y-67878392D01*
X157300000Y-77000000D02*
X157300000Y-83045000D01*
X157300000Y-77000000D02*
X155200000Y-74900000D01*
X155200000Y-74900000D02*
X154700000Y-74400000D01*
X157300000Y-77000000D02*
X159550000Y-77000000D01*
X154700000Y-74400000D02*
X154700000Y-71050000D01*
X168900000Y-52020000D02*
X168900000Y-52000000D01*
X165000000Y-58000000D02*
X165000000Y-62900000D01*
X167410000Y-53510000D02*
X168900000Y-52020000D01*
X163900000Y-68600000D02*
X164350000Y-69050000D01*
X167410000Y-53510000D02*
X167410000Y-53490000D01*
X148764612Y-53510000D02*
X167410000Y-53510000D01*
X165000000Y-62900000D02*
X162100000Y-65800000D01*
X146516004Y-51261392D02*
X148764612Y-53510000D01*
X167410000Y-53490000D02*
X168900000Y-52000000D01*
X162100000Y-68600000D02*
X163900000Y-68600000D01*
X157850000Y-75350000D02*
X160550000Y-75350000D01*
X162300000Y-77100000D02*
X162300000Y-83300000D01*
X156700000Y-66000000D02*
X156700000Y-69100000D01*
X157200000Y-69600000D02*
X157200000Y-74700000D01*
X162300000Y-83300000D02*
X158400000Y-87200000D01*
X157200000Y-74700000D02*
X157850000Y-75350000D01*
X158400000Y-87200000D02*
X154100000Y-87200000D01*
X156700000Y-69100000D02*
X157200000Y-69600000D01*
X160550000Y-75350000D02*
X162300000Y-77100000D01*
X170600000Y-112750000D02*
X168850000Y-111000000D01*
X147700000Y-55000000D02*
X147700000Y-55600000D01*
X166100000Y-56838630D02*
X167738630Y-55200000D01*
X163000000Y-60100000D02*
X152200000Y-60100000D01*
X170600000Y-115000000D02*
X170600000Y-112750000D01*
X168200000Y-72800000D02*
X167400000Y-72000000D01*
X146516004Y-53816004D02*
X147700000Y-55000000D01*
X147700000Y-55600000D02*
X148900000Y-56800000D01*
X165700000Y-55200000D02*
X163900000Y-57000000D01*
X147340000Y-85940000D02*
X148600000Y-87200000D01*
X166100000Y-64700000D02*
X166100000Y-56838630D01*
X152200000Y-60100000D02*
X148900000Y-56800000D01*
X164723000Y-70337000D02*
X163560000Y-71500000D01*
X164577500Y-86722500D02*
X166755000Y-88900000D01*
X147200000Y-85940000D02*
X147340000Y-85940000D01*
X163900000Y-57000000D02*
X163900000Y-59200000D01*
X153500000Y-71600000D02*
X153400000Y-71500000D01*
X177180000Y-118100000D02*
X175580000Y-116500000D01*
X167400000Y-72000000D02*
X167400000Y-71155269D01*
X168200000Y-84800000D02*
X168200000Y-72800000D01*
X146516004Y-53801392D02*
X146516004Y-53816004D01*
X164900000Y-65900000D02*
X166100000Y-64700000D01*
X148600000Y-87200000D02*
X151600000Y-87200000D01*
X167400000Y-71155269D02*
X166581731Y-70337000D01*
X166755000Y-86245000D02*
X168200000Y-84800000D01*
X167738630Y-55200000D02*
X168870000Y-55200000D01*
X147200000Y-85940000D02*
X153500000Y-79640000D01*
X163900000Y-59200000D02*
X163000000Y-60100000D01*
X166755000Y-88900000D02*
X166755000Y-86245000D01*
X172100000Y-116500000D02*
X170600000Y-115000000D01*
X153500000Y-79640000D02*
X153500000Y-71600000D01*
X168870000Y-55200000D02*
X165700000Y-55200000D01*
X175580000Y-116500000D02*
X172100000Y-116500000D01*
X166581731Y-70337000D02*
X164723000Y-70337000D01*
X166100000Y-71500000D02*
X166100000Y-76750000D01*
X166100000Y-76750000D02*
X167400000Y-78050000D01*
X167400000Y-78050000D02*
X167400000Y-82500000D01*
X166050000Y-83850000D02*
X166000000Y-83900000D01*
X159700000Y-83000000D02*
X159700000Y-78400000D01*
X167400000Y-82500000D02*
X166050000Y-83850000D01*
X168640000Y-69790000D02*
X168640000Y-71500000D01*
X167900000Y-69050000D02*
X168640000Y-69790000D01*
X165500000Y-69050000D02*
X167900000Y-69050000D01*
G04 #@! TA.AperFunction,Conductor*
G36*
X144905203Y-67572041D02*
G01*
X144911681Y-67578073D01*
X145453571Y-68119963D01*
X145453581Y-68119974D01*
X145532480Y-68198873D01*
X145563656Y-68216872D01*
X145570496Y-68220821D01*
X145623805Y-68251599D01*
X145687233Y-68268594D01*
X145694939Y-68271820D01*
X145715833Y-68288785D01*
X145738817Y-68302795D01*
X145742549Y-68310477D01*
X145749180Y-68315862D01*
X145757585Y-68341431D01*
X145769346Y-68365642D01*
X145768331Y-68374123D01*
X145770999Y-68382237D01*
X145764246Y-68408290D01*
X145761051Y-68435018D01*
X145753902Y-68448203D01*
X145753470Y-68449872D01*
X145752523Y-68450746D01*
X145750166Y-68455095D01*
X145663046Y-68585480D01*
X145590492Y-68760640D01*
X145590490Y-68760648D01*
X145553504Y-68946589D01*
X145553504Y-69136194D01*
X145590490Y-69322135D01*
X145590492Y-69322143D01*
X145663046Y-69497304D01*
X145768381Y-69654950D01*
X145902445Y-69789014D01*
X145956111Y-69824872D01*
X146060089Y-69894348D01*
X146060090Y-69894348D01*
X146060091Y-69894349D01*
X146074941Y-69900500D01*
X146235253Y-69966904D01*
X146403384Y-70000347D01*
X146421201Y-70003891D01*
X146421205Y-70003892D01*
X146421206Y-70003892D01*
X146610803Y-70003892D01*
X146610804Y-70003891D01*
X146796755Y-69966904D01*
X146971919Y-69894348D01*
X147129562Y-69789014D01*
X147263626Y-69654950D01*
X147368960Y-69497307D01*
X147441516Y-69322143D01*
X147478504Y-69136190D01*
X147478504Y-68946594D01*
X147441516Y-68760641D01*
X147368960Y-68585477D01*
X147292992Y-68471783D01*
X147272114Y-68405105D01*
X147290599Y-68337725D01*
X147342578Y-68291035D01*
X147396094Y-68278892D01*
X151311137Y-68278892D01*
X151378176Y-68298577D01*
X151398818Y-68315211D01*
X153148730Y-70065123D01*
X153182215Y-70126446D01*
X153177231Y-70196138D01*
X153135359Y-70252071D01*
X153099368Y-70270735D01*
X152915561Y-70330458D01*
X152738564Y-70420643D01*
X152701283Y-70447729D01*
X152701282Y-70447730D01*
X153311414Y-71057862D01*
X153226306Y-71080667D01*
X153123694Y-71139910D01*
X153039910Y-71223694D01*
X152980667Y-71326306D01*
X152957861Y-71411414D01*
X152347730Y-70801282D01*
X152347729Y-70801283D01*
X152320643Y-70838564D01*
X152230457Y-71015562D01*
X152169075Y-71204476D01*
X152169075Y-71204479D01*
X152138000Y-71400678D01*
X152138000Y-71599321D01*
X152169075Y-71795520D01*
X152169075Y-71795523D01*
X152230457Y-71984437D01*
X152320641Y-72161432D01*
X152347730Y-72198715D01*
X152347731Y-72198716D01*
X152957861Y-71588585D01*
X152980667Y-71673694D01*
X153039910Y-71776306D01*
X153123694Y-71860090D01*
X153226306Y-71919333D01*
X153311413Y-71942137D01*
X152701283Y-72552268D01*
X152701283Y-72552269D01*
X152738567Y-72579358D01*
X152915562Y-72669542D01*
X153104477Y-72730924D01*
X153300679Y-72762000D01*
X153499321Y-72762000D01*
X153695520Y-72730924D01*
X153695523Y-72730924D01*
X153884437Y-72669542D01*
X154061432Y-72579358D01*
X154102614Y-72549438D01*
X154168420Y-72525958D01*
X154236474Y-72541783D01*
X154285169Y-72591888D01*
X154299500Y-72649756D01*
X154299500Y-74452726D01*
X154326793Y-74554589D01*
X154353156Y-74600250D01*
X154379520Y-74645913D01*
X154379521Y-74645914D01*
X154379522Y-74645915D01*
X154875179Y-75141571D01*
X154875200Y-75141594D01*
X156863181Y-77129574D01*
X156896666Y-77190897D01*
X156899500Y-77217255D01*
X156899500Y-80958957D01*
X156879815Y-81025996D01*
X156827011Y-81071751D01*
X156757853Y-81081695D01*
X156694297Y-81052670D01*
X156687819Y-81046638D01*
X156553558Y-80912377D01*
X156395912Y-80807042D01*
X156220751Y-80734488D01*
X156220743Y-80734486D01*
X156034802Y-80697500D01*
X156034798Y-80697500D01*
X155845202Y-80697500D01*
X155845197Y-80697500D01*
X155659256Y-80734486D01*
X155659248Y-80734488D01*
X155484087Y-80807042D01*
X155326441Y-80912377D01*
X155192377Y-81046441D01*
X155087042Y-81204087D01*
X155014488Y-81379248D01*
X155014486Y-81379256D01*
X154977500Y-81565197D01*
X154977500Y-81754802D01*
X155014486Y-81940743D01*
X155014488Y-81940751D01*
X155087042Y-82115912D01*
X155192377Y-82273558D01*
X155326441Y-82407622D01*
X155406392Y-82461043D01*
X155484085Y-82512956D01*
X155659249Y-82585512D01*
X155845197Y-82622499D01*
X155845201Y-82622500D01*
X155845202Y-82622500D01*
X156034799Y-82622500D01*
X156034800Y-82622499D01*
X156220751Y-82585512D01*
X156395915Y-82512956D01*
X156553558Y-82407622D01*
X156612931Y-82348249D01*
X156687819Y-82273362D01*
X156749142Y-82239877D01*
X156818834Y-82244861D01*
X156874767Y-82286733D01*
X156899184Y-82352197D01*
X156899500Y-82361043D01*
X156899500Y-82992273D01*
X156899500Y-83097727D01*
X156905267Y-83119249D01*
X156926793Y-83199589D01*
X156953156Y-83245250D01*
X156979520Y-83290913D01*
X156979521Y-83290914D01*
X156979522Y-83290915D01*
X157623349Y-83934742D01*
X157656834Y-83996065D01*
X157651850Y-84065757D01*
X157650229Y-84069875D01*
X157592950Y-84208160D01*
X157592947Y-84208170D01*
X157554500Y-84401456D01*
X157554500Y-84401459D01*
X157554500Y-84598541D01*
X157554500Y-84598543D01*
X157554499Y-84598543D01*
X157592947Y-84791829D01*
X157592950Y-84791839D01*
X157668364Y-84973907D01*
X157668371Y-84973920D01*
X157777860Y-85137781D01*
X157777863Y-85137785D01*
X157917214Y-85277136D01*
X157917218Y-85277139D01*
X158081079Y-85386628D01*
X158081092Y-85386635D01*
X158263160Y-85462049D01*
X158263165Y-85462051D01*
X158263169Y-85462051D01*
X158263170Y-85462052D01*
X158456456Y-85500500D01*
X158456459Y-85500500D01*
X159053543Y-85500500D01*
X159131640Y-85484964D01*
X159246835Y-85462051D01*
X159246837Y-85462049D01*
X159251266Y-85461169D01*
X159320858Y-85467396D01*
X159376035Y-85510258D01*
X159399280Y-85576148D01*
X159383213Y-85644145D01*
X159363139Y-85670467D01*
X158270426Y-86763181D01*
X158209103Y-86796666D01*
X158182745Y-86799500D01*
X155274500Y-86799500D01*
X155207461Y-86779815D01*
X155161706Y-86727011D01*
X155150500Y-86675500D01*
X155150500Y-85895730D01*
X155147646Y-85865300D01*
X155147646Y-85865298D01*
X155103084Y-85737950D01*
X155102793Y-85737118D01*
X155022150Y-85627850D01*
X154912882Y-85547207D01*
X154912880Y-85547206D01*
X154784700Y-85502353D01*
X154754270Y-85499500D01*
X154754266Y-85499500D01*
X153445734Y-85499500D01*
X153445730Y-85499500D01*
X153415300Y-85502353D01*
X153415298Y-85502353D01*
X153287119Y-85547206D01*
X153287117Y-85547207D01*
X153177850Y-85627850D01*
X153097207Y-85737117D01*
X153097206Y-85737119D01*
X153052353Y-85865298D01*
X153052353Y-85865300D01*
X153049500Y-85895730D01*
X153049500Y-85904676D01*
X153029815Y-85971715D01*
X152977011Y-86017470D01*
X152907853Y-86027414D01*
X152844297Y-85998389D01*
X152815015Y-85960971D01*
X152754620Y-85842442D01*
X152629727Y-85670540D01*
X152629723Y-85670535D01*
X152479464Y-85520276D01*
X152479459Y-85520272D01*
X152307557Y-85395379D01*
X152118215Y-85298903D01*
X151916124Y-85233241D01*
X151850000Y-85222768D01*
X151850000Y-86766988D01*
X151792993Y-86734075D01*
X151665826Y-86700000D01*
X151534174Y-86700000D01*
X151407007Y-86734075D01*
X151350000Y-86766988D01*
X151350000Y-85222768D01*
X151349999Y-85222768D01*
X151283875Y-85233241D01*
X151081784Y-85298903D01*
X150892442Y-85395379D01*
X150720540Y-85520272D01*
X150720535Y-85520276D01*
X150570276Y-85670535D01*
X150570272Y-85670540D01*
X150445379Y-85842442D01*
X150348904Y-86031782D01*
X150283242Y-86233869D01*
X150283242Y-86233872D01*
X150250000Y-86443753D01*
X150250000Y-86950000D01*
X151166988Y-86950000D01*
X151134075Y-87007007D01*
X151100000Y-87134174D01*
X151100000Y-87265826D01*
X151134075Y-87392993D01*
X151166988Y-87450000D01*
X150250000Y-87450000D01*
X150250000Y-87956246D01*
X150283242Y-88166127D01*
X150283242Y-88166130D01*
X150348904Y-88368217D01*
X150445379Y-88557557D01*
X150570272Y-88729459D01*
X150570276Y-88729464D01*
X150720535Y-88879723D01*
X150720540Y-88879727D01*
X150892442Y-89004620D01*
X151081782Y-89101095D01*
X151283871Y-89166757D01*
X151350000Y-89177231D01*
X151350000Y-87633012D01*
X151407007Y-87665925D01*
X151534174Y-87700000D01*
X151665826Y-87700000D01*
X151792993Y-87665925D01*
X151850000Y-87633012D01*
X151850000Y-89177230D01*
X151916126Y-89166757D01*
X151916129Y-89166757D01*
X152118217Y-89101095D01*
X152307557Y-89004620D01*
X152479459Y-88879727D01*
X152479464Y-88879723D01*
X152629723Y-88729464D01*
X152629727Y-88729459D01*
X152754620Y-88557557D01*
X152815015Y-88439028D01*
X152862990Y-88388232D01*
X152930811Y-88371437D01*
X152996946Y-88393974D01*
X153040397Y-88448690D01*
X153049500Y-88495323D01*
X153049500Y-88504269D01*
X153052353Y-88534699D01*
X153052353Y-88534701D01*
X153092699Y-88650000D01*
X153097207Y-88662882D01*
X153177850Y-88772150D01*
X153287118Y-88852793D01*
X153290345Y-88853922D01*
X153415299Y-88897646D01*
X153445730Y-88900500D01*
X153445734Y-88900500D01*
X154754270Y-88900500D01*
X154784699Y-88897646D01*
X154784701Y-88897646D01*
X154848790Y-88875219D01*
X154912882Y-88852793D01*
X155022150Y-88772150D01*
X155102793Y-88662882D01*
X155126341Y-88595586D01*
X155147646Y-88534701D01*
X155147646Y-88534699D01*
X155150500Y-88504269D01*
X155150500Y-87724500D01*
X155170185Y-87657461D01*
X155222989Y-87611706D01*
X155274500Y-87600500D01*
X158452725Y-87600500D01*
X158452727Y-87600500D01*
X158554588Y-87573207D01*
X158645913Y-87520480D01*
X160189417Y-85976975D01*
X160250738Y-85943492D01*
X160320430Y-85948476D01*
X160376363Y-85990348D01*
X160400780Y-86055812D01*
X160385928Y-86124085D01*
X160380199Y-86133548D01*
X160318370Y-86226081D01*
X160318364Y-86226092D01*
X160242950Y-86408160D01*
X160242947Y-86408170D01*
X160204500Y-86601456D01*
X160204500Y-86601459D01*
X160204500Y-86798541D01*
X160204500Y-86798543D01*
X160204499Y-86798543D01*
X160242947Y-86991829D01*
X160242950Y-86991839D01*
X160318364Y-87173907D01*
X160318371Y-87173920D01*
X160427860Y-87337781D01*
X160427863Y-87337785D01*
X160567214Y-87477136D01*
X160567218Y-87477139D01*
X160731079Y-87586628D01*
X160731092Y-87586635D01*
X160911077Y-87661186D01*
X160913165Y-87662051D01*
X160913169Y-87662051D01*
X160913170Y-87662052D01*
X161106456Y-87700500D01*
X161106459Y-87700500D01*
X161303543Y-87700500D01*
X161477359Y-87665925D01*
X161496835Y-87662051D01*
X161560588Y-87635643D01*
X161630055Y-87628175D01*
X161692535Y-87659450D01*
X161728187Y-87719539D01*
X161725694Y-87789364D01*
X161695720Y-87837886D01*
X161070426Y-88463181D01*
X161043498Y-88477884D01*
X161017680Y-88494477D01*
X161011479Y-88495368D01*
X161009103Y-88496666D01*
X160982745Y-88499500D01*
X160954895Y-88499500D01*
X160887856Y-88479815D01*
X160845493Y-88430926D01*
X160844502Y-88431456D01*
X160842166Y-88427086D01*
X160842101Y-88427011D01*
X160841990Y-88426756D01*
X160841628Y-88426079D01*
X160732139Y-88262218D01*
X160732136Y-88262214D01*
X160592785Y-88122863D01*
X160592781Y-88122860D01*
X160428920Y-88013371D01*
X160428907Y-88013364D01*
X160246839Y-87937950D01*
X160246829Y-87937947D01*
X160053543Y-87899500D01*
X160053541Y-87899500D01*
X159456459Y-87899500D01*
X159456457Y-87899500D01*
X159263170Y-87937947D01*
X159263160Y-87937950D01*
X159081092Y-88013364D01*
X159081079Y-88013371D01*
X158917218Y-88122860D01*
X158917214Y-88122863D01*
X158777863Y-88262214D01*
X158777860Y-88262218D01*
X158668371Y-88426079D01*
X158668364Y-88426092D01*
X158592950Y-88608160D01*
X158592947Y-88608170D01*
X158554500Y-88801456D01*
X158554500Y-88801459D01*
X158554500Y-88998541D01*
X158554500Y-88998543D01*
X158554499Y-88998543D01*
X158592947Y-89191829D01*
X158592950Y-89191839D01*
X158649369Y-89328048D01*
X158656838Y-89397517D01*
X158625562Y-89459996D01*
X158565473Y-89495648D01*
X158534808Y-89499500D01*
X147815437Y-89499500D01*
X147748398Y-89479815D01*
X147702643Y-89427011D01*
X147692699Y-89357853D01*
X147721724Y-89294297D01*
X147746547Y-89272398D01*
X147787838Y-89244807D01*
X147813558Y-89227622D01*
X147947622Y-89093558D01*
X148052956Y-88935915D01*
X148125512Y-88760751D01*
X148162500Y-88574798D01*
X148162500Y-88385202D01*
X148125512Y-88199249D01*
X148052956Y-88024085D01*
X147969711Y-87899500D01*
X147947622Y-87866441D01*
X147813558Y-87732377D01*
X147655912Y-87627042D01*
X147480751Y-87554488D01*
X147480743Y-87554486D01*
X147308651Y-87520255D01*
X147294802Y-87517500D01*
X147294798Y-87517500D01*
X147105202Y-87517500D01*
X147105197Y-87517500D01*
X146919256Y-87554486D01*
X146919248Y-87554488D01*
X146744087Y-87627042D01*
X146586441Y-87732377D01*
X146452377Y-87866441D01*
X146347042Y-88024087D01*
X146274488Y-88199248D01*
X146274486Y-88199256D01*
X146237500Y-88385197D01*
X146237500Y-88574802D01*
X146274486Y-88760743D01*
X146274488Y-88760751D01*
X146347042Y-88935912D01*
X146452377Y-89093558D01*
X146586438Y-89227619D01*
X146586446Y-89227625D01*
X146653453Y-89272398D01*
X146698259Y-89326010D01*
X146706966Y-89395335D01*
X146676812Y-89458362D01*
X146617369Y-89495082D01*
X146584563Y-89499500D01*
X144824000Y-89499500D01*
X144756961Y-89479815D01*
X144711206Y-89427011D01*
X144700000Y-89375500D01*
X144700000Y-85840678D01*
X145938000Y-85840678D01*
X145938000Y-86039321D01*
X145969075Y-86235520D01*
X145969075Y-86235523D01*
X146030457Y-86424437D01*
X146120641Y-86601432D01*
X146147730Y-86638715D01*
X146147731Y-86638716D01*
X146757861Y-86028585D01*
X146780667Y-86113694D01*
X146839910Y-86216306D01*
X146923694Y-86300090D01*
X147026306Y-86359333D01*
X147111414Y-86382137D01*
X146501283Y-86992268D01*
X146501283Y-86992269D01*
X146538567Y-87019358D01*
X146715562Y-87109542D01*
X146904477Y-87170924D01*
X147100679Y-87202000D01*
X147299321Y-87202000D01*
X147495520Y-87170924D01*
X147495523Y-87170924D01*
X147684437Y-87109542D01*
X147861425Y-87019362D01*
X147898716Y-86992268D01*
X147288585Y-86382137D01*
X147373694Y-86359333D01*
X147476306Y-86300090D01*
X147560090Y-86216306D01*
X147619333Y-86113694D01*
X147642138Y-86028585D01*
X148252268Y-86638715D01*
X148279362Y-86601425D01*
X148369541Y-86424438D01*
X148377300Y-86400562D01*
X148377300Y-86400561D01*
X148430924Y-86235523D01*
X148430924Y-86235520D01*
X148462000Y-86039321D01*
X148462000Y-85840678D01*
X148430924Y-85644479D01*
X148430924Y-85644476D01*
X148369542Y-85455562D01*
X148279358Y-85278567D01*
X148252268Y-85241283D01*
X147642137Y-85851414D01*
X147619333Y-85766306D01*
X147560090Y-85663694D01*
X147476306Y-85579910D01*
X147373694Y-85520667D01*
X147288585Y-85497861D01*
X147898716Y-84887731D01*
X147898715Y-84887730D01*
X147861432Y-84860641D01*
X147684437Y-84770457D01*
X147495522Y-84709075D01*
X147299321Y-84678000D01*
X147100679Y-84678000D01*
X146904479Y-84709075D01*
X146904476Y-84709075D01*
X146715562Y-84770457D01*
X146538564Y-84860643D01*
X146501283Y-84887729D01*
X146501282Y-84887730D01*
X147111415Y-85497861D01*
X147026306Y-85520667D01*
X146923694Y-85579910D01*
X146839910Y-85663694D01*
X146780667Y-85766306D01*
X146757861Y-85851414D01*
X146147730Y-85241282D01*
X146147729Y-85241283D01*
X146120643Y-85278564D01*
X146030457Y-85455562D01*
X145969075Y-85644476D01*
X145969075Y-85644479D01*
X145938000Y-85840678D01*
X144700000Y-85840678D01*
X144700000Y-83305197D01*
X146237500Y-83305197D01*
X146237500Y-83494802D01*
X146274486Y-83680743D01*
X146274488Y-83680751D01*
X146347042Y-83855912D01*
X146452377Y-84013558D01*
X146586441Y-84147622D01*
X146677043Y-84208160D01*
X146744085Y-84252956D01*
X146919249Y-84325512D01*
X147105197Y-84362499D01*
X147105201Y-84362500D01*
X147105202Y-84362500D01*
X147294799Y-84362500D01*
X147294800Y-84362499D01*
X147480751Y-84325512D01*
X147655915Y-84252956D01*
X147813558Y-84147622D01*
X147947622Y-84013558D01*
X148052956Y-83855915D01*
X148125512Y-83680751D01*
X148162500Y-83494798D01*
X148162500Y-83305202D01*
X148125512Y-83119249D01*
X148052956Y-82944085D01*
X147975220Y-82827745D01*
X147947622Y-82786441D01*
X147813558Y-82652377D01*
X147655912Y-82547042D01*
X147480751Y-82474488D01*
X147480743Y-82474486D01*
X147294802Y-82437500D01*
X147294798Y-82437500D01*
X147105202Y-82437500D01*
X147105197Y-82437500D01*
X146919256Y-82474486D01*
X146919248Y-82474488D01*
X146744087Y-82547042D01*
X146586441Y-82652377D01*
X146452377Y-82786441D01*
X146347042Y-82944087D01*
X146274488Y-83119248D01*
X146274486Y-83119256D01*
X146237500Y-83305197D01*
X144700000Y-83305197D01*
X144700000Y-80765197D01*
X146237500Y-80765197D01*
X146237500Y-80954802D01*
X146274486Y-81140743D01*
X146274488Y-81140751D01*
X146347042Y-81315912D01*
X146452377Y-81473558D01*
X146586441Y-81607622D01*
X146691300Y-81677686D01*
X146744085Y-81712956D01*
X146919249Y-81785512D01*
X147105197Y-81822499D01*
X147105201Y-81822500D01*
X147105202Y-81822500D01*
X147294799Y-81822500D01*
X147294800Y-81822499D01*
X147480751Y-81785512D01*
X147655915Y-81712956D01*
X147813558Y-81607622D01*
X147947622Y-81473558D01*
X148052956Y-81315915D01*
X148125512Y-81140751D01*
X148162500Y-80954798D01*
X148162500Y-80765202D01*
X148125512Y-80579249D01*
X148052956Y-80404085D01*
X148017686Y-80351300D01*
X147947622Y-80246441D01*
X147813558Y-80112377D01*
X147655912Y-80007042D01*
X147480751Y-79934488D01*
X147480743Y-79934486D01*
X147294802Y-79897500D01*
X147294798Y-79897500D01*
X147105202Y-79897500D01*
X147105197Y-79897500D01*
X146919256Y-79934486D01*
X146919248Y-79934488D01*
X146744087Y-80007042D01*
X146586441Y-80112377D01*
X146452377Y-80246441D01*
X146347042Y-80404087D01*
X146274488Y-80579248D01*
X146274486Y-80579256D01*
X146237500Y-80765197D01*
X144700000Y-80765197D01*
X144700000Y-78225197D01*
X146237500Y-78225197D01*
X146237500Y-78414802D01*
X146274486Y-78600743D01*
X146274488Y-78600751D01*
X146347042Y-78775912D01*
X146452377Y-78933558D01*
X146586441Y-79067622D01*
X146691300Y-79137686D01*
X146744085Y-79172956D01*
X146919249Y-79245512D01*
X147105197Y-79282499D01*
X147105201Y-79282500D01*
X147105202Y-79282500D01*
X147294799Y-79282500D01*
X147294800Y-79282499D01*
X147480751Y-79245512D01*
X147655915Y-79172956D01*
X147813558Y-79067622D01*
X147947622Y-78933558D01*
X148052956Y-78775915D01*
X148125512Y-78600751D01*
X148162500Y-78414798D01*
X148162500Y-78225202D01*
X148125512Y-78039249D01*
X148052956Y-77864085D01*
X148017686Y-77811300D01*
X147947622Y-77706441D01*
X147813558Y-77572377D01*
X147655912Y-77467042D01*
X147480751Y-77394488D01*
X147480743Y-77394486D01*
X147294802Y-77357500D01*
X147294798Y-77357500D01*
X147105202Y-77357500D01*
X147105197Y-77357500D01*
X146919256Y-77394486D01*
X146919248Y-77394488D01*
X146744087Y-77467042D01*
X146586441Y-77572377D01*
X146452377Y-77706441D01*
X146347042Y-77864087D01*
X146274488Y-78039248D01*
X146274486Y-78039256D01*
X146237500Y-78225197D01*
X144700000Y-78225197D01*
X144700000Y-74385258D01*
X148249500Y-74385258D01*
X148249500Y-74614741D01*
X148267667Y-74752726D01*
X148279452Y-74842238D01*
X148329634Y-75029522D01*
X148338842Y-75063887D01*
X148426650Y-75275876D01*
X148426657Y-75275890D01*
X148541392Y-75474617D01*
X148681081Y-75656661D01*
X148681089Y-75656670D01*
X148843330Y-75818911D01*
X148843338Y-75818918D01*
X149025382Y-75958607D01*
X149025385Y-75958608D01*
X149025388Y-75958611D01*
X149224112Y-76073344D01*
X149224117Y-76073346D01*
X149224123Y-76073349D01*
X149315480Y-76111190D01*
X149436113Y-76161158D01*
X149657762Y-76220548D01*
X149885266Y-76250500D01*
X149885273Y-76250500D01*
X150114727Y-76250500D01*
X150114734Y-76250500D01*
X150342238Y-76220548D01*
X150563887Y-76161158D01*
X150775888Y-76073344D01*
X150974612Y-75958611D01*
X151156661Y-75818919D01*
X151156665Y-75818914D01*
X151156670Y-75818911D01*
X151318911Y-75656670D01*
X151318914Y-75656665D01*
X151318919Y-75656661D01*
X151458611Y-75474612D01*
X151573344Y-75275888D01*
X151661158Y-75063887D01*
X151720548Y-74842238D01*
X151750500Y-74614734D01*
X151750500Y-74385266D01*
X151720548Y-74157762D01*
X151661158Y-73936113D01*
X151573344Y-73724112D01*
X151458611Y-73525388D01*
X151458608Y-73525385D01*
X151458607Y-73525382D01*
X151318918Y-73343338D01*
X151318911Y-73343330D01*
X151156670Y-73181089D01*
X151156661Y-73181081D01*
X150974617Y-73041392D01*
X150775890Y-72926657D01*
X150775876Y-72926650D01*
X150563887Y-72838842D01*
X150342238Y-72779452D01*
X150304215Y-72774446D01*
X150114741Y-72749500D01*
X150114734Y-72749500D01*
X149885266Y-72749500D01*
X149885258Y-72749500D01*
X149668715Y-72778009D01*
X149657762Y-72779452D01*
X149564076Y-72804554D01*
X149436112Y-72838842D01*
X149224123Y-72926650D01*
X149224109Y-72926657D01*
X149025382Y-73041392D01*
X148843338Y-73181081D01*
X148681081Y-73343338D01*
X148541392Y-73525382D01*
X148426657Y-73724109D01*
X148426650Y-73724123D01*
X148338842Y-73936112D01*
X148279453Y-74157759D01*
X148279451Y-74157770D01*
X148249500Y-74385258D01*
X144700000Y-74385258D01*
X144700000Y-67665754D01*
X144719685Y-67598715D01*
X144772489Y-67552960D01*
X144841647Y-67543016D01*
X144905203Y-67572041D01*
G37*
G04 #@! TD.AperFunction*
G04 #@! TA.AperFunction,Conductor*
G36*
X145701879Y-50520185D02*
G01*
X145747634Y-50572989D01*
X145757578Y-50642147D01*
X145737942Y-50693391D01*
X145663046Y-50805479D01*
X145590492Y-50980640D01*
X145590490Y-50980648D01*
X145553504Y-51166589D01*
X145553504Y-51356194D01*
X145590490Y-51542135D01*
X145590492Y-51542143D01*
X145663046Y-51717304D01*
X145768381Y-51874950D01*
X145902445Y-52009014D01*
X146007304Y-52079078D01*
X146060089Y-52114348D01*
X146235253Y-52186904D01*
X146421201Y-52223891D01*
X146421205Y-52223892D01*
X146421206Y-52223892D01*
X146610803Y-52223892D01*
X146610803Y-52223891D01*
X146796755Y-52186904D01*
X146796757Y-52186902D01*
X146797114Y-52186832D01*
X146866706Y-52193059D01*
X146908987Y-52220768D01*
X147108688Y-52420469D01*
X147142173Y-52481792D01*
X147137189Y-52551484D01*
X147095317Y-52607417D01*
X147029853Y-52631834D01*
X146982689Y-52626081D01*
X146811526Y-52570467D01*
X146615325Y-52539392D01*
X146416683Y-52539392D01*
X146220483Y-52570467D01*
X146220480Y-52570467D01*
X146031566Y-52631849D01*
X145854568Y-52722035D01*
X145817287Y-52749121D01*
X145817286Y-52749122D01*
X146427419Y-53359253D01*
X146342310Y-53382059D01*
X146239698Y-53441302D01*
X146155914Y-53525086D01*
X146096671Y-53627698D01*
X146073865Y-53712806D01*
X145463734Y-53102674D01*
X145463733Y-53102675D01*
X145436647Y-53139956D01*
X145346461Y-53316954D01*
X145285079Y-53505868D01*
X145285079Y-53505871D01*
X145254004Y-53702070D01*
X145254004Y-53900713D01*
X145285079Y-54096912D01*
X145285079Y-54096915D01*
X145346461Y-54285829D01*
X145436645Y-54462824D01*
X145463734Y-54500107D01*
X145463735Y-54500108D01*
X146073865Y-53889977D01*
X146096671Y-53975086D01*
X146155914Y-54077698D01*
X146239698Y-54161482D01*
X146342310Y-54220725D01*
X146427418Y-54243529D01*
X145817287Y-54853660D01*
X145817287Y-54853661D01*
X145854571Y-54880750D01*
X146031566Y-54970934D01*
X146220481Y-55032316D01*
X146416683Y-55063392D01*
X146615325Y-55063392D01*
X146811524Y-55032316D01*
X146811527Y-55032316D01*
X146980432Y-54977436D01*
X147000441Y-54970934D01*
X147177429Y-54880754D01*
X147214720Y-54853660D01*
X146604589Y-54243529D01*
X146689698Y-54220725D01*
X146792310Y-54161482D01*
X146876094Y-54077698D01*
X146935337Y-53975086D01*
X146958142Y-53889976D01*
X147568272Y-54500107D01*
X147595366Y-54462817D01*
X147685546Y-54285829D01*
X147746928Y-54096915D01*
X147746928Y-54096912D01*
X147778004Y-53900713D01*
X147778004Y-53702070D01*
X147746928Y-53505871D01*
X147746928Y-53505868D01*
X147691314Y-53334706D01*
X147689319Y-53264865D01*
X147725399Y-53205032D01*
X147788100Y-53174204D01*
X147857514Y-53182169D01*
X147896926Y-53208707D01*
X148518699Y-53830480D01*
X148610024Y-53883207D01*
X148711885Y-53910500D01*
X148711887Y-53910500D01*
X167462725Y-53910500D01*
X167462727Y-53910500D01*
X167564588Y-53883207D01*
X167655913Y-53830480D01*
X168491383Y-52995008D01*
X168552704Y-52961525D01*
X168603254Y-52961074D01*
X168608164Y-52962050D01*
X168608165Y-52962051D01*
X168637333Y-52967853D01*
X168801456Y-53000500D01*
X168801459Y-53000500D01*
X168998543Y-53000500D01*
X169128582Y-52974632D01*
X169191835Y-52962051D01*
X169328048Y-52905629D01*
X169397517Y-52898161D01*
X169459996Y-52929436D01*
X169495648Y-52989525D01*
X169499500Y-53020191D01*
X169499500Y-53866964D01*
X169479815Y-53934003D01*
X169427011Y-53979758D01*
X169357853Y-53989702D01*
X169337182Y-53984895D01*
X169174419Y-53932010D01*
X168972317Y-53900000D01*
X168767683Y-53900000D01*
X168565582Y-53932009D01*
X168370968Y-53995244D01*
X168188644Y-54088143D01*
X168144077Y-54120523D01*
X168144077Y-54120524D01*
X168823553Y-54800000D01*
X168817339Y-54800000D01*
X168715606Y-54827259D01*
X168624394Y-54879920D01*
X168549920Y-54954394D01*
X168497259Y-55045606D01*
X168470000Y-55147339D01*
X168470000Y-55153553D01*
X167790524Y-54474077D01*
X167790523Y-54474077D01*
X167758143Y-54518644D01*
X167665244Y-54700968D01*
X167602009Y-54895582D01*
X167570000Y-55097682D01*
X167570000Y-55302317D01*
X167602009Y-55504417D01*
X167665244Y-55699031D01*
X167758141Y-55881350D01*
X167758147Y-55881359D01*
X167790523Y-55925921D01*
X167790524Y-55925922D01*
X168470000Y-55246446D01*
X168470000Y-55252661D01*
X168497259Y-55354394D01*
X168549920Y-55445606D01*
X168624394Y-55520080D01*
X168715606Y-55572741D01*
X168817339Y-55600000D01*
X168823552Y-55600000D01*
X168144076Y-56279474D01*
X168188650Y-56311859D01*
X168370968Y-56404755D01*
X168565582Y-56467990D01*
X168767683Y-56500000D01*
X168972317Y-56500000D01*
X169174417Y-56467990D01*
X169337181Y-56415103D01*
X169407022Y-56413107D01*
X169466855Y-56449187D01*
X169497684Y-56511888D01*
X169499500Y-56533034D01*
X169499500Y-70698957D01*
X169479815Y-70765996D01*
X169427011Y-70811751D01*
X169357853Y-70821695D01*
X169294297Y-70792670D01*
X169287819Y-70786638D01*
X169253561Y-70752380D01*
X169253557Y-70752377D01*
X169095609Y-70646839D01*
X169050804Y-70593227D01*
X169040500Y-70543737D01*
X169040500Y-69737275D01*
X169040499Y-69737270D01*
X169033127Y-69709755D01*
X169013208Y-69635414D01*
X168990305Y-69595745D01*
X168960480Y-69544087D01*
X168145913Y-68729520D01*
X168098855Y-68702351D01*
X168054589Y-68676793D01*
X168003657Y-68663146D01*
X167952727Y-68649500D01*
X167952726Y-68649500D01*
X166435208Y-68649500D01*
X166368169Y-68629815D01*
X166322414Y-68577011D01*
X166315433Y-68557592D01*
X166314421Y-68553815D01*
X166314420Y-68553814D01*
X166293898Y-68504268D01*
X166293895Y-68504262D01*
X166293893Y-68504257D01*
X166228067Y-68390243D01*
X166215697Y-68374123D01*
X166195409Y-68347683D01*
X166102316Y-68254590D01*
X166059759Y-68221934D01*
X165945745Y-68156108D01*
X165945731Y-68156101D01*
X165896188Y-68135580D01*
X165854099Y-68124302D01*
X165769014Y-68101503D01*
X165769009Y-68101502D01*
X165769007Y-68101502D01*
X165715832Y-68094500D01*
X165715826Y-68094500D01*
X165150000Y-68094500D01*
X165149995Y-68094500D01*
X165104272Y-68099651D01*
X165059643Y-68121144D01*
X164990701Y-68132495D01*
X164953659Y-68116951D01*
X164951752Y-68120913D01*
X164939164Y-68114851D01*
X164850004Y-68094500D01*
X164850000Y-68094500D01*
X164284174Y-68094500D01*
X164284167Y-68094500D01*
X164230992Y-68101502D01*
X164230986Y-68101503D01*
X164103811Y-68135580D01*
X164054268Y-68156101D01*
X164054246Y-68156112D01*
X164007871Y-68182887D01*
X163945872Y-68199500D01*
X163524499Y-68199500D01*
X163457460Y-68179815D01*
X163411705Y-68127011D01*
X163400499Y-68075500D01*
X163400499Y-67695739D01*
X163400499Y-67695734D01*
X163397646Y-67665300D01*
X163352793Y-67537117D01*
X163308328Y-67476869D01*
X163272150Y-67427849D01*
X163209281Y-67381450D01*
X163162883Y-67347207D01*
X163139345Y-67338970D01*
X163076673Y-67317040D01*
X163019898Y-67276318D01*
X162994151Y-67211365D01*
X163007608Y-67142803D01*
X163055996Y-67092401D01*
X163076662Y-67082962D01*
X163162883Y-67052793D01*
X163272150Y-66972150D01*
X163352793Y-66862883D01*
X163381048Y-66782135D01*
X163397646Y-66734702D01*
X163397646Y-66734700D01*
X163397957Y-66731387D01*
X163400500Y-66704267D01*
X163400499Y-65117253D01*
X163420184Y-65050215D01*
X163436813Y-65029578D01*
X165320480Y-63145913D01*
X165373206Y-63054588D01*
X165373207Y-63054587D01*
X165400500Y-62952727D01*
X165400500Y-58340539D01*
X165417112Y-58278540D01*
X165466392Y-58193186D01*
X165500500Y-58065892D01*
X165500500Y-58051577D01*
X166449500Y-58051577D01*
X166449500Y-58248422D01*
X166480290Y-58442826D01*
X166541117Y-58630029D01*
X166566181Y-58679219D01*
X166630476Y-58805405D01*
X166746172Y-58964646D01*
X166885354Y-59103828D01*
X167004784Y-59190600D01*
X167044596Y-59219525D01*
X167183319Y-59290207D01*
X167234116Y-59338181D01*
X167250911Y-59406002D01*
X167228374Y-59472137D01*
X167195918Y-59503793D01*
X167125963Y-59550536D01*
X167000538Y-59675961D01*
X167000535Y-59675965D01*
X166901990Y-59823446D01*
X166901983Y-59823459D01*
X166834106Y-59987332D01*
X166834103Y-59987341D01*
X166799500Y-60161304D01*
X166799500Y-60338695D01*
X166834103Y-60512658D01*
X166834106Y-60512667D01*
X166901983Y-60676540D01*
X166901990Y-60676553D01*
X167000535Y-60824034D01*
X167000538Y-60824038D01*
X167125961Y-60949461D01*
X167125965Y-60949464D01*
X167273446Y-61048009D01*
X167273459Y-61048016D01*
X167345339Y-61077789D01*
X167437334Y-61115894D01*
X167457594Y-61119924D01*
X167500118Y-61128383D01*
X167562028Y-61160768D01*
X167596603Y-61221484D01*
X167592863Y-61291253D01*
X167551996Y-61347925D01*
X167500118Y-61371617D01*
X167437340Y-61384104D01*
X167437332Y-61384106D01*
X167273459Y-61451983D01*
X167273446Y-61451990D01*
X167125965Y-61550535D01*
X167125961Y-61550538D01*
X167000538Y-61675961D01*
X167000535Y-61675965D01*
X166901990Y-61823446D01*
X166901983Y-61823459D01*
X166834106Y-61987332D01*
X166834103Y-61987341D01*
X166799500Y-62161304D01*
X166799500Y-62338695D01*
X166834103Y-62512658D01*
X166834106Y-62512667D01*
X166901983Y-62676540D01*
X166901990Y-62676553D01*
X167000535Y-62824034D01*
X167000538Y-62824038D01*
X167125961Y-62949461D01*
X167125965Y-62949464D01*
X167273446Y-63048009D01*
X167273459Y-63048016D01*
X167323454Y-63068724D01*
X167437334Y-63115894D01*
X167457594Y-63119924D01*
X167500118Y-63128383D01*
X167562028Y-63160768D01*
X167596603Y-63221484D01*
X167592863Y-63291253D01*
X167551996Y-63347925D01*
X167500118Y-63371617D01*
X167437340Y-63384104D01*
X167437332Y-63384106D01*
X167273459Y-63451983D01*
X167273446Y-63451990D01*
X167125965Y-63550535D01*
X167125961Y-63550538D01*
X167000538Y-63675961D01*
X167000535Y-63675965D01*
X166901990Y-63823446D01*
X166901983Y-63823459D01*
X166834106Y-63987332D01*
X166834103Y-63987341D01*
X166799500Y-64161304D01*
X166799500Y-64338695D01*
X166834103Y-64512658D01*
X166834106Y-64512667D01*
X166901983Y-64676540D01*
X166901990Y-64676553D01*
X167000535Y-64824034D01*
X167000538Y-64824038D01*
X167125961Y-64949461D01*
X167125964Y-64949463D01*
X167125965Y-64949464D01*
X167150553Y-64965893D01*
X167195917Y-64996205D01*
X167240721Y-65049818D01*
X167249428Y-65119143D01*
X167219273Y-65182170D01*
X167183320Y-65209792D01*
X167044594Y-65280476D01*
X166999462Y-65313267D01*
X166885354Y-65396172D01*
X166885352Y-65396174D01*
X166885351Y-65396174D01*
X166746174Y-65535351D01*
X166746174Y-65535352D01*
X166746172Y-65535354D01*
X166716728Y-65575880D01*
X166630476Y-65694594D01*
X166541117Y-65869970D01*
X166480290Y-66057173D01*
X166449500Y-66251577D01*
X166449500Y-66448422D01*
X166480290Y-66642826D01*
X166541117Y-66830029D01*
X166605967Y-66957304D01*
X166630476Y-67005405D01*
X166746172Y-67164646D01*
X166885354Y-67303828D01*
X167044595Y-67419524D01*
X167120515Y-67458207D01*
X167219970Y-67508882D01*
X167219972Y-67508882D01*
X167219975Y-67508884D01*
X167306867Y-67537117D01*
X167407173Y-67569709D01*
X167601578Y-67600500D01*
X167601583Y-67600500D01*
X167798422Y-67600500D01*
X167992826Y-67569709D01*
X168029133Y-67557912D01*
X168180025Y-67508884D01*
X168355405Y-67419524D01*
X168514646Y-67303828D01*
X168653828Y-67164646D01*
X168769524Y-67005405D01*
X168858884Y-66830025D01*
X168919709Y-66642826D01*
X168927095Y-66596191D01*
X168950500Y-66448422D01*
X168950500Y-66251577D01*
X168919709Y-66057173D01*
X168870330Y-65905202D01*
X168858884Y-65869975D01*
X168858882Y-65869972D01*
X168858882Y-65869970D01*
X168799674Y-65753769D01*
X168769524Y-65694595D01*
X168653828Y-65535354D01*
X168514646Y-65396172D01*
X168355405Y-65280476D01*
X168216679Y-65209792D01*
X168165883Y-65161818D01*
X168149088Y-65093997D01*
X168171625Y-65027862D01*
X168204083Y-64996205D01*
X168249447Y-64965893D01*
X168274035Y-64949464D01*
X168399464Y-64824035D01*
X168498013Y-64676547D01*
X168565894Y-64512666D01*
X168567946Y-64502354D01*
X168600499Y-64338695D01*
X168600500Y-64338693D01*
X168600500Y-64161306D01*
X168600499Y-64161304D01*
X168565896Y-63987341D01*
X168565893Y-63987332D01*
X168498016Y-63823459D01*
X168498009Y-63823446D01*
X168399464Y-63675965D01*
X168399461Y-63675961D01*
X168274038Y-63550538D01*
X168274034Y-63550535D01*
X168126553Y-63451990D01*
X168126540Y-63451983D01*
X167962667Y-63384106D01*
X167962658Y-63384103D01*
X167899882Y-63371617D01*
X167837971Y-63339232D01*
X167803397Y-63278517D01*
X167807136Y-63208747D01*
X167848003Y-63152075D01*
X167899882Y-63128383D01*
X167962658Y-63115896D01*
X167962661Y-63115894D01*
X167962666Y-63115894D01*
X168126547Y-63048013D01*
X168274035Y-62949464D01*
X168399464Y-62824035D01*
X168498013Y-62676547D01*
X168565894Y-62512666D01*
X168600500Y-62338691D01*
X168600500Y-62161309D01*
X168600500Y-62161306D01*
X168600499Y-62161304D01*
X168565896Y-61987341D01*
X168565893Y-61987332D01*
X168498016Y-61823459D01*
X168498009Y-61823446D01*
X168399464Y-61675965D01*
X168399461Y-61675961D01*
X168274038Y-61550538D01*
X168274034Y-61550535D01*
X168126553Y-61451990D01*
X168126540Y-61451983D01*
X167962667Y-61384106D01*
X167962658Y-61384103D01*
X167899882Y-61371617D01*
X167837971Y-61339232D01*
X167803397Y-61278517D01*
X167807136Y-61208747D01*
X167848003Y-61152075D01*
X167899882Y-61128383D01*
X167962658Y-61115896D01*
X167962661Y-61115894D01*
X167962666Y-61115894D01*
X168126547Y-61048013D01*
X168274035Y-60949464D01*
X168399464Y-60824035D01*
X168498013Y-60676547D01*
X168565894Y-60512666D01*
X168569234Y-60495878D01*
X168600499Y-60338695D01*
X168600500Y-60338693D01*
X168600500Y-60161306D01*
X168600499Y-60161304D01*
X168565896Y-59987341D01*
X168565893Y-59987332D01*
X168498016Y-59823459D01*
X168498009Y-59823446D01*
X168399464Y-59675965D01*
X168399461Y-59675961D01*
X168274038Y-59550538D01*
X168274032Y-59550533D01*
X168204082Y-59503793D01*
X168159278Y-59450181D01*
X168150571Y-59380856D01*
X168180726Y-59317828D01*
X168216678Y-59290208D01*
X168355405Y-59219524D01*
X168514646Y-59103828D01*
X168653828Y-58964646D01*
X168769524Y-58805405D01*
X168858884Y-58630025D01*
X168919709Y-58442826D01*
X168920801Y-58435933D01*
X168950500Y-58248422D01*
X168950500Y-58051577D01*
X168919709Y-57857173D01*
X168858882Y-57669970D01*
X168772023Y-57499500D01*
X168769524Y-57494595D01*
X168653828Y-57335354D01*
X168514646Y-57196172D01*
X168355405Y-57080476D01*
X168320555Y-57062719D01*
X168180029Y-56991117D01*
X167992826Y-56930290D01*
X167798422Y-56899500D01*
X167798417Y-56899500D01*
X167601583Y-56899500D01*
X167601578Y-56899500D01*
X167407173Y-56930290D01*
X167219970Y-56991117D01*
X167044594Y-57080476D01*
X166953741Y-57146485D01*
X166885354Y-57196172D01*
X166885352Y-57196174D01*
X166885351Y-57196174D01*
X166746174Y-57335351D01*
X166746174Y-57335352D01*
X166746172Y-57335354D01*
X166696485Y-57403741D01*
X166630476Y-57494594D01*
X166541117Y-57669970D01*
X166480290Y-57857173D01*
X166449500Y-58051577D01*
X165500500Y-58051577D01*
X165500500Y-57934108D01*
X165466392Y-57806814D01*
X165400500Y-57692686D01*
X165307314Y-57599500D01*
X165217459Y-57547622D01*
X165193187Y-57533608D01*
X165129539Y-57516554D01*
X165065892Y-57499500D01*
X164934108Y-57499500D01*
X164806812Y-57533608D01*
X164692686Y-57599500D01*
X164692683Y-57599502D01*
X164599502Y-57692683D01*
X164599500Y-57692686D01*
X164533608Y-57806812D01*
X164521428Y-57852269D01*
X164499500Y-57934108D01*
X164499500Y-58065892D01*
X164533608Y-58193186D01*
X164582887Y-58278540D01*
X164599500Y-58340539D01*
X164599500Y-62682744D01*
X164579815Y-62749783D01*
X164563181Y-62770425D01*
X162870424Y-64463181D01*
X162809101Y-64496666D01*
X162782743Y-64499500D01*
X161195739Y-64499500D01*
X161181751Y-64500811D01*
X161165300Y-64502354D01*
X161165297Y-64502354D01*
X161165296Y-64502355D01*
X161165294Y-64502355D01*
X161037117Y-64547206D01*
X160927849Y-64627849D01*
X160847206Y-64737118D01*
X160802353Y-64865297D01*
X160802353Y-64865299D01*
X160799500Y-64895729D01*
X160799500Y-66704260D01*
X160799501Y-66704266D01*
X160802354Y-66734700D01*
X160802354Y-66734702D01*
X160802355Y-66734703D01*
X160802355Y-66734705D01*
X160847206Y-66862882D01*
X160927849Y-66972150D01*
X160972909Y-67005405D01*
X161037117Y-67052793D01*
X161067852Y-67063547D01*
X161123325Y-67082959D01*
X161180101Y-67123681D01*
X161205848Y-67188633D01*
X161192392Y-67257195D01*
X161144004Y-67307598D01*
X161123325Y-67317041D01*
X161037118Y-67347206D01*
X160927849Y-67427849D01*
X160847206Y-67537118D01*
X160802353Y-67665297D01*
X160802353Y-67665299D01*
X160799500Y-67695729D01*
X160799500Y-69504260D01*
X160799501Y-69504266D01*
X160802354Y-69534700D01*
X160802354Y-69534702D01*
X160802355Y-69534703D01*
X160802355Y-69534705D01*
X160847206Y-69662882D01*
X160927849Y-69772150D01*
X160972655Y-69805218D01*
X161037117Y-69852793D01*
X161079844Y-69867744D01*
X161165298Y-69897646D01*
X161172323Y-69898304D01*
X161195733Y-69900500D01*
X163004266Y-69900499D01*
X163034700Y-69897646D01*
X163162883Y-69852793D01*
X163272150Y-69772150D01*
X163352793Y-69662883D01*
X163377608Y-69591966D01*
X163397646Y-69534702D01*
X163397646Y-69534700D01*
X163400500Y-69504268D01*
X163400500Y-69404334D01*
X163420185Y-69337295D01*
X163472989Y-69291540D01*
X163542147Y-69281596D01*
X163605703Y-69310621D01*
X163643477Y-69369399D01*
X163647438Y-69388145D01*
X163651503Y-69419014D01*
X163682503Y-69534705D01*
X163685580Y-69546188D01*
X163706101Y-69595731D01*
X163706108Y-69595745D01*
X163771934Y-69709759D01*
X163804590Y-69752316D01*
X163804591Y-69752317D01*
X163897683Y-69845409D01*
X163940243Y-69878067D01*
X164054257Y-69943893D01*
X164054262Y-69943895D01*
X164054268Y-69943898D01*
X164103811Y-69964419D01*
X164103813Y-69964419D01*
X164103819Y-69964422D01*
X164230986Y-69998497D01*
X164284174Y-70005500D01*
X164284180Y-70005500D01*
X164850003Y-70005500D01*
X164850003Y-70005499D01*
X164895728Y-70000348D01*
X164904724Y-69996015D01*
X164940354Y-69978857D01*
X165009295Y-69967504D01*
X165046336Y-69983055D01*
X165048248Y-69979087D01*
X165060835Y-69985148D01*
X165060836Y-69985148D01*
X165060837Y-69985149D01*
X165127428Y-70000348D01*
X165149995Y-70005499D01*
X165150000Y-70005500D01*
X165715820Y-70005500D01*
X165715826Y-70005500D01*
X165769014Y-69998497D01*
X165896181Y-69964422D01*
X165945743Y-69943893D01*
X166059757Y-69878067D01*
X166102317Y-69845409D01*
X166195409Y-69752317D01*
X166228067Y-69709757D01*
X166293893Y-69595743D01*
X166314422Y-69546181D01*
X166315433Y-69542408D01*
X166351797Y-69482747D01*
X166414643Y-69452217D01*
X166435208Y-69450500D01*
X167682745Y-69450500D01*
X167749784Y-69470185D01*
X167770426Y-69486819D01*
X168203181Y-69919574D01*
X168236666Y-69980897D01*
X168239500Y-70007255D01*
X168239500Y-70543737D01*
X168219815Y-70610776D01*
X168184391Y-70646839D01*
X168026442Y-70752377D01*
X168026438Y-70752380D01*
X167892377Y-70886441D01*
X167787042Y-71044087D01*
X167714488Y-71219248D01*
X167714486Y-71219256D01*
X167677500Y-71405197D01*
X167677500Y-71594802D01*
X167714486Y-71780743D01*
X167714488Y-71780751D01*
X167787042Y-71955912D01*
X167892377Y-72113558D01*
X168026441Y-72247622D01*
X168093153Y-72292197D01*
X168184085Y-72352956D01*
X168359249Y-72425512D01*
X168545197Y-72462499D01*
X168545201Y-72462500D01*
X168545202Y-72462500D01*
X168734799Y-72462500D01*
X168734800Y-72462499D01*
X168920751Y-72425512D01*
X169095915Y-72352956D01*
X169253558Y-72247622D01*
X169267818Y-72233362D01*
X169287819Y-72213362D01*
X169349142Y-72179877D01*
X169418834Y-72184861D01*
X169474767Y-72226733D01*
X169499184Y-72292197D01*
X169499500Y-72301043D01*
X169499500Y-89375500D01*
X169479815Y-89442539D01*
X169427011Y-89488294D01*
X169375500Y-89499500D01*
X168297782Y-89499500D01*
X168230743Y-89479815D01*
X168184988Y-89427011D01*
X168175044Y-89357853D01*
X168179851Y-89337181D01*
X168222990Y-89204411D01*
X168231609Y-89150000D01*
X167399975Y-89150000D01*
X167435070Y-89114905D01*
X167481148Y-89035095D01*
X167505000Y-88946078D01*
X167505000Y-88853922D01*
X167481148Y-88764905D01*
X167435070Y-88685095D01*
X167399975Y-88650000D01*
X168231609Y-88650000D01*
X168222990Y-88595586D01*
X168159755Y-88400970D01*
X168066859Y-88218650D01*
X167946582Y-88053105D01*
X167946582Y-88053104D01*
X167801895Y-87908417D01*
X167801889Y-87908412D01*
X167713111Y-87843911D01*
X167670445Y-87788581D01*
X167664466Y-87718968D01*
X167697072Y-87657173D01*
X167757910Y-87622816D01*
X167827666Y-87626804D01*
X167833448Y-87629032D01*
X167913160Y-87662049D01*
X167913165Y-87662051D01*
X167913169Y-87662051D01*
X167913170Y-87662052D01*
X168106456Y-87700500D01*
X168106459Y-87700500D01*
X168303543Y-87700500D01*
X168477359Y-87665925D01*
X168496835Y-87662051D01*
X168678914Y-87586632D01*
X168842782Y-87477139D01*
X168982139Y-87337782D01*
X169091632Y-87173914D01*
X169092871Y-87170924D01*
X169117325Y-87111885D01*
X169167051Y-86991835D01*
X169186712Y-86892993D01*
X169205500Y-86798543D01*
X169205500Y-86601456D01*
X169167052Y-86408170D01*
X169167051Y-86408169D01*
X169167051Y-86408165D01*
X169146824Y-86359333D01*
X169091635Y-86226092D01*
X169091628Y-86226079D01*
X168982139Y-86062218D01*
X168982136Y-86062214D01*
X168842785Y-85922863D01*
X168842781Y-85922860D01*
X168678920Y-85813371D01*
X168678907Y-85813364D01*
X168496839Y-85737950D01*
X168496829Y-85737947D01*
X168303543Y-85699500D01*
X168303541Y-85699500D01*
X168106459Y-85699500D01*
X168106457Y-85699500D01*
X167913170Y-85737947D01*
X167913160Y-85737950D01*
X167731092Y-85813364D01*
X167731079Y-85813371D01*
X167567218Y-85922860D01*
X167567214Y-85922863D01*
X167427863Y-86062214D01*
X167427860Y-86062218D01*
X167318371Y-86226079D01*
X167318364Y-86226092D01*
X167242950Y-86408160D01*
X167242947Y-86408170D01*
X167204500Y-86601456D01*
X167204500Y-86601459D01*
X167204500Y-86798541D01*
X167204500Y-86798543D01*
X167204499Y-86798543D01*
X167242947Y-86991829D01*
X167242950Y-86991839D01*
X167318364Y-87173907D01*
X167318371Y-87173920D01*
X167427860Y-87337781D01*
X167427863Y-87337785D01*
X167567214Y-87477136D01*
X167571926Y-87481003D01*
X167570565Y-87482661D01*
X167609152Y-87528834D01*
X167617859Y-87598159D01*
X167587704Y-87661186D01*
X167528261Y-87697905D01*
X167458403Y-87696657D01*
X167457137Y-87696254D01*
X167259417Y-87632009D01*
X167057317Y-87600000D01*
X167005000Y-87600000D01*
X167005000Y-88550000D01*
X166505000Y-88550000D01*
X166505000Y-87600000D01*
X166452683Y-87600000D01*
X166250582Y-87632009D01*
X166055968Y-87695244D01*
X165873650Y-87788140D01*
X165708105Y-87908417D01*
X165708104Y-87908417D01*
X165563417Y-88053104D01*
X165563417Y-88053105D01*
X165443140Y-88218650D01*
X165350244Y-88400970D01*
X165287009Y-88595586D01*
X165278391Y-88650000D01*
X166110025Y-88650000D01*
X166074930Y-88685095D01*
X166028852Y-88764905D01*
X166005000Y-88853922D01*
X166005000Y-88946078D01*
X166028852Y-89035095D01*
X166074930Y-89114905D01*
X166110025Y-89150000D01*
X165278391Y-89150000D01*
X165287009Y-89204411D01*
X165330149Y-89337181D01*
X165330952Y-89365302D01*
X165334956Y-89393147D01*
X165331936Y-89399758D01*
X165332144Y-89407023D01*
X165317617Y-89431112D01*
X165305931Y-89456703D01*
X165299817Y-89460632D01*
X165296064Y-89466856D01*
X165270817Y-89479268D01*
X165247153Y-89494477D01*
X165236882Y-89495953D01*
X165233363Y-89497684D01*
X165212218Y-89499500D01*
X164975192Y-89499500D01*
X164908153Y-89479815D01*
X164862398Y-89427011D01*
X164852454Y-89357853D01*
X164860631Y-89328048D01*
X164917049Y-89191839D01*
X164917051Y-89191835D01*
X164955500Y-88998541D01*
X164955500Y-88801459D01*
X164955500Y-88801456D01*
X164955499Y-88801454D01*
X164937558Y-88711254D01*
X164917052Y-88608170D01*
X164917051Y-88608169D01*
X164917051Y-88608165D01*
X164903232Y-88574802D01*
X164841635Y-88426092D01*
X164841628Y-88426079D01*
X164732139Y-88262218D01*
X164732136Y-88262214D01*
X164592785Y-88122863D01*
X164592781Y-88122860D01*
X164428920Y-88013371D01*
X164428907Y-88013364D01*
X164246839Y-87937950D01*
X164246829Y-87937947D01*
X164053543Y-87899500D01*
X164053541Y-87899500D01*
X163456459Y-87899500D01*
X163456457Y-87899500D01*
X163263170Y-87937947D01*
X163263160Y-87937950D01*
X163081092Y-88013364D01*
X163081079Y-88013371D01*
X162917218Y-88122860D01*
X162917214Y-88122863D01*
X162777863Y-88262214D01*
X162777860Y-88262218D01*
X162668371Y-88426079D01*
X162668364Y-88426092D01*
X162592950Y-88608160D01*
X162592947Y-88608170D01*
X162554500Y-88801456D01*
X162554500Y-88801459D01*
X162554500Y-88998541D01*
X162554500Y-88998543D01*
X162554499Y-88998543D01*
X162592947Y-89191829D01*
X162592950Y-89191839D01*
X162649369Y-89328048D01*
X162656838Y-89397517D01*
X162625562Y-89459996D01*
X162565473Y-89495648D01*
X162534808Y-89499500D01*
X161425412Y-89499500D01*
X161358373Y-89479815D01*
X161312618Y-89427011D01*
X161302674Y-89357853D01*
X161331699Y-89294297D01*
X161363411Y-89268113D01*
X161363850Y-89267859D01*
X161445913Y-89220480D01*
X165120480Y-85545913D01*
X165173207Y-85454588D01*
X165200500Y-85352727D01*
X165200500Y-85247273D01*
X165200500Y-82421043D01*
X165220185Y-82354004D01*
X165272989Y-82308249D01*
X165342147Y-82298305D01*
X165405703Y-82327330D01*
X165412181Y-82333362D01*
X165486441Y-82407622D01*
X165566392Y-82461043D01*
X165644085Y-82512956D01*
X165819249Y-82585512D01*
X166005197Y-82622499D01*
X166005201Y-82622500D01*
X166005202Y-82622500D01*
X166194799Y-82622500D01*
X166194800Y-82622499D01*
X166380751Y-82585512D01*
X166431910Y-82564320D01*
X166501378Y-82556852D01*
X166563857Y-82588126D01*
X166599510Y-82648215D01*
X166597017Y-82718040D01*
X166567043Y-82766563D01*
X166007600Y-83326005D01*
X165952014Y-83358098D01*
X165856815Y-83383607D01*
X165856814Y-83383607D01*
X165742686Y-83449500D01*
X165742683Y-83449502D01*
X165649502Y-83542683D01*
X165649500Y-83542686D01*
X165583608Y-83656812D01*
X165566583Y-83720352D01*
X165549500Y-83784108D01*
X165549500Y-83915892D01*
X165566554Y-83979539D01*
X165583608Y-84043187D01*
X165596639Y-84065757D01*
X165649500Y-84157314D01*
X165742686Y-84250500D01*
X165856814Y-84316392D01*
X165984108Y-84350500D01*
X165984110Y-84350500D01*
X166115890Y-84350500D01*
X166115892Y-84350500D01*
X166243186Y-84316392D01*
X166357314Y-84250500D01*
X166450500Y-84157314D01*
X166516392Y-84043186D01*
X166541900Y-83947986D01*
X166573992Y-83892399D01*
X167720480Y-82745913D01*
X167732831Y-82724520D01*
X167773207Y-82654587D01*
X167800500Y-82552727D01*
X167800500Y-78112729D01*
X167800501Y-78112716D01*
X167800501Y-77997274D01*
X167787719Y-77949573D01*
X167773207Y-77895413D01*
X167740731Y-77839163D01*
X167720480Y-77804087D01*
X167645913Y-77729520D01*
X167645910Y-77729518D01*
X167107289Y-77190897D01*
X166536819Y-76620426D01*
X166503334Y-76559103D01*
X166500500Y-76532745D01*
X166500500Y-72456262D01*
X166520185Y-72389223D01*
X166555609Y-72353160D01*
X166555913Y-72352956D01*
X166555915Y-72352956D01*
X166713558Y-72247622D01*
X166847622Y-72113558D01*
X166952956Y-71955915D01*
X167025512Y-71780751D01*
X167062500Y-71594798D01*
X167062500Y-71405202D01*
X167062499Y-71405199D01*
X167062499Y-71405197D01*
X167046807Y-71326306D01*
X167025512Y-71219249D01*
X166952956Y-71044085D01*
X166917686Y-70991300D01*
X166847622Y-70886441D01*
X166713558Y-70752377D01*
X166555912Y-70647042D01*
X166380751Y-70574488D01*
X166380743Y-70574486D01*
X166194802Y-70537500D01*
X166194798Y-70537500D01*
X166005202Y-70537500D01*
X166005197Y-70537500D01*
X165819256Y-70574486D01*
X165819248Y-70574488D01*
X165644087Y-70647042D01*
X165486441Y-70752377D01*
X165352377Y-70886441D01*
X165247042Y-71044087D01*
X165174488Y-71219248D01*
X165174486Y-71219256D01*
X165137500Y-71405197D01*
X165137500Y-71594802D01*
X165174486Y-71780743D01*
X165174488Y-71780751D01*
X165247042Y-71955912D01*
X165352377Y-72113558D01*
X165486441Y-72247622D01*
X165553153Y-72292197D01*
X165644085Y-72352956D01*
X165644086Y-72352956D01*
X165644391Y-72353160D01*
X165689196Y-72406772D01*
X165699500Y-72456262D01*
X165699500Y-76802726D01*
X165726793Y-76904589D01*
X165753156Y-76950250D01*
X165779520Y-76995913D01*
X166387879Y-77604272D01*
X166963181Y-78179573D01*
X166996666Y-78240896D01*
X166999500Y-78267254D01*
X166999500Y-80898957D01*
X166979815Y-80965996D01*
X166927011Y-81011751D01*
X166857853Y-81021695D01*
X166794297Y-80992670D01*
X166787819Y-80986638D01*
X166713558Y-80912377D01*
X166555912Y-80807042D01*
X166380751Y-80734488D01*
X166380743Y-80734486D01*
X166194802Y-80697500D01*
X166194798Y-80697500D01*
X166005202Y-80697500D01*
X166005197Y-80697500D01*
X165819256Y-80734486D01*
X165819248Y-80734488D01*
X165644087Y-80807042D01*
X165486441Y-80912377D01*
X165486438Y-80912380D01*
X165412181Y-80986638D01*
X165350858Y-81020123D01*
X165281166Y-81015139D01*
X165225233Y-80973267D01*
X165200816Y-80907803D01*
X165200500Y-80898957D01*
X165200500Y-77882729D01*
X165200501Y-77882716D01*
X165200501Y-77767274D01*
X165200501Y-77767273D01*
X165173207Y-77665413D01*
X165137907Y-77604272D01*
X165120480Y-77574087D01*
X165045913Y-77499520D01*
X165045910Y-77499518D01*
X164045913Y-76499520D01*
X159439376Y-71892983D01*
X159405891Y-71831660D01*
X159405440Y-71781110D01*
X159405510Y-71780753D01*
X159405512Y-71780751D01*
X159442500Y-71594798D01*
X159442500Y-71405202D01*
X159442499Y-71405199D01*
X159442499Y-71405197D01*
X160057500Y-71405197D01*
X160057500Y-71594802D01*
X160094486Y-71780743D01*
X160094488Y-71780751D01*
X160167042Y-71955912D01*
X160272377Y-72113558D01*
X160406441Y-72247622D01*
X160473153Y-72292197D01*
X160564085Y-72352956D01*
X160739249Y-72425512D01*
X160925197Y-72462499D01*
X160925201Y-72462500D01*
X160925202Y-72462500D01*
X161114799Y-72462500D01*
X161114800Y-72462499D01*
X161300751Y-72425512D01*
X161475915Y-72352956D01*
X161633558Y-72247622D01*
X161767622Y-72113558D01*
X161872956Y-71955915D01*
X161945512Y-71780751D01*
X161982500Y-71594798D01*
X161982500Y-71405202D01*
X161982500Y-71405201D01*
X161982500Y-71405199D01*
X161981601Y-71400678D01*
X162298000Y-71400678D01*
X162298000Y-71599321D01*
X162329075Y-71795520D01*
X162329075Y-71795523D01*
X162390457Y-71984437D01*
X162480641Y-72161432D01*
X162507730Y-72198715D01*
X162507731Y-72198716D01*
X163117861Y-71588585D01*
X163140667Y-71673694D01*
X163199910Y-71776306D01*
X163283694Y-71860090D01*
X163386306Y-71919333D01*
X163471414Y-71942137D01*
X162861283Y-72552268D01*
X162861283Y-72552269D01*
X162898567Y-72579358D01*
X163075562Y-72669542D01*
X163264477Y-72730924D01*
X163460679Y-72762000D01*
X163659321Y-72762000D01*
X163855520Y-72730924D01*
X163855523Y-72730924D01*
X164044437Y-72669542D01*
X164221425Y-72579362D01*
X164258716Y-72552268D01*
X163648585Y-71942137D01*
X163733694Y-71919333D01*
X163836306Y-71860090D01*
X163920090Y-71776306D01*
X163979333Y-71673694D01*
X164002138Y-71588585D01*
X164612268Y-72198715D01*
X164639362Y-72161425D01*
X164729542Y-71984437D01*
X164790924Y-71795523D01*
X164790924Y-71795520D01*
X164822000Y-71599321D01*
X164822000Y-71400678D01*
X164790924Y-71204479D01*
X164790924Y-71204476D01*
X164729542Y-71015562D01*
X164639358Y-70838567D01*
X164612268Y-70801283D01*
X164002137Y-71411414D01*
X163979333Y-71326306D01*
X163920090Y-71223694D01*
X163836306Y-71139910D01*
X163733694Y-71080667D01*
X163648585Y-71057861D01*
X164258716Y-70447731D01*
X164258715Y-70447730D01*
X164221432Y-70420641D01*
X164044437Y-70330457D01*
X163855522Y-70269075D01*
X163659321Y-70238000D01*
X163460679Y-70238000D01*
X163264479Y-70269075D01*
X163264476Y-70269075D01*
X163075562Y-70330457D01*
X162898564Y-70420643D01*
X162861283Y-70447729D01*
X162861282Y-70447730D01*
X163471415Y-71057861D01*
X163386306Y-71080667D01*
X163283694Y-71139910D01*
X163199910Y-71223694D01*
X163140667Y-71326306D01*
X163117861Y-71411414D01*
X162507730Y-70801282D01*
X162507729Y-70801283D01*
X162480643Y-70838564D01*
X162390457Y-71015562D01*
X162329075Y-71204476D01*
X162329075Y-71204479D01*
X162298000Y-71400678D01*
X161981601Y-71400678D01*
X161945513Y-71219256D01*
X161945512Y-71219249D01*
X161872956Y-71044085D01*
X161837686Y-70991300D01*
X161767622Y-70886441D01*
X161633558Y-70752377D01*
X161475912Y-70647042D01*
X161385400Y-70609551D01*
X161300751Y-70574488D01*
X161300743Y-70574486D01*
X161114802Y-70537500D01*
X161114798Y-70537500D01*
X160925202Y-70537500D01*
X160925197Y-70537500D01*
X160739256Y-70574486D01*
X160739248Y-70574488D01*
X160564087Y-70647042D01*
X160406441Y-70752377D01*
X160272377Y-70886441D01*
X160167042Y-71044087D01*
X160094488Y-71219248D01*
X160094486Y-71219256D01*
X160057500Y-71405197D01*
X159442499Y-71405197D01*
X159426807Y-71326306D01*
X159405512Y-71219249D01*
X159332956Y-71044085D01*
X159297686Y-70991300D01*
X159227622Y-70886441D01*
X159093561Y-70752380D01*
X159093557Y-70752377D01*
X158935609Y-70646839D01*
X158890804Y-70593227D01*
X158880500Y-70543737D01*
X158880500Y-68727274D01*
X158880499Y-68727271D01*
X158880370Y-68726789D01*
X158880347Y-68726702D01*
X158853208Y-68625414D01*
X158825262Y-68577011D01*
X158800480Y-68534087D01*
X158336819Y-68070426D01*
X158303334Y-68009103D01*
X158300500Y-67982745D01*
X158300500Y-66761043D01*
X158320185Y-66694004D01*
X158372989Y-66648249D01*
X158442147Y-66638305D01*
X158505703Y-66667330D01*
X158512181Y-66673362D01*
X158586441Y-66747622D01*
X158691300Y-66817686D01*
X158744085Y-66852956D01*
X158744086Y-66852956D01*
X158744087Y-66852957D01*
X158768046Y-66862881D01*
X158919249Y-66925512D01*
X159079080Y-66957304D01*
X159105197Y-66962499D01*
X159105201Y-66962500D01*
X159105202Y-66962500D01*
X159294799Y-66962500D01*
X159294800Y-66962499D01*
X159480751Y-66925512D01*
X159655915Y-66852956D01*
X159813558Y-66747622D01*
X159947622Y-66613558D01*
X160052956Y-66455915D01*
X160125512Y-66280751D01*
X160162500Y-66094798D01*
X160162500Y-65905202D01*
X160162499Y-65905199D01*
X160162499Y-65905197D01*
X160146807Y-65826306D01*
X160125512Y-65719249D01*
X160052956Y-65544085D01*
X159954125Y-65396174D01*
X159947622Y-65386441D01*
X159813558Y-65252377D01*
X159655912Y-65147042D01*
X159480751Y-65074488D01*
X159480743Y-65074486D01*
X159294802Y-65037500D01*
X159294798Y-65037500D01*
X159105202Y-65037500D01*
X159105197Y-65037500D01*
X158919256Y-65074486D01*
X158919248Y-65074488D01*
X158744087Y-65147042D01*
X158586441Y-65252377D01*
X158586438Y-65252380D01*
X158512181Y-65326638D01*
X158450858Y-65360123D01*
X158381166Y-65355139D01*
X158325233Y-65313267D01*
X158300816Y-65247803D01*
X158300500Y-65238957D01*
X158300500Y-64747276D01*
X158300500Y-64747273D01*
X158278367Y-64664669D01*
X158273207Y-64645412D01*
X158220480Y-64554087D01*
X154767305Y-61100912D01*
X154721642Y-61074548D01*
X154675981Y-61048185D01*
X154613474Y-61031437D01*
X154574119Y-61020892D01*
X154574118Y-61020892D01*
X147472266Y-61020892D01*
X147405227Y-61001207D01*
X147369164Y-60965783D01*
X147263626Y-60807833D01*
X147129562Y-60673769D01*
X146971916Y-60568434D01*
X146796755Y-60495880D01*
X146796747Y-60495878D01*
X146610806Y-60458892D01*
X146610802Y-60458892D01*
X146421206Y-60458892D01*
X146421201Y-60458892D01*
X146235260Y-60495878D01*
X146235252Y-60495880D01*
X146060091Y-60568434D01*
X145902445Y-60673769D01*
X145768381Y-60807833D01*
X145663046Y-60965479D01*
X145639061Y-61023386D01*
X145595220Y-61077789D01*
X145528926Y-61099854D01*
X145461226Y-61082575D01*
X145413616Y-61031437D01*
X145400500Y-60975933D01*
X145400500Y-59326850D01*
X145420185Y-59259811D01*
X145472989Y-59214056D01*
X145542147Y-59204112D01*
X145605703Y-59233137D01*
X145639061Y-59279398D01*
X145663045Y-59337302D01*
X145663046Y-59337304D01*
X145768381Y-59494950D01*
X145902445Y-59629014D01*
X145972707Y-59675961D01*
X146060089Y-59734348D01*
X146235253Y-59806904D01*
X146421201Y-59843891D01*
X146421205Y-59843892D01*
X146421206Y-59843892D01*
X146610803Y-59843892D01*
X146610804Y-59843891D01*
X146796755Y-59806904D01*
X146971919Y-59734348D01*
X147129562Y-59629014D01*
X147263626Y-59494950D01*
X147368960Y-59337307D01*
X147441516Y-59162143D01*
X147478504Y-58976190D01*
X147478504Y-58786594D01*
X147441516Y-58600641D01*
X147368960Y-58425477D01*
X147273327Y-58282352D01*
X147263626Y-58267833D01*
X147129562Y-58133769D01*
X147045570Y-58077648D01*
X160799500Y-58077648D01*
X160799500Y-58282351D01*
X160831522Y-58484534D01*
X160894781Y-58679223D01*
X160987715Y-58861613D01*
X161108028Y-59027213D01*
X161252786Y-59171971D01*
X161373690Y-59259811D01*
X161418390Y-59292287D01*
X161486224Y-59326850D01*
X161600776Y-59385218D01*
X161600778Y-59385218D01*
X161600781Y-59385220D01*
X161705137Y-59419127D01*
X161795465Y-59448477D01*
X161896557Y-59464488D01*
X161997648Y-59480500D01*
X161997649Y-59480500D01*
X162202351Y-59480500D01*
X162202352Y-59480500D01*
X162404534Y-59448477D01*
X162599219Y-59385220D01*
X162781610Y-59292287D01*
X162881759Y-59219525D01*
X162947213Y-59171971D01*
X162947215Y-59171968D01*
X162947219Y-59171966D01*
X163091966Y-59027219D01*
X163091968Y-59027215D01*
X163091971Y-59027213D01*
X163144732Y-58954590D01*
X163212287Y-58861610D01*
X163305220Y-58679219D01*
X163368477Y-58484534D01*
X163400500Y-58282352D01*
X163400500Y-58077648D01*
X163381213Y-57955878D01*
X163368477Y-57875465D01*
X163319754Y-57725512D01*
X163305220Y-57680781D01*
X163305218Y-57680778D01*
X163305218Y-57680776D01*
X163263805Y-57599500D01*
X163212287Y-57498390D01*
X163185431Y-57461425D01*
X163091971Y-57332786D01*
X162947213Y-57188028D01*
X162781613Y-57067715D01*
X162781612Y-57067714D01*
X162781610Y-57067713D01*
X162724653Y-57038691D01*
X162599223Y-56974781D01*
X162404534Y-56911522D01*
X162229995Y-56883878D01*
X162202352Y-56879500D01*
X161997648Y-56879500D01*
X161973329Y-56883351D01*
X161795465Y-56911522D01*
X161600776Y-56974781D01*
X161418386Y-57067715D01*
X161252786Y-57188028D01*
X161108028Y-57332786D01*
X160987715Y-57498386D01*
X160894781Y-57680776D01*
X160831522Y-57875465D01*
X160799500Y-58077648D01*
X147045570Y-58077648D01*
X146971916Y-58028434D01*
X146796755Y-57955880D01*
X146796747Y-57955878D01*
X146649686Y-57926626D01*
X146610805Y-57918892D01*
X146610802Y-57918892D01*
X146421206Y-57918892D01*
X146421201Y-57918892D01*
X146235260Y-57955878D01*
X146235252Y-57955880D01*
X146060091Y-58028434D01*
X145902445Y-58133769D01*
X145768381Y-58267833D01*
X145663046Y-58425479D01*
X145639061Y-58483386D01*
X145595220Y-58537789D01*
X145528926Y-58559854D01*
X145461226Y-58542575D01*
X145413616Y-58491437D01*
X145400500Y-58435933D01*
X145400500Y-58074650D01*
X145420185Y-58007611D01*
X145436815Y-57986973D01*
X146123021Y-57300766D01*
X146184342Y-57267283D01*
X146234891Y-57266832D01*
X146235253Y-57266904D01*
X146421203Y-57303891D01*
X146421205Y-57303892D01*
X146421206Y-57303892D01*
X146610803Y-57303892D01*
X146610804Y-57303891D01*
X146796755Y-57266904D01*
X146971919Y-57194348D01*
X147129562Y-57089014D01*
X147263626Y-56954950D01*
X147368960Y-56797307D01*
X147399439Y-56723725D01*
X147443280Y-56669321D01*
X147509574Y-56647256D01*
X147577273Y-56664535D01*
X147624884Y-56715672D01*
X147638000Y-56771177D01*
X147638000Y-56899321D01*
X147669075Y-57095520D01*
X147669075Y-57095523D01*
X147730457Y-57284437D01*
X147820641Y-57461432D01*
X147847730Y-57498715D01*
X147847731Y-57498716D01*
X148457861Y-56888585D01*
X148480667Y-56973694D01*
X148539910Y-57076306D01*
X148623694Y-57160090D01*
X148726306Y-57219333D01*
X148811414Y-57242137D01*
X148201283Y-57852268D01*
X148201283Y-57852269D01*
X148238567Y-57879358D01*
X148415562Y-57969542D01*
X148604477Y-58030924D01*
X148800679Y-58062000D01*
X148999321Y-58062000D01*
X149195520Y-58030924D01*
X149195523Y-58030924D01*
X149384437Y-57969542D01*
X149398669Y-57962291D01*
X149561425Y-57879362D01*
X149598716Y-57852268D01*
X148988585Y-57242137D01*
X149073694Y-57219333D01*
X149176306Y-57160090D01*
X149260090Y-57076306D01*
X149319333Y-56973694D01*
X149342138Y-56888585D01*
X149952268Y-57498715D01*
X149979362Y-57461425D01*
X150069542Y-57284437D01*
X150130924Y-57095523D01*
X150130924Y-57095520D01*
X150162000Y-56899321D01*
X150162000Y-56705197D01*
X158337500Y-56705197D01*
X158337500Y-56894802D01*
X158374486Y-57080743D01*
X158374488Y-57080751D01*
X158447042Y-57255912D01*
X158552377Y-57413558D01*
X158686441Y-57547622D01*
X158782012Y-57611480D01*
X158844085Y-57652956D01*
X159019249Y-57725512D01*
X159205197Y-57762499D01*
X159205201Y-57762500D01*
X159205202Y-57762500D01*
X159394799Y-57762500D01*
X159394800Y-57762499D01*
X159580751Y-57725512D01*
X159755915Y-57652956D01*
X159913558Y-57547622D01*
X160047622Y-57413558D01*
X160152956Y-57255915D01*
X160225512Y-57080751D01*
X160262500Y-56894798D01*
X160262500Y-56705202D01*
X160225512Y-56519249D01*
X160152956Y-56344085D01*
X160109784Y-56279474D01*
X160047622Y-56186441D01*
X159913558Y-56052377D01*
X159755912Y-55947042D01*
X159580751Y-55874488D01*
X159580743Y-55874486D01*
X159394802Y-55837500D01*
X159394798Y-55837500D01*
X159205202Y-55837500D01*
X159205197Y-55837500D01*
X159019256Y-55874486D01*
X159019248Y-55874488D01*
X158844087Y-55947042D01*
X158686441Y-56052377D01*
X158552377Y-56186441D01*
X158447042Y-56344087D01*
X158374488Y-56519248D01*
X158374486Y-56519256D01*
X158337500Y-56705197D01*
X150162000Y-56705197D01*
X150162000Y-56700678D01*
X150130924Y-56504479D01*
X150130924Y-56504476D01*
X150069542Y-56315562D01*
X149979358Y-56138567D01*
X149952268Y-56101283D01*
X149342137Y-56711414D01*
X149319333Y-56626306D01*
X149260090Y-56523694D01*
X149176306Y-56439910D01*
X149073694Y-56380667D01*
X148988585Y-56357861D01*
X149598716Y-55747731D01*
X149598715Y-55747730D01*
X149561432Y-55720641D01*
X149384437Y-55630457D01*
X149195522Y-55569075D01*
X148999321Y-55538000D01*
X148800679Y-55538000D01*
X148604479Y-55569075D01*
X148604476Y-55569075D01*
X148415562Y-55630457D01*
X148238564Y-55720643D01*
X148201283Y-55747729D01*
X148201282Y-55747730D01*
X148811415Y-56357861D01*
X148726306Y-56380667D01*
X148623694Y-56439910D01*
X148539910Y-56523694D01*
X148480667Y-56626306D01*
X148457861Y-56711414D01*
X147847730Y-56101282D01*
X147847729Y-56101283D01*
X147820643Y-56138564D01*
X147730458Y-56315561D01*
X147720435Y-56346409D01*
X147680997Y-56404084D01*
X147616638Y-56431282D01*
X147547792Y-56419367D01*
X147496316Y-56372123D01*
X147478504Y-56308090D01*
X147478504Y-56246593D01*
X147478503Y-56246589D01*
X147461688Y-56162052D01*
X147441516Y-56060641D01*
X147368960Y-55885477D01*
X147263626Y-55727834D01*
X147263625Y-55727833D01*
X147263623Y-55727830D01*
X147129562Y-55593769D01*
X146971916Y-55488434D01*
X146796755Y-55415880D01*
X146796747Y-55415878D01*
X146610806Y-55378892D01*
X146610802Y-55378892D01*
X146421206Y-55378892D01*
X146421201Y-55378892D01*
X146235260Y-55415878D01*
X146235252Y-55415880D01*
X146060091Y-55488434D01*
X145902445Y-55593769D01*
X145768381Y-55727833D01*
X145663046Y-55885479D01*
X145590492Y-56060640D01*
X145590490Y-56060648D01*
X145553504Y-56246589D01*
X145553504Y-56436194D01*
X145590563Y-56622502D01*
X145584336Y-56692094D01*
X145556627Y-56734374D01*
X144679522Y-57611480D01*
X144679518Y-57611486D01*
X144626792Y-57702808D01*
X144626793Y-57702809D01*
X144599500Y-57804669D01*
X144599500Y-64976000D01*
X144579815Y-65043039D01*
X144527011Y-65088794D01*
X144475500Y-65100000D01*
X131705685Y-65100000D01*
X131638646Y-65080315D01*
X131592891Y-65027511D01*
X131582947Y-64958353D01*
X131611972Y-64894797D01*
X131658232Y-64861439D01*
X131771919Y-64814348D01*
X131929562Y-64709014D01*
X132063626Y-64574950D01*
X132168960Y-64417307D01*
X132241516Y-64242143D01*
X132278504Y-64056190D01*
X132278504Y-63866594D01*
X132241516Y-63680641D01*
X132168960Y-63505477D01*
X132131508Y-63449426D01*
X132063626Y-63347833D01*
X131929562Y-63213769D01*
X131771916Y-63108434D01*
X131596755Y-63035880D01*
X131596747Y-63035878D01*
X131410806Y-62998892D01*
X131410802Y-62998892D01*
X131221206Y-62998892D01*
X131221201Y-62998892D01*
X131035260Y-63035878D01*
X131035252Y-63035880D01*
X130860091Y-63108434D01*
X130697381Y-63217154D01*
X130696591Y-63215972D01*
X130638845Y-63240493D01*
X130569979Y-63228697D01*
X130518422Y-63181541D01*
X130500500Y-63117326D01*
X130500500Y-62265457D01*
X130520185Y-62198418D01*
X130572989Y-62152663D01*
X130642147Y-62142719D01*
X130696644Y-62166732D01*
X130697381Y-62165630D01*
X130702446Y-62169014D01*
X130860089Y-62274348D01*
X131035253Y-62346904D01*
X131221201Y-62383891D01*
X131221205Y-62383892D01*
X131221206Y-62383892D01*
X131410803Y-62383892D01*
X131410804Y-62383891D01*
X131596755Y-62346904D01*
X131771919Y-62274348D01*
X131929562Y-62169014D01*
X132063626Y-62034950D01*
X132168960Y-61877307D01*
X132241516Y-61702143D01*
X132278504Y-61516190D01*
X132278504Y-61326594D01*
X132241516Y-61140641D01*
X132168960Y-60965477D01*
X132131508Y-60909426D01*
X132063626Y-60807833D01*
X131929562Y-60673769D01*
X131771916Y-60568434D01*
X131596755Y-60495880D01*
X131596747Y-60495878D01*
X131410806Y-60458892D01*
X131410802Y-60458892D01*
X131221206Y-60458892D01*
X131221201Y-60458892D01*
X131035260Y-60495878D01*
X131035252Y-60495880D01*
X130860091Y-60568434D01*
X130697381Y-60677154D01*
X130696591Y-60675972D01*
X130638845Y-60700493D01*
X130569979Y-60688697D01*
X130518422Y-60641541D01*
X130500500Y-60577326D01*
X130500500Y-59725457D01*
X130520185Y-59658418D01*
X130572989Y-59612663D01*
X130642147Y-59602719D01*
X130696644Y-59626732D01*
X130697381Y-59625630D01*
X130702446Y-59629014D01*
X130860089Y-59734348D01*
X131035253Y-59806904D01*
X131221201Y-59843891D01*
X131221205Y-59843892D01*
X131221206Y-59843892D01*
X131410803Y-59843892D01*
X131410804Y-59843891D01*
X131596755Y-59806904D01*
X131771919Y-59734348D01*
X131929562Y-59629014D01*
X132063626Y-59494950D01*
X132168960Y-59337307D01*
X132241516Y-59162143D01*
X132278504Y-58976190D01*
X132278504Y-58786594D01*
X132241516Y-58600641D01*
X132168960Y-58425477D01*
X132073327Y-58282352D01*
X132063626Y-58267833D01*
X131929562Y-58133769D01*
X131771916Y-58028434D01*
X131596755Y-57955880D01*
X131596747Y-57955878D01*
X131410806Y-57918892D01*
X131410802Y-57918892D01*
X131221206Y-57918892D01*
X131221201Y-57918892D01*
X131035260Y-57955878D01*
X131035252Y-57955880D01*
X130860091Y-58028434D01*
X130697381Y-58137154D01*
X130696591Y-58135972D01*
X130638845Y-58160493D01*
X130569979Y-58148697D01*
X130518422Y-58101541D01*
X130500500Y-58037326D01*
X130500500Y-57185457D01*
X130520185Y-57118418D01*
X130572989Y-57072663D01*
X130642147Y-57062719D01*
X130696644Y-57086732D01*
X130697381Y-57085630D01*
X130712187Y-57095523D01*
X130860089Y-57194348D01*
X131035253Y-57266904D01*
X131221201Y-57303891D01*
X131221205Y-57303892D01*
X131221206Y-57303892D01*
X131410803Y-57303892D01*
X131410804Y-57303891D01*
X131596755Y-57266904D01*
X131771919Y-57194348D01*
X131929562Y-57089014D01*
X132063626Y-56954950D01*
X132168960Y-56797307D01*
X132241516Y-56622143D01*
X132278504Y-56436190D01*
X132278504Y-56246594D01*
X132241516Y-56060641D01*
X132168960Y-55885477D01*
X132076921Y-55747731D01*
X132063626Y-55727833D01*
X131929562Y-55593769D01*
X131771916Y-55488434D01*
X131596755Y-55415880D01*
X131596747Y-55415878D01*
X131410806Y-55378892D01*
X131410802Y-55378892D01*
X131221206Y-55378892D01*
X131221201Y-55378892D01*
X131035260Y-55415878D01*
X131035252Y-55415880D01*
X130860091Y-55488434D01*
X130697381Y-55597154D01*
X130696591Y-55595972D01*
X130638845Y-55620493D01*
X130569979Y-55608697D01*
X130518422Y-55561541D01*
X130500500Y-55497326D01*
X130500500Y-55298543D01*
X160249499Y-55298543D01*
X160287947Y-55491829D01*
X160287950Y-55491839D01*
X160363364Y-55673907D01*
X160363371Y-55673920D01*
X160472860Y-55837781D01*
X160472863Y-55837785D01*
X160612214Y-55977136D01*
X160612218Y-55977139D01*
X160776079Y-56086628D01*
X160776092Y-56086635D01*
X160901469Y-56138567D01*
X160958165Y-56162051D01*
X160958169Y-56162051D01*
X160958170Y-56162052D01*
X161151456Y-56200500D01*
X161151459Y-56200500D01*
X161348543Y-56200500D01*
X161478582Y-56174632D01*
X161541835Y-56162051D01*
X161688543Y-56101283D01*
X161723907Y-56086635D01*
X161723907Y-56086634D01*
X161723914Y-56086632D01*
X161887782Y-55977139D01*
X162027139Y-55837782D01*
X162136632Y-55673914D01*
X162212051Y-55491835D01*
X162250500Y-55298541D01*
X162250500Y-55101459D01*
X162212051Y-54908165D01*
X162200697Y-54880754D01*
X162136635Y-54726092D01*
X162136628Y-54726079D01*
X162027139Y-54562218D01*
X162027136Y-54562214D01*
X161887785Y-54422863D01*
X161887781Y-54422860D01*
X161723920Y-54313371D01*
X161723907Y-54313364D01*
X161541839Y-54237950D01*
X161541829Y-54237947D01*
X161348543Y-54199500D01*
X161348541Y-54199500D01*
X161151459Y-54199500D01*
X161151457Y-54199500D01*
X160958170Y-54237947D01*
X160958160Y-54237950D01*
X160776092Y-54313364D01*
X160776079Y-54313371D01*
X160612218Y-54422860D01*
X160612214Y-54422863D01*
X160472863Y-54562214D01*
X160472860Y-54562218D01*
X160363371Y-54726079D01*
X160363364Y-54726092D01*
X160287950Y-54908160D01*
X160287947Y-54908170D01*
X160249500Y-55101456D01*
X160249500Y-55101458D01*
X160249500Y-55101459D01*
X160249500Y-55298541D01*
X160249500Y-55298543D01*
X160249499Y-55298543D01*
X130500500Y-55298543D01*
X130500500Y-54645457D01*
X130520185Y-54578418D01*
X130572989Y-54532663D01*
X130642147Y-54522719D01*
X130696644Y-54546732D01*
X130697381Y-54545630D01*
X130702446Y-54549014D01*
X130860089Y-54654348D01*
X131035253Y-54726904D01*
X131221201Y-54763891D01*
X131221205Y-54763892D01*
X131221206Y-54763892D01*
X131410803Y-54763892D01*
X131410804Y-54763891D01*
X131596755Y-54726904D01*
X131771919Y-54654348D01*
X131929562Y-54549014D01*
X132063626Y-54414950D01*
X132168960Y-54257307D01*
X132241516Y-54082143D01*
X132278504Y-53896190D01*
X132278504Y-53706594D01*
X132278504Y-53706591D01*
X132241517Y-53520648D01*
X132241516Y-53520641D01*
X132168960Y-53345477D01*
X132077573Y-53208707D01*
X132063626Y-53187833D01*
X131929562Y-53053769D01*
X131771916Y-52948434D01*
X131596755Y-52875880D01*
X131596747Y-52875878D01*
X131410806Y-52838892D01*
X131410802Y-52838892D01*
X131221206Y-52838892D01*
X131221201Y-52838892D01*
X131035260Y-52875878D01*
X131035252Y-52875880D01*
X130860091Y-52948434D01*
X130697381Y-53057154D01*
X130696591Y-53055972D01*
X130638845Y-53080493D01*
X130569979Y-53068697D01*
X130518422Y-53021541D01*
X130500500Y-52957326D01*
X130500500Y-52105457D01*
X130520185Y-52038418D01*
X130572989Y-51992663D01*
X130642147Y-51982719D01*
X130696644Y-52006732D01*
X130697381Y-52005630D01*
X130702446Y-52009014D01*
X130860089Y-52114348D01*
X131035253Y-52186904D01*
X131221201Y-52223891D01*
X131221205Y-52223892D01*
X131221206Y-52223892D01*
X131410803Y-52223892D01*
X131410804Y-52223891D01*
X131596755Y-52186904D01*
X131771919Y-52114348D01*
X131929562Y-52009014D01*
X132063626Y-51874950D01*
X132168960Y-51717307D01*
X132241516Y-51542143D01*
X132278504Y-51356190D01*
X132278504Y-51166594D01*
X132241516Y-50980641D01*
X132168960Y-50805477D01*
X132094065Y-50693390D01*
X132073188Y-50626713D01*
X132091673Y-50559333D01*
X132143651Y-50512643D01*
X132197168Y-50500500D01*
X145634840Y-50500500D01*
X145701879Y-50520185D01*
G37*
G04 #@! TD.AperFunction*
G04 #@! TA.AperFunction,Conductor*
G36*
X145605703Y-61773137D02*
G01*
X145639061Y-61819398D01*
X145663045Y-61877302D01*
X145663046Y-61877304D01*
X145768381Y-62034950D01*
X145902445Y-62169014D01*
X146007304Y-62239078D01*
X146060089Y-62274348D01*
X146235253Y-62346904D01*
X146421201Y-62383891D01*
X146421205Y-62383892D01*
X146421206Y-62383892D01*
X146610803Y-62383892D01*
X146610804Y-62383891D01*
X146796755Y-62346904D01*
X146971919Y-62274348D01*
X147129562Y-62169014D01*
X147263626Y-62034950D01*
X147368960Y-61877307D01*
X147368960Y-61877305D01*
X147369164Y-61877001D01*
X147422776Y-61832196D01*
X147472266Y-61821892D01*
X154304137Y-61821892D01*
X154371176Y-61841577D01*
X154391818Y-61858211D01*
X157463181Y-64929574D01*
X157477884Y-64956501D01*
X157494477Y-64982320D01*
X157495368Y-64988520D01*
X157496666Y-64990897D01*
X157499500Y-65017255D01*
X157499500Y-65144632D01*
X157479815Y-65211671D01*
X157427011Y-65257426D01*
X157357853Y-65267370D01*
X157306610Y-65247734D01*
X157155917Y-65147045D01*
X157155913Y-65147043D01*
X156980751Y-65074488D01*
X156980743Y-65074486D01*
X156794802Y-65037500D01*
X156794798Y-65037500D01*
X156605202Y-65037500D01*
X156605197Y-65037500D01*
X156419256Y-65074486D01*
X156419248Y-65074488D01*
X156244087Y-65147042D01*
X156086441Y-65252377D01*
X155952377Y-65386441D01*
X155847042Y-65544087D01*
X155774488Y-65719248D01*
X155774486Y-65719256D01*
X155737500Y-65905197D01*
X155737500Y-66094802D01*
X155774486Y-66280743D01*
X155774488Y-66280751D01*
X155847042Y-66455912D01*
X155952377Y-66613558D01*
X156086441Y-66747622D01*
X156138094Y-66782135D01*
X156244085Y-66852956D01*
X156244086Y-66852956D01*
X156244391Y-66853160D01*
X156289196Y-66906772D01*
X156299500Y-66956262D01*
X156299500Y-69152726D01*
X156326793Y-69254589D01*
X156342386Y-69281596D01*
X156379520Y-69345913D01*
X156580883Y-69547276D01*
X156763181Y-69729573D01*
X156796666Y-69790896D01*
X156799500Y-69817254D01*
X156799500Y-70698957D01*
X156779815Y-70765996D01*
X156727011Y-70811751D01*
X156657853Y-70821695D01*
X156594297Y-70792670D01*
X156587819Y-70786638D01*
X156553558Y-70752377D01*
X156395912Y-70647042D01*
X156220751Y-70574488D01*
X156220743Y-70574486D01*
X156034802Y-70537500D01*
X156034798Y-70537500D01*
X155845202Y-70537500D01*
X155845197Y-70537500D01*
X155659256Y-70574486D01*
X155659248Y-70574488D01*
X155484087Y-70647042D01*
X155326442Y-70752377D01*
X155227811Y-70851008D01*
X155166488Y-70884492D01*
X155096796Y-70879508D01*
X155040863Y-70837636D01*
X155032744Y-70825328D01*
X155024905Y-70811751D01*
X155020480Y-70804087D01*
X154328574Y-70112181D01*
X154295089Y-70050858D01*
X154300073Y-69981166D01*
X154341945Y-69925233D01*
X154407409Y-69900816D01*
X154416255Y-69900500D01*
X154582351Y-69900500D01*
X154582352Y-69900500D01*
X154784534Y-69868477D01*
X154979219Y-69805220D01*
X155161610Y-69712287D01*
X155254590Y-69644732D01*
X155327213Y-69591971D01*
X155327215Y-69591968D01*
X155327219Y-69591966D01*
X155471966Y-69447219D01*
X155471968Y-69447215D01*
X155471971Y-69447213D01*
X155545567Y-69345915D01*
X155592287Y-69281610D01*
X155685220Y-69099219D01*
X155748477Y-68904534D01*
X155780500Y-68702352D01*
X155780500Y-68497648D01*
X155765842Y-68405105D01*
X155748477Y-68295465D01*
X155703197Y-68156108D01*
X155685220Y-68100781D01*
X155685218Y-68100778D01*
X155685218Y-68100776D01*
X155651248Y-68034107D01*
X155592287Y-67918390D01*
X155584556Y-67907749D01*
X155471971Y-67752786D01*
X155327213Y-67608028D01*
X155161613Y-67487715D01*
X155161612Y-67487714D01*
X155161610Y-67487713D01*
X155085151Y-67448755D01*
X154979223Y-67394781D01*
X154784534Y-67331522D01*
X154600371Y-67302354D01*
X154582352Y-67299500D01*
X154377648Y-67299500D01*
X154359629Y-67302354D01*
X154175465Y-67331522D01*
X153980776Y-67394781D01*
X153798386Y-67487715D01*
X153632786Y-67608028D01*
X153488028Y-67752786D01*
X153367715Y-67918386D01*
X153274781Y-68100776D01*
X153211522Y-68295465D01*
X153179500Y-68497648D01*
X153179500Y-68663745D01*
X153159815Y-68730784D01*
X153107011Y-68776539D01*
X153037853Y-68786483D01*
X152974297Y-68757458D01*
X152967819Y-68751426D01*
X151774307Y-67557914D01*
X151774305Y-67557912D01*
X151728642Y-67531548D01*
X151682981Y-67505185D01*
X151644983Y-67495004D01*
X151585322Y-67458638D01*
X151554794Y-67395791D01*
X151563089Y-67326416D01*
X151607575Y-67272538D01*
X151657680Y-67252756D01*
X151795519Y-67230925D01*
X151795523Y-67230924D01*
X151984437Y-67169542D01*
X152161425Y-67079362D01*
X152198716Y-67052268D01*
X151588585Y-66442137D01*
X151673694Y-66419333D01*
X151776306Y-66360090D01*
X151860090Y-66276306D01*
X151919333Y-66173694D01*
X151942138Y-66088585D01*
X152552268Y-66698715D01*
X152579362Y-66661425D01*
X152669542Y-66484437D01*
X152730924Y-66295523D01*
X152730924Y-66295520D01*
X152762000Y-66099321D01*
X152762000Y-65900678D01*
X152730924Y-65704479D01*
X152730924Y-65704476D01*
X152669542Y-65515562D01*
X152579358Y-65338567D01*
X152552268Y-65301283D01*
X151942137Y-65911414D01*
X151919333Y-65826306D01*
X151860090Y-65723694D01*
X151776306Y-65639910D01*
X151673694Y-65580667D01*
X151588585Y-65557861D01*
X152198716Y-64947731D01*
X152198715Y-64947730D01*
X152161432Y-64920641D01*
X151984437Y-64830457D01*
X151795522Y-64769075D01*
X151599321Y-64738000D01*
X151400679Y-64738000D01*
X151204479Y-64769075D01*
X151204476Y-64769075D01*
X151015562Y-64830457D01*
X150838564Y-64920643D01*
X150801283Y-64947729D01*
X150801282Y-64947730D01*
X151411415Y-65557861D01*
X151326306Y-65580667D01*
X151223694Y-65639910D01*
X151139910Y-65723694D01*
X151080667Y-65826306D01*
X151057861Y-65911414D01*
X150447730Y-65301282D01*
X150447729Y-65301283D01*
X150420643Y-65338564D01*
X150330457Y-65515562D01*
X150269075Y-65704476D01*
X150269075Y-65704479D01*
X150238000Y-65900678D01*
X150238000Y-66099321D01*
X150269075Y-66295520D01*
X150269075Y-66295523D01*
X150330457Y-66484437D01*
X150420641Y-66661432D01*
X150447730Y-66698715D01*
X150447731Y-66698716D01*
X151057861Y-66088585D01*
X151080667Y-66173694D01*
X151139910Y-66276306D01*
X151223694Y-66360090D01*
X151326306Y-66419333D01*
X151411414Y-66442137D01*
X150801283Y-67052268D01*
X150801283Y-67052269D01*
X150838567Y-67079358D01*
X151015562Y-67169542D01*
X151204478Y-67230924D01*
X151207599Y-67231419D01*
X151208686Y-67231934D01*
X151209209Y-67232060D01*
X151209182Y-67232169D01*
X151270734Y-67261348D01*
X151307665Y-67320660D01*
X151306667Y-67390522D01*
X151268057Y-67448755D01*
X151204093Y-67476869D01*
X151188201Y-67477892D01*
X147195795Y-67477892D01*
X147128756Y-67458207D01*
X147083001Y-67405403D01*
X147073057Y-67336245D01*
X147102082Y-67272689D01*
X147126907Y-67250788D01*
X147129563Y-67249013D01*
X147263626Y-67114950D01*
X147305158Y-67052793D01*
X147368960Y-66957307D01*
X147441516Y-66782143D01*
X147478504Y-66596190D01*
X147478504Y-66406594D01*
X147441516Y-66220641D01*
X147368960Y-66045477D01*
X147314378Y-65963789D01*
X147275228Y-65905197D01*
X148037500Y-65905197D01*
X148037500Y-66094802D01*
X148074486Y-66280743D01*
X148074488Y-66280751D01*
X148147042Y-66455912D01*
X148252377Y-66613558D01*
X148386441Y-66747622D01*
X148491300Y-66817686D01*
X148544085Y-66852956D01*
X148544086Y-66852956D01*
X148544087Y-66852957D01*
X148568046Y-66862881D01*
X148719249Y-66925512D01*
X148879080Y-66957304D01*
X148905197Y-66962499D01*
X148905201Y-66962500D01*
X148905202Y-66962500D01*
X149094799Y-66962500D01*
X149094800Y-66962499D01*
X149280751Y-66925512D01*
X149455915Y-66852956D01*
X149613558Y-66747622D01*
X149747622Y-66613558D01*
X149852956Y-66455915D01*
X149925512Y-66280751D01*
X149962500Y-66094798D01*
X149962500Y-65905202D01*
X149962500Y-65905201D01*
X149962500Y-65905199D01*
X149940185Y-65793018D01*
X149925512Y-65719249D01*
X149852956Y-65544085D01*
X149754125Y-65396174D01*
X149747622Y-65386441D01*
X149613558Y-65252377D01*
X149455912Y-65147042D01*
X149365400Y-65109551D01*
X149280751Y-65074488D01*
X149280743Y-65074486D01*
X149094802Y-65037500D01*
X149094798Y-65037500D01*
X148905202Y-65037500D01*
X148905197Y-65037500D01*
X148719256Y-65074486D01*
X148719248Y-65074488D01*
X148544087Y-65147042D01*
X148386441Y-65252377D01*
X148252377Y-65386441D01*
X148147042Y-65544087D01*
X148074488Y-65719248D01*
X148074486Y-65719256D01*
X148037500Y-65905197D01*
X147275228Y-65905197D01*
X147263626Y-65887833D01*
X147129562Y-65753769D01*
X146971916Y-65648434D01*
X146796755Y-65575880D01*
X146796747Y-65575878D01*
X146610806Y-65538892D01*
X146610802Y-65538892D01*
X146421206Y-65538892D01*
X146421201Y-65538892D01*
X146235260Y-65575878D01*
X146235252Y-65575880D01*
X146060091Y-65648434D01*
X145902445Y-65753769D01*
X145768381Y-65887833D01*
X145663046Y-66045479D01*
X145639061Y-66103386D01*
X145595220Y-66157789D01*
X145528926Y-66179854D01*
X145461226Y-66162575D01*
X145413616Y-66111437D01*
X145400500Y-66055933D01*
X145400500Y-64406850D01*
X145420185Y-64339811D01*
X145472989Y-64294056D01*
X145542147Y-64284112D01*
X145605703Y-64313137D01*
X145639061Y-64359398D01*
X145663045Y-64417302D01*
X145663046Y-64417304D01*
X145768381Y-64574950D01*
X145902445Y-64709014D01*
X145959701Y-64747271D01*
X146060089Y-64814348D01*
X146060090Y-64814348D01*
X146060091Y-64814349D01*
X146098979Y-64830457D01*
X146235253Y-64886904D01*
X146404862Y-64920641D01*
X146421201Y-64923891D01*
X146421205Y-64923892D01*
X146421206Y-64923892D01*
X146610803Y-64923892D01*
X146610804Y-64923891D01*
X146796755Y-64886904D01*
X146971919Y-64814348D01*
X147129562Y-64709014D01*
X147263626Y-64574950D01*
X147368960Y-64417307D01*
X147441516Y-64242143D01*
X147478504Y-64056190D01*
X147478504Y-63866594D01*
X147441516Y-63680641D01*
X147368960Y-63505477D01*
X147331508Y-63449426D01*
X147263626Y-63347833D01*
X147129562Y-63213769D01*
X146971916Y-63108434D01*
X146796755Y-63035880D01*
X146796747Y-63035878D01*
X146610806Y-62998892D01*
X146610802Y-62998892D01*
X146421206Y-62998892D01*
X146421201Y-62998892D01*
X146235260Y-63035878D01*
X146235252Y-63035880D01*
X146060091Y-63108434D01*
X145902445Y-63213769D01*
X145768381Y-63347833D01*
X145663046Y-63505479D01*
X145639061Y-63563386D01*
X145595220Y-63617789D01*
X145528926Y-63639854D01*
X145461226Y-63622575D01*
X145413616Y-63571437D01*
X145400500Y-63515933D01*
X145400500Y-61866850D01*
X145420185Y-61799811D01*
X145472989Y-61754056D01*
X145542147Y-61744112D01*
X145605703Y-61773137D01*
G37*
G04 #@! TD.AperFunction*
G04 #@! TA.AperFunction,Conductor*
G36*
X167447745Y-110250185D02*
G01*
X167493500Y-110302989D01*
X167503444Y-110372147D01*
X167491191Y-110410795D01*
X167445244Y-110500970D01*
X167382009Y-110695586D01*
X167373391Y-110750000D01*
X168205025Y-110750000D01*
X168169930Y-110785095D01*
X168123852Y-110864905D01*
X168100000Y-110953922D01*
X168100000Y-111046078D01*
X168123852Y-111135095D01*
X168169930Y-111214905D01*
X168205025Y-111250000D01*
X167373391Y-111250000D01*
X167382009Y-111304413D01*
X167445244Y-111499029D01*
X167538140Y-111681349D01*
X167658417Y-111846894D01*
X167658417Y-111846895D01*
X167803104Y-111991582D01*
X167803110Y-111991587D01*
X167891888Y-112056088D01*
X167934554Y-112111418D01*
X167940533Y-112181031D01*
X167907927Y-112242826D01*
X167847089Y-112277183D01*
X167777333Y-112273195D01*
X167771552Y-112270968D01*
X167703609Y-112242826D01*
X167691835Y-112237949D01*
X167691833Y-112237948D01*
X167691829Y-112237947D01*
X167498543Y-112199500D01*
X167498541Y-112199500D01*
X167301459Y-112199500D01*
X167301457Y-112199500D01*
X167108170Y-112237947D01*
X167108160Y-112237950D01*
X166926092Y-112313364D01*
X166926079Y-112313371D01*
X166762218Y-112422860D01*
X166762214Y-112422863D01*
X166622863Y-112562214D01*
X166622860Y-112562218D01*
X166513371Y-112726079D01*
X166513364Y-112726092D01*
X166437950Y-112908160D01*
X166437947Y-112908170D01*
X166399500Y-113101456D01*
X166399500Y-113101459D01*
X166399500Y-113298541D01*
X166399500Y-113298543D01*
X166399499Y-113298543D01*
X166437947Y-113491829D01*
X166437950Y-113491839D01*
X166513364Y-113673907D01*
X166513371Y-113673920D01*
X166622860Y-113837781D01*
X166622863Y-113837785D01*
X166762214Y-113977136D01*
X166762218Y-113977139D01*
X166926079Y-114086628D01*
X166926092Y-114086635D01*
X167108160Y-114162049D01*
X167108165Y-114162051D01*
X167108169Y-114162051D01*
X167108170Y-114162052D01*
X167301456Y-114200500D01*
X167301459Y-114200500D01*
X167498543Y-114200500D01*
X167628582Y-114174632D01*
X167691835Y-114162051D01*
X167873914Y-114086632D01*
X168037782Y-113977139D01*
X168177139Y-113837782D01*
X168286632Y-113673914D01*
X168362051Y-113491835D01*
X168400500Y-113298543D01*
X173399499Y-113298543D01*
X173437947Y-113491829D01*
X173437950Y-113491839D01*
X173513364Y-113673907D01*
X173513371Y-113673920D01*
X173622860Y-113837781D01*
X173622863Y-113837785D01*
X173762214Y-113977136D01*
X173762218Y-113977139D01*
X173926079Y-114086628D01*
X173926092Y-114086635D01*
X174108160Y-114162049D01*
X174108165Y-114162051D01*
X174108169Y-114162051D01*
X174108170Y-114162052D01*
X174301456Y-114200500D01*
X174301459Y-114200500D01*
X174498543Y-114200500D01*
X174628582Y-114174632D01*
X174691835Y-114162051D01*
X174873914Y-114086632D01*
X175037782Y-113977139D01*
X175177139Y-113837782D01*
X175286632Y-113673914D01*
X175362051Y-113491835D01*
X175400500Y-113298541D01*
X175400500Y-113101459D01*
X175400500Y-113101456D01*
X175362052Y-112908170D01*
X175362051Y-112908169D01*
X175362051Y-112908165D01*
X175362049Y-112908160D01*
X175286635Y-112726092D01*
X175286628Y-112726079D01*
X175177139Y-112562218D01*
X175177136Y-112562214D01*
X175037785Y-112422863D01*
X175037781Y-112422860D01*
X174873920Y-112313371D01*
X174873907Y-112313364D01*
X174691839Y-112237950D01*
X174691829Y-112237947D01*
X174498543Y-112199500D01*
X174498541Y-112199500D01*
X174301459Y-112199500D01*
X174301457Y-112199500D01*
X174108170Y-112237947D01*
X174108160Y-112237950D01*
X173926092Y-112313364D01*
X173926079Y-112313371D01*
X173762218Y-112422860D01*
X173762214Y-112422863D01*
X173622863Y-112562214D01*
X173622860Y-112562218D01*
X173513371Y-112726079D01*
X173513364Y-112726092D01*
X173437950Y-112908160D01*
X173437947Y-112908170D01*
X173399500Y-113101456D01*
X173399500Y-113101459D01*
X173399500Y-113298541D01*
X173399500Y-113298543D01*
X173399499Y-113298543D01*
X168400500Y-113298543D01*
X168400500Y-113298541D01*
X168400500Y-113101459D01*
X168400500Y-113101456D01*
X168362052Y-112908170D01*
X168362051Y-112908169D01*
X168362051Y-112908165D01*
X168362049Y-112908160D01*
X168286635Y-112726092D01*
X168286628Y-112726079D01*
X168177139Y-112562218D01*
X168177136Y-112562214D01*
X168037785Y-112422863D01*
X168033074Y-112418997D01*
X168034432Y-112417341D01*
X167995842Y-112371154D01*
X167987142Y-112301828D01*
X168017303Y-112238803D01*
X168076750Y-112202091D01*
X168146609Y-112203345D01*
X168147862Y-112203745D01*
X168345582Y-112267990D01*
X168547683Y-112300000D01*
X168600000Y-112300000D01*
X168600000Y-111350000D01*
X169100000Y-111350000D01*
X169100000Y-112300000D01*
X169152317Y-112300000D01*
X169354417Y-112267990D01*
X169549031Y-112204755D01*
X169731349Y-112111859D01*
X169896894Y-111991582D01*
X169896895Y-111991582D01*
X170041582Y-111846895D01*
X170041582Y-111846894D01*
X170161859Y-111681349D01*
X170254755Y-111499029D01*
X170317990Y-111304413D01*
X170326609Y-111250000D01*
X169494975Y-111250000D01*
X169530070Y-111214905D01*
X169576148Y-111135095D01*
X169600000Y-111046078D01*
X169600000Y-110953922D01*
X169576148Y-110864905D01*
X169530070Y-110785095D01*
X169494975Y-110750000D01*
X170326609Y-110750000D01*
X170317990Y-110695586D01*
X170254755Y-110500970D01*
X170208809Y-110410795D01*
X170195913Y-110342126D01*
X170222189Y-110277385D01*
X170279296Y-110237128D01*
X170319294Y-110230500D01*
X170728884Y-110230500D01*
X170795923Y-110250185D01*
X170841678Y-110302989D01*
X170851622Y-110372147D01*
X170831986Y-110423391D01*
X170763371Y-110526079D01*
X170763364Y-110526092D01*
X170687950Y-110708160D01*
X170687947Y-110708170D01*
X170649500Y-110901456D01*
X170649500Y-110901459D01*
X170649500Y-111098541D01*
X170649500Y-111098543D01*
X170649499Y-111098543D01*
X170687947Y-111291829D01*
X170687950Y-111291839D01*
X170763364Y-111473907D01*
X170763371Y-111473920D01*
X170872860Y-111637781D01*
X170872863Y-111637785D01*
X171012214Y-111777136D01*
X171012218Y-111777139D01*
X171176079Y-111886628D01*
X171176092Y-111886635D01*
X171358160Y-111962049D01*
X171358165Y-111962051D01*
X171358169Y-111962051D01*
X171358170Y-111962052D01*
X171551456Y-112000500D01*
X171551459Y-112000500D01*
X172148543Y-112000500D01*
X172278582Y-111974632D01*
X172341835Y-111962051D01*
X172523914Y-111886632D01*
X172687782Y-111777139D01*
X172827139Y-111637782D01*
X172936632Y-111473914D01*
X173012051Y-111291835D01*
X173050500Y-111098541D01*
X173050500Y-110901459D01*
X173050500Y-110901456D01*
X173012052Y-110708170D01*
X173012051Y-110708169D01*
X173012051Y-110708165D01*
X172997838Y-110673852D01*
X172936635Y-110526092D01*
X172936628Y-110526079D01*
X172868014Y-110423391D01*
X172847136Y-110356713D01*
X172865621Y-110289333D01*
X172917599Y-110242643D01*
X172971116Y-110230500D01*
X174728884Y-110230500D01*
X174795923Y-110250185D01*
X174841678Y-110302989D01*
X174851622Y-110372147D01*
X174831986Y-110423391D01*
X174763371Y-110526079D01*
X174763364Y-110526092D01*
X174687950Y-110708160D01*
X174687947Y-110708170D01*
X174649500Y-110901456D01*
X174649500Y-110901459D01*
X174649500Y-111098541D01*
X174649500Y-111098543D01*
X174649499Y-111098543D01*
X174687947Y-111291829D01*
X174687950Y-111291839D01*
X174763364Y-111473907D01*
X174763371Y-111473920D01*
X174872860Y-111637781D01*
X174872863Y-111637785D01*
X175012214Y-111777136D01*
X175012218Y-111777139D01*
X175176079Y-111886628D01*
X175176092Y-111886635D01*
X175358160Y-111962049D01*
X175358165Y-111962051D01*
X175358169Y-111962051D01*
X175358170Y-111962052D01*
X175551456Y-112000500D01*
X175551459Y-112000500D01*
X176148543Y-112000500D01*
X176278582Y-111974632D01*
X176341835Y-111962051D01*
X176523914Y-111886632D01*
X176687782Y-111777139D01*
X176827139Y-111637782D01*
X176936632Y-111473914D01*
X177012051Y-111291835D01*
X177050500Y-111098541D01*
X177050500Y-110901459D01*
X177050500Y-110901456D01*
X177012052Y-110708170D01*
X177012051Y-110708169D01*
X177012051Y-110708165D01*
X176997838Y-110673852D01*
X176936635Y-110526092D01*
X176936628Y-110526079D01*
X176868014Y-110423391D01*
X176847136Y-110356713D01*
X176865621Y-110289333D01*
X176917599Y-110242643D01*
X176971116Y-110230500D01*
X183265500Y-110230500D01*
X183332539Y-110250185D01*
X183378294Y-110302989D01*
X183389500Y-110354500D01*
X183389500Y-117688330D01*
X183369815Y-117755369D01*
X183317011Y-117801124D01*
X183247853Y-117811068D01*
X183184297Y-117782043D01*
X183150939Y-117735783D01*
X183112957Y-117644087D01*
X183007622Y-117486441D01*
X182873558Y-117352377D01*
X182715912Y-117247042D01*
X182540751Y-117174488D01*
X182540743Y-117174486D01*
X182354802Y-117137500D01*
X182354798Y-117137500D01*
X182165202Y-117137500D01*
X182165197Y-117137500D01*
X181979256Y-117174486D01*
X181979248Y-117174488D01*
X181804087Y-117247042D01*
X181646441Y-117352377D01*
X181512377Y-117486441D01*
X181407042Y-117644087D01*
X181334488Y-117819248D01*
X181334486Y-117819256D01*
X181297500Y-118005197D01*
X181297500Y-118194802D01*
X181334486Y-118380743D01*
X181334488Y-118380751D01*
X181407042Y-118555912D01*
X181512377Y-118713558D01*
X181646441Y-118847622D01*
X181751300Y-118917686D01*
X181804085Y-118952956D01*
X181979249Y-119025512D01*
X182165197Y-119062499D01*
X182165201Y-119062500D01*
X182165202Y-119062500D01*
X182354799Y-119062500D01*
X182354800Y-119062499D01*
X182540751Y-119025512D01*
X182715915Y-118952956D01*
X182873558Y-118847622D01*
X183007622Y-118713558D01*
X183112956Y-118555915D01*
X183150939Y-118464215D01*
X183194780Y-118409813D01*
X183261074Y-118387748D01*
X183328773Y-118405027D01*
X183376384Y-118456164D01*
X183389500Y-118511669D01*
X183389500Y-132205500D01*
X183369815Y-132272539D01*
X183317011Y-132318294D01*
X183265500Y-132329500D01*
X180083386Y-132329500D01*
X180016347Y-132309815D01*
X179970592Y-132257011D01*
X179960648Y-132187853D01*
X179989673Y-132124297D01*
X180035933Y-132090939D01*
X180036653Y-132090640D01*
X180175915Y-132032956D01*
X180333558Y-131927622D01*
X180467622Y-131793558D01*
X180572956Y-131635915D01*
X180645512Y-131460751D01*
X180682500Y-131274798D01*
X180682500Y-131085202D01*
X180682499Y-131085199D01*
X180682499Y-131085197D01*
X180645513Y-130899256D01*
X180645512Y-130899249D01*
X180572956Y-130724085D01*
X180537686Y-130671300D01*
X180467622Y-130566441D01*
X180333558Y-130432377D01*
X180175912Y-130327042D01*
X180000751Y-130254488D01*
X180000743Y-130254486D01*
X179814802Y-130217500D01*
X179814798Y-130217500D01*
X179625202Y-130217500D01*
X179625197Y-130217500D01*
X179439256Y-130254486D01*
X179439248Y-130254488D01*
X179264087Y-130327042D01*
X179106441Y-130432377D01*
X178972377Y-130566441D01*
X178867042Y-130724087D01*
X178794488Y-130899248D01*
X178794486Y-130899256D01*
X178757500Y-131085197D01*
X178757500Y-131274802D01*
X178794486Y-131460743D01*
X178794488Y-131460751D01*
X178867042Y-131635912D01*
X178972377Y-131793558D01*
X179106441Y-131927622D01*
X179211300Y-131997686D01*
X179264085Y-132032956D01*
X179264086Y-132032956D01*
X179264087Y-132032957D01*
X179404067Y-132090939D01*
X179458470Y-132134780D01*
X179480535Y-132201074D01*
X179463256Y-132268774D01*
X179412118Y-132316384D01*
X179356614Y-132329500D01*
X178005206Y-132329500D01*
X177938167Y-132309815D01*
X177892412Y-132257011D01*
X177890040Y-132243593D01*
X177268585Y-131622137D01*
X177353694Y-131599333D01*
X177456306Y-131540090D01*
X177540090Y-131456306D01*
X177599333Y-131353694D01*
X177622138Y-131268585D01*
X178232268Y-131878715D01*
X178259362Y-131841425D01*
X178349542Y-131664437D01*
X178410924Y-131475523D01*
X178410924Y-131475520D01*
X178442000Y-131279321D01*
X178442000Y-131080678D01*
X178410924Y-130884479D01*
X178410924Y-130884476D01*
X178349542Y-130695562D01*
X178259358Y-130518567D01*
X178232268Y-130481283D01*
X177622137Y-131091414D01*
X177599333Y-131006306D01*
X177540090Y-130903694D01*
X177456306Y-130819910D01*
X177353694Y-130760667D01*
X177268585Y-130737861D01*
X177878716Y-130127731D01*
X177878715Y-130127730D01*
X177841432Y-130100641D01*
X177664437Y-130010457D01*
X177475522Y-129949075D01*
X177279321Y-129918000D01*
X177080679Y-129918000D01*
X176884479Y-129949075D01*
X176884476Y-129949075D01*
X176695562Y-130010457D01*
X176518564Y-130100643D01*
X176481283Y-130127729D01*
X176481282Y-130127730D01*
X177091415Y-130737861D01*
X177006306Y-130760667D01*
X176903694Y-130819910D01*
X176819910Y-130903694D01*
X176760667Y-131006306D01*
X176737861Y-131091414D01*
X176127730Y-130481282D01*
X176127729Y-130481283D01*
X176100643Y-130518564D01*
X176010457Y-130695562D01*
X175949075Y-130884476D01*
X175949075Y-130884479D01*
X175918000Y-131080678D01*
X175918000Y-131279321D01*
X175949075Y-131475520D01*
X175949075Y-131475523D01*
X176010457Y-131664437D01*
X176100641Y-131841432D01*
X176127730Y-131878715D01*
X176127731Y-131878716D01*
X176737861Y-131268585D01*
X176760667Y-131353694D01*
X176819910Y-131456306D01*
X176903694Y-131540090D01*
X177006306Y-131599333D01*
X177091414Y-131622137D01*
X176467940Y-132245611D01*
X176464045Y-132264152D01*
X176414992Y-132313907D01*
X176354793Y-132329500D01*
X175003386Y-132329500D01*
X174936347Y-132309815D01*
X174890592Y-132257011D01*
X174880648Y-132187853D01*
X174909673Y-132124297D01*
X174955933Y-132090939D01*
X174956653Y-132090640D01*
X175095915Y-132032956D01*
X175253558Y-131927622D01*
X175387622Y-131793558D01*
X175492956Y-131635915D01*
X175565512Y-131460751D01*
X175602500Y-131274798D01*
X175602500Y-131085202D01*
X175602500Y-131085201D01*
X175602500Y-131085199D01*
X175565513Y-130899256D01*
X175565512Y-130899249D01*
X175492956Y-130724085D01*
X175457686Y-130671300D01*
X175387622Y-130566441D01*
X175253558Y-130432377D01*
X175095912Y-130327042D01*
X175005400Y-130289551D01*
X174920751Y-130254488D01*
X174920743Y-130254486D01*
X174734802Y-130217500D01*
X174734798Y-130217500D01*
X174545202Y-130217500D01*
X174545197Y-130217500D01*
X174359256Y-130254486D01*
X174359248Y-130254488D01*
X174184087Y-130327042D01*
X174026441Y-130432377D01*
X173892377Y-130566441D01*
X173787042Y-130724087D01*
X173714488Y-130899248D01*
X173714486Y-130899256D01*
X173677500Y-131085197D01*
X173677500Y-131274802D01*
X173714486Y-131460743D01*
X173714488Y-131460751D01*
X173787042Y-131635912D01*
X173892377Y-131793558D01*
X174026441Y-131927622D01*
X174131300Y-131997686D01*
X174184085Y-132032956D01*
X174184086Y-132032956D01*
X174184087Y-132032957D01*
X174324067Y-132090939D01*
X174378470Y-132134780D01*
X174400535Y-132201074D01*
X174383256Y-132268774D01*
X174332118Y-132316384D01*
X174276614Y-132329500D01*
X172463386Y-132329500D01*
X172396347Y-132309815D01*
X172350592Y-132257011D01*
X172340648Y-132187853D01*
X172369673Y-132124297D01*
X172415933Y-132090939D01*
X172416653Y-132090640D01*
X172555915Y-132032956D01*
X172713558Y-131927622D01*
X172847622Y-131793558D01*
X172952956Y-131635915D01*
X173025512Y-131460751D01*
X173062500Y-131274798D01*
X173062500Y-131085202D01*
X173062499Y-131085199D01*
X173062499Y-131085197D01*
X173025513Y-130899256D01*
X173025512Y-130899249D01*
X172952956Y-130724085D01*
X172917686Y-130671300D01*
X172847622Y-130566441D01*
X172713558Y-130432377D01*
X172555912Y-130327042D01*
X172380751Y-130254488D01*
X172380743Y-130254486D01*
X172194802Y-130217500D01*
X172194798Y-130217500D01*
X172005202Y-130217500D01*
X172005197Y-130217500D01*
X171819256Y-130254486D01*
X171819248Y-130254488D01*
X171644087Y-130327042D01*
X171486441Y-130432377D01*
X171352377Y-130566441D01*
X171247042Y-130724087D01*
X171174488Y-130899248D01*
X171174486Y-130899256D01*
X171137500Y-131085197D01*
X171137500Y-131274802D01*
X171174486Y-131460743D01*
X171174488Y-131460751D01*
X171247042Y-131635912D01*
X171352377Y-131793558D01*
X171486441Y-131927622D01*
X171591300Y-131997686D01*
X171644085Y-132032956D01*
X171644086Y-132032956D01*
X171644087Y-132032957D01*
X171784067Y-132090939D01*
X171838470Y-132134780D01*
X171860535Y-132201074D01*
X171843256Y-132268774D01*
X171792118Y-132316384D01*
X171736614Y-132329500D01*
X169923386Y-132329500D01*
X169856347Y-132309815D01*
X169810592Y-132257011D01*
X169800648Y-132187853D01*
X169829673Y-132124297D01*
X169875933Y-132090939D01*
X169876653Y-132090640D01*
X170015915Y-132032956D01*
X170173558Y-131927622D01*
X170307622Y-131793558D01*
X170412956Y-131635915D01*
X170485512Y-131460751D01*
X170522500Y-131274798D01*
X170522500Y-131085202D01*
X170522499Y-131085199D01*
X170522499Y-131085197D01*
X170485513Y-130899256D01*
X170485512Y-130899249D01*
X170412956Y-130724085D01*
X170377686Y-130671300D01*
X170307622Y-130566441D01*
X170173558Y-130432377D01*
X170015912Y-130327042D01*
X169840751Y-130254488D01*
X169840743Y-130254486D01*
X169654802Y-130217500D01*
X169654798Y-130217500D01*
X169465202Y-130217500D01*
X169465197Y-130217500D01*
X169279256Y-130254486D01*
X169279248Y-130254488D01*
X169104087Y-130327042D01*
X168946441Y-130432377D01*
X168812377Y-130566441D01*
X168707042Y-130724087D01*
X168634488Y-130899248D01*
X168634486Y-130899256D01*
X168597500Y-131085197D01*
X168597500Y-131274802D01*
X168634486Y-131460743D01*
X168634488Y-131460751D01*
X168707042Y-131635912D01*
X168812377Y-131793558D01*
X168946441Y-131927622D01*
X169051300Y-131997686D01*
X169104085Y-132032956D01*
X169104086Y-132032956D01*
X169104087Y-132032957D01*
X169244067Y-132090939D01*
X169298470Y-132134780D01*
X169320535Y-132201074D01*
X169303256Y-132268774D01*
X169252118Y-132316384D01*
X169196614Y-132329500D01*
X166014500Y-132329500D01*
X165947461Y-132309815D01*
X165901706Y-132257011D01*
X165890500Y-132205500D01*
X165890500Y-128165197D01*
X168597500Y-128165197D01*
X168597500Y-128354802D01*
X168634486Y-128540743D01*
X168634488Y-128540751D01*
X168707042Y-128715912D01*
X168812377Y-128873558D01*
X168946441Y-129007622D01*
X169051300Y-129077686D01*
X169104085Y-129112956D01*
X169279249Y-129185512D01*
X169465197Y-129222499D01*
X169465201Y-129222500D01*
X169465202Y-129222500D01*
X169654799Y-129222500D01*
X169654800Y-129222499D01*
X169840751Y-129185512D01*
X170015915Y-129112956D01*
X170173558Y-129007622D01*
X170307622Y-128873558D01*
X170412956Y-128715915D01*
X170485512Y-128540751D01*
X170522500Y-128354798D01*
X170522500Y-128165202D01*
X170522499Y-128165197D01*
X171137500Y-128165197D01*
X171137500Y-128354802D01*
X171174486Y-128540743D01*
X171174488Y-128540751D01*
X171247042Y-128715912D01*
X171352377Y-128873558D01*
X171486441Y-129007622D01*
X171591300Y-129077686D01*
X171644085Y-129112956D01*
X171819249Y-129185512D01*
X172005197Y-129222499D01*
X172005201Y-129222500D01*
X172005202Y-129222500D01*
X172194799Y-129222500D01*
X172194800Y-129222499D01*
X172380751Y-129185512D01*
X172555915Y-129112956D01*
X172713558Y-129007622D01*
X172847622Y-128873558D01*
X172952956Y-128715915D01*
X173025512Y-128540751D01*
X173062500Y-128354798D01*
X173062500Y-128165202D01*
X173062499Y-128165197D01*
X173677500Y-128165197D01*
X173677500Y-128354802D01*
X173714486Y-128540743D01*
X173714488Y-128540751D01*
X173787042Y-128715912D01*
X173892377Y-128873558D01*
X174026441Y-129007622D01*
X174131300Y-129077686D01*
X174184085Y-129112956D01*
X174359249Y-129185512D01*
X174545197Y-129222499D01*
X174545201Y-129222500D01*
X174545202Y-129222500D01*
X174734799Y-129222500D01*
X174734800Y-129222499D01*
X174920751Y-129185512D01*
X175095915Y-129112956D01*
X175253558Y-129007622D01*
X175387622Y-128873558D01*
X175492956Y-128715915D01*
X175565512Y-128540751D01*
X175602500Y-128354798D01*
X175602500Y-128165202D01*
X175602499Y-128165197D01*
X176217500Y-128165197D01*
X176217500Y-128354802D01*
X176254486Y-128540743D01*
X176254488Y-128540751D01*
X176327042Y-128715912D01*
X176432377Y-128873558D01*
X176566441Y-129007622D01*
X176671300Y-129077686D01*
X176724085Y-129112956D01*
X176899249Y-129185512D01*
X177085197Y-129222499D01*
X177085201Y-129222500D01*
X177085202Y-129222500D01*
X177274799Y-129222500D01*
X177274800Y-129222499D01*
X177460751Y-129185512D01*
X177635915Y-129112956D01*
X177793558Y-129007622D01*
X177927622Y-128873558D01*
X178032956Y-128715915D01*
X178105512Y-128540751D01*
X178142500Y-128354798D01*
X178142500Y-128165202D01*
X178142499Y-128165197D01*
X178757500Y-128165197D01*
X178757500Y-128354802D01*
X178794486Y-128540743D01*
X178794488Y-128540751D01*
X178867042Y-128715912D01*
X178972377Y-128873558D01*
X179106441Y-129007622D01*
X179211300Y-129077686D01*
X179264085Y-129112956D01*
X179439249Y-129185512D01*
X179625197Y-129222499D01*
X179625201Y-129222500D01*
X179625202Y-129222500D01*
X179814799Y-129222500D01*
X179814800Y-129222499D01*
X180000751Y-129185512D01*
X180175915Y-129112956D01*
X180333558Y-129007622D01*
X180467622Y-128873558D01*
X180572956Y-128715915D01*
X180645512Y-128540751D01*
X180682500Y-128354798D01*
X180682500Y-128165202D01*
X180645512Y-127979249D01*
X180572956Y-127804085D01*
X180537686Y-127751300D01*
X180467622Y-127646441D01*
X180333558Y-127512377D01*
X180175912Y-127407042D01*
X180000751Y-127334488D01*
X180000743Y-127334486D01*
X179814802Y-127297500D01*
X179814798Y-127297500D01*
X179625202Y-127297500D01*
X179625197Y-127297500D01*
X179439256Y-127334486D01*
X179439248Y-127334488D01*
X179264087Y-127407042D01*
X179106441Y-127512377D01*
X178972377Y-127646441D01*
X178867042Y-127804087D01*
X178794488Y-127979248D01*
X178794486Y-127979256D01*
X178757500Y-128165197D01*
X178142499Y-128165197D01*
X178105512Y-127979249D01*
X178032956Y-127804085D01*
X177997686Y-127751300D01*
X177927622Y-127646441D01*
X177793558Y-127512377D01*
X177635912Y-127407042D01*
X177460751Y-127334488D01*
X177460743Y-127334486D01*
X177274802Y-127297500D01*
X177274798Y-127297500D01*
X177085202Y-127297500D01*
X177085197Y-127297500D01*
X176899256Y-127334486D01*
X176899248Y-127334488D01*
X176724087Y-127407042D01*
X176566441Y-127512377D01*
X176432377Y-127646441D01*
X176327042Y-127804087D01*
X176254488Y-127979248D01*
X176254486Y-127979256D01*
X176217500Y-128165197D01*
X175602499Y-128165197D01*
X175565512Y-127979249D01*
X175492956Y-127804085D01*
X175457686Y-127751300D01*
X175387622Y-127646441D01*
X175253558Y-127512377D01*
X175095912Y-127407042D01*
X174920751Y-127334488D01*
X174920743Y-127334486D01*
X174734802Y-127297500D01*
X174734798Y-127297500D01*
X174545202Y-127297500D01*
X174545197Y-127297500D01*
X174359256Y-127334486D01*
X174359248Y-127334488D01*
X174184087Y-127407042D01*
X174026441Y-127512377D01*
X173892377Y-127646441D01*
X173787042Y-127804087D01*
X173714488Y-127979248D01*
X173714486Y-127979256D01*
X173677500Y-128165197D01*
X173062499Y-128165197D01*
X173025512Y-127979249D01*
X172952956Y-127804085D01*
X172917686Y-127751300D01*
X172847622Y-127646441D01*
X172713558Y-127512377D01*
X172555912Y-127407042D01*
X172380751Y-127334488D01*
X172380743Y-127334486D01*
X172194802Y-127297500D01*
X172194798Y-127297500D01*
X172005202Y-127297500D01*
X172005197Y-127297500D01*
X171819256Y-127334486D01*
X171819248Y-127334488D01*
X171644087Y-127407042D01*
X171486441Y-127512377D01*
X171352377Y-127646441D01*
X171247042Y-127804087D01*
X171174488Y-127979248D01*
X171174486Y-127979256D01*
X171137500Y-128165197D01*
X170522499Y-128165197D01*
X170485512Y-127979249D01*
X170412956Y-127804085D01*
X170377686Y-127751300D01*
X170307622Y-127646441D01*
X170173558Y-127512377D01*
X170015912Y-127407042D01*
X169840751Y-127334488D01*
X169840743Y-127334486D01*
X169654802Y-127297500D01*
X169654798Y-127297500D01*
X169465202Y-127297500D01*
X169465197Y-127297500D01*
X169279256Y-127334486D01*
X169279248Y-127334488D01*
X169104087Y-127407042D01*
X168946441Y-127512377D01*
X168812377Y-127646441D01*
X168707042Y-127804087D01*
X168634488Y-127979248D01*
X168634486Y-127979256D01*
X168597500Y-128165197D01*
X165890500Y-128165197D01*
X165890500Y-118511669D01*
X165910185Y-118444630D01*
X165962989Y-118398875D01*
X166032147Y-118388931D01*
X166095703Y-118417956D01*
X166129061Y-118464216D01*
X166167043Y-118555913D01*
X166272377Y-118713558D01*
X166406441Y-118847622D01*
X166511300Y-118917686D01*
X166564085Y-118952956D01*
X166739249Y-119025512D01*
X166925197Y-119062499D01*
X166925201Y-119062500D01*
X166925202Y-119062500D01*
X167114799Y-119062500D01*
X167114800Y-119062499D01*
X167300751Y-119025512D01*
X167475915Y-118952956D01*
X167633558Y-118847622D01*
X167767622Y-118713558D01*
X167872956Y-118555915D01*
X167945512Y-118380751D01*
X167982500Y-118194798D01*
X167982500Y-118005202D01*
X167982499Y-118005199D01*
X167982499Y-118005197D01*
X168597500Y-118005197D01*
X168597500Y-118194802D01*
X168634486Y-118380743D01*
X168634488Y-118380751D01*
X168707042Y-118555912D01*
X168812377Y-118713558D01*
X168946441Y-118847622D01*
X169051300Y-118917686D01*
X169104085Y-118952956D01*
X169279249Y-119025512D01*
X169465197Y-119062499D01*
X169465201Y-119062500D01*
X169465202Y-119062500D01*
X169654799Y-119062500D01*
X169654800Y-119062499D01*
X169840751Y-119025512D01*
X170015915Y-118952956D01*
X170173558Y-118847622D01*
X170307622Y-118713558D01*
X170412956Y-118555915D01*
X170485512Y-118380751D01*
X170522500Y-118194798D01*
X170522500Y-118005202D01*
X170522499Y-118005199D01*
X170522499Y-118005197D01*
X171137500Y-118005197D01*
X171137500Y-118194802D01*
X171174486Y-118380743D01*
X171174488Y-118380751D01*
X171247042Y-118555912D01*
X171352377Y-118713558D01*
X171486441Y-118847622D01*
X171591300Y-118917686D01*
X171644085Y-118952956D01*
X171819249Y-119025512D01*
X172005197Y-119062499D01*
X172005201Y-119062500D01*
X172005202Y-119062500D01*
X172194799Y-119062500D01*
X172194800Y-119062499D01*
X172380751Y-119025512D01*
X172555915Y-118952956D01*
X172713558Y-118847622D01*
X172847622Y-118713558D01*
X172952956Y-118555915D01*
X173025512Y-118380751D01*
X173062500Y-118194798D01*
X173062500Y-118005202D01*
X173062499Y-118005199D01*
X173062499Y-118005197D01*
X173677500Y-118005197D01*
X173677500Y-118194802D01*
X173714486Y-118380743D01*
X173714488Y-118380751D01*
X173787042Y-118555912D01*
X173892377Y-118713558D01*
X174026441Y-118847622D01*
X174131300Y-118917686D01*
X174184085Y-118952956D01*
X174359249Y-119025512D01*
X174545197Y-119062499D01*
X174545201Y-119062500D01*
X174545202Y-119062500D01*
X174734799Y-119062500D01*
X174734800Y-119062499D01*
X174920751Y-119025512D01*
X175095915Y-118952956D01*
X175253558Y-118847622D01*
X175387622Y-118713558D01*
X175492956Y-118555915D01*
X175565512Y-118380751D01*
X175602500Y-118194798D01*
X175602500Y-118005202D01*
X175602500Y-118005201D01*
X175602500Y-118005199D01*
X175601601Y-118000678D01*
X175918000Y-118000678D01*
X175918000Y-118199321D01*
X175949075Y-118395520D01*
X175949075Y-118395523D01*
X176010457Y-118584437D01*
X176100641Y-118761432D01*
X176127730Y-118798715D01*
X176127731Y-118798716D01*
X176737861Y-118188585D01*
X176760667Y-118273694D01*
X176819910Y-118376306D01*
X176903694Y-118460090D01*
X177006306Y-118519333D01*
X177091414Y-118542137D01*
X176481283Y-119152268D01*
X176481283Y-119152269D01*
X176518567Y-119179358D01*
X176695562Y-119269542D01*
X176884477Y-119330924D01*
X177080679Y-119362000D01*
X177279321Y-119362000D01*
X177475520Y-119330924D01*
X177475523Y-119330924D01*
X177664437Y-119269542D01*
X177841425Y-119179362D01*
X177878716Y-119152268D01*
X177268585Y-118542137D01*
X177353694Y-118519333D01*
X177456306Y-118460090D01*
X177540090Y-118376306D01*
X177599333Y-118273694D01*
X177622138Y-118188585D01*
X178232268Y-118798715D01*
X178259362Y-118761425D01*
X178349542Y-118584437D01*
X178410924Y-118395523D01*
X178410924Y-118395520D01*
X178442000Y-118199321D01*
X178442000Y-118005197D01*
X178757500Y-118005197D01*
X178757500Y-118194802D01*
X178794486Y-118380743D01*
X178794488Y-118380751D01*
X178867042Y-118555912D01*
X178972377Y-118713558D01*
X179106441Y-118847622D01*
X179211300Y-118917686D01*
X179264085Y-118952956D01*
X179439249Y-119025512D01*
X179625197Y-119062499D01*
X179625201Y-119062500D01*
X179625202Y-119062500D01*
X179814799Y-119062500D01*
X179814800Y-119062499D01*
X180000751Y-119025512D01*
X180175915Y-118952956D01*
X180333558Y-118847622D01*
X180467622Y-118713558D01*
X180572956Y-118555915D01*
X180645512Y-118380751D01*
X180682500Y-118194798D01*
X180682500Y-118005202D01*
X180682499Y-118005199D01*
X180682499Y-118005197D01*
X180645513Y-117819256D01*
X180645512Y-117819249D01*
X180572956Y-117644085D01*
X180537686Y-117591300D01*
X180467622Y-117486441D01*
X180333558Y-117352377D01*
X180175912Y-117247042D01*
X180000751Y-117174488D01*
X180000743Y-117174486D01*
X179814802Y-117137500D01*
X179814798Y-117137500D01*
X179625202Y-117137500D01*
X179625197Y-117137500D01*
X179439256Y-117174486D01*
X179439248Y-117174488D01*
X179264087Y-117247042D01*
X179106441Y-117352377D01*
X178972377Y-117486441D01*
X178867042Y-117644087D01*
X178794488Y-117819248D01*
X178794486Y-117819256D01*
X178757500Y-118005197D01*
X178442000Y-118005197D01*
X178442000Y-118000678D01*
X178410924Y-117804479D01*
X178410924Y-117804476D01*
X178349542Y-117615562D01*
X178259358Y-117438567D01*
X178232268Y-117401283D01*
X177622137Y-118011414D01*
X177599333Y-117926306D01*
X177540090Y-117823694D01*
X177456306Y-117739910D01*
X177353694Y-117680667D01*
X177268585Y-117657861D01*
X177878716Y-117047731D01*
X177878715Y-117047730D01*
X177841432Y-117020641D01*
X177664437Y-116930457D01*
X177475522Y-116869075D01*
X177279321Y-116838000D01*
X177080679Y-116838000D01*
X176884479Y-116869075D01*
X176884476Y-116869075D01*
X176695562Y-116930457D01*
X176518564Y-117020643D01*
X176481283Y-117047729D01*
X176481282Y-117047730D01*
X177091415Y-117657861D01*
X177006306Y-117680667D01*
X176903694Y-117739910D01*
X176819910Y-117823694D01*
X176760667Y-117926306D01*
X176737861Y-118011414D01*
X176127730Y-117401282D01*
X176127729Y-117401283D01*
X176100643Y-117438564D01*
X176010457Y-117615562D01*
X175949075Y-117804476D01*
X175949075Y-117804479D01*
X175918000Y-118000678D01*
X175601601Y-118000678D01*
X175565513Y-117819256D01*
X175565512Y-117819249D01*
X175492956Y-117644085D01*
X175457686Y-117591300D01*
X175387622Y-117486441D01*
X175253558Y-117352377D01*
X175095912Y-117247042D01*
X175005400Y-117209551D01*
X174920751Y-117174488D01*
X174920743Y-117174486D01*
X174734802Y-117137500D01*
X174734798Y-117137500D01*
X174545202Y-117137500D01*
X174545197Y-117137500D01*
X174359256Y-117174486D01*
X174359248Y-117174488D01*
X174184087Y-117247042D01*
X174026441Y-117352377D01*
X173892377Y-117486441D01*
X173787042Y-117644087D01*
X173714488Y-117819248D01*
X173714486Y-117819256D01*
X173677500Y-118005197D01*
X173062499Y-118005197D01*
X173025513Y-117819256D01*
X173025512Y-117819249D01*
X172952956Y-117644085D01*
X172917686Y-117591300D01*
X172847622Y-117486441D01*
X172713558Y-117352377D01*
X172555912Y-117247042D01*
X172380751Y-117174488D01*
X172380743Y-117174486D01*
X172194802Y-117137500D01*
X172194798Y-117137500D01*
X172005202Y-117137500D01*
X172005197Y-117137500D01*
X171819256Y-117174486D01*
X171819248Y-117174488D01*
X171644087Y-117247042D01*
X171486441Y-117352377D01*
X171352377Y-117486441D01*
X171247042Y-117644087D01*
X171174488Y-117819248D01*
X171174486Y-117819256D01*
X171137500Y-118005197D01*
X170522499Y-118005197D01*
X170485513Y-117819256D01*
X170485512Y-117819249D01*
X170412956Y-117644085D01*
X170377686Y-117591300D01*
X170307622Y-117486441D01*
X170173558Y-117352377D01*
X170015912Y-117247042D01*
X169840751Y-117174488D01*
X169840743Y-117174486D01*
X169654802Y-117137500D01*
X169654798Y-117137500D01*
X169465202Y-117137500D01*
X169465197Y-117137500D01*
X169279256Y-117174486D01*
X169279248Y-117174488D01*
X169104087Y-117247042D01*
X168946441Y-117352377D01*
X168812377Y-117486441D01*
X168707042Y-117644087D01*
X168634488Y-117819248D01*
X168634486Y-117819256D01*
X168597500Y-118005197D01*
X167982499Y-118005197D01*
X167945513Y-117819256D01*
X167945512Y-117819249D01*
X167872956Y-117644085D01*
X167837686Y-117591300D01*
X167767622Y-117486441D01*
X167633558Y-117352377D01*
X167475912Y-117247042D01*
X167300751Y-117174488D01*
X167300743Y-117174486D01*
X167114802Y-117137500D01*
X167114798Y-117137500D01*
X166925202Y-117137500D01*
X166925197Y-117137500D01*
X166739256Y-117174486D01*
X166739248Y-117174488D01*
X166564087Y-117247042D01*
X166406441Y-117352377D01*
X166272377Y-117486441D01*
X166167042Y-117644087D01*
X166129061Y-117735783D01*
X166085220Y-117790186D01*
X166018926Y-117812251D01*
X165951226Y-117794972D01*
X165903616Y-117743834D01*
X165890500Y-117688330D01*
X165890500Y-115498543D01*
X175649499Y-115498543D01*
X175687947Y-115691829D01*
X175687950Y-115691839D01*
X175763364Y-115873907D01*
X175763371Y-115873920D01*
X175872860Y-116037781D01*
X175872863Y-116037785D01*
X176012214Y-116177136D01*
X176012218Y-116177139D01*
X176176079Y-116286628D01*
X176176092Y-116286635D01*
X176358160Y-116362049D01*
X176358165Y-116362051D01*
X176358169Y-116362051D01*
X176358170Y-116362052D01*
X176551456Y-116400500D01*
X176551459Y-116400500D01*
X177148543Y-116400500D01*
X177278582Y-116374632D01*
X177341835Y-116362051D01*
X177523914Y-116286632D01*
X177687782Y-116177139D01*
X177827139Y-116037782D01*
X177936632Y-115873914D01*
X178012051Y-115691835D01*
X178050500Y-115498541D01*
X178050500Y-115301459D01*
X178050500Y-115301456D01*
X178012052Y-115108170D01*
X178012051Y-115108169D01*
X178012051Y-115108165D01*
X178012049Y-115108160D01*
X177936635Y-114926092D01*
X177936628Y-114926079D01*
X177827139Y-114762218D01*
X177827136Y-114762214D01*
X177687785Y-114622863D01*
X177687781Y-114622860D01*
X177523920Y-114513371D01*
X177523907Y-114513364D01*
X177341839Y-114437950D01*
X177341829Y-114437947D01*
X177148543Y-114399500D01*
X177148541Y-114399500D01*
X176551459Y-114399500D01*
X176551457Y-114399500D01*
X176358170Y-114437947D01*
X176358160Y-114437950D01*
X176176092Y-114513364D01*
X176176079Y-114513371D01*
X176012218Y-114622860D01*
X176012214Y-114622863D01*
X175872863Y-114762214D01*
X175872860Y-114762218D01*
X175763371Y-114926079D01*
X175763364Y-114926092D01*
X175687950Y-115108160D01*
X175687947Y-115108170D01*
X175649500Y-115301456D01*
X175649500Y-115301459D01*
X175649500Y-115498541D01*
X175649500Y-115498543D01*
X175649499Y-115498543D01*
X165890500Y-115498543D01*
X165890500Y-110354500D01*
X165910185Y-110287461D01*
X165962989Y-110241706D01*
X166014500Y-110230500D01*
X167380706Y-110230500D01*
X167447745Y-110250185D01*
G37*
G04 #@! TD.AperFunction*
M02*
