G04 #@! TF.GenerationSoftware,KiCad,Pcbnew,9.0.2*
G04 #@! TF.CreationDate,2025-07-09T02:03:57-04:00*
G04 #@! TF.ProjectId,FBT,4642542e-6b69-4636-9164-5f7063625858,rev?*
G04 #@! TF.SameCoordinates,Original*
G04 #@! TF.FileFunction,Legend,Bot*
G04 #@! TF.FilePolarity,Positive*
%FSLAX46Y46*%
G04 Gerber Fmt 4.6, Leading zero omitted, Abs format (unit mm)*
G04 Created by KiCad (PCBNEW 9.0.2) date 2025-07-09 02:03:57*
%MOMM*%
%LPD*%
G01*
G04 APERTURE LIST*
%ADD10C,0.000000*%
%ADD11C,0.211666*%
%ADD12C,0.417912*%
%ADD13C,0.334821*%
%ADD14C,0.114152*%
%ADD15C,0.100000*%
%ADD16C,0.150000*%
%ADD17C,0.120000*%
G04 APERTURE END LIST*
D10*
G36*
X139021423Y-83188055D02*
G01*
X139023134Y-83188176D01*
X139024836Y-83188378D01*
X139026525Y-83188661D01*
X139028201Y-83189021D01*
X139029860Y-83189458D01*
X139031499Y-83189968D01*
X139033117Y-83190550D01*
X139034710Y-83191201D01*
X139036277Y-83191920D01*
X139037815Y-83192705D01*
X139039322Y-83193552D01*
X139040794Y-83194461D01*
X139042230Y-83195428D01*
X139043627Y-83196453D01*
X139044982Y-83197532D01*
X139046294Y-83198664D01*
X139047559Y-83199847D01*
X139048776Y-83201078D01*
X139049941Y-83202355D01*
X139051053Y-83203676D01*
X139052108Y-83205040D01*
X139053105Y-83206444D01*
X139054040Y-83207885D01*
X139054912Y-83209363D01*
X139055718Y-83210873D01*
X139056456Y-83212416D01*
X139057122Y-83213988D01*
X139057715Y-83215587D01*
X139058232Y-83217212D01*
X139058671Y-83218859D01*
X139059029Y-83220528D01*
X139058955Y-83220451D01*
X139195651Y-83955165D01*
X139195999Y-83956848D01*
X139196425Y-83958537D01*
X139196925Y-83960231D01*
X139197497Y-83961926D01*
X139198848Y-83965308D01*
X139200459Y-83968663D01*
X139202311Y-83971968D01*
X139204383Y-83975200D01*
X139206658Y-83978338D01*
X139209115Y-83981359D01*
X139211735Y-83984242D01*
X139214500Y-83986964D01*
X139217389Y-83989503D01*
X139220383Y-83991837D01*
X139223463Y-83993945D01*
X139226610Y-83995803D01*
X139229805Y-83997390D01*
X139231414Y-83998075D01*
X139233027Y-83998683D01*
X139758540Y-84223915D01*
X139761691Y-84225372D01*
X139765028Y-84226597D01*
X139768525Y-84227591D01*
X139772152Y-84228358D01*
X139775880Y-84228897D01*
X139779681Y-84229211D01*
X139783525Y-84229301D01*
X139787386Y-84229169D01*
X139791233Y-84228817D01*
X139795038Y-84228246D01*
X139798773Y-84227458D01*
X139802409Y-84226455D01*
X139805918Y-84225238D01*
X139809270Y-84223809D01*
X139812437Y-84222170D01*
X139815390Y-84220321D01*
X140439548Y-83792263D01*
X140440975Y-83791343D01*
X140442445Y-83790494D01*
X140443954Y-83789717D01*
X140445500Y-83789010D01*
X140447079Y-83788374D01*
X140448687Y-83787808D01*
X140450322Y-83787312D01*
X140451981Y-83786886D01*
X140455355Y-83786243D01*
X140458783Y-83785877D01*
X140462240Y-83785784D01*
X140465699Y-83785964D01*
X140469134Y-83786415D01*
X140472519Y-83787134D01*
X140475829Y-83788119D01*
X140477447Y-83788711D01*
X140479037Y-83789369D01*
X140480595Y-83790092D01*
X140482117Y-83790881D01*
X140483602Y-83791735D01*
X140485044Y-83792654D01*
X140486442Y-83793638D01*
X140487791Y-83794686D01*
X140489089Y-83795798D01*
X140490332Y-83796973D01*
X141025133Y-84331700D01*
X141026316Y-84332936D01*
X141027435Y-84334227D01*
X141028490Y-84335571D01*
X141029480Y-84336963D01*
X141030405Y-84338400D01*
X141031266Y-84339879D01*
X141032790Y-84342951D01*
X141034051Y-84346152D01*
X141035046Y-84349455D01*
X141035772Y-84352836D01*
X141036227Y-84356267D01*
X141036410Y-84359722D01*
X141036317Y-84363177D01*
X141035947Y-84366603D01*
X141035297Y-84369976D01*
X141034364Y-84373269D01*
X141033792Y-84374878D01*
X141033148Y-84376456D01*
X141032432Y-84378002D01*
X141031644Y-84379511D01*
X141030784Y-84380981D01*
X141029851Y-84382408D01*
X140594075Y-85017278D01*
X140592236Y-85020221D01*
X140590597Y-85023383D01*
X140589161Y-85026737D01*
X140587931Y-85030251D01*
X140586907Y-85033898D01*
X140586093Y-85037647D01*
X140585491Y-85041470D01*
X140585102Y-85045338D01*
X140584929Y-85049220D01*
X140584975Y-85053088D01*
X140585241Y-85056912D01*
X140585729Y-85060664D01*
X140586442Y-85064313D01*
X140587382Y-85067830D01*
X140588551Y-85071187D01*
X140589952Y-85074353D01*
X140798479Y-85583688D01*
X140799703Y-85586923D01*
X140801226Y-85590130D01*
X140803026Y-85593288D01*
X140805081Y-85596378D01*
X140807367Y-85599381D01*
X140809864Y-85602278D01*
X140812548Y-85605050D01*
X140815397Y-85607678D01*
X140818390Y-85610143D01*
X140821503Y-85612425D01*
X140824715Y-85614505D01*
X140828003Y-85616365D01*
X140831345Y-85617985D01*
X140834719Y-85619345D01*
X140838102Y-85620428D01*
X140841472Y-85621213D01*
X141601578Y-85762703D01*
X141603254Y-85763053D01*
X141604907Y-85763486D01*
X141606538Y-85763997D01*
X141608143Y-85764586D01*
X141609720Y-85765248D01*
X141611267Y-85765982D01*
X141612783Y-85766785D01*
X141614265Y-85767654D01*
X141615710Y-85768588D01*
X141617118Y-85769582D01*
X141619811Y-85771746D01*
X141622326Y-85774125D01*
X141624648Y-85776700D01*
X141626759Y-85779448D01*
X141628642Y-85782352D01*
X141630282Y-85785389D01*
X141631005Y-85786951D01*
X141631661Y-85788540D01*
X141632247Y-85790152D01*
X141632762Y-85791785D01*
X141633204Y-85793436D01*
X141633570Y-85795102D01*
X141633858Y-85796782D01*
X141634066Y-85798473D01*
X141634193Y-85800172D01*
X141634235Y-85801876D01*
X141634235Y-86558088D01*
X141634193Y-86559792D01*
X141634066Y-86561491D01*
X141633858Y-86563181D01*
X141633570Y-86564861D01*
X141633204Y-86566528D01*
X141632763Y-86568179D01*
X141632248Y-86569812D01*
X141631662Y-86571424D01*
X141631007Y-86573012D01*
X141630284Y-86574575D01*
X141629497Y-86576109D01*
X141628646Y-86577612D01*
X141627735Y-86579082D01*
X141626765Y-86580515D01*
X141625739Y-86581910D01*
X141624657Y-86583264D01*
X141623524Y-86584574D01*
X141622340Y-86585838D01*
X141621108Y-86587053D01*
X141619829Y-86588217D01*
X141618507Y-86589327D01*
X141617142Y-86590381D01*
X141615738Y-86591376D01*
X141614296Y-86592309D01*
X141612819Y-86593179D01*
X141611307Y-86593982D01*
X141609765Y-86594716D01*
X141608193Y-86595378D01*
X141606594Y-86595966D01*
X141604969Y-86596478D01*
X141603322Y-86596910D01*
X141601653Y-86597261D01*
X140841470Y-86738676D01*
X140839788Y-86739031D01*
X140838100Y-86739463D01*
X140834716Y-86740546D01*
X140831342Y-86741908D01*
X140828000Y-86743528D01*
X140824712Y-86745388D01*
X140821499Y-86747468D01*
X140818386Y-86749750D01*
X140815393Y-86752214D01*
X140812544Y-86754841D01*
X140809859Y-86757613D01*
X140807363Y-86760510D01*
X140805076Y-86763512D01*
X140803022Y-86766602D01*
X140801223Y-86769760D01*
X140800425Y-86771358D01*
X140799700Y-86772966D01*
X140799049Y-86774581D01*
X140798476Y-86776201D01*
X140589948Y-87285611D01*
X140588561Y-87288791D01*
X140587401Y-87292159D01*
X140586468Y-87295686D01*
X140585759Y-87299343D01*
X140585273Y-87303100D01*
X140585007Y-87306929D01*
X140584959Y-87310799D01*
X140585129Y-87314682D01*
X140585514Y-87318548D01*
X140586112Y-87322369D01*
X140586921Y-87326114D01*
X140587940Y-87329755D01*
X140589166Y-87333262D01*
X140590598Y-87336605D01*
X140592233Y-87339756D01*
X140594071Y-87342686D01*
X141029851Y-87977556D01*
X141030777Y-87978990D01*
X141031630Y-87980466D01*
X141032412Y-87981981D01*
X141033123Y-87983532D01*
X141033762Y-87985116D01*
X141034330Y-87986729D01*
X141034827Y-87988369D01*
X141035254Y-87990031D01*
X141035611Y-87991713D01*
X141035898Y-87993411D01*
X141036264Y-87996844D01*
X141036354Y-88000303D01*
X141036171Y-88003762D01*
X141035716Y-88007197D01*
X141034993Y-88010580D01*
X141034002Y-88013885D01*
X141033408Y-88015500D01*
X141032748Y-88017087D01*
X141032022Y-88018641D01*
X141031231Y-88020159D01*
X141030375Y-88021639D01*
X141029455Y-88023076D01*
X141028470Y-88024468D01*
X141027421Y-88025811D01*
X141026308Y-88027103D01*
X141025132Y-88028339D01*
X140490332Y-88563064D01*
X140489088Y-88564241D01*
X140487790Y-88565354D01*
X140486441Y-88566404D01*
X140485044Y-88567390D01*
X140483601Y-88568312D01*
X140482117Y-88569169D01*
X140479037Y-88570690D01*
X140475829Y-88571949D01*
X140472519Y-88572944D01*
X140469133Y-88573672D01*
X140465698Y-88574131D01*
X140462239Y-88574318D01*
X140458783Y-88574229D01*
X140455355Y-88573864D01*
X140451981Y-88573218D01*
X140448687Y-88572290D01*
X140447078Y-88571719D01*
X140445500Y-88571077D01*
X140443954Y-88570362D01*
X140442445Y-88569575D01*
X140440975Y-88568716D01*
X140439548Y-88567783D01*
X139815464Y-88139650D01*
X139812510Y-88137826D01*
X139809344Y-88136207D01*
X139805992Y-88134793D01*
X139802484Y-88133588D01*
X139798848Y-88132593D01*
X139795113Y-88131811D01*
X139791308Y-88131243D01*
X139787461Y-88130891D01*
X139783600Y-88130758D01*
X139779755Y-88130846D01*
X139775954Y-88131157D01*
X139772226Y-88131692D01*
X139768599Y-88132454D01*
X139765103Y-88133445D01*
X139761765Y-88134668D01*
X139758614Y-88136123D01*
X139233101Y-88361354D01*
X139229880Y-88362632D01*
X139226688Y-88364204D01*
X139223544Y-88366048D01*
X139220468Y-88368142D01*
X139217479Y-88370464D01*
X139214595Y-88372993D01*
X139211836Y-88375706D01*
X139209220Y-88378581D01*
X139206766Y-88381597D01*
X139204493Y-88384731D01*
X139202421Y-88387962D01*
X139200568Y-88391268D01*
X139198953Y-88394626D01*
X139197594Y-88398015D01*
X139196512Y-88401412D01*
X139195725Y-88404797D01*
X139059028Y-89139511D01*
X139058671Y-89141186D01*
X139058232Y-89142839D01*
X139057715Y-89144469D01*
X139057121Y-89146072D01*
X139056453Y-89147648D01*
X139055715Y-89149193D01*
X139054907Y-89150706D01*
X139054034Y-89152186D01*
X139053097Y-89153629D01*
X139052098Y-89155033D01*
X139049928Y-89157720D01*
X139047544Y-89160229D01*
X139044966Y-89162543D01*
X139042214Y-89164647D01*
X139039309Y-89166524D01*
X139036270Y-89168157D01*
X139034706Y-89168877D01*
X139033117Y-89169530D01*
X139031505Y-89170114D01*
X139029872Y-89170627D01*
X139028221Y-89171066D01*
X139026554Y-89171430D01*
X139024874Y-89171717D01*
X139023183Y-89171925D01*
X139021485Y-89172051D01*
X139019780Y-89172093D01*
X138263420Y-89172093D01*
X138261709Y-89172050D01*
X138260003Y-89171924D01*
X138258307Y-89171716D01*
X138256621Y-89171427D01*
X138254949Y-89171062D01*
X138253294Y-89170620D01*
X138251656Y-89170106D01*
X138250040Y-89169520D01*
X138248448Y-89168864D01*
X138246882Y-89168142D01*
X138245345Y-89167354D01*
X138243839Y-89166504D01*
X138242367Y-89165593D01*
X138240931Y-89164623D01*
X138239534Y-89163596D01*
X138238178Y-89162515D01*
X138236866Y-89161381D01*
X138235601Y-89160197D01*
X138234384Y-89158965D01*
X138233219Y-89157687D01*
X138232108Y-89156365D01*
X138231054Y-89155000D01*
X138230058Y-89153596D01*
X138229124Y-89152154D01*
X138228254Y-89150676D01*
X138227451Y-89149165D01*
X138226717Y-89147623D01*
X138226054Y-89146051D01*
X138225466Y-89144451D01*
X138224954Y-89142827D01*
X138224522Y-89141179D01*
X138224171Y-89139511D01*
X138090770Y-88422849D01*
X138090428Y-88421167D01*
X138090007Y-88419481D01*
X138089510Y-88417793D01*
X138088940Y-88416105D01*
X138087587Y-88412744D01*
X138085969Y-88409418D01*
X138084105Y-88406151D01*
X138082017Y-88402963D01*
X138079722Y-88399877D01*
X138077242Y-88396915D01*
X138074596Y-88394099D01*
X138071803Y-88391450D01*
X138068885Y-88388991D01*
X138065860Y-88386743D01*
X138062749Y-88384728D01*
X138059571Y-88382969D01*
X138057964Y-88382192D01*
X138056347Y-88381487D01*
X138054723Y-88380856D01*
X138053095Y-88380304D01*
X137494026Y-88156568D01*
X137490846Y-88155182D01*
X137487478Y-88154025D01*
X137483951Y-88153095D01*
X137480295Y-88152391D01*
X137476537Y-88151910D01*
X137472709Y-88151651D01*
X137468839Y-88151610D01*
X137464955Y-88151787D01*
X137461089Y-88152179D01*
X137457269Y-88152783D01*
X137453523Y-88153599D01*
X137449883Y-88154623D01*
X137446376Y-88155854D01*
X137443032Y-88157289D01*
X137439880Y-88158927D01*
X137436951Y-88160766D01*
X136843577Y-88567859D01*
X136842144Y-88568785D01*
X136840667Y-88569638D01*
X136839152Y-88570420D01*
X136837601Y-88571131D01*
X136836017Y-88571770D01*
X136834404Y-88572338D01*
X136832764Y-88572835D01*
X136831101Y-88573262D01*
X136829419Y-88573619D01*
X136827720Y-88573906D01*
X136824286Y-88574272D01*
X136820824Y-88574362D01*
X136817361Y-88574179D01*
X136813923Y-88573724D01*
X136810535Y-88573000D01*
X136807224Y-88572010D01*
X136805605Y-88571415D01*
X136804015Y-88570755D01*
X136802456Y-88570030D01*
X136800934Y-88569239D01*
X136799449Y-88568383D01*
X136798007Y-88567462D01*
X136796609Y-88566478D01*
X136795260Y-88565429D01*
X136793962Y-88564316D01*
X136792718Y-88563140D01*
X136257910Y-88028339D01*
X136256733Y-88027103D01*
X136255620Y-88025811D01*
X136254571Y-88024468D01*
X136253585Y-88023076D01*
X136252665Y-88021638D01*
X136251808Y-88020159D01*
X136250291Y-88017086D01*
X136249037Y-88013885D01*
X136248046Y-88010579D01*
X136247323Y-88007196D01*
X136246868Y-88003762D01*
X136246685Y-88000303D01*
X136246776Y-87996843D01*
X136247142Y-87993411D01*
X136247786Y-87990031D01*
X136248711Y-87986729D01*
X136249280Y-87985116D01*
X136249919Y-87983532D01*
X136250629Y-87981981D01*
X136251411Y-87980466D01*
X136252265Y-87978990D01*
X136253191Y-87977556D01*
X136653236Y-87394818D01*
X136655064Y-87391881D01*
X136656667Y-87388736D01*
X136658044Y-87385412D01*
X136659194Y-87381937D01*
X136660118Y-87378340D01*
X136660815Y-87374650D01*
X136661284Y-87370895D01*
X136661525Y-87367104D01*
X136661538Y-87363307D01*
X136661322Y-87359531D01*
X136660877Y-87355805D01*
X136660202Y-87352159D01*
X136659297Y-87348621D01*
X136658162Y-87345219D01*
X136656796Y-87341983D01*
X136655199Y-87338941D01*
X136517982Y-87081952D01*
X136517240Y-87080421D01*
X136516588Y-87078876D01*
X136516024Y-87077320D01*
X136515548Y-87075756D01*
X136515158Y-87074187D01*
X136514853Y-87072615D01*
X136514633Y-87071043D01*
X136514495Y-87069474D01*
X136514440Y-87067911D01*
X136514466Y-87066356D01*
X136514572Y-87064811D01*
X136514757Y-87063281D01*
X136515021Y-87061766D01*
X136515361Y-87060271D01*
X136515777Y-87058797D01*
X136516269Y-87057348D01*
X136516834Y-87055926D01*
X136517472Y-87054534D01*
X136518182Y-87053175D01*
X136518963Y-87051851D01*
X136519814Y-87050565D01*
X136520733Y-87049320D01*
X136521721Y-87048118D01*
X136522775Y-87046963D01*
X136523895Y-87045856D01*
X136525079Y-87044801D01*
X136526328Y-87043800D01*
X136527638Y-87042857D01*
X136529011Y-87041973D01*
X136530444Y-87041151D01*
X136531937Y-87040395D01*
X136533488Y-87039707D01*
X137814163Y-86509776D01*
X137815756Y-86509163D01*
X137817373Y-86508631D01*
X137819011Y-86508179D01*
X137820667Y-86507806D01*
X137822339Y-86507510D01*
X137824022Y-86507291D01*
X137825714Y-86507148D01*
X137827412Y-86507079D01*
X137829113Y-86507085D01*
X137830814Y-86507163D01*
X137832512Y-86507314D01*
X137834203Y-86507535D01*
X137835885Y-86507826D01*
X137837555Y-86508187D01*
X137839209Y-86508615D01*
X137840845Y-86509110D01*
X137842459Y-86509671D01*
X137844049Y-86510298D01*
X137845611Y-86510988D01*
X137847142Y-86511742D01*
X137848640Y-86512558D01*
X137850101Y-86513434D01*
X137851523Y-86514372D01*
X137852901Y-86515368D01*
X137854234Y-86516423D01*
X137855518Y-86517535D01*
X137856750Y-86518703D01*
X137857927Y-86519926D01*
X137859046Y-86521204D01*
X137860104Y-86522535D01*
X137861098Y-86523919D01*
X137862024Y-86525354D01*
X137901422Y-86589695D01*
X137904377Y-86594343D01*
X137907743Y-86599294D01*
X137911451Y-86604460D01*
X137915428Y-86609750D01*
X137919601Y-86615075D01*
X137923899Y-86620346D01*
X137928249Y-86625473D01*
X137932580Y-86630367D01*
X137961730Y-86672941D01*
X137993378Y-86713574D01*
X138027415Y-86752154D01*
X138063730Y-86788569D01*
X138102214Y-86822709D01*
X138142757Y-86854463D01*
X138185247Y-86883720D01*
X138229576Y-86910369D01*
X138275634Y-86934299D01*
X138323309Y-86955398D01*
X138372493Y-86973555D01*
X138423075Y-86988661D01*
X138474945Y-87000602D01*
X138527993Y-87009270D01*
X138582110Y-87014552D01*
X138637184Y-87016337D01*
X138680231Y-87015249D01*
X138722713Y-87012019D01*
X138764577Y-87006701D01*
X138805771Y-86999346D01*
X138846242Y-86990007D01*
X138885937Y-86978738D01*
X138924805Y-86965589D01*
X138962792Y-86950615D01*
X138999846Y-86933867D01*
X139035915Y-86915398D01*
X139070945Y-86895261D01*
X139104885Y-86873508D01*
X139137681Y-86850192D01*
X139169282Y-86825365D01*
X139199634Y-86799079D01*
X139228685Y-86771389D01*
X139256383Y-86742345D01*
X139282674Y-86712000D01*
X139307507Y-86680408D01*
X139330829Y-86647620D01*
X139352587Y-86613689D01*
X139372729Y-86578668D01*
X139391202Y-86542610D01*
X139407954Y-86505566D01*
X139422931Y-86467590D01*
X139436082Y-86428733D01*
X139447355Y-86389049D01*
X139456695Y-86348590D01*
X139464051Y-86307409D01*
X139469371Y-86265558D01*
X139472601Y-86223089D01*
X139473690Y-86180056D01*
X139472601Y-86137023D01*
X139469371Y-86094554D01*
X139464051Y-86052703D01*
X139456695Y-86011522D01*
X139447355Y-85971063D01*
X139436082Y-85931379D01*
X139422931Y-85892522D01*
X139407954Y-85854546D01*
X139391202Y-85817502D01*
X139372729Y-85781443D01*
X139352587Y-85746422D01*
X139330829Y-85712492D01*
X139307507Y-85679704D01*
X139282674Y-85648111D01*
X139256383Y-85617767D01*
X139228685Y-85588723D01*
X139199634Y-85561032D01*
X139169282Y-85534747D01*
X139137681Y-85509920D01*
X139104885Y-85486603D01*
X139070945Y-85464850D01*
X139035915Y-85444713D01*
X138999846Y-85426244D01*
X138962792Y-85409496D01*
X138924805Y-85394522D01*
X138885937Y-85381374D01*
X138846242Y-85370104D01*
X138805771Y-85360766D01*
X138764577Y-85353411D01*
X138722713Y-85348092D01*
X138680231Y-85344863D01*
X138637184Y-85343775D01*
X138609534Y-85344223D01*
X138582110Y-85345560D01*
X138554925Y-85347771D01*
X138527993Y-85350842D01*
X138501329Y-85354759D01*
X138474945Y-85359509D01*
X138448856Y-85365078D01*
X138423075Y-85371451D01*
X138397616Y-85378615D01*
X138372493Y-85386556D01*
X138347720Y-85395260D01*
X138323309Y-85404714D01*
X138299276Y-85414903D01*
X138275634Y-85425813D01*
X138229576Y-85449742D01*
X138185247Y-85476391D01*
X138142757Y-85505648D01*
X138102214Y-85537402D01*
X138063730Y-85571542D01*
X138027415Y-85607958D01*
X137993378Y-85646537D01*
X137961730Y-85687170D01*
X137932580Y-85729745D01*
X137928272Y-85734617D01*
X137923932Y-85739732D01*
X137919636Y-85744999D01*
X137915459Y-85750324D01*
X137911474Y-85755614D01*
X137907757Y-85760775D01*
X137904381Y-85765716D01*
X137901422Y-85770342D01*
X137862024Y-85834682D01*
X137861098Y-85836111D01*
X137860104Y-85837489D01*
X137859047Y-85838815D01*
X137857928Y-85840089D01*
X137856751Y-85841309D01*
X137855519Y-85842474D01*
X137852903Y-85844637D01*
X137850103Y-85846569D01*
X137847144Y-85848262D01*
X137844051Y-85849709D01*
X137840846Y-85850899D01*
X137837556Y-85851827D01*
X137834205Y-85852483D01*
X137830815Y-85852859D01*
X137827413Y-85852948D01*
X137824023Y-85852740D01*
X137822339Y-85852523D01*
X137820668Y-85852229D01*
X137819011Y-85851856D01*
X137817373Y-85851405D01*
X137815755Y-85850873D01*
X137814162Y-85850260D01*
X136533416Y-85320404D01*
X136531864Y-85319716D01*
X136530372Y-85318961D01*
X136528940Y-85318141D01*
X136527570Y-85317258D01*
X136526261Y-85316316D01*
X136525016Y-85315318D01*
X136523836Y-85314265D01*
X136522720Y-85313161D01*
X136521670Y-85312007D01*
X136520687Y-85310808D01*
X136519772Y-85309565D01*
X136518926Y-85308282D01*
X136518150Y-85306960D01*
X136517444Y-85305603D01*
X136516810Y-85304213D01*
X136516249Y-85302793D01*
X136515761Y-85301345D01*
X136515348Y-85299873D01*
X136515010Y-85298379D01*
X136514749Y-85296865D01*
X136514564Y-85295334D01*
X136514459Y-85293790D01*
X136514432Y-85292234D01*
X136514485Y-85290669D01*
X136514619Y-85289098D01*
X136514836Y-85287524D01*
X136515135Y-85285950D01*
X136515518Y-85284377D01*
X136515987Y-85282809D01*
X136516540Y-85281248D01*
X136517181Y-85279697D01*
X136517909Y-85278159D01*
X136655129Y-85021170D01*
X136656739Y-85018115D01*
X136658116Y-85014867D01*
X136659260Y-85011456D01*
X136660173Y-85007910D01*
X136660855Y-85004258D01*
X136661306Y-85000528D01*
X136661527Y-84996750D01*
X136661518Y-84992951D01*
X136661281Y-84989161D01*
X136660814Y-84985409D01*
X136660120Y-84981723D01*
X136659199Y-84978132D01*
X136658051Y-84974665D01*
X136656676Y-84971350D01*
X136655075Y-84968216D01*
X136653250Y-84965293D01*
X136253199Y-84382551D01*
X136252280Y-84381118D01*
X136251433Y-84379642D01*
X136250657Y-84378127D01*
X136249952Y-84376576D01*
X136249318Y-84374992D01*
X136248754Y-84373379D01*
X136248261Y-84371740D01*
X136247838Y-84370078D01*
X136247200Y-84366700D01*
X136246838Y-84363269D01*
X136246751Y-84359812D01*
X136246935Y-84356355D01*
X136247389Y-84352925D01*
X136248110Y-84349547D01*
X136249096Y-84346248D01*
X136249688Y-84344636D01*
X136250345Y-84343053D01*
X136251067Y-84341503D01*
X136251854Y-84339989D01*
X136252705Y-84338515D01*
X136253620Y-84337083D01*
X136254600Y-84335696D01*
X136255643Y-84334359D01*
X136256749Y-84333073D01*
X136257918Y-84331844D01*
X136792718Y-83797036D01*
X136793962Y-83795854D01*
X136795260Y-83794736D01*
X136796609Y-83793682D01*
X136798007Y-83792692D01*
X136799449Y-83791767D01*
X136800934Y-83790907D01*
X136804015Y-83789384D01*
X136807224Y-83788124D01*
X136810535Y-83787130D01*
X136813923Y-83786404D01*
X136817361Y-83785948D01*
X136820824Y-83785766D01*
X136824286Y-83785859D01*
X136827720Y-83786229D01*
X136831101Y-83786879D01*
X136834403Y-83787812D01*
X136836017Y-83788384D01*
X136837601Y-83789028D01*
X136839152Y-83789744D01*
X136840667Y-83790532D01*
X136842143Y-83791392D01*
X136843577Y-83792325D01*
X137436876Y-84199419D01*
X137439818Y-84201244D01*
X137442978Y-84202871D01*
X137446328Y-84204296D01*
X137449838Y-84205519D01*
X137453481Y-84206538D01*
X137457226Y-84207349D01*
X137461045Y-84207951D01*
X137464908Y-84208343D01*
X137468787Y-84208520D01*
X137472654Y-84208483D01*
X137476478Y-84208228D01*
X137480231Y-84207754D01*
X137483883Y-84207057D01*
X137487407Y-84206137D01*
X137490773Y-84204991D01*
X137493951Y-84203617D01*
X138053021Y-83979885D01*
X138056271Y-83978691D01*
X138059493Y-83977202D01*
X138062668Y-83975440D01*
X138065775Y-83973426D01*
X138068795Y-83971182D01*
X138071709Y-83968727D01*
X138074496Y-83966084D01*
X138077139Y-83963275D01*
X138079616Y-83960319D01*
X138081909Y-83957240D01*
X138083997Y-83954057D01*
X138085862Y-83950792D01*
X138087484Y-83947467D01*
X138088844Y-83944102D01*
X138089921Y-83940720D01*
X138090347Y-83939028D01*
X138090696Y-83937340D01*
X138224097Y-83220677D01*
X138224442Y-83219009D01*
X138224869Y-83217361D01*
X138225376Y-83215737D01*
X138225962Y-83214138D01*
X138226622Y-83212566D01*
X138227355Y-83211024D01*
X138228158Y-83209512D01*
X138229029Y-83208035D01*
X138229964Y-83206593D01*
X138230961Y-83205189D01*
X138233131Y-83202502D01*
X138235519Y-83199991D01*
X138238103Y-83197674D01*
X138240863Y-83195566D01*
X138243777Y-83193685D01*
X138246825Y-83192047D01*
X138249987Y-83190669D01*
X138251603Y-83190083D01*
X138253240Y-83189568D01*
X138254895Y-83189127D01*
X138256565Y-83188761D01*
X138258248Y-83188473D01*
X138259940Y-83188265D01*
X138261640Y-83188138D01*
X138263345Y-83188095D01*
X139019706Y-83188020D01*
X139021423Y-83188055D01*
G37*
D11*
X136826724Y-75803297D02*
X136846481Y-75804713D01*
X136866166Y-75807074D01*
X136885740Y-75810378D01*
X136905168Y-75814627D01*
X136924412Y-75819820D01*
X136943437Y-75825958D01*
X136962204Y-75833039D01*
X136980679Y-75841065D01*
X136998823Y-75850035D01*
X137016601Y-75859949D01*
X137033976Y-75870807D01*
X137050910Y-75882610D01*
X137067368Y-75895357D01*
X137083312Y-75909048D01*
X137098707Y-75923683D01*
X139592592Y-78417567D01*
X139607227Y-78432962D01*
X139620918Y-78448906D01*
X139633664Y-78465364D01*
X139645467Y-78482298D01*
X139656325Y-78499673D01*
X139666239Y-78517450D01*
X139675209Y-78535595D01*
X139683235Y-78554069D01*
X139690317Y-78572837D01*
X139696454Y-78591861D01*
X139701647Y-78611106D01*
X139705896Y-78630533D01*
X139709201Y-78650108D01*
X139711561Y-78669792D01*
X139712978Y-78689550D01*
X139713450Y-78709344D01*
X139712978Y-78729139D01*
X139711561Y-78748896D01*
X139709201Y-78768581D01*
X139705896Y-78788155D01*
X139701647Y-78807583D01*
X139696454Y-78826827D01*
X139690317Y-78845851D01*
X139683235Y-78864619D01*
X139675209Y-78883094D01*
X139666239Y-78901238D01*
X139656325Y-78919016D01*
X139645467Y-78936390D01*
X139633664Y-78953325D01*
X139620918Y-78969782D01*
X139607227Y-78985727D01*
X139592592Y-79001121D01*
X137098707Y-81495006D01*
X137083312Y-81509641D01*
X137067368Y-81523332D01*
X137050910Y-81536079D01*
X137033976Y-81547882D01*
X137016601Y-81558740D01*
X136998823Y-81568654D01*
X136980679Y-81577624D01*
X136962204Y-81585650D01*
X136943437Y-81592731D01*
X136924412Y-81598869D01*
X136905168Y-81604062D01*
X136885740Y-81608311D01*
X136866166Y-81611616D01*
X136846481Y-81613976D01*
X136826724Y-81615392D01*
X136806929Y-81615865D01*
X136787135Y-81615392D01*
X136767377Y-81613976D01*
X136747693Y-81611616D01*
X136728118Y-81608311D01*
X136708691Y-81604062D01*
X136689446Y-81598869D01*
X136670422Y-81592731D01*
X136651654Y-81585650D01*
X136633180Y-81577624D01*
X136615035Y-81568654D01*
X136597258Y-81558740D01*
X136579883Y-81547882D01*
X136562949Y-81536079D01*
X136546491Y-81523332D01*
X136530546Y-81509641D01*
X136515152Y-81495006D01*
X134021267Y-79001121D01*
X134006632Y-78985727D01*
X133992941Y-78969782D01*
X133980194Y-78953325D01*
X133968391Y-78936390D01*
X133957533Y-78919016D01*
X133947619Y-78901238D01*
X133938649Y-78883094D01*
X133930623Y-78864619D01*
X133923542Y-78845851D01*
X133917404Y-78826827D01*
X133912211Y-78807583D01*
X133907962Y-78788155D01*
X133904658Y-78768581D01*
X133902297Y-78748896D01*
X133900881Y-78729139D01*
X133900409Y-78709344D01*
X133900881Y-78689550D01*
X133902297Y-78669792D01*
X133904658Y-78650108D01*
X133907962Y-78630533D01*
X133912211Y-78611106D01*
X133917404Y-78591861D01*
X133923542Y-78572837D01*
X133930623Y-78554069D01*
X133938649Y-78535595D01*
X133947619Y-78517450D01*
X133957533Y-78499673D01*
X133968391Y-78482298D01*
X133980194Y-78465364D01*
X133992941Y-78448906D01*
X134006632Y-78432962D01*
X134021267Y-78417567D01*
X136515152Y-75923683D01*
X136530546Y-75909048D01*
X136546491Y-75895357D01*
X136562949Y-75882610D01*
X136579883Y-75870807D01*
X136597258Y-75859949D01*
X136615035Y-75850035D01*
X136633180Y-75841065D01*
X136651654Y-75833039D01*
X136670422Y-75825958D01*
X136689446Y-75819820D01*
X136708691Y-75814627D01*
X136728118Y-75810378D01*
X136747693Y-75807074D01*
X136767377Y-75804713D01*
X136787135Y-75803297D01*
X136806929Y-75802825D01*
X136826724Y-75803297D01*
D12*
X131631268Y-82628681D02*
X131629269Y-82622164D01*
X131627305Y-82615689D01*
X131625406Y-82609360D01*
X131623541Y-82603072D01*
X131621737Y-82596923D01*
X131619966Y-82590814D01*
X131618255Y-82584837D01*
X131616576Y-82578900D01*
X131614954Y-82573089D01*
X131613363Y-82567316D01*
X131611827Y-82561665D01*
X131610321Y-82556050D01*
X131608867Y-82550552D01*
X131607444Y-82545090D01*
X131606071Y-82539739D01*
X131604727Y-82534423D01*
X131603431Y-82529214D01*
X131602165Y-82524040D01*
X131600944Y-82518968D01*
X131599752Y-82513929D01*
X131598605Y-82508990D01*
X131597485Y-82504083D01*
X131596408Y-82499271D01*
X131595358Y-82494491D01*
X131594349Y-82489803D01*
X131593368Y-82485145D01*
X131592426Y-82480577D01*
X131591510Y-82476038D01*
X131590632Y-82471585D01*
X131589781Y-82467161D01*
X131588966Y-82462820D01*
X131588176Y-82458507D01*
X131587422Y-82454274D01*
X131586693Y-82450069D01*
X131585998Y-82445941D01*
X131585328Y-82441841D01*
X131584690Y-82437815D01*
X131584078Y-82433816D01*
X131583496Y-82429889D01*
X131582939Y-82425988D01*
X131582411Y-82422156D01*
X131581908Y-82418351D01*
X131581434Y-82414613D01*
X131580983Y-82410899D01*
X131580561Y-82407252D01*
X131580161Y-82403628D01*
X131579789Y-82400068D01*
X131579440Y-82396532D01*
X131579116Y-82393058D01*
X131578816Y-82389606D01*
X131578540Y-82386215D01*
X131578286Y-82382846D01*
X131578057Y-82379535D01*
X131577850Y-82376246D01*
X131577666Y-82373013D01*
X131577504Y-82369802D01*
X131577364Y-82366646D01*
X131577246Y-82363510D01*
X131577150Y-82360428D01*
X131577074Y-82357367D01*
X131577020Y-82354356D01*
X131576986Y-82351366D01*
X131576973Y-82348426D01*
X131576980Y-82345506D01*
X131577007Y-82342634D01*
X131577053Y-82339782D01*
X131577120Y-82336976D01*
X131577205Y-82334190D01*
X131577310Y-82331449D01*
X131577434Y-82328728D01*
X131577576Y-82326050D01*
X131577737Y-82323390D01*
X131577915Y-82320774D01*
X131578113Y-82318175D01*
X131578327Y-82315618D01*
X131578560Y-82313079D01*
X131578810Y-82310580D01*
X131579078Y-82308099D01*
X131579362Y-82305656D01*
X131579664Y-82303231D01*
X131579981Y-82300844D01*
X131580317Y-82298474D01*
X131580668Y-82296140D01*
X131581036Y-82293823D01*
X131581419Y-82291541D01*
X131581820Y-82289276D01*
X131582235Y-82287045D01*
X131582668Y-82284831D01*
X131583114Y-82282649D01*
X131583578Y-82280484D01*
X131584055Y-82278351D01*
X131584549Y-82276234D01*
X131585056Y-82274147D01*
X131585581Y-82272077D01*
X131586118Y-82270036D01*
X131586672Y-82268011D01*
X131587239Y-82266016D01*
X131587823Y-82264035D01*
X131588419Y-82262082D01*
X131589031Y-82260145D01*
X131589656Y-82258235D01*
X131590297Y-82256339D01*
X131590951Y-82254470D01*
X131591620Y-82252616D01*
X131592302Y-82250787D01*
X131592999Y-82248973D01*
X131593709Y-82247183D01*
X131594434Y-82245407D01*
X131595172Y-82243656D01*
X131595925Y-82241918D01*
X131596690Y-82240204D01*
X131597470Y-82238503D01*
X131598263Y-82236825D01*
X131599071Y-82235161D01*
X131599891Y-82233518D01*
X131600727Y-82231889D01*
X131601574Y-82230281D01*
X131602437Y-82228686D01*
X131603312Y-82227111D01*
X131604202Y-82225550D01*
X131605104Y-82224009D01*
X131606022Y-82222480D01*
X131606952Y-82220971D01*
X131607897Y-82219474D01*
X131608854Y-82217996D01*
X131609827Y-82216531D01*
X131610812Y-82215083D01*
X131611812Y-82213649D01*
X131612825Y-82212232D01*
X131613853Y-82210827D01*
X131614895Y-82209439D01*
X131615951Y-82208064D01*
X131617021Y-82206705D01*
X131618105Y-82205358D01*
X131619204Y-82204027D01*
X131620317Y-82202709D01*
X131621444Y-82201406D01*
X131622587Y-82200115D01*
X131623744Y-82198839D01*
X131624916Y-82197576D01*
X131626102Y-82196326D01*
X131627304Y-82195090D01*
X131628520Y-82193866D01*
X131629752Y-82192656D01*
X131631000Y-82191459D01*
X131632263Y-82190274D01*
X131634835Y-82187944D01*
X131637472Y-82185664D01*
X131640173Y-82183434D01*
X131642940Y-82181253D01*
X131645774Y-82179122D01*
X131648677Y-82177039D01*
X131651650Y-82175004D01*
X131654695Y-82173018D01*
X131657813Y-82171079D01*
X131661006Y-82169188D01*
X131664275Y-82167346D01*
X131667623Y-82165551D01*
X131671051Y-82163804D01*
X131674561Y-82162106D01*
X131678154Y-82160456D01*
X131681834Y-82158854D01*
X131685602Y-82157302D01*
X131689460Y-82155800D01*
X131693410Y-82154348D01*
X131697455Y-82152947D01*
X131701597Y-82151597D01*
X131705838Y-82150299D01*
X131710181Y-82149053D01*
X131714628Y-82147862D01*
X131719182Y-82146725D01*
X131723845Y-82145644D01*
X131728620Y-82144619D01*
X131733510Y-82143651D01*
X131738517Y-82142742D01*
X131743645Y-82141893D01*
X131748896Y-82141105D01*
X131754273Y-82140379D01*
X131759779Y-82139717D01*
X131765418Y-82139120D01*
X131771193Y-82138589D01*
X131777106Y-82138126D01*
X131783161Y-82137732D01*
X131789362Y-82137410D01*
X131795713Y-82137160D01*
X131802215Y-82136985D01*
X131808874Y-82136885D01*
X131815693Y-82136864D01*
X131822676Y-82136923D01*
X131827932Y-82137018D01*
D13*
X133278334Y-88331954D02*
X134237073Y-87422380D01*
D12*
X131754183Y-88725283D02*
X131756355Y-88715984D01*
X131758986Y-88704482D01*
X131762575Y-88688520D01*
X131764710Y-88678891D01*
X131767064Y-88668178D01*
X131769629Y-88656389D01*
X131772399Y-88643537D01*
X131775366Y-88629630D01*
X131778524Y-88614678D01*
X131781865Y-88598693D01*
X131785383Y-88581683D01*
X131789072Y-88563659D01*
X131792922Y-88544631D01*
X131796929Y-88524610D01*
X131801085Y-88503605D01*
X131805383Y-88481627D01*
X131809817Y-88458685D01*
X131814378Y-88434790D01*
X131819061Y-88409952D01*
X131823858Y-88384180D01*
X131828763Y-88357486D01*
X131833768Y-88329879D01*
X131838866Y-88301369D01*
X131844052Y-88271967D01*
X131849317Y-88241682D01*
X131854655Y-88210525D01*
X131857349Y-88194622D01*
X131860058Y-88178505D01*
X131862783Y-88162176D01*
X131865521Y-88145634D01*
X131868272Y-88128882D01*
X131871036Y-88111920D01*
X131873810Y-88094751D01*
X131876595Y-88077375D01*
X131879390Y-88059793D01*
X131882193Y-88042008D01*
X131885004Y-88024019D01*
X131887822Y-88005829D01*
X131890646Y-87987438D01*
X131893475Y-87968849D01*
X131896309Y-87950061D01*
X131899146Y-87931077D01*
X131901986Y-87911897D01*
X131904827Y-87892524D01*
X131907669Y-87872957D01*
X131910512Y-87853199D01*
X131913353Y-87833251D01*
X131916193Y-87813114D01*
X131919030Y-87792789D01*
X131921863Y-87772278D01*
X131924693Y-87751581D01*
X131927517Y-87730701D01*
X131930335Y-87709637D01*
X131933146Y-87688393D01*
X131935949Y-87666968D01*
X131938744Y-87645364D01*
X131941529Y-87623583D01*
X131944304Y-87601625D01*
X131947067Y-87579492D01*
X131949819Y-87557186D01*
X131952557Y-87534707D01*
X131955281Y-87512056D01*
X131957991Y-87489236D01*
X131960685Y-87466247D01*
X131963363Y-87443090D01*
X131966023Y-87419767D01*
X131968666Y-87396279D01*
X131971289Y-87372627D01*
X131973892Y-87348813D01*
X131976474Y-87324837D01*
X131979035Y-87300702D01*
X131981573Y-87276408D01*
X131984088Y-87251957D01*
X131986579Y-87227349D01*
X131989044Y-87202587D01*
X131991484Y-87177671D01*
X131993897Y-87152603D01*
X131996281Y-87127384D01*
X131998638Y-87102015D01*
X132000965Y-87076497D01*
X132003261Y-87050832D01*
X132005527Y-87025021D01*
X132007760Y-86999065D01*
X132009960Y-86972966D01*
X132012127Y-86946725D01*
X132014259Y-86920343D01*
X132016355Y-86893820D01*
X132018415Y-86867160D01*
X132020438Y-86840362D01*
X132022423Y-86813429D01*
X132024369Y-86786361D01*
X132026275Y-86759159D01*
X132028140Y-86731826D01*
X132029963Y-86704361D01*
X132031744Y-86676767D01*
X132033482Y-86649045D01*
X132035176Y-86621195D01*
X132036824Y-86593220D01*
X132038427Y-86565121D01*
X132039983Y-86536898D01*
X132041491Y-86508553D01*
X132042951Y-86480087D01*
X132044361Y-86451502D01*
X132045721Y-86422799D01*
X132047030Y-86393979D01*
X132048287Y-86365043D01*
X132049491Y-86335993D01*
X132050642Y-86306829D01*
X132051738Y-86277554D01*
X132052778Y-86248168D01*
X132053762Y-86218673D01*
X132054689Y-86189070D01*
X132055558Y-86159359D01*
X132056368Y-86129544D01*
X132057118Y-86099624D01*
X132057808Y-86069601D01*
X132058436Y-86039476D01*
X132059001Y-86009251D01*
X132059504Y-85978927D01*
X132059942Y-85948504D01*
X132060315Y-85917985D01*
X132060623Y-85887371D01*
X132060864Y-85856662D01*
X132061037Y-85825860D01*
X132061142Y-85794967D01*
X132061177Y-85763984D01*
X132061142Y-85732911D01*
X132061037Y-85701750D01*
X132060859Y-85670503D01*
X132060609Y-85639171D01*
X132060284Y-85607754D01*
X132059886Y-85576255D01*
X132059412Y-85544674D01*
X132058862Y-85513013D01*
X132058234Y-85481273D01*
X132057529Y-85449455D01*
X132056745Y-85417561D01*
X132055881Y-85385592D01*
X132054937Y-85353548D01*
X132053911Y-85321432D01*
X132053367Y-85305348D01*
X132052803Y-85289245D01*
X132052218Y-85273125D01*
X132051612Y-85256987D01*
X132050985Y-85240833D01*
X132050336Y-85224661D01*
X132049667Y-85208472D01*
X132048976Y-85192267D01*
X132048264Y-85176045D01*
X132047530Y-85159806D01*
X132046775Y-85143552D01*
X132045998Y-85127281D01*
X132045199Y-85110994D01*
X132044378Y-85094692D01*
X132043534Y-85078373D01*
X132042669Y-85062040D01*
X132041781Y-85045691D01*
X132040871Y-85029327D01*
X132039939Y-85012947D01*
X132038984Y-84996553D01*
X132038006Y-84980145D01*
X132037005Y-84963721D01*
X132035981Y-84947284D01*
X132034934Y-84930832D01*
X132033864Y-84914366D01*
X132032771Y-84897886D01*
X132031654Y-84881393D01*
X132030514Y-84864886D01*
X132029350Y-84848365D01*
X132028163Y-84831831D01*
X132026951Y-84815284D01*
X132025716Y-84798724D01*
X132024457Y-84782152D01*
X132023173Y-84765567D01*
X132021866Y-84748969D01*
X132020534Y-84732359D01*
X132019177Y-84715736D01*
X132017796Y-84699102D01*
X132016390Y-84682456D01*
X132014959Y-84665798D01*
X132013504Y-84649129D01*
X132012023Y-84632448D01*
X132010518Y-84615756D01*
X132008987Y-84599053D01*
X132007430Y-84582339D01*
X132005849Y-84565615D01*
X132004241Y-84548880D01*
X132002609Y-84532134D01*
X132000950Y-84515378D01*
X131999265Y-84498612D01*
X131997555Y-84481836D01*
X131995818Y-84465051D01*
X131994055Y-84448255D01*
X131992266Y-84431450D01*
X131990450Y-84414636D01*
X131988608Y-84397813D01*
X131986739Y-84380981D01*
X131984844Y-84364140D01*
X131982922Y-84347290D01*
X131980972Y-84330431D01*
X131978996Y-84313565D01*
X131976992Y-84296690D01*
X131974961Y-84279807D01*
X131972903Y-84262916D01*
X131970817Y-84246017D01*
X131968704Y-84229111D01*
X131966563Y-84212198D01*
X131964394Y-84195277D01*
X131962197Y-84178349D01*
X131959972Y-84161414D01*
X131957719Y-84144472D01*
X131955437Y-84127524D01*
X131953127Y-84110569D01*
X131950789Y-84093608D01*
X131948422Y-84076641D01*
X131946027Y-84059667D01*
X131943602Y-84042688D01*
X131941149Y-84025704D01*
X131938667Y-84008713D01*
X131936156Y-83991718D01*
X131933615Y-83974717D01*
X131931045Y-83957711D01*
X131928446Y-83940700D01*
X131925816Y-83923684D01*
X131923158Y-83906664D01*
X131920469Y-83889640D01*
X131917751Y-83872611D01*
X131915003Y-83855578D01*
X131912224Y-83838541D01*
X131909416Y-83821501D01*
X131906577Y-83804456D01*
X131903707Y-83787409D01*
X131900807Y-83770358D01*
X131897877Y-83753303D01*
X131894915Y-83736246D01*
X131891923Y-83719186D01*
X131888900Y-83702124D01*
X131885845Y-83685058D01*
X131882760Y-83667991D01*
X131879643Y-83650921D01*
X131876495Y-83633849D01*
X131873315Y-83616776D01*
X131870104Y-83599700D01*
X131866861Y-83582623D01*
X131863586Y-83565545D01*
X131860279Y-83548465D01*
X131856940Y-83531384D01*
X131853569Y-83514303D01*
X131850166Y-83497220D01*
X131846730Y-83480137D01*
X131843262Y-83463053D01*
X131839761Y-83445970D01*
X131836228Y-83428886D01*
X131832662Y-83411802D01*
X131829062Y-83394718D01*
X131825430Y-83377634D01*
X131821765Y-83360551D01*
X131818066Y-83343469D01*
X131814334Y-83326387D01*
X131810569Y-83309307D01*
X131806770Y-83292227D01*
X131802937Y-83275149D01*
X131799071Y-83258072D01*
X131795170Y-83240997D01*
X131791236Y-83223923D01*
X131787267Y-83206852D01*
X131783265Y-83189782D01*
X131779228Y-83172715D01*
X131775156Y-83155650D01*
X131771050Y-83138588D01*
X131766909Y-83121528D01*
X131762734Y-83104471D01*
X131758524Y-83087417D01*
X131754278Y-83070367D01*
X131749998Y-83053319D01*
X131745682Y-83036276D01*
X131741331Y-83019235D01*
X131736945Y-83002199D01*
X131732523Y-82985167D01*
X131728066Y-82968138D01*
X131723573Y-82951114D01*
X131719044Y-82934095D01*
X131714479Y-82917080D01*
X131709878Y-82900070D01*
X131705240Y-82883064D01*
X131700567Y-82866064D01*
X131695857Y-82849069D01*
X131691111Y-82832079D01*
X131686328Y-82815095D01*
X131681508Y-82798117D01*
X131676651Y-82781144D01*
X131671758Y-82764178D01*
X131666827Y-82747217D01*
X131661860Y-82730263D01*
X131656855Y-82713316D01*
X131651813Y-82696375D01*
X131646733Y-82679441D01*
X131641616Y-82662514D01*
X131636461Y-82645594D01*
X131631268Y-82628681D01*
D13*
X133376665Y-84988582D02*
X134237073Y-84054425D01*
X134237073Y-84054425D02*
X133302916Y-83169434D01*
X134237073Y-87422380D02*
X133352083Y-86463639D01*
D14*
X138065519Y-75618830D02*
X138093537Y-75630308D01*
X138120909Y-75649125D01*
X138147641Y-75674769D01*
X138173741Y-75706727D01*
X138199214Y-75744488D01*
X138248309Y-75835368D01*
X138294984Y-75943311D01*
X138339292Y-76064221D01*
X138381290Y-76193998D01*
X138421032Y-76328547D01*
X138558551Y-76832499D01*
X138587844Y-76929440D01*
X138615214Y-77006566D01*
X138640715Y-77059780D01*
X138652782Y-77076139D01*
X138664402Y-77084985D01*
X138664402Y-77084986D01*
X138664401Y-77084986D01*
X138785163Y-77129970D01*
X138915613Y-77165117D01*
X139054771Y-77190296D01*
X139201654Y-77205379D01*
X139355280Y-77210234D01*
X139514668Y-77204734D01*
X139678837Y-77188746D01*
X139846804Y-77162142D01*
X140017588Y-77124792D01*
X140190207Y-77076565D01*
X140363680Y-77017333D01*
X140537025Y-76946964D01*
X140709259Y-76865330D01*
X140879402Y-76772299D01*
X141046472Y-76667743D01*
X141209487Y-76551532D01*
X141267910Y-76522580D01*
X141323582Y-76525146D01*
X141376395Y-76557123D01*
X141426239Y-76616403D01*
X141473007Y-76700879D01*
X141516589Y-76808445D01*
X141593762Y-77084415D01*
X141656889Y-77427457D01*
X141705102Y-77820714D01*
X141737530Y-78247330D01*
X141753306Y-78690447D01*
X141751559Y-79133211D01*
X141731421Y-79558763D01*
X141692022Y-79950247D01*
X141632494Y-80290807D01*
X141594910Y-80436723D01*
X141551967Y-80563586D01*
X141503557Y-80669290D01*
X141449572Y-80751728D01*
X141389903Y-80808792D01*
X141324440Y-80838375D01*
X141253076Y-80838371D01*
X141175702Y-80806672D01*
X141023288Y-80717830D01*
X140872285Y-80635405D01*
X140722529Y-80559838D01*
X140573858Y-80491570D01*
X140426108Y-80431041D01*
X140279115Y-80378694D01*
X140132718Y-80334970D01*
X139986753Y-80300309D01*
X139841057Y-80275152D01*
X139695467Y-80259941D01*
X139549819Y-80255117D01*
X139403951Y-80261120D01*
X139257700Y-80278393D01*
X139110902Y-80307375D01*
X138963394Y-80348509D01*
X138815014Y-80402235D01*
X138803534Y-80410927D01*
X138790311Y-80428067D01*
X138758904Y-80485416D01*
X138721320Y-80569735D01*
X138678091Y-80676478D01*
X138459294Y-81236754D01*
X138395772Y-81387416D01*
X138329779Y-81533222D01*
X138261845Y-81669625D01*
X138192499Y-81792079D01*
X138122271Y-81896037D01*
X138086991Y-81939659D01*
X138051688Y-81976952D01*
X138016430Y-82007348D01*
X137981282Y-82030278D01*
X137946310Y-82045175D01*
X137911581Y-82051469D01*
X137894909Y-82049328D01*
X137878041Y-82041311D01*
X137843818Y-82008432D01*
X137809108Y-81954405D01*
X137774111Y-81880803D01*
X137739024Y-81789198D01*
X137704045Y-81681165D01*
X137635207Y-81422102D01*
X137569180Y-81116199D01*
X137507550Y-80776039D01*
X137451904Y-80414207D01*
X137403824Y-80043286D01*
X137394236Y-79955018D01*
X137383875Y-79846905D01*
X137373758Y-79728435D01*
X137364899Y-79609093D01*
X137358316Y-79498368D01*
X137355023Y-79405746D01*
X137354929Y-79369188D01*
X137356038Y-79340713D01*
X137358478Y-79321507D01*
X137360236Y-79315751D01*
X137362375Y-79312756D01*
X137374770Y-79303604D01*
X137386974Y-79292931D01*
X137410758Y-79267341D01*
X137433629Y-79236625D01*
X137455483Y-79201418D01*
X137476222Y-79162359D01*
X137495743Y-79120084D01*
X137513946Y-79075230D01*
X137530729Y-79028434D01*
X137545993Y-78980334D01*
X137559636Y-78931565D01*
X137571556Y-78882766D01*
X137581654Y-78834573D01*
X137589828Y-78787623D01*
X137595977Y-78742553D01*
X137600000Y-78700000D01*
X137601797Y-78660601D01*
X137601264Y-78628543D01*
X137598632Y-78596016D01*
X137593992Y-78563148D01*
X137587438Y-78530063D01*
X137579061Y-78496889D01*
X137568956Y-78463752D01*
X137557213Y-78430776D01*
X137543927Y-78398088D01*
X137529188Y-78365815D01*
X137513091Y-78334081D01*
X137495726Y-78303013D01*
X137477188Y-78272738D01*
X137457568Y-78243380D01*
X137436959Y-78215067D01*
X137415454Y-78187923D01*
X137393145Y-78162076D01*
X137387905Y-78155428D01*
X137383260Y-78147829D01*
X137379184Y-78139340D01*
X137375650Y-78130023D01*
X137372631Y-78119938D01*
X137370102Y-78109147D01*
X137366406Y-78085689D01*
X137364349Y-78060140D01*
X137363720Y-78032987D01*
X137364307Y-78004721D01*
X137365899Y-77975829D01*
X137371248Y-77918127D01*
X137378076Y-77863793D01*
X137389391Y-77780878D01*
X137434242Y-77413023D01*
X137460655Y-77225774D01*
X137489702Y-77039125D01*
X137521363Y-76855191D01*
X137555619Y-76676083D01*
X137592453Y-76503914D01*
X137631846Y-76340797D01*
X137673778Y-76188843D01*
X137718231Y-76050166D01*
X137765187Y-75926878D01*
X137789597Y-75871664D01*
X137814626Y-75821090D01*
X137840272Y-75775420D01*
X137866531Y-75734917D01*
X137893401Y-75699846D01*
X137920881Y-75670470D01*
X137948968Y-75647054D01*
X137977659Y-75629861D01*
X138006953Y-75619156D01*
X138036846Y-75615204D01*
X138065519Y-75618830D01*
G36*
X138065519Y-75618830D02*
G01*
X138093537Y-75630308D01*
X138120909Y-75649125D01*
X138147641Y-75674769D01*
X138173741Y-75706727D01*
X138199214Y-75744488D01*
X138248309Y-75835368D01*
X138294984Y-75943311D01*
X138339292Y-76064221D01*
X138381290Y-76193998D01*
X138421032Y-76328547D01*
X138558551Y-76832499D01*
X138587844Y-76929440D01*
X138615214Y-77006566D01*
X138640715Y-77059780D01*
X138652782Y-77076139D01*
X138664402Y-77084985D01*
X138664402Y-77084986D01*
X138664401Y-77084986D01*
X138785163Y-77129970D01*
X138915613Y-77165117D01*
X139054771Y-77190296D01*
X139201654Y-77205379D01*
X139355280Y-77210234D01*
X139514668Y-77204734D01*
X139678837Y-77188746D01*
X139846804Y-77162142D01*
X140017588Y-77124792D01*
X140190207Y-77076565D01*
X140363680Y-77017333D01*
X140537025Y-76946964D01*
X140709259Y-76865330D01*
X140879402Y-76772299D01*
X141046472Y-76667743D01*
X141209487Y-76551532D01*
X141267910Y-76522580D01*
X141323582Y-76525146D01*
X141376395Y-76557123D01*
X141426239Y-76616403D01*
X141473007Y-76700879D01*
X141516589Y-76808445D01*
X141593762Y-77084415D01*
X141656889Y-77427457D01*
X141705102Y-77820714D01*
X141737530Y-78247330D01*
X141753306Y-78690447D01*
X141751559Y-79133211D01*
X141731421Y-79558763D01*
X141692022Y-79950247D01*
X141632494Y-80290807D01*
X141594910Y-80436723D01*
X141551967Y-80563586D01*
X141503557Y-80669290D01*
X141449572Y-80751728D01*
X141389903Y-80808792D01*
X141324440Y-80838375D01*
X141253076Y-80838371D01*
X141175702Y-80806672D01*
X141023288Y-80717830D01*
X140872285Y-80635405D01*
X140722529Y-80559838D01*
X140573858Y-80491570D01*
X140426108Y-80431041D01*
X140279115Y-80378694D01*
X140132718Y-80334970D01*
X139986753Y-80300309D01*
X139841057Y-80275152D01*
X139695467Y-80259941D01*
X139549819Y-80255117D01*
X139403951Y-80261120D01*
X139257700Y-80278393D01*
X139110902Y-80307375D01*
X138963394Y-80348509D01*
X138815014Y-80402235D01*
X138803534Y-80410927D01*
X138790311Y-80428067D01*
X138758904Y-80485416D01*
X138721320Y-80569735D01*
X138678091Y-80676478D01*
X138459294Y-81236754D01*
X138395772Y-81387416D01*
X138329779Y-81533222D01*
X138261845Y-81669625D01*
X138192499Y-81792079D01*
X138122271Y-81896037D01*
X138086991Y-81939659D01*
X138051688Y-81976952D01*
X138016430Y-82007348D01*
X137981282Y-82030278D01*
X137946310Y-82045175D01*
X137911581Y-82051469D01*
X137894909Y-82049328D01*
X137878041Y-82041311D01*
X137843818Y-82008432D01*
X137809108Y-81954405D01*
X137774111Y-81880803D01*
X137739024Y-81789198D01*
X137704045Y-81681165D01*
X137635207Y-81422102D01*
X137569180Y-81116199D01*
X137507550Y-80776039D01*
X137451904Y-80414207D01*
X137403824Y-80043286D01*
X137394236Y-79955018D01*
X137383875Y-79846905D01*
X137373758Y-79728435D01*
X137364899Y-79609093D01*
X137358316Y-79498368D01*
X137355023Y-79405746D01*
X137354929Y-79369188D01*
X137356038Y-79340713D01*
X137358478Y-79321507D01*
X137360236Y-79315751D01*
X137362375Y-79312756D01*
X137374770Y-79303604D01*
X137386974Y-79292931D01*
X137410758Y-79267341D01*
X137433629Y-79236625D01*
X137455483Y-79201418D01*
X137476222Y-79162359D01*
X137495743Y-79120084D01*
X137513946Y-79075230D01*
X137530729Y-79028434D01*
X137545993Y-78980334D01*
X137559636Y-78931565D01*
X137571556Y-78882766D01*
X137581654Y-78834573D01*
X137589828Y-78787623D01*
X137595977Y-78742553D01*
X137600000Y-78700000D01*
X137601797Y-78660601D01*
X137601264Y-78628543D01*
X137598632Y-78596016D01*
X137593992Y-78563148D01*
X137587438Y-78530063D01*
X137579061Y-78496889D01*
X137568956Y-78463752D01*
X137557213Y-78430776D01*
X137543927Y-78398088D01*
X137529188Y-78365815D01*
X137513091Y-78334081D01*
X137495726Y-78303013D01*
X137477188Y-78272738D01*
X137457568Y-78243380D01*
X137436959Y-78215067D01*
X137415454Y-78187923D01*
X137393145Y-78162076D01*
X137387905Y-78155428D01*
X137383260Y-78147829D01*
X137379184Y-78139340D01*
X137375650Y-78130023D01*
X137372631Y-78119938D01*
X137370102Y-78109147D01*
X137366406Y-78085689D01*
X137364349Y-78060140D01*
X137363720Y-78032987D01*
X137364307Y-78004721D01*
X137365899Y-77975829D01*
X137371248Y-77918127D01*
X137378076Y-77863793D01*
X137389391Y-77780878D01*
X137434242Y-77413023D01*
X137460655Y-77225774D01*
X137489702Y-77039125D01*
X137521363Y-76855191D01*
X137555619Y-76676083D01*
X137592453Y-76503914D01*
X137631846Y-76340797D01*
X137673778Y-76188843D01*
X137718231Y-76050166D01*
X137765187Y-75926878D01*
X137789597Y-75871664D01*
X137814626Y-75821090D01*
X137840272Y-75775420D01*
X137866531Y-75734917D01*
X137893401Y-75699846D01*
X137920881Y-75670470D01*
X137948968Y-75647054D01*
X137977659Y-75629861D01*
X138006953Y-75619156D01*
X138036846Y-75615204D01*
X138065519Y-75618830D01*
G37*
X136155758Y-79256177D02*
X136178138Y-79263291D01*
X136198931Y-79275369D01*
X136279640Y-79334211D01*
X136315573Y-79359750D01*
X136349384Y-79382986D01*
X136381693Y-79404132D01*
X136413118Y-79423402D01*
X136444280Y-79441011D01*
X136475797Y-79457172D01*
X136508289Y-79472098D01*
X136542376Y-79486004D01*
X136578678Y-79499104D01*
X136617812Y-79511610D01*
X136660400Y-79523738D01*
X136707060Y-79535700D01*
X136758412Y-79547710D01*
X136815075Y-79559983D01*
X136821879Y-79563030D01*
X136829659Y-79569412D01*
X136838293Y-79578931D01*
X136847659Y-79591391D01*
X136868090Y-79624347D01*
X136889968Y-79666710D01*
X136912307Y-79716907D01*
X136934124Y-79773366D01*
X136954432Y-79834516D01*
X136972248Y-79898783D01*
X136986587Y-79964596D01*
X136996463Y-80030383D01*
X136999420Y-80062776D01*
X137000892Y-80094572D01*
X137000756Y-80125576D01*
X136998889Y-80155591D01*
X136995168Y-80184421D01*
X136989470Y-80211868D01*
X136981671Y-80237737D01*
X136971649Y-80261831D01*
X136959280Y-80283953D01*
X136944441Y-80303908D01*
X136927010Y-80321498D01*
X136906863Y-80336527D01*
X136906862Y-80336527D01*
X136819362Y-80398838D01*
X136745979Y-80465049D01*
X136685900Y-80534737D01*
X136638313Y-80607482D01*
X136602405Y-80682863D01*
X136577363Y-80760457D01*
X136562376Y-80839844D01*
X136556629Y-80920601D01*
X136559312Y-81002309D01*
X136569610Y-81084544D01*
X136586712Y-81166886D01*
X136609805Y-81248913D01*
X136638076Y-81330204D01*
X136670712Y-81410338D01*
X136745832Y-81565447D01*
X136828663Y-81710869D01*
X136912705Y-81843233D01*
X137058416Y-82055300D01*
X137107084Y-82128261D01*
X137130959Y-82174678D01*
X137131568Y-82186880D01*
X137123540Y-82191181D01*
X137106064Y-82187160D01*
X137078327Y-82174397D01*
X136901738Y-82106111D01*
X136734036Y-82028585D01*
X136575522Y-81942315D01*
X136426502Y-81847797D01*
X136287278Y-81745524D01*
X136158154Y-81635991D01*
X136039434Y-81519694D01*
X135931421Y-81397128D01*
X135834418Y-81268787D01*
X135748730Y-81135166D01*
X135710223Y-81066531D01*
X135674659Y-80996761D01*
X135642075Y-80925918D01*
X135612509Y-80854065D01*
X135586000Y-80781263D01*
X135562584Y-80707574D01*
X135542301Y-80633061D01*
X135525187Y-80557784D01*
X135511282Y-80481805D01*
X135500622Y-80405187D01*
X135493246Y-80327992D01*
X135489192Y-80250281D01*
X135489545Y-80211692D01*
X135492803Y-80171406D01*
X135498817Y-80129646D01*
X135507438Y-80086633D01*
X135531899Y-79997738D01*
X135564988Y-79906498D01*
X135605507Y-79814689D01*
X135652258Y-79724088D01*
X135704043Y-79636472D01*
X135759663Y-79553617D01*
X135817921Y-79477299D01*
X135877617Y-79409296D01*
X135937556Y-79351384D01*
X135967241Y-79326767D01*
X135996537Y-79305339D01*
X136025294Y-79287323D01*
X136053363Y-79272939D01*
X136080594Y-79262411D01*
X136106836Y-79255960D01*
X136131941Y-79253808D01*
X136155758Y-79256177D01*
G36*
X136155758Y-79256177D02*
G01*
X136178138Y-79263291D01*
X136198931Y-79275369D01*
X136279640Y-79334211D01*
X136315573Y-79359750D01*
X136349384Y-79382986D01*
X136381693Y-79404132D01*
X136413118Y-79423402D01*
X136444280Y-79441011D01*
X136475797Y-79457172D01*
X136508289Y-79472098D01*
X136542376Y-79486004D01*
X136578678Y-79499104D01*
X136617812Y-79511610D01*
X136660400Y-79523738D01*
X136707060Y-79535700D01*
X136758412Y-79547710D01*
X136815075Y-79559983D01*
X136821879Y-79563030D01*
X136829659Y-79569412D01*
X136838293Y-79578931D01*
X136847659Y-79591391D01*
X136868090Y-79624347D01*
X136889968Y-79666710D01*
X136912307Y-79716907D01*
X136934124Y-79773366D01*
X136954432Y-79834516D01*
X136972248Y-79898783D01*
X136986587Y-79964596D01*
X136996463Y-80030383D01*
X136999420Y-80062776D01*
X137000892Y-80094572D01*
X137000756Y-80125576D01*
X136998889Y-80155591D01*
X136995168Y-80184421D01*
X136989470Y-80211868D01*
X136981671Y-80237737D01*
X136971649Y-80261831D01*
X136959280Y-80283953D01*
X136944441Y-80303908D01*
X136927010Y-80321498D01*
X136906863Y-80336527D01*
X136906862Y-80336527D01*
X136819362Y-80398838D01*
X136745979Y-80465049D01*
X136685900Y-80534737D01*
X136638313Y-80607482D01*
X136602405Y-80682863D01*
X136577363Y-80760457D01*
X136562376Y-80839844D01*
X136556629Y-80920601D01*
X136559312Y-81002309D01*
X136569610Y-81084544D01*
X136586712Y-81166886D01*
X136609805Y-81248913D01*
X136638076Y-81330204D01*
X136670712Y-81410338D01*
X136745832Y-81565447D01*
X136828663Y-81710869D01*
X136912705Y-81843233D01*
X137058416Y-82055300D01*
X137107084Y-82128261D01*
X137130959Y-82174678D01*
X137131568Y-82186880D01*
X137123540Y-82191181D01*
X137106064Y-82187160D01*
X137078327Y-82174397D01*
X136901738Y-82106111D01*
X136734036Y-82028585D01*
X136575522Y-81942315D01*
X136426502Y-81847797D01*
X136287278Y-81745524D01*
X136158154Y-81635991D01*
X136039434Y-81519694D01*
X135931421Y-81397128D01*
X135834418Y-81268787D01*
X135748730Y-81135166D01*
X135710223Y-81066531D01*
X135674659Y-80996761D01*
X135642075Y-80925918D01*
X135612509Y-80854065D01*
X135586000Y-80781263D01*
X135562584Y-80707574D01*
X135542301Y-80633061D01*
X135525187Y-80557784D01*
X135511282Y-80481805D01*
X135500622Y-80405187D01*
X135493246Y-80327992D01*
X135489192Y-80250281D01*
X135489545Y-80211692D01*
X135492803Y-80171406D01*
X135498817Y-80129646D01*
X135507438Y-80086633D01*
X135531899Y-79997738D01*
X135564988Y-79906498D01*
X135605507Y-79814689D01*
X135652258Y-79724088D01*
X135704043Y-79636472D01*
X135759663Y-79553617D01*
X135817921Y-79477299D01*
X135877617Y-79409296D01*
X135937556Y-79351384D01*
X135967241Y-79326767D01*
X135996537Y-79305339D01*
X136025294Y-79287323D01*
X136053363Y-79272939D01*
X136080594Y-79262411D01*
X136106836Y-79255960D01*
X136131941Y-79253808D01*
X136155758Y-79256177D01*
G37*
D11*
X136847123Y-77929296D02*
X136886789Y-77932312D01*
X136925878Y-77937279D01*
X136964341Y-77944148D01*
X137002130Y-77952870D01*
X137039194Y-77963395D01*
X137075486Y-77975674D01*
X137110955Y-77989660D01*
X137145553Y-78005301D01*
X137179231Y-78022550D01*
X137211940Y-78041357D01*
X137243630Y-78061673D01*
X137274253Y-78083450D01*
X137303759Y-78106637D01*
X137332100Y-78131186D01*
X137359226Y-78157048D01*
X137385088Y-78184174D01*
X137409637Y-78212515D01*
X137432824Y-78242021D01*
X137454601Y-78272644D01*
X137474917Y-78304334D01*
X137493724Y-78337043D01*
X137510973Y-78370721D01*
X137526614Y-78405319D01*
X137540599Y-78440788D01*
X137552879Y-78477079D01*
X137563404Y-78514144D01*
X137572126Y-78551932D01*
X137578994Y-78590396D01*
X137583962Y-78629485D01*
X137586978Y-78669150D01*
X137587994Y-78709344D01*
X137586978Y-78749537D01*
X137583962Y-78789203D01*
X137578994Y-78828292D01*
X137572126Y-78866756D01*
X137563404Y-78904544D01*
X137552879Y-78941609D01*
X137540599Y-78977900D01*
X137526614Y-79013370D01*
X137510973Y-79047968D01*
X137493724Y-79081646D01*
X137474917Y-79114355D01*
X137454601Y-79146045D01*
X137432824Y-79176668D01*
X137409637Y-79206174D01*
X137385088Y-79234515D01*
X137359226Y-79261641D01*
X137332100Y-79287503D01*
X137303759Y-79312052D01*
X137274253Y-79335239D01*
X137243630Y-79357016D01*
X137211940Y-79377332D01*
X137179231Y-79396139D01*
X137145553Y-79413388D01*
X137110955Y-79429030D01*
X137075486Y-79443015D01*
X137039194Y-79455294D01*
X137002130Y-79465820D01*
X136964341Y-79474541D01*
X136925878Y-79481410D01*
X136886789Y-79486377D01*
X136847123Y-79489393D01*
X136806930Y-79490410D01*
X136766736Y-79489393D01*
X136727070Y-79486377D01*
X136687981Y-79481410D01*
X136649517Y-79474541D01*
X136611729Y-79465820D01*
X136574664Y-79455294D01*
X136538373Y-79443015D01*
X136502903Y-79429030D01*
X136468305Y-79413388D01*
X136434627Y-79396139D01*
X136401918Y-79377332D01*
X136370228Y-79357016D01*
X136339605Y-79335239D01*
X136310099Y-79312052D01*
X136281759Y-79287503D01*
X136254633Y-79261641D01*
X136228771Y-79234515D01*
X136204221Y-79206174D01*
X136181034Y-79176668D01*
X136159258Y-79146045D01*
X136138942Y-79114355D01*
X136120135Y-79081646D01*
X136102886Y-79047968D01*
X136087244Y-79013370D01*
X136073259Y-78977900D01*
X136060980Y-78941609D01*
X136050454Y-78904544D01*
X136041733Y-78866756D01*
X136034864Y-78828292D01*
X136029897Y-78789203D01*
X136026881Y-78749537D01*
X136025865Y-78709344D01*
X136026881Y-78669150D01*
X136029897Y-78629485D01*
X136034864Y-78590396D01*
X136041733Y-78551932D01*
X136050454Y-78514144D01*
X136060980Y-78477079D01*
X136073259Y-78440788D01*
X136087244Y-78405319D01*
X136102886Y-78370721D01*
X136120135Y-78337043D01*
X136138942Y-78304334D01*
X136159258Y-78272644D01*
X136181034Y-78242021D01*
X136204221Y-78212515D01*
X136228771Y-78184174D01*
X136254633Y-78157048D01*
X136281759Y-78131186D01*
X136310099Y-78106637D01*
X136339605Y-78083450D01*
X136370228Y-78061673D01*
X136401918Y-78041357D01*
X136434627Y-78022550D01*
X136468305Y-78005301D01*
X136502903Y-77989660D01*
X136538373Y-77975674D01*
X136574664Y-77963395D01*
X136611729Y-77952870D01*
X136649517Y-77944148D01*
X136687981Y-77937279D01*
X136727070Y-77932312D01*
X136766736Y-77929296D01*
X136806930Y-77928280D01*
X136847123Y-77929296D01*
D12*
X131827932Y-82137018D02*
X131837495Y-82137192D01*
X131851035Y-82137359D01*
X131871142Y-82137529D01*
X131897813Y-82137707D01*
X131923311Y-82137873D01*
X131951653Y-82138084D01*
X131982736Y-82138362D01*
X131999275Y-82138535D01*
X132016461Y-82138734D01*
X132034282Y-82138962D01*
X132052726Y-82139223D01*
X132071779Y-82139520D01*
X132091430Y-82139856D01*
X132111664Y-82140233D01*
X132132471Y-82140655D01*
X132153837Y-82141125D01*
X132175749Y-82141646D01*
X132198195Y-82142222D01*
X132221163Y-82142855D01*
X132244639Y-82143548D01*
X132268611Y-82144305D01*
X132293066Y-82145128D01*
X132317992Y-82146021D01*
X132343376Y-82146987D01*
X132369205Y-82148029D01*
X132395467Y-82149149D01*
X132422149Y-82150352D01*
X132449238Y-82151640D01*
X132476723Y-82153016D01*
X132504589Y-82154484D01*
X132532825Y-82156046D01*
X132561418Y-82157705D01*
X132575845Y-82158573D01*
X132590355Y-82159466D01*
X132604949Y-82160384D01*
X132619624Y-82161330D01*
X132634379Y-82162301D01*
X132649212Y-82163300D01*
X132664121Y-82164327D01*
X132679106Y-82165381D01*
X132694164Y-82166464D01*
X132709294Y-82167575D01*
X132724494Y-82168715D01*
X132739762Y-82169885D01*
X132755098Y-82171084D01*
X132770499Y-82172314D01*
X132785965Y-82173574D01*
X132801492Y-82174865D01*
X132817081Y-82176188D01*
X132832728Y-82177542D01*
X132848433Y-82178928D01*
X132864195Y-82180347D01*
X132880010Y-82181799D01*
X132895879Y-82183284D01*
X132911799Y-82184803D01*
X132927768Y-82186356D01*
X132943786Y-82187943D01*
X132959850Y-82189565D01*
X132975960Y-82191223D01*
X132992112Y-82192916D01*
X133008307Y-82194645D01*
X133024541Y-82196410D01*
X133040815Y-82198212D01*
X133057125Y-82200051D01*
X133073471Y-82201928D01*
X133089851Y-82203843D01*
X133106263Y-82205796D01*
X133122706Y-82207788D01*
X133139178Y-82209818D01*
X133155677Y-82211889D01*
X133172203Y-82213999D01*
X133188753Y-82216149D01*
X133205326Y-82218340D01*
X133221920Y-82220572D01*
X133238534Y-82222846D01*
X133255166Y-82225161D01*
X133271815Y-82227519D01*
X133288478Y-82229919D01*
X133305155Y-82232362D01*
X133321844Y-82234848D01*
X133338543Y-82237378D01*
X133355250Y-82239953D01*
X133371965Y-82242571D01*
X133388685Y-82245235D01*
X133405408Y-82247944D01*
X133422135Y-82250698D01*
X133438862Y-82253499D01*
X133455588Y-82256346D01*
X133472311Y-82259240D01*
X133489031Y-82262181D01*
X133505745Y-82265170D01*
X133522452Y-82268207D01*
X133539150Y-82271292D01*
X133555838Y-82274425D01*
X133572513Y-82277608D01*
X133589176Y-82280841D01*
X133605823Y-82284123D01*
X133622454Y-82287456D01*
X133639066Y-82290840D01*
X133655659Y-82294274D01*
X133672230Y-82297760D01*
X133688778Y-82301298D01*
X133705302Y-82304888D01*
X133721799Y-82308531D01*
X133738269Y-82312227D01*
X133754709Y-82315976D01*
X133771119Y-82319779D01*
X133787496Y-82323636D01*
X133803839Y-82327548D01*
X133820147Y-82331514D01*
X133836417Y-82335536D01*
X133852649Y-82339614D01*
X133868840Y-82343748D01*
X133884989Y-82347938D01*
X133901095Y-82352186D01*
X133917155Y-82356490D01*
X133933169Y-82360852D01*
X133949135Y-82365273D01*
X133965051Y-82369751D01*
X133980915Y-82374289D01*
X133996726Y-82378886D01*
X134012483Y-82383542D01*
X134028184Y-82388258D01*
X134043827Y-82393035D01*
X134059410Y-82397872D01*
X134074933Y-82402771D01*
X134090393Y-82407731D01*
X134105789Y-82412753D01*
X134113463Y-82415287D01*
X134121120Y-82417837D01*
X134128760Y-82420403D01*
X134136383Y-82422984D01*
X134143989Y-82425581D01*
X134151578Y-82428194D01*
X134159148Y-82430823D01*
X134166702Y-82433468D01*
X134174237Y-82436129D01*
X134181754Y-82438805D01*
X134189252Y-82441498D01*
X134196732Y-82444207D01*
X134204193Y-82446932D01*
X134211636Y-82449673D01*
X134219059Y-82452431D01*
X134226462Y-82455204D01*
X134233847Y-82457995D01*
X134241211Y-82460801D01*
X134248555Y-82463624D01*
X134255880Y-82466464D01*
X134263183Y-82469320D01*
X134270467Y-82472192D01*
X134277729Y-82475081D01*
X134284971Y-82477987D01*
X134292191Y-82480910D01*
X134299390Y-82483850D01*
X134306568Y-82486806D01*
X134313724Y-82489779D01*
X134320857Y-82492769D01*
X134327969Y-82495776D01*
X134335059Y-82498800D01*
X134342125Y-82501842D01*
X134349169Y-82504900D01*
X134356191Y-82507975D01*
X134363189Y-82511068D01*
X134370163Y-82514178D01*
X134377115Y-82517305D01*
X134384042Y-82520450D01*
X134390946Y-82523612D01*
X134397825Y-82526792D01*
X134404680Y-82529989D01*
X134411511Y-82533203D01*
X134418317Y-82536436D01*
X134425098Y-82539685D01*
X134431854Y-82542953D01*
X134438584Y-82546238D01*
X134445289Y-82549542D01*
X134451969Y-82552863D01*
X134458622Y-82556201D01*
X134465250Y-82559558D01*
X134471851Y-82562933D01*
X134478426Y-82566326D01*
X134484974Y-82569737D01*
X134491495Y-82573166D01*
X134497989Y-82576613D01*
X134504456Y-82580079D01*
X134510895Y-82583563D01*
X134517306Y-82587065D01*
X134523690Y-82590585D01*
X134530046Y-82594124D01*
X134536373Y-82597682D01*
X134542672Y-82601258D01*
X134548943Y-82604852D01*
X134555184Y-82608465D01*
X134561396Y-82612097D01*
X134567580Y-82615748D01*
X134573733Y-82619417D01*
X134579857Y-82623105D01*
X134585952Y-82626812D01*
X134592016Y-82630538D01*
X134598050Y-82634283D01*
X134604053Y-82638047D01*
X134610026Y-82641830D01*
X134615968Y-82645632D01*
X134621879Y-82649453D01*
X134627759Y-82653293D01*
X134633607Y-82657153D01*
X134639424Y-82661032D01*
X134645209Y-82664930D01*
X134650962Y-82668848D01*
X134656682Y-82672785D01*
X134662371Y-82676742D01*
X134668026Y-82680718D01*
X134673649Y-82684714D01*
X134679239Y-82688729D01*
X134684796Y-82692764D01*
X134690319Y-82696819D01*
X134695809Y-82700894D01*
X134701264Y-82704988D01*
X134706686Y-82709102D01*
X134712074Y-82713237D01*
X134717427Y-82717391D01*
X134722746Y-82721565D01*
X134728030Y-82725760D01*
X134733279Y-82729974D01*
X134738493Y-82734209D01*
X134743671Y-82738463D01*
X134748814Y-82742739D01*
X134753921Y-82747034D01*
X134758992Y-82751350D01*
X134764027Y-82755686D01*
X134769026Y-82760043D01*
X134773988Y-82764420D01*
X134778913Y-82768818D01*
X134783801Y-82773236D01*
X134788652Y-82777675D01*
X134793466Y-82782135D01*
X134798242Y-82786615D01*
X134802981Y-82791116D01*
X134807682Y-82795639D01*
X134812344Y-82800182D01*
X134816968Y-82804745D01*
X134821554Y-82809330D01*
X134826100Y-82813936D01*
X134830608Y-82818563D01*
X134835077Y-82823212D01*
X134839507Y-82827881D01*
X134843897Y-82832572D01*
X134848247Y-82837284D01*
X134852557Y-82842017D01*
X134856827Y-82846771D01*
X134861057Y-82851548D01*
X134865246Y-82856345D01*
X134869395Y-82861164D01*
X134873503Y-82866005D01*
X134877569Y-82870867D01*
X134881595Y-82875751D01*
X134885579Y-82880657D01*
X134889521Y-82885584D01*
X134893421Y-82890533D01*
X134897279Y-82895504D01*
X134901095Y-82900497D01*
X134904868Y-82905512D01*
X134908599Y-82910549D01*
X134912287Y-82915608D01*
X134915932Y-82920689D01*
X134919533Y-82925793D01*
X134923091Y-82930918D01*
X134926606Y-82936066D01*
X134930076Y-82941236D01*
X134933503Y-82946428D01*
X134936885Y-82951643D01*
X134940222Y-82956880D01*
X134943515Y-82962140D01*
X134946764Y-82967422D01*
X134949967Y-82972727D01*
X134953125Y-82978054D01*
X134956237Y-82983405D01*
X134959304Y-82988778D01*
X134962325Y-82994173D01*
X134965300Y-82999592D01*
X134968228Y-83005033D01*
X134971110Y-83010497D01*
X134973946Y-83015985D01*
X134976735Y-83021495D01*
X134979477Y-83027028D01*
X134982171Y-83032585D01*
X134984818Y-83038165D01*
X134987418Y-83043768D01*
X134989969Y-83049394D01*
X134992473Y-83055043D01*
X134994928Y-83060716D01*
X134997335Y-83066412D01*
X134999694Y-83072132D01*
X135002003Y-83077875D01*
X135004264Y-83083642D01*
X135006475Y-83089432D01*
X135008637Y-83095246D01*
X135010750Y-83101084D01*
X135012812Y-83106946D01*
X135014825Y-83112831D01*
X135016787Y-83118740D01*
X135018699Y-83124673D01*
X135020561Y-83130630D01*
X135022371Y-83136611D01*
X135024131Y-83142616D01*
X135025839Y-83148645D01*
X135027497Y-83154698D01*
X135029102Y-83160776D01*
X135030656Y-83166877D01*
X135032158Y-83173003D01*
X135033607Y-83179154D01*
X135035005Y-83185328D01*
X135036350Y-83191527D01*
X135037642Y-83197751D01*
X135038881Y-83203999D01*
X135040066Y-83210272D01*
X135041199Y-83216569D01*
X135042278Y-83222891D01*
X135043303Y-83229237D01*
X135044275Y-83235609D01*
X135045192Y-83242005D01*
X135046055Y-83248426D01*
X135046863Y-83254872D01*
X135047616Y-83261343D01*
X135048315Y-83267839D01*
D14*
X137131568Y-75263215D02*
X137130959Y-75275416D01*
X137107084Y-75321833D01*
X137058416Y-75394794D01*
X136912705Y-75606861D01*
X136828663Y-75739225D01*
X136745832Y-75884647D01*
X136670712Y-76039756D01*
X136638076Y-76119890D01*
X136609805Y-76201181D01*
X136586712Y-76283209D01*
X136569610Y-76365551D01*
X136559312Y-76447786D01*
X136556629Y-76529493D01*
X136562376Y-76610251D01*
X136577363Y-76689638D01*
X136602405Y-76767232D01*
X136638313Y-76842613D01*
X136685900Y-76915358D01*
X136745979Y-76985047D01*
X136819362Y-77051258D01*
X136906862Y-77113569D01*
X136906863Y-77113567D01*
X136927010Y-77128596D01*
X136944441Y-77146186D01*
X136959280Y-77166140D01*
X136971649Y-77188262D01*
X136981671Y-77212356D01*
X136989470Y-77238225D01*
X136995168Y-77265673D01*
X136998889Y-77294502D01*
X137000756Y-77324517D01*
X137000892Y-77355521D01*
X136999420Y-77387318D01*
X136996463Y-77419710D01*
X136986587Y-77485497D01*
X136972248Y-77551310D01*
X136954432Y-77615577D01*
X136934124Y-77676726D01*
X136912307Y-77733185D01*
X136889968Y-77783382D01*
X136868090Y-77825745D01*
X136847659Y-77858702D01*
X136838293Y-77871162D01*
X136829659Y-77880681D01*
X136821879Y-77887062D01*
X136815075Y-77890110D01*
X136758412Y-77902383D01*
X136707060Y-77914394D01*
X136660400Y-77926356D01*
X136617812Y-77938484D01*
X136578678Y-77950990D01*
X136542376Y-77964090D01*
X136508289Y-77977996D01*
X136475797Y-77992923D01*
X136444280Y-78009083D01*
X136413118Y-78026692D01*
X136381693Y-78045963D01*
X136349384Y-78067109D01*
X136315573Y-78090345D01*
X136279640Y-78115883D01*
X136198931Y-78174725D01*
X136178138Y-78186804D01*
X136155758Y-78193917D01*
X136131941Y-78196287D01*
X136106836Y-78194135D01*
X136080594Y-78187684D01*
X136053363Y-78177155D01*
X136025294Y-78162772D01*
X135996537Y-78144755D01*
X135967241Y-78123327D01*
X135937556Y-78098710D01*
X135877617Y-78040798D01*
X135817921Y-77972795D01*
X135759663Y-77896478D01*
X135704043Y-77813622D01*
X135652258Y-77726006D01*
X135605507Y-77635405D01*
X135564988Y-77543596D01*
X135531899Y-77452356D01*
X135507438Y-77363461D01*
X135498817Y-77320448D01*
X135492803Y-77278687D01*
X135489545Y-77238402D01*
X135489192Y-77199813D01*
X135493246Y-77122102D01*
X135500622Y-77044906D01*
X135511282Y-76968289D01*
X135525187Y-76892310D01*
X135542301Y-76817033D01*
X135562584Y-76742520D01*
X135586000Y-76668831D01*
X135612509Y-76596029D01*
X135642075Y-76524176D01*
X135674659Y-76453334D01*
X135710223Y-76383564D01*
X135748730Y-76314928D01*
X135834418Y-76181308D01*
X135931421Y-76052967D01*
X136039434Y-75930401D01*
X136158154Y-75814104D01*
X136287278Y-75704572D01*
X136426502Y-75602299D01*
X136575522Y-75507780D01*
X136734036Y-75421510D01*
X136901738Y-75343984D01*
X137078327Y-75275697D01*
X137106064Y-75262934D01*
X137123540Y-75258914D01*
X137131568Y-75263215D01*
G36*
X137131568Y-75263215D02*
G01*
X137130959Y-75275416D01*
X137107084Y-75321833D01*
X137058416Y-75394794D01*
X136912705Y-75606861D01*
X136828663Y-75739225D01*
X136745832Y-75884647D01*
X136670712Y-76039756D01*
X136638076Y-76119890D01*
X136609805Y-76201181D01*
X136586712Y-76283209D01*
X136569610Y-76365551D01*
X136559312Y-76447786D01*
X136556629Y-76529493D01*
X136562376Y-76610251D01*
X136577363Y-76689638D01*
X136602405Y-76767232D01*
X136638313Y-76842613D01*
X136685900Y-76915358D01*
X136745979Y-76985047D01*
X136819362Y-77051258D01*
X136906862Y-77113569D01*
X136906863Y-77113567D01*
X136927010Y-77128596D01*
X136944441Y-77146186D01*
X136959280Y-77166140D01*
X136971649Y-77188262D01*
X136981671Y-77212356D01*
X136989470Y-77238225D01*
X136995168Y-77265673D01*
X136998889Y-77294502D01*
X137000756Y-77324517D01*
X137000892Y-77355521D01*
X136999420Y-77387318D01*
X136996463Y-77419710D01*
X136986587Y-77485497D01*
X136972248Y-77551310D01*
X136954432Y-77615577D01*
X136934124Y-77676726D01*
X136912307Y-77733185D01*
X136889968Y-77783382D01*
X136868090Y-77825745D01*
X136847659Y-77858702D01*
X136838293Y-77871162D01*
X136829659Y-77880681D01*
X136821879Y-77887062D01*
X136815075Y-77890110D01*
X136758412Y-77902383D01*
X136707060Y-77914394D01*
X136660400Y-77926356D01*
X136617812Y-77938484D01*
X136578678Y-77950990D01*
X136542376Y-77964090D01*
X136508289Y-77977996D01*
X136475797Y-77992923D01*
X136444280Y-78009083D01*
X136413118Y-78026692D01*
X136381693Y-78045963D01*
X136349384Y-78067109D01*
X136315573Y-78090345D01*
X136279640Y-78115883D01*
X136198931Y-78174725D01*
X136178138Y-78186804D01*
X136155758Y-78193917D01*
X136131941Y-78196287D01*
X136106836Y-78194135D01*
X136080594Y-78187684D01*
X136053363Y-78177155D01*
X136025294Y-78162772D01*
X135996537Y-78144755D01*
X135967241Y-78123327D01*
X135937556Y-78098710D01*
X135877617Y-78040798D01*
X135817921Y-77972795D01*
X135759663Y-77896478D01*
X135704043Y-77813622D01*
X135652258Y-77726006D01*
X135605507Y-77635405D01*
X135564988Y-77543596D01*
X135531899Y-77452356D01*
X135507438Y-77363461D01*
X135498817Y-77320448D01*
X135492803Y-77278687D01*
X135489545Y-77238402D01*
X135489192Y-77199813D01*
X135493246Y-77122102D01*
X135500622Y-77044906D01*
X135511282Y-76968289D01*
X135525187Y-76892310D01*
X135542301Y-76817033D01*
X135562584Y-76742520D01*
X135586000Y-76668831D01*
X135612509Y-76596029D01*
X135642075Y-76524176D01*
X135674659Y-76453334D01*
X135710223Y-76383564D01*
X135748730Y-76314928D01*
X135834418Y-76181308D01*
X135931421Y-76052967D01*
X136039434Y-75930401D01*
X136158154Y-75814104D01*
X136287278Y-75704572D01*
X136426502Y-75602299D01*
X136575522Y-75507780D01*
X136734036Y-75421510D01*
X136901738Y-75343984D01*
X137078327Y-75275697D01*
X137106064Y-75262934D01*
X137123540Y-75258914D01*
X137131568Y-75263215D01*
G37*
D15*
X144094247Y-88767544D02*
X143284723Y-88767544D01*
X143284723Y-88767544D02*
X143189485Y-88815163D01*
X143189485Y-88815163D02*
X143141866Y-88862782D01*
X143141866Y-88862782D02*
X143094247Y-88958020D01*
X143094247Y-88958020D02*
X143094247Y-89100877D01*
X143094247Y-89100877D02*
X143141866Y-89196115D01*
X143475200Y-88767544D02*
X143427580Y-88862782D01*
X143427580Y-88862782D02*
X143427580Y-89053258D01*
X143427580Y-89053258D02*
X143475200Y-89148496D01*
X143475200Y-89148496D02*
X143522819Y-89196115D01*
X143522819Y-89196115D02*
X143618057Y-89243734D01*
X143618057Y-89243734D02*
X143903771Y-89243734D01*
X143903771Y-89243734D02*
X143999009Y-89196115D01*
X143999009Y-89196115D02*
X144046628Y-89148496D01*
X144046628Y-89148496D02*
X144094247Y-89053258D01*
X144094247Y-89053258D02*
X144094247Y-88862782D01*
X144094247Y-88862782D02*
X144046628Y-88767544D01*
X143427580Y-88291353D02*
X144094247Y-88291353D01*
X144427580Y-88291353D02*
X144379961Y-88338972D01*
X144379961Y-88338972D02*
X144332342Y-88291353D01*
X144332342Y-88291353D02*
X144379961Y-88243734D01*
X144379961Y-88243734D02*
X144427580Y-88291353D01*
X144427580Y-88291353D02*
X144332342Y-88291353D01*
X144094247Y-87958020D02*
X144094247Y-87577068D01*
X144427580Y-87815163D02*
X143570438Y-87815163D01*
X143570438Y-87815163D02*
X143475200Y-87767544D01*
X143475200Y-87767544D02*
X143427580Y-87672306D01*
X143427580Y-87672306D02*
X143427580Y-87577068D01*
X143427580Y-87243734D02*
X144427580Y-87243734D01*
X143427580Y-86815163D02*
X143951390Y-86815163D01*
X143951390Y-86815163D02*
X144046628Y-86862782D01*
X144046628Y-86862782D02*
X144094247Y-86958020D01*
X144094247Y-86958020D02*
X144094247Y-87100877D01*
X144094247Y-87100877D02*
X144046628Y-87196115D01*
X144046628Y-87196115D02*
X143999009Y-87243734D01*
X144094247Y-85910401D02*
X143427580Y-85910401D01*
X144094247Y-86338972D02*
X143570438Y-86338972D01*
X143570438Y-86338972D02*
X143475200Y-86291353D01*
X143475200Y-86291353D02*
X143427580Y-86196115D01*
X143427580Y-86196115D02*
X143427580Y-86053258D01*
X143427580Y-86053258D02*
X143475200Y-85958020D01*
X143475200Y-85958020D02*
X143522819Y-85910401D01*
X143427580Y-85434210D02*
X144427580Y-85434210D01*
X144046628Y-85434210D02*
X144094247Y-85338972D01*
X144094247Y-85338972D02*
X144094247Y-85148496D01*
X144094247Y-85148496D02*
X144046628Y-85053258D01*
X144046628Y-85053258D02*
X143999009Y-85005639D01*
X143999009Y-85005639D02*
X143903771Y-84958020D01*
X143903771Y-84958020D02*
X143618057Y-84958020D01*
X143618057Y-84958020D02*
X143522819Y-85005639D01*
X143522819Y-85005639D02*
X143475200Y-85053258D01*
X143475200Y-85053258D02*
X143427580Y-85148496D01*
X143427580Y-85148496D02*
X143427580Y-85338972D01*
X143427580Y-85338972D02*
X143475200Y-85434210D01*
X143522819Y-84529448D02*
X143475200Y-84481829D01*
X143475200Y-84481829D02*
X143427580Y-84529448D01*
X143427580Y-84529448D02*
X143475200Y-84577067D01*
X143475200Y-84577067D02*
X143522819Y-84529448D01*
X143522819Y-84529448D02*
X143427580Y-84529448D01*
X143475200Y-83624687D02*
X143427580Y-83719925D01*
X143427580Y-83719925D02*
X143427580Y-83910401D01*
X143427580Y-83910401D02*
X143475200Y-84005639D01*
X143475200Y-84005639D02*
X143522819Y-84053258D01*
X143522819Y-84053258D02*
X143618057Y-84100877D01*
X143618057Y-84100877D02*
X143903771Y-84100877D01*
X143903771Y-84100877D02*
X143999009Y-84053258D01*
X143999009Y-84053258D02*
X144046628Y-84005639D01*
X144046628Y-84005639D02*
X144094247Y-83910401D01*
X144094247Y-83910401D02*
X144094247Y-83719925D01*
X144094247Y-83719925D02*
X144046628Y-83624687D01*
X143427580Y-83053258D02*
X143475200Y-83148496D01*
X143475200Y-83148496D02*
X143522819Y-83196115D01*
X143522819Y-83196115D02*
X143618057Y-83243734D01*
X143618057Y-83243734D02*
X143903771Y-83243734D01*
X143903771Y-83243734D02*
X143999009Y-83196115D01*
X143999009Y-83196115D02*
X144046628Y-83148496D01*
X144046628Y-83148496D02*
X144094247Y-83053258D01*
X144094247Y-83053258D02*
X144094247Y-82910401D01*
X144094247Y-82910401D02*
X144046628Y-82815163D01*
X144046628Y-82815163D02*
X143999009Y-82767544D01*
X143999009Y-82767544D02*
X143903771Y-82719925D01*
X143903771Y-82719925D02*
X143618057Y-82719925D01*
X143618057Y-82719925D02*
X143522819Y-82767544D01*
X143522819Y-82767544D02*
X143475200Y-82815163D01*
X143475200Y-82815163D02*
X143427580Y-82910401D01*
X143427580Y-82910401D02*
X143427580Y-83053258D01*
X143427580Y-82291353D02*
X144094247Y-82291353D01*
X143999009Y-82291353D02*
X144046628Y-82243734D01*
X144046628Y-82243734D02*
X144094247Y-82148496D01*
X144094247Y-82148496D02*
X144094247Y-82005639D01*
X144094247Y-82005639D02*
X144046628Y-81910401D01*
X144046628Y-81910401D02*
X143951390Y-81862782D01*
X143951390Y-81862782D02*
X143427580Y-81862782D01*
X143951390Y-81862782D02*
X144046628Y-81815163D01*
X144046628Y-81815163D02*
X144094247Y-81719925D01*
X144094247Y-81719925D02*
X144094247Y-81577068D01*
X144094247Y-81577068D02*
X144046628Y-81481829D01*
X144046628Y-81481829D02*
X143951390Y-81434210D01*
X143951390Y-81434210D02*
X143427580Y-81434210D01*
X144475200Y-80243735D02*
X143189485Y-81100877D01*
X143427580Y-79910401D02*
X144427580Y-79910401D01*
X144427580Y-79910401D02*
X144427580Y-79672306D01*
X144427580Y-79672306D02*
X144379961Y-79529449D01*
X144379961Y-79529449D02*
X144284723Y-79434211D01*
X144284723Y-79434211D02*
X144189485Y-79386592D01*
X144189485Y-79386592D02*
X143999009Y-79338973D01*
X143999009Y-79338973D02*
X143856152Y-79338973D01*
X143856152Y-79338973D02*
X143665676Y-79386592D01*
X143665676Y-79386592D02*
X143570438Y-79434211D01*
X143570438Y-79434211D02*
X143475200Y-79529449D01*
X143475200Y-79529449D02*
X143427580Y-79672306D01*
X143427580Y-79672306D02*
X143427580Y-79910401D01*
X143427580Y-78910401D02*
X144094247Y-78910401D01*
X143903771Y-78910401D02*
X143999009Y-78862782D01*
X143999009Y-78862782D02*
X144046628Y-78815163D01*
X144046628Y-78815163D02*
X144094247Y-78719925D01*
X144094247Y-78719925D02*
X144094247Y-78624687D01*
X144379961Y-77767544D02*
X144427580Y-77862782D01*
X144427580Y-77862782D02*
X144427580Y-78005639D01*
X144427580Y-78005639D02*
X144379961Y-78148496D01*
X144379961Y-78148496D02*
X144284723Y-78243734D01*
X144284723Y-78243734D02*
X144189485Y-78291353D01*
X144189485Y-78291353D02*
X143999009Y-78338972D01*
X143999009Y-78338972D02*
X143856152Y-78338972D01*
X143856152Y-78338972D02*
X143665676Y-78291353D01*
X143665676Y-78291353D02*
X143570438Y-78243734D01*
X143570438Y-78243734D02*
X143475200Y-78148496D01*
X143475200Y-78148496D02*
X143427580Y-78005639D01*
X143427580Y-78005639D02*
X143427580Y-77910401D01*
X143427580Y-77910401D02*
X143475200Y-77767544D01*
X143475200Y-77767544D02*
X143522819Y-77719925D01*
X143522819Y-77719925D02*
X143856152Y-77719925D01*
X143856152Y-77719925D02*
X143856152Y-77910401D01*
X143427580Y-77148496D02*
X143475200Y-77243734D01*
X143475200Y-77243734D02*
X143570438Y-77291353D01*
X143570438Y-77291353D02*
X144427580Y-77291353D01*
X143427580Y-76338972D02*
X143951390Y-76338972D01*
X143951390Y-76338972D02*
X144046628Y-76386591D01*
X144046628Y-76386591D02*
X144094247Y-76481829D01*
X144094247Y-76481829D02*
X144094247Y-76672305D01*
X144094247Y-76672305D02*
X144046628Y-76767543D01*
X143475200Y-76338972D02*
X143427580Y-76434210D01*
X143427580Y-76434210D02*
X143427580Y-76672305D01*
X143427580Y-76672305D02*
X143475200Y-76767543D01*
X143475200Y-76767543D02*
X143570438Y-76815162D01*
X143570438Y-76815162D02*
X143665676Y-76815162D01*
X143665676Y-76815162D02*
X143760914Y-76767543D01*
X143760914Y-76767543D02*
X143808533Y-76672305D01*
X143808533Y-76672305D02*
X143808533Y-76434210D01*
X143808533Y-76434210D02*
X143856152Y-76338972D01*
X144094247Y-75434210D02*
X143427580Y-75434210D01*
X144094247Y-75862781D02*
X143570438Y-75862781D01*
X143570438Y-75862781D02*
X143475200Y-75815162D01*
X143475200Y-75815162D02*
X143427580Y-75719924D01*
X143427580Y-75719924D02*
X143427580Y-75577067D01*
X143427580Y-75577067D02*
X143475200Y-75481829D01*
X143475200Y-75481829D02*
X143522819Y-75434210D01*
X143475200Y-74529448D02*
X143427580Y-74624686D01*
X143427580Y-74624686D02*
X143427580Y-74815162D01*
X143427580Y-74815162D02*
X143475200Y-74910400D01*
X143475200Y-74910400D02*
X143522819Y-74958019D01*
X143522819Y-74958019D02*
X143618057Y-75005638D01*
X143618057Y-75005638D02*
X143903771Y-75005638D01*
X143903771Y-75005638D02*
X143999009Y-74958019D01*
X143999009Y-74958019D02*
X144046628Y-74910400D01*
X144046628Y-74910400D02*
X144094247Y-74815162D01*
X144094247Y-74815162D02*
X144094247Y-74624686D01*
X144094247Y-74624686D02*
X144046628Y-74529448D01*
X143427580Y-73958019D02*
X143475200Y-74053257D01*
X143475200Y-74053257D02*
X143522819Y-74100876D01*
X143522819Y-74100876D02*
X143618057Y-74148495D01*
X143618057Y-74148495D02*
X143903771Y-74148495D01*
X143903771Y-74148495D02*
X143999009Y-74100876D01*
X143999009Y-74100876D02*
X144046628Y-74053257D01*
X144046628Y-74053257D02*
X144094247Y-73958019D01*
X144094247Y-73958019D02*
X144094247Y-73815162D01*
X144094247Y-73815162D02*
X144046628Y-73719924D01*
X144046628Y-73719924D02*
X143999009Y-73672305D01*
X143999009Y-73672305D02*
X143903771Y-73624686D01*
X143903771Y-73624686D02*
X143618057Y-73624686D01*
X143618057Y-73624686D02*
X143522819Y-73672305D01*
X143522819Y-73672305D02*
X143475200Y-73719924D01*
X143475200Y-73719924D02*
X143427580Y-73815162D01*
X143427580Y-73815162D02*
X143427580Y-73958019D01*
X144094247Y-72767543D02*
X143427580Y-72767543D01*
X144094247Y-73196114D02*
X143570438Y-73196114D01*
X143570438Y-73196114D02*
X143475200Y-73148495D01*
X143475200Y-73148495D02*
X143427580Y-73053257D01*
X143427580Y-73053257D02*
X143427580Y-72910400D01*
X143427580Y-72910400D02*
X143475200Y-72815162D01*
X143475200Y-72815162D02*
X143522819Y-72767543D01*
X143475200Y-72338971D02*
X143427580Y-72243733D01*
X143427580Y-72243733D02*
X143427580Y-72053257D01*
X143427580Y-72053257D02*
X143475200Y-71958019D01*
X143475200Y-71958019D02*
X143570438Y-71910400D01*
X143570438Y-71910400D02*
X143618057Y-71910400D01*
X143618057Y-71910400D02*
X143713295Y-71958019D01*
X143713295Y-71958019D02*
X143760914Y-72053257D01*
X143760914Y-72053257D02*
X143760914Y-72196114D01*
X143760914Y-72196114D02*
X143808533Y-72291352D01*
X143808533Y-72291352D02*
X143903771Y-72338971D01*
X143903771Y-72338971D02*
X143951390Y-72338971D01*
X143951390Y-72338971D02*
X144046628Y-72291352D01*
X144046628Y-72291352D02*
X144094247Y-72196114D01*
X144094247Y-72196114D02*
X144094247Y-72053257D01*
X144094247Y-72053257D02*
X144046628Y-71958019D01*
X144475200Y-70767543D02*
X143189485Y-71624685D01*
X144427580Y-70434209D02*
X143618057Y-70434209D01*
X143618057Y-70434209D02*
X143522819Y-70386590D01*
X143522819Y-70386590D02*
X143475200Y-70338971D01*
X143475200Y-70338971D02*
X143427580Y-70243733D01*
X143427580Y-70243733D02*
X143427580Y-70053257D01*
X143427580Y-70053257D02*
X143475200Y-69958019D01*
X143475200Y-69958019D02*
X143522819Y-69910400D01*
X143522819Y-69910400D02*
X143618057Y-69862781D01*
X143618057Y-69862781D02*
X144427580Y-69862781D01*
X143951390Y-69053257D02*
X143951390Y-69386590D01*
X143427580Y-69386590D02*
X144427580Y-69386590D01*
X144427580Y-69386590D02*
X144427580Y-68910400D01*
X143951390Y-68196114D02*
X143903771Y-68053257D01*
X143903771Y-68053257D02*
X143856152Y-68005638D01*
X143856152Y-68005638D02*
X143760914Y-67958019D01*
X143760914Y-67958019D02*
X143618057Y-67958019D01*
X143618057Y-67958019D02*
X143522819Y-68005638D01*
X143522819Y-68005638D02*
X143475200Y-68053257D01*
X143475200Y-68053257D02*
X143427580Y-68148495D01*
X143427580Y-68148495D02*
X143427580Y-68529447D01*
X143427580Y-68529447D02*
X144427580Y-68529447D01*
X144427580Y-68529447D02*
X144427580Y-68196114D01*
X144427580Y-68196114D02*
X144379961Y-68100876D01*
X144379961Y-68100876D02*
X144332342Y-68053257D01*
X144332342Y-68053257D02*
X144237104Y-68005638D01*
X144237104Y-68005638D02*
X144141866Y-68005638D01*
X144141866Y-68005638D02*
X144046628Y-68053257D01*
X144046628Y-68053257D02*
X143999009Y-68100876D01*
X143999009Y-68100876D02*
X143951390Y-68196114D01*
X143951390Y-68196114D02*
X143951390Y-68529447D01*
X144427580Y-67672304D02*
X144427580Y-67100876D01*
X143427580Y-67386590D02*
X144427580Y-67386590D01*
X143427580Y-66767542D02*
X144427580Y-66767542D01*
X144427580Y-66767542D02*
X143713295Y-66434209D01*
X143713295Y-66434209D02*
X144427580Y-66100876D01*
X144427580Y-66100876D02*
X143427580Y-66100876D01*
X134027580Y-60710401D02*
X133313295Y-60710401D01*
X133313295Y-60710401D02*
X133170438Y-60758020D01*
X133170438Y-60758020D02*
X133075200Y-60853258D01*
X133075200Y-60853258D02*
X133027580Y-60996115D01*
X133027580Y-60996115D02*
X133027580Y-61091353D01*
X133027580Y-59758020D02*
X133027580Y-60234210D01*
X133027580Y-60234210D02*
X134027580Y-60234210D01*
X133122819Y-58853258D02*
X133075200Y-58900877D01*
X133075200Y-58900877D02*
X133027580Y-59043734D01*
X133027580Y-59043734D02*
X133027580Y-59138972D01*
X133027580Y-59138972D02*
X133075200Y-59281829D01*
X133075200Y-59281829D02*
X133170438Y-59377067D01*
X133170438Y-59377067D02*
X133265676Y-59424686D01*
X133265676Y-59424686D02*
X133456152Y-59472305D01*
X133456152Y-59472305D02*
X133599009Y-59472305D01*
X133599009Y-59472305D02*
X133789485Y-59424686D01*
X133789485Y-59424686D02*
X133884723Y-59377067D01*
X133884723Y-59377067D02*
X133979961Y-59281829D01*
X133979961Y-59281829D02*
X134027580Y-59138972D01*
X134027580Y-59138972D02*
X134027580Y-59043734D01*
X134027580Y-59043734D02*
X133979961Y-58900877D01*
X133979961Y-58900877D02*
X133932342Y-58853258D01*
X134027580Y-58138972D02*
X133313295Y-58138972D01*
X133313295Y-58138972D02*
X133170438Y-58186591D01*
X133170438Y-58186591D02*
X133075200Y-58281829D01*
X133075200Y-58281829D02*
X133027580Y-58424686D01*
X133027580Y-58424686D02*
X133027580Y-58519924D01*
X133027580Y-57186591D02*
X133027580Y-57662781D01*
X133027580Y-57662781D02*
X134027580Y-57662781D01*
X133122819Y-56281829D02*
X133075200Y-56329448D01*
X133075200Y-56329448D02*
X133027580Y-56472305D01*
X133027580Y-56472305D02*
X133027580Y-56567543D01*
X133027580Y-56567543D02*
X133075200Y-56710400D01*
X133075200Y-56710400D02*
X133170438Y-56805638D01*
X133170438Y-56805638D02*
X133265676Y-56853257D01*
X133265676Y-56853257D02*
X133456152Y-56900876D01*
X133456152Y-56900876D02*
X133599009Y-56900876D01*
X133599009Y-56900876D02*
X133789485Y-56853257D01*
X133789485Y-56853257D02*
X133884723Y-56805638D01*
X133884723Y-56805638D02*
X133979961Y-56710400D01*
X133979961Y-56710400D02*
X134027580Y-56567543D01*
X134027580Y-56567543D02*
X134027580Y-56472305D01*
X134027580Y-56472305D02*
X133979961Y-56329448D01*
X133979961Y-56329448D02*
X133932342Y-56281829D01*
X134027580Y-55567543D02*
X133313295Y-55567543D01*
X133313295Y-55567543D02*
X133170438Y-55615162D01*
X133170438Y-55615162D02*
X133075200Y-55710400D01*
X133075200Y-55710400D02*
X133027580Y-55853257D01*
X133027580Y-55853257D02*
X133027580Y-55948495D01*
X133027580Y-54615162D02*
X133027580Y-55091352D01*
X133027580Y-55091352D02*
X134027580Y-55091352D01*
X133122819Y-53710400D02*
X133075200Y-53758019D01*
X133075200Y-53758019D02*
X133027580Y-53900876D01*
X133027580Y-53900876D02*
X133027580Y-53996114D01*
X133027580Y-53996114D02*
X133075200Y-54138971D01*
X133075200Y-54138971D02*
X133170438Y-54234209D01*
X133170438Y-54234209D02*
X133265676Y-54281828D01*
X133265676Y-54281828D02*
X133456152Y-54329447D01*
X133456152Y-54329447D02*
X133599009Y-54329447D01*
X133599009Y-54329447D02*
X133789485Y-54281828D01*
X133789485Y-54281828D02*
X133884723Y-54234209D01*
X133884723Y-54234209D02*
X133979961Y-54138971D01*
X133979961Y-54138971D02*
X134027580Y-53996114D01*
X134027580Y-53996114D02*
X134027580Y-53900876D01*
X134027580Y-53900876D02*
X133979961Y-53758019D01*
X133979961Y-53758019D02*
X133932342Y-53710400D01*
X134027580Y-52996114D02*
X133313295Y-52996114D01*
X133313295Y-52996114D02*
X133170438Y-53043733D01*
X133170438Y-53043733D02*
X133075200Y-53138971D01*
X133075200Y-53138971D02*
X133027580Y-53281828D01*
X133027580Y-53281828D02*
X133027580Y-53377066D01*
X133027580Y-52043733D02*
X133027580Y-52519923D01*
X133027580Y-52519923D02*
X134027580Y-52519923D01*
X133122819Y-51138971D02*
X133075200Y-51186590D01*
X133075200Y-51186590D02*
X133027580Y-51329447D01*
X133027580Y-51329447D02*
X133027580Y-51424685D01*
X133027580Y-51424685D02*
X133075200Y-51567542D01*
X133075200Y-51567542D02*
X133170438Y-51662780D01*
X133170438Y-51662780D02*
X133265676Y-51710399D01*
X133265676Y-51710399D02*
X133456152Y-51758018D01*
X133456152Y-51758018D02*
X133599009Y-51758018D01*
X133599009Y-51758018D02*
X133789485Y-51710399D01*
X133789485Y-51710399D02*
X133884723Y-51662780D01*
X133884723Y-51662780D02*
X133979961Y-51567542D01*
X133979961Y-51567542D02*
X134027580Y-51424685D01*
X134027580Y-51424685D02*
X134027580Y-51329447D01*
X134027580Y-51329447D02*
X133979961Y-51186590D01*
X133979961Y-51186590D02*
X133932342Y-51138971D01*
X172547468Y-125006115D02*
X171737945Y-125006115D01*
X171737945Y-125006115D02*
X171642707Y-124958496D01*
X171642707Y-124958496D02*
X171595088Y-124910877D01*
X171595088Y-124910877D02*
X171547468Y-124815639D01*
X171547468Y-124815639D02*
X171547468Y-124625163D01*
X171547468Y-124625163D02*
X171595088Y-124529925D01*
X171595088Y-124529925D02*
X171642707Y-124482306D01*
X171642707Y-124482306D02*
X171737945Y-124434687D01*
X171737945Y-124434687D02*
X172547468Y-124434687D01*
X172071278Y-123625163D02*
X172071278Y-123958496D01*
X171547468Y-123958496D02*
X172547468Y-123958496D01*
X172547468Y-123958496D02*
X172547468Y-123482306D01*
X172071278Y-122768020D02*
X172023659Y-122625163D01*
X172023659Y-122625163D02*
X171976040Y-122577544D01*
X171976040Y-122577544D02*
X171880802Y-122529925D01*
X171880802Y-122529925D02*
X171737945Y-122529925D01*
X171737945Y-122529925D02*
X171642707Y-122577544D01*
X171642707Y-122577544D02*
X171595088Y-122625163D01*
X171595088Y-122625163D02*
X171547468Y-122720401D01*
X171547468Y-122720401D02*
X171547468Y-123101353D01*
X171547468Y-123101353D02*
X172547468Y-123101353D01*
X172547468Y-123101353D02*
X172547468Y-122768020D01*
X172547468Y-122768020D02*
X172499849Y-122672782D01*
X172499849Y-122672782D02*
X172452230Y-122625163D01*
X172452230Y-122625163D02*
X172356992Y-122577544D01*
X172356992Y-122577544D02*
X172261754Y-122577544D01*
X172261754Y-122577544D02*
X172166516Y-122625163D01*
X172166516Y-122625163D02*
X172118897Y-122672782D01*
X172118897Y-122672782D02*
X172071278Y-122768020D01*
X172071278Y-122768020D02*
X172071278Y-123101353D01*
X172547468Y-122244210D02*
X172547468Y-121672782D01*
X171547468Y-121958496D02*
X172547468Y-121958496D01*
X171547468Y-121339448D02*
X172547468Y-121339448D01*
X172547468Y-121339448D02*
X171833183Y-121006115D01*
X171833183Y-121006115D02*
X172547468Y-120672782D01*
X172547468Y-120672782D02*
X171547468Y-120672782D01*
X170937524Y-125148972D02*
X170937524Y-124577544D01*
X169937524Y-124863258D02*
X170937524Y-124863258D01*
X170604191Y-124339448D02*
X169937524Y-124101353D01*
X170604191Y-123863258D02*
X169937524Y-124101353D01*
X169937524Y-124101353D02*
X169699429Y-124196591D01*
X169699429Y-124196591D02*
X169651810Y-124244210D01*
X169651810Y-124244210D02*
X169604191Y-124339448D01*
X170604191Y-123482305D02*
X169604191Y-123482305D01*
X170556572Y-123482305D02*
X170604191Y-123387067D01*
X170604191Y-123387067D02*
X170604191Y-123196591D01*
X170604191Y-123196591D02*
X170556572Y-123101353D01*
X170556572Y-123101353D02*
X170508953Y-123053734D01*
X170508953Y-123053734D02*
X170413715Y-123006115D01*
X170413715Y-123006115D02*
X170128001Y-123006115D01*
X170128001Y-123006115D02*
X170032763Y-123053734D01*
X170032763Y-123053734D02*
X169985144Y-123101353D01*
X169985144Y-123101353D02*
X169937524Y-123196591D01*
X169937524Y-123196591D02*
X169937524Y-123387067D01*
X169937524Y-123387067D02*
X169985144Y-123482305D01*
X169985144Y-122196591D02*
X169937524Y-122291829D01*
X169937524Y-122291829D02*
X169937524Y-122482305D01*
X169937524Y-122482305D02*
X169985144Y-122577543D01*
X169985144Y-122577543D02*
X170080382Y-122625162D01*
X170080382Y-122625162D02*
X170461334Y-122625162D01*
X170461334Y-122625162D02*
X170556572Y-122577543D01*
X170556572Y-122577543D02*
X170604191Y-122482305D01*
X170604191Y-122482305D02*
X170604191Y-122291829D01*
X170604191Y-122291829D02*
X170556572Y-122196591D01*
X170556572Y-122196591D02*
X170461334Y-122148972D01*
X170461334Y-122148972D02*
X170366096Y-122148972D01*
X170366096Y-122148972D02*
X170270858Y-122625162D01*
X170461334Y-120625162D02*
X170413715Y-120482305D01*
X170413715Y-120482305D02*
X170366096Y-120434686D01*
X170366096Y-120434686D02*
X170270858Y-120387067D01*
X170270858Y-120387067D02*
X170128001Y-120387067D01*
X170128001Y-120387067D02*
X170032763Y-120434686D01*
X170032763Y-120434686D02*
X169985144Y-120482305D01*
X169985144Y-120482305D02*
X169937524Y-120577543D01*
X169937524Y-120577543D02*
X169937524Y-120958495D01*
X169937524Y-120958495D02*
X170937524Y-120958495D01*
X170937524Y-120958495D02*
X170937524Y-120625162D01*
X170937524Y-120625162D02*
X170889905Y-120529924D01*
X170889905Y-120529924D02*
X170842286Y-120482305D01*
X170842286Y-120482305D02*
X170747048Y-120434686D01*
X170747048Y-120434686D02*
X170651810Y-120434686D01*
X170651810Y-120434686D02*
X170556572Y-120482305D01*
X170556572Y-120482305D02*
X170508953Y-120529924D01*
X170508953Y-120529924D02*
X170461334Y-120625162D01*
X170461334Y-120625162D02*
X170461334Y-120958495D01*
X168327580Y-124434687D02*
X168803771Y-124768020D01*
X168327580Y-125006115D02*
X169327580Y-125006115D01*
X169327580Y-125006115D02*
X169327580Y-124625163D01*
X169327580Y-124625163D02*
X169279961Y-124529925D01*
X169279961Y-124529925D02*
X169232342Y-124482306D01*
X169232342Y-124482306D02*
X169137104Y-124434687D01*
X169137104Y-124434687D02*
X168994247Y-124434687D01*
X168994247Y-124434687D02*
X168899009Y-124482306D01*
X168899009Y-124482306D02*
X168851390Y-124529925D01*
X168851390Y-124529925D02*
X168803771Y-124625163D01*
X168803771Y-124625163D02*
X168803771Y-125006115D01*
X168375200Y-123625163D02*
X168327580Y-123720401D01*
X168327580Y-123720401D02*
X168327580Y-123910877D01*
X168327580Y-123910877D02*
X168375200Y-124006115D01*
X168375200Y-124006115D02*
X168470438Y-124053734D01*
X168470438Y-124053734D02*
X168851390Y-124053734D01*
X168851390Y-124053734D02*
X168946628Y-124006115D01*
X168946628Y-124006115D02*
X168994247Y-123910877D01*
X168994247Y-123910877D02*
X168994247Y-123720401D01*
X168994247Y-123720401D02*
X168946628Y-123625163D01*
X168946628Y-123625163D02*
X168851390Y-123577544D01*
X168851390Y-123577544D02*
X168756152Y-123577544D01*
X168756152Y-123577544D02*
X168660914Y-124053734D01*
X168994247Y-123244210D02*
X168327580Y-123006115D01*
X168327580Y-123006115D02*
X168994247Y-122768020D01*
X168422819Y-122387067D02*
X168375200Y-122339448D01*
X168375200Y-122339448D02*
X168327580Y-122387067D01*
X168327580Y-122387067D02*
X168375200Y-122434686D01*
X168375200Y-122434686D02*
X168422819Y-122387067D01*
X168422819Y-122387067D02*
X168327580Y-122387067D01*
X168327580Y-120625163D02*
X168327580Y-121196591D01*
X168327580Y-120910877D02*
X169327580Y-120910877D01*
X169327580Y-120910877D02*
X169184723Y-121006115D01*
X169184723Y-121006115D02*
X169089485Y-121101353D01*
X169089485Y-121101353D02*
X169041866Y-121196591D01*
X168422819Y-120196591D02*
X168375200Y-120148972D01*
X168375200Y-120148972D02*
X168327580Y-120196591D01*
X168327580Y-120196591D02*
X168375200Y-120244210D01*
X168375200Y-120244210D02*
X168422819Y-120196591D01*
X168422819Y-120196591D02*
X168327580Y-120196591D01*
X169327580Y-119529925D02*
X169327580Y-119434687D01*
X169327580Y-119434687D02*
X169279961Y-119339449D01*
X169279961Y-119339449D02*
X169232342Y-119291830D01*
X169232342Y-119291830D02*
X169137104Y-119244211D01*
X169137104Y-119244211D02*
X168946628Y-119196592D01*
X168946628Y-119196592D02*
X168708533Y-119196592D01*
X168708533Y-119196592D02*
X168518057Y-119244211D01*
X168518057Y-119244211D02*
X168422819Y-119291830D01*
X168422819Y-119291830D02*
X168375200Y-119339449D01*
X168375200Y-119339449D02*
X168327580Y-119434687D01*
X168327580Y-119434687D02*
X168327580Y-119529925D01*
X168327580Y-119529925D02*
X168375200Y-119625163D01*
X168375200Y-119625163D02*
X168422819Y-119672782D01*
X168422819Y-119672782D02*
X168518057Y-119720401D01*
X168518057Y-119720401D02*
X168708533Y-119768020D01*
X168708533Y-119768020D02*
X168946628Y-119768020D01*
X168946628Y-119768020D02*
X169137104Y-119720401D01*
X169137104Y-119720401D02*
X169232342Y-119672782D01*
X169232342Y-119672782D02*
X169279961Y-119625163D01*
X169279961Y-119625163D02*
X169327580Y-119529925D01*
X142137524Y-72338972D02*
X142137524Y-71767544D01*
X141137524Y-72053258D02*
X142137524Y-72053258D01*
X141804191Y-71529448D02*
X141137524Y-71291353D01*
X141804191Y-71053258D02*
X141137524Y-71291353D01*
X141137524Y-71291353D02*
X140899429Y-71386591D01*
X140899429Y-71386591D02*
X140851810Y-71434210D01*
X140851810Y-71434210D02*
X140804191Y-71529448D01*
X141804191Y-70672305D02*
X140804191Y-70672305D01*
X141756572Y-70672305D02*
X141804191Y-70577067D01*
X141804191Y-70577067D02*
X141804191Y-70386591D01*
X141804191Y-70386591D02*
X141756572Y-70291353D01*
X141756572Y-70291353D02*
X141708953Y-70243734D01*
X141708953Y-70243734D02*
X141613715Y-70196115D01*
X141613715Y-70196115D02*
X141328001Y-70196115D01*
X141328001Y-70196115D02*
X141232763Y-70243734D01*
X141232763Y-70243734D02*
X141185144Y-70291353D01*
X141185144Y-70291353D02*
X141137524Y-70386591D01*
X141137524Y-70386591D02*
X141137524Y-70577067D01*
X141137524Y-70577067D02*
X141185144Y-70672305D01*
X141185144Y-69386591D02*
X141137524Y-69481829D01*
X141137524Y-69481829D02*
X141137524Y-69672305D01*
X141137524Y-69672305D02*
X141185144Y-69767543D01*
X141185144Y-69767543D02*
X141280382Y-69815162D01*
X141280382Y-69815162D02*
X141661334Y-69815162D01*
X141661334Y-69815162D02*
X141756572Y-69767543D01*
X141756572Y-69767543D02*
X141804191Y-69672305D01*
X141804191Y-69672305D02*
X141804191Y-69481829D01*
X141804191Y-69481829D02*
X141756572Y-69386591D01*
X141756572Y-69386591D02*
X141661334Y-69338972D01*
X141661334Y-69338972D02*
X141566096Y-69338972D01*
X141566096Y-69338972D02*
X141470858Y-69815162D01*
X141423239Y-68196114D02*
X141423239Y-67719924D01*
X141137524Y-68291352D02*
X142137524Y-67958019D01*
X142137524Y-67958019D02*
X141137524Y-67624686D01*
X139527580Y-71624687D02*
X140003771Y-71958020D01*
X139527580Y-72196115D02*
X140527580Y-72196115D01*
X140527580Y-72196115D02*
X140527580Y-71815163D01*
X140527580Y-71815163D02*
X140479961Y-71719925D01*
X140479961Y-71719925D02*
X140432342Y-71672306D01*
X140432342Y-71672306D02*
X140337104Y-71624687D01*
X140337104Y-71624687D02*
X140194247Y-71624687D01*
X140194247Y-71624687D02*
X140099009Y-71672306D01*
X140099009Y-71672306D02*
X140051390Y-71719925D01*
X140051390Y-71719925D02*
X140003771Y-71815163D01*
X140003771Y-71815163D02*
X140003771Y-72196115D01*
X139575200Y-70815163D02*
X139527580Y-70910401D01*
X139527580Y-70910401D02*
X139527580Y-71100877D01*
X139527580Y-71100877D02*
X139575200Y-71196115D01*
X139575200Y-71196115D02*
X139670438Y-71243734D01*
X139670438Y-71243734D02*
X140051390Y-71243734D01*
X140051390Y-71243734D02*
X140146628Y-71196115D01*
X140146628Y-71196115D02*
X140194247Y-71100877D01*
X140194247Y-71100877D02*
X140194247Y-70910401D01*
X140194247Y-70910401D02*
X140146628Y-70815163D01*
X140146628Y-70815163D02*
X140051390Y-70767544D01*
X140051390Y-70767544D02*
X139956152Y-70767544D01*
X139956152Y-70767544D02*
X139860914Y-71243734D01*
X140194247Y-70434210D02*
X139527580Y-70196115D01*
X139527580Y-70196115D02*
X140194247Y-69958020D01*
X139622819Y-69577067D02*
X139575200Y-69529448D01*
X139575200Y-69529448D02*
X139527580Y-69577067D01*
X139527580Y-69577067D02*
X139575200Y-69624686D01*
X139575200Y-69624686D02*
X139622819Y-69577067D01*
X139622819Y-69577067D02*
X139527580Y-69577067D01*
X139527580Y-67815163D02*
X139527580Y-68386591D01*
X139527580Y-68100877D02*
X140527580Y-68100877D01*
X140527580Y-68100877D02*
X140384723Y-68196115D01*
X140384723Y-68196115D02*
X140289485Y-68291353D01*
X140289485Y-68291353D02*
X140241866Y-68386591D01*
X139622819Y-67386591D02*
X139575200Y-67338972D01*
X139575200Y-67338972D02*
X139527580Y-67386591D01*
X139527580Y-67386591D02*
X139575200Y-67434210D01*
X139575200Y-67434210D02*
X139622819Y-67386591D01*
X139622819Y-67386591D02*
X139527580Y-67386591D01*
X140527580Y-66719925D02*
X140527580Y-66624687D01*
X140527580Y-66624687D02*
X140479961Y-66529449D01*
X140479961Y-66529449D02*
X140432342Y-66481830D01*
X140432342Y-66481830D02*
X140337104Y-66434211D01*
X140337104Y-66434211D02*
X140146628Y-66386592D01*
X140146628Y-66386592D02*
X139908533Y-66386592D01*
X139908533Y-66386592D02*
X139718057Y-66434211D01*
X139718057Y-66434211D02*
X139622819Y-66481830D01*
X139622819Y-66481830D02*
X139575200Y-66529449D01*
X139575200Y-66529449D02*
X139527580Y-66624687D01*
X139527580Y-66624687D02*
X139527580Y-66719925D01*
X139527580Y-66719925D02*
X139575200Y-66815163D01*
X139575200Y-66815163D02*
X139622819Y-66862782D01*
X139622819Y-66862782D02*
X139718057Y-66910401D01*
X139718057Y-66910401D02*
X139908533Y-66958020D01*
X139908533Y-66958020D02*
X140146628Y-66958020D01*
X140146628Y-66958020D02*
X140337104Y-66910401D01*
X140337104Y-66910401D02*
X140432342Y-66862782D01*
X140432342Y-66862782D02*
X140479961Y-66815163D01*
X140479961Y-66815163D02*
X140527580Y-66719925D01*
G36*
X154623094Y-85429724D02*
G01*
X153546579Y-85429724D01*
X153546579Y-84872332D01*
X153657690Y-84872332D01*
X153657690Y-84910600D01*
X153684750Y-84937660D01*
X153703884Y-84941466D01*
X154034836Y-84941466D01*
X154034836Y-85272419D01*
X154038642Y-85291553D01*
X154065702Y-85318613D01*
X154103970Y-85318613D01*
X154131030Y-85291553D01*
X154134836Y-85272419D01*
X154134836Y-84941466D01*
X154465789Y-84941466D01*
X154484923Y-84937660D01*
X154511983Y-84910600D01*
X154511983Y-84872332D01*
X154484923Y-84845272D01*
X154465789Y-84841466D01*
X154134836Y-84841466D01*
X154134836Y-84510514D01*
X154131030Y-84491380D01*
X154103970Y-84464320D01*
X154065702Y-84464320D01*
X154038642Y-84491380D01*
X154034836Y-84510514D01*
X154034836Y-84841466D01*
X153703884Y-84841466D01*
X153684750Y-84845272D01*
X153657690Y-84872332D01*
X153546579Y-84872332D01*
X153546579Y-84353209D01*
X154623094Y-84353209D01*
X154623094Y-85429724D01*
G37*
D16*
X165833333Y-66704819D02*
X165833333Y-67419104D01*
X165833333Y-67419104D02*
X165880952Y-67561961D01*
X165880952Y-67561961D02*
X165976190Y-67657200D01*
X165976190Y-67657200D02*
X166119047Y-67704819D01*
X166119047Y-67704819D02*
X166214285Y-67704819D01*
X165357142Y-67704819D02*
X165357142Y-66704819D01*
X165357142Y-66704819D02*
X164976190Y-66704819D01*
X164976190Y-66704819D02*
X164880952Y-66752438D01*
X164880952Y-66752438D02*
X164833333Y-66800057D01*
X164833333Y-66800057D02*
X164785714Y-66895295D01*
X164785714Y-66895295D02*
X164785714Y-67038152D01*
X164785714Y-67038152D02*
X164833333Y-67133390D01*
X164833333Y-67133390D02*
X164880952Y-67181009D01*
X164880952Y-67181009D02*
X164976190Y-67228628D01*
X164976190Y-67228628D02*
X165357142Y-67228628D01*
X163833333Y-67704819D02*
X164404761Y-67704819D01*
X164119047Y-67704819D02*
X164119047Y-66704819D01*
X164119047Y-66704819D02*
X164214285Y-66847676D01*
X164214285Y-66847676D02*
X164309523Y-66942914D01*
X164309523Y-66942914D02*
X164404761Y-66990533D01*
X157354819Y-76666666D02*
X158069104Y-76666666D01*
X158069104Y-76666666D02*
X158211961Y-76619047D01*
X158211961Y-76619047D02*
X158307200Y-76523809D01*
X158307200Y-76523809D02*
X158354819Y-76380952D01*
X158354819Y-76380952D02*
X158354819Y-76285714D01*
X158354819Y-77142857D02*
X157354819Y-77142857D01*
X157354819Y-77142857D02*
X157354819Y-77523809D01*
X157354819Y-77523809D02*
X157402438Y-77619047D01*
X157402438Y-77619047D02*
X157450057Y-77666666D01*
X157450057Y-77666666D02*
X157545295Y-77714285D01*
X157545295Y-77714285D02*
X157688152Y-77714285D01*
X157688152Y-77714285D02*
X157783390Y-77666666D01*
X157783390Y-77666666D02*
X157831009Y-77619047D01*
X157831009Y-77619047D02*
X157878628Y-77523809D01*
X157878628Y-77523809D02*
X157878628Y-77142857D01*
X157450057Y-78095238D02*
X157402438Y-78142857D01*
X157402438Y-78142857D02*
X157354819Y-78238095D01*
X157354819Y-78238095D02*
X157354819Y-78476190D01*
X157354819Y-78476190D02*
X157402438Y-78571428D01*
X157402438Y-78571428D02*
X157450057Y-78619047D01*
X157450057Y-78619047D02*
X157545295Y-78666666D01*
X157545295Y-78666666D02*
X157640533Y-78666666D01*
X157640533Y-78666666D02*
X157783390Y-78619047D01*
X157783390Y-78619047D02*
X158354819Y-78047619D01*
X158354819Y-78047619D02*
X158354819Y-78666666D01*
D15*
X175262857Y-125765038D02*
X175358095Y-125717419D01*
X175358095Y-125717419D02*
X175500952Y-125717419D01*
X175500952Y-125717419D02*
X175643809Y-125765038D01*
X175643809Y-125765038D02*
X175739047Y-125860276D01*
X175739047Y-125860276D02*
X175786666Y-125955514D01*
X175786666Y-125955514D02*
X175834285Y-126145990D01*
X175834285Y-126145990D02*
X175834285Y-126288847D01*
X175834285Y-126288847D02*
X175786666Y-126479323D01*
X175786666Y-126479323D02*
X175739047Y-126574561D01*
X175739047Y-126574561D02*
X175643809Y-126669800D01*
X175643809Y-126669800D02*
X175500952Y-126717419D01*
X175500952Y-126717419D02*
X175405714Y-126717419D01*
X175405714Y-126717419D02*
X175262857Y-126669800D01*
X175262857Y-126669800D02*
X175215238Y-126622180D01*
X175215238Y-126622180D02*
X175215238Y-126288847D01*
X175215238Y-126288847D02*
X175405714Y-126288847D01*
X174596190Y-126241228D02*
X174596190Y-126717419D01*
X174929523Y-125717419D02*
X174596190Y-126241228D01*
X174596190Y-126241228D02*
X174262857Y-125717419D01*
X173977142Y-125812657D02*
X173929523Y-125765038D01*
X173929523Y-125765038D02*
X173834285Y-125717419D01*
X173834285Y-125717419D02*
X173596190Y-125717419D01*
X173596190Y-125717419D02*
X173500952Y-125765038D01*
X173500952Y-125765038D02*
X173453333Y-125812657D01*
X173453333Y-125812657D02*
X173405714Y-125907895D01*
X173405714Y-125907895D02*
X173405714Y-126003133D01*
X173405714Y-126003133D02*
X173453333Y-126145990D01*
X173453333Y-126145990D02*
X174024761Y-126717419D01*
X174024761Y-126717419D02*
X173405714Y-126717419D01*
D16*
X151333333Y-78904819D02*
X151666666Y-78428628D01*
X151904761Y-78904819D02*
X151904761Y-77904819D01*
X151904761Y-77904819D02*
X151523809Y-77904819D01*
X151523809Y-77904819D02*
X151428571Y-77952438D01*
X151428571Y-77952438D02*
X151380952Y-78000057D01*
X151380952Y-78000057D02*
X151333333Y-78095295D01*
X151333333Y-78095295D02*
X151333333Y-78238152D01*
X151333333Y-78238152D02*
X151380952Y-78333390D01*
X151380952Y-78333390D02*
X151428571Y-78381009D01*
X151428571Y-78381009D02*
X151523809Y-78428628D01*
X151523809Y-78428628D02*
X151904761Y-78428628D01*
X150904761Y-78381009D02*
X150571428Y-78381009D01*
X150428571Y-78904819D02*
X150904761Y-78904819D01*
X150904761Y-78904819D02*
X150904761Y-77904819D01*
X150904761Y-77904819D02*
X150428571Y-77904819D01*
X149666666Y-78381009D02*
X149999999Y-78381009D01*
X149999999Y-78904819D02*
X149999999Y-77904819D01*
X149999999Y-77904819D02*
X149523809Y-77904819D01*
X148999999Y-77904819D02*
X148999999Y-78142914D01*
X149238094Y-78047676D02*
X148999999Y-78142914D01*
X148999999Y-78142914D02*
X148761904Y-78047676D01*
X149142856Y-78333390D02*
X148999999Y-78142914D01*
X148999999Y-78142914D02*
X148857142Y-78333390D01*
X148238094Y-77904819D02*
X148238094Y-78142914D01*
X148476189Y-78047676D02*
X148238094Y-78142914D01*
X148238094Y-78142914D02*
X147999999Y-78047676D01*
X148380951Y-78333390D02*
X148238094Y-78142914D01*
X148238094Y-78142914D02*
X148095237Y-78333390D01*
D17*
X163600000Y-68750000D02*
X163600000Y-69350000D01*
X164300000Y-70050000D02*
X165700000Y-70050000D01*
X165700000Y-68050000D02*
X164300000Y-68050000D01*
X166400000Y-69350000D02*
X166400000Y-68750000D01*
X163600000Y-68750000D02*
G75*
G02*
X164300000Y-68050000I700000J0D01*
G01*
X164300000Y-70050000D02*
G75*
G02*
X163600000Y-69350000I0J700000D01*
G01*
X165700000Y-68050000D02*
G75*
G02*
X166400000Y-68750000I1J-699999D01*
G01*
X166400000Y-69350000D02*
G75*
G02*
X165700000Y-70050000I-699999J-1D01*
G01*
X158700000Y-76800000D02*
X158700000Y-78200000D01*
X159400000Y-78900000D02*
X160000000Y-78900000D01*
X160000000Y-76100000D02*
X159400000Y-76100000D01*
X160700000Y-78200000D02*
X160700000Y-76800000D01*
X158700000Y-76800000D02*
G75*
G02*
X159400000Y-76100000I699999J1D01*
G01*
X159400000Y-78900000D02*
G75*
G02*
X158700000Y-78200000I0J700000D01*
G01*
X160000000Y-76100000D02*
G75*
G02*
X160700000Y-76800000I1J-699999D01*
G01*
X160700000Y-78200000D02*
G75*
G02*
X160000000Y-78900000I-700000J0D01*
G01*
X181244000Y-132704000D02*
X167996000Y-132704000D01*
X167996000Y-117916000D01*
X181244000Y-117916000D01*
X181244000Y-132704000D01*
M02*
