M48
; DRILL file {KiCad 9.0.2} date 2025-07-09T02:03:54-0400
; FORMAT={-:-/ absolute / metric / decimal}
; #@! TF.CreationDate,2025-07-09T02:03:54-04:00
; #@! TF.GenerationSoftware,Kicad,Pcbnew,9.0.2
; #@! TF.FileFunction,Plated,1,2,PTH
FMAT,2
METRIC
; #@! TA.AperFunction,Plated,PTH,ViaDrill
T1C0.300
; #@! TA.AperFunction,Plated,PTH,ComponentDrill
T2C0.700
; #@! TA.AperFunction,Plated,PTH,ComponentDrill
T3C0.800
; #@! TA.AperFunction,Plated,PTH,ComponentDrill
T4C0.900
; #@! TA.AperFunction,Plated,PTH,ComponentDrill
T5C1.000
; #@! TA.AperFunction,Plated,PTH,ComponentDrill
T6C1.100
; #@! TA.AperFunction,Plated,PTH,ComponentDrill
T7C1.250
%
G90
G05
T1
X159.7Y-83.0
X164.577Y-86.722
X164.9Y-65.9
X165.0Y-58.0
X166.05Y-83.85
T3
X161.25Y-55.2
X161.28Y-52.0
X167.7Y-60.25
X167.7Y-62.25
X167.7Y-64.25
X168.87Y-55.2
X168.9Y-52.0
T4
X131.276Y-69.041
X131.316Y-51.261
X131.316Y-53.801
X131.316Y-56.341
X131.316Y-58.881
X131.316Y-61.421
X131.316Y-63.961
X131.316Y-66.501
X144.364Y-130.476
X146.516Y-51.261
X146.516Y-53.801
X146.516Y-56.341
X146.516Y-58.881
X146.516Y-61.421
X146.516Y-63.961
X146.516Y-66.501
X146.516Y-69.041
X146.904Y-130.476
X147.2Y-78.32
X147.2Y-80.86
X147.2Y-83.4
X147.2Y-85.94
X147.2Y-88.48
X148.9Y-56.8
X149.0Y-66.0
X149.444Y-130.476
X151.5Y-66.0
X151.984Y-130.476
X153.4Y-71.5
X154.524Y-130.476
X155.94Y-71.5
X155.94Y-81.66
X156.7Y-66.0
X158.48Y-71.5
X158.48Y-81.66
X159.2Y-66.0
X159.3Y-56.8
X161.02Y-71.5
X161.02Y-81.66
X163.56Y-71.5
X163.56Y-81.66
X166.1Y-71.5
X166.1Y-81.66
X167.02Y-118.1
X168.64Y-71.5
X169.56Y-118.1
X169.56Y-128.26
X169.56Y-131.18
X172.1Y-118.1
X172.1Y-128.26
X172.1Y-131.18
X174.64Y-118.1
X174.64Y-128.26
X174.64Y-131.18
X177.18Y-118.1
X177.18Y-128.26
X177.18Y-131.18
X179.72Y-118.1
X179.72Y-128.26
X179.72Y-131.18
X182.26Y-118.1
T5
X151.6Y-87.2
X154.1Y-87.2
T6
X154.48Y-68.6
X162.1Y-58.18
X162.1Y-65.8
X162.1Y-68.6
T7
X167.7Y-58.15
X167.7Y-66.35
T2
X159.155Y-84.5G85X158.355Y-84.5
G05
X160.155Y-88.9G85X159.355Y-88.9
G05
X164.155Y-88.9G85X163.355Y-88.9
G05
X167.155Y-88.9G85X166.355Y-88.9
G05
X168.45Y-111.0G85X169.25Y-111.0
G05
X171.45Y-111.0G85X172.25Y-111.0
G05
X175.45Y-111.0G85X176.25Y-111.0
G05
X176.45Y-115.4G85X177.25Y-115.4
G05
M30
